<svg width="485" height="180" viewBox="0 0 485 180" fill="none" xmlns="http://www.w3.org/2000/svg">
<g clip-path="url(#clip0_181_24727)">
<path d="M113.553 179.852C105.512 179.852 97.2636 180.119 88.9263 179.674C86.6161 179.555 84.0246 177.714 82.2476 175.977C73.9991 167.9 65.958 159.644 56.5989 150.008C48.6318 158.412 40.8868 166.177 33.6454 174.388C32.0496 176.376 29.9795 177.929 27.6266 178.902C25.2737 179.875 22.714 180.238 20.1843 179.956C13.6388 179.526 7.04894 179.852 0 179.852V93.1113C7.30069 100.535 13.7425 106.712 19.7844 113.304C21.0136 114.655 21.0432 117.388 21.058 119.496C21.1765 131.493 21.058 143.505 21.058 155.873L55.118 120.149L113.553 179.852Z" fill="#0B2A38"/>
<path d="M115.241 0.149116V85.8952C107.955 78.694 101.143 72.2946 94.7755 65.4795C93.5463 64.1877 93.6944 61.3666 93.6796 59.2434C93.576 47.4988 93.6796 35.7542 93.6796 22.3169L58.9828 58.5159L1.37695 0.19366C10.2622 0.19366 18.9253 -0.0439052 27.6328 0.371834C29.6616 0.475768 31.8237 2.599 33.4822 4.24711C41.4641 12.1758 49.372 20.253 58.3164 29.3102C66.402 20.9361 74.1618 13.1855 81.5661 5.09344C83.0258 3.30431 84.903 1.9036 87.0314 1.01529C89.1598 0.126987 91.4737 -0.221514 93.7685 0.000638261C100.61 0.46092 107.511 0.149116 115.241 0.149116Z" fill="#0B2A38"/>
<path d="M437.701 80.4463V108.895H420.256V24.2622H436.975L438.041 29.2956C455.426 19.7485 467.496 21.1442 477.802 33.557C487.576 45.3016 487.369 65.3907 477.358 77.2244C466.948 89.4738 455.012 90.5726 437.701 80.4463ZM467.14 55.3981C467.14 45.5688 460.595 37.5807 452.406 37.4025C444.216 37.2244 437.493 45.3164 437.478 55.2199C437.464 65.1234 443.58 72.4285 451.739 72.577C460.358 72.6661 467.125 65.1531 467.14 55.3981Z" fill="#0B2A38"/>
<path d="M226.737 172.086C226.352 174.551 226.055 176.407 225.759 178.322H210.195V96.125H225.967V123.103C245.351 114.328 257.405 116.407 266.32 129.443C274.939 142.034 273.043 160.624 262.041 171.433C252.015 181.262 240.213 181.693 226.737 172.086ZM254.71 147.988C254.607 138.426 248.135 131.151 239.902 131.344C231.668 131.537 225.833 139.005 226.011 148.835C226.189 158.055 232.601 165.405 240.361 165.271C248.12 165.138 254.799 157.298 254.71 147.988Z" fill="#D8342E"/>
<path d="M329.419 86.3695H311.797V59.6434C311.797 56.6739 311.9 53.7043 311.708 50.7348C311.13 42.1824 307.798 38.0696 301.475 37.8469C294.263 37.5944 288.666 42.6724 288.281 50.7051C287.836 60.0146 288.044 69.3688 287.984 78.6932C287.984 80.8907 287.984 83.1475 287.984 85.9686H270.836V0.742188H287.866V28.7155C293.242 26.5477 297.758 23.8602 302.675 22.9248C316.269 20.3116 328.471 30.9426 329.33 46.6813C329.982 59.5841 329.419 72.6204 329.419 86.3695Z" fill="#0B2A38"/>
<path d="M139.023 31.6567C150.722 24.0991 162.421 20.7881 175.379 23.5646C186.9 26.0294 193.06 32.696 193.475 44.3516C193.964 58.0412 193.593 71.7755 193.593 85.4058C182.828 88.3753 178.459 87.4548 176.001 81.0405C168.256 87.6626 159.578 89.2365 150.13 85.7324C146.027 84.3619 142.475 81.6991 140.004 78.1406C137.533 74.5822 136.275 70.3185 136.417 65.9848C136.624 56.8534 141.2 50.7807 151.403 48.6871C159.178 47.0836 167.308 47.2023 175.275 46.5342C174.164 34.7599 164.642 33.4533 146.813 42.7777L139.023 31.6567ZM176.889 61.575L175.112 59.1994C169.656 59.4287 164.217 59.9691 158.823 60.8178C157.752 61.2317 156.799 61.9031 156.047 62.7731C155.296 63.643 154.769 64.6847 154.513 65.8066C154.321 67.6923 156.216 71.33 157.623 71.5676C161.74 72.2358 166.671 72.8 170.107 71.0776C173.261 69.5334 174.742 64.8712 176.889 61.575Z" fill="#0B2A38"/>
<path d="M344.465 24.1426H362.235C362.235 35.4121 362.235 46.4143 362.235 57.3423C362.235 67.7357 365.849 72.5761 373.149 72.4722C380.45 72.3683 385.663 66.444 385.766 57.3423C385.9 46.5628 385.766 35.7833 385.766 24.4098H403.004V85.761C390.194 88.5524 386.596 87.5873 385.574 82.0787C379.843 83.8456 374.082 86.8746 368.189 87.1864C355.024 87.8694 345.975 79.124 344.598 65.9689C344.435 64.2614 344.465 62.539 344.465 60.8167C344.465 48.8196 344.465 36.8375 344.465 24.1426Z" fill="#0B2A38"/>
<path d="M196.23 154.21H154.129C156.958 166.712 169.856 169.058 183.036 159.897L191.521 168.806C183.776 179.466 165.458 182.54 152.189 175.517C138.506 168.256 132.819 150.795 139.069 135.235C144.622 121.426 160.319 114.374 176.594 118.368C191.714 122.139 198.437 133.884 196.23 154.21ZM154.322 141.887H179.911C178.815 134.463 174.595 131.36 167.901 131.211C160.512 131.033 156.291 134.314 154.322 141.887Z" fill="#D8342E"/>
<path d="M204.256 77.9213C207.025 73.8827 209.38 70.4974 210.935 68.2257C218.724 70.3489 225.595 72.68 232.644 73.8679C234.806 74.2539 237.487 71.6704 239.945 70.438C238.331 68.2702 237.161 65.2264 234.999 64.0832C230.26 61.5887 224.884 60.3267 220.012 58.144C210.564 53.6897 207.973 49.5472 208.565 40.5642C209.128 32.0119 214.652 27.3051 221.893 24.6771C233.918 20.3564 244.995 23.0438 255.642 30.3638L249.985 40.5048C243.247 39.0943 237.176 37.5353 231 36.7483C229.149 36.5256 227.002 38.7825 224.988 39.9109C226.469 41.8263 227.654 44.588 229.653 45.5086C234.747 47.8694 240.256 49.3393 245.543 51.2992C252.695 53.957 257.005 58.9607 256.945 66.7855C256.886 74.6103 253.599 81.2769 246.046 84.6028C231.267 90.9428 217.895 86.7261 204.256 77.9213Z" fill="#0B2A38"/>
<path d="M115.078 149.458L87.8301 122.019L115.078 95.4863V149.458Z" fill="#D8342E"/>
<path d="M0.132812 84.2466V32.2793L26.2998 58.0848L0.132812 84.2466Z" fill="#D8342E"/>
</g>
<defs>
<clipPath id="clip0_181_24727">
<rect width="485" height="180" fill="white"/>
</clipPath>
</defs>
</svg>
