<svg width="608" height="180" viewBox="0 0 608 180" fill="none" xmlns="http://www.w3.org/2000/svg">
<g clip-path="url(#clip0_180_24689)">
<path d="M608 106.269C607.594 107.382 607.088 108.495 606.733 109.608C605.34 114.971 602.599 119.889 598.771 123.897C594.942 127.905 590.152 130.871 584.855 132.513C579.557 134.155 573.928 134.419 568.5 133.28C563.072 132.141 558.025 129.637 553.837 126.004L551.152 123.828C549.429 125.144 547.757 126.46 546.085 127.725C541.554 131.069 536.223 133.167 530.626 133.807C525.029 134.448 519.361 133.609 514.19 131.375C509.019 129.142 504.527 125.591 501.161 121.078C497.796 116.565 495.675 111.249 495.013 105.661C493.645 90.8848 494.506 75.9058 494.354 61.0787C494.354 59.4594 494.354 57.8907 494.709 56.0183H511.176C511.176 58.0931 511.53 60.1679 511.53 62.2932C511.53 74.9444 511.53 87.5955 511.53 100.297C511.364 102.41 511.632 104.535 512.316 106.541C513 108.547 514.087 110.393 515.509 111.965C516.932 113.538 518.661 114.804 520.59 115.687C522.52 116.569 524.609 117.049 526.73 117.098C528.904 117.09 531.053 116.635 533.043 115.761C535.032 114.886 536.82 113.611 538.294 112.016C539.768 110.42 540.897 108.538 541.61 106.487C542.323 104.435 542.604 102.259 542.437 100.095C542.437 85.6219 542.437 71.149 542.437 56.1701H559.461V75.1974C559.461 83.6483 559.461 92.0993 559.461 100.5C559.287 102.652 559.562 104.817 560.267 106.858C560.972 108.899 562.093 110.773 563.559 112.36C565.026 113.947 566.805 115.213 568.785 116.08C570.766 116.946 572.904 117.393 575.066 117.393C577.228 117.393 579.367 116.946 581.347 116.08C583.328 115.213 585.107 113.947 586.573 112.36C588.039 110.773 589.16 108.899 589.866 106.858C590.571 104.817 590.845 102.652 590.672 100.5C590.672 88.0509 590.672 75.5516 590.672 63.1029V55.6641H608V106.269Z" fill="#001543"/>
<path d="M294.17 129.142V157.834H277.248C277.056 156.78 276.921 155.715 276.842 154.646C276.842 134.405 276.437 113.707 276.842 93.2126C277.167 83.7403 280.928 74.7088 287.425 67.8008C293.922 60.8928 302.712 56.5793 312.157 55.6641C321.865 54.477 331.669 56.9229 339.678 62.5297C347.687 68.1366 353.333 76.5073 355.528 86.0268C357.389 93.1043 357.133 100.571 354.792 107.505C352.451 114.439 348.127 120.536 342.354 125.043C336.755 129.951 329.859 133.143 322.491 134.238C315.123 135.333 307.594 134.284 300.808 131.217C298.984 130.508 297.16 129.597 295.336 128.838C295.184 128.788 294.93 128.939 294.17 129.142ZM316.464 117.199C320.887 117.219 325.217 115.927 328.905 113.487C332.593 111.047 335.472 107.569 337.179 103.493C338.886 99.4171 339.343 94.9268 338.492 90.5912C337.641 86.2555 335.521 82.2696 332.4 79.1385C329.28 76.0073 325.299 73.8718 320.961 73.0025C316.624 72.1332 312.127 72.5691 308.038 74.2552C303.949 75.9413 300.453 78.8016 297.994 82.4737C295.534 86.1458 294.221 90.4644 294.221 94.8825C294.234 100.78 296.579 106.433 300.744 110.612C304.91 114.792 310.559 117.159 316.464 117.199V117.199Z" fill="#001543"/>
<path d="M479.257 133.898H462.638L462.132 130.002C453.974 132.048 445.647 133.352 437.254 133.898C427.298 133.406 417.91 129.115 411.028 121.912C404.146 114.709 400.294 105.143 400.268 95.186C400.303 85.27 404.041 75.7237 410.75 68.4144C417.459 61.1051 426.657 56.5585 436.545 55.664C458.028 54.2977 477.078 68.6693 479.004 89.3159C480.321 103.789 479.257 118.717 479.257 133.898ZM462.284 94.933C462.311 89.0356 460.005 83.3661 455.868 79.1582C451.731 74.9503 446.097 72.5446 440.193 72.4646C434.267 72.4646 428.584 74.8159 424.393 79.001C420.203 83.1862 417.849 88.8625 417.849 94.7812C417.849 100.7 420.203 106.376 424.393 110.561C428.584 114.747 434.267 117.098 440.193 117.098C446.045 117.019 451.633 114.655 455.761 110.512C459.89 106.37 462.231 100.778 462.284 94.933V94.933Z" fill="#001543"/>
<path d="M386.334 30.7168V131.065H369.867V30.7168H386.334Z" fill="#001543"/>
<path d="M199.171 55.6641H216.043V62.192C216.043 74.8431 216.043 87.4943 216.043 100.145C215.87 102.277 216.141 104.422 216.839 106.444C217.537 108.466 218.647 110.322 220.099 111.894C221.551 113.467 223.313 114.721 225.275 115.58C227.236 116.438 229.355 116.881 231.496 116.881C233.638 116.881 235.756 116.438 237.718 115.58C239.679 114.721 241.442 113.467 242.894 111.894C244.345 110.322 245.455 108.466 246.153 106.444C246.852 104.422 247.123 102.277 246.95 100.145C246.95 87.4943 246.95 74.8431 246.95 62.192C246.95 60.2185 246.95 58.2955 247.254 56.0183H263.619C263.619 58.0931 263.923 60.016 263.923 61.939C263.923 75.6022 263.923 89.2654 263.923 102.929C263.588 111 260.231 118.651 254.516 124.367C248.802 130.084 241.147 133.449 233.067 133.797C224.794 134.303 216.65 131.559 210.374 126.151C204.098 120.743 200.187 113.1 199.475 104.852C198.512 88.6582 199.171 72.4141 199.171 55.6641Z" fill="#001543"/>
<path d="M83.904 0L98.8 6.781C96.0133 8.55215 94.2907 9.66545 92.4667 10.7281C70.9333 23.0756 49.4507 35.4231 27.816 47.72C24.6031 49.2118 21.9165 51.6382 20.1083 54.6814C18.3 57.7245 17.4546 61.2423 17.6827 64.7737C17.9867 83.2443 17.936 101.715 17.6827 120.439C17.4958 122.272 17.8828 124.117 18.7902 125.722C19.6977 127.326 21.0809 128.609 22.7493 129.396C34.7573 135.924 46.5627 142.856 59.432 150.194C59.432 147.057 59.7867 145.134 59.7867 142.907C59.7867 128.636 59.7867 114.366 59.7867 100.096C59.3921 95.1641 60.4537 90.2254 62.8401 85.8902C65.2265 81.555 68.8329 78.0137 73.2133 75.7042C92.112 64.4195 110.605 52.4262 129.301 40.8378C139.84 34.2592 148.301 34.7653 158.688 42.7101C156.459 44.2283 154.381 45.6452 152.253 47.0115C131.683 59.8651 111.213 72.8198 90.5413 85.4709C86.2628 87.7591 82.7324 91.2266 80.3701 95.461C78.0078 99.6953 76.913 104.518 77.216 109.356C77.216 130.458 77.216 151.56 77.216 172.662V180.253C74.2773 178.684 72.1493 177.672 70.1733 176.508C52.8453 166.387 35.6187 156.267 18.088 146.803C9.86139 143.031 3.3902 136.26 0 127.877L0 51.9708C3.648 47.0621 6.33333 40.4836 11.1973 37.6497C33.0347 24.5432 55.7333 12.4487 77.824 0H83.904Z" fill="#3445F1"/>
<path d="M91.8075 174.585V163.806C91.8075 147.562 91.8075 131.267 91.8075 114.973C91.5581 110.431 92.6069 105.911 94.8318 101.942C97.0566 97.9727 100.366 94.7171 104.373 92.555C121.346 82.4341 138.066 71.8072 155.04 61.4333C156.509 60.5224 158.13 59.7633 160.41 58.5488C160.41 76.1592 159.144 93.0611 160.714 109.761C162.538 129.395 155.648 142.249 137.256 149.536C132.002 152.099 126.924 155.006 122.056 158.24C122.056 152.116 121.752 147.005 122.056 141.996C122.056 140.477 124.285 138.858 125.856 137.897C146.122 125.903 144.805 130.458 144.754 104.548C144.754 99.4878 144.754 94.1237 144.501 88.9115C144.501 88.5573 144.096 88.2536 143.234 87.0897C132.493 93.9213 121.549 100.551 111.01 107.838C109.024 110.035 107.986 112.926 108.122 115.884C107.818 127.928 107.312 140.022 108.122 152.066C108.933 164.11 103.714 170.688 91.8075 174.585Z" fill="#3445F1"/>
<path d="M128.187 26.7187L95.0513 46.9604C81.574 55.1584 68.198 63.4575 54.518 71.4024C51.8537 72.7584 49.6491 74.8692 48.1801 77.4706C46.7111 80.072 46.043 83.0483 46.2593 86.0271C46.2593 99.0324 46.2593 112.088 46.2593 126.511C41.1927 123.727 37.19 121.703 33.4407 119.122C32.8692 118.476 32.4317 117.722 32.1534 116.906C31.8751 116.09 31.7616 115.226 31.8193 114.366C31.8193 100.095 31.8193 85.8246 31.8193 71.5542C31.8123 68.422 32.669 65.3483 34.2957 62.6703C35.9223 59.9923 38.256 57.8135 41.0407 56.3729C60.598 45.0375 80.2229 33.7864 99.9153 22.6197C109.137 17.1038 118.105 18.6219 128.187 26.7187Z" fill="#3445F1"/>
</g>
<defs>
<clipPath id="clip0_180_24689">
<rect width="608" height="180" fill="white"/>
</clipPath>
</defs>
</svg>
