<svg width="587" height="180" viewBox="0 0 587 180" fill="none" xmlns="http://www.w3.org/2000/svg">
<g clip-path="url(#clip0_180_24679)">
<mask id="mask0_180_24679" style="mask-type:alpha" maskUnits="userSpaceOnUse" x="43" y="-1" width="94" height="169">
<path d="M43.125 -1H136.407V167.907H43.125V-1Z" fill="white"/>
</mask>
<g mask="url(#mask0_180_24679)">
<path fill-rule="evenodd" clip-rule="evenodd" d="M69.504 167.907C92.6145 167.907 111.55 132.197 116.238 88.3582C121.146 88.2789 125.191 84.6702 126.028 79.9321C126.121 79.4096 126.185 78.877 126.196 78.3301C126.295 78.3408 126.392 78.3558 126.493 78.3616C130.011 78.5467 133.011 75.8124 133.195 72.2545C133.315 69.9111 132.179 67.8009 130.388 66.5756C133.932 64.9807 136.407 61.3935 136.407 57.2166C136.407 52.0924 132.684 47.859 127.827 47.1027C128.671 46.0089 129.177 44.6371 129.177 43.143C129.177 39.6273 126.394 36.7743 122.936 36.6992C124.61 35.855 126.071 34.5854 127.033 33.0613C129.41 29.2932 129.79 12.3016 121.347 1.38207C117.867 -3.11871 114.457 -0.405803 114.242 2.66597C113.58 12.065 113.499 19.1286 111.088 27.1737C110.595 24.1062 107.971 21.7614 104.799 21.7614C102.765 21.7614 100.958 22.7272 99.7899 24.2263C99.0689 19.2823 94.868 15.4828 89.7785 15.4828C84.6798 15.4828 80.4725 19.2959 79.7635 24.2542C78.5965 22.7394 76.7798 21.7614 74.7342 21.7614C71.5617 21.7614 68.9371 24.1055 68.4451 27.1737C66.034 19.1286 65.9527 12.065 65.2918 2.66597C65.0755 -0.405803 61.6655 -3.11871 58.1856 1.38207C49.7427 12.3016 50.123 29.2932 52.4995 33.0613C53.4616 34.5854 54.9234 35.855 56.5965 36.6992C53.1378 36.7743 50.3556 39.6273 50.3556 43.143C50.3556 44.6371 50.8624 46.0089 51.7057 47.1027C46.8488 47.859 43.125 52.0924 43.125 57.2166C43.125 61.3935 45.6005 64.9807 49.1454 66.5756C47.3535 67.8009 46.2169 69.9111 46.3377 72.2545C46.5208 75.8124 49.5215 78.5467 53.0396 78.3616C53.1407 78.3558 53.2375 78.3408 53.3358 78.3301C53.3471 78.8562 53.4086 79.3688 53.4948 79.8728C54.3176 84.6938 58.4549 88.3661 63.4574 88.3661C63.4652 88.3661 63.4716 88.3654 63.4794 88.3654C60.6773 100.632 56.3704 135.742 52.8918 167.886C53.0883 166.065 53.5125 164.233 53.7132 162.397C58.7242 165.961 63.8893 167.907 69.504 167.907Z" fill="#F7AA13"/>
</g>
<path fill-rule="evenodd" clip-rule="evenodd" d="M89.9154 176.867C102.813 176.867 115.332 177.072 127.282 177.457C126.97 174.487 126.651 171.47 126.326 168.422C125.05 156.453 123.772 143.704 122.466 131.745C120.207 112.571 117.982 96.0172 116.238 88.3574C111.55 132.196 92.615 167.906 69.5045 167.906C63.8891 167.906 58.7247 165.96 53.713 162.396C53.5123 164.232 53.0889 166.064 52.8916 167.885C52.541 171.123 52.2378 174.326 51.9473 177.477C64.0793 177.079 76.8016 176.867 89.9154 176.867Z" fill="#F29219"/>
<path fill-rule="evenodd" clip-rule="evenodd" d="M50.8429 81.0385C48.9188 80.6382 47.2145 79.626 45.9308 78.212C44.6196 78.4993 43.3168 78.8804 42.0246 79.3765C39.3449 80.4045 36.5308 80.3816 33.8193 79.3808C30.5613 78.1784 27.2157 77.5858 23.7598 77.5207C19.0704 77.4328 14.4503 77.8617 9.85494 79.3C9.85494 80.8899 9.82313 82.3239 9.87756 83.7543C9.89099 84.106 10.1688 84.4577 10.3575 84.7902C10.8156 85.5958 11.432 86.3407 11.7324 87.2007C12.4152 89.1544 12.8775 91.1868 13.5568 93.1426C14.3132 95.3187 15.9001 96.7463 18.148 97.0415C20.7605 97.3846 23.4184 97.6341 26.0458 97.5555C27.7105 97.5062 29.1822 97.1323 30.4327 96.4153C31.2032 93.2542 32.139 90.1459 33.6313 87.1428C35.6819 83.0151 38.9653 82.8393 41.1821 87.1428C42.6007 89.8972 43.5048 92.7588 44.2322 95.6718C44.9963 96.3209 45.9138 96.7684 46.9699 97.0329C50.4456 97.9036 53.9185 97.9015 57.4295 97.1487C58.0126 97.0236 58.5456 96.8471 59.0376 96.6269C59.396 94.4737 59.7459 92.5028 60.0831 90.7764C55.5266 89.5383 51.9201 85.8446 50.8429 81.0385Z" fill="#F7AA13"/>
<path fill-rule="evenodd" clip-rule="evenodd" d="M38.7118 103.366C38.7429 105.33 38.6878 107.283 38.5301 109.205C38.3364 111.558 38.2368 113.907 37.877 116.105C37.6218 117.662 37.2139 117.728 36.9383 116.105C36.5671 113.921 36.4781 111.558 36.2851 109.205C36.1275 107.283 36.0723 105.33 36.1034 103.366C33.5735 102.69 31.566 100.093 30.98 96.7613C32.7769 97.8428 35.0007 98.4834 37.4076 98.4834C39.8152 98.4834 42.0376 97.8428 43.8352 96.7613C43.2485 100.093 41.241 102.69 38.7118 103.366ZM47.8368 114.024C47.6092 111.142 47.1469 108.278 46.4393 105.439C45.6236 102.166 45.0362 98.8865 44.2339 95.6718C43.5058 92.758 42.6017 89.8971 41.183 87.1427C38.9663 82.8393 35.6829 83.0144 33.6322 87.1427C32.14 90.1452 31.2041 93.2541 30.4343 96.4153C29.7084 99.3912 29.1294 102.413 28.3752 105.439C27.6676 108.278 27.2053 111.142 26.9784 114.024C26.6257 118.49 29.5126 122.339 33.1424 122.339H41.6729C45.3027 122.339 48.1895 118.49 47.8368 114.024Z" fill="#FEFEFE"/>
<path fill-rule="evenodd" clip-rule="evenodd" d="M30.9805 96.7617C31.5665 100.093 33.574 102.689 36.1039 103.366C36.0721 105.33 36.1272 107.283 36.2848 109.205C36.4785 111.559 36.5676 113.921 36.9387 116.106C37.2137 117.729 37.6222 117.663 37.8767 116.106C38.2365 113.907 38.3369 111.559 38.5299 109.205C38.6875 107.283 38.7426 105.33 38.7122 103.366C41.2414 102.689 43.2489 100.093 43.8349 96.7617C42.038 97.8433 39.8149 98.4838 37.4073 98.4838C35.0004 98.4838 32.7773 97.8433 30.9805 96.7617Z" fill="#2F2BAE"/>
<path fill-rule="evenodd" clip-rule="evenodd" d="M128.69 81.0391C127.629 85.753 124.085 89.4259 119.619 90.7177C119.914 92.2432 120.223 93.9961 120.548 95.9734C121.278 96.5338 122.15 96.9091 123.166 97.0421C125.779 97.386 128.437 97.6347 131.063 97.5568C132.729 97.5075 134.2 97.1329 135.451 96.4166C136.221 93.2555 137.157 90.1465 138.65 87.1441C140.7 83.0157 143.984 82.8406 146.2 87.1441C147.618 89.8985 148.523 92.7593 149.25 95.6731C150.015 96.3215 150.932 96.769 151.988 97.0335C155.464 97.9042 158.937 97.9021 162.448 97.15C164.971 96.6089 166.646 95.1956 167.455 92.7593C168.05 90.9672 168.576 89.1493 169.06 87.3221C169.334 86.287 169.451 85.234 170.609 84.72C170.833 84.6206 170.973 84.1045 170.983 83.7756C171.021 82.2994 170.999 80.8211 170.999 79.0518C168.16 78.5872 165.392 77.9674 162.591 77.7107C157.32 77.2275 152.101 77.4362 147.043 79.3771C144.363 80.4058 141.548 80.3829 138.837 79.3821C137.179 78.7694 135.497 78.3169 133.79 78.0103C132.487 79.5329 130.708 80.6202 128.69 81.0391Z" fill="#F7AA13"/>
<path fill-rule="evenodd" clip-rule="evenodd" d="M143.729 103.366C143.76 105.33 143.705 107.283 143.548 109.205C143.355 111.558 143.254 113.907 142.895 116.105C142.639 117.662 142.232 117.728 141.956 116.105C141.585 113.921 141.496 111.558 141.303 109.205C141.145 107.283 141.09 105.33 141.122 103.366C138.591 102.69 136.584 100.093 135.998 96.7613C137.794 97.8428 140.018 98.4834 142.425 98.4834C144.833 98.4834 147.055 97.8428 148.852 96.7613C148.267 100.093 146.259 102.69 143.729 103.366ZM152.854 114.024C152.627 111.142 152.165 108.278 151.458 105.439C150.641 102.166 150.054 98.8865 149.251 95.6718C148.523 92.758 147.619 89.8971 146.201 87.1427C143.984 82.8393 140.701 83.0144 138.65 87.1427C137.158 90.1452 136.222 93.2541 135.452 96.4153C134.727 99.3912 134.147 102.413 133.394 105.439C132.686 108.278 132.224 111.142 131.996 114.024C131.643 118.49 134.53 122.339 138.16 122.339H146.69C150.32 122.339 153.207 118.49 152.854 114.024Z" fill="#FEFEFE"/>
<path fill-rule="evenodd" clip-rule="evenodd" d="M135.998 96.7617C136.584 100.093 138.592 102.689 141.121 103.366C141.09 105.33 141.145 107.283 141.303 109.205C141.496 111.559 141.585 113.921 141.956 116.106C142.231 117.729 142.64 117.663 142.895 116.106C143.255 113.907 143.354 111.559 143.548 109.205C143.705 107.283 143.76 105.33 143.73 103.366C146.259 102.689 148.267 100.093 148.853 96.7617C147.056 97.8433 144.833 98.4838 142.426 98.4838C140.018 98.4838 137.795 97.8433 135.998 96.7617Z" fill="#2F2BAE"/>
<path fill-rule="evenodd" clip-rule="evenodd" d="M163.656 108.467C165.055 114.61 166.839 127.885 168.651 143.261C167.065 128.745 165.425 115.683 163.656 108.467Z" fill="#F29219"/>
<path fill-rule="evenodd" clip-rule="evenodd" d="M55.4141 51.9924C61.144 50.1988 66.9036 49.6634 72.7508 49.7735C77.0606 49.8542 81.2312 50.5927 85.2943 52.0925C88.6752 53.3406 92.1841 53.3692 95.5255 52.0868C101.832 49.667 108.34 49.4067 114.911 50.0094C118.404 50.3289 121.856 51.1017 125.395 51.6814C125.395 53.8875 125.424 55.7304 125.375 57.5712C125.364 57.9808 125.188 58.6249 124.909 58.7493C123.465 59.3898 123.319 60.703 122.978 61.9934C122.375 64.2709 121.718 66.5385 120.976 68.7731C119.968 71.8106 117.879 73.5727 114.733 74.2469C110.355 75.1855 106.025 75.1876 101.692 74.1024C99.3002 73.5034 97.4538 72.1852 96.3554 69.8912C95.0151 67.0925 93.723 64.2666 92.2647 61.5316C91.8986 60.8446 91.0044 60.0961 90.3067 60.0482C89.7426 60.0096 88.9021 60.8646 88.5473 61.5237C87.487 63.4939 86.4726 65.5112 85.6809 67.6029C83.8946 72.3267 80.3836 74.6121 75.6016 74.7544C72.3253 74.8523 69.0122 74.5407 65.7542 74.1125C62.9515 73.7443 60.9722 71.965 60.0293 69.2514C59.1824 66.813 58.6056 64.2788 57.7546 61.8425C57.3799 60.7709 56.6108 59.8423 56.0411 58.8372C55.8057 58.4226 55.4593 57.9844 55.4424 57.5462C55.3738 55.7619 55.4141 53.9733 55.4141 51.9924Z" fill="#1D1A8B"/>
<path fill-rule="evenodd" clip-rule="evenodd" d="M101.028 84.5836C99.0902 76.8052 98.1953 68.9938 94.4743 61.7709C91.7105 56.4051 87.617 56.6238 85.0595 61.7709C81.4481 69.0396 80.4436 76.8052 78.5054 84.5836C77.6232 88.1243 77.0464 91.6958 76.763 95.2873C76.3233 100.856 79.9234 105.656 84.4488 105.656H95.0851C99.6112 105.656 103.211 100.856 102.771 95.2873C102.487 91.6958 101.911 88.1243 101.028 84.5836Z" fill="#FEFEFE"/>
<path fill-rule="evenodd" clip-rule="evenodd" d="M97.7815 73.7637C95.5407 75.1119 92.7691 75.9104 89.7677 75.9104C86.7663 75.9104 83.9947 75.1119 81.7539 73.7637C82.4841 77.917 84.9871 81.1547 88.1412 81.9982C88.1023 84.4473 88.1716 86.8829 88.3681 89.2791C88.6091 92.2129 88.7201 95.1589 89.1824 97.8832C89.526 99.907 90.0349 99.8241 90.3523 97.8832C90.8012 95.1417 90.9263 92.2129 91.1673 89.2791C91.3638 86.8829 91.4324 84.4473 91.3935 81.9982C94.5476 81.1547 97.0506 77.917 97.7815 73.7637Z" fill="#F7AA13"/>
<path fill-rule="evenodd" clip-rule="evenodd" d="M21.1559 172.266C35.3096 172.266 47.5102 155.565 54.1619 132.014C55.7325 119.172 57.4672 106.073 59.0379 96.628C58.5459 96.8482 58.0129 97.0255 57.4297 97.1498C53.9187 97.9026 50.4458 97.9047 46.9702 97.034C45.9141 96.7695 44.9966 96.322 44.2324 95.6729C45.0355 98.8884 45.6229 102.167 46.4386 105.441C47.1462 108.28 47.6085 111.144 47.8361 114.025C48.1888 118.491 45.3019 122.341 41.6722 122.341H33.1416C29.5119 122.341 26.625 118.491 26.9777 114.025C27.2046 111.144 27.6669 108.28 28.3745 105.441C29.1287 102.415 29.7077 99.3931 30.4336 96.4164C29.1825 97.1334 27.7108 97.5073 26.0454 97.5573C23.4186 97.6352 20.7608 97.3857 18.1482 97.0426C15.9004 96.7474 14.3134 95.3198 13.5571 93.1437C12.8778 91.1886 12.4148 89.1555 11.7319 87.2018C11.4322 86.3418 10.8151 85.5976 10.3578 84.7913C10.169 84.4589 9.89124 84.1071 9.87781 83.7561C9.82339 82.325 9.85519 80.891 9.85519 79.3018C14.4506 77.8628 19.0707 77.4339 23.7601 77.5218C27.2159 77.5869 30.5616 78.1795 33.8195 79.3819C36.5311 80.3827 39.3451 80.4063 42.0249 79.3776C43.317 78.8822 44.6198 78.5005 45.9311 78.2138C44.53 76.6711 43.6309 74.6502 43.515 72.4041C43.4174 70.5133 43.8776 68.6954 44.8015 67.1405C41.991 64.6893 40.2987 61.0842 40.2987 57.2168C40.2987 55.0758 40.8048 53.0534 41.7026 51.2634C40.4592 50.4785 38.9924 50.0203 37.4168 50.0203C33.3276 50.0203 29.9529 53.0784 29.3846 57.0545C28.448 55.84 26.9912 55.0558 25.3505 55.0558C22.8058 55.0558 20.7014 56.9359 20.307 59.3964C18.373 52.944 18.308 47.2787 17.7778 39.7412C17.6046 37.2771 14.8697 35.1017 12.079 38.7111C5.30719 47.4689 5.61185 61.0964 7.51828 64.1181C8.28948 65.3405 9.46217 66.3592 10.8038 67.0362C8.03005 67.0962 5.79917 69.3845 5.79917 72.2039C5.79917 73.4028 6.20562 74.5022 6.88139 75.3794C2.98582 75.9863 0 79.3812 0 83.4909C0 86.8415 1.98489 89.7181 4.82793 90.9977C3.39086 91.9799 2.4797 93.6727 2.57654 95.5521C2.72357 98.4059 5.13047 100.598 7.95159 100.45C8.03217 100.445 8.10993 100.433 8.1891 100.425C8.19758 100.847 8.24706 101.257 8.31634 101.661C8.97655 105.529 12.2946 108.474 16.3068 108.474C16.3125 108.474 16.3181 108.473 16.3245 108.473C14.0766 118.311 10.6229 146.47 7.83284 172.25C7.99047 170.789 8.33047 169.32 8.49164 167.847C12.5109 170.706 16.6525 172.266 21.1559 172.266Z" fill="#2F2BAE"/>
<path fill-rule="evenodd" clip-rule="evenodd" d="M50.0825 167.573C50.9831 159.25 52.4788 145.783 54.1626 132.012C47.5109 155.563 35.3111 172.264 21.1567 172.264C16.6532 172.264 12.5116 170.704 8.49237 167.846C8.3312 169.318 7.9919 170.787 7.83357 172.248C7.55011 174.866 7.30695 177.451 7.07227 179.999C19.8624 178.935 34.0012 178.109 49.1 177.574C49.4011 174.302 49.7164 170.955 50.0825 167.573Z" fill="#0F0C63"/>
<path fill-rule="evenodd" clip-rule="evenodd" d="M171.507 101.709C171.581 101.29 171.634 100.863 171.642 100.425C171.721 100.433 171.799 100.445 171.88 100.45C174.702 100.598 177.108 98.4052 177.255 95.5522C177.352 93.6721 176.44 91.98 175.004 90.9978C177.846 89.7174 179.832 86.8415 179.832 83.491C179.832 79.3812 176.845 75.9863 172.95 75.3794C173.626 74.5023 174.033 73.4021 174.033 72.204C174.033 69.3845 171.801 67.0963 169.028 67.0355C170.369 66.3592 171.542 65.3398 172.313 64.1181C174.219 61.0964 174.525 47.4689 167.753 38.7111C164.962 35.1018 162.227 37.2771 162.053 39.7405C161.523 47.2788 161.459 52.9441 159.524 59.3957C159.13 56.9359 157.025 55.0551 154.481 55.0551C152.85 55.0551 151.4 55.83 150.464 57.0324C149.886 53.067 146.516 50.0203 142.434 50.0203C140.756 50.0203 139.203 50.5414 137.91 51.4236C138.758 53.1736 139.235 55.1387 139.235 57.2168C139.235 61.0835 137.543 64.6886 134.732 67.1399C135.656 68.6947 136.116 70.5126 136.019 72.4034C135.908 74.5509 135.086 76.496 133.79 78.0108C135.497 78.3175 137.179 78.77 138.838 79.3819C141.549 80.3827 144.363 80.4056 147.043 79.3776C152.101 77.4368 157.32 77.228 162.591 77.7106C165.392 77.9672 168.16 78.587 171 79.0524C171 80.8217 171.022 82.2993 170.983 83.7755C170.974 84.1043 170.833 84.6212 170.609 84.7205C169.452 85.2345 169.334 86.2875 169.06 87.3219C168.576 89.1491 168.051 90.9677 167.455 92.7599C166.646 95.1962 164.971 96.6094 162.448 97.1499C158.936 97.9026 155.464 97.9048 151.988 97.0341C150.932 96.7696 150.015 96.3221 149.251 95.673C150.054 98.8884 150.641 102.168 151.457 105.44C152.164 108.28 152.627 111.144 152.854 114.025C153.207 118.491 150.32 122.34 146.69 122.34H138.16C134.53 122.34 131.643 118.491 131.995 114.025C132.223 111.144 132.685 108.28 133.393 105.44C134.147 102.415 134.726 99.3924 135.452 96.4164C134.201 97.1334 132.728 97.5073 131.064 97.5566C128.437 97.6353 125.779 97.3858 123.166 97.0427C122.151 96.909 121.278 96.5337 120.549 95.9732C122.718 109.179 125.573 132.596 129.359 168.116C129.491 169.354 129.625 170.619 129.761 171.903C146.644 168.493 160.141 141.329 163.655 108.467C167.592 108.403 170.835 105.509 171.507 101.709Z" fill="#2F2BAE"/>
<path fill-rule="evenodd" clip-rule="evenodd" d="M171.747 172.679C170.724 163.08 169.699 152.855 168.651 143.262C166.839 127.885 165.055 114.61 163.656 108.467C160.142 141.33 146.645 168.494 129.762 171.903C129.955 173.727 130.153 175.61 130.359 177.563C145.503 178.095 159.687 178.917 172.52 179.981C172.267 177.579 172.009 175.145 171.747 172.679Z" fill="#0F0C63"/>
<path fill-rule="evenodd" clip-rule="evenodd" d="M127.283 177.458C127.356 177.46 127.431 177.462 127.505 177.465C127.192 174.493 126.873 171.473 126.548 168.422C125.242 156.17 123.848 143.469 122.467 131.746C123.773 143.705 125.051 156.454 126.326 168.422C126.651 171.47 126.971 174.488 127.283 177.458Z" fill="#4E4A98"/>
<path fill-rule="evenodd" clip-rule="evenodd" d="M116.238 88.3574C117.983 96.0172 120.207 112.571 122.467 131.746C120.489 113.644 118.444 97.3561 116.238 88.3574Z" fill="#3E3977"/>
<path fill-rule="evenodd" clip-rule="evenodd" d="M52.8919 167.885C52.5413 171.123 52.1978 174.328 51.8613 177.48C51.8903 177.479 51.9186 177.478 51.9476 177.477C52.2381 174.326 52.5413 171.122 52.8919 167.885Z" fill="#3E3977"/>
<path fill-rule="evenodd" clip-rule="evenodd" d="M267.035 106.107C264.479 108.789 261.31 110.932 257.532 112.54C253.751 114.148 249.332 114.953 244.276 114.953C239.162 114.953 234.702 114.122 230.895 112.46C227.088 110.799 223.92 108.614 221.391 105.906C218.862 103.2 216.959 100.116 215.681 96.659C214.402 93.2011 213.764 89.6634 213.764 86.0445C213.764 82.4263 214.402 78.8756 215.681 75.3905C216.959 71.906 218.862 68.8103 221.391 66.1022C223.92 63.396 227.088 61.211 230.895 59.5486C234.702 57.8882 239.162 57.0566 244.276 57.0566C249.332 57.0566 253.751 57.8739 257.532 59.509C261.31 61.1442 264.479 63.3285 267.035 66.0626L260.116 71.6106C258.336 69.6808 256.114 68.1268 253.446 66.9467C250.779 65.7679 247.665 65.1778 244.109 65.1778C239.385 65.1778 235.439 66.208 232.271 68.2683C229.103 70.3293 226.727 72.8972 225.143 75.9727C223.559 79.0483 222.767 82.3932 222.767 86.0043C222.767 89.6167 223.559 92.9609 225.143 96.0365C226.727 99.1127 229.103 101.681 232.271 103.741C235.439 105.802 239.385 106.831 244.109 106.831C247.611 106.831 250.681 106.268 253.321 105.142C255.961 104.016 258.17 102.517 259.95 100.639L266.869 106.18L267.035 106.107Z" fill="#131132"/>
<path fill-rule="evenodd" clip-rule="evenodd" d="M270.369 72.7374H278.79V76.8379C279.678 75.9272 280.734 75.1366 281.957 74.466C283.179 73.7961 284.486 73.26 285.875 72.8582C287.264 72.4557 288.681 72.1746 290.127 72.0137C291.572 71.8527 292.989 71.8267 294.379 71.9332V79.8129C291.266 79.5454 288.71 79.7064 286.709 80.2965C284.708 80.8865 283.124 81.8238 281.957 83.1098C280.79 84.397 279.969 85.9523 279.498 87.7744C279.025 89.5971 278.79 91.6334 278.79 93.8852V113.586H270.369V72.7374Z" fill="#131132"/>
<path fill-rule="evenodd" clip-rule="evenodd" d="M315.555 78.1252C312.442 78.1252 309.857 78.8762 307.801 80.3763C305.745 81.8777 304.202 83.7407 303.175 85.9646C302.146 88.1905 301.633 90.6162 301.633 93.2419C301.633 95.8696 302.146 98.2954 303.175 100.519C304.202 102.744 305.745 104.608 307.801 106.108C309.857 107.61 312.442 108.359 315.555 108.359C318.667 108.359 321.251 107.61 323.308 106.108C325.364 104.608 326.906 102.744 327.935 100.519C328.963 98.2954 329.477 95.8696 329.477 93.2419C329.477 90.6162 328.963 88.1905 327.935 85.9646C326.906 83.7407 325.364 81.8777 323.308 80.3763C321.251 78.8762 318.667 78.1252 315.555 78.1252ZM315.555 114.471C310.607 114.471 306.468 113.426 303.133 111.335C299.798 109.244 297.31 106.618 295.671 103.455C294.031 100.292 293.198 96.8881 293.171 93.2419C293.142 89.5971 293.963 86.1938 295.63 83.0299C297.297 79.8681 299.784 77.2404 303.091 75.1496C306.398 73.0588 310.553 72.0137 315.555 72.0137C320.557 72.0137 324.711 73.0588 328.019 75.1496C331.324 77.2404 333.812 79.8681 335.479 83.0299C337.147 86.1938 337.966 89.5971 337.939 93.2419C337.91 96.8881 337.076 100.292 335.438 103.455C333.798 106.618 331.312 109.244 327.977 111.335C324.642 113.426 320.501 114.471 315.555 114.471Z" fill="#131132"/>
<path fill-rule="evenodd" clip-rule="evenodd" d="M382 103.614L390.837 72.8164H400.757L386.919 113.665H376.997L368.244 82.3053L359.49 113.665H349.57L335.73 72.8164H345.651L354.489 103.614L363.325 72.8164H372.996L382 103.614Z" fill="#131132"/>
<path fill-rule="evenodd" clip-rule="evenodd" d="M422.141 78.1236C419.814 78.1236 417.778 78.5527 416.032 79.4095C414.287 80.2683 412.832 81.4081 411.668 82.8271C410.504 84.2487 409.631 85.8709 409.05 87.6923C408.468 89.5157 408.177 91.3644 408.177 93.2404C408.177 95.1183 408.468 96.967 409.05 98.7891C409.631 100.612 410.504 102.235 411.668 103.654C412.832 105.075 414.287 106.214 416.032 107.072C417.778 107.929 419.814 108.358 422.141 108.358C424.468 108.358 426.505 107.929 428.251 107.072C429.997 106.214 431.45 105.075 432.615 103.654C433.778 102.235 434.651 100.612 435.233 98.7891C435.814 96.967 436.106 95.1183 436.106 93.2404C436.106 91.3644 435.814 89.5157 435.233 87.6923C434.651 85.8709 433.778 84.2487 432.615 82.8271C431.45 81.4081 429.997 80.2683 428.251 79.4095C426.505 78.5527 424.468 78.1236 422.141 78.1236ZM436.022 57.377H444.526V113.665H436.022V107.875C434.243 110.075 432.116 111.735 429.644 112.861C427.171 113.987 424.586 114.617 421.892 114.751C419.194 114.884 416.528 114.495 413.889 113.585C411.248 112.674 408.886 111.321 406.803 109.524C404.718 107.728 403.022 105.463 401.717 102.729C400.41 99.9951 399.758 96.8326 399.758 93.2404C399.758 89.6501 400.411 86.4862 401.721 83.7521C403.029 81.018 404.727 78.7545 406.815 76.9571C408.903 75.1623 411.27 73.8089 413.915 72.8962C416.56 71.9855 419.231 71.5973 421.932 71.7304C424.633 71.8647 427.223 72.4944 429.7 73.6206C432.178 74.7462 434.308 76.408 436.09 78.6059L436.022 57.377Z" fill="#131132"/>
<mask id="mask1_180_24679" style="mask-type:alpha" maskUnits="userSpaceOnUse" x="447" y="57" width="49" height="59">
<path d="M447.777 57.0566H495.874V115.113H447.777V57.0566Z" fill="#F7AA13"/>
</mask>
<g mask="url(#mask1_180_24679)">
<path fill-rule="evenodd" clip-rule="evenodd" d="M472.704 57.0566C477.206 57.1105 481.374 57.794 485.209 59.1066C489.044 60.4217 492.516 62.1224 495.63 64.2126L490.962 69.3595L489.962 70.4851C486.737 68.0729 483.555 66.4248 480.415 65.54C477.275 64.6553 474.357 64.2931 471.662 64.454C468.965 64.6157 466.618 65.1915 464.617 66.1833C462.617 67.1758 461.17 68.354 460.282 69.7217C459.392 71.0881 459.17 72.5097 459.615 73.9832C460.059 75.4586 461.366 76.7854 463.533 77.9636C465.922 79.2495 468.66 80.3355 471.745 81.2202C474.829 82.105 477.873 83.0696 480.874 84.1153C483.876 85.1604 486.612 86.4204 489.086 87.8945C491.559 89.3693 493.38 91.3394 494.546 93.8042C495.267 95.3601 495.699 97.0348 495.839 98.8303C495.977 100.627 495.713 102.463 495.047 104.339C494.601 105.625 493.934 106.791 493.046 107.837C492.156 108.882 491.129 109.806 489.962 110.611C487.627 112.166 484.986 113.292 482.041 113.988C479.095 114.684 476.288 115.059 473.621 115.114C471.063 115.114 468.66 114.939 466.41 114.591C464.159 114.242 462.004 113.706 459.949 112.982C457.892 112.259 455.864 111.322 453.863 110.168C451.862 109.016 449.833 107.582 447.777 105.866L452.362 100.8L453.529 99.5138C456.975 102.463 460.393 104.539 463.784 105.746C467.173 106.951 470.98 107.529 475.205 107.475C477.428 107.475 479.526 107.006 481.499 106.067C483.471 105.13 484.959 103.977 485.959 102.61C486.96 101.242 487.279 99.7826 486.918 98.2273C486.556 96.6726 485.209 95.2257 482.874 93.8846C481.263 92.9739 479.332 92.156 477.081 91.4323C474.829 90.7091 472.496 89.9854 470.078 89.2609C467.66 88.5378 465.27 87.7472 462.908 86.889C460.545 86.0322 458.434 84.9994 456.572 83.7927C454.71 82.5873 453.209 81.1677 452.07 79.5312C450.93 77.8967 450.389 75.9267 450.445 73.6216C450.5 70.8875 451.181 68.5026 452.488 66.4644C453.793 64.4274 455.488 62.7131 457.573 61.3181C459.657 59.9251 462.004 58.88 464.617 58.1822C467.229 57.4864 469.87 57.1371 472.537 57.1371L472.704 57.0566Z" fill="#F7AA13"/>
</g>
<path fill-rule="evenodd" clip-rule="evenodd" d="M535.146 90.1045C534.868 88.496 534.381 86.9686 533.687 85.521C532.991 84.0735 532.075 82.7876 530.936 81.6613C529.797 80.5358 528.435 79.651 526.851 79.0077C525.267 78.3645 523.475 78.0431 521.474 78.0431C519.473 78.0431 517.681 78.3645 516.097 79.0077C514.513 79.651 513.15 80.5358 512.012 81.6613C510.872 82.7876 509.954 84.0735 509.26 85.521C508.565 86.9686 508.079 88.496 507.801 90.1045H535.23H535.146ZM521.39 108.277C524.113 108.277 526.434 107.702 528.351 106.549C530.269 105.397 531.783 103.909 532.895 102.086L539.064 106.669C537.231 108.975 534.84 110.838 531.895 112.258C528.948 113.679 525.447 114.389 521.39 114.389C517.999 114.389 514.999 113.894 512.387 112.901C509.774 111.91 507.538 110.569 505.676 108.881C503.813 107.192 502.341 105.25 501.257 103.051C500.173 100.854 499.464 98.5756 499.131 96.216C498.852 94.179 498.852 92.1427 499.131 90.1045C499.464 87.7462 500.173 85.4685 501.257 83.2699C502.341 81.0719 503.813 79.1285 505.676 77.4395C507.538 75.7511 509.774 74.4119 512.387 73.4194C514.999 72.4282 517.999 71.9316 521.39 71.9316C524.78 71.9316 527.781 72.4282 530.394 73.4194C533.006 74.4119 535.243 75.7511 537.105 77.4395C538.967 79.1285 540.44 81.0719 541.524 83.2699C542.608 85.4685 543.316 87.7462 543.65 90.1045C543.928 92.1427 543.928 94.179 543.65 96.216H507.801C508.079 97.8245 508.565 99.3519 509.26 100.799C509.954 102.247 510.872 103.533 512.012 104.659C513.15 105.785 514.513 106.669 516.097 107.313C517.681 107.956 519.473 108.277 521.474 108.277H521.39Z" fill="#F7AA13"/>
<path fill-rule="evenodd" clip-rule="evenodd" d="M579.831 112.218C576.885 113.665 573.329 114.389 569.16 114.389C564.213 114.389 560.074 113.344 556.739 111.254C553.404 109.163 550.916 106.536 549.278 103.373C547.637 100.211 546.804 96.8067 546.776 93.1612C546.747 89.5157 547.568 86.1117 549.235 82.9486C550.903 79.786 553.39 77.1584 556.697 75.0682C560.003 72.9774 564.158 71.9316 569.16 71.9316C573.329 71.9316 576.885 72.6561 579.831 74.103C582.777 75.5505 585.167 77.4537 587.001 79.812L580.831 84.4766C579.72 82.6006 578.191 81.059 576.247 79.8529C574.3 78.6462 571.939 78.0438 569.16 78.0438C566.047 78.0438 563.463 78.7948 561.407 80.2949C559.35 81.7964 557.808 83.6593 556.78 85.8839C555.751 88.1084 555.238 90.5349 555.238 93.1612C555.238 95.7876 555.751 98.214 556.78 100.438C557.808 102.663 559.35 104.526 561.407 106.027C563.463 107.528 566.047 108.278 569.16 108.278C571.939 108.278 574.3 107.675 576.247 106.469C578.191 105.262 579.72 103.722 580.831 101.845L587.001 106.509C585.167 108.869 582.777 110.771 579.831 112.218Z" fill="#F7AA13"/>
</g>
<defs>
<clipPath id="clip0_180_24679">
<rect width="587" height="180" fill="white"/>
</clipPath>
</defs>
</svg>
