<svg width="1013" height="180" viewBox="0 0 1013 180" fill="none" xmlns="http://www.w3.org/2000/svg">
  <path d="M292.588 57.9404C282.437 57.9404 274.526 63.082 270.571 71.1899H270.242V59.1269H254.224V152.005H270.637V117.398H270.967C274.79 125.243 282.7 130.121 292.852 130.121C310.386 130.121 321.592 116.344 321.592 94.0635C321.592 71.7173 310.32 57.9404 292.588 57.9404ZM287.578 116.673C277.361 116.673 270.571 107.774 270.505 94.0635C270.571 80.4844 277.361 71.4536 287.578 71.4536C298.191 71.4536 304.783 80.2866 304.783 94.0635C304.783 107.906 298.191 116.673 287.578 116.673ZM332.139 129H348.552V88.3286C348.552 78.5068 354.155 72.5083 363.45 72.5083C366.218 72.5083 368.723 72.9038 370.107 73.4311V58.5996C368.921 58.3359 367.075 57.9404 364.966 57.9404C356.726 57.9404 350.596 62.8184 348.223 71.3218H347.893V59.1269H332.139V129ZM406.824 130.384C427.324 130.384 440.64 116.739 440.64 94.0635C440.64 71.4536 427.192 57.6767 406.824 57.6767C386.455 57.6767 373.008 71.5195 373.008 94.0635C373.008 116.739 386.323 130.384 406.824 130.384ZM406.824 117.398C396.409 117.398 389.685 108.961 389.685 94.0635C389.685 79.2319 396.475 70.7285 406.824 70.7285C417.239 70.7285 423.962 79.2319 423.962 94.0635C423.962 108.961 417.239 117.398 406.824 117.398ZM449.934 79.166C449.934 89.5151 456.658 96.1069 470.039 99.0732L481.641 101.644C488.958 103.292 491.462 105.665 491.462 109.884C491.462 115.091 486.519 118.387 478.543 118.387C470.237 118.387 465.557 114.959 464.304 108.17H448.154C449.473 121.683 460.283 130.384 478.543 130.384C495.681 130.384 507.81 121.485 507.81 108.302C507.81 98.1504 502.207 92.5474 487.705 89.3174L476.104 86.7466C468.787 85.0986 465.886 82.3301 465.886 78.3091C465.886 73.1675 470.698 69.7397 477.949 69.7397C485.53 69.7397 490.21 73.7607 490.869 80.0889H506.162C505.767 66.8393 494.956 57.6767 477.949 57.6767C461.074 57.6767 449.934 66.3779 449.934 79.166ZM556.655 57.9404C546.504 57.9404 538.594 63.082 534.639 71.1899H534.309V59.1269H518.291V152.005H534.705V117.398H535.034C538.857 125.243 546.768 130.121 556.919 130.121C574.453 130.121 585.659 116.344 585.659 94.0635C585.659 71.7173 574.387 57.9404 556.655 57.9404ZM551.646 116.673C541.428 116.673 534.639 107.774 534.573 94.0635C534.639 80.4844 541.428 71.4536 551.646 71.4536C562.258 71.4536 568.85 80.2866 568.85 94.0635C568.85 107.906 562.258 116.673 551.646 116.673ZM642.481 108.104C640.701 113.905 634.9 117.728 627.253 117.728C616.509 117.728 609.653 110.213 609.653 99.0073V98.0186H658.499V92.6792C658.499 71.4536 646.106 57.6767 626.265 57.6767C606.094 57.6767 593.306 72.2446 593.306 94.3271C593.306 116.607 605.962 130.384 626.924 130.384C643.469 130.384 655.73 121.288 657.839 108.104H642.481ZM626.331 70.3989C635.757 70.3989 642.085 77.3203 642.415 87.208H609.785C610.444 77.4521 617.102 70.3989 626.331 70.3989ZM730.679 84.0439C729.558 69.3442 718.154 57.6767 699.697 57.6767C679.395 57.6767 666.211 71.7173 666.211 94.0635C666.211 116.739 679.395 130.384 699.829 130.384C717.363 130.384 729.426 120.101 730.745 104.479H715.254C713.738 112.389 708.333 117.135 700.027 117.135C689.612 117.135 682.888 108.697 682.888 94.0635C682.888 79.6934 689.546 70.9922 699.895 70.9922C708.662 70.9922 713.87 76.5952 715.188 84.0439H730.679ZM745.115 42.7793V59.1269H735.095V71.7832H745.115V110.411C745.115 123.99 751.047 129.33 766.143 129.33C769.636 129.33 772.866 129.066 774.646 128.67V116.146C773.591 116.344 771.482 116.476 769.966 116.476C764.165 116.476 761.528 113.839 761.528 108.104V71.7832H774.712V59.1269H761.528V42.7793H745.115ZM872.139 60.4453H863.372L848.013 119.244H847.815L830.742 60.4453H821.909L804.837 119.244H804.639L789.28 60.4453H780.447L799.959 129H809.187L826.194 72.1128H826.392L843.464 129H852.693L872.139 60.4453ZM885.916 46.207C889.146 46.207 891.782 43.6362 891.782 40.4062C891.782 37.1763 889.146 34.6055 885.916 34.6055C882.752 34.6055 880.115 37.1763 880.115 40.4062C880.115 43.6362 882.752 46.207 885.916 46.207ZM881.565 129H890.266V60.4453H881.565V129ZM909.646 43.3066V60.4453H899.429V67.6963H909.646V112.125C909.646 124.518 914.26 129.396 925.73 129.396C927.576 129.396 931.267 129.198 932.19 129V121.551C931.663 121.683 928.367 121.815 927.444 121.815C921.116 121.815 918.347 118.783 918.347 111.729V67.6963H931.86V60.4453H918.347V43.3066H909.646ZM944.846 129H953.613V88.6582C953.613 75.7383 961.589 67.103 973.916 67.103C985.518 67.103 992.175 74.2881 992.175 86.1533V129H1000.94V84.7031C1000.94 69.3442 991.45 59.3247 976.421 59.3247C965.479 59.3247 957.305 64.6641 953.811 73.1016H953.613V33.8804H944.846V129Z" fill="#2D3748"/>
  <path d="M118.542 51.9588L119.77 0L81.0753 104.536L148.331 57.5258L185.49 94.6392L147.41 121.237L136.968 112.577L130.212 136.392L146.488 149.691L220.5 98.0413L151.402 27.8351L118.542 51.9588Z" fill="#4C51BF"/>
  <path d="M73.3976 30.3091L92.7451 46.3916L84.1462 68.041L72.1692 58.7627L34.3955 85.0514L71.555 122.474L136.354 78.5565L109.636 180L104.415 127.423L68.7911 151.546L0 81.9586L73.3976 30.3091Z" fill="#2D3748"/>
</svg>
