<svg width="895" height="170" viewBox="0 0 895 170" fill="none" xmlns="http://www.w3.org/2000/svg">
  <path d="M215.479 120H228.853V86.8604C228.853 78.8574 233.418 73.9697 240.991 73.9697C243.247 73.9697 245.288 74.292 246.416 74.7217V62.6367C245.449 62.4219 243.945 62.0996 242.227 62.0996C235.513 62.0996 230.518 66.0742 228.584 73.0029H228.315V63.0664H215.479V120ZM288.848 102.974C287.397 107.7 282.671 110.815 276.44 110.815C267.686 110.815 262.1 104.692 262.1 95.5615V94.7559H301.899V90.4053C301.899 73.1104 291.802 61.8848 275.635 61.8848C259.199 61.8848 248.779 73.7549 248.779 91.748C248.779 109.902 259.092 121.128 276.172 121.128C289.653 121.128 299.644 113.716 301.362 102.974H288.848ZM275.688 72.251C283.369 72.251 288.525 77.8906 288.794 85.9473H262.207C262.744 77.998 268.169 72.251 275.688 72.251ZM309.526 79.3945C309.526 87.8271 315.005 93.1982 325.908 95.6152L335.361 97.71C341.323 99.0527 343.364 100.986 343.364 104.424C343.364 108.667 339.336 111.353 332.837 111.353C326.069 111.353 322.256 108.56 321.235 103.027H308.076C309.15 114.038 317.959 121.128 332.837 121.128C346.802 121.128 356.685 113.877 356.685 103.135C356.685 94.8633 352.119 90.2979 340.303 87.666L330.85 85.5713C324.888 84.2285 322.524 81.9727 322.524 78.6963C322.524 74.5068 326.445 71.7139 332.354 71.7139C338.53 71.7139 342.344 74.9902 342.881 80.1465H355.342C355.02 69.3506 346.211 61.8848 332.354 61.8848C318.604 61.8848 309.526 68.9746 309.526 79.3945ZM372.207 54.4727C376.289 54.4727 379.512 51.1963 379.512 47.2217C379.512 43.1934 376.289 39.9707 372.207 39.9707C368.125 39.9707 364.849 43.1934 364.849 47.2217C364.849 51.1963 368.125 54.4727 372.207 54.4727ZM365.547 120H378.921V63.0664H365.547V120ZM390.522 120H403.896V42.4951H390.522V120ZM422.266 54.4727C426.348 54.4727 429.57 51.1963 429.57 47.2217C429.57 43.1934 426.348 39.9707 422.266 39.9707C418.184 39.9707 414.907 43.1934 414.907 47.2217C414.907 51.1963 418.184 54.4727 422.266 54.4727ZM415.605 120H428.979V63.0664H415.605V120ZM477.91 102.974C476.46 107.7 471.733 110.815 465.503 110.815C456.748 110.815 451.162 104.692 451.162 95.5615V94.7559H490.962V90.4053C490.962 73.1104 480.864 61.8848 464.697 61.8848C448.262 61.8848 437.842 73.7549 437.842 91.748C437.842 109.902 448.154 121.128 465.234 121.128C478.716 121.128 488.706 113.716 490.425 102.974H477.91ZM464.751 72.251C472.432 72.251 477.588 77.8906 477.856 85.9473H451.27C451.807 77.998 457.231 72.251 464.751 72.251ZM499.609 120H512.983V87.0215C512.983 78.8574 517.871 73.3252 525.552 73.3252C533.179 73.3252 536.938 77.8369 536.938 85.8936V120H550.312V83.208C550.312 70.0488 543.169 61.9922 530.601 61.9922C521.846 61.9922 515.776 66.0742 512.715 72.8418H512.446V63.0664H499.609V120ZM611.221 83.3691C610.308 71.3916 601.016 61.8848 585.977 61.8848C569.434 61.8848 558.691 73.3252 558.691 91.5332C558.691 110.01 569.434 121.128 586.084 121.128C600.371 121.128 610.2 112.749 611.274 100.02H598.652C597.417 106.465 593.013 110.332 586.245 110.332C577.759 110.332 572.28 103.457 572.28 91.5332C572.28 79.8242 577.705 72.7344 586.138 72.7344C593.281 72.7344 597.524 77.2998 598.599 83.3691H611.221ZM656.982 102.974C655.532 107.7 650.806 110.815 644.575 110.815C635.82 110.815 630.234 104.692 630.234 95.5615V94.7559H670.034V90.4053C670.034 73.1104 659.937 61.8848 643.77 61.8848C627.334 61.8848 616.914 73.7549 616.914 91.748C616.914 109.902 627.227 121.128 644.307 121.128C657.788 121.128 667.778 113.716 669.497 102.974H656.982ZM643.823 72.251C651.504 72.251 656.66 77.8906 656.929 85.9473H630.342C630.879 77.998 636.304 72.251 643.823 72.251ZM688.027 120.591C692.324 120.591 695.708 117.207 695.708 112.856C695.708 108.56 692.324 105.122 688.027 105.122C683.677 105.122 680.293 108.56 680.293 112.856C680.293 117.207 683.677 120.591 688.027 120.591ZM754.414 81.8115C753.018 71.8213 744.585 63.2275 731.426 63.2275C716.226 63.2275 706.182 74.4531 706.182 92.0703C706.182 109.956 716.226 120.913 731.479 120.913C743.833 120.913 752.91 113.394 754.468 102.705H747.432C745.82 109.956 739.966 114.629 731.533 114.629C720.63 114.629 713.433 106.089 713.433 92.0703C713.433 78.2666 720.576 69.5117 731.479 69.5117C740.288 69.5117 745.928 74.9365 747.432 81.8115H754.414ZM763.813 120H770.903V42.4951H763.813V120ZM828.428 64.1406H821.338V97.2803C821.338 107.754 814.785 114.575 805.063 114.575C795.718 114.575 790.454 109.097 790.454 99.2139V64.1406H783.311V100.449C783.311 113.018 790.884 120.913 803.022 120.913C811.885 120.913 818.599 116.509 821.553 109.634H821.714V120H828.428V64.1406ZM867.529 120.913C881.602 120.913 891.162 109.473 891.162 92.0703C891.162 74.668 881.602 63.2275 867.583 63.2275C858.828 63.2275 851.631 68.1152 848.462 75.7959H848.301V42.4951H841.157V120H847.979V108.184H848.14C851.47 116.025 858.613 120.913 867.529 120.913ZM866.187 69.5117C876.929 69.5117 883.857 78.4277 883.857 92.0703C883.857 105.767 876.929 114.629 866.187 114.629C855.659 114.629 848.247 105.498 848.247 92.0703C848.247 78.6963 855.713 69.5117 866.187 69.5117Z" fill="#2D3748"/>
  <g filter="url(#filter0_i_327_20)">
    <rect width="79.6875" height="79.6875" rx="13.3333" fill="#3C366B"/>
  </g>
  <g filter="url(#filter1_i_327_20)">
    <rect x="90.3125" width="79.6875" height="79.6875" rx="13.3333" fill="#4C51BF"/>
  </g>
  <g filter="url(#filter2_i_327_20)">
    <rect y="90.3125" width="79.6875" height="79.6875" rx="13.3333" fill="#7F9CF5"/>
  </g>
  <g filter="url(#filter3_i_327_20)">
    <rect x="90.3125" y="90.3125" width="79.6875" height="79.6875" rx="13.3333" fill="#E2E8F0"/>
  </g>
  <defs>
    <filter id="filter0_i_327_20" x="0" y="0" width="79.6875" height="81.0208" filterUnits="userSpaceOnUse" color-interpolation-filters="sRGB">
      <feFlood flood-opacity="0" result="BackgroundImageFix"/>
      <feBlend mode="normal" in="SourceGraphic" in2="BackgroundImageFix" result="shape"/>
      <feColorMatrix in="SourceAlpha" type="matrix" values="0 0 0 0 0 0 0 0 0 0 0 0 0 0 0 0 0 0 127 0" result="hardAlpha"/>
      <feMorphology radius="1.33333" operator="erode" in="SourceAlpha" result="effect1_innerShadow_327_20"/>
      <feOffset dy="1.33333"/>
      <feGaussianBlur stdDeviation="0.666667"/>
      <feComposite in2="hardAlpha" operator="arithmetic" k2="-1" k3="1"/>
      <feColorMatrix type="matrix" values="0 0 0 0 0 0 0 0 0 0 0 0 0 0 0 0 0 0 0.05 0"/>
      <feBlend mode="normal" in2="shape" result="effect1_innerShadow_327_20"/>
    </filter>
    <filter id="filter1_i_327_20" x="90.3125" y="0" width="79.6875" height="81.0208" filterUnits="userSpaceOnUse" color-interpolation-filters="sRGB">
      <feFlood flood-opacity="0" result="BackgroundImageFix"/>
      <feBlend mode="normal" in="SourceGraphic" in2="BackgroundImageFix" result="shape"/>
      <feColorMatrix in="SourceAlpha" type="matrix" values="0 0 0 0 0 0 0 0 0 0 0 0 0 0 0 0 0 0 127 0" result="hardAlpha"/>
      <feMorphology radius="1.33333" operator="erode" in="SourceAlpha" result="effect1_innerShadow_327_20"/>
      <feOffset dy="1.33333"/>
      <feGaussianBlur stdDeviation="0.666667"/>
      <feComposite in2="hardAlpha" operator="arithmetic" k2="-1" k3="1"/>
      <feColorMatrix type="matrix" values="0 0 0 0 0 0 0 0 0 0 0 0 0 0 0 0 0 0 0.05 0"/>
      <feBlend mode="normal" in2="shape" result="effect1_innerShadow_327_20"/>
    </filter>
    <filter id="filter2_i_327_20" x="0" y="90.3125" width="79.6875" height="81.0208" filterUnits="userSpaceOnUse" color-interpolation-filters="sRGB">
      <feFlood flood-opacity="0" result="BackgroundImageFix"/>
      <feBlend mode="normal" in="SourceGraphic" in2="BackgroundImageFix" result="shape"/>
      <feColorMatrix in="SourceAlpha" type="matrix" values="0 0 0 0 0 0 0 0 0 0 0 0 0 0 0 0 0 0 127 0" result="hardAlpha"/>
      <feMorphology radius="1.33333" operator="erode" in="SourceAlpha" result="effect1_innerShadow_327_20"/>
      <feOffset dy="1.33333"/>
      <feGaussianBlur stdDeviation="0.666667"/>
      <feComposite in2="hardAlpha" operator="arithmetic" k2="-1" k3="1"/>
      <feColorMatrix type="matrix" values="0 0 0 0 0 0 0 0 0 0 0 0 0 0 0 0 0 0 0.05 0"/>
      <feBlend mode="normal" in2="shape" result="effect1_innerShadow_327_20"/>
    </filter>
    <filter id="filter3_i_327_20" x="90.3125" y="90.3125" width="79.6875" height="81.0208" filterUnits="userSpaceOnUse" color-interpolation-filters="sRGB">
      <feFlood flood-opacity="0" result="BackgroundImageFix"/>
      <feBlend mode="normal" in="SourceGraphic" in2="BackgroundImageFix" result="shape"/>
      <feColorMatrix in="SourceAlpha" type="matrix" values="0 0 0 0 0 0 0 0 0 0 0 0 0 0 0 0 0 0 127 0" result="hardAlpha"/>
      <feMorphology radius="1.33333" operator="erode" in="SourceAlpha" result="effect1_innerShadow_327_20"/>
      <feOffset dy="1.33333"/>
      <feGaussianBlur stdDeviation="0.666667"/>
      <feComposite in2="hardAlpha" operator="arithmetic" k2="-1" k3="1"/>
      <feColorMatrix type="matrix" values="0 0 0 0 0 0 0 0 0 0 0 0 0 0 0 0 0 0 0.05 0"/>
      <feBlend mode="normal" in2="shape" result="effect1_innerShadow_327_20"/>
    </filter>
  </defs>
</svg>
