<?xml version="1.0" encoding="UTF-8" standalone="no"?>
<!DOCTYPE svg PUBLIC "-//W3C//DTD SVG 1.1//EN" "http://www.w3.org/Graphics/SVG/1.1/DTD/svg11.dtd">
<svg width="100%" height="100%" viewBox="0 0 64 60" version="1.1" xmlns="http://www.w3.org/2000/svg" xmlns:xlink="http://www.w3.org/1999/xlink" xml:space="preserve" xmlns:serif="http://www.serif.com/" style="fill-rule:evenodd;clip-rule:evenodd;stroke-linejoin:round;stroke-miterlimit:2;">
    <g transform="matrix(1,0,0,1,-1743,-813)">
        <g id="Plan-de-travail25" serif:id="Plan de travail25" transform="matrix(0.752941,0,0,0.8,430.624,162.6)">
            <rect x="1743" y="813" width="85" height="75" style="fill:none;"/>
            <g transform="matrix(1.40347,0,0,1.25,-4491.63,-1476.97)">
                <g transform="matrix(-0.0593649,0,0,0.267302,4961.04,-3278.1)">
                    <g transform="matrix(0.689869,0,0,0.161904,983.896,16678.7)">
                        <path d="M10667.1,16069.3C10667.1,16069.3 10699.1,15874.5 10725.1,15674.4C10737.2,15581.1 10748.2,15486.7 10753.6,15410.3C10767.8,15218.4 10790.3,15130.5 10815.4,15098.2C10840.9,15065.6 10869.7,15079.5 10897.8,15108.6C10918.1,15129.6 10938.1,15158 10956.3,15174C10966.5,15183.1 10975.6,15188.6 10984,15183.3C10986.1,15181.8 10989.1,15182.4 10990.5,15184.6C10992,15186.7 10991.4,15189.7 10989.2,15191.1C10977.8,15199.1 10964.1,15194.5 10949.2,15182.3C10930.3,15166.9 10908.9,15139.1 10887.7,15118.8C10867,15098.9 10846.7,15085 10829.6,15108.8C10806.5,15140.8 10789.6,15226.5 10782.8,15411.9C10779.6,15489 10771.7,15584.4 10761.9,15678.7C10741.1,15880.2 10712.8,16076.3 10712.8,16076.3C10710.8,16088.9 10699,16097.6 10686.4,16095.6C10673.8,16093.7 10665.1,16081.9 10667.1,16069.3Z" style="fill:rgb(34,84,61);"/>
                    </g>
                    <g transform="matrix(0.689869,0,0,0.161904,983.896,16678.7)">
                        <path d="M10889.2,15111.6C10924.9,15103.1 10993.6,15062.5 11037.9,15064.9C11081.9,15067.2 11153.4,15110.2 11155,15125.8C11156.5,15141.3 11048.9,15153.3 11047.2,15158.4C11045.6,15163.5 11116.1,15151.8 11145.1,15156.5C11172,15160.9 11211.4,15161.3 11221.2,15186.8C11232.3,15215.5 11219.1,15311.2 11211.4,15328.8C11204.5,15344.5 11189.1,15300.5 11174.8,15292.7C11160.5,15284.9 11120.7,15270.4 11125.5,15281.9C11130.4,15293.5 11200.3,15337.4 11203.9,15361.9C11207.4,15386.3 11162.1,15403.9 11146.6,15428.8C11130.5,15454.8 11119.2,15513 11106.8,15517.8C11094.4,15522.7 11088,15473.1 11072.2,15457.8C11056.4,15442.4 11021,15446.5 11011.8,15425.6C11002.1,15403.9 11024.4,15325.8 11014.3,15327.2C11004.2,15328.6 10969.9,15419.6 10951.1,15434C10937,15444.8 10906.4,15430.9 10901.7,15413.8C10894.5,15387.7 10913.9,15289.5 10907.9,15277.5C10901.8,15265.5 10873.5,15321.1 10865.4,15341.9C10858.1,15360.8 10875.3,15399.4 10859.5,15402.4C10843.6,15405.4 10789.7,15381.8 10770.4,15359.9C10751,15338 10733.6,15300.4 10743.3,15271C10753.1,15241.4 10824.2,15194.8 10829,15182.5C10833.9,15170.1 10787.1,15187.7 10772.6,15197C10758.2,15206.2 10744,15245.1 10741.9,15238.3C10739.8,15231.4 10746.3,15176.1 10760,15155.8C10773.6,15135.4 10802.2,15123.5 10823.7,15116.2C10844.4,15109.1 10867.9,15116.7 10889.2,15111.6Z" style="fill:rgb(47,133,90);"/>
                    </g>
                    <g transform="matrix(0.689869,0,0,0.161904,983.896,16678.7)">
                        <path d="M10894.7,15105C10919,15125.8 10945.9,15144.8 10969.9,15165.8C10980.7,15175.2 10990.9,15185 11000.1,15195.5C11014.5,15211.9 11028.4,15230.8 11040.7,15250C11053.9,15270.5 11065.4,15291.1 11074,15309C11081,15323.8 11086.4,15339.4 11090.6,15355.4C11094.7,15371.2 11097.7,15387.3 11100,15403.4C11101.5,15413.9 11102.3,15424.9 11102.7,15436.3C11103.6,15461.3 11102.7,15487.6 11103.5,15512.7C11103.5,15513.5 11102.9,15514.1 11102.1,15514.2C11101.3,15514.2 11100.7,15513.6 11100.6,15512.8C11099.1,15487.8 11099.3,15461.5 11097.6,15436.5C11096.8,15425.4 11095.7,15414.6 11093.9,15404.3C11091.2,15388.6 11087.8,15372.8 11083.3,15357.4C11078.8,15342.1 11073.1,15327.2 11065.8,15313.1C11056.9,15295.8 11045,15275.9 11031.5,15256.2C11018.9,15237.9 11004.9,15219.8 10990.4,15204.3C10981.3,15194.5 10971.2,15185.5 10960.6,15176.8C10935.9,15156.6 10908.5,15138.4 10883.7,15118.3C10880,15115.2 10879.5,15109.8 10882.5,15106.1C10885.6,15102.4 10891.1,15101.9 10894.7,15105Z" style="fill:white;"/>
                    </g>
                    <g transform="matrix(0.689869,0,0,0.161904,983.896,16678.7)">
                        <path d="M10948.6,15161.1C10948.6,15161.1 10877.7,15206.9 10833.1,15259.2C10807.2,15289.6 10790,15322 10801.9,15348.8C10802.2,15349.5 10801.9,15350.3 10801.2,15350.7C10800.5,15351 10799.7,15350.7 10799.3,15350C10785.2,15322.6 10800.9,15287.3 10826.4,15253.8C10869,15197.8 10938.8,15146.8 10938.8,15146.8C10942.7,15144.1 10948.1,15145.1 10950.9,15149.1C10953.6,15153 10952.6,15158.4 10948.6,15161.1Z" style="fill:white;"/>
                    </g>
                    <g transform="matrix(0.689869,0,0,0.161904,983.896,16678.7)">
                        <path d="M10904.3,15135.2C10904.3,15135.2 10849.9,15131.8 10806.6,15151.6C10786.5,15160.8 10768.7,15174.9 10760,15196.8C10759.7,15197.5 10758.9,15197.9 10758.2,15197.7C10757.5,15197.4 10757.1,15196.6 10757.3,15195.9C10764.6,15171.9 10782.2,15155.5 10802.7,15143.9C10846.7,15119.1 10904.6,15117.9 10904.6,15117.9C10909.4,15118 10913.2,15121.9 10913.1,15126.7C10913,15131.5 10909.1,15135.3 10904.3,15135.2Z" style="fill:white;"/>
                    </g>
                    <g transform="matrix(0.689869,0,0,0.161904,981.382,16679.1)">
                        <path d="M10919.6,15121.8C10919.6,15121.8 10981.7,15090.8 11049,15092.9C11077.4,15093.8 11106.7,15100.5 11132.6,15118.2C11133.3,15118.6 11133.5,15119.5 11133.1,15120.1C11132.6,15120.8 11131.8,15121 11131.1,15120.6C11105.1,15105.2 11076.4,15100.6 11049,15101.5C10984.9,15103.8 10927.9,15137.1 10927.9,15137.1C10923.6,15139.4 10918.4,15137.8 10916.1,15133.6C10913.8,15129.4 10915.4,15124.1 10919.6,15121.8Z" style="fill:white;"/>
                    </g>
                    <g transform="matrix(0.689869,0,0,0.161904,988.617,16678.8)">
                        <path d="M10995.2,15196.6C10995.2,15196.6 11083.8,15186.4 11146.7,15210.6C11180.4,15223.5 11206.9,15246.1 11208.8,15285.2C11208.9,15286 11208.3,15286.7 11207.5,15286.7C11206.7,15286.8 11206.1,15286.2 11206,15285.4C11202.1,15248.8 11176.1,15229 11143.8,15218.7C11082.1,15199 10997.6,15213.8 10997.6,15213.8C10992.9,15214.5 10988.5,15211.2 10987.8,15206.4C10987.1,15201.7 10990.4,15197.3 10995.2,15196.6Z" style="fill:white;"/>
                    </g>
                    <g transform="matrix(0.689869,0,0,0.161904,981.518,16679.2)">
                        <path d="M10996.3,15193.2C10996.3,15193.2 10954.4,15249 10934.7,15315.5C10925.9,15345.1 10921.4,15376.6 10926.9,15406.4C10927,15407.1 10926.6,15407.9 10925.8,15408C10925,15408.2 10924.3,15407.7 10924.1,15406.9C10916.6,15376.8 10919.2,15344.2 10926.3,15313.3C10942.5,15243.5 10982.1,15183.2 10982.1,15183.2C10984.9,15179.3 10990.3,15178.4 10994.2,15181.1C10998.1,15183.9 10999.1,15189.3 10996.3,15193.2Z" style="fill:white;"/>
                    </g>
                    <g transform="matrix(0.689869,0,0,0.161904,983.896,16678.7)">
                        <path d="M11080.3,15326.3C11080.3,15326.3 11065.7,15355.1 11058,15385.2C11054.2,15399.8 11052,15414.6 11053.9,15426.6C11054.1,15427.3 11053.6,15428.1 11052.9,15428.3C11052.1,15428.4 11051.3,15428 11051.2,15427.2C11047.5,15415.1 11047.6,15399.4 11049.5,15383.6C11053.3,15351.4 11064.3,15319.6 11064.3,15319.6C11066.1,15315.2 11071.2,15313.1 11075.6,15315C11080.1,15316.8 11082.1,15321.9 11080.3,15326.3Z" style="fill:white;"/>
                    </g>
                    <g transform="matrix(0.689869,0,0,0.161904,983.707,16678.7)">
                        <path d="M11051.4,15261.3C11051.4,15261.3 11102.5,15294.3 11135.2,15323.5C11151.1,15337.7 11162.5,15351.1 11162.3,15359.5C11162.3,15360.3 11161.7,15361 11160.9,15361C11160.1,15361 11159.5,15360.4 11159.5,15359.6C11158.9,15351.8 11146.7,15340.8 11130.7,15329.1C11095.9,15303.6 11042.7,15276.3 11042.7,15276.3C11038.6,15273.9 11037.2,15268.5 11039.6,15264.4C11042,15260.3 11047.3,15258.9 11051.4,15261.3Z" style="fill:white;"/>
                    </g>
                    <g transform="matrix(0.745863,0,0,0.175045,343.621,16466.5)">
                        <path d="M10953.2,15719.4C10953.2,15719.4 10926,15748.4 10916,15748C10906,15747.7 10902.5,15718.8 10893,15717.3C10883.5,15715.9 10872,15735.9 10858.9,15739.3C10841.8,15743.7 10802.4,15751.6 10790.3,15743.9C10778.1,15736.2 10782.3,15707.4 10786.2,15693.1C10790.1,15678.9 10810.3,15645.3 10824.2,15640.7C10838.2,15636.1 10851.8,15660.2 10869.9,15665.5C10888.1,15670.8 10908.2,15681.3 10922.1,15690.3C10934,15698.1 10953.2,15719.4 10953.2,15719.4Z" style="fill:rgb(34,84,61);"/>
                    </g>
                    <g transform="matrix(0.745863,0,0,0.175045,343.621,16466.5)">
                        <path d="M10822.4,16080.5C10822.4,16080.5 10826.6,15956.3 10848.4,15835.4C10854.9,15799.4 10863,15763.9 10873,15732C10894.2,15664.9 10923.1,15614.4 10957.5,15607.5C10959.3,15607 10961.1,15608.1 10961.6,15609.8C10962,15611.6 10961,15613.4 10959.3,15613.9C10944.5,15619 10933,15633.9 10923.1,15654.9C10912.7,15677.1 10905,15706.1 10898.4,15738.5C10891.8,15770.3 10886.7,15805.3 10882.4,15840.5C10867.7,15960.2 10865.1,16081.7 10865.1,16081.7C10864.7,16093.5 10854.9,16102.8 10843.1,16102.5C10831.3,16102.2 10822,16092.3 10822.4,16080.5Z" style="fill:rgb(40,99,72);"/>
                    </g>
                    <g transform="matrix(0.745863,0,0,0.175045,343.621,16466.5)">
                        <path d="M10813.5,15658.4C10800,15641.4 10853.6,15626 10870.6,15616.4C10884.3,15608.6 10901.8,15608.8 10915.3,15600.6C10936.2,15588.1 10925.9,15578.1 10953.7,15568.7C10981.2,15559.4 11079.6,15567 11084.4,15572.4C11089.1,15577.9 11009.5,15595.4 11014.9,15593.7C11033.6,15587.9 11096.3,15582.7 11114.1,15584.9C11125,15586.3 11143.3,15622 11141.1,15630.4C11139,15638.9 11116.6,15632.6 11118.4,15638C11120.2,15643.4 11143.8,15641.3 11152.4,15649.7C11162.6,15659.6 11173.3,15683 11179.4,15697.3C11184.6,15709.5 11199.6,15728.9 11189.1,15735.8C11178.6,15742.7 11133.2,15745.8 11116.4,15738.7C11100,15731.8 11092.1,15693.7 11088.2,15693.2C11084.2,15692.7 11098,15728 11092.8,15735.5C11087.6,15743.1 11068.6,15738.3 11056.9,15738.5C11045.6,15738.6 11030.8,15744 11022.9,15736.4C11015.1,15728.9 11015.4,15694.7 11009.8,15693.1C11004.3,15691.5 10999.4,15722.7 10989.7,15727C10979.9,15731.2 10963.4,15723.4 10951.2,15718.6C10921.8,15707.2 10826.9,15675.4 10813.5,15658.4Z" style="fill:rgb(47,133,90);"/>
                    </g>
                    <g transform="matrix(0.745863,0,0,0.175045,343.621,16466.5)">
                        <path d="M10918.3,15598.3C10918.3,15598.3 10960.4,15608.6 10998.7,15618.1C11020.7,15623.6 11041.5,15628.8 11052.2,15631.8C11078.5,15639 11099.4,15652 11115.6,15666.1C11146,15692.7 11159.3,15722.8 11159.3,15722.8C11159.6,15723.4 11159.3,15724.2 11158.6,15724.5C11158,15724.8 11157.2,15724.5 11156.9,15723.9C11156.9,15723.9 11142.8,15695 11112.2,15670.1C11096.2,15657.2 11075.7,15645.3 11050.3,15639.4C11039.5,15636.8 11018.6,15632.3 10996.5,15627.7C10957.9,15619.5 10915.5,15610.8 10915.5,15610.8C10912,15610.1 10909.8,15606.6 10910.6,15603.2C10911.4,15599.7 10914.8,15597.6 10918.3,15598.3Z" style="fill:white;"/>
                    </g>
                    <g transform="matrix(0.745863,0,0,0.175045,343.621,16466.5)">
                        <path d="M10946.5,15607C10946.5,15607 10954,15591.1 10978.5,15581.5C10991.8,15576.4 11010.2,15572.9 11035.5,15575.3C11036.2,15575.3 11036.8,15575.9 11036.7,15576.6C11036.7,15577.3 11036.1,15577.9 11035.4,15577.9C11016.2,15578.1 11001.6,15581.3 10990.3,15585.8C10964.7,15595.8 10958.2,15612.2 10958.2,15612.2C10956.7,15615.5 10952.9,15616.9 10949.7,15615.5C10946.5,15614 10945,15610.2 10946.5,15607Z" style="fill:white;"/>
                    </g>
                    <g transform="matrix(0.745863,0,0,0.175045,343.621,16466.5)">
                        <path d="M11046.4,15635.4C11046.4,15635.4 11043.6,15666.6 11049.2,15694.7C11052,15708.8 11056.7,15722 11065.1,15730.1C11065.6,15730.6 11065.7,15731.4 11065.2,15732C11064.7,15732.5 11063.9,15732.6 11063.3,15732.1C11053.6,15724.4 11047.1,15710.9 11042.7,15696.4C11033.9,15667.7 11033.6,15634.9 11033.6,15634.9C11033.7,15631.4 11036.7,15628.6 11040.2,15628.7C11043.7,15628.9 11046.5,15631.9 11046.4,15635.4Z" style="fill:white;"/>
                    </g>
                    <g transform="matrix(0.745863,0,0,0.175045,343.621,16466.5)">
                        <path d="M11013.9,15621.6C11013.9,15621.6 11040.2,15595.5 11071.5,15590C11085.3,15587.6 11100,15589 11113.8,15598.5C11114.4,15598.8 11114.6,15599.6 11114.2,15600.3C11113.8,15600.9 11113,15601.1 11112.4,15600.7C11098.9,15593.2 11085.4,15593.1 11073,15596.6C11045,15604.3 11023.3,15630.3 11023.3,15630.3C11020.9,15632.9 11016.8,15633.1 11014.2,15630.7C11011.6,15628.3 11011.5,15624.2 11013.9,15621.6Z" style="fill:white;"/>
                    </g>
                    <g transform="matrix(0.745863,0,0,0.175045,343.621,16466.5)">
                        <path d="M10975.7,15622.1C10975.7,15622.1 10954.4,15637.5 10943.3,15656.6C10937.8,15666.1 10934.7,15676.5 10938.3,15686.2C10938.6,15686.9 10938.3,15687.7 10937.7,15688C10937,15688.2 10936.2,15687.9 10936,15687.3C10930.5,15676.9 10932.5,15665 10937.3,15653.6C10946.7,15631.6 10967.4,15612.2 10967.4,15612.2C10970.2,15610 10974.2,15610.3 10976.5,15613C10978.7,15615.8 10978.4,15619.8 10975.7,15622.1Z" style="fill:white;"/>
                    </g>
                    <g transform="matrix(0.745863,0,0,0.175045,343.621,16466.5)">
                        <path d="M10928.3,15613.8C10928.3,15613.8 10889,15620.7 10864.9,15632.7C10854.4,15637.9 10846.6,15643.9 10847.4,15651.1C10847.6,15651.8 10847.1,15652.4 10846.4,15652.6C10845.6,15652.7 10845,15652.2 10844.9,15651.5C10843.1,15643.4 10850.6,15635.1 10862.1,15627.7C10885.6,15612.7 10925.4,15601.3 10925.4,15601.3C10928.8,15600.5 10932.3,15602.7 10933.1,15606.1C10933.9,15609.5 10931.7,15613 10928.3,15613.8Z" style="fill:white;"/>
                    </g>
                    <g transform="matrix(0.757961,0,0,0.177884,232.342,16428.5)">
                        <path d="M10840.3,16004.1C10840.3,16004.1 10811.9,15903.8 10776.9,15788.2C10762.6,15741 10747.5,15691.3 10732.4,15644.8C10712.9,15584.8 10693.8,15530.4 10677.4,15494.1C10676.4,15492 10677.2,15489.5 10679.4,15488.4C10681.5,15487.3 10684,15488.2 10685.1,15490.3C10709.8,15535.2 10741.7,15609.5 10772.2,15687.6C10788.1,15728.2 10803.6,15769.7 10817.6,15808.6C10853.8,15909.3 10880.5,15991.9 10880.5,15991.9C10883.9,16003 10877.6,16014.8 10866.5,16018.1C10855.4,16021.5 10843.6,16015.2 10840.3,16004.1Z" style="fill:rgb(34,84,61);"/>
                    </g>
                    <g transform="matrix(0.757961,0,0,0.177884,232.342,16428.5)">
                        <path d="M10489.3,15299.8C10489.3,15299.8 10450.3,15218.2 10399.1,15220.9C10347.9,15223.6 10440.3,15205.1 10440.3,15205.1L10484.9,15218.7L10567.8,15304.3L10635.8,15425L10678.9,15561.8L10667.4,15611.5L10637.7,15588.8L10593.7,15555.2L10539.3,15493.8L10569.3,15380.1L10489.3,15299.8Z" style="fill:rgb(34,84,61);"/>
                    </g>
                    <g transform="matrix(0.757961,0,0,0.177884,232.342,16428.5)">
                        <path d="M10727.5,15596.3C10719.9,15612.1 10694.7,15620.8 10675.4,15621.8C10651.3,15623.1 10606.1,15613 10583.4,15604C10565.6,15597 10531.6,15574.1 10539.1,15567.8C10546.7,15561.5 10631.8,15574.9 10628.7,15566.3C10625.7,15557.7 10540.8,15534.2 10520.6,15516.1C10505.7,15502.6 10510.4,15477.1 10507.6,15457.2C10504.6,15436 10488.6,15397.8 10502.6,15389C10516.7,15380.3 10591.8,15410.5 10591.9,15404.8C10592.1,15399.2 10521.3,15377.2 10503.6,15355.2C10485.9,15333.2 10492.5,15296.2 10485.2,15272.6C10478.9,15252.1 10449.9,15216.1 10459.8,15213.5C10469.6,15210.9 10522.3,15234 10544.2,15256.9C10577.4,15291.8 10623.6,15358.7 10653.1,15403.8C10675.4,15437.8 10710,15498.4 10721.4,15527.4C10729.8,15548.8 10735.2,15580.6 10727.5,15596.3Z" style="fill:rgb(47,133,90);"/>
                    </g>
                    <g transform="matrix(0.757961,0,0,0.177884,232.342,16428.5)">
                        <path d="M10678,15496.1C10678,15496.1 10657.8,15478.8 10628.1,15464.5C10616.9,15459.1 10604.4,15454.1 10591.1,15450.6C10570.5,15445.2 10548.1,15443.2 10525.6,15448.9C10524.9,15449.1 10524.2,15448.7 10524,15448.1C10523.8,15447.4 10524.2,15446.7 10524.9,15446.5C10553.7,15436.8 10583.5,15439.7 10609.5,15447.3C10653.3,15460.2 10686,15486.3 10686,15486.3C10688.7,15488.6 10689.1,15492.5 10686.9,15495.2C10684.6,15497.9 10680.7,15498.3 10678,15496.1Z" style="fill:white;"/>
                    </g>
                    <g transform="matrix(0.757961,0,0,0.177884,232.342,16428.5)">
                        <path d="M10716.8,15597.6C10716.8,15597.6 10708.8,15570 10699.1,15542.8C10694.5,15530 10689.6,15517.2 10684.9,15507.6C10670.3,15477.1 10651.7,15437 10630.5,15396.4C10617.7,15372.1 10604.1,15347.6 10589.7,15325C10561,15280 10529.4,15242.2 10496.4,15227.6C10495.7,15227.3 10495.4,15226.6 10495.7,15225.9C10496,15225.2 10496.7,15224.9 10497.4,15225.2C10531.3,15239.1 10564.7,15276.5 10595.1,15321.4C10610.3,15343.8 10624.7,15368.1 10638.1,15392.3C10660.3,15432.5 10679.5,15472.4 10694.8,15502.7C10699.8,15512.6 10705.1,15525.6 10710.1,15538.8C10720.3,15566.2 10728.9,15594 10728.9,15594C10729.8,15597.4 10727.9,15600.9 10724.6,15601.9C10721.3,15602.9 10717.8,15601 10716.8,15597.6Z" style="fill:white;"/>
                    </g>
                    <g transform="matrix(0.757961,0,0,0.177884,232.342,16428.5)">
                        <path d="M10622.6,15390.3C10622.6,15390.3 10609.3,15371.2 10589.1,15353.2C10581.2,15346 10572.1,15339 10562.4,15333.4C10546.1,15324.1 10528,15318.6 10509.4,15323.2C10508.7,15323.4 10508,15323 10507.8,15322.4C10507.6,15321.7 10508,15321 10508.6,15320.8C10528,15314.1 10547.8,15318.2 10565.9,15326.7C10576.6,15331.8 10586.6,15338.5 10595.5,15345.6C10617.9,15363.3 10632.8,15382.9 10632.8,15382.9C10634.8,15385.7 10634.2,15389.6 10631.4,15391.7C10628.6,15393.7 10624.6,15393.1 10622.6,15390.3Z" style="fill:white;"/>
                    </g>
                    <g transform="matrix(0.571662,0,0,0.161904,2249.22,16691.4)">
                        <path d="M10958.3,15938C10839,15952 10719.4,15952.1 10599.6,15938L10642.6,16350.3C10744.2,16352.6 10832.8,16356.9 10913.3,16350.3L10958.3,15938Z" style="fill:rgb(28,28,28);"/>
                    </g>
                    <g transform="matrix(0.814055,0,0,0.0113817,-362.707,19090.2)">
                        <path d="M10913.3,15938C10823.3,16140.6 10733,16126.1 10642.6,15938L10642.6,16350.3C10732.1,16579.6 10822.3,16602.4 10913.3,16350.3L10913.3,15938Z"/>
                    </g>
                    <g transform="matrix(0.717354,0,0,0.00575373,679.528,19190.2)">
                        <path d="M10913.3,15938C10823.3,16296.9 10733,16291.3 10642.6,15938L10642.6,16350.3C10733,16722.4 10823.3,16728.2 10913.3,16350.3L10913.3,15938Z"/>
                    </g>
                </g>
                <g transform="matrix(0.445804,0,0,0.567422,4264.8,1648.24)">
                    <g transform="matrix(0.143573,0,0,0.119199,395.792,62.0965)">
                        <circle cx="471.5" cy="3039.5" r="32.5" style="fill:url(#_Radial1);"/>
                    </g>
                    <g transform="matrix(0.143573,0,0,0.119199,430.824,61.9773)">
                        <circle cx="471.5" cy="3039.5" r="32.5" style="fill:url(#_Radial2);"/>
                    </g>
                    <g transform="matrix(0.0859746,0,0,0.0799138,425.734,204.982)">
                        <path d="M976,2519C976,2394.82 863.126,2294 724.097,2294L549.903,2294C410.874,2294 298,2394.82 298,2519C298,2643.18 410.874,2744 549.903,2744L724.097,2744C863.126,2744 976,2643.18 976,2519Z" style="fill:url(#_Radial3);"/>
                    </g>
                    <g transform="matrix(0.0487925,0,0,0.0405092,467.578,396.904)">
                        <path d="M275.253,168.794L278.106,49L188.256,290.014L344.423,181.629L430.708,267.196L342.284,328.519L318.039,308.553L302.351,363.459L340.145,394.12L512,275.04L351.554,113.175L275.253,168.794Z" style="fill:rgb(76,81,191);fill-rule:nonzero;"/>
                        <path d="M170.429,118.88L215.354,155.959L195.387,205.873L167.577,184.481L79.866,245.091L166.15,331.371L316.613,230.117L254.574,464L242.451,342.78L159.733,398.399L0,237.96L170.429,118.88Z" style="fill:rgb(45,55,72);fill-rule:nonzero;"/>
                    </g>
                    <g transform="matrix(0.124938,0,0,0.106691,400.771,93.294)">
                        <path d="M976,2519C976,2394.82 872.301,2294 744.573,2294L529.427,2294C401.699,2294 298,2394.82 298,2519C298,2643.18 401.699,2744 529.427,2744L744.573,2744C872.301,2744 976,2643.18 976,2519Z" style="fill:url(#_Radial4);"/>
                    </g>
                    <g transform="matrix(0.103411,0,0,0.0622675,414.484,211.748)">
                        <path d="M976,2519C976,2325.8 824.493,2267.77 640.604,2267.77C432.705,2267.77 298,2321.66 298,2519C298,2698.4 448.268,2759.18 638.094,2759.18C857.658,2759.18 976,2720.48 976,2519Z" style="fill:url(#_Radial5);"/>
                    </g>
                    <g transform="matrix(0.117673,0,0,0.111352,403.187,85.3479)">
                        <ellipse cx="527" cy="2564" rx="53" ry="64" style="fill:rgb(249,249,249);"/>
                    </g>
                    <g transform="matrix(0.117673,0,0,0.111352,433.499,85.4592)">
                        <ellipse cx="527" cy="2564" rx="53" ry="64" style="fill:rgb(249,249,249);"/>
                    </g>
                    <g transform="matrix(0.41416,5.04284e-18,-2.01667e-17,0.168832,223.503,348.25)">
                        <path d="M620.228,233.978C621.049,233.978 645.807,233.749 656.435,242.158C665.892,249.64 577.287,249.915 583.144,244.774C595.117,234.266 609.518,233.978 620.228,233.978Z" style="fill:rgb(208,208,208);"/>
                    </g>
                    <g transform="matrix(0.41416,5.04284e-18,-2.01667e-17,0.168832,223.503,348.25)">
                        <path d="M620.228,233.978C620.959,233.978 640.657,233.797 652.472,239.688C660.64,244.993 579.353,246.165 588.005,241.12C598.86,234.195 610.934,233.978 620.228,233.978Z" style="fill:rgb(164,164,164);"/>
                    </g>
                    <g transform="matrix(0.234435,4.04641e-18,-1.14154e-17,0.135472,334.969,356.401)">
                        <path d="M619.814,235.014C637.085,235.014 640.997,237.291 652.812,243.183C642.033,244.249 595.437,244.698 585.15,243.826C596.004,236.901 605.474,235.014 619.814,235.014Z" style="fill:rgb(14,14,14);"/>
                    </g>
                    <g transform="matrix(0.31599,-0.0044478,0.00824131,0.340632,283.754,323.431)">
                        <path d="M577.326,191.844C556.628,188.147 671.716,190.445 650.905,192.923C639.676,194.26 626.877,194.957 613.278,194.957C600.038,194.957 587.847,193.723 577.326,191.844Z" style="fill:rgb(208,208,208);"/>
                    </g>
                    <g transform="matrix(0.31599,-0.0044478,0.00824131,0.340632,283.754,323.431)">
                        <path d="M586.47,193.248C560.872,189.936 667.054,191.756 641.577,193.857C632.775,194.583 623.241,194.957 613.278,194.957C603.717,194.957 594.703,194.314 586.47,193.248Z" style="fill:rgb(164,164,164);"/>
                    </g>
                    <g transform="matrix(0.31599,-0.0044478,0.00824131,0.340632,283.754,323.431)">
                        <path d="M613.278,194.957C605.44,194.957 591.065,192.512 593.293,191.633C593.563,191.619 596.193,191.585 598.476,191.569C608.055,191.502 619.819,191.707 629.542,192.045C632.277,192.14 635.292,192.229 634.909,192.231C635.991,193.099 621.163,194.957 613.278,194.957Z" style="fill:rgb(9,9,9);"/>
                    </g>
                    <g transform="matrix(0.132548,0,0,0.0555925,349.848,-51.3914)">
                        <path d="M1003.9,7910.87L1003.55,7916.01C989.795,7928.37 976.857,7926.94 964.51,7916.01L964.54,7871.3C974.975,7871.63 990.477,7871.98 1003.55,7872.4L1003.76,7897.59L1010.43,7890.54L1010.45,7872.54C1011.97,7872.37 1018.82,7872.6 1020.28,7872.64L1020.13,7890.51L1003.9,7910.87Z" style="fill:rgb(23,23,23);"/>
                    </g>
                </g>
                <g transform="matrix(0.946317,0,0,1,451.507,207)">
                    <g transform="matrix(0.163975,0,0,0.163975,4374.51,1650)">
                        <g transform="matrix(0.0611987,-0.0246943,0.0246943,0.0611987,-684.552,-36.1339)">
                            <g transform="matrix(91.73,11.1958,-11.1958,91.73,-352884,-209343)">
                                <path d="M4068.7,1802.89C4068.43,1802.3 4068,1800.84 4068.24,1799.26C4068.24,1799.26 4068.5,1800.82 4068.77,1800.87C4068.77,1800.87 4068.39,1799.86 4068.78,1798.67C4068.78,1798.67 4068.72,1799.95 4068.96,1800.15C4068.96,1800.15 4068.99,1797.72 4069.25,1796.78C4069.25,1796.78 4069.36,1795.75 4071.28,1793.39C4071.28,1793.39 4071.38,1794.78 4071.75,1795.12C4072.12,1795.46 4071.08,1793.98 4071.86,1791.82C4071.86,1791.82 4073.11,1789.59 4075.05,1788.12C4075.05,1788.12 4074.72,1789.39 4074.93,1790C4074.93,1790 4074.96,1788.38 4075.62,1787.69C4075.62,1787.69 4077,1786.66 4077.37,1786.44C4077.37,1786.44 4076.98,1787.68 4077.1,1788.46C4077.1,1788.46 4077.58,1786.82 4078.28,1785.74C4078.28,1785.74 4080.22,1784.37 4082.42,1783.89L4081.68,1785.62L4082.95,1783.97L4082.33,1785.22L4083.89,1783.9C4083.37,1784.51 4082.77,1785.15 4082.17,1785.76C4081.68,1786.23 4081.12,1786.71 4080.57,1787.09C4080.37,1787.22 4080.17,1787.37 4079.96,1787.51C4080.36,1787.43 4080.89,1787.17 4081.5,1786.56C4082.48,1785.61 4083.22,1784.7 4083.22,1784.7C4083.22,1784.7 4083.63,1784.94 4083.61,1785.42L4082.28,1786.53C4082.28,1786.53 4083.18,1786.18 4083.67,1785.82L4083.75,1786.51C4083.75,1786.51 4082.67,1787.35 4081.32,1787.73C4081.32,1787.73 4082.58,1787.5 4083.65,1786.97C4083.65,1786.97 4083.59,1787.54 4083.3,1787.71C4083.01,1787.88 4082.46,1788.52 4080.27,1788.94C4080.27,1788.94 4081.58,1789.04 4083.12,1788.29C4083.12,1788.29 4083.02,1789.6 4081.99,1790.6C4081.99,1790.6 4081.36,1791.06 4080.18,1791.47C4080.18,1791.47 4081.2,1791.26 4081.83,1791C4081.83,1791 4080.84,1791.76 4079.9,1792.03L4081.34,1791.66C4081.34,1791.66 4080.84,1792.66 4078.77,1793.67C4076.7,1794.67 4075.6,1794.72 4075.26,1794.77C4074.93,1794.83 4074.59,1794.66 4073.27,1795.29C4073.27,1795.29 4074.7,1794.86 4075.59,1795.01C4076.47,1795.15 4078.51,1794.65 4078.77,1794.51C4078.77,1794.51 4078.32,1796.21 4076.82,1796.92C4076.82,1796.92 4076.89,1796.87 4075.57,1797.56C4074.26,1798.25 4073.4,1798.23 4072.52,1798.55C4072.52,1798.55 4073.88,1798.34 4074.43,1798.32C4074.99,1798.29 4076.13,1797.66 4076.13,1797.66C4076.13,1797.66 4073.26,1800.17 4071.39,1800.68C4069.53,1801.2 4069.93,1801.33 4069.93,1801.33C4069.93,1801.33 4070.91,1800.92 4071.67,1800.92C4072.43,1800.92 4073.92,1799.83 4073.92,1799.83C4073.92,1799.83 4073.01,1801.01 4071.32,1801.73C4070.34,1802.15 4069.32,1802.64 4068.76,1802.95L4068.82,1803.1C4068.79,1803.07 4068.77,1803.02 4068.74,1802.96C4068.57,1803.06 4068.45,1803.13 4068.39,1803.18L4068.38,1803.2L4068.7,1802.89ZM4073.64,1793.35C4071.56,1796.25 4069.21,1801.2 4068.69,1802.73L4068.74,1802.86L4068.85,1802.76C4069.44,1801.31 4071.02,1797.26 4073.64,1793.35Z" style="fill:rgb(160,213,246);fill-rule:nonzero;"/>
                            </g>
                            <g transform="matrix(5.80781,0,0,5.80781,-53.9682,-50.0593)">
                                <path d="M30.421,317.462L34.843,299.801L22.649,294.987L14.273,308.791C14.273,308.791 18.891,321.317 13.762,331.33C13.766,331.331 20.184,320.399 30.421,317.462ZM22.229,309.358C23.73,308.743 25.46,309.445 26.08,310.919C26.705,312.393 25.993,314.09 24.492,314.705C22.991,315.32 21.261,314.618 20.641,313.144C20.01,311.664 20.723,309.967 22.229,309.358Z" style="fill:rgb(134,134,134);fill-rule:nonzero;"/>
                            </g>
                            <g transform="matrix(5.80781,0,0,5.80781,-76.4313,2.27374e-13)">
                                <path d="M158.353,112.621C123.238,141.421 77.267,200.745 38.28,270.044L38.258,270.017L31.443,282.043L38.71,284.839L42.55,274.722C63.349,237.231 119.774,139.322 222.947,74.271C222.947,74.271 261.358,51.394 299.203,19.755C289.989,27.457 271.812,37.111 261.956,43.339C236.088,59.683 204.166,75.043 158.353,112.621Z" style="fill:white;fill-rule:nonzero;"/>
                            </g>
                            <g transform="matrix(5.80781,0,0,5.80781,-65.1997,-22.4631)">
                                <path d="M23.551,290.571L37.361,296.103L39.933,289.989L26.124,284.458L23.551,290.571Z" style="fill:rgb(179,179,179);fill-rule:nonzero;"/>
                            </g>
                        </g>
                        <g transform="matrix(0.800698,0,0,0.800698,-125.783,18.2316)">
                            <g transform="matrix(4.06565,0,0,4.06565,-17770,-6681.89)">
                                <path d="M4208.02,1666C4208.01,1665.88 4208,1665.75 4208,1665.62L4208,1662.38C4208,1660.51 4209.51,1659 4211.38,1659L4216.62,1659C4218.49,1659 4220,1660.51 4220,1662.38L4220,1665.62C4220,1665.75 4219.99,1665.88 4219.98,1666L4208.02,1666Z" style="fill:rgb(23,29,43);"/>
                            </g>
                            <g transform="matrix(3.72684,0,0,4.06565,-16342.2,-6681.89)">
                                <path d="M4220,1657.5C4220,1657.22 4219.76,1657 4219.45,1657L4208.55,1657C4208.24,1657 4208,1657.22 4208,1657.5L4208,1658.5C4208,1658.78 4208.24,1659 4208.55,1659L4219.45,1659C4219.76,1659 4220,1658.78 4220,1658.5L4220,1657.5Z" style="fill:rgb(9,11,16);"/>
                            </g>
                        </g>
                    </g>
                    <g transform="matrix(-0.38929,0,0,1.15152,7473.05,-350.541)">
                        <g transform="matrix(0.694447,0,0,0.694447,2574.26,518.211)">
                            <g transform="matrix(1,0,0,1,3.12348,0)">
                                <g transform="matrix(-5.48164,0,0,0.331273,30466,1254.97)">
                                    <path d="M4077.01,1600.83L4052.27,1600.83L4052.27,1577.71L4077.01,1577.71L4077.01,1600.83Z" style="fill:rgb(215,215,215);"/>
                                </g>
                                <g transform="matrix(-0.510465,0,0,0.926076,10321.4,316.55)">
                                    <path d="M4077.01,1600.83L4052.27,1600.83L4052.27,1577.71L4077.01,1577.71L4077.01,1600.83Z" style="fill:rgb(215,215,215);"/>
                                </g>
                                <g transform="matrix(-0.510465,0,0,0.926076,10198.4,316.55)">
                                    <path d="M4077.01,1600.83L4052.27,1600.83L4052.27,1577.71L4077.01,1577.71L4077.01,1600.83Z" style="fill:rgb(215,215,215);"/>
                                </g>
                            </g>
                            <g transform="matrix(-6.49172,2.52091e-16,5.50256e-17,-0.0472382,34574.7,1852.15)">
                                <path d="M4077.01,1600.83L4052.27,1600.83L4052.27,1577.71L4077.01,1577.71L4077.01,1600.83Z" style="fill:rgb(182,183,185);"/>
                            </g>
                            <g transform="matrix(-6.49172,4.79419e-16,1.04646e-16,0.114981,34574.7,1592.47)">
                                <path d="M4077.01,1600.83L4052.27,1600.83L4052.27,1577.71L4077.01,1577.71L4077.01,1600.83Z" style="fill:rgb(182,183,185);"/>
                            </g>
                        </g>
                    </g>
                </g>
            </g>
        </g>
    </g>
    <defs>
        <radialGradient id="_Radial1" cx="0" cy="0" r="1" gradientUnits="userSpaceOnUse" gradientTransform="matrix(32.5,0,0,32.1813,473,3023)"><stop offset="0" style="stop-color:rgb(46,55,72);stop-opacity:1"/><stop offset="1" style="stop-color:rgb(3,8,18);stop-opacity:1"/></radialGradient>
        <radialGradient id="_Radial2" cx="0" cy="0" r="1" gradientUnits="userSpaceOnUse" gradientTransform="matrix(32.5,0,0,32.1813,469,3019)"><stop offset="0" style="stop-color:rgb(46,55,72);stop-opacity:1"/><stop offset="1" style="stop-color:rgb(3,8,18);stop-opacity:1"/></radialGradient>
        <radialGradient id="_Radial3" cx="0" cy="0" r="1" gradientUnits="userSpaceOnUse" gradientTransform="matrix(707.041,-35.1045,28.918,464.674,600.736,2514.52)"><stop offset="0" style="stop-color:white;stop-opacity:1"/><stop offset="1" style="stop-color:rgb(212,212,212);stop-opacity:1"/></radialGradient>
        <radialGradient id="_Radial4" cx="0" cy="0" r="1" gradientUnits="userSpaceOnUse" gradientTransform="matrix(710.438,-4.87829,-3.30563,790.988,606.227,2523.81)"><stop offset="0" style="stop-color:rgb(252,252,252);stop-opacity:1"/><stop offset="1" style="stop-color:rgb(212,212,212);stop-opacity:1"/></radialGradient>
        <radialGradient id="_Radial5" cx="0" cy="0" r="1" gradientUnits="userSpaceOnUse" gradientTransform="matrix(519.759,-2.76074,1.55663,376.88,643.695,2510.72)"><stop offset="0" style="stop-color:rgb(46,55,72);stop-opacity:1"/><stop offset="1" style="stop-color:rgb(3,8,18);stop-opacity:1"/></radialGradient>
    </defs>
</svg>
