<?xml version="1.0" encoding="UTF-8" standalone="no"?>
<!DOCTYPE svg PUBLIC "-//W3C//DTD SVG 1.1//EN" "http://www.w3.org/Graphics/SVG/1.1/DTD/svg11.dtd">
<svg width="100%" height="100%" viewBox="0 0 53 50" version="1.1" xmlns="http://www.w3.org/2000/svg" xmlns:xlink="http://www.w3.org/1999/xlink" xml:space="preserve" xmlns:serif="http://www.serif.com/" style="fill-rule:evenodd;clip-rule:evenodd;stroke-linecap:round;stroke-linejoin:round;stroke-miterlimit:1.5;">
    <g transform="matrix(1,0,0,1,-1390,-61)">
        <g id="Plan-de-travail5" serif:id="Plan de travail5" transform="matrix(1.60606,0,0,1.50938,-844.03,54.9625)">
            <rect x="1391" y="4" width="33" height="33" style="fill:none;"/>
            <clipPath id="_clip1">
                <rect x="1391" y="4" width="33" height="33"/>
            </clipPath>
            <g clip-path="url(#_clip1)">
                <g transform="matrix(1.00284,0,0,1.28472,183.753,-30.3303)">
                    <g transform="matrix(-0.28624,0,0,0.593835,3579.68,-1008.04)">
                        <g>
                            <g transform="matrix(0.694447,0,0,0.694447,2574.26,518.211)">
                                <g transform="matrix(1,0,0,0.40036,-71.2148,664.621)">
                                    <rect x="8151" y="2805" width="77.27" height="41" style="fill:rgb(45,55,72);"/>
                                </g>
                                <g transform="matrix(-0.190632,0,0,0.40036,9725.63,664.621)">
                                    <path d="M8228.27,2805L8151,2802L8151,2843L8228.27,2846L8228.27,2805Z" style="fill:rgb(31,38,50);"/>
                                </g>
                                <g transform="matrix(-0.190632,0,0,0.40036,9725.63,664.621)">
                                    <path d="M8228.27,2805L8151,2802L8556.34,2802L8633.6,2805L8228.27,2805Z" style="fill:rgb(67,80,103);"/>
                                </g>
                                <g transform="matrix(0.857642,0,0,0.0797137,1094.65,1565.97)">
                                    <rect x="8151" y="2805" width="77.27" height="41" style="fill:rgb(247,250,252);"/>
                                </g>
                                <g transform="matrix(1,0,0,0.40036,-71.2148,655.013)">
                                    <path d="M8201.64,2844L8222.77,2844L8222.77,2864.16L8156.5,2864.16L8156.5,2844L8177.64,2844C8177.64,2845.66 8183.01,2847 8189.64,2847C8196.26,2847 8201.64,2845.66 8201.64,2844Z" style="fill:rgb(87,111,150);"/>
                                </g>
                                <g transform="matrix(1,0,0,0.308859,-71.2148,937.538)">
                                    <rect x="8151" y="2805" width="77.27" height="41" style="fill:rgb(45,55,72);"/>
                                </g>
                                <g transform="matrix(-0.190632,0,0,0.40036,9725.63,680.878)">
                                    <path d="M8228.27,2805L8151,2802L8151,2833.63L8228.27,2836.63L8228.27,2805Z" style="fill:rgb(31,38,50);"/>
                                </g>
                                <g transform="matrix(0.857642,0,0,0.0797137,1094.65,1582.23)">
                                    <rect x="8151" y="2805" width="77.27" height="41" style="fill:rgb(247,250,252);"/>
                                </g>
                                <g transform="matrix(1,0,0,0.40036,-71.2148,667.518)">
                                    <path d="M8201.64,2853.37L8222.77,2853.37L8222.77,2864.16L8156.5,2864.16L8156.5,2853.37L8177.64,2853.37C8177.64,2855.03 8183.01,2856.37 8189.64,2856.37C8196.26,2856.37 8201.64,2855.03 8201.64,2853.37Z" style="fill:rgb(87,111,150);"/>
                                </g>
                            </g>
                        </g>
                    </g>
                    <g transform="matrix(0.302493,0,0,0.350385,328.776,-43.8706)">
                        <g transform="matrix(0.63037,0,0,0.452012,15.6144,103.69)">
                            <path d="M4648.02,292.254C4647.68,290.836 4646.67,289.209 4647,288C4647.33,286.791 4648.61,285.261 4650,285C4652.67,284.5 4658.67,284.84 4663,285C4667.5,285.167 4673.67,285.167 4677,286C4679.33,286.583 4681.93,287.85 4683,290C4684.33,292.667 4684.87,297.947 4685,302C4685.17,307.333 4684.5,317.5 4684,322C4683.73,324.412 4683.11,330 4683.11,330L4670.52,331C4670.52,331 4655.16,312.291 4650,306C4647.06,302.422 4648.68,296.836 4648.02,292.254" style="fill:rgb(134,41,41);"/>
                        </g>
                        <g transform="matrix(0.63037,0,0,0.452012,15.6144,103.69)">
                            <path d="M4646,290C4646,290 4659.33,289.667 4664,290C4668.37,290.312 4674.47,293.419 4675,295C4675.83,297.5 4681.33,324.98 4681,329.146C4680.79,331.825 4676.67,329.675 4674,330C4667.17,330.833 4640,327 4640,327L4646,290Z" style="fill:rgb(170,58,58);"/>
                        </g>
                        <g transform="matrix(0.63037,0,0,0.452012,15.6144,103.69)">
                            <path d="M4604,326L4608,335L4676,330L4676,314L4604,326Z" style="fill:rgb(129,42,42);"/>
                        </g>
                        <g transform="matrix(0.63037,0,0,0.452012,15.6144,103.69)">
                            <path d="M4567.85,290.455C4567.85,290.455 4573.5,262.5 4575,257C4575.37,255.636 4576.73,254.613 4578,254C4586.07,250.118 4615.93,247.41 4625,250C4627.5,250.715 4629.49,252.882 4631,255C4635.17,260.833 4650,285 4650,285L4648,289L4648,305L4598,312L4567.85,290.455Z" style="fill:rgb(134,41,41);"/>
                        </g>
                        <g transform="matrix(0.63037,0,0,0.452012,14.984,103.238)">
                            <path d="M4603,311.3C4604.66,307.967 4610.79,307.589 4615,307C4622.5,305.95 4639.67,304.833 4648,305C4653.75,305.115 4660.17,306.333 4665,308C4669.38,309.51 4676.17,312.833 4677,315C4677.83,317.167 4675.97,320.198 4673,321C4666.83,322.667 4661.05,324.073 4651,325C4640.17,326 4611.17,329.283 4605,327C4600.05,325.168 4601.33,314.634 4603,311.3Z" style="fill:rgb(185,71,71);"/>
                        </g>
                        <g transform="matrix(0.625159,0,0,0.539939,2629.33,18.723)">
                            <g transform="matrix(0.0859746,0,0,0.0799138,425.734,204.982)">
                                <path d="M976,2519C976,2394.82 863.126,2294 724.097,2294L549.903,2294C410.874,2294 298,2394.82 298,2519C298,2643.18 410.874,2744 549.903,2744L724.097,2744C863.126,2744 976,2643.18 976,2519Z" style="fill:url(#_Radial2);"/>
                            </g>
                            <g transform="matrix(0.0273564,0,0,0.0227122,490.221,407.477)">
                                <g transform="matrix(1,0,0,1,-512,-512)">
                                    <g>
                                        <path d="M492,242C492,214.404 469.596,192 442,192L242,192C214.404,192 192,214.404 192,242L192,442C192,469.596 214.404,492 242,492L442,492C469.596,492 492,469.596 492,442L492,242Z" style="fill:rgb(34,84,61);"/>
                                    </g>
                                    <g>
                                        <path d="M832,242C832,214.404 809.596,192 782,192L582,192C554.404,192 532,214.404 532,242L532,442C532,469.596 554.404,492 582,492L782,492C809.596,492 832,469.596 832,442L832,242Z" style="fill:rgb(47,133,90);"/>
                                    </g>
                                    <g>
                                        <path d="M492,582C492,554.404 469.596,532 442,532L242,532C214.404,532 192,554.404 192,582L192,782C192,809.596 214.404,832 242,832L442,832C469.596,832 492,809.596 492,782L492,582Z" style="fill:rgb(72,187,120);"/>
                                    </g>
                                    <g>
                                        <path d="M832,582C832,554.404 809.596,532 782,532L582,532C554.404,532 532,554.404 532,582L532,782C532,809.596 554.404,832 582,832L782,832C809.596,832 832,809.596 832,782L832,582Z" style="fill:rgb(226,232,240);"/>
                                    </g>
                                </g>
                            </g>
                            <g transform="matrix(0.124938,0,0,0.106691,400.771,93.294)">
                                <path d="M976,2519C976,2394.82 872.301,2294 744.573,2294L529.427,2294C401.699,2294 298,2394.82 298,2519C298,2643.18 401.699,2744 529.427,2744L744.573,2744C872.301,2744 976,2643.18 976,2519Z" style="fill:url(#_Radial3);"/>
                            </g>
                            <g transform="matrix(0.0879947,0,0,0.0695546,429.53,190.448)">
                                <path d="M976,2519C976,2325.8 824.493,2267.77 640.604,2267.77C432.705,2267.77 298,2321.66 298,2519C298,2698.4 448.268,2759.18 638.094,2759.18C857.658,2759.18 976,2720.48 976,2519Z" style="fill:url(#_Radial4);"/>
                            </g>
                            <g transform="matrix(0.109051,0,0,0.111352,420.017,81.5343)">
                                <ellipse cx="527" cy="2564" rx="53" ry="64" style="fill:rgb(249,249,249);"/>
                            </g>
                            <g transform="matrix(0.109051,0,0,0.111352,445.774,81.6456)">
                                <ellipse cx="527" cy="2564" rx="53" ry="64" style="fill:rgb(249,249,249);"/>
                            </g>
                            <g transform="matrix(0.41416,5.04284e-18,-2.01667e-17,0.168832,223.503,348.25)">
                                <path d="M620.228,233.978C621.049,233.978 645.807,233.749 656.435,242.158C665.892,249.64 577.287,249.915 583.144,244.774C595.117,234.266 609.518,233.978 620.228,233.978Z" style="fill:rgb(208,208,208);"/>
                            </g>
                            <g transform="matrix(0.41416,5.04284e-18,-2.01667e-17,0.168832,223.503,348.25)">
                                <path d="M620.228,233.978C620.959,233.978 640.657,233.797 652.472,239.688C660.64,244.993 579.353,246.165 588.005,241.12C598.86,234.195 610.934,233.978 620.228,233.978Z" style="fill:rgb(164,164,164);"/>
                            </g>
                            <g transform="matrix(0.234435,4.04641e-18,-1.14154e-17,0.135472,334.969,356.401)">
                                <path d="M619.814,235.014C637.085,235.014 640.997,237.291 652.812,243.183C642.033,244.249 595.437,244.698 585.15,243.826C596.004,236.901 605.474,235.014 619.814,235.014Z" style="fill:rgb(14,14,14);"/>
                            </g>
                            <g transform="matrix(0.31599,-0.0044478,0.00824131,0.340632,283.754,323.431)">
                                <path d="M577.326,191.844C556.628,188.147 671.716,190.445 650.905,192.923C639.676,194.26 626.877,194.957 613.278,194.957C600.038,194.957 587.847,193.723 577.326,191.844Z" style="fill:rgb(208,208,208);"/>
                            </g>
                            <g transform="matrix(0.31599,-0.0044478,0.00824131,0.340632,283.754,323.431)">
                                <path d="M586.47,193.248C560.872,189.936 667.054,191.756 641.577,193.857C632.775,194.583 623.241,194.957 613.278,194.957C603.717,194.957 594.703,194.314 586.47,193.248Z" style="fill:rgb(164,164,164);"/>
                            </g>
                            <g transform="matrix(0.31599,-0.0044478,0.00824131,0.340632,283.754,323.431)">
                                <path d="M613.278,194.957C605.44,194.957 591.065,192.512 593.293,191.633C593.563,191.619 596.193,191.585 598.476,191.569C608.055,191.502 619.819,191.707 629.542,192.045C632.277,192.14 635.292,192.229 634.909,192.231C635.991,193.099 621.163,194.957 613.278,194.957Z" style="fill:rgb(9,9,9);"/>
                            </g>
                            <g transform="matrix(0.132548,0,0,0.0555925,349.848,-51.3914)">
                                <path d="M1003.9,7910.87L1003.55,7916.01C989.795,7928.37 976.857,7926.94 964.51,7916.01L964.54,7871.3C974.975,7871.63 990.477,7871.98 1003.55,7872.4L1003.76,7897.59L1010.43,7890.54L1010.45,7872.54C1011.97,7872.37 1018.82,7872.6 1020.28,7872.64L1020.13,7890.51L1003.9,7910.87Z" style="fill:rgb(23,23,23);"/>
                            </g>
                        </g>
                        <g transform="matrix(0.95153,0,0,0.95153,191.184,20.2156)">
                            <g transform="matrix(0.63037,0,0,0.147395,349.08,181.093)">
                                <path d="M4050,370.092C4050,368.533 4048.73,367.267 4047.18,367.267L3990,365.133C3989.91,367.61 3990,369.466 3990,371.025C3990,371.025 4006.27,401 4007.83,401L4061.18,387.8C4062.73,387.8 4064,377.334 4064,375.775L4050,370.092Z" style="fill:rgb(231,231,231);"/>
                            </g>
                            <g transform="matrix(0.63037,0,0,0.147395,349.08,179.737)">
                                <path d="M4050,370.092C4050,368.533 4048.73,367.267 4047.18,367.267L3992.83,371.267C3991.27,371.267 3990,372.774 3990,374.333C3990,374.333 4006.27,401 4007.83,401L4061.18,387.8C4062.73,387.8 4064,386.534 4064,384.975L4050,370.092Z" style="fill:rgb(220,220,220);"/>
                            </g>
                            <g transform="matrix(0.545185,0,0,0.114077,694.642,192.645)">
                                <path d="M4050,370.092C4050,368.533 4048.73,367.267 4047.18,367.267L3992.83,371.267C3991.27,371.267 3990,372.774 3990,374.333C3990,374.333 4006.27,401 4007.83,401L4061.18,387.8C4062.73,387.8 4064,386.534 4064,384.975L4050,370.092Z" style="fill:rgb(115,115,115);"/>
                            </g>
                            <g transform="matrix(0.0990483,0,0,0.0710234,2825.89,16.0984)">
                                <circle cx="471.5" cy="3039.5" r="32.5" style="fill:url(#_Radial5);"/>
                            </g>
                            <g transform="matrix(0.0990483,0,0,0.0710234,2841.24,14.8783)">
                                <circle cx="471.5" cy="3039.5" r="32.5" style="fill:url(#_Radial6);"/>
                            </g>
                            <g transform="matrix(0.63037,0,0,0.452012,349.08,57.5851)">
                                <path d="M4065,357.825C4065,356.266 4063.73,355 4062.18,355L4007.83,359C4006.27,359 4005,360.266 4005,361.825L4005,398.175C4005,399.734 4006.27,401 4007.83,401L4062.18,397C4063.73,397 4065,395.734 4065,394.175L4065,357.825Z" style="fill:rgb(233,233,233);"/>
                            </g>
                            <g transform="matrix(0.0788522,-0.00240412,0.00336314,0.0567169,2430.71,-779.393)">
                                <g transform="matrix(0.248402,0,0,0.247634,5049.96,17923)">
                                    <path d="M275.253,168.794L278.106,49L188.256,290.014L344.423,181.629L430.708,267.196L342.284,328.519L318.039,308.553L302.351,363.459L340.145,394.12L512,275.04L351.554,113.175L275.253,168.794Z" style="fill:rgb(76,81,191);fill-rule:nonzero;"/>
                                </g>
                                <g transform="matrix(0.248402,0,0,0.247634,5049.96,17923)">
                                    <path d="M170.429,118.88L215.354,155.959L195.387,205.873L167.577,184.481L79.866,245.091L166.15,331.371L316.613,230.117L254.574,464L242.451,342.78L159.733,398.399L0,237.96L170.429,118.88Z" style="fill:rgb(45,55,72);fill-rule:nonzero;"/>
                                </g>
                            </g>
                        </g>
                        <g transform="matrix(0.63037,0,0,0.452012,15.6144,103.69)">
                            <path d="M4567,296C4567,296 4566.91,288.663 4570,288C4574.67,287 4591.37,289.88 4595,292C4604.28,297.415 4613,334 4613,334L4600,336L4585,297L4567,296Z" style="fill:rgb(170,58,58);"/>
                        </g>
                        <g transform="matrix(0.63037,0,0,0.452012,15.6144,103.69)">
                            <path d="M4567,296L4575,328L4600,336L4585,297L4567,296Z" style="fill:rgb(134,41,41);"/>
                        </g>
                        <g transform="matrix(0.63037,0,0,0.452012,15.6144,103.69)">
                            <path d="M4567,296L4575,328L4600,336L4585,297L4567,296L4600,336" style="fill:none;stroke:rgb(29,39,60);stroke-width:2.12px;"/>
                        </g>
                        <g transform="matrix(0.63037,0,0,0.452012,15.6144,103.69)">
                            <path d="M4600,336L4596,378L4567,364L4575,328" style="fill:none;stroke:rgb(29,39,60);stroke-width:2.12px;"/>
                        </g>
                        <g transform="matrix(0.63037,0,0,0.452012,15.6144,103.69)">
                            <path d="M4600,336L4681,330L4683,369L4641,358L4643.6,332.77" style="fill:none;stroke:rgb(29,39,60);stroke-width:2.12px;"/>
                        </g>
                    </g>
                    <g transform="matrix(0.193363,0,0,0.223978,601.504,7.79292)">
                        <g transform="matrix(0.63037,0,0,0.04381,296.12,96.0144)">
                            <rect x="4695" y="197" width="2" height="125" style="fill:rgb(51,61,76);"/>
                        </g>
                        <g transform="matrix(0.63037,0,0,0.452012,296.12,15.5985)">
                            <path d="M4714,156C4701.22,152.719 4689.21,152.647 4678,156L4670,197C4687.16,201.999 4704.18,202.322 4721,197L4714,156Z" style="fill:rgb(230,209,109);"/>
                        </g>
                        <g transform="matrix(0.63037,0,0,0.452012,231.822,16)">
                            <path d="M4795.9,152.64C4797.74,152.599 4799.6,152.638 4801.47,152.755L4803.98,199.769C4800.63,200.011 4797.27,200.046 4793.9,199.882L4795.9,152.64ZM4792.89,152.778L4790.9,199.684C4788.11,199.451 4785.31,199.083 4782.51,198.583L4788.02,153.316C4789.62,153.071 4791.25,152.892 4792.89,152.778ZM4804.49,153.008C4805.93,153.16 4807.38,153.357 4808.84,153.598L4814.3,198.363C4811.86,198.855 4809.42,199.232 4806.97,199.499L4804.49,153.008ZM4784.93,153.869L4779.55,198.009C4777.04,197.48 4774.52,196.846 4772,196.112L4780,155.112C4781.62,154.626 4783.27,154.211 4784.93,153.869ZM4811.94,154.171C4813.28,154.448 4814.64,154.762 4816,155.112L4823,196.112C4821.08,196.718 4819.16,197.252 4817.24,197.713L4811.94,154.171Z" style="fill:rgb(234,229,159);"/>
                        </g>
                        <g transform="matrix(0.741611,0,0,0.452012,-227.384,-35.4268)">
                            <path d="M4703.45,319L4691.55,319L4689,362C4694.4,364.085 4700.06,364.164 4706,362L4703.45,319Z" style="fill:rgb(226,175,103);"/>
                        </g>
                    </g>
                </g>
            </g>
        </g>
    </g>
    <defs>
        <radialGradient id="_Radial2" cx="0" cy="0" r="1" gradientUnits="userSpaceOnUse" gradientTransform="matrix(707.041,-35.1045,28.918,464.674,600.736,2514.52)"><stop offset="0" style="stop-color:white;stop-opacity:1"/><stop offset="1" style="stop-color:rgb(212,212,212);stop-opacity:1"/></radialGradient>
        <radialGradient id="_Radial3" cx="0" cy="0" r="1" gradientUnits="userSpaceOnUse" gradientTransform="matrix(710.438,-4.87829,-3.30563,790.988,606.227,2523.81)"><stop offset="0" style="stop-color:rgb(252,252,252);stop-opacity:1"/><stop offset="1" style="stop-color:rgb(212,212,212);stop-opacity:1"/></radialGradient>
        <radialGradient id="_Radial4" cx="0" cy="0" r="1" gradientUnits="userSpaceOnUse" gradientTransform="matrix(519.759,-2.76074,1.55663,376.88,643.695,2510.72)"><stop offset="0" style="stop-color:rgb(46,55,72);stop-opacity:1"/><stop offset="1" style="stop-color:rgb(3,8,18);stop-opacity:1"/></radialGradient>
        <radialGradient id="_Radial5" cx="0" cy="0" r="1" gradientUnits="userSpaceOnUse" gradientTransform="matrix(32.5,0,0,32.1813,473,3023)"><stop offset="0" style="stop-color:rgb(46,55,72);stop-opacity:1"/><stop offset="1" style="stop-color:rgb(3,8,18);stop-opacity:1"/></radialGradient>
        <radialGradient id="_Radial6" cx="0" cy="0" r="1" gradientUnits="userSpaceOnUse" gradientTransform="matrix(32.5,0,0,32.1813,469,3019)"><stop offset="0" style="stop-color:rgb(46,55,72);stop-opacity:1"/><stop offset="1" style="stop-color:rgb(3,8,18);stop-opacity:1"/></radialGradient>
    </defs>
</svg>
