<?xml version="1.0" encoding="UTF-8" standalone="no"?>
<!DOCTYPE svg PUBLIC "-//W3C//DTD SVG 1.1//EN" "http://www.w3.org/Graphics/SVG/1.1/DTD/svg11.dtd">
<svg width="100%" height="100%" viewBox="0 0 56 71" version="1.1" xmlns="http://www.w3.org/2000/svg" xmlns:xlink="http://www.w3.org/1999/xlink" xml:space="preserve" xmlns:serif="http://www.serif.com/" style="fill-rule:evenodd;clip-rule:evenodd;stroke-linejoin:round;stroke-miterlimit:2;">
    <g transform="matrix(1,0,0,1,-2433,-188)">
        <g id="Plan-de-travail3" serif:id="Plan de travail3" transform="matrix(0.36129,0,0,0.546154,1555.06,188)">
            <rect x="2430" y="0" width="155" height="130" style="fill:none;"/>
            <clipPath id="_clip1">
                <rect x="2430" y="0" width="155" height="130"/>
            </clipPath>
            <g clip-path="url(#_clip1)">
                <g transform="matrix(1.7228,0,0,1.3727,1685.02,-462.628)">
                    <g transform="matrix(0.143573,0,0,0.119199,395.792,62.0965)">
                        <circle cx="471.5" cy="3039.5" r="32.5" style="fill:url(#_Radial2);"/>
                    </g>
                    <g transform="matrix(0.143573,0,0,0.119199,430.824,61.9773)">
                        <circle cx="471.5" cy="3039.5" r="32.5" style="fill:url(#_Radial3);"/>
                    </g>
                    <g transform="matrix(0.0859746,0,0,0.0799138,425.734,204.982)">
                        <path d="M976,2519C976,2394.82 863.126,2294 724.097,2294L549.903,2294C410.874,2294 298,2394.82 298,2519C298,2643.18 410.874,2744 549.903,2744L724.097,2744C863.126,2744 976,2643.18 976,2519Z" style="fill:url(#_Radial4);"/>
                    </g>
                    <g transform="matrix(0.0487925,0,0,0.0405092,467.578,396.904)">
                        <path d="M275.253,168.794L278.106,49L188.256,290.014L344.423,181.629L430.708,267.196L342.284,328.519L318.039,308.553L302.351,363.459L340.145,394.12L512,275.04L351.554,113.175L275.253,168.794Z" style="fill:rgb(76,81,191);fill-rule:nonzero;"/>
                        <path d="M170.429,118.88L215.354,155.959L195.387,205.873L167.577,184.481L79.866,245.091L166.15,331.371L316.613,230.117L254.574,464L242.451,342.78L159.733,398.399L0,237.96L170.429,118.88Z" style="fill:rgb(45,55,72);fill-rule:nonzero;"/>
                    </g>
                    <g transform="matrix(0.124938,0,0,0.106691,400.771,93.294)">
                        <path d="M976,2519C976,2394.82 872.301,2294 744.573,2294L529.427,2294C401.699,2294 298,2394.82 298,2519C298,2643.18 401.699,2744 529.427,2744L744.573,2744C872.301,2744 976,2643.18 976,2519Z" style="fill:url(#_Radial5);"/>
                    </g>
                    <g transform="matrix(0.103411,0,0,0.0695546,414.484,190.448)">
                        <path d="M976,2519C976,2325.8 824.493,2267.77 640.604,2267.77C432.705,2267.77 298,2321.66 298,2519C298,2698.4 448.268,2759.18 638.094,2759.18C857.658,2759.18 976,2720.48 976,2519Z" style="fill:url(#_Radial6);"/>
                    </g>
                    <g transform="matrix(0.0213559,0,0,0.0213559,448.569,359.187)">
                        <g transform="matrix(5.62133,0,0,5.3194,-2137.2,-13307.7)">
                            <ellipse cx="527" cy="2564" rx="53" ry="64" style="fill:rgb(249,249,249);"/>
                        </g>
                        <g transform="matrix(5.62133,0,0,5.3194,-689.197,-13302.3)">
                            <ellipse cx="527" cy="2564" rx="53" ry="64" style="fill:rgb(249,249,249);"/>
                        </g>
                    </g>
                    <g transform="matrix(0.41416,5.04284e-18,-2.01667e-17,0.168832,223.503,348.25)">
                        <path d="M620.228,233.978C621.049,233.978 645.807,233.749 656.435,242.158C665.892,249.64 577.287,249.915 583.144,244.774C595.117,234.266 609.518,233.978 620.228,233.978Z" style="fill:rgb(208,208,208);"/>
                    </g>
                    <g transform="matrix(0.41416,5.04284e-18,-2.01667e-17,0.168832,223.503,348.25)">
                        <path d="M620.228,233.978C620.959,233.978 640.657,233.797 652.472,239.688C660.64,244.993 579.353,246.165 588.005,241.12C598.86,234.195 610.934,233.978 620.228,233.978Z" style="fill:rgb(164,164,164);"/>
                    </g>
                    <g transform="matrix(0.234435,4.04641e-18,-1.14154e-17,0.135472,334.969,356.401)">
                        <path d="M619.814,235.014C637.085,235.014 640.997,237.291 652.812,243.183C642.033,244.249 595.437,244.698 585.15,243.826C596.004,236.901 605.474,235.014 619.814,235.014Z" style="fill:rgb(14,14,14);"/>
                    </g>
                    <g transform="matrix(0.31599,-0.0044478,0.00824131,0.340632,283.754,323.431)">
                        <path d="M577.326,191.844C556.628,188.147 671.716,190.445 650.905,192.923C639.676,194.26 626.877,194.957 613.278,194.957C600.038,194.957 587.847,193.723 577.326,191.844Z" style="fill:rgb(208,208,208);"/>
                    </g>
                    <g transform="matrix(0.31599,-0.0044478,0.00824131,0.340632,283.754,323.431)">
                        <path d="M586.47,193.248C560.872,189.936 667.054,191.756 641.577,193.857C632.775,194.583 623.241,194.957 613.278,194.957C603.717,194.957 594.703,194.314 586.47,193.248Z" style="fill:rgb(164,164,164);"/>
                    </g>
                    <g transform="matrix(0.31599,-0.0044478,0.00824131,0.340632,283.754,323.431)">
                        <path d="M613.278,194.957C605.44,194.957 591.065,192.512 593.293,191.633C593.563,191.619 596.193,191.585 598.476,191.569C608.055,191.502 619.819,191.707 629.542,192.045C632.277,192.14 635.292,192.229 634.909,192.231C635.991,193.099 621.163,194.957 613.278,194.957Z" style="fill:rgb(9,9,9);"/>
                    </g>
                    <g transform="matrix(0.132548,0,0,0.0555925,349.848,-51.3914)">
                        <path d="M1003.9,7910.87L1003.55,7916.01C989.795,7928.37 976.857,7926.94 964.51,7916.01L964.54,7871.3C974.975,7871.63 990.477,7871.98 1003.55,7872.4L1003.76,7897.59L1010.43,7890.54L1010.45,7872.54C1011.97,7872.37 1018.82,7872.6 1020.28,7872.64L1020.13,7890.51L1003.9,7910.87Z" style="fill:rgb(23,23,23);"/>
                    </g>
                </g>
                <g transform="matrix(0.0647498,0,0,0.0432958,-1323.55,-1085.62)">
                    <g transform="matrix(1.05898,0,0,1.04766,-3300.23,-1203.02)">
                        <path d="M58707.2,27189.9C58707.2,27141.1 58667.6,27101.5 58618.8,27101.5L58257.6,27101.5C58208.8,27101.5 58169.2,27141.1 58169.2,27189.9L58169.2,27366.7C58169.2,27415.5 58208.8,27455.1 58257.6,27455.1L58618.8,27455.1C58667.6,27455.1 58707.2,27415.5 58707.2,27366.7L58707.2,27189.9ZM58648.2,27212.5C58648.2,27176.1 58618.7,27146.6 58582.4,27146.6L58294,27146.6C58257.7,27146.6 58228.2,27176.1 58228.2,27212.5L58228.2,27344.1C58228.2,27380.4 58257.7,27409.9 58294,27409.9L58582.4,27409.9C58618.7,27409.9 58648.2,27380.4 58648.2,27344.1L58648.2,27212.5Z" style="fill:rgb(19,19,19);"/>
                    </g>
                    <g transform="matrix(1.05898,0,0,1.04766,-3330.23,-1252.09)">
                        <path d="M58987.2,27345C58987.2,27283.1 58937,27232.9 58875.1,27232.9L58058,27232.9C57996.1,27232.9 57945.8,27283.1 57945.8,27345L57945.8,27851.8C57945.8,27913.7 57996.1,27963.9 58058,27963.9L58875.1,27963.9C58937,27963.9 58987.2,27913.7 58987.2,27851.8L58987.2,27345Z" style="fill:rgb(28,28,28);"/>
                    </g>
                    <g transform="matrix(1.09253,0,0,0.475109,-5292.28,14340.1)">
                        <path d="M58987.2,27345C58987.2,27283.1 58968.6,27232.9 58945.7,27232.9L57987.4,27232.9C57964.4,27232.9 57945.8,27283.1 57945.8,27345L57945.8,27851.8C57945.8,27913.7 57951.1,27920.5 57987.4,27963.9C58175.9,28189.7 58713.3,28196.4 58945.7,27963.9C58977,27932.6 58987.2,27913.7 58987.2,27851.8L58987.2,27345Z" style="fill:rgb(19,19,19);"/>
                    </g>
                    <g transform="matrix(5.08663e-17,0.821833,-1.17984,7.14722e-17,91053.4,-20459.2)">
                        <g transform="matrix(0.639721,0,0,0.632886,21180.8,10108.6)">
                            <path d="M58585.3,27820.4C58585.3,27806.2 58569,27794.6 58548.9,27794.6L58388.2,27794.6C58368.1,27794.6 58351.8,27806.2 58351.8,27820.4L58351.8,27872.2C58351.8,27886.4 58368.1,27898 58388.2,27898L58548.9,27898C58569,27898 58585.3,27886.4 58585.3,27872.2L58585.3,27820.4Z" style="fill:rgb(42,42,42);"/>
                        </g>
                        <g transform="matrix(0.639721,0,0,0.632886,21210.5,10115.6)">
                            <path d="M58539,27809.4C58539,27795.1 58527.4,27783.5 58513.1,27783.5L58331.4,27783.5C58317.1,27783.5 58305.5,27795.1 58305.5,27809.4L58305.5,27861.1C58305.5,27875.4 58317.1,27887 58331.4,27887L58513.1,27887C58527.4,27887 58539,27875.4 58539,27861.1L58539,27809.4ZM58523.8,27816.1C58523.8,27805.5 58515.2,27796.9 58504.7,27796.9L58339.8,27796.9C58329.2,27796.9 58320.6,27805.5 58320.6,27816.1L58320.6,27854.5C58320.6,27865.1 58329.2,27873.7 58339.8,27873.7L58504.7,27873.7C58515.2,27873.7 58523.8,27865.1 58523.8,27854.5L58523.8,27816.1Z" style="fill:white;"/>
                        </g>
                    </g>
                    <g transform="matrix(5.08663e-17,0.821833,-1.17984,7.14722e-17,91560.6,-20459.2)">
                        <g transform="matrix(0.639721,0,0,0.632886,21180.8,10108.6)">
                            <path d="M58585.3,27820.4C58585.3,27806.2 58569,27794.6 58548.9,27794.6L58388.2,27794.6C58368.1,27794.6 58351.8,27806.2 58351.8,27820.4L58351.8,27872.2C58351.8,27886.4 58368.1,27898 58388.2,27898L58548.9,27898C58569,27898 58585.3,27886.4 58585.3,27872.2L58585.3,27820.4Z" style="fill:rgb(42,42,42);"/>
                        </g>
                        <g transform="matrix(0.639721,0,0,0.632886,21210.5,10115.6)">
                            <path d="M58539,27809.4C58539,27795.1 58527.4,27783.5 58513.1,27783.5L58331.4,27783.5C58317.1,27783.5 58305.5,27795.1 58305.5,27809.4L58305.5,27861.1C58305.5,27875.4 58317.1,27887 58331.4,27887L58513.1,27887C58527.4,27887 58539,27875.4 58539,27861.1L58539,27809.4ZM58523.8,27816.1C58523.8,27805.5 58515.2,27796.9 58504.7,27796.9L58339.8,27796.9C58329.2,27796.9 58320.6,27805.5 58320.6,27816.1L58320.6,27854.5C58320.6,27865.1 58329.2,27873.7 58339.8,27873.7L58504.7,27873.7C58515.2,27873.7 58523.8,27865.1 58523.8,27854.5L58523.8,27816.1Z" style="fill:white;"/>
                        </g>
                    </g>
                </g>
            </g>
        </g>
    </g>
    <defs>
        <radialGradient id="_Radial2" cx="0" cy="0" r="1" gradientUnits="userSpaceOnUse" gradientTransform="matrix(32.5,0,0,32.1813,473,3023)"><stop offset="0" style="stop-color:rgb(46,55,72);stop-opacity:1"/><stop offset="1" style="stop-color:rgb(3,8,18);stop-opacity:1"/></radialGradient>
        <radialGradient id="_Radial3" cx="0" cy="0" r="1" gradientUnits="userSpaceOnUse" gradientTransform="matrix(32.5,0,0,32.1813,469,3019)"><stop offset="0" style="stop-color:rgb(46,55,72);stop-opacity:1"/><stop offset="1" style="stop-color:rgb(3,8,18);stop-opacity:1"/></radialGradient>
        <radialGradient id="_Radial4" cx="0" cy="0" r="1" gradientUnits="userSpaceOnUse" gradientTransform="matrix(707.041,-35.1045,28.918,464.674,600.736,2514.52)"><stop offset="0" style="stop-color:white;stop-opacity:1"/><stop offset="1" style="stop-color:rgb(212,212,212);stop-opacity:1"/></radialGradient>
        <radialGradient id="_Radial5" cx="0" cy="0" r="1" gradientUnits="userSpaceOnUse" gradientTransform="matrix(710.438,-4.87829,-3.30563,790.988,606.227,2523.81)"><stop offset="0" style="stop-color:rgb(252,252,252);stop-opacity:1"/><stop offset="1" style="stop-color:rgb(212,212,212);stop-opacity:1"/></radialGradient>
        <radialGradient id="_Radial6" cx="0" cy="0" r="1" gradientUnits="userSpaceOnUse" gradientTransform="matrix(519.759,-2.76074,1.55663,376.88,643.695,2510.72)"><stop offset="0" style="stop-color:rgb(46,55,72);stop-opacity:1"/><stop offset="1" style="stop-color:rgb(3,8,18);stop-opacity:1"/></radialGradient>
    </defs>
</svg>
