<?xml version="1.0" encoding="UTF-8" standalone="no"?>
<!DOCTYPE svg PUBLIC "-//W3C//DTD SVG 1.1//EN" "http://www.w3.org/Graphics/SVG/1.1/DTD/svg11.dtd">
<svg width="100%" height="100%" viewBox="0 0 54 69" version="1.1" xmlns="http://www.w3.org/2000/svg" xmlns:xlink="http://www.w3.org/1999/xlink" xml:space="preserve" xmlns:serif="http://www.serif.com/" style="fill-rule:evenodd;clip-rule:evenodd;stroke-linejoin:round;stroke-miterlimit:2;">
    <g transform="matrix(1,0,0,1,-2513,-189)">
        <g id="Plan-de-travail3" serif:id="Plan de travail3" transform="matrix(0.348387,0,0,0.530769,1666.42,189)">
            <rect x="2430" y="0" width="155" height="130" style="fill:none;"/>
            <g transform="matrix(1.78661,0,0,1.41249,1649.29,-477.173)">
                <g transform="matrix(0.143573,0,0,0.119199,395.792,62.0965)">
                    <circle cx="471.5" cy="3039.5" r="32.5" style="fill:url(#_Radial1);"/>
                </g>
                <g transform="matrix(0.143573,0,0,0.119199,430.824,61.9773)">
                    <circle cx="471.5" cy="3039.5" r="32.5" style="fill:url(#_Radial2);"/>
                </g>
                <g transform="matrix(0.0859746,0,0,0.0799138,425.734,204.982)">
                    <path d="M976,2519C976,2394.82 863.126,2294 724.097,2294L549.903,2294C410.874,2294 298,2394.82 298,2519C298,2643.18 410.874,2744 549.903,2744L724.097,2744C863.126,2744 976,2643.18 976,2519Z" style="fill:url(#_Radial3);"/>
                </g>
                <g transform="matrix(0.0487925,0,0,0.0405092,467.578,396.904)">
                    <path d="M275.253,168.794L278.106,49L188.256,290.014L344.423,181.629L430.708,267.196L342.284,328.519L318.039,308.553L302.351,363.459L340.145,394.12L512,275.04L351.554,113.175L275.253,168.794Z" style="fill:rgb(76,81,191);fill-rule:nonzero;"/>
                    <path d="M170.429,118.88L215.354,155.959L195.387,205.873L167.577,184.481L79.866,245.091L166.15,331.371L316.613,230.117L254.574,464L242.451,342.78L159.733,398.399L0,237.96L170.429,118.88Z" style="fill:rgb(45,55,72);fill-rule:nonzero;"/>
                </g>
                <g transform="matrix(0.124938,0,0,0.106691,400.771,93.294)">
                    <path d="M976,2519C976,2394.82 872.301,2294 744.573,2294L529.427,2294C401.699,2294 298,2394.82 298,2519C298,2643.18 401.699,2744 529.427,2744L744.573,2744C872.301,2744 976,2643.18 976,2519Z" style="fill:url(#_Radial4);"/>
                </g>
                <g transform="matrix(0.103411,0,0,0.0695546,414.484,190.448)">
                    <path d="M976,2519C976,2325.8 824.493,2267.77 640.604,2267.77C432.705,2267.77 298,2321.66 298,2519C298,2698.4 448.268,2759.18 638.094,2759.18C857.658,2759.18 976,2720.48 976,2519Z" style="fill:url(#_Radial5);"/>
                </g>
                <g transform="matrix(0.0410661,0,0,0.0383755,162.101,-296.587)">
                    <path d="M7195.17,17312.8C7163.46,17301.4 7323.82,17207.9 7418.07,17207.9C7512.32,17207.9 7650.22,17307.3 7640.97,17312.8C7614.51,17328.5 7496.14,17284.9 7410.38,17284.9C7324.62,17284.9 7202.74,17315.6 7195.17,17312.8Z" style="fill:url(#_Radial6);"/>
                </g>
                <g transform="matrix(-0.0410661,0,0,0.0383755,798.691,-296.587)">
                    <path d="M7195.17,17312.8C7163.46,17301.4 7323.82,17207.9 7418.07,17207.9C7512.32,17207.9 7650.22,17307.3 7640.97,17312.8C7614.51,17328.5 7495.39,17281.3 7409.63,17281.3C7323.87,17281.3 7202.74,17315.6 7195.17,17312.8Z" style="fill:url(#_Radial7);"/>
                </g>
                <g transform="matrix(0.41416,5.04284e-18,-2.01667e-17,0.168832,223.503,348.25)">
                    <path d="M620.228,233.978C621.049,233.978 645.807,233.749 656.435,242.158C665.892,249.64 577.287,249.915 583.144,244.774C595.117,234.266 609.518,233.978 620.228,233.978Z" style="fill:rgb(208,208,208);"/>
                </g>
                <g transform="matrix(0.41416,5.04284e-18,-2.01667e-17,0.168832,223.503,348.25)">
                    <path d="M620.228,233.978C620.959,233.978 640.657,233.797 652.472,239.688C660.64,244.993 579.353,246.165 588.005,241.12C598.86,234.195 610.934,233.978 620.228,233.978Z" style="fill:rgb(164,164,164);"/>
                </g>
                <g transform="matrix(0.234435,4.04641e-18,-1.14154e-17,0.135472,334.969,356.401)">
                    <path d="M619.814,235.014C637.085,235.014 640.997,237.291 652.812,243.183C642.033,244.249 595.437,244.698 585.15,243.826C596.004,236.901 605.474,235.014 619.814,235.014Z" style="fill:rgb(14,14,14);"/>
                </g>
                <g transform="matrix(0.31599,-0.0044478,0.00824131,0.340632,283.754,323.431)">
                    <path d="M577.326,191.844C556.628,188.147 671.716,190.445 650.905,192.923C639.676,194.26 626.877,194.957 613.278,194.957C600.038,194.957 587.847,193.723 577.326,191.844Z" style="fill:rgb(208,208,208);"/>
                </g>
                <g transform="matrix(0.31599,-0.0044478,0.00824131,0.340632,283.754,323.431)">
                    <path d="M586.47,193.248C560.872,189.936 667.054,191.756 641.577,193.857C632.775,194.583 623.241,194.957 613.278,194.957C603.717,194.957 594.703,194.314 586.47,193.248Z" style="fill:rgb(164,164,164);"/>
                </g>
                <g transform="matrix(0.31599,-0.0044478,0.00824131,0.340632,283.754,323.431)">
                    <path d="M613.278,194.957C605.44,194.957 591.065,192.512 593.293,191.633C593.563,191.619 596.193,191.585 598.476,191.569C608.055,191.502 619.819,191.707 629.542,192.045C632.277,192.14 635.292,192.229 634.909,192.231C635.991,193.099 621.163,194.957 613.278,194.957Z" style="fill:rgb(9,9,9);"/>
                </g>
                <g transform="matrix(0.132548,0,0,0.0555925,349.848,-51.3914)">
                    <path d="M1003.9,7910.87L1003.55,7916.01C989.795,7928.37 976.857,7926.94 964.51,7916.01L964.54,7871.3C974.975,7871.63 990.477,7871.98 1003.55,7872.4L1003.76,7897.59L1010.43,7890.54L1010.45,7872.54C1011.97,7872.37 1018.82,7872.6 1020.28,7872.64L1020.13,7890.51L1003.9,7910.87Z" style="fill:rgb(23,23,23);"/>
                </g>
            </g>
            <g transform="matrix(0.267534,0,0,0.0749322,-757.619,-2853.68)">
                <g transform="matrix(0.395041,0.378057,-0.161321,0.925782,12142.1,8337.1)">
                    <g transform="matrix(1,0,0,1,0.916278,0.451269)">
                        <path d="M11546.5,28492.6C11546.5,28488.9 11520.2,28488.9 11520.2,28492.6L11520.2,29064.6C11520.2,29068.2 11523.2,29071.1 11526.8,29071.1L11539.9,29071.1C11543.6,29071.1 11546.5,29068.2 11546.5,29064.6L11546.5,28492.6Z" style="fill:rgb(76,81,191);"/>
                    </g>
                    <g transform="matrix(1.12516,0,0,1,-1444.21,4.72908)">
                        <ellipse cx="11534.8" cy="28487.5" rx="11.644" ry="4.334" style="fill:rgb(61,64,121);"/>
                    </g>
                </g>
                <g transform="matrix(0.282803,0,0,0.584798,8292.47,23993)">
                    <g transform="matrix(1.50886,0,0,1.7713,-4677.15,-18741.1)">
                        <path d="M11729.6,25356.3C11729.6,25356.3 11766.6,25753.4 11776.3,25836.2C11777.1,25843.1 11781,25853.1 11788,25853.4C11830.3,25855.6 11988.4,25851.7 12030.3,25849.2C12035,25849 12039,25843.1 12039.5,25838.5C12048.2,25754.1 12076.1,25358.7 12076.1,25358.7L11729.6,25356.3Z" style="fill:url(#_Linear8);"/>
                    </g>
                    <g transform="matrix(0.935502,0,0,0.935502,858.591,1929.7)">
                        <g transform="matrix(1.50886,0,0,1.70999,-8395.85,-31835.1)">
                            <path d="M14199.9,33985.7C14310.8,34001.8 14423,33996.7 14536.2,33984.9L14534.3,34012.4C14423.5,34022.6 14312.8,34027 14202.4,34013.5L14199.9,33985.7Z" style="fill:rgb(76,81,191);"/>
                        </g>
                        <g transform="matrix(1.48802,0,0,1.68637,-8095.27,-30981.7)">
                            <path d="M14201.1,33998.7C14312,34008.7 14423.5,34007.6 14535.4,33996.7L14534.3,34012.4C14423.5,34022.6 14312.8,34027 14202.4,34013.5L14201.1,33998.7Z" style="fill:rgb(76,81,191);"/>
                        </g>
                    </g>
                    <g transform="matrix(1.44494,6.68477e-17,-6.15939e-17,-1.13999,-3916.41,55076.2)">
                        <path d="M11717.6,25329.8L11713.6,25354C11713.6,25354 11825.8,25359 11881.9,25358.2C11945,25357.3 12091.8,25348.7 12091.8,25348.7L12089.7,25324.5C12089.7,25324.5 11944.8,25331.7 11882.8,25332.6C11827.7,25333.4 11717.6,25329.8 11717.6,25329.8" style="fill:url(#_Linear9);"/>
                    </g>
                    <g transform="matrix(1.50886,6.98045e-17,-6.15939e-17,-1.13999,-4677.15,55057)">
                        <path d="M11717.6,25329.8L11713.6,25354C11713.6,25354 11825.8,25359 11881.9,25358.2C11945,25357.3 12091.8,25348.7 12091.8,25348.7L12089.7,25324.5C12089.7,25324.5 11944.9,25333.6 11882.9,25334.4C11827.7,25335.2 11717.6,25329.8 11717.6,25329.8" style="fill:url(#_Linear10);"/>
                    </g>
                </g>
                <g transform="matrix(0.42671,0,0,1,7121.41,10580.8)">
                    <g transform="matrix(1,0,0,1,0.916278,0.451269)">
                        <path d="M11352.1,28725.9C11354.1,28719.7 11372,28712.4 11377.5,28705.6C11382.1,28699.9 11382.4,28691.7 11385.2,28685.1C11388,28678.6 11388.4,28669.6 11394.5,28665.9C11400.9,28662 11418.8,28664.5 11423.4,28661.9C11426.7,28660 11420.7,28652.2 11421.8,28650.5C11422.9,28648.8 11429.7,28654.1 11430.2,28651.6C11430.7,28649 11421.9,28638.8 11424.8,28635.4C11427.6,28632.1 11442.7,28634.4 11447.2,28631.5C11451.3,28629 11448.6,28621.2 11452.1,28618C11456.3,28614.2 11466.8,28608.7 11472.6,28608.6C11478.1,28608.5 11484.1,28620.3 11486.8,28617.2C11489.5,28614.1 11483.5,28595.6 11488.6,28589.9C11493.6,28584.2 11511.4,28585.8 11517.1,28583.1C11520.2,28581.7 11521.2,28577.5 11522.3,28574.2C11523.9,28569.5 11522.7,28554.1 11526.7,28554.4C11530.7,28554.8 11541.6,28571.8 11546.4,28576.5C11549.1,28579.2 11552,28582.4 11555.8,28583C11561.9,28583.9 11576.2,28580.3 11582.9,28581.9C11588.5,28583.3 11592.4,28589.3 11596,28593C11599.1,28596.2 11601.2,28600.3 11604,28603.8C11607,28607.7 11613.4,28613.1 11614.2,28616.2C11614.9,28619 11606.6,28621.7 11609,28622.9C11611.4,28624 11624.7,28621.2 11628.4,28623.1C11631.9,28624.9 11628.2,28632.4 11631.5,28634.3C11634.7,28636.2 11643.5,28631.5 11648,28634.7C11653.3,28638.6 11657.4,28651.6 11663.5,28657.6C11669.4,28663.4 11679.7,28668.5 11684.5,28670.7C11686.9,28671.8 11690.4,28669 11692.3,28670.7C11694.6,28672.8 11697.9,28680.2 11698.4,28683.5C11698.8,28686.1 11694.9,28688.2 11695.5,28690.8C11696.1,28693.9 11698.3,28700.3 11702.4,28702.1C11708.8,28705 11729.8,28703.9 11734,28707.9C11738.2,28711.9 11729.5,28721.1 11727.5,28725.9C11725.9,28729.8 11726,28736.4 11721.9,28737.2C11691.7,28743 11595.3,28758.6 11546.4,28760.5C11507,28762 11458.9,28751.7 11428.7,28748.8C11407.6,28746.7 11378.1,28746.8 11365.3,28743C11358.4,28740.9 11350,28732.2 11352.1,28725.9Z" style="fill:rgb(242,242,231);"/>
                    </g>
                    <g transform="matrix(1,0,0,1,0.916278,0.451269)">
                        <path d="M11437.3,28670.7C11443.4,28668.8 11448.9,28676.4 11455.2,28677.5C11468,28679.7 11499.4,28681.2 11514.1,28684C11524.3,28685.9 11533.2,28692.5 11543.4,28694.1C11554,28695.7 11568.2,28691.2 11577.5,28693.7C11586.2,28696.1 11594.4,28702.3 11599.6,28709.1C11604.8,28716 11607.4,28727.5 11609,28734.6C11610.2,28740.1 11614.7,28751.3 11609,28751.7C11600.9,28752.1 11571.4,28742.8 11560.5,28737.2C11552.9,28733.3 11550.7,28721.3 11543.4,28718.2C11536.2,28715 11523.1,28715.1 11517.1,28718.3C11511.1,28721.4 11513.9,28734.4 11507.4,28737.2C11500.1,28740.4 11481.4,28743.6 11472.9,28737.2C11464.3,28730.8 11462,28706.7 11456.1,28698.6C11451.9,28692.8 11444.2,28689.9 11437.4,28688.4C11430.6,28686.9 11415.2,28692.6 11415.2,28689.7C11415.2,28686.7 11430.6,28672.7 11437.3,28670.7Z" style="fill:rgb(255,203,124);fill-opacity:0.8;"/>
                    </g>
                    <g transform="matrix(1,0,0,1,0.916278,0.451269)">
                        <path d="M11529.2,28583.7C11530.3,28587.4 11557.4,28600.6 11563,28607.5C11566.7,28612 11567.8,28621.5 11563,28624.9C11558.2,28628.3 11541,28630.1 11534.1,28627.9C11527.8,28625.9 11526.5,28615.9 11522.1,28611.9C11518,28608.2 11510.5,28602.9 11507.6,28603.8C11504.7,28604.7 11503.8,28612.6 11504.6,28617.2C11505.6,28622.9 11506.4,28635.5 11513.5,28638.4C11522.2,28642 11542.8,28639 11557,28638.4C11570.8,28637.9 11586.2,28634 11598.4,28635C11609.2,28635.8 11623,28640.1 11629.6,28643.9C11634.2,28646.5 11636.9,28658.1 11637.9,28657.5C11638.9,28657 11639.4,28644.8 11635.5,28640.5C11631.2,28635.7 11620.5,28630.4 11611.8,28628.6C11602,28626.5 11582.6,28631.9 11576.8,28628C11570.9,28624.2 11579.7,28612.2 11576.5,28605.3C11573.2,28598.3 11564.8,28589.3 11556.9,28585.7C11549,28582.1 11528.2,28580.1 11529.2,28583.7Z" style="fill:rgb(255,203,124);fill-opacity:0.8;"/>
                    </g>
                    <g transform="matrix(1,0,0,1,0.916278,0.451269)">
                        <path d="M11385.1,28711C11386.6,28713.5 11390.2,28720.4 11394.7,28722.8C11400.7,28726 11412.3,28729.3 11421.5,28730.6C11431.1,28732 11448.3,28734.2 11452.3,28731C11456.3,28727.7 11452.1,28714.1 11445.8,28711C11438.8,28707.7 11418.6,28715.7 11410.6,28711C11402.6,28706.4 11401.9,28683.6 11397.7,28683.1C11393.5,28682.5 11387.6,28703.3 11385.5,28707.9C11385.1,28708.9 11384.5,28710.2 11385.1,28711Z" style="fill:rgb(255,203,124);fill-opacity:0.8;"/>
                    </g>
                    <g transform="matrix(1,0,0,1,0.916278,0.451269)">
                        <path d="M11458.1,28632.4C11457.3,28635.7 11453.6,28649.9 11459.2,28654.1C11464.9,28658.3 11481.6,28653.6 11491.8,28657.6C11502.1,28661.6 11513.5,28674.3 11521.2,28678.6C11526.4,28681.4 11532.6,28682.4 11538.5,28683C11545.2,28683.8 11557,28685.1 11561.4,28683C11565.3,28681.2 11568.6,28671.6 11564.6,28670.4C11560.6,28669.2 11545.2,28678.6 11537.4,28675.7C11529.7,28672.9 11525.6,28659.2 11518.2,28653.3C11510.9,28647.5 11500.9,28642.3 11493.1,28640.5C11486.1,28638.8 11476.4,28643.1 11471.5,28642.1C11467.9,28641.3 11466,28635.9 11463.8,28634.3C11462.1,28633.1 11458.5,28630.5 11458.1,28632.4Z" style="fill:rgb(255,203,124);fill-opacity:0.8;"/>
                    </g>
                    <g transform="matrix(1,0,0,1,0.916278,0.451269)">
                        <path d="M11619.8,28732.6C11612.1,28725.8 11601.3,28697 11605.8,28691.5C11610.3,28686.1 11638.2,28694.5 11647,28699.8C11654.6,28704.5 11656.9,28723.6 11659,28723.8C11661.1,28723.9 11659.4,28707.2 11659.5,28700.6C11659.6,28695.2 11661.8,28689.2 11659.5,28684.2C11656.6,28677.8 11642.1,28666.2 11642,28662.6C11641.9,28659 11653.6,28660.9 11659,28662.7C11665.9,28665 11678.5,28670 11683.3,28676.5C11688.1,28683 11684.3,28694.7 11687.8,28701.5C11691.1,28708.2 11705.1,28712 11703.9,28717.2C11702.6,28722.4 11688.9,28730.1 11680.2,28732.6C11671.5,28735.2 11661.2,28732.6 11651.7,28732.6C11641.6,28732.6 11627.4,28739.5 11619.8,28732.6Z" style="fill:rgb(255,203,124);fill-opacity:0.8;"/>
                    </g>
                </g>
                <g transform="matrix(0.42671,0,0,1,7121.8,10581.3)">
                    <path d="M11513.2,28662.4C11512,28661.6 11509.7,28657.8 11510.6,28656.6C11511.5,28655.4 11516.9,28655.8 11518.7,28655.2C11519.9,28654.8 11521.3,28652.9 11521.8,28653C11522.3,28653.2 11521.8,28655.1 11521.8,28656.2C11521.8,28657.5 11522.4,28659.9 11521.8,28660.8C11521.1,28661.7 11519.2,28661.4 11518,28661.6C11516.5,28661.9 11514.4,28663.2 11513.2,28662.4Z" style="fill:rgb(221,162,3);"/>
                </g>
                <g transform="matrix(-0.542744,-0.989671,0.422303,-1.27193,6190.37,87113.3)">
                    <path d="M11513.2,28662.4C11512,28661.6 11509.7,28657.8 11510.6,28656.6C11511.5,28655.4 11516.9,28655.8 11518.7,28655.2C11519.9,28654.8 11521.3,28652.9 11521.8,28653C11522.3,28653.2 11521.8,28655.1 11521.8,28656.2C11521.8,28657.5 11522.4,28659.9 11521.8,28660.8C11521.1,28661.7 11519.2,28661.4 11518,28661.6C11516.5,28661.9 11514.4,28663.2 11513.2,28662.4Z" style="fill:rgb(221,162,3);"/>
                </g>
                <g transform="matrix(-0.384715,-0.701511,0.325087,-0.979126,7232.52,75432.3)">
                    <path d="M11513.2,28662.4C11512,28661.6 11509.7,28657.8 11510.6,28656.6C11511.5,28655.4 11516.9,28655.8 11518.7,28655.2C11519.9,28654.8 11521.3,28652.9 11521.8,28653C11522.3,28653.2 11521.8,28655.1 11521.8,28656.2C11521.8,28657.5 11522.4,28659.9 11521.8,28660.8C11521.1,28661.7 11519.2,28661.4 11518,28661.6C11516.5,28661.9 11514.4,28663.2 11513.2,28662.4Z" style="fill:rgb(221,162,3);"/>
                </g>
                <g transform="matrix(-0.487136,0.0412081,-0.0190963,-1.2398,18259.7,74302.1)">
                    <path d="M11513.2,28662.4C11512,28661.6 11509.7,28657.8 11510.6,28656.6C11511.5,28655.4 11516.9,28655.8 11518.7,28655.2C11519.9,28654.8 11521.3,28652.9 11521.8,28653C11522.3,28653.2 11521.8,28655.1 11521.8,28656.2C11521.8,28657.5 11522.4,28659.9 11521.8,28660.8C11521.1,28661.7 11519.2,28661.4 11518,28661.6C11516.5,28661.9 11514.4,28663.2 11513.2,28662.4Z" style="fill:rgb(221,162,3);"/>
                </g>
                <g transform="matrix(-0.441319,0.0373323,-0.0173002,-1.12319,17668,71004.6)">
                    <path d="M11513.2,28662.4C11512,28661.6 11509.7,28657.8 11510.6,28656.6C11511.5,28655.4 11516.9,28655.8 11518.7,28655.2C11519.9,28654.8 11521.3,28652.9 11521.8,28653C11522.3,28653.2 11521.8,28655.1 11521.8,28656.2C11521.8,28657.5 11522.4,28659.9 11521.8,28660.8C11521.1,28661.7 11519.2,28661.4 11518,28661.6C11516.5,28661.9 11514.4,28663.2 11513.2,28662.4Z" style="fill:rgb(221,162,3);"/>
                </g>
                <g transform="matrix(-0.280612,0.799109,-0.370315,-0.714178,25925.9,50496.8)">
                    <path d="M11513.2,28662.4C11512,28661.6 11509.7,28657.8 11510.6,28656.6C11511.5,28655.4 11516.9,28655.8 11518.7,28655.2C11519.9,28654.8 11521.3,28652.9 11521.8,28653C11522.3,28653.2 11521.8,28655.1 11521.8,28656.2C11521.8,28657.5 11522.4,28659.9 11521.8,28660.8C11521.1,28661.7 11519.2,28661.4 11518,28661.6C11516.5,28661.9 11514.4,28663.2 11513.2,28662.4Z" style="fill:rgb(221,162,3);"/>
                </g>
                <g transform="matrix(0.147319,0.938513,-0.400473,0.345245,21807.3,18537)">
                    <path d="M11513.2,28662.4C11512,28661.6 11509.7,28657.8 11510.6,28656.6C11511.5,28655.4 11516.9,28655.8 11518.7,28655.2C11519.9,28654.8 11521.3,28652.9 11521.8,28653C11522.3,28653.2 11521.8,28655.1 11521.8,28656.2C11521.8,28657.5 11522.4,28659.9 11521.8,28660.8C11521.1,28661.7 11519.2,28661.4 11518,28661.6C11516.5,28661.9 11514.4,28663.2 11513.2,28662.4Z" style="fill:rgb(221,162,3);"/>
                </g>
                <g transform="matrix(0.230677,1.46955,-0.643557,0.554805,27785.6,6435.5)">
                    <path d="M11513.2,28662.4C11512,28661.6 11509.7,28657.8 11510.6,28656.6C11511.5,28655.4 11516.9,28655.8 11518.7,28655.2C11519.9,28654.8 11521.8,28655.1 11521.8,28656.2C11521.8,28657.5 11522.4,28659.9 11521.8,28660.8C11521.1,28661.7 11519.2,28661.4 11518,28661.6C11516.5,28661.9 11514.4,28663.2 11513.2,28662.4Z" style="fill:rgb(221,162,3);"/>
                </g>
                <g transform="matrix(-0.305387,0.970593,-0.42505,-0.734494,27684,49145.5)">
                    <path d="M11513.2,28662.4C11512,28661.6 11509.7,28657.8 11510.6,28656.6C11511.5,28655.4 11516.9,28655.8 11518.7,28655.2C11519.9,28654.8 11521.8,28655.1 11521.8,28656.2C11521.8,28657.5 11522.4,28659.9 11521.8,28660.8C11521.1,28661.7 11519.2,28661.4 11518,28661.6C11516.5,28661.9 11514.4,28663.2 11513.2,28662.4Z" style="fill:rgb(221,162,3);"/>
                </g>
                <g transform="matrix(-0.703077,0.169962,-0.0541882,-1.23109,21636.6,72621.1)">
                    <path d="M11513.2,28662.4C11512,28661.6 11509.7,28657.8 11510.6,28656.6C11511.5,28655.4 11516.9,28655.8 11518.7,28655.2C11519.9,28654.8 11521.8,28655.1 11521.8,28656.2C11521.8,28657.5 11522.4,28659.9 11521.8,28660.8C11521.1,28661.7 11519.2,28661.4 11518,28661.6C11516.5,28661.9 11514.4,28663.2 11513.2,28662.4Z" style="fill:rgb(221,162,3);"/>
                </g>
                <g transform="matrix(-0.66502,-0.561099,0.178893,-1.16446,14501.7,79125.2)">
                    <path d="M11513.2,28662.4C11512,28661.6 11509.7,28657.8 11510.6,28656.6C11511.5,28655.4 11516.9,28655.8 11518.7,28655.2C11519.9,28654.8 11521.8,28655.1 11521.8,28656.2C11521.8,28657.5 11522.4,28659.9 11521.8,28660.8C11521.1,28661.7 11519.2,28661.4 11518,28661.6C11516.5,28661.9 11514.4,28663.2 11513.2,28662.4Z" style="fill:rgb(221,162,3);"/>
                </g>
                <g transform="matrix(-0.266701,-0.225024,0.156062,-1.01585,10626.9,71012.6)">
                    <path d="M11513.2,28662.4C11512,28661.6 11509.7,28657.8 11510.6,28656.6C11511.5,28655.4 11516.9,28655.8 11518.7,28655.2C11519.9,28654.8 11521.8,28655.1 11521.8,28656.2C11521.8,28657.5 11522.4,28659.9 11521.8,28660.8C11521.1,28661.7 11519.2,28661.4 11518,28661.6C11516.5,28661.9 11514.4,28663.2 11513.2,28662.4Z" style="fill:rgb(221,162,3);"/>
                </g>
                <g transform="matrix(-0.637939,-0.53825,0.373296,-2.42987,8706.25,115144)">
                    <path d="M11513.2,28662.4C11512,28661.6 11509.7,28657.8 11510.6,28656.6C11511.5,28655.4 11516.9,28655.8 11518.7,28655.2C11519.9,28654.8 11521.8,28655.1 11521.8,28656.2C11521.8,28657.5 11522.4,28659.9 11521.8,28660.8C11521.1,28661.7 11519.2,28661.4 11518,28661.6C11516.5,28661.9 11514.4,28663.2 11513.2,28662.4Z" style="fill:rgb(221,162,3);"/>
                </g>
                <g transform="matrix(-0.361796,-0.305259,0.211708,-1.37806,10184.8,82313.1)">
                    <path d="M11513.2,28662.4C11512,28661.6 11509.7,28657.8 11510.6,28656.6C11511.5,28655.4 11516.9,28655.8 11518.7,28655.2C11519.9,28654.8 11521.8,28655.1 11521.8,28656.2C11521.8,28657.5 11522.4,28659.9 11521.8,28660.8C11521.1,28661.7 11519.2,28661.4 11518,28661.6C11516.5,28661.9 11514.4,28663.2 11513.2,28662.4Z" style="fill:rgb(221,162,3);"/>
                </g>
                <g transform="matrix(-0.361796,-0.305259,0.211708,-1.37806,10167.8,82286.3)">
                    <path d="M11513.2,28662.4C11512,28661.6 11509.7,28657.8 11510.6,28656.6C11511.5,28655.4 11516.9,28655.8 11518.7,28655.2C11519.9,28654.8 11521.8,28655.1 11521.8,28656.2C11521.8,28657.5 11522.4,28659.9 11521.8,28660.8C11521.1,28661.7 11519.2,28661.4 11518,28661.6C11516.5,28661.9 11514.4,28663.2 11513.2,28662.4Z" style="fill:rgb(221,162,3);"/>
                </g>
                <g transform="matrix(-0.361796,-0.305259,0.211708,-1.37806,10194.5,82229.7)">
                    <path d="M11513.2,28662.4C11512,28661.6 11509.7,28657.8 11510.6,28656.6C11511.5,28655.4 11516.9,28655.8 11518.7,28655.2C11519.9,28654.8 11521.8,28655.1 11521.8,28656.2C11521.8,28657.5 11522.4,28659.9 11521.8,28660.8C11521.1,28661.7 11519.2,28661.4 11518,28661.6C11516.5,28661.9 11514.4,28663.2 11513.2,28662.4Z" style="fill:rgb(221,162,3);"/>
                </g>
                <g transform="matrix(-0.361796,-0.305259,0.211708,-1.37806,10167.8,82177.7)">
                    <path d="M11513.2,28662.4C11512,28661.6 11509.7,28657.8 11510.6,28656.6C11511.5,28655.4 11516.9,28655.8 11518.7,28655.2C11519.9,28654.8 11521.8,28655.1 11521.8,28656.2C11521.8,28657.5 11522.4,28659.9 11521.8,28660.8C11521.1,28661.7 11519.2,28661.4 11518,28661.6C11516.5,28661.9 11514.4,28663.2 11513.2,28662.4Z" style="fill:rgb(221,162,3);"/>
                </g>
                <g transform="matrix(-0.353323,0.355614,-0.246631,-1.34578,23193,73631.9)">
                    <path d="M11513.2,28662.4C11512,28661.6 11509.7,28657.8 11510.6,28656.6C11511.5,28655.4 11516.9,28655.8 11518.7,28655.2C11519.9,28654.8 11521.8,28655.1 11521.8,28656.2C11521.8,28657.5 11522.4,28659.9 11521.8,28660.8C11521.1,28661.7 11519.2,28661.4 11518,28661.6C11516.5,28661.9 11514.4,28663.2 11513.2,28662.4Z" style="fill:rgb(221,162,3);"/>
                </g>
                <g transform="matrix(-0.353323,0.355614,-0.246631,-1.34578,23186.9,73640.7)">
                    <path d="M11513.2,28662.4C11512,28661.6 11509.7,28657.8 11510.6,28656.6C11511.5,28655.4 11516.9,28655.8 11518.7,28655.2C11519.9,28654.8 11521.8,28655.1 11521.8,28656.2C11521.8,28657.5 11522.4,28659.9 11521.8,28660.8C11521.1,28661.7 11519.2,28661.4 11518,28661.6C11516.5,28661.9 11514.4,28663.2 11513.2,28662.4Z" style="fill:rgb(221,162,3);"/>
                </g>
                <g transform="matrix(-0.353323,0.355614,-0.246631,-1.34578,23186.9,73640.7)">
                    <path d="M11513.2,28662.4C11512,28661.6 11509.7,28657.8 11510.6,28656.6C11511.5,28655.4 11516.9,28655.8 11518.7,28655.2C11519.9,28654.8 11521.8,28655.1 11521.8,28656.2C11521.8,28657.5 11522.4,28659.9 11521.8,28660.8C11521.1,28661.7 11519.2,28661.4 11518,28661.6C11516.5,28661.9 11514.4,28663.2 11513.2,28662.4Z" style="fill:rgb(221,162,3);"/>
                </g>
                <g transform="matrix(-0.353323,0.355614,-0.246631,-1.34578,23160.6,73644.4)">
                    <path d="M11513.2,28662.4C11512,28661.6 11509.7,28657.8 11510.6,28656.6C11511.5,28655.4 11516.9,28655.8 11518.7,28655.2C11519.9,28654.8 11521.8,28655.1 11521.8,28656.2C11521.8,28657.5 11522.4,28659.9 11521.8,28660.8C11521.1,28661.7 11519.2,28661.4 11518,28661.6C11516.5,28661.9 11514.4,28663.2 11513.2,28662.4Z" style="fill:rgb(221,162,3);"/>
                </g>
                <g transform="matrix(-0.375521,-0.193924,0.134493,-1.43033,12491.2,82415.4)">
                    <path d="M11513.2,28662.4C11512,28661.6 11509.7,28657.8 11510.6,28656.6C11511.5,28655.4 11516.9,28655.8 11518.7,28655.2C11519.9,28654.8 11521.8,28655.1 11521.8,28656.2C11521.8,28657.5 11522.4,28659.9 11521.8,28660.8C11521.1,28661.7 11519.2,28661.4 11518,28661.6C11516.5,28661.9 11514.4,28663.2 11513.2,28662.4Z" style="fill:rgb(221,162,3);"/>
                </g>
                <g transform="matrix(-0.375521,-0.193924,0.134493,-1.43033,12469.9,82510.6)">
                    <path d="M11513.2,28662.4C11512,28661.6 11509.7,28657.8 11510.6,28656.6C11511.5,28655.4 11516.9,28655.8 11518.7,28655.2C11519.9,28654.8 11521.8,28655.1 11521.8,28656.2C11521.8,28657.5 11522.4,28659.9 11521.8,28660.8C11521.1,28661.7 11519.2,28661.4 11518,28661.6C11516.5,28661.9 11514.4,28663.2 11513.2,28662.4Z" style="fill:rgb(221,162,3);"/>
                </g>
                <g transform="matrix(-0.375521,-0.193924,0.134493,-1.43033,12504.6,82526.6)">
                    <path d="M11513.2,28662.4C11512,28661.6 11509.7,28657.8 11510.6,28656.6C11511.5,28655.4 11516.9,28655.8 11518.7,28655.2C11519.9,28654.8 11521.8,28655.1 11521.8,28656.2C11521.8,28657.5 11522.4,28659.9 11521.8,28660.8C11521.1,28661.7 11519.2,28661.4 11518,28661.6C11516.5,28661.9 11514.4,28663.2 11513.2,28662.4Z" style="fill:rgb(221,162,3);"/>
                </g>
                <g transform="matrix(0.42671,0,0,0.729323,7121.89,18344.3)">
                    <path d="M11482.1,28687.2C11482.9,28692.2 11488.1,28704.3 11490.5,28704.3C11492.9,28704.3 11494.4,28692.2 11496.4,28687.2C11498.1,28682.8 11504.1,28676.6 11502.3,28674.4C11500.6,28672.3 11489.2,28672.3 11485.8,28674.4C11482.5,28676.6 11481.4,28682.8 11482.1,28687.2Z" style="fill:rgb(221,162,3);"/>
                </g>
                <g transform="matrix(-0.312141,-0.0457142,0.0220021,-0.825084,14988.1,63408.5)">
                    <path d="M11482.1,28687.2C11482.9,28692.2 11488.1,28704.3 11490.5,28704.3C11492.9,28704.3 11494.4,28692.2 11496.4,28687.2C11498.1,28682.8 11504.1,28676.6 11502.3,28674.4C11500.6,28672.3 11489.2,28672.3 11485.8,28674.4C11482.5,28676.6 11481.4,28682.8 11482.1,28687.2Z" style="fill:rgb(221,162,3);"/>
                </g>
                <g transform="matrix(-0.119836,-0.217549,0.104706,-0.316764,10411.3,50900)">
                    <path d="M11482.1,28687.2C11482.9,28692.2 11488.1,28704.3 11490.5,28704.3C11492.9,28704.3 11494.4,28692.2 11496.4,28687.2C11498.1,28682.8 11504.1,28676.6 11502.3,28674.4C11500.6,28672.3 11489.2,28672.3 11485.8,28674.4C11482.5,28676.6 11481.4,28682.8 11482.1,28687.2Z" style="fill:rgb(221,162,3);"/>
                </g>
                <g transform="matrix(0.309564,0,0,0.725468,8505.18,18448.5)">
                    <path d="M11482.1,28687.2C11482.9,28692.2 11488.1,28704.3 11490.5,28704.3C11492.9,28704.3 11494.4,28692.2 11496.4,28687.2C11498.1,28682.8 11504.1,28676.6 11502.3,28674.4C11500.6,28672.3 11489.2,28672.3 11485.8,28674.4C11482.5,28676.6 11481.4,28682.8 11482.1,28687.2Z" style="fill:rgb(221,162,3);"/>
                </g>
                <g transform="matrix(0.309061,0,0,0.465539,8544.09,25959.1)">
                    <path d="M11482.1,28687.2C11482.9,28692.2 11488.1,28704.3 11490.5,28704.3C11492.9,28704.3 11494.4,28692.2 11496.4,28687.2C11498.1,28682.8 11504.1,28676.6 11502.3,28674.4C11500.6,28672.3 11489.2,28672.3 11485.8,28674.4C11482.5,28676.6 11481.4,28682.8 11482.1,28687.2Z" style="fill:rgb(221,162,3);"/>
                </g>
                <g transform="matrix(0.169573,0,0,0.38645,10121.6,28123.9)">
                    <path d="M11482.1,28687.2C11482.9,28692.2 11488.1,28704.3 11490.5,28704.3C11492.9,28704.3 11494.4,28692.2 11496.4,28687.2C11498.1,28682.8 11504.1,28676.6 11502.3,28674.4C11500.6,28672.3 11489.2,28672.3 11485.8,28674.4C11482.5,28676.6 11481.4,28682.8 11482.1,28687.2Z" style="fill:rgb(221,162,3);"/>
                </g>
                <g transform="matrix(0.0100072,0.396703,-0.164615,0.0228059,16683.7,33997.3)">
                    <path d="M11482.1,28687.2C11482.9,28692.2 11488.1,28704.3 11490.5,28704.3C11492.9,28704.3 11494.4,28692.2 11496.4,28687.2C11498.1,28682.8 11504.1,28676.6 11502.3,28674.4C11500.6,28672.3 11489.2,28672.3 11485.8,28674.4C11482.5,28676.6 11481.4,28682.8 11482.1,28687.2Z" style="fill:rgb(221,162,3);"/>
                </g>
                <g transform="matrix(0.0100072,0.396703,-0.164615,0.0228059,16692.2,34005.3)">
                    <path d="M11482.1,28687.2C11482.9,28692.2 11488.1,28704.3 11490.5,28704.3C11492.9,28704.3 11494.4,28692.2 11496.4,28687.2C11498.1,28682.8 11504.1,28676.6 11502.3,28674.4C11500.6,28672.3 11489.2,28672.3 11485.8,28674.4C11482.5,28676.6 11481.4,28682.8 11482.1,28687.2Z" style="fill:rgb(221,162,3);"/>
                </g>
                <g transform="matrix(0.42671,0,0,1,7121.8,10581.3)">
                    <path d="M11543.4,28605.4C11546.5,28608 11549.9,28614.2 11552.7,28613.1C11555.5,28612 11560.8,28601.2 11560.3,28598.5C11559.8,28595.9 11552.5,28596.2 11549.7,28597.4C11546.9,28598.5 11545.5,28602.7 11543.4,28605.4" style="fill:rgb(221,162,3);"/>
                </g>
                <g transform="matrix(0.459795,0.390935,-0.102403,0.661465,9654.81,15727.6)">
                    <path d="M11543.4,28605.4C11546.5,28608 11549.9,28614.2 11552.7,28613.1C11555.5,28612 11560.8,28601.2 11560.3,28598.5C11559.8,28595.9 11552.5,28596.2 11549.7,28597.4C11546.9,28598.5 11545.5,28602.7 11543.4,28605.4" style="fill:rgb(221,162,3);"/>
                </g>
                <g transform="matrix(0.319051,0.271268,-0.071057,0.458988,10336.5,22995.7)">
                    <path d="M11543.4,28605.4C11546.5,28608 11549.9,28614.2 11552.7,28613.1C11555.5,28612 11560.8,28601.2 11560.3,28598.5C11559.8,28595.9 11552.5,28596.2 11549.7,28597.4C11546.9,28598.5 11545.5,28602.7 11543.4,28605.4" style="fill:rgb(221,162,3);"/>
                </g>
                <g transform="matrix(-0.0138151,0.794728,-0.208174,-0.0198745,18115.1,30613)">
                    <path d="M11543.4,28605.4C11546.5,28608 11549.9,28614.2 11552.7,28613.1C11555.5,28612 11560.8,28601.2 11560.3,28598.5C11559.8,28595.9 11552.5,28596.2 11549.7,28597.4C11546.9,28598.5 11545.5,28602.7 11543.4,28605.4" style="fill:rgb(221,162,3);"/>
                </g>
                <g transform="matrix(-0.274094,0.469079,-0.122872,-0.394314,18695.9,45072.1)">
                    <path d="M11543.4,28605.4C11546.5,28608 11549.9,28614.2 11552.7,28613.1C11555.5,28612 11560.8,28601.2 11560.3,28598.5C11559.8,28595.9 11552.5,28596.2 11549.7,28597.4C11546.9,28598.5 11545.5,28602.7 11543.4,28605.4" style="fill:rgb(221,162,3);"/>
                </g>
                <g transform="matrix(-0.274094,0.469079,-0.122872,-0.394314,18702.4,45069.3)">
                    <path d="M11543.4,28605.4C11546.5,28608 11549.9,28614.2 11552.7,28613.1C11555.5,28612 11560.8,28601.2 11560.3,28598.5C11559.8,28595.9 11552.5,28596.2 11549.7,28597.4C11546.9,28598.5 11545.5,28602.7 11543.4,28605.4" style="fill:rgb(221,162,3);"/>
                </g>
                <g transform="matrix(0.274122,0.233068,-0.0610507,0.394353,10630.9,25245.8)">
                    <path d="M11543.4,28605.4C11546.5,28608 11549.9,28614.2 11552.7,28613.1C11555.5,28612 11560.8,28601.2 11560.3,28598.5C11559.8,28595.9 11552.5,28596.2 11549.7,28597.4C11546.9,28598.5 11545.5,28602.7 11543.4,28605.4" style="fill:rgb(221,162,3);"/>
                </g>
            </g>
        </g>
    </g>
    <defs>
        <radialGradient id="_Radial1" cx="0" cy="0" r="1" gradientUnits="userSpaceOnUse" gradientTransform="matrix(32.5,0,0,32.1813,473,3023)"><stop offset="0" style="stop-color:rgb(46,55,72);stop-opacity:1"/><stop offset="1" style="stop-color:rgb(3,8,18);stop-opacity:1"/></radialGradient>
        <radialGradient id="_Radial2" cx="0" cy="0" r="1" gradientUnits="userSpaceOnUse" gradientTransform="matrix(32.5,0,0,32.1813,469,3019)"><stop offset="0" style="stop-color:rgb(46,55,72);stop-opacity:1"/><stop offset="1" style="stop-color:rgb(3,8,18);stop-opacity:1"/></radialGradient>
        <radialGradient id="_Radial3" cx="0" cy="0" r="1" gradientUnits="userSpaceOnUse" gradientTransform="matrix(707.041,-35.1045,28.918,464.674,600.736,2514.52)"><stop offset="0" style="stop-color:white;stop-opacity:1"/><stop offset="1" style="stop-color:rgb(212,212,212);stop-opacity:1"/></radialGradient>
        <radialGradient id="_Radial4" cx="0" cy="0" r="1" gradientUnits="userSpaceOnUse" gradientTransform="matrix(710.438,-4.87829,-3.30563,790.988,606.227,2523.81)"><stop offset="0" style="stop-color:rgb(252,252,252);stop-opacity:1"/><stop offset="1" style="stop-color:rgb(212,212,212);stop-opacity:1"/></radialGradient>
        <radialGradient id="_Radial5" cx="0" cy="0" r="1" gradientUnits="userSpaceOnUse" gradientTransform="matrix(519.759,-2.76074,1.55663,376.88,643.695,2510.72)"><stop offset="0" style="stop-color:rgb(46,55,72);stop-opacity:1"/><stop offset="1" style="stop-color:rgb(3,8,18);stop-opacity:1"/></radialGradient>
        <radialGradient id="_Radial6" cx="0" cy="0" r="1" gradientUnits="userSpaceOnUse" gradientTransform="matrix(225.164,0,0,53.6309,7416.25,17261.6)"><stop offset="0" style="stop-color:rgb(127,139,255);stop-opacity:1"/><stop offset="1" style="stop-color:rgb(102,76,191);stop-opacity:1"/></radialGradient>
        <radialGradient id="_Radial7" cx="0" cy="0" r="1" gradientUnits="userSpaceOnUse" gradientTransform="matrix(225.164,0,0,53.6309,7416.25,17261.6)"><stop offset="0" style="stop-color:rgb(127,139,255);stop-opacity:1"/><stop offset="1" style="stop-color:rgb(102,76,191);stop-opacity:1"/></radialGradient>
        <linearGradient id="_Linear8" x1="0" y1="0" x2="1" y2="0" gradientUnits="userSpaceOnUse" gradientTransform="matrix(486.742,0,0,705.171,11729.6,25598.4)"><stop offset="0" style="stop-color:rgb(239,239,239);stop-opacity:1"/><stop offset="0.51" style="stop-color:rgb(222,222,222);stop-opacity:1"/><stop offset="1" style="stop-color:rgb(169,169,169);stop-opacity:1"/></linearGradient>
        <linearGradient id="_Linear9" x1="0" y1="0" x2="1" y2="0" gradientUnits="userSpaceOnUse" gradientTransform="matrix(378.222,0,0,33.7604,11713.6,25341.4)"><stop offset="0" style="stop-color:white;stop-opacity:1"/><stop offset="1" style="stop-color:rgb(185,185,185);stop-opacity:1"/></linearGradient>
        <linearGradient id="_Linear10" x1="0" y1="0" x2="1" y2="0" gradientUnits="userSpaceOnUse" gradientTransform="matrix(378.222,0,0,33.7604,11713.6,25341.4)"><stop offset="0" style="stop-color:rgb(221,221,221);stop-opacity:1"/><stop offset="1" style="stop-color:white;stop-opacity:1"/></linearGradient>
    </defs>
</svg>
