<?xml version="1.0" encoding="UTF-8" standalone="no"?>
<!DOCTYPE svg PUBLIC "-//W3C//DTD SVG 1.1//EN" "http://www.w3.org/Graphics/SVG/1.1/DTD/svg11.dtd">
<svg width="100%" height="100%" viewBox="0 0 76 86" version="1.1" xmlns="http://www.w3.org/2000/svg" xmlns:xlink="http://www.w3.org/1999/xlink" xml:space="preserve" xmlns:serif="http://www.serif.com/" style="fill-rule:evenodd;clip-rule:evenodd;stroke-linecap:round;stroke-linejoin:round;stroke-miterlimit:1.5;">
    <g transform="matrix(1,0,0,1,-1659,-927)">
        <g id="Plan-de-travail8" serif:id="Plan de travail8" transform="matrix(1.28814,0,0,1.45763,79.7458,371.644)">
            <rect x="1226" y="381" width="59" height="59" style="fill:none;"/>
            <clipPath id="_clip1">
                <rect x="1226" y="381" width="59" height="59"/>
            </clipPath>
            <g clip-path="url(#_clip1)">
                <g transform="matrix(2.86692,0,0,2.42271,-4299.21,-2539.65)">
                    <g transform="matrix(0.395787,0,0,0.232435,1158.72,923.206)">
                        <g transform="matrix(0.394104,0.00921281,-0.00825236,1.11938,1390.54,-427.284)">
                            <g transform="matrix(0.384615,-2.20253e-17,-1.78889e-17,0.57246,987.308,571.262)">
                                <path d="M1463,1612.36C1463,1611.61 1461.56,1611 1459.78,1611L1453.22,1611C1451.44,1611 1450,1611.61 1450,1612.36L1450,1691.64C1450,1692.39 1451.44,1693 1453.22,1693L1459.78,1693C1461.56,1693 1463,1692.39 1463,1691.64L1463,1612.36Z" style="fill:rgb(7,14,30);"/>
                            </g>
                            <g transform="matrix(0.153846,-8.81013e-18,-1.78889e-17,0.57246,1324.92,571.262)">
                                <path d="M1463,1611.54C1463,1611.24 1461.56,1611 1459.78,1611L1453.22,1611C1451.44,1611 1450,1611.24 1450,1611.54L1450,1692.46C1450,1692.76 1451.44,1693 1453.22,1693L1459.78,1693C1461.56,1693 1463,1692.76 1463,1692.46L1463,1611.54Z" style="fill:rgb(45,55,72);"/>
                            </g>
                            <g transform="matrix(0.0728187,-0.00194112,0.00310581,0.0457941,1109.13,670.177)">
                                <g transform="matrix(0.741941,-1.7191e-17,0,0.739649,5049.92,17898.6)">
                                    <path d="M275.253,168.794L294.47,50.824L278.106,49L188.256,290.014L203.472,291.879L344.423,181.629L430.708,267.196L342.284,328.519L332.888,307.512L318.039,308.553L302.351,363.459L340.145,394.12L353.621,396.283L512,275.04L367.973,113.563L351.554,113.175L275.253,168.794Z" style="fill:rgb(55,56,115);fill-rule:nonzero;"/>
                                </g>
                                <g transform="matrix(0.741941,-1.7191e-17,0,0.739649,5044.1,17898.4)">
                                    <path d="M170.429,118.88L194.552,119.342L217.121,207.479L195.387,205.873L167.577,184.481L79.866,245.091L166.15,331.371L316.613,230.117L339.184,232.193L277.289,465.141L254.574,464L242.451,342.78L183.189,399.787L159.733,398.399L0,237.96L170.429,118.88Z" style="fill:rgb(7,14,30);fill-rule:nonzero;"/>
                                </g>
                                <g transform="matrix(0.741941,-1.20759e-17,-5.18138e-18,0.739649,5061.6,17899.1)">
                                    <path d="M275.253,168.794L278.106,49L188.256,290.014L344.423,181.629L430.708,267.196L342.284,328.519L318.039,308.553L302.351,363.459L340.145,394.12L512,275.04L351.554,113.175L275.253,168.794Z" style="fill:rgb(76,81,191);fill-rule:nonzero;"/>
                                </g>
                                <g transform="matrix(0.741941,-1.20759e-17,-5.18138e-18,0.739649,5061.6,17899.1)">
                                    <path d="M170.429,118.88L215.354,155.959L195.387,205.873L167.577,184.481L79.866,245.091L166.15,331.371L316.613,230.117L254.574,464L242.451,342.78L159.733,398.399L0,237.96L170.429,118.88Z" style="fill:rgb(45,55,72);fill-rule:nonzero;"/>
                                </g>
                            </g>
                        </g>
                        <g transform="matrix(0.436988,0,0,0.278146,-34.5578,1117.38)">
                            <rect x="4623" y="679" width="10" height="19" style="fill:rgb(7,14,30);"/>
                        </g>
                    </g>
                    <g transform="matrix(0.393309,0,0,0.230979,1162.1,925.115)">
                        <g transform="matrix(0.450801,0,0,1.11949,592.053,813.73)">
                            <g transform="matrix(0.346495,0,0,0.248457,1472.07,256.948)">
                                <rect x="4623" y="554" width="10" height="26" style="fill:rgb(94,64,44);"/>
                            </g>
                            <g transform="matrix(0.346495,0,0,0.248457,1472.07,256.948)">
                                <rect x="4616" y="571" width="23" height="9" style="fill:rgb(61,37,18);"/>
                            </g>
                            <g transform="matrix(0.346495,0,0,1.00068,1472.07,-253.811)">
                                <rect x="4623" y="679" width="10" height="19" style="fill:rgb(94,64,44);"/>
                            </g>
                            <g transform="matrix(2.83796,0,0,0.248457,-10058.4,271.24)">
                                <rect x="4623" y="679" width="10" height="19" style="fill:rgb(94,64,44);"/>
                            </g>
                            <g transform="matrix(0.346495,0,0,0.248457,1472.07,256.948)">
                                <rect x="4574" y="580" width="109" height="91" style="fill:rgb(230,230,230);"/>
                            </g>
                        </g>
                        <g transform="matrix(0.0150865,0,0,0.0268645,1893.19,1271.86)">
                            <g transform="matrix(4.04012,0,0,4.00842,4897.09,-680.41)">
                                <path d="M8,90.944L43.12,90.944C43.12,90.944 142.706,298.816 165.6,306.304L185.04,321.824C173.6,320.544 139.12,319.904 127.84,319.904C90.576,319.581 53.629,326.763 19.2,341.024L8,345.824L8,90.944Z" style="fill:rgb(94,64,44);fill-rule:nonzero;"/>
                            </g>
                            <g transform="matrix(4.04012,0,0,4.00842,4743.56,-684.45)">
                                <path d="M393.44,341.024C359.011,326.763 322.064,319.581 284.8,319.904C273.44,319.904 240.96,321.184 229.6,322.464L247.04,306.464C270.028,298.891 369.84,90.944 369.84,90.944L404.96,90.944L404.96,345.904L393.44,341.024Z" style="fill:rgb(94,64,44);fill-rule:nonzero;"/>
                            </g>
                            <g transform="matrix(4.04012,0,0,4.00842,4897.09,-720.811)">
                                <path d="M8,90.944L43.12,90.944C43.12,90.944 142.706,298.816 165.6,306.304L185.04,321.824C173.6,320.544 139.12,319.904 127.84,319.904C90.576,319.581 53.629,326.763 19.2,341.024L8,345.824L8,90.944Z" style="fill:rgb(160,126,87);fill-rule:nonzero;"/>
                            </g>
                            <g transform="matrix(4.04012,0,0,4.00842,4743.56,-724.851)">
                                <path d="M393.44,341.024C359.011,326.763 322.064,319.581 284.8,319.904C273.44,319.904 240.96,321.184 229.6,322.464L247.04,306.464C270.028,298.891 369.84,90.944 369.84,90.944L404.96,90.944L404.96,345.904L393.44,341.024Z" style="fill:rgb(160,126,87);fill-rule:nonzero;"/>
                            </g>
                            <g transform="matrix(4.04012,0,0,4.04012,4836.49,-711.573)">
                                <path d="M193.92,319.824C177.04,308.784 145.92,295.824 94.56,295.824C80.356,295.879 66.169,296.815 52.08,298.624L43.12,299.744L43.12,73.584L49.36,72.144C65.516,68.56 82.012,66.737 98.56,66.704C129.92,66.704 173.68,73.984 204.32,108.544L206.32,110.544L206.32,327.984L193.92,319.824Z" style="fill:rgb(247,232,209);fill-rule:nonzero;"/>
                            </g>
                            <g transform="matrix(4.04012,0,0,4.04012,4836.49,-711.573)">
                                <path d="M206.32,110.544L208.32,108.304C238.96,73.664 282.8,66.464 314.08,66.464C330.628,66.5 347.124,68.324 363.28,71.904L369.52,73.344L369.52,299.504L360.56,298.384C346.551,296.584 332.444,295.649 318.32,295.584C266.72,295.584 235.84,308.784 218.96,319.584L206.56,327.584L206.32,110.544Z" style="fill:rgb(254,245,230);fill-rule:nonzero;"/>
                            </g>
                            <g transform="matrix(3.18479,0,0,3.18479,5078.1,-543.053)">
                                <path d="M206.438,216.958C206.438,216.958 278.821,198.5 306.001,195.957C327.168,193.978 369.52,201.704 369.52,201.704L369.52,299.504L360.56,298.384C346.551,296.584 332.444,295.649 318.32,295.584C266.72,295.584 235.84,308.784 218.96,319.584L206.56,327.584L206.438,216.958Z" style="fill:rgb(160,126,87);fill-opacity:0.18;fill-rule:nonzero;"/>
                            </g>
                            <g transform="matrix(-3.18479,0,0,3.18479,6279.6,-915.291)">
                                <path d="M206.438,216.958C206.438,216.958 278.821,198.5 306.001,195.957C327.168,193.978 369.52,201.704 369.52,201.704L369.52,299.504L360.56,298.384C346.551,296.584 332.444,295.649 318.32,295.584C266.72,295.584 235.84,308.784 218.96,319.584L206.56,327.584L206.438,216.958Z" style="fill:rgb(160,126,87);fill-opacity:0.13;fill-rule:nonzero;"/>
                            </g>
                        </g>
                        <g transform="matrix(-0.561576,0,0,1,3103.05,11)">
                            <path d="M2004,1267C2004.33,1267 2004.76,1266.24 2005,1266C2005.33,1265.67 2005.33,1265.17 2006,1265C2006.67,1264.83 2008.17,1265.17 2009,1265C2009.83,1264.83 2010.33,1264.33 2011,1264C2011.6,1263.7 2012.33,1264 2013,1264L2017,1264" style="fill:none;stroke:rgb(101,79,51);stroke-opacity:0.4;stroke-width:0.18px;"/>
                        </g>
                        <g transform="matrix(-0.561576,0,0,1,3103.05,14)">
                            <path d="M2004,1267C2004.33,1267 2004.76,1266.24 2005,1266C2005.33,1265.67 2005.33,1265.17 2006,1265C2006.67,1264.83 2008.17,1265.17 2009,1265C2009.83,1264.83 2010.33,1264.33 2011,1264C2011.6,1263.7 2012.33,1264 2013,1264L2017,1264" style="fill:none;stroke:rgb(101,79,51);stroke-opacity:0.4;stroke-width:0.18px;"/>
                        </g>
                        <g transform="matrix(0.1562,0,0,0.278146,1255.66,1101.38)">
                            <rect x="4566" y="671" width="126" height="8" style="fill:rgb(60,37,18);"/>
                        </g>
                        <g transform="matrix(0.561576,0,0,1,854.498,0)">
                            <path d="M2004,1267C2004.33,1267 2004.76,1266.24 2005,1266C2005.33,1265.67 2005.33,1265.17 2006,1265C2006.67,1264.83 2008.17,1265.17 2009,1265C2009.83,1264.83 2010.33,1264.33 2011,1264C2011.6,1263.7 2012.33,1264 2013,1264L2017,1264" style="fill:none;stroke:rgb(101,79,51);stroke-opacity:0.4;stroke-width:0.18px;"/>
                        </g>
                        <g transform="matrix(0.561576,0,0,1,854.498,3)">
                            <path d="M2004,1267C2004.33,1267 2004.76,1266.24 2005,1266C2005.33,1265.67 2005.33,1265.17 2006,1265C2006.67,1264.83 2008.17,1265.17 2009,1265C2009.83,1264.83 2010.33,1264.33 2011,1264C2011.6,1263.7 2012.33,1264 2013,1264L2017,1264" style="fill:none;stroke:rgb(101,79,51);stroke-opacity:0.4;stroke-width:0.18px;"/>
                        </g>
                        <g transform="matrix(0.561576,0,0,1,854.498,6)">
                            <path d="M2004,1267C2004.33,1267 2004.76,1266.24 2005,1266C2005.33,1265.67 2005.33,1265.17 2006,1265C2006.67,1264.83 2008.17,1265.17 2009,1265C2009.83,1264.83 2010.33,1264.33 2011,1264C2011.6,1263.7 2012.33,1264 2013,1264L2017,1264" style="fill:none;stroke:rgb(101,79,51);stroke-opacity:0.4;stroke-width:0.18px;"/>
                        </g>
                    </g>
                    <g transform="matrix(0.0566099,0,0,0.0592001,1856.84,1121.32)">
                        <g transform="matrix(1.84806e-16,-1.25,1.77102,1.47651e-16,-1255.91,3635.26)">
                            <path d="M1657,1542.29C1657,1536.06 1649.83,1531 1641,1531C1632.17,1531 1625,1536.06 1625,1542.29L1625,1542.71C1625,1548.94 1632.17,1554 1641,1554C1649.83,1554 1657,1548.94 1657,1542.71L1657,1542.29Z" style="fill:rgb(152,155,218);"/>
                            <clipPath id="_clip2">
                                <path d="M1657,1542.29C1657,1536.06 1649.83,1531 1641,1531C1632.17,1531 1625,1536.06 1625,1542.29L1625,1542.71C1625,1548.94 1632.17,1554 1641,1554C1649.83,1554 1657,1548.94 1657,1542.71L1657,1542.29Z"/>
                            </clipPath>
                            <g clip-path="url(#_clip2)">
                                <g transform="matrix(1.36461e-16,1.15526,-0.941176,9.8212e-17,3075.36,-343.971)">
                                    <path d="M1625,1534C1625.17,1534.17 1624.67,1536.33 1625,1537C1625.33,1537.67 1626.33,1538.17 1627,1538C1627.67,1537.83 1628.5,1535.83 1629,1536C1629.5,1536.17 1629.5,1538.5 1630,1539C1630.47,1539.47 1631.53,1539.47 1632,1539C1632.5,1538.5 1632.67,1536 1633,1536C1633.33,1536 1633.33,1538.5 1634,1539C1634.67,1539.5 1636.33,1539.5 1637,1539C1637.67,1538.5 1637.67,1536.17 1638,1536C1638.33,1535.83 1638.5,1537.5 1639,1538C1639.5,1538.5 1640.5,1539 1641,1539C1641.47,1539 1641.74,1538.39 1642,1538C1642.33,1537.5 1642.67,1536 1643,1536C1643.33,1536 1643.5,1537.67 1644,1538C1644.5,1538.33 1645.5,1538.33 1646,1538C1646.5,1537.67 1646.83,1536.5 1647,1536C1647.11,1535.68 1646.83,1534.83 1647,1535C1647.17,1535.17 1647.67,1536.5 1648,1537C1648.26,1537.39 1648.89,1538.46 1649,1538C1649.17,1537.33 1649,1529 1649,1529L1623,1529C1623,1529 1622.83,1535.5 1623,1536C1623.11,1536.32 1623.76,1536.24 1624,1536C1624.33,1535.67 1624.83,1533.83 1625,1534Z" style="fill:rgb(201,203,233);"/>
                                </g>
                                <g transform="matrix(1.20476e-16,1.01994,-0.941176,9.8212e-17,3080.07,-127.889)">
                                    <path d="M1625,1534C1625.17,1534.17 1624.67,1536.33 1625,1537C1625.33,1537.67 1626.33,1538.17 1627,1538C1627.67,1537.83 1628.5,1535.83 1629,1536C1629.5,1536.17 1629.5,1538.5 1630,1539C1630.47,1539.47 1631.53,1539.47 1632,1539C1632.5,1538.5 1632.67,1536 1633,1536C1633.33,1536 1633.33,1538.5 1634,1539C1634.67,1539.5 1636.33,1539.5 1637,1539C1637.67,1538.5 1637.67,1536.17 1638,1536C1638.33,1535.83 1638.5,1537.5 1639,1538C1639.5,1538.5 1640.5,1539 1641,1539C1641.47,1539 1641.74,1538.39 1642,1538C1642.33,1537.5 1642.67,1536 1643,1536C1643.33,1536 1643.5,1537.67 1644,1538C1644.5,1538.33 1645.5,1538.33 1646,1538C1646.5,1537.67 1646.83,1536.5 1647,1536C1647.11,1535.68 1646.83,1534.83 1647,1535C1647.17,1535.17 1647.67,1536.5 1648,1537C1648.26,1537.39 1648.89,1538.46 1649,1538C1649.17,1537.33 1649,1529 1649,1529L1623,1529C1623,1529 1622.83,1535.5 1623,1536C1623.11,1536.32 1623.76,1536.24 1624,1536C1624.33,1535.67 1624.83,1533.83 1625,1534Z" style="fill:rgb(152,155,218);"/>
                                </g>
                                <g transform="matrix(1.04492e-16,0.884615,-0.941176,9.8212e-17,3084.77,95.2692)">
                                    <path d="M1625,1534C1625.17,1534.17 1624.67,1536.33 1625,1537C1625.33,1537.67 1626.33,1538.17 1627,1538C1627.67,1537.83 1628.5,1535.83 1629,1536C1629.5,1536.17 1629.5,1538.5 1630,1539C1630.47,1539.47 1631.53,1539.47 1632,1539C1632.5,1538.5 1632.67,1536 1633,1536C1633.33,1536 1633.33,1538.5 1634,1539C1634.67,1539.5 1636.33,1539.5 1637,1539C1637.67,1538.5 1637.67,1536.17 1638,1536C1638.33,1535.83 1638.5,1537.5 1639,1538C1639.5,1538.5 1640.5,1539 1641,1539C1641.47,1539 1641.74,1538.39 1642,1538C1642.33,1537.5 1642.67,1536 1643,1536C1643.33,1536 1643.5,1537.67 1644,1538C1644.5,1538.33 1645.5,1538.33 1646,1538C1646.5,1537.67 1646.83,1536.5 1647,1536C1647.11,1535.68 1646.83,1534.83 1647,1535C1647.17,1535.17 1647.67,1536.5 1648,1537C1648.26,1537.39 1648.89,1538.46 1649,1538C1649.17,1537.33 1649,1529 1649,1529L1623,1529C1623,1529 1622.83,1535.5 1623,1536C1623.11,1536.32 1623.76,1536.24 1624,1536C1624.33,1535.67 1624.83,1533.83 1625,1534Z" style="fill:rgb(201,203,233);"/>
                                </g>
                                <g transform="matrix(1.20476e-16,1.01994,-0.941176,9.8212e-17,3089.48,-127.889)">
                                    <path d="M1625,1534C1625.17,1534.17 1624.67,1536.33 1625,1537C1625.33,1537.67 1626.33,1538.17 1627,1538C1627.67,1537.83 1628.5,1535.83 1629,1536C1629.5,1536.17 1629.5,1538.5 1630,1539C1630.47,1539.47 1631.53,1539.47 1632,1539C1632.5,1538.5 1632.67,1536 1633,1536C1633.33,1536 1633.33,1538.5 1634,1539C1634.67,1539.5 1636.33,1539.5 1637,1539C1637.67,1538.5 1637.67,1536.17 1638,1536C1638.33,1535.83 1638.5,1537.5 1639,1538C1639.5,1538.5 1640.5,1539 1641,1539C1641.47,1539 1641.74,1538.39 1642,1538C1642.33,1537.5 1642.67,1536 1643,1536C1643.33,1536 1643.5,1537.67 1644,1538C1644.5,1538.33 1645.5,1538.33 1646,1538C1646.5,1537.67 1646.83,1536.5 1647,1536C1647.11,1535.68 1646.83,1534.83 1647,1535C1647.17,1535.17 1647.67,1536.5 1648,1537C1648.26,1537.39 1648.89,1538.46 1649,1538C1649.17,1537.33 1649,1529 1649,1529L1623,1529C1623,1529 1622.83,1535.5 1623,1536C1623.11,1536.32 1623.76,1536.24 1624,1536C1624.33,1535.67 1624.83,1533.83 1625,1534Z" style="fill:rgb(152,155,218);"/>
                                </g>
                                <g transform="matrix(1.04492e-16,0.884615,-0.941176,9.8212e-17,3094.18,95.2692)">
                                    <path d="M1625,1534C1625.17,1534.17 1624.67,1536.33 1625,1537C1625.33,1537.67 1626.33,1538.17 1627,1538C1627.67,1537.83 1628.5,1535.83 1629,1536C1629.5,1536.17 1629.5,1538.5 1630,1539C1630.47,1539.47 1631.53,1539.47 1632,1539C1632.5,1538.5 1632.67,1536 1633,1536C1633.33,1536 1633.33,1538.5 1634,1539C1634.67,1539.5 1636.33,1539.5 1637,1539C1637.67,1538.5 1637.67,1536.17 1638,1536C1638.33,1535.83 1638.5,1537.5 1639,1538C1639.5,1538.5 1640.5,1539 1641,1539C1641.47,1539 1641.74,1538.39 1642,1538C1642.33,1537.5 1642.67,1536 1643,1536C1643.33,1536 1643.5,1537.67 1644,1538C1644.5,1538.33 1645.5,1538.33 1646,1538C1646.5,1537.67 1646.83,1536.5 1647,1536C1647.11,1535.68 1646.83,1534.83 1647,1535C1647.17,1535.17 1647.67,1536.5 1648,1537C1648.26,1537.39 1648.89,1538.46 1649,1538C1649.17,1537.33 1649,1529 1649,1529L1623,1529C1623,1529 1622.83,1535.5 1623,1536C1623.11,1536.32 1623.76,1536.24 1624,1536C1624.33,1535.67 1624.83,1533.83 1625,1534Z" style="fill:rgb(236,236,236);"/>
                                </g>
                                <g transform="matrix(9.64993e-17,0.816954,-0.941176,9.8212e-17,3097.95,206.849)">
                                    <path d="M1625,1534C1625.17,1534.17 1624.67,1536.33 1625,1537C1625.33,1537.67 1626.33,1538.17 1627,1538C1627.67,1537.83 1628.5,1535.83 1629,1536C1629.5,1536.17 1629.5,1538.5 1630,1539C1630.47,1539.47 1631.53,1539.47 1632,1539C1632.5,1538.5 1632.67,1536 1633,1536C1633.33,1536 1633.33,1538.5 1634,1539C1634.67,1539.5 1636.33,1539.5 1637,1539C1637.67,1538.5 1637.67,1536.17 1638,1536C1638.33,1535.83 1638.5,1537.5 1639,1538C1639.5,1538.5 1640.5,1539 1641,1539C1641.47,1539 1641.74,1538.39 1642,1538C1642.33,1537.5 1642.67,1536 1643,1536C1643.33,1536 1643.5,1537.67 1644,1538C1644.5,1538.33 1645.5,1538.33 1646,1538C1646.5,1537.67 1646.83,1536.5 1647,1536C1647.11,1535.68 1646.83,1534.83 1647,1535C1647.17,1535.17 1647.67,1536.5 1648,1537C1648.26,1537.39 1648.89,1538.46 1649,1538C1649.17,1537.33 1649,1529 1649,1529L1623,1529C1623,1529 1622.83,1535.5 1623,1536C1623.11,1536.32 1623.76,1536.24 1624,1536C1624.33,1535.67 1624.83,1533.83 1625,1534Z" style="fill:rgb(221,220,221);"/>
                                </g>
                            </g>
                        </g>
                        <g transform="matrix(1,0,0,1,-240,24)">
                            <path d="M1710.56,1535.23C1711.12,1535.54 1720.01,1535.54 1720.57,1535.23C1722.51,1534.13 1726.06,1536.22 1728.19,1537.74C1730.49,1539.38 1736.97,1546.94 1738.03,1549.88C1739.16,1553.02 1742.21,1557.57 1741.63,1561.37C1741.03,1565.25 1740.19,1569.9 1737.44,1573.19C1734.58,1576.61 1731.31,1576.91 1728.46,1578.25C1727.21,1578.83 1722.88,1579.14 1724.75,1576.46C1726.24,1574.43 1728.56,1569.85 1729.61,1566.89C1730.53,1564.3 1729.1,1560.27 1728.03,1557.72C1726.8,1554.76 1717.15,1551.45 1716.52,1548.33C1716.26,1547.05 1714.87,1547.05 1714.61,1548.33C1713.97,1551.45 1705.33,1554.76 1704.1,1557.72C1703.03,1560.27 1700.6,1564.3 1701.52,1566.89C1702.57,1569.85 1704.88,1574.43 1706.38,1576.46C1708.24,1579.14 1703.92,1578.83 1702.67,1578.25C1699.82,1576.91 1696.55,1576.61 1693.69,1573.19C1690.94,1569.9 1690.1,1565.25 1689.5,1561.37C1688.92,1557.57 1691.97,1553.02 1693.1,1549.88C1694.15,1546.94 1700.64,1539.38 1702.94,1537.74C1705.07,1536.22 1708.61,1534.13 1710.56,1535.23Z" style="fill:rgb(66,70,152);"/>
                        </g>
                        <g transform="matrix(1.14706,0,0,1.15,-218.706,-234.7)">
                            <ellipse cx="1477" cy="1568" rx="17" ry="10" style="fill:rgb(68,72,172);"/>
                        </g>
                        <g transform="matrix(-1.10021,-1.29261,1.29261,-1.10021,1381.85,5413.38)">
                            <path d="M1682.21,1518C1682.07,1517.52 1682,1517.02 1682,1516.5C1682,1513.46 1684.46,1511 1687.5,1511C1690.54,1511 1693,1513.46 1693,1516.5C1693,1517.02 1692.93,1517.52 1692.79,1518L1687.5,1530L1682.21,1518Z" style="fill:rgb(45,55,72);"/>
                        </g>
                        <g transform="matrix(1.10021,-1.29261,-1.29261,-1.10021,1570.22,5413.38)">
                            <path d="M1682.21,1518C1682.07,1517.52 1682,1517.02 1682,1516.5C1682,1513.46 1684.46,1511 1687.5,1511C1690.54,1511 1693,1513.46 1693,1516.5C1693,1517.02 1692.93,1517.52 1692.79,1518L1687.5,1530L1682.21,1518Z" style="fill:rgb(45,55,72);"/>
                        </g>
                        <g transform="matrix(0.896968,0,0,0.896968,79.0241,199.812)">
                            <g transform="matrix(1.27408,0,0,1.27408,-423.473,-419.003)">
                                <g transform="matrix(0.412483,0,0,0.412483,861.473,904.618)">
                                    <circle cx="1660" cy="1506" r="20" style="fill:rgb(247,247,247);"/>
                                </g>
                                <g transform="matrix(0.437483,0,0,0.437483,819.473,866.468)">
                                    <circle cx="1660" cy="1506" r="20" style="fill:url(#_Radial3);"/>
                                </g>
                                <g transform="matrix(0.294631,0,0,0.294631,1057.89,1082.5)">
                                    <circle cx="1660" cy="1506" r="20" style="fill:url(#_Radial4);"/>
                                </g>
                                <g transform="matrix(0.0589262,0,0,0.0589262,1451.52,1435.11)">
                                    <circle cx="1660" cy="1506" r="20" style="fill:white;"/>
                                </g>
                            </g>
                            <g transform="matrix(1.21037,0,0,1.21037,-301.028,-321.269)">
                                <g transform="matrix(0.412483,0,0,0.412483,861.473,904.618)">
                                    <circle cx="1660" cy="1506" r="20" style="fill:rgb(247,247,247);"/>
                                </g>
                                <g transform="matrix(0.437483,0,0,0.437483,819.473,866.468)">
                                    <circle cx="1660" cy="1506" r="20" style="fill:url(#_Radial5);"/>
                                </g>
                                <g transform="matrix(0.294631,0,0,0.294631,1057.89,1082.5)">
                                    <circle cx="1660" cy="1506" r="20" style="fill:url(#_Radial6);"/>
                                </g>
                                <g transform="matrix(0.0589262,0,0,0.0589262,1451.52,1435.11)">
                                    <circle cx="1660" cy="1506" r="20" style="fill:white;"/>
                                </g>
                            </g>
                            <g transform="matrix(0.568873,0,0,0.568873,597.664,667.429)">
                                <path d="M1682.21,1518C1682.07,1517.52 1682,1517.02 1682,1516.5C1682,1513.46 1684.46,1511 1687.5,1511C1690.54,1511 1693,1513.46 1693,1516.5C1693,1517.02 1692.93,1517.52 1692.79,1518L1687.5,1530L1682.21,1518Z" style="fill:rgb(254,197,126);"/>
                            </g>
                        </g>
                    </g>
                    <g transform="matrix(0.148541,0,0,0.187101,1862.09,1148.85)">
                        <g>
                            <g transform="matrix(0.143573,0,0,0.119199,395.792,62.0965)">
                                <circle cx="471.5" cy="3039.5" r="32.5" style="fill:url(#_Radial7);"/>
                            </g>
                            <g transform="matrix(0.143573,0,0,0.119199,430.824,61.9773)">
                                <circle cx="471.5" cy="3039.5" r="32.5" style="fill:url(#_Radial8);"/>
                            </g>
                            <g transform="matrix(0.0859746,0,0,0.0799138,425.734,204.982)">
                                <path d="M976,2519C976,2394.82 863.126,2294 724.097,2294L549.903,2294C410.874,2294 298,2394.82 298,2519C298,2643.18 410.874,2744 549.903,2744L724.097,2744C863.126,2744 976,2643.18 976,2519Z" style="fill:url(#_Radial9);"/>
                            </g>
                            <g transform="matrix(0.0487925,0,0,0.0405092,467.578,396.904)">
                                <path d="M275.253,168.794L278.106,49L188.256,290.014L344.423,181.629L430.708,267.196L342.284,328.519L318.039,308.553L302.351,363.459L340.145,394.12L512,275.04L351.554,113.175L275.253,168.794Z" style="fill:rgb(76,81,191);fill-rule:nonzero;"/>
                                <path d="M170.429,118.88L215.354,155.959L195.387,205.873L167.577,184.481L79.866,245.091L166.15,331.371L316.613,230.117L254.574,464L242.451,342.78L159.733,398.399L0,237.96L170.429,118.88Z" style="fill:rgb(45,55,72);fill-rule:nonzero;"/>
                            </g>
                            <g transform="matrix(0.124938,0,0,0.106691,400.771,93.294)">
                                <path d="M976,2519C976,2394.82 872.301,2294 744.573,2294L529.427,2294C401.699,2294 298,2394.82 298,2519C298,2643.18 401.699,2744 529.427,2744L744.573,2744C872.301,2744 976,2643.18 976,2519Z" style="fill:url(#_Radial10);"/>
                            </g>
                            <g transform="matrix(0.103411,0,0,0.0695546,414.484,190.448)">
                                <path d="M976,2519C976,2325.8 824.493,2267.77 640.604,2267.77C432.705,2267.77 298,2321.66 298,2519C298,2698.4 448.268,2759.18 638.094,2759.18C857.658,2759.18 976,2720.48 976,2519Z" style="fill:url(#_Radial11);"/>
                            </g>
                            <g transform="matrix(0.117673,0,0,0.111352,403.187,80.2535)">
                                <ellipse cx="527" cy="2564" rx="53" ry="64" style="fill:rgb(249,249,249);"/>
                            </g>
                            <g transform="matrix(0.117673,0,0,0.111352,433.499,80.3648)">
                                <ellipse cx="527" cy="2564" rx="53" ry="64" style="fill:rgb(249,249,249);"/>
                            </g>
                            <g transform="matrix(0.41416,5.04284e-18,-2.01667e-17,0.168832,223.503,348.25)">
                                <path d="M620.228,233.978C621.049,233.978 645.807,233.749 656.435,242.158C665.892,249.64 577.287,249.915 583.144,244.774C595.117,234.266 609.518,233.978 620.228,233.978Z" style="fill:rgb(208,208,208);"/>
                            </g>
                            <g transform="matrix(0.41416,5.04284e-18,-2.01667e-17,0.168832,223.503,348.25)">
                                <path d="M620.228,233.978C620.959,233.978 640.657,233.797 652.472,239.688C660.64,244.993 579.353,246.165 588.005,241.12C598.86,234.195 610.934,233.978 620.228,233.978Z" style="fill:rgb(164,164,164);"/>
                            </g>
                            <g transform="matrix(0.234435,4.04641e-18,-1.14154e-17,0.135472,334.969,356.401)">
                                <path d="M619.814,235.014C637.085,235.014 640.997,237.291 652.812,243.183C642.033,244.249 595.437,244.698 585.15,243.826C596.004,236.901 605.474,235.014 619.814,235.014Z" style="fill:rgb(14,14,14);"/>
                            </g>
                            <g transform="matrix(0.31599,-0.0044478,0.00824131,0.340632,283.754,323.431)">
                                <path d="M577.326,191.844C556.628,188.147 671.716,190.445 650.905,192.923C639.676,194.26 626.877,194.957 613.278,194.957C600.038,194.957 587.847,193.723 577.326,191.844Z" style="fill:rgb(208,208,208);"/>
                            </g>
                            <g transform="matrix(0.31599,-0.0044478,0.00824131,0.340632,283.754,323.431)">
                                <path d="M586.47,193.248C560.872,189.936 667.054,191.756 641.577,193.857C632.775,194.583 623.241,194.957 613.278,194.957C603.717,194.957 594.703,194.314 586.47,193.248Z" style="fill:rgb(164,164,164);"/>
                            </g>
                            <g transform="matrix(0.31599,-0.0044478,0.00824131,0.340632,283.754,323.431)">
                                <path d="M613.278,194.957C605.44,194.957 591.065,192.512 593.293,191.633C593.563,191.619 596.193,191.585 598.476,191.569C608.055,191.502 619.819,191.707 629.542,192.045C632.277,192.14 635.292,192.229 634.909,192.231C635.991,193.099 621.163,194.957 613.278,194.957Z" style="fill:rgb(9,9,9);"/>
                            </g>
                            <g transform="matrix(0.132548,0,0,0.0555925,349.848,-51.3914)">
                                <path d="M1003.9,7910.87L1003.55,7916.01C989.795,7928.37 976.857,7926.94 964.51,7916.01L964.54,7871.3C974.975,7871.63 990.477,7871.98 1003.55,7872.4L1003.76,7897.59L1010.43,7890.54L1010.45,7872.54C1011.97,7872.37 1018.82,7872.6 1020.28,7872.64L1020.13,7890.51L1003.9,7910.87Z" style="fill:rgb(23,23,23);"/>
                            </g>
                        </g>
                    </g>
                    <g transform="matrix(0.138814,0,0,0.145165,1712.49,1005.74)">
                        <g transform="matrix(0.681159,-2.7806e-17,2.93915e-16,-9.6,526.826,14990.8)">
                            <path d="M1593.13,1413.25C1593.13,1413.11 1591.73,1413 1590.01,1413L1538.99,1413C1537.27,1413 1535.87,1413.11 1535.87,1413.25C1536.25,1414.75 1535.84,1416.25 1530,1417.75C1530,1417.89 1531.4,1418 1533.12,1418L1595.88,1418C1597.6,1418 1599,1417.89 1599,1417.75C1591.5,1416.33 1591.44,1414.8 1593.13,1413.25Z" style="fill:rgb(21,28,41);"/>
                        </g>
                        <g transform="matrix(1,0,0,1,39,-104)">
                            <path d="M1543.12,1482C1541.95,1482 1541,1483.06 1541,1484.37C1544.98,1498.79 1545.25,1513.21 1545,1527.63C1545,1528.94 1545.95,1530 1547.12,1530L1540.12,1530C1538.95,1530 1538,1528.94 1538,1527.63C1538.25,1513.21 1537.98,1498.79 1534,1484.37C1534,1483.06 1534.95,1482 1536.12,1482L1543.12,1482Z" style="fill:rgb(32,37,50);"/>
                        </g>
                        <g transform="matrix(0.681159,-2.7806e-17,2.93915e-16,-9.6,526.826,14990.8)">
                            <path d="M1593.13,1413.25C1593.13,1413.11 1591.73,1413 1590.01,1413L1538.99,1413C1537.27,1413 1535.87,1413.11 1535.87,1413.25C1535.97,1413.62 1536.01,1414 1535.93,1414.37C1548.52,1414.38 1575.72,1414.36 1592.29,1414.39C1592.4,1414.01 1592.71,1413.63 1593.13,1413.25Z" style="fill:rgb(253,185,58);"/>
                        </g>
                        <g transform="matrix(0.122259,-9.62515e-17,1.0174e-15,-9.6,1389.23,14990.8)">
                            <path d="M1593.13,1413.25C1593.13,1413.11 1591.73,1413 1590.01,1413L1538.99,1413C1537.27,1413 1535.87,1413.11 1535.87,1413.25C1535.97,1413.62 1536.01,1414 1535.93,1414.37C1548.52,1414.38 1575.72,1414.38 1592.29,1414.39C1592.33,1414.25 1592.4,1414.11 1592.49,1413.96C1592.65,1413.73 1592.87,1413.49 1593.13,1413.25Z" style="fill:rgb(249,161,54);"/>
                        </g>
                        <g transform="matrix(0.869565,0,0,1,231.565,9)">
                            <path d="M1599,1414.25C1599,1413.56 1598.44,1413 1597.75,1413C1575.66,1415.28 1553.5,1415.46 1531.25,1413C1530.56,1413 1530,1413.56 1530,1414.25L1530,1416.75C1530,1417.44 1530.56,1418 1531.25,1418C1552.54,1420.32 1574.73,1420.38 1597.75,1418C1598.44,1418 1599,1417.44 1599,1416.75L1599,1414.25Z" style="fill:rgb(21,28,41);"/>
                        </g>
                        <g transform="matrix(0.869565,0,0,1,231.565,9)">
                            <path d="M1555.36,1419.64C1555.42,1416.92 1555.31,1416.65 1555.28,1414.66C1552.58,1414.58 1549.88,1414.47 1547.18,1414.32C1546.93,1416.46 1546.92,1417.78 1546.95,1419.29C1549.74,1419.44 1552.54,1419.56 1555.36,1419.64Z" style="fill:rgb(41,46,60);"/>
                        </g>
                    </g>
                    <g transform="matrix(0.0583871,0,0,0.131917,1839.93,1024.89)">
                        <g transform="matrix(0.693562,0,0,0.32102,519.094,1007.94)">
                            <g>
                                <g transform="matrix(2.52979e-16,-2.27863,2.42432,2.69154e-16,-2106.99,5394.11)">
                                    <path d="M1657,1542.5C1657,1536.15 1651.52,1531 1644.77,1531L1637.24,1531C1630.48,1531 1625,1536.15 1625,1542.5C1625,1548.85 1630.48,1554 1637.24,1554L1644.77,1554C1651.52,1554 1657,1548.85 1657,1542.5Z" style="fill:rgb(34,40,57);"/>
                                </g>
                                <g transform="matrix(-1.03495,-2.03004,2.15983,-1.10112,3.66491,6686.08)">
                                    <path d="M1657,1542.5C1657,1536.15 1651.52,1531 1644.77,1531L1637.24,1531C1630.48,1531 1625,1536.15 1625,1542.5C1625,1548.85 1630.48,1554 1637.24,1554L1644.77,1554C1651.52,1554 1657,1548.85 1657,1542.5Z" style="fill:rgb(34,40,57);"/>
                                </g>
                                <g transform="matrix(0.164073,0.376548,-0.376548,0.164073,2151.26,780.684)">
                                    <path d="M1519.89,1931.34C1522.53,1929.25 1525.87,1928 1529.5,1928C1532.36,1928 1535.05,1928.78 1537.35,1930.14C1537.89,1930.05 1538.44,1930 1539,1930C1544.52,1930 1549,1934.48 1549,1940C1549,1942.48 1548.1,1944.75 1546.6,1946.5C1547.51,1949 1548,1951.69 1548,1954.5C1548,1954.97 1547.99,1955.44 1547.96,1955.91C1548.63,1957.64 1549,1959.53 1549,1961.5C1549,1970.06 1542.06,1977 1533.5,1977C1532.87,1977 1532.26,1976.96 1531.65,1976.89C1529.4,1977.61 1526.99,1978 1524.5,1978C1523.51,1978 1522.54,1977.94 1521.58,1977.82C1520.05,1978.58 1518.32,1979 1516.5,1979C1510.19,1979 1505.06,1973.91 1505,1967.61C1503.38,1965.21 1502.19,1962.49 1501.55,1959.57C1499.98,1958.02 1499,1955.88 1499,1953.5C1499,1950.77 1500.29,1948.33 1502.3,1946.78C1502.6,1945.92 1502.95,1945.09 1503.34,1944.28C1503.12,1943.39 1503,1942.46 1503,1941.5C1503,1935.15 1508.15,1930 1514.5,1930C1516.45,1930 1518.28,1930.49 1519.89,1931.34Z" style="fill:rgb(23,30,51);"/>
                                </g>
                                <g transform="matrix(0.738503,0,0,0.786167,455.609,384.372)">
                                    <path d="M1593.24,1579.2C1576.21,1579.05 1560.28,1575.31 1548.98,1559.07C1534.49,1538.23 1536.55,1525.29 1551.74,1515.23C1570.84,1502.59 1615.84,1501.56 1636.94,1516.23C1651.89,1526.63 1654.19,1539.23 1639.7,1560.07C1627.16,1578.1 1610.98,1579.41 1593.24,1579.2Z" style="fill:rgb(25,35,51);"/>
                                </g>
                                <g transform="matrix(1.63509,0,0,1.63509,-914.43,-901.547)">
                                    <g transform="matrix(1,0,0,1,3.2149,1.60745)">
                                        <g transform="matrix(0.412483,0,0,0.412483,861.473,904.618)">
                                            <circle cx="1660" cy="1506" r="20" style="fill:rgb(247,247,247);"/>
                                        </g>
                                        <g transform="matrix(0.437483,0,0,0.437483,819.473,866.468)">
                                            <circle cx="1660" cy="1506" r="20" style="fill:rgb(247,247,247);"/>
                                        </g>
                                        <g transform="matrix(0.294631,0,0,0.294631,1057.89,1082.5)">
                                            <circle cx="1660" cy="1506" r="20" style="fill:rgb(76,81,191);"/>
                                        </g>
                                        <g transform="matrix(0.0589262,0,0,0.0589262,1451.52,1435.11)">
                                            <circle cx="1660" cy="1506" r="20" style="fill:white;"/>
                                        </g>
                                    </g>
                                    <g transform="matrix(1,0,0,1,-1.60745,1.60745)">
                                        <g transform="matrix(0.412483,0,0,0.412483,884.651,904.618)">
                                            <circle cx="1660" cy="1506" r="20" style="fill:rgb(247,247,247);"/>
                                        </g>
                                        <g transform="matrix(0.294631,0,0,0.294631,1081.07,1082.5)">
                                            <circle cx="1660" cy="1506" r="20" style="fill:rgb(76,81,191);"/>
                                        </g>
                                        <g transform="matrix(0.0589262,0,0,0.0589262,1474.7,1435.11)">
                                            <circle cx="1660" cy="1506" r="20" style="fill:white;"/>
                                        </g>
                                    </g>
                                </g>
                                <g transform="matrix(0.121221,0,0,0.121221,1440.31,1423.11)">
                                    <path d="M1593.24,1579.2C1576.21,1579.05 1560.28,1575.31 1548.98,1559.07C1534.49,1538.23 1536.79,1525.63 1551.74,1515.23C1563.89,1506.79 1581.94,1510.8 1596.06,1523.77C1610,1511.6 1627.43,1508.01 1639.26,1516.23C1654.21,1526.63 1656.51,1539.23 1642.02,1560.07C1629.48,1578.1 1610.98,1579.41 1593.24,1579.2Z"/>
                                </g>
                                <g transform="matrix(1.44183,0,0,1.44183,-700.865,-1095.97)">
                                    <path d="M1618.99,1879.9L1619,1882C1617.15,1883.2 1615.14,1883.49 1613,1883C1614.97,1883.44 1616.97,1883.18 1619,1882C1620.99,1883.04 1622.98,1883.51 1625,1883" style="fill:none;stroke:black;stroke-width:1.16px;"/>
                                </g>
                            </g>
                        </g>
                        <g transform="matrix(0.489981,0,0,0.361746,907.338,976.636)">
                            <g>
                                <g transform="matrix(1,0,0,1,-3.33084,-2.08822)">
                                    <g transform="matrix(1,0,0,0.626935,0,452.155)">
                                        <path d="M1532,1646.01C1532,1646.01 1530.54,1608.92 1535,1586C1539.67,1562 1551.67,1528.67 1560,1512C1565.38,1501.25 1578.67,1486 1585,1486C1591.33,1486 1596.83,1502.38 1598,1512C1599.5,1524.33 1597.67,1546 1594,1560C1590.6,1572.98 1582.17,1585 1576,1596C1570.21,1606.33 1561.67,1617 1557,1626C1553.07,1633.59 1548,1650 1548,1650L1532,1646.01Z" style="fill:rgb(25,35,51);"/>
                                    </g>
                                    <g transform="matrix(0.835294,0,0,0.523675,255.286,622.526)">
                                        <path d="M1535.99,1644.04C1535.99,1644.04 1534.13,1608.92 1538.59,1586C1543.26,1562 1555.26,1528.67 1563.59,1512C1568.97,1501.25 1582.26,1488.39 1588.59,1488.39C1594.92,1488.39 1596.83,1502.38 1598,1512C1599.5,1524.33 1590.09,1546 1586.42,1560C1583.02,1572.98 1574.59,1585 1568.42,1596C1562.63,1606.33 1555.29,1617 1550.62,1626C1546.68,1633.59 1544.01,1646.01 1544.01,1646.01L1535.99,1644.04Z" style="fill:rgb(49,57,91);"/>
                                    </g>
                                </g>
                                <g transform="matrix(1,0,0,1,-3.33084,-2.08822)">
                                    <g transform="matrix(1,0,0,0.626935,0,452.155)">
                                        <path d="M1513,1648.34C1513,1648.34 1512.5,1617.17 1510,1600C1507.62,1583.68 1505.21,1554.84 1502.04,1545.34C1500.84,1541.73 1496.41,1535.34 1492.67,1536C1484.17,1537.5 1450.17,1554.5 1447,1561C1443.83,1567.5 1465.08,1573.6 1472,1582C1479,1590.5 1485.17,1601.17 1489,1612C1492.83,1622.83 1495,1647 1495,1647L1513,1648.34Z" style="fill:rgb(25,35,51);"/>
                                    </g>
                                    <g transform="matrix(0.885093,0,0,0.626935,173.233,452.155)">
                                        <path d="M1507.6,1645.94C1507.6,1645.94 1505.1,1622.55 1497.6,1596.03C1489.53,1567.46 1476.27,1542.34 1471.76,1544.6C1460.44,1550.29 1448.79,1557.33 1447,1561C1443.83,1567.5 1465.08,1573.6 1472,1582C1479,1590.5 1485.17,1601.17 1489,1612C1492.83,1622.83 1495,1647 1495,1647L1507.6,1645.94Z" style="fill:rgb(49,57,91);"/>
                                    </g>
                                </g>
                                <g transform="matrix(1,0,0,0.626935,3.33084,452.155)">
                                    <path d="M1495,1541C1493.67,1545.67 1483.12,1548.53 1477,1552C1467,1557.67 1446.83,1570.17 1435,1575C1425.86,1578.73 1411.83,1581 1406,1581C1403.17,1581 1399.17,1577.7 1400,1575C1401.83,1569 1409.69,1553.87 1417,1545C1424.83,1535.5 1438.67,1523.33 1447,1518C1452.79,1514.3 1460.67,1512 1467,1513C1473.33,1514 1480.33,1519.33 1485,1524C1489.65,1528.65 1496.33,1536.33 1495,1541Z" style="fill:rgb(0,0,5);"/>
                                </g>
                            </g>
                        </g>
                        <g transform="matrix(0.981123,0.0895092,-0.193384,0.45412,441.843,530.475)">
                            <path d="M1605,1903C1605,1900.79 1603.21,1899 1601,1899C1598.79,1899 1597,1900.79 1597,1903L1597,1930C1597,1932.21 1598.79,1934 1601,1934C1603.21,1934 1605,1932.21 1605,1930L1605,1903Z" style="fill:rgb(25,35,51);"/>
                        </g>
                        <g transform="matrix(0.99017,0.0647391,-0.139869,0.458307,314.796,561.181)">
                            <path d="M1605,1903C1605,1900.79 1603.21,1899 1601,1899C1598.79,1899 1597,1900.79 1597,1903L1597,1930C1597,1932.21 1598.79,1934 1601,1934C1603.21,1934 1605,1932.21 1605,1930L1605,1903Z" style="fill:rgb(25,35,51);"/>
                        </g>
                    </g>
                </g>
            </g>
        </g>
    </g>
    <defs>
        <radialGradient id="_Radial3" cx="0" cy="0" r="1" gradientUnits="userSpaceOnUse" gradientTransform="matrix(32.0026,4.00033,-4.00033,32.0026,1660.77,1509.75)"><stop offset="0" style="stop-color:rgb(247,247,247);stop-opacity:1"/><stop offset="1" style="stop-color:rgb(225,236,244);stop-opacity:1"/></radialGradient>
        <radialGradient id="_Radial4" cx="0" cy="0" r="1" gradientUnits="userSpaceOnUse" gradientTransform="matrix(40,0,0,40,1668.66,1505.57)"><stop offset="0" style="stop-color:rgb(76,81,191);stop-opacity:1"/><stop offset="1" style="stop-color:rgb(36,39,99);stop-opacity:1"/></radialGradient>
        <radialGradient id="_Radial5" cx="0" cy="0" r="1" gradientUnits="userSpaceOnUse" gradientTransform="matrix(32.0026,4.00033,-4.00033,32.0026,1660.77,1509.75)"><stop offset="0" style="stop-color:rgb(247,247,247);stop-opacity:1"/><stop offset="1" style="stop-color:rgb(225,236,244);stop-opacity:1"/></radialGradient>
        <radialGradient id="_Radial6" cx="0" cy="0" r="1" gradientUnits="userSpaceOnUse" gradientTransform="matrix(40,0,0,40,1668.66,1505.57)"><stop offset="0" style="stop-color:rgb(76,81,191);stop-opacity:1"/><stop offset="1" style="stop-color:rgb(36,39,99);stop-opacity:1"/></radialGradient>
        <radialGradient id="_Radial7" cx="0" cy="0" r="1" gradientUnits="userSpaceOnUse" gradientTransform="matrix(32.5,0,0,32.1813,473,3023)"><stop offset="0" style="stop-color:rgb(46,55,72);stop-opacity:1"/><stop offset="1" style="stop-color:rgb(3,8,18);stop-opacity:1"/></radialGradient>
        <radialGradient id="_Radial8" cx="0" cy="0" r="1" gradientUnits="userSpaceOnUse" gradientTransform="matrix(32.5,0,0,32.1813,469,3019)"><stop offset="0" style="stop-color:rgb(46,55,72);stop-opacity:1"/><stop offset="1" style="stop-color:rgb(3,8,18);stop-opacity:1"/></radialGradient>
        <radialGradient id="_Radial9" cx="0" cy="0" r="1" gradientUnits="userSpaceOnUse" gradientTransform="matrix(707.041,-35.1045,28.918,464.674,600.736,2514.52)"><stop offset="0" style="stop-color:white;stop-opacity:1"/><stop offset="1" style="stop-color:rgb(212,212,212);stop-opacity:1"/></radialGradient>
        <radialGradient id="_Radial10" cx="0" cy="0" r="1" gradientUnits="userSpaceOnUse" gradientTransform="matrix(710.438,-4.87829,-3.30563,790.988,606.227,2523.81)"><stop offset="0" style="stop-color:rgb(252,252,252);stop-opacity:1"/><stop offset="1" style="stop-color:rgb(212,212,212);stop-opacity:1"/></radialGradient>
        <radialGradient id="_Radial11" cx="0" cy="0" r="1" gradientUnits="userSpaceOnUse" gradientTransform="matrix(519.759,-2.76074,1.55663,376.88,643.695,2510.72)"><stop offset="0" style="stop-color:rgb(46,55,72);stop-opacity:1"/><stop offset="1" style="stop-color:rgb(3,8,18);stop-opacity:1"/></radialGradient>
    </defs>
</svg>
