<?xml version="1.0" encoding="UTF-8" standalone="no"?>
<!DOCTYPE svg PUBLIC "-//W3C//DTD SVG 1.1//EN" "http://www.w3.org/Graphics/SVG/1.1/DTD/svg11.dtd">
<svg width="100%" height="100%" viewBox="0 0 68 52" version="1.1" xmlns="http://www.w3.org/2000/svg" xmlns:xlink="http://www.w3.org/1999/xlink" xml:space="preserve" xmlns:serif="http://www.serif.com/" style="fill-rule:evenodd;clip-rule:evenodd;stroke-linecap:round;stroke-linejoin:round;stroke-miterlimit:1.5;">
    <g transform="matrix(1,0,0,1,-1391,-4)">
        <g id="Plan-de-travail5" serif:id="Plan de travail5" transform="matrix(2.06061,0,0,1.56999,-1475.3,-2.27994)">
            <rect x="1391" y="4" width="33" height="33" style="fill:none;"/>
            <clipPath id="_clip1">
                <rect x="1391" y="4" width="33" height="33"/>
            </clipPath>
            <g clip-path="url(#_clip1)">
                <g transform="matrix(1.26549,0,0,1.99973,-177.296,-6.12418)">
                    <g transform="matrix(0.620879,0,0,0.515695,1093.31,-83.6368)">
                        <path d="M269,199C268.333,198.333 267.943,197 267,197C265.833,197 263.667,199 262,199C260.333,199 258.667,197.667 257,197" style="fill:none;stroke:rgb(51,51,51);stroke-width:0.31px;"/>
                    </g>
                    <g transform="matrix(0.284565,0,0,0.329619,333.955,-22.8445)">
                        <g transform="matrix(0.63037,0,0,0.168972,296.12,71.3575)">
                            <rect x="4695" y="197" width="2" height="125" style="fill:rgb(94,90,76);"/>
                        </g>
                        <g transform="matrix(0.63037,0,0,0.452012,296.12,15.5985)">
                            <path d="M4714,156C4701.22,152.719 4689.21,152.647 4678,156L4670,197C4687.16,201.999 4704.18,202.322 4721,197L4714,156Z" style="fill:rgb(64,72,91);"/>
                        </g>
                        <g transform="matrix(0.63037,0,0,0.452012,231.822,16)">
                            <path d="M4795.9,152.64C4797.74,152.599 4799.6,152.638 4801.47,152.755L4803.98,199.769C4800.63,200.011 4797.27,200.046 4793.9,199.882L4795.9,152.64ZM4792.89,152.778L4790.9,199.684C4788.11,199.451 4785.31,199.083 4782.51,198.583L4788.02,153.316C4789.62,153.071 4791.25,152.892 4792.89,152.778ZM4804.49,153.008C4805.93,153.16 4807.38,153.357 4808.84,153.598L4814.3,198.363C4811.86,198.855 4809.42,199.232 4806.97,199.499L4804.49,153.008ZM4784.93,153.869L4779.55,198.009C4777.04,197.48 4774.52,196.846 4772,196.112L4780,155.112C4781.62,154.626 4783.27,154.211 4784.93,153.869ZM4811.94,154.171C4813.28,154.448 4814.64,154.762 4816,155.112L4823,196.112C4821.08,196.718 4819.16,197.252 4817.24,197.713L4811.94,154.171Z" style="fill:rgb(39,48,64);"/>
                        </g>
                        <g transform="matrix(0.741611,0,0,0.101175,-227.384,92.1357)">
                            <path d="M4703.45,319C4702.19,315.24 4692.81,315.24 4691.55,319C4689.14,326.167 4689,362 4689,362C4694.4,364.085 4700.06,364.164 4706,362C4706,362 4705.86,326.167 4703.45,319Z" style="fill:rgb(39,48,64);"/>
                        </g>
                    </g>
                    <g transform="matrix(-0.237649,0,0,0.493029,3199.35,-857.515)">
                        <g transform="matrix(0.694447,0,0,0.694447,2574.26,518.211)">
                            <g transform="matrix(1,0,0,0.40036,-71.2148,664.621)">
                                <rect x="8151" y="2805" width="77.27" height="41" style="fill:rgb(45,55,72);"/>
                            </g>
                            <g transform="matrix(-0.190632,0,0,0.40036,9725.63,664.621)">
                                <path d="M8228.27,2805L8151,2802L8151,2843L8228.27,2846L8228.27,2805Z" style="fill:rgb(31,38,50);"/>
                            </g>
                            <g transform="matrix(-0.190632,0,0,0.40036,9725.63,664.621)">
                                <path d="M8228.27,2805L8151,2802L8556.34,2802L8633.6,2805L8228.27,2805Z" style="fill:rgb(67,80,103);"/>
                            </g>
                            <g transform="matrix(0.857642,0,0,0.0797137,1094.65,1565.97)">
                                <rect x="8151" y="2805" width="77.27" height="41" style="fill:rgb(247,250,252);"/>
                            </g>
                            <g transform="matrix(1,0,0,0.40036,-71.2148,655.013)">
                                <path d="M8201.64,2844L8222.77,2844L8222.77,2864.16L8156.5,2864.16L8156.5,2844L8177.64,2844C8177.64,2845.66 8183.01,2847 8189.64,2847C8196.26,2847 8201.64,2845.66 8201.64,2844Z" style="fill:rgb(76,116,191);"/>
                            </g>
                            <g transform="matrix(1,0,0,0.308859,-71.2148,937.538)">
                                <rect x="8151" y="2805" width="77.27" height="41" style="fill:rgb(45,55,72);"/>
                            </g>
                            <g transform="matrix(-0.190632,0,0,0.40036,9725.63,680.878)">
                                <path d="M8228.27,2805L8151,2802L8151,2833.63L8228.27,2836.63L8228.27,2805Z" style="fill:rgb(31,38,50);"/>
                            </g>
                            <g transform="matrix(0.857642,0,0,0.0797137,1094.65,1582.23)">
                                <rect x="8151" y="2805" width="77.27" height="41" style="fill:rgb(247,250,252);"/>
                            </g>
                            <g transform="matrix(1,0,0,0.40036,-71.2148,667.518)">
                                <path d="M8201.64,2853.37L8222.77,2853.37L8222.77,2864.16L8156.5,2864.16L8156.5,2853.37L8177.64,2853.37C8177.64,2855.03 8183.01,2856.37 8189.64,2856.37C8196.26,2856.37 8201.64,2855.03 8201.64,2853.37Z" style="fill:rgb(76,116,191);"/>
                            </g>
                        </g>
                    </g>
                    <g transform="matrix(0.172409,0,0,0.172483,1168.53,-52.4098)">
                        <g transform="matrix(0.143573,0,0,0.119199,395.792,62.0965)">
                            <circle cx="471.5" cy="3039.5" r="32.5" style="fill:url(#_Radial2);"/>
                        </g>
                        <g transform="matrix(0.143573,0,0,0.119199,430.824,61.9773)">
                            <circle cx="471.5" cy="3039.5" r="32.5" style="fill:url(#_Radial3);"/>
                        </g>
                        <g transform="matrix(0.0859746,0,0,0.0799138,425.734,204.982)">
                            <path d="M976,2519C976,2394.82 863.126,2294 724.097,2294L549.903,2294C410.874,2294 298,2394.82 298,2519C298,2643.18 410.874,2744 549.903,2744L724.097,2744C863.126,2744 976,2643.18 976,2519Z" style="fill:url(#_Radial4);"/>
                        </g>
                        <g transform="matrix(0.0487925,0,0,0.0405092,467.578,396.904)">
                            <path d="M275.253,168.794L278.106,49L188.256,290.014L344.423,181.629L430.708,267.196L342.284,328.519L318.039,308.553L302.351,363.459L340.145,394.12L512,275.04L351.554,113.175L275.253,168.794Z" style="fill:rgb(76,81,191);fill-rule:nonzero;"/>
                            <path d="M170.429,118.88L215.354,155.959L195.387,205.873L167.577,184.481L79.866,245.091L166.15,331.371L316.613,230.117L254.574,464L242.451,342.78L159.733,398.399L0,237.96L170.429,118.88Z" style="fill:rgb(45,55,72);fill-rule:nonzero;"/>
                        </g>
                        <g transform="matrix(0.106925,0,0,0.0913083,412.245,135.504)">
                            <path d="M976,2519C976,2394.82 872.301,2294 744.573,2294L529.427,2294C401.699,2294 298,2394.82 298,2519C298,2643.18 401.699,2744 529.427,2744L744.573,2744C872.301,2744 976,2643.18 976,2519Z" style="fill:url(#_Radial5);"/>
                        </g>
                        <g transform="matrix(0.0885009,0,0,0.0554545,423.981,231.886)">
                            <path d="M976,2519C976,2325.8 824.493,2267.77 640.604,2267.77C432.705,2267.77 298,2321.66 298,2519C298,2698.4 448.268,2759.18 638.094,2759.18C857.658,2759.18 976,2720.48 976,2519Z" style="fill:url(#_Radial6);"/>
                        </g>
                        <g transform="matrix(0.100707,0,0,0.0952977,414.313,129.641)">
                            <ellipse cx="527" cy="2564" rx="53" ry="64" style="fill:rgb(249,249,249);"/>
                        </g>
                        <g transform="matrix(0.100707,0,0,0.0952977,440.255,129.736)">
                            <ellipse cx="527" cy="2564" rx="53" ry="64" style="fill:rgb(249,249,249);"/>
                        </g>
                        <g transform="matrix(0.41416,5.04284e-18,-2.01667e-17,0.168832,223.503,348.25)">
                            <path d="M620.228,233.978C621.049,233.978 645.807,233.749 656.435,242.158C665.892,249.64 577.287,249.915 583.144,244.774C595.117,234.266 609.518,233.978 620.228,233.978Z" style="fill:rgb(208,208,208);"/>
                        </g>
                        <g transform="matrix(0.41416,5.04284e-18,-2.01667e-17,0.168832,223.503,348.25)">
                            <path d="M620.228,233.978C620.959,233.978 640.657,233.797 652.472,239.688C660.64,244.993 579.353,246.165 588.005,241.12C598.86,234.195 610.934,233.978 620.228,233.978Z" style="fill:rgb(164,164,164);"/>
                        </g>
                        <g transform="matrix(0.234435,4.04641e-18,-1.14154e-17,0.135472,334.969,356.401)">
                            <path d="M619.814,235.014C637.085,235.014 640.997,237.291 652.812,243.183C642.033,244.249 595.437,244.698 585.15,243.826C596.004,236.901 605.474,235.014 619.814,235.014Z" style="fill:rgb(14,14,14);"/>
                        </g>
                        <g transform="matrix(0.31599,-0.0044478,0.00824131,0.340632,283.754,323.431)">
                            <path d="M577.326,191.844C556.628,188.147 671.716,190.445 650.905,192.923C639.676,194.26 626.877,194.957 613.278,194.957C600.038,194.957 587.847,193.723 577.326,191.844Z" style="fill:rgb(208,208,208);"/>
                        </g>
                        <g transform="matrix(0.31599,-0.0044478,0.00824131,0.340632,283.754,323.431)">
                            <path d="M586.47,193.248C560.872,189.936 667.054,191.756 641.577,193.857C632.775,194.583 623.241,194.957 613.278,194.957C603.717,194.957 594.703,194.314 586.47,193.248Z" style="fill:rgb(164,164,164);"/>
                        </g>
                        <g transform="matrix(0.31599,-0.0044478,0.00824131,0.340632,283.754,323.431)">
                            <path d="M613.278,194.957C605.44,194.957 591.065,192.512 593.293,191.633C593.563,191.619 596.193,191.585 598.476,191.569C608.055,191.502 619.819,191.707 629.542,192.045C632.277,192.14 635.292,192.229 634.909,192.231C635.991,193.099 621.163,194.957 613.278,194.957Z" style="fill:rgb(9,9,9);"/>
                        </g>
                        <g transform="matrix(0.132548,0,0,0.0555925,349.848,-51.3914)">
                            <path d="M1003.9,7910.87L1003.55,7916.01C989.795,7928.37 976.857,7926.94 964.51,7916.01L964.54,7871.3C974.975,7871.63 990.477,7871.98 1003.55,7872.4L1003.76,7897.59L1010.43,7890.54L1010.45,7872.54C1011.97,7872.37 1018.82,7872.6 1020.28,7872.64L1020.13,7890.51L1003.9,7910.87Z" style="fill:rgb(23,23,23);"/>
                        </g>
                    </g>
                    <g transform="matrix(0.287368,0,0,0.18514,1198.11,-11.2469)">
                        <g transform="matrix(1.86792,0,0,1.86792,-34.566,-61.9811)">
                            <path d="M117.535,108L107.071,100.859L107.071,119.859L117,127L117.535,108Z" style="fill:rgb(219,214,223);"/>
                        </g>
                        <g transform="matrix(1.86792,0,0,1.86792,-34.566,-61.9811)">
                            <path d="M117,108L106.535,101.394L106.535,120.394L117,127L117,108Z" style="fill:rgb(249,249,250);"/>
                        </g>
                        <g transform="matrix(1.86792,0,0,1.86792,-34.566,-61.9811)">
                            <path d="M117,108L105.465,101.929L106.535,120.394L117,127L117,108Z" style="fill:rgb(239,237,241);"/>
                        </g>
                        <g transform="matrix(1.86792,0,0,1.86792,-37.5849,-61.9811)">
                            <path d="M117,108L106,103L106,122L117,127L117,108Z" style="fill:rgb(222,222,222);"/>
                        </g>
                        <g transform="matrix(-1.86792,0,0,1.86792,406.981,-61.9811)">
                            <path d="M118.606,108C115.103,105.508 110.731,102.555 108.141,100.555L108.141,119.859L118.606,127L118.606,108Z" style="fill:rgb(219,214,223);"/>
                        </g>
                        <g transform="matrix(-1.86792,0,0,1.86792,406.981,-61.9811)">
                            <path d="M117,108L107.071,100.859L107.071,119.859L117,127L117,108Z" style="fill:rgb(249,249,250);"/>
                        </g>
                        <g transform="matrix(-1.86792,0,0,1.86792,406.981,-61.9811)">
                            <path d="M117,108L106.535,101.394L106.535,120.394L117,127L117,108Z" style="fill:rgb(239,237,241);"/>
                        </g>
                        <g transform="matrix(-1.86792,0,0,1.86792,406.981,-61.9811)">
                            <path d="M117,108L106,103L106,122L117,127L117,108Z" style="fill:rgb(239,239,239);"/>
                        </g>
                        <g transform="matrix(0.0631198,-0.022525,0.00313353,0.0702604,-178.958,-997.884)">
                            <g transform="matrix(0.248402,0,0,0.247634,5049.96,17923)">
                                <path d="M275.253,168.794L278.106,49L188.256,290.014L344.423,181.629L430.708,267.196L342.284,328.519L318.039,308.553L302.351,363.459L340.145,394.12L512,275.04L351.554,113.175L275.253,168.794Z" style="fill:rgb(76,81,191);fill-rule:nonzero;"/>
                            </g>
                            <g transform="matrix(0.248402,0,0,0.247634,5049.96,17923)">
                                <path d="M170.429,118.88L215.354,155.959L195.387,205.873L167.577,184.481L79.866,245.091L166.15,331.371L316.613,230.117L254.574,464L242.451,342.78L159.733,398.399L0,237.96L170.429,118.88Z" style="fill:rgb(46,55,72);fill-rule:nonzero;"/>
                            </g>
                        </g>
                        <g transform="matrix(-1.86792,0,0,1.86792,406.981,-61.9811)">
                            <rect x="117" y="108" width="4" height="19" style="fill:rgb(231,231,231);"/>
                        </g>
                        <g transform="matrix(1,0,0,1,0,3)">
                            <path d="M180.962,136.755L160.415,127.415L162.283,127.415L181.709,136.245L187.687,136.245L207.113,127.415L208.981,127.415L188.434,136.755L180.962,136.755Z" style="fill:white;"/>
                        </g>
                        <g transform="matrix(-1.86792,0,0,1.86792,406.981,-61.9811)">
                            <path d="M117,108L121,108L117,108Z" style="fill:rgb(230,209,109);"/>
                        </g>
                    </g>
                </g>
            </g>
        </g>
    </g>
    <defs>
        <radialGradient id="_Radial2" cx="0" cy="0" r="1" gradientUnits="userSpaceOnUse" gradientTransform="matrix(32.5,0,0,32.1813,473,3023)"><stop offset="0" style="stop-color:rgb(46,55,72);stop-opacity:1"/><stop offset="1" style="stop-color:rgb(3,8,18);stop-opacity:1"/></radialGradient>
        <radialGradient id="_Radial3" cx="0" cy="0" r="1" gradientUnits="userSpaceOnUse" gradientTransform="matrix(32.5,0,0,32.1813,469,3019)"><stop offset="0" style="stop-color:rgb(46,55,72);stop-opacity:1"/><stop offset="1" style="stop-color:rgb(3,8,18);stop-opacity:1"/></radialGradient>
        <radialGradient id="_Radial4" cx="0" cy="0" r="1" gradientUnits="userSpaceOnUse" gradientTransform="matrix(707.041,-35.1045,28.918,464.674,600.736,2514.52)"><stop offset="0" style="stop-color:white;stop-opacity:1"/><stop offset="1" style="stop-color:rgb(212,212,212);stop-opacity:1"/></radialGradient>
        <radialGradient id="_Radial5" cx="0" cy="0" r="1" gradientUnits="userSpaceOnUse" gradientTransform="matrix(710.438,-4.87829,-3.30563,790.988,606.227,2523.81)"><stop offset="0" style="stop-color:rgb(252,252,252);stop-opacity:1"/><stop offset="1" style="stop-color:rgb(212,212,212);stop-opacity:1"/></radialGradient>
        <radialGradient id="_Radial6" cx="0" cy="0" r="1" gradientUnits="userSpaceOnUse" gradientTransform="matrix(519.759,-2.76074,1.55663,376.88,643.695,2510.72)"><stop offset="0" style="stop-color:rgb(46,55,72);stop-opacity:1"/><stop offset="1" style="stop-color:rgb(3,8,18);stop-opacity:1"/></radialGradient>
    </defs>
</svg>
