<?xml version="1.0" encoding="UTF-8" standalone="no"?>
<!DOCTYPE svg PUBLIC "-//W3C//DTD SVG 1.1//EN" "http://www.w3.org/Graphics/SVG/1.1/DTD/svg11.dtd">
<svg width="100%" height="100%" viewBox="0 0 312 499" version="1.1" xmlns="http://www.w3.org/2000/svg" xmlns:xlink="http://www.w3.org/1999/xlink" xml:space="preserve" xmlns:serif="http://www.serif.com/" style="fill-rule:evenodd;clip-rule:evenodd;stroke-linejoin:round;stroke-miterlimit:2;">
  <g transform="matrix(1,0,0,1,-210117,-183036)">
    <g id="Plan-de-travail1" serif:id="Plan de travail1" transform="matrix(0.0164991,0,0,0.0165406,210117,183035)">
      <rect x="0" y="85" width="18873" height="30121" style="fill:url(#_Radial1);"/>
      <clipPath id="_clip2">
        <rect x="0" y="85" width="18873" height="30121"/>
      </clipPath>
      <g clip-path="url(#_clip2)">
        <g transform="matrix(9.31508e-18,0.244824,-2.70338,1.68226e-16,56376.8,-26867.7)">
          <path d="M122816,14156C122816,14153.9 122797,14152.2 122774,14152.2L110058,14149.9C110021,14149.9 109991,14152.6 109991,14156C109991,14156 109946,16122.4 109921,17825C109901,19124.9 109894,20271 109894,20271C109894,20279.2 109968,20285.9 110058,20285.9L122774,20286C122865,20286 122939,20279.3 122939,20271C122939,20271 122930,19124.9 122905,17825C122873,16122.4 122816,14156 122816,14156ZM110125,14162.1C110128,14282.8 110171,16177.4 110195,17825C110213,19038.6 110221,20118.1 110222,20256.1L122609,20256C122610,20117.7 122620,19038.3 122643,17825C122675,16165.8 122729,14256.1 122732,14159.8L110125,14162.1Z" style="fill:rgb(221,148,57);"/>
        </g>
        <g transform="matrix(8.13375e-18,0.27431,-0.992804,6.14784e-17,19928.5,-30119)">
          <path d="M122811,14156C122811,14150.3 122795,14145.7 122774,14145.7L110058,14131.8C110010,14131.8 109971,14142.6 109971,14156C109971,14156 109948,15684.7 109934,17213.5C109919,18742.3 109912,20271 109912,20271C109912,20293.3 109977,20311.5 110058,20311.5C110058,20311.5 112441,20312.5 115144,20311.8C118685,20311 122774,20307.5 122774,20307.5C122847,20307.5 122906,20291.2 122906,20271C122906,20271 122889,18742.3 122865,17213.5C122841,15684.7 122811,14156 122811,14156ZM110146,14180.1C110149,14380.4 110169,15796.9 110182,17213.5C110196,18596.3 110203,19979 110204,20230.5C110760,20230.3 112836,20229.6 115144,20230.2C118311,20230.9 121916,20233.8 122643,20234.4C122645,19993.4 122661,18603.4 122683,17213.5C122706,15758 122734,14302.5 122737,14166.3L110146,14180.1Z" style="fill:rgb(221,148,57);"/>
        </g>
        <g transform="matrix(1.43042e-17,0.27431,-0.289082,1.8496e-17,23024.5,-30119)">
          <path d="M122811,14156C122811,14136.5 122795,14120.6 122774,14120.6L110058,14039.4C109990,14039.4 109935,14091.6 109935,14156L109912,20271C109912,20347.8 109977,20410 110058,20410C110058,20410 112441,20413.9 115144,20404.6C118685,20392.5 122774,20360.3 122774,20360.3C122826,20360.3 122868,20320.3 122868,20271L122811,14156ZM122681,20181L122736,14191.6L110181,14271.8L110204,20131.9C110760,20131.2 112835,20129.5 115144,20137.4C118371,20148.5 122054,20176.2 122681,20181Z" style="fill:rgb(221,148,57);"/>
        </g>
        <g transform="matrix(4.45968e-18,0.311407,-1.56768,9.6645e-17,34766.6,-34135.4)">
          <path d="M122807,14156C122807,14152.4 122792,14149.5 122774,14149.5L110058,14142.3C110020,14142.3 109989,14148.4 109989,14156C109989,14156 109967,15684.7 109952,17213.5C109937,18742.2 109929,20271 109929,20271C109929,20285.2 109987,20296.6 110058,20296.6L122774,20295.2C122841,20295.2 122896,20284.4 122896,20271C122896,20271 122881,18742.3 122859,17213.5C122837,15684.7 122807,14156 122807,14156ZM110127,14169.7C110129,14324.5 110150,15769 110164,17213.5C110178,18626.5 110186,20039.5 110187,20245.4L122653,20246.8C122655,20046 122669,18629.7 122689,17213.5C122710,15742.8 122739,14272.2 122741,14162.5L110127,14169.7Z" style="fill:rgb(221,148,57);"/>
        </g>
        <g transform="matrix(1.50691,0,0,0.233391,-165962,-3295.91)">
          <rect x="110058" y="14156" width="12716" height="6115" style="fill:rgb(25,15,25);"/>
          <path d="M122781,14156C122781,14131.9 122778,14112.3 122774,14112.3C122774,14112.3 118685,14058.6 115144,14025.4C112441,13999.9 110058,13987.7 110058,13987.7C110044,13987.7 110032,14063 110032,14156L110031,20271C110031,20365.8 110043,20442.7 110058,20442.7C110058,20442.7 110874,20447.5 112093,20444.2C112957,20441.8 114023,20435.9 115144,20425.4C118685,20392.3 122774,20329.7 122774,20329.7C122779,20329.7 122783,20303.4 122783,20271L122781,14156ZM122767,14199.8C122580,14202.2 118601,14254.1 115144,14286.6C112606,14310.5 110350,14322.8 110084,14324.2L110085,20099.2C110234,20098.4 111002,20094.9 112093,20097.8C112957,20100.2 114023,20106.1 115144,20116.6C118588,20148.8 122550,20208.9 122765,20212.2L122767,14199.8Z" style="fill:rgb(221,148,57);"/>
        </g>
        <g transform="matrix(1.52103,0,0,0.210099,-167698,-3288.49)">
          <rect x="110058" y="14156" width="12716" height="6115" style="fill:rgb(25,15,25);"/>
          <path d="M122781,14156C122781,14129.2 122778,14107.4 122774,14107.4C122774,14107.4 118685,14047.4 115144,14010.3C112441,13981.9 110058,13968.4 110058,13968.4C110044,13968.4 110032,14052.4 110032,14156L110032,20271C110032,20376.3 110043,20461.7 110058,20461.7C110058,20461.7 110874,20467.1 112093,20463.3C112957,20460.7 114023,20454 115144,20442.2C118685,20404.9 122774,20334.5 122774,20334.5C122779,20334.5 122783,20306.1 122783,20271L122781,14156ZM122767,14204.7C122582,14207.4 118602,14265.5 115144,14301.7C112606,14328.3 110349,14341.9 110084,14343.4L110084,20080.1C110233,20079.2 111002,20075.3 112093,20078.7C112957,20081.3 114023,20088 115144,20099.8C118590,20136.1 122554,20203.7 122765,20207.3L122767,14204.7Z" style="fill:rgb(221,148,57);"/>
        </g>
        <g transform="matrix(1.02478e-17,0.278105,-3.22869,2.00734e-16,64812.3,-3892.67)">
          <path d="M122811,14156C122811,14154.3 122794,14152.8 122774,14152.8L110058,14151C110026,14151 110000,14153.2 110000,14156C110000,14156 109960,16122.4 109937,17825C109920,19124.9 109914,20271 109914,20271C109914,20277.9 109978,20283.4 110058,20283.4L122774,20283.5C122854,20283.5 122919,20277.9 122919,20271C122919,20271 122912,19124.9 122890,17825C122861,16122.4 122811,14156 122811,14156ZM110116,14161C110118,14271 110157,16172.3 110179,17825C110195,19046 110201,20131.3 110202,20258.6L122629,20258.5C122630,20130.8 122638,19045.7 122658,17825C122686,16162.1 122735,14247.5 122737,14159.2L110116,14161Z" style="fill:rgb(221,148,57);"/>
        </g>
        <g transform="matrix(1.43418e-17,0.293328,-0.417932,2.64242e-17,7819.83,-5936.94)">
          <path d="M122809,14156C122809,14142.5 122793,14131.5 122774,14131.5L110058,14080.3C109999,14080.3 109950,14114.2 109950,14156L109921,20271C109921,20324.1 109983,20367.1 110058,20367.1C110058,20367.1 112441,20370.1 115144,20365C118685,20358.3 122774,20339.3 122774,20339.3C122828,20339.3 122871,20308.7 122871,20271L122809,14156ZM122678,20202.3L122739,14180.6L110166,14231.2L110194,20174.7C110736,20174.2 112822,20172.6 115144,20177C118366,20183.1 122041,20199.4 122678,20202.3Z" style="fill:rgb(221,148,57);"/>
        </g>
        <g transform="matrix(1.22314e-17,0.302836,-0.725191,4.52202e-17,29651.7,-6983.46)">
          <path d="M122808,14156C122808,14148.2 122793,14141.9 122774,14141.9L110058,14118C110008,14118 109967,14135 109967,14156L109926,20271C109926,20301.6 109985,20326.4 110058,20326.4C110058,20326.4 113237,20327.8 116416,20325.3C119595,20322.9 122774,20316.7 122774,20316.7C122834,20316.7 122883,20296.2 122883,20271L122808,14156ZM122665,20225.1L122740,14170.2L110149,14193.8L110190,20215.6C110822,20215.3 113619,20214.5 116416,20216.7C119249,20218.8 122083,20224 122665,20225.1Z" style="fill:rgb(221,148,57);"/>
        </g>
        <g transform="matrix(8.42284e-17,1.70445,-2.18219,1.38176e-16,46999.7,-179011)">
          <rect x="110058" y="14156" width="12716" height="6115" style="fill:rgb(24,14,24);"/>
          <path d="M122780,14156C122780,14153.4 122777,14151.3 122774,14151.3L110058,14141.2C110048,14141.2 110039,14147.8 110039,14156L110034,20271C110034,20281.2 110045,20289.4 110058,20289.4C110058,20289.4 112441,20290 115144,20288.9C118685,20287.5 122774,20283.6 122774,20283.6C122783,20283.6 122790,20278 122790,20271L122780,14156ZM122758,20258.4L122768,14160.7L110077,14170.8L110081,20252.6C110335,20252.5 112598,20252.1 115144,20253.1C118556,20254.5 122476,20258.1 122758,20258.4Z" style="fill:rgb(221,148,57);"/>
        </g>
        <g transform="matrix(7.78849e-17,1.57608,-2.01784,1.27769e-16,44248.9,-164218)">
          <rect x="110058" y="14156" width="12716" height="6115" style="fill:rgb(24,14,24);"/>
          <path d="M122780,14156C122780,14153.2 122778,14150.9 122774,14150.9L110058,14140C110047,14140 110038,14147.1 110038,14156L110033,20271C110033,20282 110044,20290.9 110058,20290.9C110058,20290.9 112441,20291.5 115144,20290.3C118685,20288.8 122774,20284.7 122774,20284.7C122784,20284.7 122791,20278.5 122791,20271L122780,14156ZM122757,20257.3L122768,14161.1L110079,14172L110083,20251.1C110346,20251 112604,20250.6 115144,20251.7C118551,20253.1 122465,20257 122757,20257.3Z" style="fill:rgb(221,148,57);"/>
        </g>
        <g transform="matrix(1.84532,0,0,0.322371,-206268,23654.2)">
          <rect x="110058" y="14156" width="12716" height="6115" style="fill:rgb(25,15,25);"/>
          <path d="M122780,14156C122780,14138.5 122777,14124.4 122774,14124.4C122774,14124.4 118685,14085.9 115144,14061.9C112441,14043.5 110058,14034.6 110058,14034.6C110046,14034.6 110037,14088.9 110037,14156L110036,20271C110036,20339.7 110046,20395.3 110058,20395.3C110058,20395.3 110874,20398.7 112093,20396.4C112957,20394.7 114023,20390.5 115144,20383C118685,20359.4 122774,20314.8 122774,20314.8C122778,20314.8 122782,20295.2 122782,20271L122780,14156ZM122768,14187.7C122599,14189.3 118609,14226.6 115144,14250.1C112590,14267.5 110321,14276.4 110079,14277.4L110080,20146.6C110217,20146.1 110990,20143.5 112093,20145.6C112957,20147.3 114023,20151.5 115144,20159C118596,20182 122569,20225 122766,20227.1L122768,14187.7Z" style="fill:rgb(221,148,57);"/>
        </g>
        <g transform="matrix(1.60205,0,0,0.3584,-177010,23547.4)">
          <rect x="110058" y="14156" width="12716" height="6115" style="fill:rgb(25,15,25);"/>
          <path d="M122780,14156C122780,14140.3 122778,14127.5 122774,14127.5C122774,14127.5 118685,14093.7 115144,14072.3C112441,14056 110058,14047.7 110058,14047.7C110045,14047.7 110034,14096.2 110034,14156L110033,20271C110033,20332.8 110044,20382.8 110058,20382.8C110058,20382.8 111106,20385.9 112601,20382.8C113360,20381.2 114234,20377.7 115144,20372.3C118685,20351.2 122774,20313.1 122774,20313.1C122779,20313.1 122783,20294.2 122783,20271L122780,14156ZM122768,14184.5C122587,14186 118604,14218.8 115144,14239.7C112600,14255.1 110339,14263.3 110082,14264.2L110083,20159.1C110250,20158.7 111241,20156.4 112601,20159.2C113360,20160.8 114234,20164.3 115144,20169.7C118586,20190.2 122546,20226.8 122765,20228.8L122768,14184.5Z" style="fill:rgb(221,148,57);"/>
        </g>
        <g transform="matrix(-3.55392e-17,-0.473071,-0.249436,6.92431e-18,20245.7,73036.7)">
          <rect x="110058" y="14156" width="12716" height="6115" style="fill:rgb(24,14,24);"/>
          <path d="M122774,14115C122786,14115 122796,14133.4 122796,14156L122816,20271C122816,20314.9 122797,20350.5 122774,20350.5C122774,20350.5 118685,20395.9 115144,20420.8C114234,20427.2 113360,20431.5 112601,20433.2C111106,20436.5 110058,20432.1 110058,20432.1C110011,20432.1 109973,20360 109973,20271L109980,14156C109980,14074.1 110015,14007.7 110058,14007.7C110058,14007.7 112441,14021.5 115144,14043.7C118685,14072.8 122774,14115 122774,14115ZM122752,14197.2L122732,20191C122294,20186.2 118476,20144.7 115144,20121.2C114234,20114.8 113360,20110.5 112601,20108.8C111355,20106 110420,20108.7 110143,20109.6L110136,14303.8C110568,14301.2 112728,14288.1 115144,14268.3C118535,14240.4 122428,14200.6 122752,14197.2Z" style="fill:rgb(221,148,57);"/>
        </g>
        <g transform="matrix(-3.1149e-17,-0.473071,-0.0809387,-3.36725e-18,17072.5,73036.7)">
          <rect x="110058" y="14156" width="12716" height="6115" style="fill:rgb(24,14,24);"/>
          <path d="M122774,14029.6C122786,14029.6 122796,14086.2 122796,14156L122804,20271C122804,20366.9 122790,20444.7 122774,20444.7C122774,20444.7 118685,20623.4 115144,20718C114023,20748 112957,20765 112093,20771.7C110874,20781.1 110058,20767.4 110058,20767.4C110011,20767.4 109973,20545.1 109973,20271L109975,14156C109975,14027.3 109984,13903.9 109999,13812.9C110015,13721.8 110036,13670.7 110058,13670.7C110058,13670.7 112441,13706.5 115144,13779.7C118685,13875.7 122774,14029.6 122774,14029.6ZM122752,14283.2L122745,20096.1C122371,20079.9 118510,19913.9 115144,19824C114023,19794 112957,19777 112093,19770.3C111104,19762.7 110381,19770.3 110143,19773.5L110141,14639.9C110584,14633 112737,14597.5 115144,14532.3C118535,14440.4 122428,14295.3 122752,14283.2Z" style="fill:rgb(221,148,57);"/>
        </g>
        <g transform="matrix(3.01545,0,0,3.00788,3706.43,18428.8)">
          <g>
            <g transform="matrix(243.714,0,0,243.714,240.758,394)">
              <path d="M0.267,-0L0.376,-0L0.376,-0.61L0.598,-0.61L0.598,-0.705L0.045,-0.705L0.045,-0.61L0.267,-0.61L0.267,-0Z" style="fill:rgb(231,231,231);fill-rule:nonzero;"/>
            </g>
            <g transform="matrix(243.714,0,0,243.714,394.554,394)">
              <path d="M0.088,-0L0.198,-0L0.198,-0.312L0.559,-0.312L0.559,-0L0.669,-0L0.669,-0.705L0.559,-0.705L0.559,-0.407L0.198,-0.407L0.198,-0.705L0.088,-0.705L0.088,-0Z" style="fill:rgb(231,231,231);fill-rule:nonzero;"/>
            </g>
            <g transform="matrix(243.714,0,0,243.714,577.149,394)">
              <path d="M0.088,-0L0.536,-0L0.536,-0.095L0.198,-0.095L0.198,-0.313L0.518,-0.313L0.518,-0.404L0.198,-0.404L0.198,-0.61L0.536,-0.61L0.536,-0.705L0.088,-0.705L0.088,-0Z" style="fill:rgb(231,231,231);fill-rule:nonzero;"/>
            </g>
            <g transform="matrix(243.714,0,0,243.714,786.091,394)">
              <path d="M0.327,0.017C0.381,0.017 0.429,0.008 0.469,-0.01C0.51,-0.028 0.541,-0.053 0.563,-0.086C0.585,-0.118 0.596,-0.157 0.596,-0.202L0.596,-0.203C0.596,-0.255 0.58,-0.296 0.547,-0.328C0.515,-0.359 0.462,-0.382 0.388,-0.398L0.311,-0.415C0.265,-0.425 0.233,-0.438 0.213,-0.456C0.193,-0.473 0.183,-0.495 0.183,-0.521L0.183,-0.521C0.183,-0.544 0.189,-0.563 0.201,-0.578C0.214,-0.594 0.231,-0.606 0.252,-0.614C0.274,-0.622 0.298,-0.626 0.326,-0.626C0.354,-0.627 0.379,-0.623 0.4,-0.614C0.421,-0.605 0.439,-0.594 0.451,-0.579C0.464,-0.564 0.472,-0.547 0.475,-0.527L0.476,-0.521L0.583,-0.521L0.583,-0.527C0.58,-0.564 0.568,-0.597 0.546,-0.626C0.524,-0.656 0.495,-0.679 0.458,-0.696C0.42,-0.713 0.377,-0.722 0.327,-0.722C0.277,-0.722 0.233,-0.713 0.195,-0.696C0.156,-0.679 0.126,-0.654 0.105,-0.624C0.083,-0.593 0.072,-0.557 0.072,-0.516L0.072,-0.516C0.072,-0.464 0.088,-0.421 0.121,-0.387C0.153,-0.354 0.205,-0.33 0.276,-0.314L0.354,-0.298C0.4,-0.288 0.434,-0.274 0.454,-0.256C0.475,-0.238 0.485,-0.216 0.485,-0.189L0.485,-0.188C0.485,-0.167 0.478,-0.148 0.465,-0.131C0.452,-0.115 0.434,-0.102 0.411,-0.092C0.388,-0.083 0.361,-0.078 0.332,-0.078C0.3,-0.078 0.272,-0.083 0.247,-0.091C0.223,-0.1 0.203,-0.112 0.189,-0.128C0.174,-0.144 0.166,-0.162 0.164,-0.183L0.163,-0.188L0.055,-0.188L0.056,-0.182C0.059,-0.143 0.072,-0.108 0.095,-0.078C0.118,-0.048 0.149,-0.025 0.188,-0.008C0.227,0.009 0.274,0.017 0.327,0.017Z" style="fill:rgb(231,231,231);fill-rule:nonzero;"/>
            </g>
            <g transform="matrix(243.714,0,0,243.714,942.862,394)">
              <path d="M0.088,-0L0.536,-0L0.536,-0.095L0.198,-0.095L0.198,-0.313L0.518,-0.313L0.518,-0.404L0.198,-0.404L0.198,-0.61L0.536,-0.61L0.536,-0.705L0.088,-0.705L0.088,-0Z" style="fill:rgb(231,231,231);fill-rule:nonzero;"/>
            </g>
            <g transform="matrix(243.714,0,0,243.714,1089.64,394)">
              <path d="M0.377,0.017C0.43,0.017 0.477,0.008 0.519,-0.011C0.56,-0.03 0.594,-0.056 0.62,-0.09C0.646,-0.124 0.663,-0.163 0.67,-0.208L0.67,-0.211L0.561,-0.211L0.56,-0.209C0.554,-0.183 0.542,-0.16 0.525,-0.14C0.508,-0.121 0.487,-0.106 0.462,-0.096C0.437,-0.085 0.409,-0.08 0.378,-0.08C0.336,-0.08 0.299,-0.091 0.268,-0.113C0.238,-0.135 0.214,-0.167 0.197,-0.208C0.18,-0.248 0.172,-0.296 0.172,-0.352L0.172,-0.353C0.172,-0.409 0.18,-0.457 0.197,-0.497C0.214,-0.538 0.238,-0.569 0.268,-0.591C0.299,-0.613 0.335,-0.625 0.377,-0.625C0.408,-0.625 0.436,-0.619 0.461,-0.607C0.486,-0.595 0.508,-0.579 0.525,-0.558C0.542,-0.536 0.554,-0.511 0.561,-0.482L0.561,-0.48L0.67,-0.48L0.67,-0.483C0.664,-0.53 0.648,-0.571 0.621,-0.607C0.594,-0.643 0.56,-0.671 0.518,-0.691C0.476,-0.712 0.429,-0.722 0.377,-0.722C0.312,-0.722 0.256,-0.707 0.208,-0.677C0.16,-0.647 0.124,-0.604 0.098,-0.549C0.072,-0.494 0.06,-0.429 0.06,-0.353L0.06,-0.352C0.06,-0.276 0.072,-0.21 0.098,-0.155C0.124,-0.1 0.161,-0.058 0.208,-0.028C0.256,0.002 0.312,0.017 0.377,0.017Z" style="fill:rgb(231,231,231);fill-rule:nonzero;"/>
            </g>
            <g transform="matrix(243.714,0,0,243.714,1269.02,394)">
              <path d="M0.088,-0L0.198,-0L0.198,-0.271L0.352,-0.271L0.496,-0L0.622,-0L0.464,-0.288C0.507,-0.302 0.541,-0.328 0.565,-0.364C0.589,-0.399 0.601,-0.441 0.601,-0.489L0.601,-0.49C0.601,-0.533 0.592,-0.571 0.573,-0.603C0.553,-0.635 0.526,-0.66 0.491,-0.678C0.456,-0.696 0.414,-0.705 0.366,-0.705L0.088,-0.705L0.088,-0ZM0.198,-0.36L0.198,-0.613L0.352,-0.613C0.395,-0.613 0.428,-0.602 0.452,-0.579C0.476,-0.557 0.488,-0.526 0.488,-0.487L0.488,-0.486C0.488,-0.446 0.476,-0.415 0.453,-0.393C0.43,-0.371 0.397,-0.36 0.355,-0.36L0.198,-0.36Z" style="fill:rgb(231,231,231);fill-rule:nonzero;"/>
            </g>
            <g transform="matrix(243.714,0,0,243.714,1427.22,394)">
              <path d="M0.088,-0L0.536,-0L0.536,-0.095L0.198,-0.095L0.198,-0.313L0.518,-0.313L0.518,-0.404L0.198,-0.404L0.198,-0.61L0.536,-0.61L0.536,-0.705L0.088,-0.705L0.088,-0Z" style="fill:rgb(231,231,231);fill-rule:nonzero;"/>
            </g>
            <g transform="matrix(243.714,0,0,243.714,1573.99,394)">
              <path d="M0.267,-0L0.376,-0L0.376,-0.61L0.598,-0.61L0.598,-0.705L0.045,-0.705L0.045,-0.61L0.267,-0.61L0.267,-0Z" style="fill:rgb(231,231,231);fill-rule:nonzero;"/>
            </g>
            <g transform="matrix(243.714,0,0,243.714,1789.96,394)">
              <path d="M0.267,-0L0.376,-0L0.376,-0.61L0.598,-0.61L0.598,-0.705L0.045,-0.705L0.045,-0.61L0.267,-0.61L0.267,-0Z" style="fill:rgb(231,231,231);fill-rule:nonzero;"/>
            </g>
            <g transform="matrix(243.714,0,0,243.714,1933.04,394)">
              <path d="M0.389,0.017C0.456,0.017 0.515,0.002 0.564,-0.028C0.614,-0.059 0.651,-0.101 0.678,-0.156C0.704,-0.212 0.717,-0.277 0.717,-0.352L0.717,-0.353C0.717,-0.429 0.704,-0.494 0.677,-0.549C0.651,-0.604 0.613,-0.647 0.564,-0.677C0.515,-0.707 0.456,-0.722 0.389,-0.722C0.321,-0.722 0.263,-0.707 0.214,-0.677C0.164,-0.647 0.126,-0.604 0.1,-0.549C0.073,-0.494 0.06,-0.429 0.06,-0.353L0.06,-0.352C0.06,-0.277 0.073,-0.212 0.099,-0.156C0.125,-0.101 0.163,-0.058 0.212,-0.028C0.262,0.002 0.32,0.017 0.389,0.017ZM0.389,-0.08C0.343,-0.08 0.305,-0.091 0.272,-0.114C0.24,-0.136 0.215,-0.168 0.198,-0.209C0.18,-0.25 0.171,-0.297 0.171,-0.352L0.171,-0.353C0.171,-0.408 0.18,-0.456 0.198,-0.497C0.216,-0.538 0.241,-0.569 0.274,-0.591C0.306,-0.613 0.344,-0.625 0.389,-0.625C0.433,-0.625 0.471,-0.613 0.504,-0.591C0.536,-0.569 0.562,-0.538 0.579,-0.497C0.597,-0.456 0.605,-0.408 0.605,-0.353L0.605,-0.352C0.605,-0.297 0.597,-0.25 0.579,-0.209C0.562,-0.168 0.536,-0.136 0.504,-0.114C0.471,-0.091 0.433,-0.08 0.389,-0.08Z" style="fill:rgb(231,231,231);fill-rule:nonzero;"/>
            </g>
            <g transform="matrix(243.714,0,0,243.714,2185.66,394)">
              <path d="M0.373,0.017C0.432,0.017 0.483,0.006 0.526,-0.016C0.568,-0.037 0.601,-0.068 0.624,-0.107C0.647,-0.146 0.658,-0.191 0.658,-0.243L0.658,-0.705L0.548,-0.705L0.548,-0.251C0.548,-0.2 0.533,-0.159 0.503,-0.127C0.473,-0.096 0.429,-0.08 0.373,-0.08C0.317,-0.08 0.274,-0.096 0.243,-0.127C0.213,-0.159 0.197,-0.2 0.197,-0.251L0.197,-0.705L0.087,-0.705L0.087,-0.243C0.087,-0.191 0.099,-0.146 0.122,-0.107C0.145,-0.068 0.178,-0.037 0.221,-0.016C0.263,0.006 0.314,0.017 0.373,0.017Z" style="fill:rgb(231,231,231);fill-rule:nonzero;"/>
            </g>
            <g transform="matrix(243.714,0,0,243.714,2367.54,394)">
              <path d="M0.088,-0L0.195,-0L0.195,-0.511L0.25,-0.511L0.175,-0.55L0.564,-0L0.664,-0L0.664,-0.705L0.557,-0.705L0.557,-0.193L0.501,-0.193L0.576,-0.154L0.188,-0.705L0.088,-0.705L0.088,-0Z" style="fill:rgb(231,231,231);fill-rule:nonzero;"/>
            </g>
            <g transform="matrix(243.714,0,0,243.714,2550.13,394)">
              <path d="M0.088,-0L0.528,-0L0.528,-0.095L0.198,-0.095L0.198,-0.705L0.088,-0.705L0.088,-0Z" style="fill:rgb(231,231,231);fill-rule:nonzero;"/>
            </g>
            <g transform="matrix(243.714,0,0,243.714,2682.99,394)">
              <path d="M0.389,0.017C0.456,0.017 0.515,0.002 0.564,-0.028C0.614,-0.059 0.651,-0.101 0.678,-0.156C0.704,-0.212 0.717,-0.277 0.717,-0.352L0.717,-0.353C0.717,-0.429 0.704,-0.494 0.677,-0.549C0.651,-0.604 0.613,-0.647 0.564,-0.677C0.515,-0.707 0.456,-0.722 0.389,-0.722C0.321,-0.722 0.263,-0.707 0.214,-0.677C0.164,-0.647 0.126,-0.604 0.1,-0.549C0.073,-0.494 0.06,-0.429 0.06,-0.353L0.06,-0.352C0.06,-0.277 0.073,-0.212 0.099,-0.156C0.125,-0.101 0.163,-0.058 0.212,-0.028C0.262,0.002 0.32,0.017 0.389,0.017ZM0.389,-0.08C0.343,-0.08 0.305,-0.091 0.272,-0.114C0.24,-0.136 0.215,-0.168 0.198,-0.209C0.18,-0.25 0.171,-0.297 0.171,-0.352L0.171,-0.353C0.171,-0.408 0.18,-0.456 0.198,-0.497C0.216,-0.538 0.241,-0.569 0.274,-0.591C0.306,-0.613 0.344,-0.625 0.389,-0.625C0.433,-0.625 0.471,-0.613 0.504,-0.591C0.536,-0.569 0.562,-0.538 0.579,-0.497C0.597,-0.456 0.605,-0.408 0.605,-0.353L0.605,-0.352C0.605,-0.297 0.597,-0.25 0.579,-0.209C0.562,-0.168 0.536,-0.136 0.504,-0.114C0.471,-0.091 0.433,-0.08 0.389,-0.08Z" style="fill:rgb(231,231,231);fill-rule:nonzero;"/>
            </g>
            <g transform="matrix(243.714,0,0,243.714,2873.44,394)">
              <path d="M0.377,0.017C0.43,0.017 0.477,0.008 0.519,-0.011C0.56,-0.03 0.594,-0.056 0.62,-0.09C0.646,-0.124 0.663,-0.163 0.67,-0.208L0.67,-0.211L0.561,-0.211L0.56,-0.209C0.554,-0.183 0.542,-0.16 0.525,-0.14C0.508,-0.121 0.487,-0.106 0.462,-0.096C0.437,-0.085 0.409,-0.08 0.378,-0.08C0.336,-0.08 0.299,-0.091 0.268,-0.113C0.238,-0.135 0.214,-0.167 0.197,-0.208C0.18,-0.248 0.172,-0.296 0.172,-0.352L0.172,-0.353C0.172,-0.409 0.18,-0.457 0.197,-0.497C0.214,-0.538 0.238,-0.569 0.268,-0.591C0.299,-0.613 0.335,-0.625 0.377,-0.625C0.408,-0.625 0.436,-0.619 0.461,-0.607C0.486,-0.595 0.508,-0.579 0.525,-0.558C0.542,-0.536 0.554,-0.511 0.561,-0.482L0.561,-0.48L0.67,-0.48L0.67,-0.483C0.664,-0.53 0.648,-0.571 0.621,-0.607C0.594,-0.643 0.56,-0.671 0.518,-0.691C0.476,-0.712 0.429,-0.722 0.377,-0.722C0.312,-0.722 0.256,-0.707 0.208,-0.677C0.16,-0.647 0.124,-0.604 0.098,-0.549C0.072,-0.494 0.06,-0.429 0.06,-0.353L0.06,-0.352C0.06,-0.276 0.072,-0.21 0.098,-0.155C0.124,-0.1 0.161,-0.058 0.208,-0.028C0.256,0.002 0.312,0.017 0.377,0.017Z" style="fill:rgb(231,231,231);fill-rule:nonzero;"/>
            </g>
            <g transform="matrix(243.714,0,0,243.714,3052.82,394)">
              <path d="M0.188,-0.224L0.287,-0.335L0.345,-0.388L0.627,-0.705L0.497,-0.705L0.206,-0.372L0.183,-0.372L0.188,-0.224ZM0.088,-0L0.198,-0L0.198,-0.705L0.088,-0.705L0.088,-0ZM0.513,-0L0.65,-0L0.346,-0.411L0.269,-0.336L0.513,-0Z" style="fill:rgb(231,231,231);fill-rule:nonzero;"/>
            </g>
            <g transform="matrix(243.714,0,0,243.714,3211.37,394)">
              <rect x="0.088" y="-0.705" width="0.109" height="0.705" style="fill:rgb(231,231,231);fill-rule:nonzero;"/>
            </g>
            <g transform="matrix(243.714,0,0,243.714,3278.3,394)">
              <path d="M0.088,-0L0.195,-0L0.195,-0.511L0.25,-0.511L0.175,-0.55L0.564,-0L0.664,-0L0.664,-0.705L0.557,-0.705L0.557,-0.193L0.501,-0.193L0.576,-0.154L0.188,-0.705L0.088,-0.705L0.088,-0Z" style="fill:rgb(231,231,231);fill-rule:nonzero;"/>
            </g>
            <g transform="matrix(243.714,0,0,243.714,3460.9,394)">
              <path d="M0.386,0.017C0.447,0.017 0.501,0.005 0.546,-0.019C0.592,-0.044 0.627,-0.078 0.652,-0.122C0.677,-0.166 0.69,-0.218 0.69,-0.277L0.69,-0.365L0.4,-0.365L0.4,-0.276L0.582,-0.276L0.581,-0.261C0.581,-0.225 0.572,-0.193 0.556,-0.166C0.54,-0.139 0.517,-0.118 0.488,-0.103C0.459,-0.088 0.425,-0.08 0.387,-0.08C0.343,-0.08 0.305,-0.091 0.272,-0.113C0.24,-0.135 0.215,-0.166 0.198,-0.207C0.18,-0.248 0.171,-0.297 0.171,-0.353L0.171,-0.354C0.171,-0.409 0.18,-0.457 0.198,-0.497C0.215,-0.538 0.24,-0.569 0.271,-0.591C0.303,-0.613 0.341,-0.625 0.384,-0.625C0.432,-0.625 0.473,-0.613 0.506,-0.591C0.538,-0.568 0.561,-0.536 0.573,-0.495L0.575,-0.49L0.685,-0.49L0.684,-0.495C0.676,-0.54 0.658,-0.58 0.631,-0.614C0.604,-0.648 0.569,-0.674 0.527,-0.693C0.485,-0.712 0.438,-0.722 0.384,-0.722C0.319,-0.722 0.262,-0.707 0.213,-0.676C0.164,-0.646 0.126,-0.603 0.1,-0.548C0.073,-0.493 0.06,-0.428 0.06,-0.353L0.06,-0.352C0.06,-0.277 0.073,-0.212 0.099,-0.156C0.126,-0.101 0.164,-0.058 0.212,-0.028C0.261,0.002 0.319,0.017 0.386,0.017Z" style="fill:rgb(231,231,231);fill-rule:nonzero;"/>
            </g>
            <g transform="matrix(243.714,0,0,243.714,512.544,812.741)">
              <path d="M0.088,-0L0.536,-0L0.536,-0.095L0.198,-0.095L0.198,-0.313L0.518,-0.313L0.518,-0.404L0.198,-0.404L0.198,-0.61L0.536,-0.61L0.536,-0.705L0.088,-0.705L0.088,-0Z" style="fill:rgb(231,231,231);fill-rule:nonzero;"/>
            </g>
            <g transform="matrix(243.714,0,0,243.714,659.319,812.741)">
              <path d="M0.285,-0L0.406,-0L0.657,-0.705L0.538,-0.705L0.35,-0.132L0.341,-0.132L0.153,-0.705L0.034,-0.705L0.285,-0Z" style="fill:rgb(231,231,231);fill-rule:nonzero;"/>
            </g>
            <g transform="matrix(243.714,0,0,243.714,825.254,812.741)">
              <path d="M0.088,-0L0.536,-0L0.536,-0.095L0.198,-0.095L0.198,-0.313L0.518,-0.313L0.518,-0.404L0.198,-0.404L0.198,-0.61L0.536,-0.61L0.536,-0.705L0.088,-0.705L0.088,-0Z" style="fill:rgb(231,231,231);fill-rule:nonzero;"/>
            </g>
            <g transform="matrix(243.714,0,0,243.714,972.029,812.741)">
              <path d="M0.088,-0L0.198,-0L0.198,-0.271L0.352,-0.271L0.496,-0L0.622,-0L0.464,-0.288C0.507,-0.302 0.541,-0.328 0.565,-0.364C0.589,-0.399 0.601,-0.441 0.601,-0.489L0.601,-0.49C0.601,-0.533 0.592,-0.571 0.573,-0.603C0.553,-0.635 0.526,-0.66 0.491,-0.678C0.456,-0.696 0.414,-0.705 0.366,-0.705L0.088,-0.705L0.088,-0ZM0.198,-0.36L0.198,-0.613L0.352,-0.613C0.395,-0.613 0.428,-0.602 0.452,-0.579C0.476,-0.557 0.488,-0.526 0.488,-0.487L0.488,-0.486C0.488,-0.446 0.476,-0.415 0.453,-0.393C0.43,-0.371 0.397,-0.36 0.355,-0.36L0.198,-0.36Z" style="fill:rgb(231,231,231);fill-rule:nonzero;"/>
            </g>
            <g transform="matrix(243.714,0,0,243.714,1125.47,812.741)">
              <path d="M0.282,-0L0.392,-0L0.392,-0.289L0.641,-0.705L0.519,-0.705L0.341,-0.397L0.333,-0.397L0.156,-0.705L0.034,-0.705L0.282,-0.289L0.282,-0Z" style="fill:rgb(231,231,231);fill-rule:nonzero;"/>
            </g>
            <g transform="matrix(243.714,0,0,243.714,1349.05,812.741)">
              <path d="M0.088,-0L0.343,-0C0.413,-0 0.473,-0.014 0.522,-0.042C0.572,-0.07 0.609,-0.11 0.635,-0.163C0.662,-0.215 0.675,-0.279 0.675,-0.354L0.675,-0.354C0.675,-0.428 0.662,-0.491 0.635,-0.543C0.609,-0.596 0.571,-0.635 0.522,-0.663C0.472,-0.691 0.413,-0.705 0.343,-0.705L0.088,-0.705L0.088,-0ZM0.198,-0.095L0.198,-0.61L0.331,-0.61C0.379,-0.61 0.421,-0.6 0.456,-0.58C0.49,-0.559 0.517,-0.53 0.535,-0.492C0.553,-0.453 0.563,-0.407 0.563,-0.353L0.563,-0.352C0.563,-0.298 0.553,-0.251 0.535,-0.213C0.517,-0.174 0.491,-0.145 0.456,-0.125C0.422,-0.105 0.38,-0.095 0.331,-0.095L0.198,-0.095Z" style="fill:rgb(231,231,231);fill-rule:nonzero;"/>
            </g>
            <g transform="matrix(243.714,0,0,243.714,1526.64,812.741)">
              <path d="M0.389,0.017C0.456,0.017 0.515,0.002 0.564,-0.028C0.614,-0.059 0.651,-0.101 0.678,-0.156C0.704,-0.212 0.717,-0.277 0.717,-0.352L0.717,-0.353C0.717,-0.429 0.704,-0.494 0.677,-0.549C0.651,-0.604 0.613,-0.647 0.564,-0.677C0.515,-0.707 0.456,-0.722 0.389,-0.722C0.321,-0.722 0.263,-0.707 0.214,-0.677C0.164,-0.647 0.126,-0.604 0.1,-0.549C0.073,-0.494 0.06,-0.429 0.06,-0.353L0.06,-0.352C0.06,-0.277 0.073,-0.212 0.099,-0.156C0.125,-0.101 0.163,-0.058 0.212,-0.028C0.262,0.002 0.32,0.017 0.389,0.017ZM0.389,-0.08C0.343,-0.08 0.305,-0.091 0.272,-0.114C0.24,-0.136 0.215,-0.168 0.198,-0.209C0.18,-0.25 0.171,-0.297 0.171,-0.352L0.171,-0.353C0.171,-0.408 0.18,-0.456 0.198,-0.497C0.216,-0.538 0.241,-0.569 0.274,-0.591C0.306,-0.613 0.344,-0.625 0.389,-0.625C0.433,-0.625 0.471,-0.613 0.504,-0.591C0.536,-0.569 0.562,-0.538 0.579,-0.497C0.597,-0.456 0.605,-0.408 0.605,-0.353L0.605,-0.352C0.605,-0.297 0.597,-0.25 0.579,-0.209C0.562,-0.168 0.536,-0.136 0.504,-0.114C0.471,-0.091 0.433,-0.08 0.389,-0.08Z" style="fill:rgb(231,231,231);fill-rule:nonzero;"/>
            </g>
            <g transform="matrix(243.714,0,0,243.714,1717.09,812.741)">
              <path d="M0.389,0.017C0.456,0.017 0.515,0.002 0.564,-0.028C0.614,-0.059 0.651,-0.101 0.678,-0.156C0.704,-0.212 0.717,-0.277 0.717,-0.352L0.717,-0.353C0.717,-0.429 0.704,-0.494 0.677,-0.549C0.651,-0.604 0.613,-0.647 0.564,-0.677C0.515,-0.707 0.456,-0.722 0.389,-0.722C0.321,-0.722 0.263,-0.707 0.214,-0.677C0.164,-0.647 0.126,-0.604 0.1,-0.549C0.073,-0.494 0.06,-0.429 0.06,-0.353L0.06,-0.352C0.06,-0.277 0.073,-0.212 0.099,-0.156C0.125,-0.101 0.163,-0.058 0.212,-0.028C0.262,0.002 0.32,0.017 0.389,0.017ZM0.389,-0.08C0.343,-0.08 0.305,-0.091 0.272,-0.114C0.24,-0.136 0.215,-0.168 0.198,-0.209C0.18,-0.25 0.171,-0.297 0.171,-0.352L0.171,-0.353C0.171,-0.408 0.18,-0.456 0.198,-0.497C0.216,-0.538 0.241,-0.569 0.274,-0.591C0.306,-0.613 0.344,-0.625 0.389,-0.625C0.433,-0.625 0.471,-0.613 0.504,-0.591C0.536,-0.569 0.562,-0.538 0.579,-0.497C0.597,-0.456 0.605,-0.408 0.605,-0.353L0.605,-0.352C0.605,-0.297 0.597,-0.25 0.579,-0.209C0.562,-0.168 0.536,-0.136 0.504,-0.114C0.471,-0.091 0.433,-0.08 0.389,-0.08Z" style="fill:rgb(231,231,231);fill-rule:nonzero;"/>
            </g>
            <g transform="matrix(243.714,0,0,243.714,1907.54,812.741)">
              <path d="M0.088,-0L0.198,-0L0.198,-0.271L0.352,-0.271L0.496,-0L0.622,-0L0.464,-0.288C0.507,-0.302 0.541,-0.328 0.565,-0.364C0.589,-0.399 0.601,-0.441 0.601,-0.489L0.601,-0.49C0.601,-0.533 0.592,-0.571 0.573,-0.603C0.553,-0.635 0.526,-0.66 0.491,-0.678C0.456,-0.696 0.414,-0.705 0.366,-0.705L0.088,-0.705L0.088,-0ZM0.198,-0.36L0.198,-0.613L0.352,-0.613C0.395,-0.613 0.428,-0.602 0.452,-0.579C0.476,-0.557 0.488,-0.526 0.488,-0.487L0.488,-0.486C0.488,-0.446 0.476,-0.415 0.453,-0.393C0.43,-0.371 0.397,-0.36 0.355,-0.36L0.198,-0.36Z" style="fill:rgb(231,231,231);fill-rule:nonzero;"/>
            </g>
            <g transform="matrix(243.714,0,0,243.714,2127.91,812.741)">
              <rect x="0.088" y="-0.705" width="0.109" height="0.705" style="fill:rgb(231,231,231);fill-rule:nonzero;"/>
            </g>
            <g transform="matrix(243.714,0,0,243.714,2194.83,812.741)">
              <path d="M0.327,0.017C0.381,0.017 0.429,0.008 0.469,-0.01C0.51,-0.028 0.541,-0.053 0.563,-0.086C0.585,-0.118 0.596,-0.157 0.596,-0.202L0.596,-0.203C0.596,-0.255 0.58,-0.296 0.547,-0.328C0.515,-0.359 0.462,-0.382 0.388,-0.398L0.311,-0.415C0.265,-0.425 0.233,-0.438 0.213,-0.456C0.193,-0.473 0.183,-0.495 0.183,-0.521L0.183,-0.521C0.183,-0.544 0.189,-0.563 0.201,-0.578C0.214,-0.594 0.231,-0.606 0.252,-0.614C0.274,-0.622 0.298,-0.626 0.326,-0.626C0.354,-0.627 0.379,-0.623 0.4,-0.614C0.421,-0.605 0.439,-0.594 0.451,-0.579C0.464,-0.564 0.472,-0.547 0.475,-0.527L0.476,-0.521L0.583,-0.521L0.583,-0.527C0.58,-0.564 0.568,-0.597 0.546,-0.626C0.524,-0.656 0.495,-0.679 0.458,-0.696C0.42,-0.713 0.377,-0.722 0.327,-0.722C0.277,-0.722 0.233,-0.713 0.195,-0.696C0.156,-0.679 0.126,-0.654 0.105,-0.624C0.083,-0.593 0.072,-0.557 0.072,-0.516L0.072,-0.516C0.072,-0.464 0.088,-0.421 0.121,-0.387C0.153,-0.354 0.205,-0.33 0.276,-0.314L0.354,-0.298C0.4,-0.288 0.434,-0.274 0.454,-0.256C0.475,-0.238 0.485,-0.216 0.485,-0.189L0.485,-0.188C0.485,-0.167 0.478,-0.148 0.465,-0.131C0.452,-0.115 0.434,-0.102 0.411,-0.092C0.388,-0.083 0.361,-0.078 0.332,-0.078C0.3,-0.078 0.272,-0.083 0.247,-0.091C0.223,-0.1 0.203,-0.112 0.189,-0.128C0.174,-0.144 0.166,-0.162 0.164,-0.183L0.163,-0.188L0.055,-0.188L0.056,-0.182C0.059,-0.143 0.072,-0.108 0.095,-0.078C0.118,-0.048 0.149,-0.025 0.188,-0.008C0.227,0.009 0.274,0.017 0.327,0.017Z" style="fill:rgb(231,231,231);fill-rule:nonzero;"/>
            </g>
            <g transform="matrix(243.714,0,0,243.714,2413.77,812.741)">
              <path d="M0.267,-0L0.376,-0L0.376,-0.61L0.598,-0.61L0.598,-0.705L0.045,-0.705L0.045,-0.61L0.267,-0.61L0.267,-0Z" style="fill:rgb(231,231,231);fill-rule:nonzero;"/>
            </g>
            <g transform="matrix(243.714,0,0,243.714,2556.86,812.741)">
              <path d="M0.389,0.017C0.456,0.017 0.515,0.002 0.564,-0.028C0.614,-0.059 0.651,-0.101 0.678,-0.156C0.704,-0.212 0.717,-0.277 0.717,-0.352L0.717,-0.353C0.717,-0.429 0.704,-0.494 0.677,-0.549C0.651,-0.604 0.613,-0.647 0.564,-0.677C0.515,-0.707 0.456,-0.722 0.389,-0.722C0.321,-0.722 0.263,-0.707 0.214,-0.677C0.164,-0.647 0.126,-0.604 0.1,-0.549C0.073,-0.494 0.06,-0.429 0.06,-0.353L0.06,-0.352C0.06,-0.277 0.073,-0.212 0.099,-0.156C0.125,-0.101 0.163,-0.058 0.212,-0.028C0.262,0.002 0.32,0.017 0.389,0.017ZM0.389,-0.08C0.343,-0.08 0.305,-0.091 0.272,-0.114C0.24,-0.136 0.215,-0.168 0.198,-0.209C0.18,-0.25 0.171,-0.297 0.171,-0.352L0.171,-0.353C0.171,-0.408 0.18,-0.456 0.198,-0.497C0.216,-0.538 0.241,-0.569 0.274,-0.591C0.306,-0.613 0.344,-0.625 0.389,-0.625C0.433,-0.625 0.471,-0.613 0.504,-0.591C0.536,-0.569 0.562,-0.538 0.579,-0.497C0.597,-0.456 0.605,-0.408 0.605,-0.353L0.605,-0.352C0.605,-0.297 0.597,-0.25 0.579,-0.209C0.562,-0.168 0.536,-0.136 0.504,-0.114C0.471,-0.091 0.433,-0.08 0.389,-0.08Z" style="fill:rgb(231,231,231);fill-rule:nonzero;"/>
            </g>
            <g transform="matrix(243.714,0,0,243.714,2809.47,812.741)">
              <path d="M0.386,0.017C0.447,0.017 0.501,0.005 0.546,-0.019C0.592,-0.044 0.627,-0.078 0.652,-0.122C0.677,-0.166 0.69,-0.218 0.69,-0.277L0.69,-0.365L0.4,-0.365L0.4,-0.276L0.582,-0.276L0.581,-0.261C0.581,-0.225 0.572,-0.193 0.556,-0.166C0.54,-0.139 0.517,-0.118 0.488,-0.103C0.459,-0.088 0.425,-0.08 0.387,-0.08C0.343,-0.08 0.305,-0.091 0.272,-0.113C0.24,-0.135 0.215,-0.166 0.198,-0.207C0.18,-0.248 0.171,-0.297 0.171,-0.353L0.171,-0.354C0.171,-0.409 0.18,-0.457 0.198,-0.497C0.215,-0.538 0.24,-0.569 0.271,-0.591C0.303,-0.613 0.341,-0.625 0.384,-0.625C0.432,-0.625 0.473,-0.613 0.506,-0.591C0.538,-0.568 0.561,-0.536 0.573,-0.495L0.575,-0.49L0.685,-0.49L0.684,-0.495C0.676,-0.54 0.658,-0.58 0.631,-0.614C0.604,-0.648 0.569,-0.674 0.527,-0.693C0.485,-0.712 0.438,-0.722 0.384,-0.722C0.319,-0.722 0.262,-0.707 0.213,-0.676C0.164,-0.646 0.126,-0.603 0.1,-0.548C0.073,-0.493 0.06,-0.428 0.06,-0.353L0.06,-0.352C0.06,-0.277 0.073,-0.212 0.099,-0.156C0.126,-0.101 0.164,-0.058 0.212,-0.028C0.261,0.002 0.319,0.017 0.386,0.017Z" style="fill:rgb(231,231,231);fill-rule:nonzero;"/>
            </g>
            <g transform="matrix(243.714,0,0,243.714,2993.85,812.741)">
              <rect x="0.088" y="-0.705" width="0.109" height="0.705" style="fill:rgb(231,231,231);fill-rule:nonzero;"/>
            </g>
            <g transform="matrix(243.714,0,0,243.714,3060.78,812.741)">
              <path d="M0.285,-0L0.406,-0L0.657,-0.705L0.538,-0.705L0.35,-0.132L0.341,-0.132L0.153,-0.705L0.034,-0.705L0.285,-0Z" style="fill:rgb(231,231,231);fill-rule:nonzero;"/>
            </g>
            <g transform="matrix(243.714,0,0,243.714,3226.71,812.741)">
              <path d="M0.088,-0L0.536,-0L0.536,-0.095L0.198,-0.095L0.198,-0.313L0.518,-0.313L0.518,-0.404L0.198,-0.404L0.198,-0.61L0.536,-0.61L0.536,-0.705L0.088,-0.705L0.088,-0Z" style="fill:rgb(231,231,231);fill-rule:nonzero;"/>
            </g>
            <g transform="matrix(243.714,0,0,243.714,759.446,1231.48)">
              <path d="M0.143,-0L0.378,-0C0.429,-0 0.472,-0.008 0.507,-0.024C0.543,-0.04 0.571,-0.063 0.59,-0.093C0.609,-0.122 0.619,-0.158 0.619,-0.199L0.619,-0.2C0.619,-0.23 0.612,-0.258 0.599,-0.282C0.586,-0.306 0.567,-0.326 0.543,-0.341C0.52,-0.357 0.492,-0.366 0.46,-0.369L0.46,-0.377C0.483,-0.381 0.504,-0.391 0.523,-0.405C0.542,-0.42 0.556,-0.438 0.567,-0.459C0.578,-0.481 0.584,-0.504 0.584,-0.528L0.584,-0.529C0.584,-0.565 0.576,-0.596 0.559,-0.622C0.542,-0.649 0.517,-0.669 0.486,-0.683C0.454,-0.697 0.416,-0.705 0.372,-0.705L0.143,-0.705L0.143,-0.615L0.346,-0.615C0.387,-0.615 0.418,-0.606 0.441,-0.588C0.463,-0.569 0.475,-0.543 0.475,-0.51L0.475,-0.509C0.475,-0.475 0.462,-0.449 0.438,-0.431C0.413,-0.414 0.376,-0.405 0.328,-0.405L0.143,-0.405L0.143,-0.321L0.35,-0.321C0.384,-0.321 0.413,-0.317 0.436,-0.308C0.46,-0.3 0.477,-0.287 0.489,-0.27C0.5,-0.253 0.506,-0.232 0.506,-0.207L0.506,-0.206C0.506,-0.168 0.494,-0.139 0.468,-0.119C0.443,-0.099 0.405,-0.089 0.356,-0.089L0.143,-0.089L0.143,-0ZM0.088,-0L0.198,-0L0.198,-0.705L0.088,-0.705L0.088,-0Z" style="fill:rgb(231,231,231);fill-rule:nonzero;"/>
            </g>
            <g transform="matrix(243.714,0,0,243.714,918.955,1231.48)">
              <path d="M0.088,-0L0.536,-0L0.536,-0.095L0.198,-0.095L0.198,-0.313L0.518,-0.313L0.518,-0.404L0.198,-0.404L0.198,-0.61L0.536,-0.61L0.536,-0.705L0.088,-0.705L0.088,-0Z" style="fill:rgb(231,231,231);fill-rule:nonzero;"/>
            </g>
            <g transform="matrix(243.714,0,0,243.714,1065.73,1231.48)">
              <path d="M0.088,-0L0.198,-0L0.198,-0.295L0.5,-0.295L0.5,-0.387L0.198,-0.387L0.198,-0.61L0.528,-0.61L0.528,-0.705L0.088,-0.705L0.088,-0Z" style="fill:rgb(231,231,231);fill-rule:nonzero;"/>
            </g>
            <g transform="matrix(243.714,0,0,243.714,1206.56,1231.48)">
              <path d="M0.389,0.017C0.456,0.017 0.515,0.002 0.564,-0.028C0.614,-0.059 0.651,-0.101 0.678,-0.156C0.704,-0.212 0.717,-0.277 0.717,-0.352L0.717,-0.353C0.717,-0.429 0.704,-0.494 0.677,-0.549C0.651,-0.604 0.613,-0.647 0.564,-0.677C0.515,-0.707 0.456,-0.722 0.389,-0.722C0.321,-0.722 0.263,-0.707 0.214,-0.677C0.164,-0.647 0.126,-0.604 0.1,-0.549C0.073,-0.494 0.06,-0.429 0.06,-0.353L0.06,-0.352C0.06,-0.277 0.073,-0.212 0.099,-0.156C0.125,-0.101 0.163,-0.058 0.212,-0.028C0.262,0.002 0.32,0.017 0.389,0.017ZM0.389,-0.08C0.343,-0.08 0.305,-0.091 0.272,-0.114C0.24,-0.136 0.215,-0.168 0.198,-0.209C0.18,-0.25 0.171,-0.297 0.171,-0.352L0.171,-0.353C0.171,-0.408 0.18,-0.456 0.198,-0.497C0.216,-0.538 0.241,-0.569 0.274,-0.591C0.306,-0.613 0.344,-0.625 0.389,-0.625C0.433,-0.625 0.471,-0.613 0.504,-0.591C0.536,-0.569 0.562,-0.538 0.579,-0.497C0.597,-0.456 0.605,-0.408 0.605,-0.353L0.605,-0.352C0.605,-0.297 0.597,-0.25 0.579,-0.209C0.562,-0.168 0.536,-0.136 0.504,-0.114C0.471,-0.091 0.433,-0.08 0.389,-0.08Z" style="fill:rgb(231,231,231);fill-rule:nonzero;"/>
            </g>
            <g transform="matrix(243.714,0,0,243.714,1397.01,1231.48)">
              <path d="M0.088,-0L0.198,-0L0.198,-0.271L0.352,-0.271L0.496,-0L0.622,-0L0.464,-0.288C0.507,-0.302 0.541,-0.328 0.565,-0.364C0.589,-0.399 0.601,-0.441 0.601,-0.489L0.601,-0.49C0.601,-0.533 0.592,-0.571 0.573,-0.603C0.553,-0.635 0.526,-0.66 0.491,-0.678C0.456,-0.696 0.414,-0.705 0.366,-0.705L0.088,-0.705L0.088,-0ZM0.198,-0.36L0.198,-0.613L0.352,-0.613C0.395,-0.613 0.428,-0.602 0.452,-0.579C0.476,-0.557 0.488,-0.526 0.488,-0.487L0.488,-0.486C0.488,-0.446 0.476,-0.415 0.453,-0.393C0.43,-0.371 0.397,-0.36 0.355,-0.36L0.198,-0.36Z" style="fill:rgb(231,231,231);fill-rule:nonzero;"/>
            </g>
            <g transform="matrix(243.714,0,0,243.714,1555.2,1231.48)">
              <path d="M0.088,-0L0.536,-0L0.536,-0.095L0.198,-0.095L0.198,-0.313L0.518,-0.313L0.518,-0.404L0.198,-0.404L0.198,-0.61L0.536,-0.61L0.536,-0.705L0.088,-0.705L0.088,-0Z" style="fill:rgb(231,231,231);fill-rule:nonzero;"/>
            </g>
            <g transform="matrix(243.714,0,0,243.714,1764.15,1231.48)">
              <path d="M0.088,-0L0.198,-0L0.198,-0.271L0.352,-0.271L0.496,-0L0.622,-0L0.464,-0.288C0.507,-0.302 0.541,-0.328 0.565,-0.364C0.589,-0.399 0.601,-0.441 0.601,-0.489L0.601,-0.49C0.601,-0.533 0.592,-0.571 0.573,-0.603C0.553,-0.635 0.526,-0.66 0.491,-0.678C0.456,-0.696 0.414,-0.705 0.366,-0.705L0.088,-0.705L0.088,-0ZM0.198,-0.36L0.198,-0.613L0.352,-0.613C0.395,-0.613 0.428,-0.602 0.452,-0.579C0.476,-0.557 0.488,-0.526 0.488,-0.487L0.488,-0.486C0.488,-0.446 0.476,-0.415 0.453,-0.393C0.43,-0.371 0.397,-0.36 0.355,-0.36L0.198,-0.36Z" style="fill:rgb(231,231,231);fill-rule:nonzero;"/>
            </g>
            <g transform="matrix(243.714,0,0,243.714,1922.35,1231.48)">
              <path d="M0.088,-0L0.536,-0L0.536,-0.095L0.198,-0.095L0.198,-0.313L0.518,-0.313L0.518,-0.404L0.198,-0.404L0.198,-0.61L0.536,-0.61L0.536,-0.705L0.088,-0.705L0.088,-0Z" style="fill:rgb(231,231,231);fill-rule:nonzero;"/>
            </g>
            <g transform="matrix(243.714,0,0,243.714,2069.12,1231.48)">
              <path d="M0.377,0.017C0.43,0.017 0.477,0.008 0.519,-0.011C0.56,-0.03 0.594,-0.056 0.62,-0.09C0.646,-0.124 0.663,-0.163 0.67,-0.208L0.67,-0.211L0.561,-0.211L0.56,-0.209C0.554,-0.183 0.542,-0.16 0.525,-0.14C0.508,-0.121 0.487,-0.106 0.462,-0.096C0.437,-0.085 0.409,-0.08 0.378,-0.08C0.336,-0.08 0.299,-0.091 0.268,-0.113C0.238,-0.135 0.214,-0.167 0.197,-0.208C0.18,-0.248 0.172,-0.296 0.172,-0.352L0.172,-0.353C0.172,-0.409 0.18,-0.457 0.197,-0.497C0.214,-0.538 0.238,-0.569 0.268,-0.591C0.299,-0.613 0.335,-0.625 0.377,-0.625C0.408,-0.625 0.436,-0.619 0.461,-0.607C0.486,-0.595 0.508,-0.579 0.525,-0.558C0.542,-0.536 0.554,-0.511 0.561,-0.482L0.561,-0.48L0.67,-0.48L0.67,-0.483C0.664,-0.53 0.648,-0.571 0.621,-0.607C0.594,-0.643 0.56,-0.671 0.518,-0.691C0.476,-0.712 0.429,-0.722 0.377,-0.722C0.312,-0.722 0.256,-0.707 0.208,-0.677C0.16,-0.647 0.124,-0.604 0.098,-0.549C0.072,-0.494 0.06,-0.429 0.06,-0.353L0.06,-0.352C0.06,-0.276 0.072,-0.21 0.098,-0.155C0.124,-0.1 0.161,-0.058 0.208,-0.028C0.256,0.002 0.312,0.017 0.377,0.017Z" style="fill:rgb(231,231,231);fill-rule:nonzero;"/>
            </g>
            <g transform="matrix(243.714,0,0,243.714,2248.5,1231.48)">
              <path d="M0.088,-0L0.536,-0L0.536,-0.095L0.198,-0.095L0.198,-0.313L0.518,-0.313L0.518,-0.404L0.198,-0.404L0.198,-0.61L0.536,-0.61L0.536,-0.705L0.088,-0.705L0.088,-0Z" style="fill:rgb(231,231,231);fill-rule:nonzero;"/>
            </g>
            <g transform="matrix(243.714,0,0,243.714,2395.28,1231.48)">
              <rect x="0.088" y="-0.705" width="0.109" height="0.705" style="fill:rgb(231,231,231);fill-rule:nonzero;"/>
            </g>
            <g transform="matrix(243.714,0,0,243.714,2462.21,1231.48)">
              <path d="M0.285,-0L0.406,-0L0.657,-0.705L0.538,-0.705L0.35,-0.132L0.341,-0.132L0.153,-0.705L0.034,-0.705L0.285,-0Z" style="fill:rgb(231,231,231);fill-rule:nonzero;"/>
            </g>
            <g transform="matrix(243.714,0,0,243.714,2628.14,1231.48)">
              <rect x="0.088" y="-0.705" width="0.109" height="0.705" style="fill:rgb(231,231,231);fill-rule:nonzero;"/>
            </g>
            <g transform="matrix(243.714,0,0,243.714,2695.07,1231.48)">
              <path d="M0.088,-0L0.195,-0L0.195,-0.511L0.25,-0.511L0.175,-0.55L0.564,-0L0.664,-0L0.664,-0.705L0.557,-0.705L0.557,-0.193L0.501,-0.193L0.576,-0.154L0.188,-0.705L0.088,-0.705L0.088,-0Z" style="fill:rgb(231,231,231);fill-rule:nonzero;"/>
            </g>
            <g transform="matrix(243.714,0,0,243.714,2877.66,1231.48)">
              <path d="M0.386,0.017C0.447,0.017 0.501,0.005 0.546,-0.019C0.592,-0.044 0.627,-0.078 0.652,-0.122C0.677,-0.166 0.69,-0.218 0.69,-0.277L0.69,-0.365L0.4,-0.365L0.4,-0.276L0.582,-0.276L0.581,-0.261C0.581,-0.225 0.572,-0.193 0.556,-0.166C0.54,-0.139 0.517,-0.118 0.488,-0.103C0.459,-0.088 0.425,-0.08 0.387,-0.08C0.343,-0.08 0.305,-0.091 0.272,-0.113C0.24,-0.135 0.215,-0.166 0.198,-0.207C0.18,-0.248 0.171,-0.297 0.171,-0.353L0.171,-0.354C0.171,-0.409 0.18,-0.457 0.198,-0.497C0.215,-0.538 0.24,-0.569 0.271,-0.591C0.303,-0.613 0.341,-0.625 0.384,-0.625C0.432,-0.625 0.473,-0.613 0.506,-0.591C0.538,-0.568 0.561,-0.536 0.573,-0.495L0.575,-0.49L0.685,-0.49L0.684,-0.495C0.676,-0.54 0.658,-0.58 0.631,-0.614C0.604,-0.648 0.569,-0.674 0.527,-0.693C0.485,-0.712 0.438,-0.722 0.384,-0.722C0.319,-0.722 0.262,-0.707 0.213,-0.676C0.164,-0.646 0.126,-0.603 0.1,-0.548C0.073,-0.493 0.06,-0.428 0.06,-0.353L0.06,-0.352C0.06,-0.277 0.073,-0.212 0.099,-0.156C0.126,-0.101 0.164,-0.058 0.212,-0.028C0.261,0.002 0.319,0.017 0.386,0.017Z" style="fill:rgb(231,231,231);fill-rule:nonzero;"/>
            </g>
            <g transform="matrix(243.714,0,0,243.714,3062.04,1231.48)">
              <path d="M0.158,0.008C0.178,0.008 0.195,0.001 0.209,-0.013C0.223,-0.027 0.229,-0.044 0.229,-0.063C0.229,-0.084 0.223,-0.101 0.209,-0.114C0.195,-0.128 0.178,-0.135 0.158,-0.135C0.138,-0.135 0.121,-0.128 0.107,-0.114C0.093,-0.101 0.086,-0.084 0.086,-0.063C0.086,-0.044 0.093,-0.027 0.107,-0.013C0.121,0.001 0.138,0.008 0.158,0.008Z" style="fill:rgb(231,231,231);fill-rule:nonzero;"/>
            </g>
          </g>
        </g>
        <g transform="matrix(0.525176,0,0,0.525176,4668.09,6900.55)">
          <g transform="matrix(3.58869e-18,0.352367,-2.05763,1.26756e-16,44729.5,-24968.8)">
            <path d="M122829,14156C122829,14150.8 122804,14146.5 122774,14146.5L110058,14137.1C109997,14137.1 109948,14145.6 109948,14156C109948,14156 109899,16122.4 109871,17825C109849,19124.9 109841,20271 109841,20271C109841,20291.5 109938,20308.2 110058,20308.2L122774,20306.8C122889,20306.8 122983,20290.8 122983,20271C122983,20271 122967,19124.9 122935,17825C122894,16122.4 122829,14156 122829,14156ZM110169,14174.8C110174,14379.7 110219,16219.6 110245,17825C110264,18987.6 110273,20027.2 110274,20233.8L122566,20235.2C122569,20031.9 122585,18990.2 122613,17825C122652,16191.3 122714,14314.8 122719,14165.5L110169,14174.8Z" style="fill:rgb(221,148,57);"/>
          </g>
          <g transform="matrix(1.0518e-17,0.428438,-1.79993,1.11248e-16,40051.2,-36001.1)">
            <path d="M122819,14156C122819,14150 122799,14145.2 122774,14145.2L110058,14131.8C110002,14131.8 109957,14142.7 109957,14156C109957,14156 109928,15684.7 109908,17213.5C109889,18742.3 109880,20271 109880,20271C109880,20294.5 109960,20313.5 110058,20313.5C110058,20313.5 113237,20314.5 116416,20313.7C119595,20312.9 122774,20310.2 122774,20310.2C122865,20310.2 122938,20292.7 122938,20271C122938,20271 122918,18742.3 122888,17213.5C122858,15684.7 122819,14156 122819,14156ZM110160,14180.1C110163,14380.1 110190,15796.8 110208,17213.5C110225,18592.6 110234,19971.7 110236,20228.5C110947,20228.2 113681,20227.6 116416,20228.3C119169,20229 121921,20231.1 122610,20231.7C122614,19983.3 122633,18598.4 122660,17213.5C122688,15759.8 122725,14306.1 122728,14166.9L110160,14180.1Z" style="fill:rgb(221,148,57);"/>
          </g>
          <g transform="matrix(4.1526e-17,0.770756,-0.660102,4.26762e-17,20218.5,-75006)">
            <path d="M122799,14156C122799,14139.7 122788,14126.5 122774,14126.5L110058,14055.6C110011,14055.6 109972,14100.5 109972,14156L109959,20271C109959,20335 110003,20386.9 110058,20386.9C110058,20386.9 112441,20390 115144,20381.2C118685,20369.6 122774,20339.8 122774,20339.8C122806,20339.8 122833,20309 122833,20271L122799,14156ZM122716,20201.8L122749,14185.6L110144,14255.9L110157,20155C110633,20154.5 112765,20153 115144,20160.8C118438,20171.6 122205,20198.1 122716,20201.8Z" style="fill:rgb(221,148,57);"/>
          </g>
          <g transform="matrix(4.0452e-17,0.766001,-0.749306,4.81101e-17,24148.1,-73938.6)">
            <path d="M122799,14156C122799,14141.6 122788,14130 122774,14130L110058,14069.3C110011,14069.3 109973,14108.1 109973,14156L109958,20271C109958,20327.4 110003,20373.1 110058,20373.1C110058,20373.1 112441,20375.9 115144,20368.8C118685,20359.4 122774,20334.8 122774,20334.8C122808,20334.8 122836,20306.3 122836,20271L122799,14156ZM122712,20206.8L122748,14182.1L110143,14242.3L110157,20168.8C110635,20168.4 112766,20166.9 115144,20173.2C118430,20182 122188,20203.7 122712,20206.8Z" style="fill:rgb(221,148,57);"/>
          </g>
          <g transform="matrix(0.62774,0,0,1.19364,-63725.5,-5438.05)">
            <rect x="110058" y="14156" width="12716" height="6115" style="fill:rgb(25,15,25);"/>
            <path d="M122805,14156C122805,14147 122791,14139.7 122774,14139.7L110058,14109.1C110009,14109.1 109969,14130.1 109969,14156L109936,20271C109936,20306.3 109991,20334.9 110058,20334.9C110058,20334.9 112441,20336.8 115144,20334.3C118685,20330.9 122774,20320.8 122774,20320.8C122826,20320.8 122869,20298.5 122869,20271L122805,14156ZM122680,20221L122743,14172.3L110148,14202.7L110180,20207C110697,20206.6 112801,20205.5 115144,20207.7C118369,20210.8 122048,20219.4 122680,20221Z" style="fill:rgb(221,148,57);"/>
          </g>
        </g>
        <g transform="matrix(3.12231,0,0,3.12231,-14038.1,-74647.3)">
          <g transform="matrix(4.81614,0,0,4.80405,7026.17,28237.8)">
            <path d="M118.542,51.959L119.77,0L81.075,104.536L148.331,57.526L185.49,94.639L147.409,121.237L136.968,112.577L130.212,136.392L146.488,149.691L220.5,98.041L151.402,27.835L118.542,51.959Z" style="fill:rgb(231,231,231);fill-rule:nonzero;"/>
          </g>
          <g transform="matrix(4.81614,0,0,4.80405,7026.17,28237.8)">
            <path d="M73.398,30.309L92.745,46.392L84.146,68.041L72.169,58.763L34.396,85.051L71.555,122.474L136.354,78.557L109.636,180L104.415,127.423L68.791,151.546L0,81.959L73.398,30.309Z" style="fill:rgb(231,231,231);fill-rule:nonzero;"/>
          </g>
        </g>
      </g>
    </g>
  </g>
  <defs>
    <radialGradient id="_Radial1" cx="0" cy="0" r="1" gradientUnits="userSpaceOnUse" gradientTransform="matrix(10948.7,-88.6608,142.214,17474,9437.68,15427.3)">
      <stop offset="0" style="stop-color:rgb(32,20,30);stop-opacity:1"/>
      <stop offset="1" style="stop-color:rgb(16,8,18);stop-opacity:1"/>
    </radialGradient>
  </defs>
</svg>
