<?xml version="1.0" encoding="UTF-8" standalone="no"?>
<!DOCTYPE svg PUBLIC "-//W3C//DTD SVG 1.1//EN" "http://www.w3.org/Graphics/SVG/1.1/DTD/svg11.dtd">
<svg width="100%" height="100%" viewBox="0 0 312 499" version="1.1" xmlns="http://www.w3.org/2000/svg" xmlns:xlink="http://www.w3.org/1999/xlink" xml:space="preserve" xmlns:serif="http://www.serif.com/" style="fill-rule:evenodd;clip-rule:evenodd;stroke-linejoin:round;stroke-miterlimit:2;">
  <g transform="matrix(1,0,0,1,-210122,-182492)">
    <g id="Plan-de-travail1" serif:id="Plan de travail1" transform="matrix(0.0164991,0,0,0.0165406,210122,182491)">
      <rect x="0" y="85" width="18873" height="30121" style="fill:url(#_Radial1);"/>
      <clipPath id="_clip2">
        <rect x="0" y="85" width="18873" height="30121"/>
      </clipPath>
      <g clip-path="url(#_clip2)">
        <g transform="matrix(1.21973,0,0,0.562756,-132369,5432.24)">
          <path d="M122788,14156C122788,14139 122782,14125.2 122774,14125.2C122774,14125.2 118685,14092.6 115144,14070.3C112441,14053.4 110058,14043.1 110058,14043.1C110029,14043.1 110006,14093.6 110006,14156L110002,20271C110002,20337.9 110027,20392.1 110058,20392.1C110058,20392.1 111106,20395.4 112601,20392.7C113360,20391.4 114234,20388 115144,20383C118685,20363.5 122774,20328.1 122774,20328.1C122789,20328.1 122800,20302.5 122800,20271L122788,14156ZM122760,14186.9C122493,14189 118563,14220.2 115144,14241.7C112675,14257.1 110473,14267.1 110110,14268.7L110114,20149.8C110349,20149.1 111308,20147 112601,20149.3C113360,20150.6 114234,20154 115144,20159C118520,20177.6 122393,20210.7 122748,20213.7L122760,14186.9Z" style="fill:rgb(221,148,57);"/>
        </g>
        <g transform="matrix(1.27775,0,0,0.142104,-139124,14330.5)">
          <path d="M122788,14156C122788,14088.6 122782,14034 122774,14034C122774,14034 118685,13881.1 115144,13787.3C112441,13715.7 110058,13682.2 110058,13682.2C110029,13682.2 110005,13894.3 110005,14156L110005,20271C110005,20535.8 110028,20750.4 110058,20750.4C110058,20750.4 110874,20764.1 112093,20754.3C112957,20747.4 114023,20729.9 115144,20699.6C118685,20603.8 122774,20423.8 122774,20423.8C122783,20423.8 122791,20355.4 122791,20271L122788,14156ZM122760,14278.5C122500,14288.2 118566,14434.1 115144,14524.7C112677,14590.1 110476,14623.7 110111,14629L110111,19790.9C110311,19788 111056,19779.4 112093,19787.7C112957,19794.6 114023,19812.1 115144,19842.4C118553,19934.6 122469,20104.9 122757,20117.5L122760,14278.5Z" style="fill:rgb(221,148,57);"/>
        </g>
        <g transform="matrix(1.27775,0,0,0.142104,-139124,10904.8)">
          <path d="M122788,14156C122788,14088.6 122782,14034 122774,14034C122774,14034 118685,13881.1 115144,13787.3C112441,13715.7 110058,13682.2 110058,13682.2C110029,13682.2 110005,13894.3 110005,14156L110005,20271C110005,20535.8 110028,20750.4 110058,20750.4C110058,20750.4 110874,20764.1 112093,20754.3C112957,20747.4 114023,20729.9 115144,20699.6C118685,20603.8 122774,20423.8 122774,20423.8C122783,20423.8 122791,20355.4 122791,20271L122788,14156ZM122760,14278.5C122500,14288.2 118566,14434.1 115144,14524.7C112677,14590.1 110476,14623.7 110111,14629L110111,19790.9C110311,19788 111056,19779.4 112093,19787.7C112957,19794.6 114023,19812.1 115144,19842.4C118553,19934.6 122469,20104.9 122757,20117.5L122760,14278.5Z" style="fill:rgb(221,148,57);"/>
        </g>
        <g transform="matrix(1.36241,0,0,0.142104,-148980,12673.1)">
          <path d="M122787,14156C122787,14088.6 122781,14034 122774,14034C122774,14034 118685,13880.6 115144,13786.6C112441,13714.9 110058,13681.6 110058,13681.6C110031,13681.6 110008,13894 110008,14156L110008,20271C110008,20535.8 110030,20750.4 110058,20750.4C110058,20750.4 110874,20764.2 112093,20754.3C112957,20747.3 114023,20729.6 115144,20699.1C118685,20602.8 122774,20422 122774,20422C122783,20422 122790,20354.4 122790,20271L122787,14156ZM122761,14278.5C122509,14287.9 118570,14434.5 115144,14525.4C112669,14591 110463,14624.5 110108,14629.6L110108,19790.9C110303,19788.1 111050,19779.3 112093,19787.7C112957,19794.7 114023,19812.4 115144,19842.9C118558,19935.8 122480,20107.1 122758,20119.4L122761,14278.5Z" style="fill:rgb(221,148,57);"/>
        </g>
        <g transform="matrix(4.09911e-17,0.726677,-1.71133,1.13749e-16,38838.4,-69451.4)">
          <path d="M122798,14156C122798,14150.4 122787,14145.8 122774,14145.8L110058,14128.5C110022,14128.5 109993,14140.8 109993,14156L109964,20271C109964,20293 110006,20310.9 110058,20310.9C110058,20310.9 113237,20311.9 116416,20310.1C119595,20308.3 122774,20303.8 122774,20303.8C122817,20303.8 122851,20289.1 122851,20271L122798,14156ZM122697,20238.1L122750,14166.2L110123,14183.4L110152,20231.1C110699,20230.9 113557,20230.3 116416,20231.9C119305,20233.5 122195,20237.4 122697,20238.1Z" style="fill:rgb(221,148,57);"/>
        </g>
        <g transform="matrix(4.29411e-17,0.761247,-0.432135,2.87232e-17,11779.1,-73475.8)">
          <path d="M122797,14156C122797,14133.8 122787,14115.8 122774,14115.8C122774,14115.8 118685,14075.1 115144,14046.8C112441,14025.3 110058,14011.7 110058,14011.7C110013,14011.7 109976,14076.3 109976,14156L109969,20271C109969,20358.3 110009,20429 110058,20429C110058,20429 111106,20433.3 112601,20430.2C113360,20428.6 114234,20424.6 115144,20418.4C118685,20394.6 122774,20351.2 122774,20351.2C122799,20351.2 122819,20315.3 122819,20271L122797,14156ZM110140,14299.8L110147,20112.7C110430,20111.7 111362,20109.2 112601,20111.8C113360,20113.4 114234,20117.4 115144,20123.6C118468,20145.9 122275,20185.6 122729,20190.4L122751,14196.5C122418,14199.8 118531,14238.2 115144,14265.2C112735,14284.4 110580,14297.3 110140,14299.8Z" style="fill:rgb(221,148,57);"/>
        </g>
        <g transform="matrix(4.29411e-17,0.761247,-0.432135,2.87232e-17,22196.6,-73475.8)">
          <path d="M122797,14156C122797,14133.8 122787,14115.8 122774,14115.8C122774,14115.8 118685,14075.1 115144,14046.8C112441,14025.3 110058,14011.7 110058,14011.7C110013,14011.7 109976,14076.3 109976,14156L109969,20271C109969,20358.3 110009,20429 110058,20429C110058,20429 111106,20433.3 112601,20430.2C113360,20428.6 114234,20424.6 115144,20418.4C118685,20394.6 122774,20351.2 122774,20351.2C122799,20351.2 122819,20315.3 122819,20271L122797,14156ZM110140,14299.8L110147,20112.7C110430,20111.7 111362,20109.2 112601,20111.8C113360,20113.4 114234,20117.4 115144,20123.6C118468,20145.9 122275,20185.6 122729,20190.4L122751,14196.5C122418,14199.8 118531,14238.2 115144,14265.2C112735,14284.4 110580,14297.3 110140,14299.8Z" style="fill:rgb(221,148,57);"/>
        </g>
        <g transform="matrix(4.57863e-17,0.811684,-0.432135,2.87232e-17,16819.1,-79347.5)">
          <path d="M122795,14156C122795,14133.8 122786,14115.8 122774,14115.8C122774,14115.8 118685,14074.4 115144,14046C112441,14024.2 110058,14010.7 110058,14010.7C110015,14010.7 109981,14075.7 109981,14156L109974,20271C109974,20358.3 110012,20429 110058,20429C110058,20429 111106,20433.4 112601,20430.2C113360,20428.5 114234,20424.3 115144,20418C118685,20393.7 122774,20349.3 122774,20349.3C122797,20349.3 122816,20314.2 122816,20271L122795,14156ZM110135,14300.9L110142,20112.7C110418,20111.7 111354,20109.1 112601,20111.8C113360,20113.5 114234,20117.7 115144,20124C118477,20146.9 122296,20187.6 122733,20192.3L122753,14196.4C122430,14199.7 118536,14238.8 115144,14266C112727,14285.5 110565,14298.4 110135,14300.9Z" style="fill:rgb(221,148,57);"/>
        </g>
        <g transform="matrix(1.09961,0,0,1.19364,-118386,-5476.36)">
          <rect x="110058" y="14156" width="12716" height="6115" style="fill:rgb(25,15,25);"/>
          <path d="M122790,14156C122790,14148 122783,14141.5 122774,14141.5L110058,14108.4C110029,14108.4 110006,14129.7 110006,14156L109996,20271C109996,20302.5 110024,20328.1 110058,20328.1C110058,20328.1 112441,20329.7 115144,20326C118685,20321.1 122774,20308.1 122774,20308.1C122796,20308.1 122814,20291.5 122814,20271L122790,14156ZM122734,20233.8L122758,14170.6L110110,14203.4L110120,20213.9C110511,20213.7 112697,20212.7 115144,20216C118480,20220.6 122302,20232.4 122734,20233.8Z" style="fill:rgb(221,148,57);"/>
        </g>
        <g transform="matrix(1.03986,0,0,1.10906,-111413,-4038.84)">
          <rect x="110058" y="14156" width="12716" height="6115" style="fill:rgb(25,15,25);"/>
          <path d="M122791,14156C122791,14147.4 122783,14140.4 122774,14140.4L110058,14104.6C110028,14104.6 110003,14127.6 110003,14156L109992,20271C109992,20304.9 110022,20332.4 110058,20332.4C110058,20332.4 112441,20334.2 115144,20330.1C118685,20324.8 122774,20310.7 122774,20310.7C122797,20310.7 122816,20292.9 122816,20271L122791,14156ZM122732,20231.2L122757,14171.7L110113,14207.2L110124,20209.5C110524,20209.3 112704,20208.2 115144,20211.9C118475,20216.9 122290,20229.7 122732,20231.2Z" style="fill:rgb(221,148,57);"/>
        </g>
        <g transform="matrix(8.95895e-18,0.244824,-2.87188,1.78518e-16,59792.4,-26625.9)">
          <path d="M122816,14156C122816,14154 122797,14152.4 122774,14152.4L110058,14150.4C110022,14150.4 109992,14152.9 109992,14156C109992,14156 109947,16122.4 109921,17825C109901,19124.9 109894,20271 109894,20271C109894,20278.7 109968,20285 110058,20285L122774,20285.1C122865,20285.1 122939,20278.8 122939,20271C122939,20271 122930,19124.9 122906,17825C122873,16122.4 122816,14156 122816,14156ZM110124,14161.6C110127,14277.7 110170,16175.2 110195,17825C110213,19041.2 110221,20122.7 110222,20257L122609,20256.9C122610,20122 122619,19040.8 122642,17825C122674,16164.4 122730,14253 122732,14159.6L110124,14161.6Z" style="fill:rgb(221,148,57);"/>
        </g>
        <g transform="matrix(1.06541e-17,0.27431,-0.705368,4.39222e-17,14101.9,-29877.2)">
          <path d="M122811,14156C122811,14148 122795,14141.5 122774,14141.5L110058,14117.8C110004,14117.8 109960,14134.9 109960,14156C109960,14156 109938,16122.4 109925,17825C109915,19124.9 109912,20271 109912,20271C109912,20302.5 109977,20328 110058,20328C110058,20328 113237,20329.4 116416,20327.1C119595,20324.8 122774,20318.8 122774,20318.8C122842,20318.8 122897,20297.4 122897,20271L122811,14156ZM110156,14194C110159,14474.8 110179,16261.1 110191,17825C110199,18954.2 110203,19967.4 110204,20214C110862,20213.7 113639,20212.9 116416,20214.9C119228,20216.9 122041,20221.9 122652,20223L122737,14170.6L110156,14194Z" style="fill:rgb(221,148,57);"/>
        </g>
        <g transform="matrix(1.43042e-17,0.27431,-0.289082,1.8496e-17,23024.5,-29877.2)">
          <path d="M122811,14156C122811,14136.5 122795,14120.6 122774,14120.6L110058,14039.4C109990,14039.4 109935,14091.6 109935,14156L109912,20271C109912,20347.8 109977,20410 110058,20410C110058,20410 112441,20413.9 115144,20404.6C118685,20392.5 122774,20360.3 122774,20360.3C122826,20360.3 122868,20320.3 122868,20271L122811,14156ZM122681,20181L122736,14191.6L110181,14271.8L110204,20131.9C110760,20131.2 112835,20129.5 115144,20137.4C118371,20148.5 122054,20176.2 122681,20181Z" style="fill:rgb(221,148,57);"/>
        </g>
        <g transform="matrix(1.23362e-17,0.311407,-0.725191,4.51872e-17,22840.4,-33893.6)">
          <path d="M122807,14156C122807,14148.2 122792,14141.9 122774,14141.9L110058,14117.7C110009,14117.7 109969,14134.8 109969,14156L109929,20271C109929,20301.6 109987,20326.4 110058,20326.4C110058,20326.4 112441,20328 115144,20326.2C118685,20323.9 122774,20316.4 122774,20316.4C122832,20316.4 122879,20296.1 122879,20271L122807,14156ZM122669,20225.4L122741,14170.2L110147,14194.1L110186,20215.5C110716,20215.2 112811,20214.2 115144,20215.8C118352,20217.9 122009,20224.3 122669,20225.4Z" style="fill:rgb(221,148,57);"/>
        </g>
        <g transform="matrix(1.50691,0,0,0.233391,-165962,-3054.08)">
          <rect x="110058" y="14156" width="12716" height="6115" style="fill:rgb(25,15,25);"/>
          <path d="M122781,14156C122781,14131.9 122778,14112.3 122774,14112.3C122774,14112.3 118685,14058.6 115144,14025.4C112441,13999.9 110058,13987.7 110058,13987.7C110044,13987.7 110032,14063 110032,14156L110031,20271C110031,20365.8 110043,20442.7 110058,20442.7C110058,20442.7 110874,20447.5 112093,20444.2C112957,20441.8 114023,20435.9 115144,20425.4C118685,20392.3 122774,20329.7 122774,20329.7C122779,20329.7 122783,20303.4 122783,20271L122781,14156ZM122767,14199.8C122580,14202.2 118601,14254.1 115144,14286.6C112606,14310.5 110350,14322.8 110084,14324.2L110085,20099.2C110234,20098.4 111002,20094.9 112093,20097.8C112957,20100.2 114023,20106.1 115144,20116.6C118588,20148.8 122550,20208.9 122765,20212.2L122767,14199.8Z" style="fill:rgb(221,148,57);"/>
        </g>
        <g transform="matrix(1.52103,0,0,0.210099,-167698,-3046.66)">
          <rect x="110058" y="14156" width="12716" height="6115" style="fill:rgb(25,15,25);"/>
          <path d="M122781,14156C122781,14129.2 122778,14107.4 122774,14107.4C122774,14107.4 118685,14047.4 115144,14010.3C112441,13981.9 110058,13968.4 110058,13968.4C110044,13968.4 110032,14052.4 110032,14156L110032,20271C110032,20376.3 110043,20461.7 110058,20461.7C110058,20461.7 110874,20467.1 112093,20463.3C112957,20460.7 114023,20454 115144,20442.2C118685,20404.9 122774,20334.5 122774,20334.5C122779,20334.5 122783,20306.1 122783,20271L122781,14156ZM122767,14204.7C122582,14207.4 118602,14265.5 115144,14301.7C112606,14328.3 110349,14341.9 110084,14343.4L110084,20080.1C110233,20079.2 111002,20075.3 112093,20078.7C112957,20081.3 114023,20088 115144,20099.8C118590,20136.1 122554,20203.7 122765,20207.3L122767,14204.7Z" style="fill:rgb(221,148,57);"/>
        </g>
        <g transform="matrix(-6.129e-18,0.0999752,-1.312,8.04218e-17,32020.6,-10179.7)">
          <rect x="110058" y="14156" width="12716" height="6115" style="fill:rgb(19,10,20);"/>
          <path d="M122876,14156C122876,14151.7 122830,14148.2 122774,14148.2L110058,14144.1C109972,14144.1 109902,14149.4 109902,14156C109902,14156 109789,16122.4 109724,17825C109675,19124.9 109657,20271 109657,20271C109657,20287.9 109837,20301.6 110058,20301.6L122774,20301.9C122998,20301.9 123179,20288.1 123179,20271C123179,20271 123160,19124.9 123099,17825C123020,16122.4 122876,14156 122876,14156ZM110214,14167.9C110224,14333.2 110330,16199.3 110392,17825C110436,19000.5 110455,20050.2 110458,20240.4L122370,20240.1C122373,20049.1 122394,18999.8 122449,17825C122525,16184.8 122662,14300 122671,14163.8L110214,14167.9Z" style="fill:rgb(221,148,57);"/>
        </g>
        <g transform="matrix(1.10019e-17,0.278105,-2.87188,1.7894e-16,57579.3,-3650.84)">
          <path d="M122811,14156C122811,14154 122794,14152.4 122774,14152.4L110058,14150.1C110025,14150.1 109998,14152.8 109998,14156C109998,14156 109959,16122.4 109937,17825C109920,19124.9 109914,20271 109914,20271C109914,20278.7 109978,20285 110058,20285L122774,20285C122854,20285 122919,20278.8 122919,20271C122919,20271 122911,19124.9 122889,17825C122860,16122.4 122811,14156 122811,14156ZM110118,14161.9C110121,14280.4 110158,16176.4 110179,17825C110195,19041.2 110201,20122.7 110202,20257L122629,20257C122630,20122.5 122639,19041 122659,17825C122687,16164.4 122735,14253 122737,14159.6L110118,14161.9Z" style="fill:rgb(221,148,57);"/>
        </g>
        <g transform="matrix(1.43418e-17,0.293328,-0.417932,2.64242e-17,7819.83,-5695.11)">
          <path d="M122809,14156C122809,14142.5 122793,14131.5 122774,14131.5L110058,14080.3C109999,14080.3 109950,14114.2 109950,14156L109921,20271C109921,20324.1 109983,20367.1 110058,20367.1C110058,20367.1 112441,20370.1 115144,20365C118685,20358.3 122774,20339.3 122774,20339.3C122828,20339.3 122871,20308.7 122871,20271L122809,14156ZM122678,20202.3L122739,14180.6L110166,14231.2L110194,20174.7C110736,20174.2 112822,20172.6 115144,20177C118366,20183.1 122041,20199.4 122678,20202.3Z" style="fill:rgb(221,148,57);"/>
        </g>
        <g transform="matrix(1.22314e-17,0.302836,-0.725191,4.52202e-17,29651.7,-6741.63)">
          <path d="M122808,14156C122808,14148.2 122793,14141.9 122774,14141.9L110058,14118C110008,14118 109967,14135 109967,14156L109926,20271C109926,20301.6 109985,20326.4 110058,20326.4C110058,20326.4 113237,20327.8 116416,20325.3C119595,20322.9 122774,20316.7 122774,20316.7C122834,20316.7 122883,20296.2 122883,20271L122808,14156ZM122665,20225.1L122740,14170.2L110149,14193.8L110190,20215.6C110822,20215.3 113619,20214.5 116416,20216.7C119249,20218.8 122083,20224 122665,20225.1Z" style="fill:rgb(221,148,57);"/>
        </g>
        <g transform="matrix(1.43792e-17,0.344688,-0.725191,4.52827e-17,20627.3,-11885.9)">
          <path d="M122804,14156C122804,14148.2 122790,14141.9 122774,14141.9L110058,14116.5C110012,14116.5 109975,14134.2 109975,14156L109942,20271C109942,20301.6 109994,20326.4 110058,20326.4C110058,20326.4 112441,20328 115144,20326C118685,20323.4 122774,20315.2 122774,20315.2C122825,20315.2 122867,20295.4 122867,20271L122804,14156ZM122682,20226.6L122744,14170.2L110141,14195.4L110174,20215.5C110682,20215.2 112792,20214.2 115144,20216C118372,20218.4 122056,20225.4 122682,20226.6Z" style="fill:rgb(221,148,57);"/>
        </g>
        <g transform="matrix(1.84532,0,0,0.322371,-206268,23896)">
          <rect x="110058" y="14156" width="12716" height="6115" style="fill:rgb(25,15,25);"/>
          <path d="M122780,14156C122780,14138.5 122777,14124.4 122774,14124.4C122774,14124.4 118685,14085.9 115144,14061.9C112441,14043.5 110058,14034.6 110058,14034.6C110046,14034.6 110037,14088.9 110037,14156L110036,20271C110036,20339.7 110046,20395.3 110058,20395.3C110058,20395.3 110874,20398.7 112093,20396.4C112957,20394.7 114023,20390.5 115144,20383C118685,20359.4 122774,20314.8 122774,20314.8C122778,20314.8 122782,20295.2 122782,20271L122780,14156ZM122768,14187.7C122599,14189.3 118609,14226.6 115144,14250.1C112590,14267.5 110321,14276.4 110079,14277.4L110080,20146.6C110217,20146.1 110990,20143.5 112093,20145.6C112957,20147.3 114023,20151.5 115144,20159C118596,20182 122569,20225 122766,20227.1L122768,14187.7Z" style="fill:rgb(221,148,57);"/>
        </g>
        <g transform="matrix(1.60205,0,0,0.239759,-177010,25468.7)">
          <rect x="110058" y="14156" width="12716" height="6115" style="fill:rgb(25,15,25);"/>
          <path d="M122780,14156C122780,14132.5 122778,14113.5 122774,14113.5C122774,14113.5 118685,14061.1 115144,14028.7C112441,14003.9 110058,13992 110058,13992C110044,13992 110033,14065.4 110033,14156L110033,20271C110033,20363.3 110044,20438.1 110058,20438.1C110058,20438.1 110874,20442.8 112093,20439.6C112957,20437.3 114023,20431.4 115144,20421.2C118685,20388.8 122774,20327.7 122774,20327.7C122779,20327.7 122783,20302.3 122783,20271L122780,14156ZM122768,14198.6C122587,14200.9 118604,14251.6 115144,14283.3C112601,14306.6 110341,14318.6 110083,14319.9L110083,20103.7C110229,20103 110998,20099.5 112093,20102.4C112957,20104.7 114023,20110.6 115144,20120.8C118591,20152.3 122558,20211.1 122766,20214.2L122768,14198.6Z" style="fill:rgb(221,148,57);"/>
        </g>
        <g transform="matrix(-6.129e-18,0.0999752,-1.312,8.04218e-17,32020.6,17031.4)">
          <rect x="110058" y="14156" width="12716" height="6115" style="fill:rgb(19,10,20);"/>
          <path d="M122876,14156C122876,14151.7 122830,14148.2 122774,14148.2L110058,14144.1C109972,14144.1 109902,14149.4 109902,14156C109902,14156 109789,16122.4 109724,17825C109675,19124.9 109657,20271 109657,20271C109657,20287.9 109837,20301.6 110058,20301.6L122774,20301.9C122998,20301.9 123179,20288.1 123179,20271C123179,20271 123160,19124.9 123099,17825C123020,16122.4 122876,14156 122876,14156ZM110214,14167.9C110224,14333.2 110330,16199.3 110392,17825C110436,19000.5 110455,20050.2 110458,20240.4L122370,20240.1C122373,20049.1 122394,18999.8 122449,17825C122525,16184.8 122662,14300 122671,14163.8L110214,14167.9Z" style="fill:rgb(221,148,57);"/>
        </g>
        <g transform="matrix(4.81614,0,0,4.80405,7026.17,28237.8)">
          <path d="M292.588,57.94C282.437,57.94 274.526,63.082 270.571,71.19L270.242,71.19L270.242,59.127L254.224,59.127L254.224,152.005L270.637,152.005L270.637,117.398L270.967,117.398C274.79,125.243 282.7,130.121 292.852,130.121C310.386,130.121 321.592,116.344 321.592,94.064C321.592,71.717 310.32,57.94 292.588,57.94ZM287.578,116.673C277.361,116.673 270.571,107.774 270.505,94.064C270.571,80.484 277.361,71.454 287.578,71.454C298.191,71.454 304.783,80.287 304.783,94.064C304.783,107.906 298.191,116.673 287.578,116.673ZM332.139,129L348.552,129L348.552,88.329C348.552,78.507 354.155,72.508 363.45,72.508C366.218,72.508 368.723,72.904 370.107,73.431L370.107,58.6C368.921,58.336 367.075,57.94 364.966,57.94C356.726,57.94 350.596,62.818 348.223,71.322L347.893,71.322L347.893,59.127L332.139,59.127L332.139,129ZM406.824,130.384C427.324,130.384 440.64,116.739 440.64,94.064C440.64,71.454 427.192,57.677 406.824,57.677C386.455,57.677 373.008,71.519 373.008,94.064C373.008,116.739 386.323,130.384 406.824,130.384ZM406.824,117.398C396.409,117.398 389.685,108.961 389.685,94.064C389.685,79.232 396.475,70.729 406.824,70.729C417.239,70.729 423.962,79.232 423.962,94.064C423.962,108.961 417.239,117.398 406.824,117.398ZM449.934,79.166C449.934,89.515 456.658,96.107 470.039,99.073L481.641,101.644C488.958,103.292 491.462,105.665 491.462,109.884C491.462,115.091 486.519,118.387 478.543,118.387C470.237,118.387 465.557,114.959 464.304,108.17L448.154,108.17C449.473,121.683 460.283,130.384 478.543,130.384C495.681,130.384 507.81,121.485 507.81,108.302C507.81,98.15 502.207,92.547 487.705,89.317L476.104,86.747C468.787,85.099 465.886,82.33 465.886,78.309C465.886,73.168 470.698,69.74 477.949,69.74C485.53,69.74 490.21,73.761 490.869,80.089L506.162,80.089C505.767,66.839 494.956,57.677 477.949,57.677C461.074,57.677 449.934,66.378 449.934,79.166ZM556.655,57.94C546.504,57.94 538.594,63.082 534.639,71.19L534.309,71.19L534.309,59.127L518.291,59.127L518.291,152.005L534.705,152.005L534.705,117.398L535.034,117.398C538.857,125.243 546.768,130.121 556.919,130.121C574.453,130.121 585.659,116.344 585.659,94.064C585.659,71.717 574.387,57.94 556.655,57.94ZM551.646,116.673C541.428,116.673 534.639,107.774 534.573,94.064C534.639,80.484 541.428,71.454 551.646,71.454C562.258,71.454 568.85,80.287 568.85,94.064C568.85,107.906 562.258,116.673 551.646,116.673ZM642.481,108.104C640.701,113.905 634.9,117.728 627.253,117.728C616.509,117.728 609.653,110.213 609.653,99.007L609.653,98.019L658.499,98.019L658.499,92.679C658.499,71.454 646.106,57.677 626.265,57.677C606.094,57.677 593.306,72.245 593.306,94.327C593.306,116.607 605.962,130.384 626.924,130.384C643.469,130.384 655.73,121.288 657.839,108.104L642.481,108.104ZM626.331,70.399C635.757,70.399 642.085,77.32 642.415,87.208L609.785,87.208C610.444,77.452 617.102,70.399 626.331,70.399ZM730.679,84.044C729.558,69.344 718.154,57.677 699.697,57.677C679.395,57.677 666.211,71.717 666.211,94.064C666.211,116.739 679.395,130.384 699.829,130.384C717.363,130.384 729.426,120.101 730.745,104.479L715.254,104.479C713.738,112.389 708.333,117.135 700.027,117.135C689.612,117.135 682.888,108.697 682.888,94.064C682.888,79.693 689.546,70.992 699.895,70.992C708.662,70.992 713.87,76.595 715.188,84.044L730.679,84.044ZM745.115,42.779L745.115,59.127L735.095,59.127L735.095,71.783L745.115,71.783L745.115,110.411C745.115,123.99 751.047,129.33 766.143,129.33C769.636,129.33 772.866,129.066 774.646,128.67L774.646,116.146C773.591,116.344 771.482,116.476 769.966,116.476C764.165,116.476 761.528,113.839 761.528,108.104L761.528,71.783L774.712,71.783L774.712,59.127L761.528,59.127L761.528,42.779L745.115,42.779ZM872.139,60.445L863.372,60.445L848.013,119.244L847.815,119.244L830.742,60.445L821.909,60.445L804.837,119.244L804.639,119.244L789.28,60.445L780.447,60.445L799.959,129L809.187,129L826.194,72.113L826.392,72.113L843.464,129L852.693,129L872.139,60.445ZM885.916,46.207C889.146,46.207 891.782,43.636 891.782,40.406C891.782,37.176 889.146,34.606 885.916,34.606C882.752,34.606 880.115,37.176 880.115,40.406C880.115,43.636 882.752,46.207 885.916,46.207ZM881.565,129L890.266,129L890.266,60.445L881.565,60.445L881.565,129ZM909.646,43.307L909.646,60.445L899.429,60.445L899.429,67.696L909.646,67.696L909.646,112.125C909.646,124.518 914.26,129.396 925.73,129.396C927.576,129.396 931.267,129.198 932.19,129L932.19,121.551C931.663,121.683 928.367,121.815 927.444,121.815C921.116,121.815 918.347,118.783 918.347,111.729L918.347,67.696L931.86,67.696L931.86,60.445L918.347,60.445L918.347,43.307L909.646,43.307ZM944.846,129L953.613,129L953.613,88.658C953.613,75.738 961.589,67.103 973.916,67.103C985.518,67.103 992.175,74.288 992.175,86.153L992.175,129L1000.94,129L1000.94,84.703C1000.94,69.344 991.45,59.325 976.421,59.325C965.479,59.325 957.305,64.664 953.811,73.102L953.613,73.102L953.613,33.88L944.846,33.88L944.846,129Z" style="fill:rgb(231,231,231);fill-rule:nonzero;"/>
        </g>
        <g transform="matrix(4.81614,0,0,4.80405,7026.17,28237.8)">
          <path d="M118.542,51.959L119.77,0L81.075,104.536L148.331,57.526L185.49,94.639L147.409,121.237L136.968,112.577L130.212,136.392L146.488,149.691L220.5,98.041L151.402,27.835L118.542,51.959Z" style="fill:rgb(231,231,231);fill-rule:nonzero;"/>
        </g>
        <g transform="matrix(4.81614,0,0,4.80405,7026.17,28237.8)">
          <path d="M73.398,30.309L92.745,46.392L84.146,68.041L72.169,58.763L34.396,85.051L71.555,122.474L136.354,78.557L109.636,180L104.415,127.423L68.791,151.546L0,81.959L73.398,30.309Z" style="fill:rgb(231,231,231);fill-rule:nonzero;"/>
        </g>
        <g transform="matrix(2.58596,0,0,2.57947,4894.5,650.092)">
          <g transform="matrix(243.714,0,0,243.714,472,394)">
            <path d="M0.275,0.018C0.351,0.018 0.41,-0.003 0.452,-0.044C0.495,-0.085 0.516,-0.143 0.516,-0.217L0.516,-0.705L0.368,-0.705L0.368,-0.218C0.368,-0.183 0.36,-0.156 0.344,-0.137C0.328,-0.119 0.304,-0.109 0.273,-0.109C0.254,-0.109 0.237,-0.113 0.224,-0.121C0.21,-0.129 0.2,-0.14 0.193,-0.154C0.185,-0.168 0.181,-0.184 0.18,-0.202L0.18,-0.205L0.037,-0.205L0.037,-0.201C0.038,-0.157 0.049,-0.118 0.068,-0.085C0.087,-0.053 0.114,-0.027 0.149,-0.009C0.185,0.009 0.226,0.018 0.275,0.018Z" style="fill:rgb(231,231,231);fill-rule:nonzero;"/>
          </g>
          <g transform="matrix(243.714,0,0,243.714,604.852,394)">
            <path d="M0.38,0.018C0.441,0.018 0.493,0.007 0.537,-0.015C0.581,-0.036 0.615,-0.067 0.639,-0.106C0.663,-0.145 0.675,-0.191 0.675,-0.243L0.675,-0.705L0.528,-0.705L0.528,-0.256C0.528,-0.211 0.515,-0.174 0.49,-0.147C0.464,-0.12 0.428,-0.107 0.38,-0.107C0.333,-0.107 0.297,-0.12 0.271,-0.147C0.245,-0.174 0.232,-0.211 0.232,-0.256L0.232,-0.705L0.085,-0.705L0.085,-0.243C0.085,-0.191 0.097,-0.145 0.121,-0.106C0.146,-0.067 0.18,-0.036 0.224,-0.015C0.268,0.007 0.32,0.018 0.38,0.018Z" style="fill:rgb(231,231,231);fill-rule:nonzero;"/>
          </g>
          <g transform="matrix(243.714,0,0,243.714,786.733,394)">
            <path d="M0.085,-0L0.546,-0L0.546,-0.122L0.233,-0.122L0.233,-0.705L0.085,-0.705L0.085,-0Z" style="fill:rgb(231,231,231);fill-rule:nonzero;"/>
          </g>
          <g transform="matrix(243.714,0,0,243.714,926.726,394)">
            <rect x="0.085" y="-0.705" width="0.147" height="0.705" style="fill:rgb(231,231,231);fill-rule:nonzero;"/>
          </g>
          <g transform="matrix(243.714,0,0,243.714,993.652,394)">
            <path d="M0.085,-0L0.552,-0L0.552,-0.122L0.233,-0.122L0.233,-0.3L0.534,-0.3L0.534,-0.413L0.233,-0.413L0.233,-0.583L0.552,-0.583L0.552,-0.705L0.085,-0.705L0.085,-0Z" style="fill:rgb(231,231,231);fill-rule:nonzero;"/>
          </g>
          <g transform="matrix(243.714,0,0,243.714,1140.43,394)">
            <path d="M0.085,-0L0.227,-0L0.227,-0.451L0.3,-0.451L0.197,-0.503L0.561,-0L0.683,-0L0.683,-0.705L0.542,-0.705L0.542,-0.256L0.468,-0.256L0.571,-0.204L0.208,-0.705L0.085,-0.705L0.085,-0Z" style="fill:rgb(231,231,231);fill-rule:nonzero;"/>
          </g>
          <g transform="matrix(243.714,0,0,243.714,1385.19,394)">
            <path d="M0.085,-0L0.546,-0L0.546,-0.122L0.233,-0.122L0.233,-0.705L0.085,-0.705L0.085,-0Z" style="fill:rgb(231,231,231);fill-rule:nonzero;"/>
          </g>
          <g transform="matrix(243.714,0,0,243.714,1525.18,394)">
            <path d="M0.085,-0L0.552,-0L0.552,-0.122L0.233,-0.122L0.233,-0.3L0.534,-0.3L0.534,-0.413L0.233,-0.413L0.233,-0.583L0.552,-0.583L0.552,-0.705L0.085,-0.705L0.085,-0Z" style="fill:rgb(231,231,231);fill-rule:nonzero;"/>
          </g>
          <g transform="matrix(243.714,0,0,243.714,1734.12,394)">
            <path d="M0.385,0.018C0.442,0.018 0.492,0.008 0.536,-0.013C0.58,-0.034 0.616,-0.063 0.643,-0.101C0.67,-0.138 0.686,-0.181 0.691,-0.23L0.691,-0.236L0.547,-0.236L0.546,-0.231C0.542,-0.206 0.532,-0.184 0.517,-0.166C0.502,-0.147 0.483,-0.133 0.461,-0.122C0.439,-0.112 0.414,-0.107 0.385,-0.107C0.348,-0.107 0.316,-0.117 0.289,-0.137C0.262,-0.157 0.241,-0.185 0.227,-0.222C0.212,-0.258 0.205,-0.302 0.205,-0.352L0.205,-0.353C0.205,-0.403 0.212,-0.447 0.227,-0.484C0.241,-0.52 0.262,-0.548 0.289,-0.568C0.316,-0.588 0.348,-0.598 0.385,-0.598C0.413,-0.598 0.438,-0.592 0.461,-0.581C0.483,-0.57 0.502,-0.554 0.517,-0.534C0.532,-0.514 0.542,-0.491 0.547,-0.465L0.547,-0.461L0.69,-0.461L0.69,-0.468C0.686,-0.517 0.67,-0.561 0.643,-0.6C0.615,-0.638 0.579,-0.668 0.535,-0.69C0.49,-0.712 0.44,-0.723 0.385,-0.723C0.316,-0.723 0.258,-0.708 0.208,-0.678C0.159,-0.648 0.121,-0.606 0.094,-0.55C0.068,-0.495 0.054,-0.429 0.054,-0.353L0.054,-0.352C0.054,-0.276 0.068,-0.21 0.094,-0.155C0.121,-0.099 0.159,-0.057 0.208,-0.027C0.258,0.003 0.317,0.018 0.385,0.018Z" style="fill:rgb(231,231,231);fill-rule:nonzero;"/>
          </g>
          <g transform="matrix(243.714,0,0,243.714,1913.5,394)">
            <path d="M0.394,0.018C0.463,0.018 0.523,0.003 0.574,-0.027C0.625,-0.057 0.664,-0.1 0.691,-0.155C0.719,-0.211 0.732,-0.276 0.732,-0.352L0.732,-0.353C0.732,-0.429 0.719,-0.494 0.691,-0.55C0.663,-0.605 0.624,-0.648 0.573,-0.678C0.523,-0.708 0.463,-0.723 0.394,-0.723C0.325,-0.723 0.265,-0.708 0.214,-0.678C0.163,-0.648 0.124,-0.605 0.096,-0.55C0.068,-0.495 0.054,-0.429 0.054,-0.353L0.054,-0.352C0.054,-0.276 0.068,-0.211 0.095,-0.155C0.123,-0.1 0.162,-0.057 0.213,-0.027C0.264,0.003 0.324,0.018 0.394,0.018ZM0.394,-0.107C0.355,-0.107 0.321,-0.117 0.293,-0.137C0.265,-0.157 0.243,-0.186 0.228,-0.223C0.212,-0.259 0.205,-0.303 0.205,-0.352L0.205,-0.353C0.205,-0.403 0.212,-0.446 0.228,-0.483C0.244,-0.519 0.266,-0.548 0.294,-0.568C0.322,-0.588 0.355,-0.598 0.394,-0.598C0.432,-0.598 0.465,-0.588 0.493,-0.568C0.521,-0.548 0.543,-0.519 0.559,-0.483C0.574,-0.446 0.582,-0.403 0.582,-0.353L0.582,-0.352C0.582,-0.303 0.574,-0.259 0.559,-0.223C0.543,-0.186 0.521,-0.157 0.493,-0.137C0.465,-0.117 0.432,-0.107 0.394,-0.107Z" style="fill:rgb(231,231,231);fill-rule:nonzero;"/>
          </g>
          <g transform="matrix(243.714,0,0,243.714,2103.95,394)">
            <path d="M0.38,0.018C0.441,0.018 0.493,0.007 0.537,-0.015C0.581,-0.036 0.615,-0.067 0.639,-0.106C0.663,-0.145 0.675,-0.191 0.675,-0.243L0.675,-0.705L0.528,-0.705L0.528,-0.256C0.528,-0.211 0.515,-0.174 0.49,-0.147C0.464,-0.12 0.428,-0.107 0.38,-0.107C0.333,-0.107 0.297,-0.12 0.271,-0.147C0.245,-0.174 0.232,-0.211 0.232,-0.256L0.232,-0.705L0.085,-0.705L0.085,-0.243C0.085,-0.191 0.097,-0.145 0.121,-0.106C0.146,-0.067 0.18,-0.036 0.224,-0.015C0.268,0.007 0.32,0.018 0.38,0.018Z" style="fill:rgb(231,231,231);fill-rule:nonzero;"/>
          </g>
          <g transform="matrix(243.714,0,0,243.714,2285.83,394)">
            <path d="M0.159,-0.222L0.376,-0.222C0.425,-0.222 0.469,-0.232 0.506,-0.252C0.543,-0.272 0.572,-0.3 0.593,-0.336C0.613,-0.372 0.624,-0.414 0.624,-0.463L0.624,-0.464C0.624,-0.512 0.613,-0.554 0.593,-0.59C0.572,-0.626 0.543,-0.655 0.506,-0.675C0.469,-0.695 0.425,-0.705 0.376,-0.705L0.159,-0.705L0.159,-0.588L0.34,-0.588C0.382,-0.588 0.415,-0.577 0.439,-0.556C0.462,-0.534 0.474,-0.503 0.474,-0.463L0.474,-0.462C0.474,-0.422 0.462,-0.392 0.439,-0.37C0.415,-0.348 0.382,-0.337 0.34,-0.337L0.159,-0.337L0.159,-0.222ZM0.085,-0L0.233,-0L0.233,-0.705L0.085,-0.705L0.085,-0Z" style="fill:rgb(231,231,231);fill-rule:nonzero;"/>
          </g>
          <g transform="matrix(243.714,0,0,243.714,2425.71,394)">
            <path d="M0.035,-0L0.19,-0L0.362,-0.564L0.405,-0.564L0.405,-0.705L0.28,-0.705L0.035,-0ZM0.166,-0.171L0.564,-0.171L0.528,-0.281L0.202,-0.281L0.166,-0.171ZM0.543,-0L0.698,-0L0.453,-0.705L0.371,-0.705L0.371,-0.564L0.543,-0Z" style="fill:rgb(231,231,231);fill-rule:nonzero;"/>
          </g>
          <g transform="matrix(243.714,0,0,243.714,2592.71,394)">
            <path d="M0.085,-0L0.227,-0L0.227,-0.451L0.3,-0.451L0.197,-0.503L0.561,-0L0.683,-0L0.683,-0.705L0.542,-0.705L0.542,-0.256L0.468,-0.256L0.571,-0.204L0.208,-0.705L0.085,-0.705L0.085,-0Z" style="fill:rgb(231,231,231);fill-rule:nonzero;"/>
          </g>
          <g transform="matrix(243.714,0,0,243.714,2775.31,394)">
            <path d="M0.085,-0L0.552,-0L0.552,-0.122L0.233,-0.122L0.233,-0.3L0.534,-0.3L0.534,-0.413L0.233,-0.413L0.233,-0.583L0.552,-0.583L0.552,-0.705L0.085,-0.705L0.085,-0Z" style="fill:rgb(231,231,231);fill-rule:nonzero;"/>
          </g>
          <g transform="matrix(243.714,0,0,243.714,2922.08,394)">
            <path d="M0.385,0.018C0.442,0.018 0.492,0.008 0.536,-0.013C0.58,-0.034 0.616,-0.063 0.643,-0.101C0.67,-0.138 0.686,-0.181 0.691,-0.23L0.691,-0.236L0.547,-0.236L0.546,-0.231C0.542,-0.206 0.532,-0.184 0.517,-0.166C0.502,-0.147 0.483,-0.133 0.461,-0.122C0.439,-0.112 0.414,-0.107 0.385,-0.107C0.348,-0.107 0.316,-0.117 0.289,-0.137C0.262,-0.157 0.241,-0.185 0.227,-0.222C0.212,-0.258 0.205,-0.302 0.205,-0.352L0.205,-0.353C0.205,-0.403 0.212,-0.447 0.227,-0.484C0.241,-0.52 0.262,-0.548 0.289,-0.568C0.316,-0.588 0.348,-0.598 0.385,-0.598C0.413,-0.598 0.438,-0.592 0.461,-0.581C0.483,-0.57 0.502,-0.554 0.517,-0.534C0.532,-0.514 0.542,-0.491 0.547,-0.465L0.547,-0.461L0.69,-0.461L0.69,-0.468C0.686,-0.517 0.67,-0.561 0.643,-0.6C0.615,-0.638 0.579,-0.668 0.535,-0.69C0.49,-0.712 0.44,-0.723 0.385,-0.723C0.316,-0.723 0.258,-0.708 0.208,-0.678C0.159,-0.648 0.121,-0.606 0.094,-0.55C0.068,-0.495 0.054,-0.429 0.054,-0.353L0.054,-0.352C0.054,-0.276 0.068,-0.21 0.094,-0.155C0.121,-0.099 0.159,-0.057 0.208,-0.027C0.258,0.003 0.317,0.018 0.385,0.018Z" style="fill:rgb(231,231,231);fill-rule:nonzero;"/>
          </g>
        </g>
        <g>
          <g transform="matrix(2871.26,0,0,2864.05,5064.43,15409.4)">
            <path d="M0.354,0.02C0.419,0.02 0.474,0.01 0.52,-0.01C0.566,-0.03 0.601,-0.058 0.625,-0.094C0.649,-0.131 0.662,-0.174 0.662,-0.223L0.662,-0.223C0.662,-0.282 0.643,-0.328 0.607,-0.36C0.571,-0.392 0.515,-0.416 0.439,-0.43L0.368,-0.443C0.333,-0.449 0.307,-0.457 0.292,-0.467C0.276,-0.477 0.268,-0.49 0.268,-0.508L0.268,-0.508C0.268,-0.519 0.271,-0.529 0.277,-0.537C0.284,-0.546 0.294,-0.553 0.306,-0.558C0.319,-0.563 0.335,-0.565 0.354,-0.565C0.373,-0.565 0.39,-0.563 0.404,-0.558C0.419,-0.552 0.431,-0.545 0.44,-0.536C0.449,-0.527 0.454,-0.515 0.457,-0.502L0.458,-0.497L0.647,-0.497L0.647,-0.502C0.643,-0.546 0.63,-0.585 0.607,-0.618C0.584,-0.651 0.552,-0.677 0.509,-0.696C0.467,-0.715 0.414,-0.724 0.352,-0.724C0.296,-0.724 0.246,-0.715 0.203,-0.695C0.159,-0.676 0.125,-0.649 0.1,-0.614C0.075,-0.579 0.063,-0.537 0.063,-0.489L0.063,-0.488C0.063,-0.432 0.08,-0.386 0.114,-0.351C0.149,-0.315 0.204,-0.29 0.279,-0.276L0.35,-0.263C0.389,-0.256 0.417,-0.248 0.433,-0.24C0.449,-0.232 0.457,-0.22 0.457,-0.203L0.457,-0.202C0.457,-0.19 0.452,-0.179 0.444,-0.17C0.436,-0.16 0.425,-0.153 0.41,-0.147C0.395,-0.142 0.377,-0.139 0.356,-0.139C0.336,-0.139 0.317,-0.142 0.302,-0.147C0.286,-0.153 0.273,-0.16 0.264,-0.17C0.255,-0.179 0.25,-0.19 0.248,-0.202L0.248,-0.206L0.051,-0.206L0.051,-0.196C0.054,-0.151 0.067,-0.112 0.092,-0.08C0.117,-0.048 0.152,-0.023 0.196,-0.006C0.24,0.011 0.293,0.02 0.354,0.02Z" style="fill:rgb(231,231,231);fill-rule:nonzero;"/>
          </g>
          <g transform="matrix(2871.26,0,0,2864.05,6882.69,15409.4)">
            <path d="M0.036,-0L0.254,-0L0.391,-0.537L0.45,-0.537L0.45,-0.705L0.266,-0.705L0.036,-0ZM0.181,-0.14L0.604,-0.14L0.559,-0.286L0.226,-0.286L0.181,-0.14ZM0.538,-0L0.756,-0L0.526,-0.705L0.401,-0.705L0.401,-0.537L0.538,-0Z" style="fill:rgb(231,231,231);fill-rule:nonzero;"/>
          </g>
          <g transform="matrix(2871.26,0,0,2864.05,8821.51,15409.4)">
            <path d="M0.081,-0L0.575,-0L0.575,-0.164L0.288,-0.164L0.288,-0.705L0.081,-0.705L0.081,-0Z" style="fill:rgb(231,231,231);fill-rule:nonzero;"/>
          </g>
          <g transform="matrix(2871.26,0,0,2864.05,10442.1,15409.4)">
            <path d="M0.081,-0L0.578,-0L0.578,-0.164L0.288,-0.164L0.288,-0.278L0.56,-0.278L0.56,-0.426L0.288,-0.426L0.288,-0.541L0.578,-0.541L0.578,-0.705L0.081,-0.705L0.081,-0Z" style="fill:rgb(231,231,231);fill-rule:nonzero;"/>
          </g>
          <g transform="matrix(2871.26,0,0,2864.05,12142.6,15409.4)">
            <path d="M0.354,0.02C0.419,0.02 0.474,0.01 0.52,-0.01C0.566,-0.03 0.601,-0.058 0.625,-0.094C0.649,-0.131 0.662,-0.174 0.662,-0.223L0.662,-0.223C0.662,-0.282 0.643,-0.328 0.607,-0.36C0.571,-0.392 0.515,-0.416 0.439,-0.43L0.368,-0.443C0.333,-0.449 0.307,-0.457 0.292,-0.467C0.276,-0.477 0.268,-0.49 0.268,-0.508L0.268,-0.508C0.268,-0.519 0.271,-0.529 0.277,-0.537C0.284,-0.546 0.294,-0.553 0.306,-0.558C0.319,-0.563 0.335,-0.565 0.354,-0.565C0.373,-0.565 0.39,-0.563 0.404,-0.558C0.419,-0.552 0.431,-0.545 0.44,-0.536C0.449,-0.527 0.454,-0.515 0.457,-0.502L0.458,-0.497L0.647,-0.497L0.647,-0.502C0.643,-0.546 0.63,-0.585 0.607,-0.618C0.584,-0.651 0.552,-0.677 0.509,-0.696C0.467,-0.715 0.414,-0.724 0.352,-0.724C0.296,-0.724 0.246,-0.715 0.203,-0.695C0.159,-0.676 0.125,-0.649 0.1,-0.614C0.075,-0.579 0.063,-0.537 0.063,-0.489L0.063,-0.488C0.063,-0.432 0.08,-0.386 0.114,-0.351C0.149,-0.315 0.204,-0.29 0.279,-0.276L0.35,-0.263C0.389,-0.256 0.417,-0.248 0.433,-0.24C0.449,-0.232 0.457,-0.22 0.457,-0.203L0.457,-0.202C0.457,-0.19 0.452,-0.179 0.444,-0.17C0.436,-0.16 0.425,-0.153 0.41,-0.147C0.395,-0.142 0.377,-0.139 0.356,-0.139C0.336,-0.139 0.317,-0.142 0.302,-0.147C0.286,-0.153 0.273,-0.16 0.264,-0.17C0.255,-0.179 0.25,-0.19 0.248,-0.202L0.248,-0.206L0.051,-0.206L0.051,-0.196C0.054,-0.151 0.067,-0.112 0.092,-0.08C0.117,-0.048 0.152,-0.023 0.196,-0.006C0.24,0.011 0.293,0.02 0.354,0.02Z" style="fill:rgb(231,231,231);fill-rule:nonzero;"/>
          </g>
          <g transform="matrix(2216,0,0,2210.44,3612.09,17611)">
            <path d="M0.185,-0.192L0.396,-0.192C0.451,-0.192 0.499,-0.203 0.539,-0.223C0.579,-0.244 0.61,-0.273 0.632,-0.312C0.654,-0.35 0.665,-0.395 0.665,-0.447L0.665,-0.448C0.665,-0.5 0.654,-0.545 0.632,-0.583C0.61,-0.622 0.579,-0.652 0.539,-0.673C0.499,-0.694 0.451,-0.705 0.396,-0.705L0.185,-0.705L0.185,-0.549L0.347,-0.549C0.381,-0.549 0.408,-0.54 0.427,-0.524C0.446,-0.507 0.456,-0.482 0.456,-0.448L0.456,-0.447C0.456,-0.413 0.446,-0.388 0.427,-0.371C0.408,-0.354 0.381,-0.345 0.347,-0.345L0.185,-0.345L0.185,-0.192ZM0.081,-0L0.288,-0L0.288,-0.705L0.081,-0.705L0.081,-0Z" style="fill:rgb(231,231,231);fill-rule:nonzero;"/>
          </g>
          <g transform="matrix(2216,0,0,2210.44,4980.77,17611)">
            <path d="M0.081,-0L0.575,-0L0.575,-0.164L0.288,-0.164L0.288,-0.705L0.081,-0.705L0.081,-0Z" style="fill:rgb(231,231,231);fill-rule:nonzero;"/>
          </g>
          <g transform="matrix(2216,0,0,2210.44,6231.51,17611)">
            <path d="M0.036,-0L0.254,-0L0.391,-0.537L0.45,-0.537L0.45,-0.705L0.266,-0.705L0.036,-0ZM0.181,-0.14L0.604,-0.14L0.559,-0.286L0.226,-0.286L0.181,-0.14ZM0.538,-0L0.756,-0L0.526,-0.705L0.401,-0.705L0.401,-0.537L0.538,-0Z" style="fill:rgb(231,231,231);fill-rule:nonzero;"/>
          </g>
          <g transform="matrix(2216,0,0,2210.44,7533.11,17611)">
            <path d="M0.277,-0L0.484,-0L0.484,-0.223L0.725,-0.705L0.505,-0.705L0.386,-0.425L0.376,-0.425L0.255,-0.705L0.036,-0.705L0.277,-0.223L0.277,-0Z" style="fill:rgb(231,231,231);fill-rule:nonzero;"/>
          </g>
          <g transform="matrix(2216,0,0,2210.44,8978.61,17611)">
            <path d="M0.185,-0L0.439,-0C0.489,-0 0.533,-0.008 0.57,-0.025C0.607,-0.042 0.636,-0.066 0.657,-0.097C0.677,-0.128 0.688,-0.164 0.688,-0.205L0.688,-0.206C0.688,-0.235 0.68,-0.262 0.665,-0.286C0.65,-0.311 0.63,-0.331 0.605,-0.346C0.58,-0.361 0.552,-0.369 0.522,-0.37L0.522,-0.379C0.548,-0.383 0.571,-0.391 0.591,-0.405C0.611,-0.419 0.626,-0.437 0.638,-0.458C0.65,-0.48 0.656,-0.503 0.656,-0.528L0.656,-0.529C0.656,-0.566 0.647,-0.597 0.629,-0.623C0.611,-0.649 0.585,-0.67 0.551,-0.684C0.517,-0.698 0.476,-0.705 0.428,-0.705L0.185,-0.705L0.185,-0.563L0.371,-0.563C0.397,-0.563 0.418,-0.557 0.433,-0.544C0.447,-0.532 0.455,-0.515 0.455,-0.493L0.455,-0.492C0.455,-0.471 0.447,-0.455 0.431,-0.442C0.416,-0.429 0.395,-0.422 0.369,-0.422L0.185,-0.422L0.185,-0.304L0.378,-0.304C0.399,-0.304 0.417,-0.301 0.431,-0.294C0.446,-0.288 0.457,-0.279 0.465,-0.268C0.473,-0.256 0.477,-0.242 0.477,-0.225L0.477,-0.224C0.477,-0.197 0.468,-0.177 0.451,-0.163C0.433,-0.149 0.409,-0.142 0.376,-0.142L0.185,-0.142L0.185,-0ZM0.081,-0L0.288,-0L0.288,-0.705L0.081,-0.705L0.081,-0Z" style="fill:rgb(231,231,231);fill-rule:nonzero;"/>
          </g>
          <g transform="matrix(2216,0,0,2210.44,10406.8,17611)">
            <path d="M0.401,0.02C0.473,0.02 0.535,0.005 0.588,-0.025C0.641,-0.055 0.683,-0.098 0.712,-0.154C0.741,-0.209 0.755,-0.275 0.755,-0.352L0.755,-0.353C0.755,-0.43 0.741,-0.496 0.712,-0.551C0.683,-0.607 0.641,-0.649 0.588,-0.679C0.535,-0.709 0.473,-0.724 0.401,-0.724C0.329,-0.724 0.267,-0.709 0.214,-0.679C0.16,-0.649 0.119,-0.607 0.09,-0.551C0.061,-0.496 0.046,-0.43 0.046,-0.353L0.046,-0.352C0.046,-0.275 0.06,-0.209 0.09,-0.154C0.119,-0.098 0.16,-0.055 0.213,-0.025C0.266,0.005 0.329,0.02 0.401,0.02ZM0.401,-0.149C0.373,-0.149 0.348,-0.158 0.326,-0.174C0.304,-0.191 0.287,-0.214 0.275,-0.245C0.263,-0.275 0.257,-0.311 0.257,-0.352L0.257,-0.353C0.257,-0.394 0.263,-0.43 0.275,-0.46C0.287,-0.49 0.304,-0.514 0.326,-0.53C0.348,-0.547 0.373,-0.555 0.401,-0.555C0.429,-0.555 0.454,-0.547 0.476,-0.53C0.497,-0.514 0.514,-0.49 0.526,-0.46C0.538,-0.43 0.544,-0.394 0.544,-0.353L0.544,-0.352C0.544,-0.311 0.538,-0.275 0.526,-0.245C0.514,-0.214 0.497,-0.191 0.476,-0.174C0.454,-0.158 0.429,-0.149 0.401,-0.149Z" style="fill:rgb(231,231,231);fill-rule:nonzero;"/>
          </g>
          <g transform="matrix(2216,0,0,2210.44,12116.3,17611)">
            <path d="M0.401,0.02C0.473,0.02 0.535,0.005 0.588,-0.025C0.641,-0.055 0.683,-0.098 0.712,-0.154C0.741,-0.209 0.755,-0.275 0.755,-0.352L0.755,-0.353C0.755,-0.43 0.741,-0.496 0.712,-0.551C0.683,-0.607 0.641,-0.649 0.588,-0.679C0.535,-0.709 0.473,-0.724 0.401,-0.724C0.329,-0.724 0.267,-0.709 0.214,-0.679C0.16,-0.649 0.119,-0.607 0.09,-0.551C0.061,-0.496 0.046,-0.43 0.046,-0.353L0.046,-0.352C0.046,-0.275 0.06,-0.209 0.09,-0.154C0.119,-0.098 0.16,-0.055 0.213,-0.025C0.266,0.005 0.329,0.02 0.401,0.02ZM0.401,-0.149C0.373,-0.149 0.348,-0.158 0.326,-0.174C0.304,-0.191 0.287,-0.214 0.275,-0.245C0.263,-0.275 0.257,-0.311 0.257,-0.352L0.257,-0.353C0.257,-0.394 0.263,-0.43 0.275,-0.46C0.287,-0.49 0.304,-0.514 0.326,-0.53C0.348,-0.547 0.373,-0.555 0.401,-0.555C0.429,-0.555 0.454,-0.547 0.476,-0.53C0.497,-0.514 0.514,-0.49 0.526,-0.46C0.538,-0.43 0.544,-0.394 0.544,-0.353L0.544,-0.352C0.544,-0.311 0.538,-0.275 0.526,-0.245C0.514,-0.214 0.497,-0.191 0.476,-0.174C0.454,-0.158 0.429,-0.149 0.401,-0.149Z" style="fill:rgb(231,231,231);fill-rule:nonzero;"/>
          </g>
          <g transform="matrix(2216,0,0,2210.44,13825.9,17611)">
            <path d="M0.279,-0.173L0.352,-0.271L0.486,-0.38L0.727,-0.705L0.51,-0.705L0.298,-0.414L0.273,-0.414L0.279,-0.173ZM0.081,-0L0.288,-0L0.288,-0.705L0.081,-0.705L0.081,-0ZM0.498,-0L0.738,-0L0.487,-0.404L0.336,-0.271L0.498,-0Z" style="fill:rgb(231,231,231);fill-rule:nonzero;"/>
          </g>
          <g transform="matrix(1027.01,0,0,1024.43,6274.82,12828.3)">
            <path d="M0.256,-0L0.404,-0L0.404,-0.583L0.615,-0.583L0.615,-0.705L0.045,-0.705L0.045,-0.583L0.256,-0.583L0.256,-0Z" style="fill:rgb(231,231,231);fill-rule:nonzero;"/>
          </g>
          <g transform="matrix(1027.01,0,0,1024.43,6912.65,12828.3)">
            <path d="M0.085,-0L0.233,-0L0.233,-0.297L0.55,-0.297L0.55,-0L0.698,-0L0.698,-0.705L0.55,-0.705L0.55,-0.418L0.233,-0.418L0.233,-0.705L0.085,-0.705L0.085,-0Z" style="fill:rgb(231,231,231);fill-rule:nonzero;"/>
          </g>
          <g transform="matrix(1027.01,0,0,1024.43,7671.83,12828.3)">
            <path d="M0.085,-0L0.552,-0L0.552,-0.122L0.233,-0.122L0.233,-0.3L0.534,-0.3L0.534,-0.413L0.233,-0.413L0.233,-0.583L0.552,-0.583L0.552,-0.705L0.085,-0.705L0.085,-0Z" style="fill:rgb(231,231,231);fill-rule:nonzero;"/>
          </g>
          <g transform="matrix(1027.01,0,0,1024.43,8531.77,12828.3)">
            <path d="M0.035,-0L0.19,-0L0.362,-0.564L0.405,-0.564L0.405,-0.705L0.28,-0.705L0.035,-0ZM0.166,-0.171L0.564,-0.171L0.528,-0.281L0.202,-0.281L0.166,-0.171ZM0.543,-0L0.698,-0L0.453,-0.705L0.371,-0.705L0.371,-0.564L0.543,-0Z" style="fill:rgb(231,231,231);fill-rule:nonzero;"/>
          </g>
          <g transform="matrix(1027.01,0,0,1024.43,9225.27,12828.3)">
            <path d="M0.085,-0L0.217,-0L0.217,-0.479L0.29,-0.479L0.149,-0.685L0.407,-0L0.5,-0L0.758,-0.685L0.617,-0.479L0.69,-0.479L0.69,-0L0.821,-0L0.821,-0.705L0.652,-0.705L0.458,-0.189L0.449,-0.189L0.254,-0.705L0.085,-0.705L0.085,-0Z" style="fill:rgb(231,231,231);fill-rule:nonzero;"/>
          </g>
          <g transform="matrix(1027.01,0,0,1024.43,10119.8,12828.3)">
            <path d="M0.035,-0L0.19,-0L0.362,-0.564L0.405,-0.564L0.405,-0.705L0.28,-0.705L0.035,-0ZM0.166,-0.171L0.564,-0.171L0.528,-0.281L0.202,-0.281L0.166,-0.171ZM0.543,-0L0.698,-0L0.453,-0.705L0.371,-0.705L0.371,-0.564L0.543,-0Z" style="fill:rgb(231,231,231);fill-rule:nonzero;"/>
          </g>
          <g transform="matrix(1027.01,0,0,1024.43,10813.3,12828.3)">
            <path d="M0.066,-0L0.61,-0L0.61,-0.122L0.247,-0.122L0.247,-0.13L0.6,-0.609L0.6,-0.705L0.074,-0.705L0.074,-0.583L0.42,-0.583L0.42,-0.574L0.066,-0.096L0.066,-0Z" style="fill:rgb(231,231,231);fill-rule:nonzero;"/>
          </g>
          <g transform="matrix(1027.01,0,0,1024.43,11487.8,12828.3)">
            <rect x="0.085" y="-0.705" width="0.147" height="0.705" style="fill:rgb(231,231,231);fill-rule:nonzero;"/>
          </g>
          <g transform="matrix(1027.01,0,0,1024.43,11759.5,12828.3)">
            <path d="M0.085,-0L0.227,-0L0.227,-0.451L0.3,-0.451L0.197,-0.503L0.561,-0L0.683,-0L0.683,-0.705L0.542,-0.705L0.542,-0.256L0.468,-0.256L0.571,-0.204L0.208,-0.705L0.085,-0.705L0.085,-0Z" style="fill:rgb(231,231,231);fill-rule:nonzero;"/>
          </g>
          <g transform="matrix(1027.01,0,0,1024.43,12518.7,12828.3)">
            <path d="M0.392,0.018C0.456,0.018 0.512,0.006 0.558,-0.019C0.605,-0.044 0.641,-0.079 0.667,-0.125C0.692,-0.17 0.705,-0.224 0.705,-0.286L0.705,-0.375L0.409,-0.375L0.409,-0.268L0.561,-0.268L0.561,-0.255C0.56,-0.225 0.552,-0.199 0.538,-0.177C0.524,-0.155 0.505,-0.138 0.48,-0.125C0.455,-0.113 0.427,-0.107 0.395,-0.107C0.356,-0.107 0.322,-0.117 0.294,-0.137C0.266,-0.157 0.244,-0.185 0.228,-0.222C0.212,-0.259 0.205,-0.303 0.205,-0.354L0.205,-0.355C0.205,-0.405 0.212,-0.448 0.227,-0.484C0.242,-0.52 0.263,-0.548 0.291,-0.568C0.318,-0.588 0.351,-0.598 0.389,-0.598C0.43,-0.598 0.465,-0.588 0.494,-0.568C0.522,-0.549 0.542,-0.521 0.551,-0.486L0.552,-0.481L0.699,-0.481L0.698,-0.486C0.691,-0.533 0.674,-0.574 0.646,-0.61C0.618,-0.645 0.582,-0.673 0.538,-0.693C0.494,-0.713 0.444,-0.723 0.389,-0.723C0.321,-0.723 0.262,-0.708 0.211,-0.677C0.161,-0.647 0.123,-0.605 0.095,-0.55C0.068,-0.494 0.054,-0.429 0.054,-0.354L0.054,-0.353C0.054,-0.276 0.068,-0.21 0.095,-0.155C0.123,-0.099 0.161,-0.057 0.212,-0.027C0.262,0.003 0.322,0.018 0.392,0.018Z" style="fill:rgb(231,231,231);fill-rule:nonzero;"/>
          </g>
        </g>
      </g>
    </g>
  </g>
  <defs>
    <radialGradient id="_Radial1" cx="0" cy="0" r="1" gradientUnits="userSpaceOnUse" gradientTransform="matrix(10948.7,-88.6608,142.214,17474,9437.68,15427.3)">
      <stop offset="0" style="stop-color:rgb(32,20,30);stop-opacity:1"/>
      <stop offset="1" style="stop-color:rgb(16,8,18);stop-opacity:1"/>
    </radialGradient>
  </defs>
</svg>
