<svg id="Calque_1" data-name="Calque 1" xmlns="http://www.w3.org/2000/svg" viewBox="0 0 852.14 290.24"><defs><style>.cls-1{fill:#185223;}.cls-1,.cls-2,.cls-3,.cls-4{fill-rule:evenodd;}.cls-2{fill:#3e8c46;}.cls-3{fill:#2e7235;}.cls-4{fill:#fff;}.cls-5{fill:#363636;}</style></defs><g id="Logo"><path class="cls-1" d="M305.45,77.89h0c-.12.46-.25.91-.37,1.4q-17.62-16.1-36.63-31.66l-.71-.57-.11-.09a2.09,2.09,0,0,0-.29-.23q-6.58-5.07-13.33-10h0Q240.2,26.56,225.73,16.81q-8-5.4-16.08-10.54c1.72.16,3.42.3,5.12.48h0c45.37,4.38,82.57,14.21,91.41,29.52C311,44.61,310.23,59.43,305.45,77.89Z" transform="translate(-4.8 -4.14)"/><path class="cls-2" d="M254,36.73,219.45,93.29l-25.51,41.83q-14.59-11-30-21.61c-1.8-1.25-3.6-2.48-5.42-3.69l-1.07-.7Q138.28,96.25,118.9,84.74l-.73-.44a70.75,70.75,0,0,0-9-4.52c-7.54-4.47-15.63-9-24-13.48A581.8,581.8,0,0,1,117.68,5.39h0a632,632,0,0,1,92,.91h0q8.06,5.15,16.08,10.54Q240.22,26.55,254,36.73Z" transform="translate(-4.8 -4.14)"/><path class="cls-1" d="M117.64,5.35A581.8,581.8,0,0,0,85.13,66.26C79.29,63.13,73.3,60,67.26,57c-18.52-9.39-37.6-18.33-54.82-25.78C25.69,19.07,58.21,11,97.07,7.05,103.76,6.36,110.64,5.79,117.64,5.35Z" transform="translate(-4.8 -4.14)"/><path class="cls-3" d="M305.08,79.31h0c-8.16,30.55-26.87,70.67-49,108-.05.08-.1.16-.14.24q-2.22-2.45-4.81-4.8c-1.76-1.62-3.54-3.24-5.32-4.85s-3.59-3.21-5.4-4.81c-2-1.79-4.08-3.58-6.15-5.35h0q-9.33-8.07-19-16c-1.58-1.27-3.18-2.56-4.78-3.83q-8.13-6.48-16.52-12.82l25.49-41.8L254,36.73q6.75,5,13.34,10a2.09,2.09,0,0,1,.29.23l.11.09.71.57Q287.46,63.19,305.08,79.31Z" transform="translate(-4.8 -4.14)"/><path class="cls-3" d="M267.37,46.74q-6.58-5.06-13.34-10h0Q260.8,41.68,267.37,46.74Z" transform="translate(-4.8 -4.14)"/><path class="cls-3" d="M185.67,279.43h0c-2.15,1.88-4.26,3.58-6.33,5.13a70.13,70.13,0,0,1-9.62,6.16c-4.62,2.39-8.9,3.66-12.73,3.66-.49,0-1,0-1.46-.06-4.68-.37-10-2.51-15.69-6.14-18-11.35-40.16-37.2-61.35-68.39,2.74-4.75,5.9-10.23,9.65-16.66l3.3,2.22q22.16,14.88,42.71,30.77,11.06,8.52,21.64,17.27,10.91,9,21.28,18.27l3,2.64,3.46,3.13Z" transform="translate(-4.8 -4.14)"/><path class="cls-2" d="M88.13,203.12c-3.75,6.43-6.91,11.91-9.65,16.66-7-10.36-14-21.31-20.59-32.53-1-1.7-2-3.39-3-5.1Q62,186.4,69.1,190.84h0Q78.66,196.83,88.13,203.12Z" transform="translate(-4.8 -4.14)"/><path class="cls-1" d="M183.45,277.43l2.19,2h0Z" transform="translate(-4.8 -4.14)"/><path class="cls-1" d="M109.14,79.74a70.75,70.75,0,0,1,9,4.52l.73.44q19.38,11.52,38.58,24.42l1.06.73c1.82,1.21,3.62,2.44,5.42,3.69q15.39,10.56,30,21.61,8.4,6.33,16.52,12.82c1.6,1.27,3.2,2.56,4.78,3.83q9.74,7.89,19,16l-.79,1.27-59.69,97.8-.77,1.25c1.33,1.19,2.67,2.39,4,3.6q-10.38-9.24-21.28-18.27-10.48-8.8-21.55-17.33-20.54-15.84-42.7-30.77l-3.3-2.22q-9.47-6.3-19-12.28h0q-7.1-4.46-14.21-8.69h0c-.75-1.32-1.51-2.63-2.26-4s-1.5-2.63-2.24-3.95" transform="translate(-4.8 -4.14)"/><path class="cls-3" d="M50.39,174.23c-13.29-23.73-24.92-48-33.1-69.73C5.81,74,1.1,48.5,8.06,36.44a19.64,19.64,0,0,1,2.29-3.15,24.72,24.72,0,0,1,2.1-2.12C29.67,38.62,48.75,47.56,67.27,57c6,3.06,12,6.18,17.87,9.31,8.38,4.49,16.47,9,24,13.48" transform="translate(-4.8 -4.14)"/><path class="cls-2" d="M256,187.54l-.56.94c-22,36.94-47.21,71-68.71,90l-1,.92-2.19-2-3.46-3.13-3-2.64c-1.33-1.21-2.67-2.41-4-3.6l.77-1.25L233.56,169l.79-1.27h0c2.07,1.77,4.12,3.56,6.15,5.35,1.81,1.6,3.61,3.21,5.4,4.81s3.56,3.23,5.32,4.85S254.45,185.91,256,187.54Z" transform="translate(-4.8 -4.14)"/><path class="cls-2" d="M256.11,187.3c-.05.08-.1.16-.14.24q-2.22-2.44-4.81-4.8c-1.76-1.62-3.54-3.24-5.32-4.85Q251,182.56,256.11,187.3Z" transform="translate(-4.8 -4.14)"/><g id="Feuille"><path class="cls-4" d="M221.61,114.55a51.76,51.76,0,0,1-.26,18.45,79.37,79.37,0,0,1-6.11,18.76c-.23.52-.48,1-.73,1.55q-1.42,3-3.06,5.88c-13.92,24.79-38.38,39.21-61.8,38.88-3.6,14.16-.14,33.93,5.31,52.56.27.92.55,1.85.83,2.76a356.61,356.61,0,0,0,13.27,35.8l.65,1.52c-4.62,2.39-8.9,3.67-12.73,3.67a11.72,11.72,0,0,1-1.46-.06c-4.68-.37-10-2.52-15.69-6.14-3.78-8.22-5.33-21.36-5.71-35.17-.07-1.93-.19-8.12,0-16.9V234c.65-19.91,2.75-36.86,2.75-36.86v-.74h0c3.9-31.26,15.19-59.7,26-81.06l.92-1.79c11.89-23,23-37.33,23-37.33a212.38,212.38,0,0,0-28.41,33.64l-1.13,1.68c-17.75,26.51-28.57,55.26-31.88,80.37-.26-.14-.52-.26-.76-.4C95.8,175.3,87.91,134.61,107,100.62A77.82,77.82,0,0,1,117.2,86.41c.51-.57,1-1.14,1.57-1.69a82.8,82.8,0,0,1,29.68-19.6c32.35-12.66,83.35-22,83.35-22s-12.89,17.45-12.35,50.16A133.13,133.13,0,0,0,221.61,114.55Z" transform="translate(-4.8 -4.14)"/></g></g><g id="Texte"><path d="M392.9,216.7V91.19h84.62v23.67H419.25V193h59.51V216.7Zm12.53-52.54V141.21h63.51v22.95Z" transform="translate(-4.8 -4.14)"/><path d="M563.22,218.49A64.94,64.94,0,0,1,538,213.65a55.06,55.06,0,0,1-20.06-13.45,57.71,57.71,0,0,1-13.08-20.44,71.23,71.23,0,0,1-4.67-26A67.42,67.42,0,0,1,505,128.12a63,63,0,0,1,13.63-20.44,61.69,61.69,0,0,1,20.62-13.62,65.58,65.58,0,0,1,25.43-4.84,66.74,66.74,0,0,1,17.72,2.33,61.26,61.26,0,0,1,16,7.17,56.88,56.88,0,0,1,12.36,11.12l-16.82,18.82a45.72,45.72,0,0,0-13.62-10.4,36.22,36.22,0,0,0-15.78-3.58,37.46,37.46,0,0,0-14.34,2.69,38.46,38.46,0,0,0-11.83,8.06,36.44,36.44,0,0,0-7.89,12.38,41.45,41.45,0,0,0-2.88,16,42.37,42.37,0,0,0,2.88,16.13,34,34,0,0,0,7.89,12.37,34.7,34.7,0,0,0,12.53,7.89A41.45,41.45,0,0,0,566.79,193a38.36,38.36,0,0,0,11.12-1.61,40.7,40.7,0,0,0,9.87-4.48A43.81,43.81,0,0,0,596,180.3l13.1,21c-2.69,3.24-6.64,6.1-11.48,8.79a65.12,65.12,0,0,1-16.32,6.09A68.69,68.69,0,0,1,563.22,218.49Z" transform="translate(-4.8 -4.14)"/><path d="M635.47,216.7V91.19h53.25A40,40,0,0,1,709,96.39a42.13,42.13,0,0,1,14.34,14.34,41.42,41.42,0,0,1,5.2,20.62,43.27,43.27,0,0,1-5.2,21A39.47,39.47,0,0,1,709,167.21a37,37,0,0,1-20.26,5.57H662.36v43.93ZM662,148.38h23.85a14.07,14.07,0,0,0,7.52-2.15,16,16,0,0,0,5.56-5.92,17,17,0,0,0,2.16-8.6,15.86,15.86,0,0,0-2.16-8.43,17.14,17.14,0,0,0-5.56-5.74,14.16,14.16,0,0,0-7.52-2.15H662Z" transform="translate(-4.8 -4.14)"/><path d="M809.4,218.49a65.07,65.07,0,0,1-25.29-4.84,55.23,55.23,0,0,1-20.05-13.45A58.15,58.15,0,0,1,751,179.76a71.22,71.22,0,0,1-4.66-26,67.23,67.23,0,0,1,4.84-25.65,63,63,0,0,1,13.63-20.44A61.69,61.69,0,0,1,785.4,94.06a65.69,65.69,0,0,1,25.45-4.85,66.87,66.87,0,0,1,17.75,2.34,61,61,0,0,1,16,7.17,57,57,0,0,1,12.38,11.12l-16.86,18.82a46,46,0,0,0-13.62-10.4,36.25,36.25,0,0,0-15.78-3.58,37.66,37.66,0,0,0-14.38,2.69,38.46,38.46,0,0,0-11.83,8.06,36.59,36.59,0,0,0-7.89,12.38,41.47,41.47,0,0,0-2.87,16,42.36,42.36,0,0,0,2.87,16.13,34,34,0,0,0,7.89,12.37A34.7,34.7,0,0,0,797,190.16,41.46,41.46,0,0,0,813,193a38.34,38.34,0,0,0,11.11-1.61,40.08,40.08,0,0,0,9.86-4.48,42.56,42.56,0,0,0,8.25-6.63l13.09,21c-2.68,3.24-6.63,6.1-11.48,8.79a64.91,64.91,0,0,1-16.31,6.09A69,69,0,0,1,809.4,218.49Z" transform="translate(-4.8 -4.14)"/><path class="cls-5" d="M392.89,286.43V244.71h8.94v33.65h18.88v8.07Z" transform="translate(-4.8 -4.14)"/><path class="cls-5" d="M447.64,287a21.87,21.87,0,0,1-8.46-1.61,19,19,0,0,1-6.69-4.52,19.51,19.51,0,0,1-4.41-6.8,23.87,23.87,0,0,1,0-17.21,20.2,20.2,0,0,1,4.41-6.85,18.85,18.85,0,0,1,6.69-4.53,23.1,23.1,0,0,1,16.92,0,19.64,19.64,0,0,1,6.68,4.53,21.19,21.19,0,0,1,4.47,6.85,24.57,24.57,0,0,1,0,17.15,21.51,21.51,0,0,1-4.47,6.86,19.9,19.9,0,0,1-6.68,4.52A21.91,21.91,0,0,1,447.64,287Zm0-8.47a10.85,10.85,0,0,0,4.82-1,11.61,11.61,0,0,0,3.87-2.74,11.88,11.88,0,0,0,2.51-4.1,15.68,15.68,0,0,0,0-10.43,12.74,12.74,0,0,0-2.51-4.18,11.87,11.87,0,0,0-16.79-.65c-.21.19-.41.39-.6.59a12.51,12.51,0,0,0-2.56,4.18,15.18,15.18,0,0,0-.9,5.3,13.63,13.63,0,0,0,1.61,6.68,11.58,11.58,0,0,0,4.29,4.65A11.24,11.24,0,0,0,447.64,278.53Z" transform="translate(-4.8 -4.14)"/><path class="cls-5" d="M477.54,286.43V244.71H496a14.68,14.68,0,0,1,7.08,1.72,13.45,13.45,0,0,1,5,4.7,13,13,0,0,1,1.85,6.91,12.64,12.64,0,0,1-1.85,6.8,13.7,13.7,0,0,1-5,4.82,14,14,0,0,1-7.08,1.79h-9.89v15Zm23.71,0-10.61-18.88,9.12-1.48,11.79,20.36Zm-15.13-22.28h9.53a5.24,5.24,0,0,0,4.76-2.8,6.78,6.78,0,0,0,.66-3,6.14,6.14,0,0,0-.84-3.1,5.55,5.55,0,0,0-2.32-2.08,7.89,7.89,0,0,0-3.45-.72H486.1Z" transform="translate(-4.8 -4.14)"/><path class="cls-5" d="M519.65,286.43v-7.68h7V252.39h-7v-7.68h22.83v7.68h-6.9v26.33h6.91v7.71Z" transform="translate(-4.8 -4.14)"/><path class="cls-5" d="M551,286.43V244.71h28.11v7.85H559.73v26h19.78v7.9ZM555.16,269v-7.62h21.08V269Z" transform="translate(-4.8 -4.14)"/><path class="cls-5" d="M589.34,286.43V244.71h8l23.1,31.21h-1.6c-.3-2-.54-4.05-.72-6.08s-.29-4.11-.35-6.37-.13-4.77-.13-7.52v-11.2h8.7v41.68h-8.1L594.7,255h2.15c.29,2.62.48,4.76.65,6.49s.3,3.1.36,4.23.12,2.14.18,3,.06,1.78.06,2.74v14.92Z" transform="translate(-4.8 -4.14)"/><path class="cls-5" d="M647,286.43V252.75H635v-8h33.48v8H655.91v33.68Z" transform="translate(-4.8 -4.14)"/><path d="M392.88,63.24l16.39-41.7h8l16.26,41.69h-9.12l-8.45-22.47c-.25-.66-.54-1.49-.84-2.51s-.71-2-1.07-3.16-.66-2.21-.95-3.22-.59-1.79-.78-2.44l1.61-.06c-.24.9-.47,1.79-.77,2.75s-.65,2-1,3-.71,2-1,3-.72,1.85-1,2.74L401.8,63.21Zm7.63-8.76,3-7.27h19l3,7.27Z" transform="translate(-4.8 -4.14)"/><path d="M454.83,63.84a21.26,21.26,0,0,1-9.94-2.15,19.45,19.45,0,0,1-7.15-6.14l5.6-6.3c2,2.67,3.87,4.52,5.85,5.47a12.87,12.87,0,0,0,6.17,1.49,9.7,9.7,0,0,0,3.34-.53,5.89,5.89,0,0,0,2.33-1.5,3.31,3.31,0,0,0,.83-2.19,3.48,3.48,0,0,0-.42-1.79,4.41,4.41,0,0,0-1.18-1.43,16.7,16.7,0,0,0-1.85-1.14A19.7,19.7,0,0,0,456,46.8c-.89-.24-1.85-.48-2.86-.65a28,28,0,0,1-5.85-1.85,15.65,15.65,0,0,1-4.18-2.74,10,10,0,0,1-2.44-3.75,13.06,13.06,0,0,1-.83-4.71A10.67,10.67,0,0,1,442,26.61a14.14,14.14,0,0,1,5.54-4.36,18.77,18.77,0,0,1,7.61-1.55,20.67,20.67,0,0,1,9.35,1.91A15,15,0,0,1,470.34,28l-5.73,5.6a12.85,12.85,0,0,0-4.23-3.87,10.36,10.36,0,0,0-5.13-1.3,11.1,11.1,0,0,0-3.34.47,4.81,4.81,0,0,0-2.26,1.49,3.51,3.51,0,0,0-.78,2.32,3.47,3.47,0,0,0,.53,1.91A5.32,5.32,0,0,0,451,36a10,10,0,0,0,2.38,1.13,21.41,21.41,0,0,0,3.16.77,30.69,30.69,0,0,1,5.85,1.73,20.87,20.87,0,0,1,4.53,2.68,10.27,10.27,0,0,1,3.87,8.1,12.28,12.28,0,0,1-2,7.21,13.34,13.34,0,0,1-5.6,4.59A20.32,20.32,0,0,1,454.83,63.84Z" transform="translate(-4.8 -4.14)"/><path d="M493.8,63.84a21.27,21.27,0,0,1-9.95-2.15,19.53,19.53,0,0,1-7.15-6.14l5.6-6.3c2,2.67,3.87,4.52,5.85,5.47a13,13,0,0,0,6.2,1.49,9.7,9.7,0,0,0,3.34-.53,5.71,5.71,0,0,0,2.33-1.5,3.31,3.31,0,0,0,.83-2.19,3.57,3.57,0,0,0-.41-1.79,4.61,4.61,0,0,0-1.2-1.43,16.7,16.7,0,0,0-1.85-1.14A18.12,18.12,0,0,0,495,46.8c-.89-.24-1.84-.48-2.86-.65a28,28,0,0,1-5.85-1.85,15.57,15.57,0,0,1-4.2-2.71,9.66,9.66,0,0,1-2.45-3.75,13,13,0,0,1-.83-4.71,10.68,10.68,0,0,1,2.09-6.49,14,14,0,0,1,5.54-4.35,18.83,18.83,0,0,1,7.65-1.59,20.65,20.65,0,0,1,9.35,1.91A14.8,14.8,0,0,1,509.3,28l-5.71,5.6a13.09,13.09,0,0,0-4.23-3.88,10.33,10.33,0,0,0-5.13-1.3,11.47,11.47,0,0,0-3.34.47,4.78,4.78,0,0,0-2.25,1.49,3.51,3.51,0,0,0-.78,2.32,3.38,3.38,0,0,0,.53,1.91A5.29,5.29,0,0,0,489.94,36a10.42,10.42,0,0,0,2.38,1.14,22.72,22.72,0,0,0,3.16.76,31,31,0,0,1,5.9,1.73,20.52,20.52,0,0,1,4.53,2.69,10.15,10.15,0,0,1,3.87,8.09,12.47,12.47,0,0,1-2,7.22,13.44,13.44,0,0,1-5.6,4.58A20.33,20.33,0,0,1,493.8,63.84Z" transform="translate(-4.8 -4.14)"/><path d="M537.7,63.84a21.86,21.86,0,0,1-8.45-1.61,19,19,0,0,1-6.74-4.53,19.31,19.31,0,0,1-4.4-6.79,23.79,23.79,0,0,1,0-17.22,20.42,20.42,0,0,1,4.4-6.85,18.93,18.93,0,0,1,6.74-4.52,23,23,0,0,1,16.91,0,19.79,19.79,0,0,1,6.69,4.52,21.19,21.19,0,0,1,4.47,6.85,24.6,24.6,0,0,1,0,17.16,21.19,21.19,0,0,1-4.47,6.85,19.82,19.82,0,0,1-6.69,4.53A21.87,21.87,0,0,1,537.7,63.84Zm0-8.46a11,11,0,0,0,4.83-1,11.78,11.78,0,0,0,6.37-6.85,15.68,15.68,0,0,0,0-10.43,12.74,12.74,0,0,0-2.51-4.18,12.19,12.19,0,0,0-3.87-2.8,12.7,12.7,0,0,0-9.65,0A12,12,0,0,0,529,32.85,12.51,12.51,0,0,0,526.44,37a15.21,15.21,0,0,0-.89,5.3A13.69,13.69,0,0,0,527.16,49a11.51,11.51,0,0,0,4.29,4.65A11.21,11.21,0,0,0,537.7,55.38Z" transform="translate(-4.8 -4.14)"/></g></svg>