<?xml version="1.0" encoding="UTF-8" standalone="no"?>
<!DOCTYPE svg PUBLIC "-//W3C//DTD SVG 1.1//EN" "http://www.w3.org/Graphics/SVG/1.1/DTD/svg11.dtd">
<svg width="100%" height="100%" viewBox="0 0 1268 286" version="1.1" xmlns="http://www.w3.org/2000/svg" xmlns:xlink="http://www.w3.org/1999/xlink" xml:space="preserve" xmlns:serif="http://www.serif.com/" style="fill-rule:evenodd;clip-rule:evenodd;stroke-linejoin:round;stroke-miterlimit:2;">
    <g id="Logo">
    </g>
    <g id="Plan-de-travail19" serif:id="Plan de travail19" transform="matrix(1.4508,0,0,1,-60.9336,14)">
        <rect x="42" y="-14" width="874" height="286" style="fill:none;"/>
        <g id="Texte" transform="matrix(0.689274,0,0,1,13.0505,0)">
            <g transform="matrix(0.622043,0,0,0.622043,-13329.6,-759.06)">
                <g transform="matrix(-0.6061,0,0,2.38798,25468.8,-8294.78)">
                    <g transform="matrix(2.2054,0.0446901,-0.161438,0.61051,-6684.88,2423.47)">
                        <path d="M5948,2150C5948,2150 5914.26,2143.67 5910.26,2176.67C5906.26,2209.67 5896.84,2241.95 5869.84,2244.95C5842.84,2247.95 5937,2252 5936,2195C5935,2138 5955,2178 5954,2162C5953,2146 5948,2150 5948,2150Z" style="fill:rgb(71,0,0);"/>
                    </g>
                    <g transform="matrix(2.2113,0,0,0.612144,-7072.56,2690.19)">
                        <path d="M5948,2150C5948,2150 5917,2137 5913,2170C5909,2203 5926,2234 5899,2237C5872,2240 5937,2252 5936,2195C5935,2138 5955,2178 5954,2162C5953,2146 5948,2150 5948,2150Z" style="fill:rgb(127,14,16);"/>
                    </g>
                    <g>
                        <g transform="matrix(1.42617,0,0,0.36198,-5143.36,3558.63)">
                            <path d="M7727.93,1618.68C7724.4,1613.28 7720.67,1605.96 7720.46,1598.9C7719.51,1566.32 7728.22,1529.32 7734.85,1511.43C7735.42,1509.91 7737.7,1505.65 7741.77,1500.21C7742.19,1499.61 7742.63,1499.03 7743.1,1498.48C7748.11,1492.08 7755.4,1484.39 7765.06,1477.63L7798.83,1442.72C7812.95,1428.13 7847.15,1333.27 7850.34,1315.03C7853.52,1296.79 7883.83,1207.4 7902.07,1182.47C7920.31,1157.54 7943.85,1152.46 7961.66,1152.67C7978.6,1152.87 8032.34,1157.72 8102.91,1234.3C8108.16,1239.99 8131.92,1275.5 8131.92,1275.5L8103.95,1275.5C8101.52,1275.5 8081.45,1274.89 8081.45,1274.89L8061.38,1268.21L8035.85,1268.21L8027.33,1282.19L8031.59,1336.31L8054.09,1372.79L8071.76,1400.87L8060.78,1426.3L8146.6,1427.7C8146.6,1427.7 8158.68,1451.84 8161.11,1456.71C8163.54,1461.57 8155.63,1472.52 8152.59,1477.99C8149.55,1483.46 8132.4,1489.36 8139.72,1501.17C8146.4,1511.95 8181.96,1531.73 8192.12,1572.09C8196.95,1591.3 8198.95,1609.05 8199.75,1618.68L7727.93,1618.68ZM8133.57,1281.66C8133.57,1281.66 8141.24,1305.7 8143.47,1314.42C8145.63,1322.85 8148.95,1336.92 8148.95,1339.96C8148.95,1343 8152.39,1357.39 8153.2,1363.67C8153.8,1368.3 8154.01,1373.5 8153.81,1377.66C8153.63,1381.35 8151.99,1388.6 8151.99,1388.6C8151.99,1388.6 8137.19,1368.84 8133.74,1361.24C8131.21,1355.65 8131.05,1349.13 8131.31,1343C8131.62,1336.01 8134.95,1327.29 8135.57,1319.28C8136.28,1310.06 8133.57,1281.66 8133.57,1281.66Z" style="fill:rgb(31,31,31);"/>
                        </g>
                        <g transform="matrix(1.42617,0,0,0.36198,-20525.9,3371.85)">
                            <path d="M18887.4,1954.07L18890,1965C18890,1965 18891.8,1957.23 18895,1956C18899.3,1954.33 18909,1954.83 18916,1955C18923,1955.17 18933.2,1956 18937,1957C18938.4,1957.38 18939,1961 18939,1961L18941,1956C18941,1956 18928.2,1949.17 18922,1948C18916.1,1946.88 18909.8,1947.99 18904,1949C18898.3,1950 18887.4,1954.07 18887.4,1954.07Z" style="fill:white;"/>
                        </g>
                        <g transform="matrix(1.42617,0,0,-0.36198,-20524.5,4788.47)">
                            <path d="M18887.4,1954.07L18890,1965C18890,1965 18891.8,1957.23 18895,1956C18899.3,1954.33 18909,1954.83 18916,1955C18923,1955.17 18933.2,1956 18937,1957C18938.4,1957.38 18939,1961 18939,1961L18941,1956C18941,1956 18928.2,1949.17 18922,1948C18916.1,1946.88 18909.8,1947.99 18904,1949C18898.3,1950 18887.4,1954.07 18887.4,1954.07Z" style="fill:white;"/>
                        </g>
                        <g transform="matrix(1.42617,0,0,0.36198,-5143.36,3558.63)">
                            <path d="M7987.54,1618.68C7987.54,1618.68 7972.64,1572.56 7965.16,1557.86C7959.81,1547.34 7948.19,1538.79 7946.67,1531.5C7945.23,1524.59 7939.63,1513.47 7956.04,1514.08C7972.46,1514.69 8007.91,1519.01 8026.76,1527.53C8045.61,1536.04 8066.8,1514.21 8078.77,1520.34C8091.92,1527.08 8116.1,1572.34 8128.7,1585.97C8140.13,1598.33 8143.9,1608.76 8145.88,1618.68L7987.54,1618.68Z" style="fill:rgb(88,89,88);"/>
                        </g>
                        <g transform="matrix(1.42617,0,0,0.36198,-3373.48,3561.89)">
                            <path d="M6816.74,1411.83C6815.69,1409.57 6815.52,1406.97 6815.52,1406.97C6815.52,1406.97 6819.17,1376.56 6812.48,1368.05C6805.79,1359.54 6785.12,1326.7 6783.9,1313.93C6782.68,1301.16 6778.43,1255.56 6800.32,1254.34C6822.21,1253.12 6834.37,1264.68 6849.57,1264.07C6864.77,1263.46 6886.06,1258.6 6890.31,1265.29C6894.57,1271.98 6893.96,1280.49 6895.78,1285.35C6897.61,1290.22 6897,1312.11 6893.96,1323.66C6890.92,1335.21 6891.31,1350.81 6894.35,1353.85C6897.05,1356.54 6900.88,1358.39 6906.12,1367.44C6912.81,1379 6912.81,1382.94 6911.59,1391.45C6910.38,1399.97 6913.24,1407.3 6916.18,1414.6C6914.17,1419.18 6914.29,1424.42 6911.2,1421.9C6895.39,1411.56 6876.93,1418.82 6865.38,1421.86C6863.7,1422.3 6861.68,1422.66 6859.47,1422.96C6859.95,1422.99 6860.31,1423.02 6860.52,1423.07C6862.95,1423.68 6884.84,1429.76 6893.35,1429.15C6901.86,1428.55 6907.95,1425.5 6911.59,1425.5C6915.24,1425.5 6919.5,1441.62 6920.11,1443.45C6920.11,1443.45 6924.97,1455.61 6893.96,1450.75C6862.95,1445.88 6831.94,1437.98 6825.86,1430.68C6825.95,1430.69 6819.89,1418.67 6816.74,1411.83Z" style="fill:rgb(88,89,88);"/>
                        </g>
                        <g transform="matrix(1.42617,0,0,0.36198,-2420.7,3225.61)">
                            <path d="M6213.5,2182C6217.28,2169.67 6188.16,2139.42 6182.85,2142C6182.85,2142 6149.79,2137 6134.71,2137C6118.23,2137 6077.52,2143.69 6042.71,2144.41C6004.89,2145.19 5972.5,2142 5972.5,2142C5963.7,2142 5951.7,2182 5957.5,2182C5956.77,2185.38 6018.3,2189.1 6046.79,2188.3C6076.27,2187.48 6073.91,2182.03 6144.93,2179.2C6161.13,2178.55 6195.32,2182.82 6213.5,2182Z" style="fill:rgb(37,141,51);"/>
                        </g>
                        <g transform="matrix(0.867206,0,0,0.220108,3156.16,3597.95)">
                            <path d="M3744,2088C3745,2091 3752.62,2110 3779,2109C3784.1,2108.81 3790,2107 3789,2100C3788,2093 3789.18,2081.93 3788,2079C3786.14,2074.36 3755,2065 3750,2069C3745,2073 3743,2085 3744,2088Z" style="fill:rgb(31,31,31);"/>
                        </g>
                        <g transform="matrix(0.867206,0,0,0.220108,3157.59,3597.95)">
                            <path d="M3794,2079C3789.73,2081.67 3788.42,2100.92 3797.36,2108C3800.86,2110.78 3816,2111 3820,2109C3824,2107 3829,2097 3823,2092C3817,2087 3798.27,2076.33 3794,2079Z" style="fill:rgb(31,31,31);"/>
                        </g>
                        <g transform="matrix(0.867206,0,0,0.220108,3153.31,3598.31)">
                            <path d="M3785.74,2062.58C3785.74,2062.58 3752.71,2048.64 3743.71,2055.64C3734.71,2062.64 3722.71,2064.13 3727.71,2074.13C3732.71,2084.13 3747.57,2092.69 3749.07,2099.69C3750.57,2106.69 3750.55,2119.4 3743.55,2124.4C3736.55,2129.4 3719.5,2123.98 3717.5,2111.98C3715.5,2099.98 3716.71,2091.13 3714.71,2084.13C3712.71,2077.13 3709,2062 3716,2056C3723,2050 3740.93,2041.29 3748.93,2044.29C3756.93,2047.29 3785.74,2059.58 3785.74,2062.58Z" style="fill:rgb(54,54,54);"/>
                        </g>
                        <g transform="matrix(0.867206,0,0,0.220108,3156.16,3597.95)">
                            <path d="M3744,1997C3744,1997 3751,1978 3764,1978C3777,1978 3787,1984 3782,1993C3777,2002 3769,2005 3760,2003C3751,2001 3746,1997 3744,1997Z" style="fill:white;"/>
                        </g>
                        <g transform="matrix(0.867206,0,0,0.220108,3156.16,3597.95)">
                            <path d="M3746,2009C3746,2009 3731.36,1994.42 3739.36,1983.42C3747.36,1972.42 3760.07,1962.64 3771.07,1963.64C3782.07,1964.64 3800.64,1955.64 3802.64,1961.64C3804.64,1967.64 3805.29,1999 3798.29,2003C3791.29,2007 3787,1997 3787,1987C3787,1977 3787,1970 3778,1972C3769,1974 3747.93,1971.91 3740.36,1990.71C3738.81,1994.54 3743,2006 3746,2009Z" style="fill:rgb(54,54,54);"/>
                        </g>
                        <g transform="matrix(0.867206,0,0,0.220108,3156.16,3597.95)">
                            <path d="M3759.64,1978.36C3759.64,1978.36 3749.36,1982 3752.36,1989C3755.36,1996 3757.71,2006.58 3769.93,2003.93C3773.96,2003.06 3778.15,1997.85 3777.64,1988.64C3777.22,1981 3768.64,1974.36 3759.64,1978.36Z"/>
                        </g>
                        <g transform="matrix(0.867206,0,0,0.220108,3161.86,3597.95)">
                            <path d="M3761,1985C3761,1987 3762,1990 3765,1989C3768,1988 3769,1987 3768,1985C3767,1983 3766,1983 3764,1983C3762,1983 3761,1984 3761,1985Z" style="fill:white;"/>
                        </g>
                        <g transform="matrix(0.867206,0,0,0.220108,3156.16,3597.95)">
                            <path d="M3694.58,1990.64C3694.58,1990.64 3687.43,1976.88 3677.61,1969.49C3675.41,1967.83 3673.07,1968.02 3670.64,1967.23C3668.07,1966.39 3662.4,1965.86 3657.36,1967.71C3652.91,1969.34 3648.94,1971.66 3648,1974C3646,1979 3644,1990.64 3653,1992.64C3655.65,1993.23 3658.12,1993.8 3660.39,1994.29C3665.86,1995.46 3665.24,1994.84 3668.07,1995.44C3669.07,1995.66 3675.79,1994.83 3677.92,1994.41C3684.32,1993.16 3693.83,1991.39 3694.58,1990.64Z" style="fill:white;"/>
                        </g>
                        <g transform="matrix(0.867206,0,0,0.220108,3156.16,3597.95)">
                            <path d="M3677.22,1969C3681.01,1972.66 3687.92,1990.84 3677.51,1994.64C3673.64,1996.06 3661.93,1996.11 3659.87,1993.93C3653.91,1987.64 3651.39,1971.98 3657.29,1967.71C3659.36,1966.22 3671.93,1963.9 3677.22,1969Z"/>
                        </g>
                        <g transform="matrix(0.867206,0,0,0.220108,3077.72,3595.78)">
                            <path d="M3761,1985C3761,1987 3762,1990 3765,1989C3768,1988 3769,1987 3768,1985C3767,1983 3766,1983 3764,1983C3762,1983 3761,1984 3761,1985Z" style="fill:white;"/>
                        </g>
                        <g transform="matrix(0.867206,0,0,0.220108,3156.16,3597.95)">
                            <path d="M3636,1956C3636,1956 3654.29,1933.36 3666.29,1931.36C3678.29,1929.36 3721.25,1936.36 3725,1941.71C3729.06,1947.5 3728,1959 3721,1962C3714,1965 3714,1960 3703,1956C3692,1952 3667,1953 3661,1953C3655,1953 3636,1956 3636,1956Z" style="fill:rgb(31,31,31);"/>
                        </g>
                        <g transform="matrix(0.867206,0,0,0.220108,3156.16,3597.95)">
                            <path d="M3748,1962.36C3744.82,1961.13 3740.72,1945.89 3746,1943.07C3769,1930.77 3790,1937 3796,1938C3802,1939 3805,1943 3807,1948C3809,1953 3809.64,1961 3809.64,1961C3809.64,1961 3794.68,1952.15 3789.07,1951C3782.57,1949.67 3774,1950 3769,1953C3764,1956 3752,1964.36 3748,1962.36" style="fill:rgb(31,31,31);"/>
                        </g>
                        <g transform="matrix(0.867206,0,0,0.220108,3156.16,3597.95)">
                            <path d="M3632.84,1980.8C3632.84,1980.8 3639.14,1973.01 3650.72,1967.99C3660.94,1963.56 3671.43,1961.66 3679.64,1964C3687.92,1966.36 3696.29,1975 3699.29,1982C3702.29,1989 3708.51,1999.71 3716.51,1999.71C3724.51,1999.71 3720,1977 3716,1972C3712,1967 3703.99,1960.07 3695,1959C3672.84,1956.36 3657.85,1958.94 3642.09,1970.56C3638.43,1973.26 3632.84,1980.8 3632.84,1980.8Z" style="fill:rgb(54,54,54);"/>
                        </g>
                        <g transform="matrix(1.42617,0,0,0.36198,-5143.36,3558.63)">
                            <path d="M8038.65,1618.68C8037.82,1618.28 8037.78,1617.92 8039.01,1617.67C8044.02,1616.67 8057.04,1615.67 8061.04,1613.67C8065.05,1611.66 8058.04,1595.64 8058.04,1589.63C8058.04,1583.62 8056.03,1586.62 8040,1589.63C8023.98,1592.63 7991.25,1590.68 7990.97,1588.63C7990.52,1585.36 8055.57,1578.31 8054.03,1574.62C8051.38,1568.24 8048.74,1565.57 8047.1,1560.57C8042.59,1546.78 8039.93,1536.77 8042.01,1535.56C8043.69,1534.58 8052.36,1550.35 8053.02,1551.56C8056.19,1557.4 8058.51,1567.47 8064.04,1573.61C8065.52,1575.25 8075.43,1573.95 8081.07,1572.62C8088.24,1570.91 8104.69,1560.79 8106.09,1566.67C8106.99,1570.46 8087.35,1581.88 8083.07,1582.62C8078.23,1583.46 8071.22,1584.29 8070.05,1589.63C8068.88,1594.97 8069.55,1607.49 8075.06,1611.66C8080.57,1615.84 8088.02,1613.87 8093.09,1612.2C8095.94,1611.26 8119.11,1604.67 8120.1,1607.67C8120.91,1610.12 8113.53,1616.11 8089.42,1618.68L8038.65,1618.68Z" style="fill:rgb(54,54,54);"/>
                        </g>
                        <g transform="matrix(0.95136,0,0,0.241467,2865.17,3562.23)">
                            <path d="M3484.71,1979.29C3482.04,1983.79 3468,2001 3460,1992C3452,1983 3439.11,1951.77 3441,1933C3442.78,1915.36 3469.73,1891 3483,1893C3490.07,1894.07 3513,1899 3508,1911C3503,1923 3488.74,1917.22 3486,1913C3482.92,1908.26 3462,1911 3463,1923C3464,1935 3472,1937 3481,1932C3490,1927 3488.33,1935 3487.67,1944C3487,1953 3458.49,1950.49 3476,1965C3481.16,1969.28 3487.38,1974.79 3484.71,1979.29Z" style="fill:rgb(88,89,88);"/>
                        </g>
                    </g>
                    <g transform="matrix(1.19725,0,0,0.36198,-1004.56,3231.04)">
                        <path d="M6121,2241C6124.17,2240.5 6128,2237 6137,2239C6146,2241 6148,2242 6156,2241C6164,2240 6165,2243 6165,2245C6165,2247 6160.83,2245.5 6160,2246C6159.43,2246.34 6159.37,2247.79 6160,2248C6161,2248.33 6164.83,2247.5 6166,2248C6166.97,2248.41 6167.82,2250.34 6167,2251C6166.17,2251.67 6162.95,2251.44 6161,2252C6158.67,2252.67 6155.85,2254.88 6153,2255C6149,2255.17 6141.67,2253.17 6137,2253C6132.99,2252.86 6127.83,2254 6125,2254C6123.3,2254 6120,2253.5 6120,2253C6120,2252.5 6124.5,2251.67 6125,2251C6125.5,2250.33 6123.87,2249.37 6123,2249C6121.83,2248.5 6118.83,2249.17 6118,2248C6117.17,2246.83 6117.5,2243.17 6118,2242C6118.41,2241.03 6119.96,2241.16 6121,2241Z" style="fill:rgb(37,141,51);"/>
                    </g>
                    <g transform="matrix(0.682163,0,0,0.36198,2246.28,3231.76)">
                        <path d="M6121,2241C6124.17,2240.5 6128,2237 6137,2239C6146,2241 6148,2242 6156,2241C6164,2240 6165,2243 6165,2245C6165,2247 6160.83,2245.5 6160,2246C6159.43,2246.34 6159.37,2247.79 6160,2248C6161,2248.33 6164.83,2247.5 6166,2248C6166.97,2248.41 6167.82,2250.34 6167,2251C6166.17,2251.67 6162.95,2251.44 6161,2252C6158.67,2252.67 6155.85,2254.88 6153,2255C6149,2255.17 6141.67,2253.17 6137,2253C6132.99,2252.86 6127.83,2254 6125,2254C6123.3,2254 6120,2253.5 6120,2253C6120,2252.5 6124.5,2251.67 6125,2251C6125.5,2250.33 6123.87,2249.37 6123,2249C6121.83,2248.5 6118.83,2249.17 6118,2248C6117.17,2246.83 6117.5,2243.17 6118,2242C6118.41,2241.03 6119.96,2241.16 6121,2241Z" style="fill:rgb(37,141,51);"/>
                    </g>
                    <g transform="matrix(1.42617,0,0,0.36198,-2405.01,3232.12)">
                        <path d="M5962,2124C5963,2126.17 5979.5,2135.83 5993,2138C6006.23,2140.12 6045.33,2140.5 6054,2136C6057.28,2134.3 6014.99,2130.23 6008.95,2128C6001.29,2125.17 6019.87,2117.94 6010,2117C5999.5,2116 5961,2121.83 5962,2124Z" style="fill:rgb(31,31,31);"/>
                    </g>
                    <g transform="matrix(1.42617,0,0,0.36198,-2405.01,3231.04)">
                        <path d="M6163,2124C6157.5,2124.33 6143.84,2110.23 6142,2117.94C6139.5,2128.44 6131.5,2131.97 6101,2139.08C6097.07,2140 6128,2138.31 6137,2137C6147.33,2135.5 6170.5,2130 6171,2128C6171.5,2126 6166.58,2123.78 6163,2124Z" style="fill:rgb(31,31,31);"/>
                    </g>
                </g>
                <g transform="matrix(-0.864403,0,0,0.864403,38765.3,-243.726)">
                    <path d="M19933,1940C19933,1940 19926.5,1943.44 19922,1942C19913.7,1939.33 19894.7,1927 19886,1924C19881,1922.26 19874.4,1920.93 19870,1924C19865.5,1927.17 19860.5,1937 19859,1943C19857.6,1948.54 19857.7,1956.33 19861,1960C19864.3,1963.67 19872.8,1964.86 19879,1965C19886.5,1965.17 19898.5,1962.5 19906,1961C19912.1,1959.78 19918.5,1956.33 19924,1956C19929.1,1955.69 19933,1957 19933,1957C19933,1957 19932.5,1954.17 19930,1952C19929.6,1951.63 19929.6,1950.46 19930.4,1950.22C19933.3,1949.3 19934,1941.19 19933,1940Z" style="fill:rgb(31,31,31);"/>
                    <clipPath id="_clip1">
                        <path d="M19933,1940C19933,1940 19926.5,1943.44 19922,1942C19913.7,1939.33 19894.7,1927 19886,1924C19881,1922.26 19874.4,1920.93 19870,1924C19865.5,1927.17 19860.5,1937 19859,1943C19857.6,1948.54 19857.7,1956.33 19861,1960C19864.3,1963.67 19872.8,1964.86 19879,1965C19886.5,1965.17 19898.5,1962.5 19906,1961C19912.1,1959.78 19918.5,1956.33 19924,1956C19929.1,1955.69 19933,1957 19933,1957C19933,1957 19932.5,1954.17 19930,1952C19929.6,1951.63 19929.6,1950.46 19930.4,1950.22C19933.3,1949.3 19934,1941.19 19933,1940Z"/>
                    </clipPath>
                    <g clip-path="url(#_clip1)">
                        <g transform="matrix(1.114,0,0,1.14458,-2272.34,-280.82)">
                            <path d="M19871,1924C19870.5,1927.83 19873,1949 19873,1949C19873,1949 19882,1932.67 19884,1933C19886,1933.33 19886.5,1943.59 19889,1945C19891.7,1946.5 19896.3,1946.55 19900,1947C19900.4,1947.04 19902.2,1938.15 19902.2,1938.15C19902.2,1938.15 19901.8,1947.24 19902.2,1947.29C19908.1,1948.13 19917.7,1949.74 19922,1949C19922.4,1948.93 19923.4,1944.77 19923.4,1944.77C19923.4,1944.77 19924,1948.63 19924.3,1948.55C19926.7,1948.02 19928.7,1947.27 19930,1946C19931,1945 19933.2,1939.33 19932,1939C19930.8,1938.67 19925.2,1943.03 19922,1942C19916.8,1940.33 19908,1934.33 19901,1931C19894.1,1927.73 19885,1923.17 19880,1922C19877,1921.3 19871.4,1920.95 19871,1924Z" style="fill:rgb(254,255,255);"/>
                        </g>
                        <g transform="matrix(1.08451,0,0,1.12949,-1684.23,-251.467)">
                            <path d="M19859,1965C19859,1965 19870.7,1956.3 19873,1953C19875.3,1949.67 19883,1942 19883,1942L19887,1960L19887,1950C19887,1950 19898.3,1950.67 19904,1951C19904.5,1951.03 19905.7,1956.1 19905.7,1956.1C19905.7,1956.1 19906.7,1951.15 19907.2,1951.18C19912.3,1951.45 19918,1951.73 19921,1952C19922.7,1952.15 19926.8,1951.97 19928,1952.64C19929,1953.23 19930,1957 19930,1957C19930,1957 19925.3,1956.5 19923,1957C19919.2,1957.83 19912.4,1960.74 19907,1962C19900.5,1963.5 19888.2,1964.5 19882,1965C19877.3,1965.38 19859,1965 19859,1965Z" style="fill:rgb(254,255,255);"/>
                        </g>
                    </g>
                </g>
                <g transform="matrix(0.6061,0,0,2.38798,18021.2,-8242.78)">
                    <g transform="matrix(2.2054,0.0446901,-0.161438,0.61051,-6684.88,2423.47)">
                        <path d="M5948,2150C5948,2150 5914.26,2143.67 5910.26,2176.67C5906.26,2209.67 5896.84,2241.95 5869.84,2244.95C5842.84,2247.95 5937,2252 5936,2195C5935,2138 5955,2178 5954,2162C5953,2146 5948,2150 5948,2150Z" style="fill:rgb(71,0,0);"/>
                    </g>
                    <g transform="matrix(2.2113,0,0,0.612144,-7072.56,2690.19)">
                        <path d="M5948,2150C5948,2150 5917,2137 5913,2170C5909,2203 5926,2234 5899,2237C5872,2240 5937,2252 5936,2195C5935,2138 5955,2178 5954,2162C5953,2146 5948,2150 5948,2150Z" style="fill:rgb(127,14,16);"/>
                    </g>
                    <g>
                        <g transform="matrix(1.42617,0,0,0.36198,-5143.36,3558.63)">
                            <path d="M7727.93,1618.68C7724.4,1613.28 7720.67,1605.96 7720.46,1598.9C7719.51,1566.32 7728.22,1529.32 7734.85,1511.43C7735.42,1509.91 7737.7,1505.65 7741.77,1500.21C7742.19,1499.61 7742.63,1499.03 7743.1,1498.48C7748.11,1492.08 7755.4,1484.39 7765.06,1477.63L7798.83,1442.72C7812.95,1428.13 7847.15,1333.27 7850.34,1315.03C7853.52,1296.79 7883.83,1207.4 7902.07,1182.47C7920.31,1157.54 7943.85,1152.46 7961.66,1152.67C7978.6,1152.87 8032.34,1157.72 8102.91,1234.3C8108.16,1239.99 8131.92,1275.5 8131.92,1275.5L8103.95,1275.5C8101.52,1275.5 8081.45,1274.89 8081.45,1274.89L8061.38,1268.21L8035.85,1268.21L8027.33,1282.19L8031.59,1336.31L8054.09,1372.79L8071.76,1400.87L8060.78,1426.3L8146.6,1427.7C8146.6,1427.7 8158.68,1451.84 8161.11,1456.71C8163.54,1461.57 8155.63,1472.52 8152.59,1477.99C8149.55,1483.46 8132.4,1489.36 8139.72,1501.17C8146.4,1511.95 8181.96,1531.73 8192.12,1572.09C8196.95,1591.3 8198.95,1609.05 8199.75,1618.68L7727.93,1618.68ZM8133.57,1281.66C8133.57,1281.66 8141.24,1305.7 8143.47,1314.42C8145.63,1322.85 8148.95,1336.92 8148.95,1339.96C8148.95,1343 8152.39,1357.39 8153.2,1363.67C8153.8,1368.3 8154.01,1373.5 8153.81,1377.66C8153.63,1381.35 8151.99,1388.6 8151.99,1388.6C8151.99,1388.6 8137.19,1368.84 8133.74,1361.24C8131.21,1355.65 8131.05,1349.13 8131.31,1343C8131.62,1336.01 8134.95,1327.29 8135.57,1319.28C8136.28,1310.06 8133.57,1281.66 8133.57,1281.66Z"/>
                        </g>
                        <g transform="matrix(1.42617,0,0,0.36198,-20525.9,3371.85)">
                            <path d="M18887.4,1954.07L18890,1965C18890,1965 18891.8,1957.23 18895,1956C18899.3,1954.33 18909,1954.83 18916,1955C18923,1955.17 18933.2,1956 18937,1957C18938.4,1957.38 18939,1961 18939,1961L18941,1956C18941,1956 18928.2,1949.17 18922,1948C18916.1,1946.88 18909.8,1947.99 18904,1949C18898.3,1950 18887.4,1954.07 18887.4,1954.07Z" style="fill:white;"/>
                        </g>
                        <g transform="matrix(1.42617,0,0,-0.36198,-20524.5,4788.47)">
                            <path d="M18887.4,1954.07L18890,1965C18890,1965 18891.8,1957.23 18895,1956C18899.3,1954.33 18909,1954.83 18916,1955C18923,1955.17 18933.2,1956 18937,1957C18938.4,1957.38 18939,1961 18939,1961L18941,1956C18941,1956 18928.2,1949.17 18922,1948C18916.1,1946.88 18909.8,1947.99 18904,1949C18898.3,1950 18887.4,1954.07 18887.4,1954.07Z" style="fill:white;"/>
                        </g>
                        <g transform="matrix(1.42617,0,0,0.36198,-5143.36,3558.63)">
                            <path d="M7987.54,1618.68C7987.54,1618.68 7972.64,1572.56 7965.16,1557.86C7959.81,1547.34 7948.19,1538.79 7946.67,1531.5C7945.23,1524.59 7939.63,1513.47 7956.04,1514.08C7972.46,1514.69 8007.91,1519.01 8026.76,1527.53C8045.61,1536.04 8066.8,1514.21 8078.77,1520.34C8091.92,1527.08 8116.1,1572.34 8128.7,1585.97C8140.13,1598.33 8143.9,1608.76 8145.88,1618.68L7987.54,1618.68Z" style="fill:rgb(88,89,88);"/>
                        </g>
                        <g transform="matrix(1.42617,0,0,0.36198,-3373.48,3561.89)">
                            <path d="M6816.74,1411.83C6815.69,1409.57 6815.52,1406.97 6815.52,1406.97C6815.52,1406.97 6819.17,1376.56 6812.48,1368.05C6805.79,1359.54 6785.12,1326.7 6783.9,1313.93C6782.68,1301.16 6778.43,1255.56 6800.32,1254.34C6822.21,1253.12 6834.37,1264.68 6849.57,1264.07C6864.77,1263.46 6886.06,1258.6 6890.31,1265.29C6894.57,1271.98 6893.96,1280.49 6895.78,1285.35C6897.61,1290.22 6897,1312.11 6893.96,1323.66C6890.92,1335.21 6891.31,1350.81 6894.35,1353.85C6897.05,1356.54 6900.88,1358.39 6906.12,1367.44C6912.81,1379 6912.81,1382.94 6911.59,1391.45C6910.38,1399.97 6913.24,1407.3 6916.18,1414.6C6914.17,1419.18 6914.29,1424.42 6911.2,1421.9C6895.39,1411.56 6876.93,1418.82 6865.38,1421.86C6863.7,1422.3 6861.68,1422.66 6859.47,1422.96C6859.95,1422.99 6860.31,1423.02 6860.52,1423.07C6862.95,1423.68 6884.84,1429.76 6893.35,1429.15C6901.86,1428.55 6907.95,1425.5 6911.59,1425.5C6915.24,1425.5 6919.5,1441.62 6920.11,1443.45C6920.11,1443.45 6924.97,1455.61 6893.96,1450.75C6862.95,1445.88 6831.94,1437.98 6825.86,1430.68C6825.95,1430.69 6819.89,1418.67 6816.74,1411.83Z" style="fill:rgb(88,89,88);"/>
                        </g>
                        <g transform="matrix(1.42617,0,0,0.36198,-2420.7,3225.61)">
                            <path d="M6213.5,2182C6217.28,2169.67 6188.16,2139.42 6182.85,2142C6182.85,2142 6149.79,2137 6134.71,2137C6118.23,2137 6077.52,2143.69 6042.71,2144.41C6004.89,2145.19 5972.5,2142 5972.5,2142C5963.7,2142 5951.7,2182 5957.5,2182C5956.77,2185.38 6018.3,2189.1 6046.79,2188.3C6076.27,2187.48 6073.91,2182.03 6144.93,2179.2C6161.13,2178.55 6195.32,2182.82 6213.5,2182Z" style="fill:rgb(127,14,16);"/>
                        </g>
                        <g transform="matrix(0.867206,0,0,0.220108,3156.16,3597.95)">
                            <path d="M3744,2088C3745,2091 3752.62,2110 3779,2109C3784.1,2108.81 3790,2107 3789,2100C3788,2093 3789.18,2081.93 3788,2079C3786.14,2074.36 3755,2065 3750,2069C3745,2073 3743,2085 3744,2088Z"/>
                        </g>
                        <g transform="matrix(0.867206,0,0,0.220108,3157.59,3597.95)">
                            <path d="M3794,2079C3789.73,2081.67 3788.42,2100.92 3797.36,2108C3800.86,2110.78 3816,2111 3820,2109C3824,2107 3829,2097 3823,2092C3817,2087 3798.27,2076.33 3794,2079Z"/>
                        </g>
                        <g transform="matrix(0.867206,0,0,0.220108,3153.31,3598.31)">
                            <path d="M3785.74,2062.58C3785.74,2062.58 3752.71,2048.64 3743.71,2055.64C3734.71,2062.64 3722.71,2064.13 3727.71,2074.13C3732.71,2084.13 3747.57,2092.69 3749.07,2099.69C3750.57,2106.69 3750.55,2119.4 3743.55,2124.4C3736.55,2129.4 3719.5,2123.98 3717.5,2111.98C3715.5,2099.98 3716.71,2091.13 3714.71,2084.13C3712.71,2077.13 3709,2062 3716,2056C3723,2050 3740.93,2041.29 3748.93,2044.29C3756.93,2047.29 3785.74,2059.58 3785.74,2062.58Z" style="fill:rgb(54,54,54);"/>
                        </g>
                        <g transform="matrix(0.867206,0,0,0.220108,3156.16,3597.95)">
                            <path d="M3744,1997C3744,1997 3751,1978 3764,1978C3777,1978 3787,1984 3782,1993C3777,2002 3769,2005 3760,2003C3751,2001 3746,1997 3744,1997Z" style="fill:white;"/>
                        </g>
                        <g transform="matrix(0.867206,0,0,0.220108,3156.16,3597.95)">
                            <path d="M3746,2009C3746,2009 3731.36,1994.42 3739.36,1983.42C3747.36,1972.42 3760.07,1962.64 3771.07,1963.64C3782.07,1964.64 3800.64,1955.64 3802.64,1961.64C3804.64,1967.64 3805.29,1999 3798.29,2003C3791.29,2007 3787,1997 3787,1987C3787,1977 3787,1970 3778,1972C3769,1974 3747.93,1971.91 3740.36,1990.71C3738.81,1994.54 3743,2006 3746,2009Z" style="fill:rgb(54,54,54);"/>
                        </g>
                        <g transform="matrix(0.867206,0,0,0.220108,3156.16,3597.95)">
                            <path d="M3759.64,1978.36C3759.64,1978.36 3749.36,1982 3752.36,1989C3755.36,1996 3757.71,2006.58 3769.93,2003.93C3773.96,2003.06 3778.15,1997.85 3777.64,1988.64C3777.22,1981 3768.64,1974.36 3759.64,1978.36Z"/>
                        </g>
                        <g transform="matrix(0.867206,0,0,0.220108,3161.86,3597.95)">
                            <path d="M3761,1985C3761,1987 3762,1990 3765,1989C3768,1988 3769,1987 3768,1985C3767,1983 3766,1983 3764,1983C3762,1983 3761,1984 3761,1985Z" style="fill:white;"/>
                        </g>
                        <g transform="matrix(0.867206,0,0,0.220108,3156.16,3597.95)">
                            <path d="M3694.58,1990.64C3694.58,1990.64 3687.43,1976.88 3677.61,1969.49C3675.41,1967.83 3673.07,1968.02 3670.64,1967.23C3668.07,1966.39 3662.4,1965.86 3657.36,1967.71C3652.91,1969.34 3648.94,1971.66 3648,1974C3646,1979 3644,1990.64 3653,1992.64C3655.65,1993.23 3658.12,1993.8 3660.39,1994.29C3665.86,1995.46 3665.24,1994.84 3668.07,1995.44C3669.07,1995.66 3675.79,1994.83 3677.92,1994.41C3684.32,1993.16 3693.83,1991.39 3694.58,1990.64Z" style="fill:white;"/>
                        </g>
                        <g transform="matrix(0.867206,0,0,0.220108,3156.16,3597.95)">
                            <path d="M3677.22,1969C3681.01,1972.66 3687.92,1990.84 3677.51,1994.64C3673.64,1996.06 3661.93,1996.11 3659.87,1993.93C3653.91,1987.64 3651.39,1971.98 3657.29,1967.71C3659.36,1966.22 3671.93,1963.9 3677.22,1969Z"/>
                        </g>
                        <g transform="matrix(0.867206,0,0,0.220108,3077.72,3595.78)">
                            <path d="M3761,1985C3761,1987 3762,1990 3765,1989C3768,1988 3769,1987 3768,1985C3767,1983 3766,1983 3764,1983C3762,1983 3761,1984 3761,1985Z" style="fill:white;"/>
                        </g>
                        <g transform="matrix(0.867206,0,0,0.220108,3156.16,3597.95)">
                            <path d="M3636,1956C3636,1956 3654.29,1933.36 3666.29,1931.36C3678.29,1929.36 3721.25,1936.36 3725,1941.71C3729.06,1947.5 3728,1959 3721,1962C3714,1965 3714,1960 3703,1956C3692,1952 3667,1953 3661,1953C3655,1953 3636,1956 3636,1956Z" style="fill:rgb(12,12,10);"/>
                        </g>
                        <g transform="matrix(0.867206,0,0,0.220108,3156.16,3597.95)">
                            <path d="M3748,1962.36C3744.82,1961.13 3740.72,1945.89 3746,1943.07C3769,1930.77 3790,1937 3796,1938C3802,1939 3805,1943 3807,1948C3809,1953 3809.64,1961 3809.64,1961C3809.64,1961 3794.68,1952.15 3789.07,1951C3782.57,1949.67 3774,1950 3769,1953C3764,1956 3752,1964.36 3748,1962.36" style="fill:rgb(12,12,10);"/>
                        </g>
                        <g transform="matrix(0.867206,0,0,0.220108,3156.16,3597.95)">
                            <path d="M3632.84,1980.8C3632.84,1980.8 3639.14,1973.01 3650.72,1967.99C3660.94,1963.56 3671.43,1961.66 3679.64,1964C3687.92,1966.36 3696.29,1975 3699.29,1982C3702.29,1989 3708.51,1999.71 3716.51,1999.71C3724.51,1999.71 3720,1977 3716,1972C3712,1967 3703.99,1960.07 3695,1959C3672.84,1956.36 3657.85,1958.94 3642.09,1970.56C3638.43,1973.26 3632.84,1980.8 3632.84,1980.8Z" style="fill:rgb(54,54,54);"/>
                        </g>
                        <g transform="matrix(1.42617,0,0,0.36198,-5143.36,3558.63)">
                            <path d="M8038.65,1618.68C8037.82,1618.28 8037.78,1617.92 8039.01,1617.67C8044.02,1616.67 8057.04,1615.67 8061.04,1613.67C8065.05,1611.66 8058.04,1595.64 8058.04,1589.63C8058.04,1583.62 8056.03,1586.62 8040,1589.63C8023.98,1592.63 7991.25,1590.68 7990.97,1588.63C7990.52,1585.36 8055.57,1578.31 8054.03,1574.62C8051.38,1568.24 8048.74,1565.57 8047.1,1560.57C8042.59,1546.78 8039.93,1536.77 8042.01,1535.56C8043.69,1534.58 8052.36,1550.35 8053.02,1551.56C8056.19,1557.4 8058.51,1567.47 8064.04,1573.61C8065.52,1575.25 8075.43,1573.95 8081.07,1572.62C8088.24,1570.91 8104.69,1560.79 8106.09,1566.67C8106.99,1570.46 8087.35,1581.88 8083.07,1582.62C8078.23,1583.46 8071.22,1584.29 8070.05,1589.63C8068.88,1594.97 8069.55,1607.49 8075.06,1611.66C8080.57,1615.84 8088.02,1613.87 8093.09,1612.2C8095.94,1611.26 8119.11,1604.67 8120.1,1607.67C8120.91,1610.12 8113.53,1616.11 8089.42,1618.68L8038.65,1618.68Z" style="fill:rgb(54,54,54);"/>
                        </g>
                        <g transform="matrix(0.95136,0,0,0.241467,2865.17,3562.23)">
                            <path d="M3484.71,1979.29C3482.04,1983.79 3468,2001 3460,1992C3452,1983 3439.11,1951.77 3441,1933C3442.78,1915.36 3469.73,1891 3483,1893C3490.07,1894.07 3513,1899 3508,1911C3503,1923 3488.74,1917.22 3486,1913C3482.92,1908.26 3462,1911 3463,1923C3464,1935 3472,1937 3481,1932C3490,1927 3488.33,1935 3487.67,1944C3487,1953 3458.49,1950.49 3476,1965C3481.16,1969.28 3487.38,1974.79 3484.71,1979.29Z" style="fill:rgb(88,89,88);"/>
                        </g>
                    </g>
                    <g transform="matrix(1.19725,0,0,0.36198,-1004.56,3231.04)">
                        <path d="M6121,2241C6124.17,2240.5 6128,2237 6137,2239C6146,2241 6148,2242 6156,2241C6164,2240 6165,2243 6165,2245C6165,2247 6160.83,2245.5 6160,2246C6159.43,2246.34 6159.37,2247.79 6160,2248C6161,2248.33 6164.83,2247.5 6166,2248C6166.97,2248.41 6167.82,2250.34 6167,2251C6166.17,2251.67 6162.95,2251.44 6161,2252C6158.67,2252.67 6155.85,2254.88 6153,2255C6149,2255.17 6141.67,2253.17 6137,2253C6132.99,2252.86 6127.83,2254 6125,2254C6123.3,2254 6120,2253.5 6120,2253C6120,2252.5 6124.5,2251.67 6125,2251C6125.5,2250.33 6123.87,2249.37 6123,2249C6121.83,2248.5 6118.83,2249.17 6118,2248C6117.17,2246.83 6117.5,2243.17 6118,2242C6118.41,2241.03 6119.96,2241.16 6121,2241Z" style="fill:rgb(127,14,16);"/>
                    </g>
                    <g transform="matrix(0.682163,0,0,0.36198,2246.28,3231.76)">
                        <path d="M6121,2241C6124.17,2240.5 6128,2237 6137,2239C6146,2241 6148,2242 6156,2241C6164,2240 6165,2243 6165,2245C6165,2247 6160.83,2245.5 6160,2246C6159.43,2246.34 6159.37,2247.79 6160,2248C6161,2248.33 6164.83,2247.5 6166,2248C6166.97,2248.41 6167.82,2250.34 6167,2251C6166.17,2251.67 6162.95,2251.44 6161,2252C6158.67,2252.67 6155.85,2254.88 6153,2255C6149,2255.17 6141.67,2253.17 6137,2253C6132.99,2252.86 6127.83,2254 6125,2254C6123.3,2254 6120,2253.5 6120,2253C6120,2252.5 6124.5,2251.67 6125,2251C6125.5,2250.33 6123.87,2249.37 6123,2249C6121.83,2248.5 6118.83,2249.17 6118,2248C6117.17,2246.83 6117.5,2243.17 6118,2242C6118.41,2241.03 6119.96,2241.16 6121,2241Z" style="fill:rgb(127,14,16);"/>
                    </g>
                    <g transform="matrix(1.42617,0,0,0.36198,-2405.01,3232.12)">
                        <path d="M5962,2124C5963,2126.17 5979.5,2135.83 5993,2138C6006.23,2140.12 6045.33,2140.5 6054,2136C6057.28,2134.3 6014.99,2130.23 6008.95,2128C6001.29,2125.17 6019.87,2117.94 6010,2117C5999.5,2116 5961,2121.83 5962,2124Z"/>
                    </g>
                    <g transform="matrix(1.42617,0,0,0.36198,-2405.01,3231.04)">
                        <path d="M6163,2124C6157.5,2124.33 6143.84,2110.23 6142,2117.94C6139.5,2128.44 6131.5,2131.97 6101,2139.08C6097.07,2140 6128,2138.31 6137,2137C6147.33,2135.5 6170.5,2130 6171,2128C6171.5,2126 6166.58,2123.78 6163,2124Z"/>
                    </g>
                </g>
                <g transform="matrix(0.864403,0,0,0.864403,4724.65,-191.726)">
                    <path d="M19933,1940C19933,1940 19926.5,1943.44 19922,1942C19913.7,1939.33 19894.7,1927 19886,1924C19881,1922.26 19874.4,1920.93 19870,1924C19865.5,1927.17 19860.5,1937 19859,1943C19857.6,1948.54 19857.7,1956.33 19861,1960C19864.3,1963.67 19872.8,1964.86 19879,1965C19886.5,1965.17 19898.5,1962.5 19906,1961C19912.1,1959.78 19918.5,1956.33 19924,1956C19929.1,1955.69 19933,1957 19933,1957C19933,1957 19932.5,1954.17 19930,1952C19929.6,1951.63 19929.6,1950.46 19930.4,1950.22C19933.3,1949.3 19934,1941.19 19933,1940Z"/>
                    <clipPath id="_clip2">
                        <path d="M19933,1940C19933,1940 19926.5,1943.44 19922,1942C19913.7,1939.33 19894.7,1927 19886,1924C19881,1922.26 19874.4,1920.93 19870,1924C19865.5,1927.17 19860.5,1937 19859,1943C19857.6,1948.54 19857.7,1956.33 19861,1960C19864.3,1963.67 19872.8,1964.86 19879,1965C19886.5,1965.17 19898.5,1962.5 19906,1961C19912.1,1959.78 19918.5,1956.33 19924,1956C19929.1,1955.69 19933,1957 19933,1957C19933,1957 19932.5,1954.17 19930,1952C19929.6,1951.63 19929.6,1950.46 19930.4,1950.22C19933.3,1949.3 19934,1941.19 19933,1940Z"/>
                    </clipPath>
                    <g clip-path="url(#_clip2)">
                        <g transform="matrix(1.114,0,0,1.14458,-2272.34,-280.82)">
                            <path d="M19871,1924C19870.5,1927.83 19873,1949 19873,1949C19873,1949 19882,1932.67 19884,1933C19886,1933.33 19886.5,1943.59 19889,1945C19891.7,1946.5 19896.3,1946.55 19900,1947C19900.4,1947.04 19902.2,1938.15 19902.2,1938.15C19902.2,1938.15 19901.8,1947.24 19902.2,1947.29C19908.1,1948.13 19917.7,1949.74 19922,1949C19922.4,1948.93 19923.4,1944.77 19923.4,1944.77C19923.4,1944.77 19924,1948.63 19924.3,1948.55C19926.7,1948.02 19928.7,1947.27 19930,1946C19931,1945 19933.2,1939.33 19932,1939C19930.8,1938.67 19925.2,1943.03 19922,1942C19916.8,1940.33 19908,1934.33 19901,1931C19894.1,1927.73 19885,1923.17 19880,1922C19877,1921.3 19871.4,1920.95 19871,1924Z" style="fill:rgb(254,255,255);"/>
                        </g>
                        <g transform="matrix(1.08451,0,0,1.12949,-1684.23,-251.467)">
                            <path d="M19859,1965C19859,1965 19870.7,1956.3 19873,1953C19875.3,1949.67 19883,1942 19883,1942L19887,1960L19887,1950C19887,1950 19898.3,1950.67 19904,1951C19904.5,1951.03 19905.7,1956.1 19905.7,1956.1C19905.7,1956.1 19906.7,1951.15 19907.2,1951.18C19912.3,1951.45 19918,1951.73 19921,1952C19922.7,1952.15 19926.8,1951.97 19928,1952.64C19929,1953.23 19930,1957 19930,1957C19930,1957 19925.3,1956.5 19923,1957C19919.2,1957.83 19912.4,1960.74 19907,1962C19900.5,1963.5 19888.2,1964.5 19882,1965C19877.3,1965.38 19859,1965 19859,1965Z" style="fill:rgb(254,255,255);"/>
                        </g>
                    </g>
                </g>
            </g>
            <g transform="matrix(2.22326,0,0,2.22326,402.238,-774.111)">
                <g transform="matrix(70.2891,0,0,70.2891,18.7458,417)">
                    <path d="M0.289,-0.688L0.235,-0.022L0.029,-0.012L0.029,-0.674L0.289,-0.688Z" style="fill:rgb(24,24,24);fill-rule:nonzero;"/>
                </g>
                <g transform="matrix(70.2891,0,0,70.2891,43.1616,417)">
                    <path d="M0.689,-0.7L0.654,-0.038L0.398,-0.015L0.261,-0.369L0.24,-0.008L0.02,-0.008L0.038,-0.7L0.282,-0.712L0.451,-0.36L0.458,-0.692L0.689,-0.7Z" style="fill:rgb(24,24,24);fill-rule:nonzero;"/>
                </g>
                <g transform="matrix(70.2891,0,0,70.2891,96.1325,417)">
                    <path d="M0.541,-0.698L0.536,-0.491L0.391,-0.485L0.354,-0.022L0.147,-0.012L0.148,-0.475L0.003,-0.467L0.009,-0.697L0.541,-0.698Z" style="fill:rgb(24,24,24);fill-rule:nonzero;"/>
                </g>
                <g transform="matrix(70.2891,0,0,70.2891,137.812,417)">
                    <path d="M0.487,-0.704C0.485,-0.674 0.484,-0.643 0.482,-0.613C0.48,-0.583 0.478,-0.553 0.476,-0.522L0.269,-0.512L0.264,-0.45L0.409,-0.45L0.398,-0.299L0.252,-0.294L0.247,-0.223L0.454,-0.223C0.452,-0.187 0.45,-0.151 0.448,-0.116C0.446,-0.081 0.444,-0.045 0.442,-0.01L0.021,-0L0.037,-0.704L0.487,-0.704Z" style="fill:rgb(24,24,24);fill-rule:nonzero;"/>
                </g>
                <g transform="matrix(70.2891,0,0,70.2891,174.995,417)">
                    <path d="M0.597,-0.471C0.597,-0.445 0.595,-0.422 0.591,-0.402C0.586,-0.381 0.579,-0.362 0.57,-0.345C0.56,-0.327 0.548,-0.312 0.533,-0.297C0.518,-0.282 0.5,-0.268 0.479,-0.255L0.595,-0.048L0.375,-0.005L0.3,-0.213L0.24,-0.211L0.231,-0.008L0.021,-0.008C0.023,-0.082 0.024,-0.156 0.026,-0.229C0.027,-0.303 0.029,-0.377 0.031,-0.451C0.031,-0.489 0.032,-0.526 0.033,-0.563C0.033,-0.599 0.035,-0.636 0.037,-0.674C0.059,-0.682 0.082,-0.689 0.104,-0.695C0.126,-0.7 0.148,-0.705 0.171,-0.708C0.193,-0.711 0.216,-0.713 0.239,-0.714C0.261,-0.715 0.285,-0.716 0.309,-0.716C0.346,-0.716 0.382,-0.711 0.417,-0.7C0.451,-0.69 0.482,-0.675 0.509,-0.654C0.535,-0.634 0.557,-0.608 0.573,-0.578C0.589,-0.547 0.597,-0.511 0.597,-0.471ZM0.378,-0.455C0.378,-0.469 0.377,-0.481 0.373,-0.493C0.369,-0.504 0.364,-0.514 0.356,-0.522C0.349,-0.531 0.34,-0.537 0.329,-0.542C0.318,-0.546 0.305,-0.549 0.291,-0.549C0.284,-0.549 0.278,-0.548 0.271,-0.548C0.265,-0.547 0.259,-0.546 0.253,-0.544L0.246,-0.362L0.257,-0.362C0.271,-0.362 0.286,-0.364 0.3,-0.368C0.315,-0.371 0.328,-0.377 0.339,-0.384C0.351,-0.392 0.36,-0.401 0.367,-0.413C0.375,-0.425 0.378,-0.439 0.378,-0.455Z" style="fill:rgb(24,24,24);fill-rule:nonzero;"/>
                </g>
                <g transform="matrix(70.2891,0,0,70.2891,221.102,417)">
                    <path d="M0.641,-0.042L0.398,-0.011L0.369,-0.121L0.258,-0.121L0.233,-0.011L-0.016,-0.035L0.179,-0.686L0.45,-0.699L0.641,-0.042ZM0.352,-0.271L0.314,-0.44L0.278,-0.271L0.352,-0.271Z" style="fill:rgb(24,24,24);fill-rule:nonzero;"/>
                </g>
                <g transform="matrix(70.2891,0,0,70.2891,267.792,417)">
                    <path d="M0.614,-0.1C0.599,-0.08 0.58,-0.064 0.558,-0.049C0.535,-0.035 0.511,-0.023 0.485,-0.014C0.46,-0.004 0.433,0.003 0.406,0.008C0.379,0.012 0.354,0.015 0.329,0.015C0.282,0.015 0.238,0.006 0.199,-0.011C0.159,-0.028 0.125,-0.051 0.096,-0.081C0.067,-0.111 0.045,-0.146 0.028,-0.186C0.012,-0.226 0.004,-0.27 0.004,-0.316C0.004,-0.352 0.008,-0.387 0.016,-0.421C0.024,-0.455 0.036,-0.487 0.051,-0.517C0.066,-0.547 0.085,-0.575 0.106,-0.6C0.128,-0.625 0.153,-0.647 0.181,-0.665C0.208,-0.683 0.239,-0.697 0.271,-0.708C0.304,-0.718 0.34,-0.723 0.377,-0.723C0.391,-0.723 0.406,-0.722 0.422,-0.721C0.438,-0.72 0.454,-0.718 0.469,-0.715C0.485,-0.712 0.501,-0.708 0.516,-0.704C0.531,-0.699 0.544,-0.693 0.557,-0.686L0.543,-0.499C0.525,-0.506 0.506,-0.51 0.487,-0.513C0.467,-0.515 0.448,-0.517 0.43,-0.517C0.404,-0.517 0.379,-0.513 0.357,-0.505C0.334,-0.497 0.314,-0.485 0.298,-0.47C0.281,-0.455 0.268,-0.437 0.258,-0.416C0.248,-0.394 0.243,-0.37 0.243,-0.343C0.243,-0.326 0.245,-0.309 0.25,-0.294C0.255,-0.278 0.261,-0.264 0.271,-0.252C0.28,-0.24 0.292,-0.23 0.305,-0.222C0.319,-0.215 0.335,-0.211 0.354,-0.211C0.366,-0.211 0.379,-0.213 0.392,-0.216C0.405,-0.219 0.416,-0.225 0.426,-0.232L0.428,-0.271L0.311,-0.272L0.316,-0.419C0.365,-0.421 0.413,-0.422 0.462,-0.423C0.51,-0.424 0.559,-0.426 0.608,-0.428L0.614,-0.1Z" style="fill:rgb(24,24,24);fill-rule:nonzero;"/>
                </g>
                <g transform="matrix(70.2891,0,0,70.2891,315.34,417)">
                    <path d="M0.597,-0.471C0.597,-0.445 0.595,-0.422 0.591,-0.402C0.586,-0.381 0.579,-0.362 0.57,-0.345C0.56,-0.327 0.548,-0.312 0.533,-0.297C0.518,-0.282 0.5,-0.268 0.479,-0.255L0.595,-0.048L0.375,-0.005L0.3,-0.213L0.24,-0.211L0.231,-0.008L0.021,-0.008C0.023,-0.082 0.024,-0.156 0.026,-0.229C0.027,-0.303 0.029,-0.377 0.031,-0.451C0.031,-0.489 0.032,-0.526 0.033,-0.563C0.033,-0.599 0.035,-0.636 0.037,-0.674C0.059,-0.682 0.082,-0.689 0.104,-0.695C0.126,-0.7 0.148,-0.705 0.171,-0.708C0.193,-0.711 0.216,-0.713 0.239,-0.714C0.261,-0.715 0.285,-0.716 0.309,-0.716C0.346,-0.716 0.382,-0.711 0.417,-0.7C0.451,-0.69 0.482,-0.675 0.509,-0.654C0.535,-0.634 0.557,-0.608 0.573,-0.578C0.589,-0.547 0.597,-0.511 0.597,-0.471ZM0.378,-0.455C0.378,-0.469 0.377,-0.481 0.373,-0.493C0.369,-0.504 0.364,-0.514 0.356,-0.522C0.349,-0.531 0.34,-0.537 0.329,-0.542C0.318,-0.546 0.305,-0.549 0.291,-0.549C0.284,-0.549 0.278,-0.548 0.271,-0.548C0.265,-0.547 0.259,-0.546 0.253,-0.544L0.246,-0.362L0.257,-0.362C0.271,-0.362 0.286,-0.364 0.3,-0.368C0.315,-0.371 0.328,-0.377 0.339,-0.384C0.351,-0.392 0.36,-0.401 0.367,-0.413C0.375,-0.425 0.378,-0.439 0.378,-0.455Z" style="fill:rgb(24,24,24);fill-rule:nonzero;"/>
                </g>
                <g transform="matrix(70.2891,0,0,70.2891,361,417)">
                    <path d="M0.628,-0.345C0.628,-0.315 0.625,-0.287 0.618,-0.259C0.611,-0.232 0.601,-0.206 0.589,-0.182C0.576,-0.158 0.56,-0.135 0.542,-0.115C0.523,-0.095 0.503,-0.078 0.48,-0.064C0.457,-0.05 0.432,-0.038 0.405,-0.031C0.378,-0.023 0.349,-0.019 0.319,-0.019C0.29,-0.019 0.262,-0.022 0.235,-0.03C0.209,-0.037 0.184,-0.048 0.161,-0.061C0.138,-0.075 0.117,-0.091 0.098,-0.11C0.079,-0.129 0.063,-0.15 0.05,-0.174C0.037,-0.197 0.027,-0.222 0.019,-0.249C0.012,-0.275 0.008,-0.303 0.008,-0.332C0.008,-0.36 0.012,-0.388 0.019,-0.415C0.025,-0.442 0.035,-0.468 0.048,-0.492C0.061,-0.516 0.076,-0.538 0.095,-0.559C0.113,-0.579 0.133,-0.596 0.156,-0.611C0.179,-0.625 0.203,-0.637 0.229,-0.645C0.256,-0.653 0.284,-0.657 0.313,-0.657C0.36,-0.657 0.403,-0.65 0.442,-0.635C0.481,-0.621 0.514,-0.6 0.542,-0.573C0.569,-0.545 0.591,-0.512 0.606,-0.474C0.621,-0.435 0.628,-0.392 0.628,-0.345ZM0.412,-0.332C0.412,-0.346 0.41,-0.36 0.406,-0.373C0.401,-0.386 0.396,-0.398 0.388,-0.408C0.38,-0.418 0.37,-0.427 0.359,-0.433C0.347,-0.439 0.334,-0.442 0.319,-0.442C0.304,-0.442 0.29,-0.44 0.278,-0.434C0.266,-0.429 0.255,-0.421 0.247,-0.411C0.238,-0.402 0.232,-0.391 0.227,-0.378C0.222,-0.365 0.22,-0.351 0.22,-0.337C0.22,-0.323 0.222,-0.31 0.226,-0.296C0.23,-0.282 0.236,-0.27 0.244,-0.259C0.251,-0.248 0.261,-0.239 0.273,-0.232C0.284,-0.225 0.298,-0.222 0.313,-0.222C0.328,-0.222 0.342,-0.225 0.354,-0.231C0.366,-0.237 0.377,-0.245 0.385,-0.255C0.394,-0.265 0.4,-0.277 0.405,-0.291C0.409,-0.304 0.412,-0.318 0.412,-0.332Z" style="fill:rgb(24,24,24);fill-rule:nonzero;"/>
                </g>
                <g transform="matrix(30.3239,0,0,30.3239,20.9153,453.356)">
                    <path d="M0.593,-0.174C0.593,-0.147 0.588,-0.124 0.578,-0.104C0.568,-0.084 0.555,-0.068 0.539,-0.054C0.522,-0.041 0.503,-0.029 0.481,-0.021C0.46,-0.012 0.437,-0.005 0.414,-0C0.39,0.004 0.367,0.008 0.343,0.009C0.319,0.011 0.297,0.012 0.277,0.012C0.257,0.012 0.236,0.011 0.214,0.01C0.192,0.008 0.171,0.006 0.149,0.002C0.128,-0.002 0.107,-0.006 0.086,-0.012C0.065,-0.018 0.045,-0.026 0.027,-0.035L0.026,-0.664C0.044,-0.672 0.063,-0.678 0.084,-0.684C0.104,-0.69 0.125,-0.695 0.147,-0.699C0.168,-0.704 0.189,-0.707 0.21,-0.709C0.232,-0.711 0.252,-0.712 0.272,-0.712C0.295,-0.712 0.318,-0.71 0.342,-0.708C0.366,-0.705 0.388,-0.7 0.41,-0.693C0.432,-0.686 0.452,-0.677 0.471,-0.666C0.49,-0.655 0.507,-0.642 0.521,-0.626C0.535,-0.61 0.546,-0.591 0.554,-0.57C0.562,-0.549 0.566,-0.525 0.566,-0.497C0.566,-0.479 0.563,-0.462 0.558,-0.446C0.553,-0.43 0.545,-0.416 0.536,-0.403C0.526,-0.39 0.514,-0.379 0.5,-0.37C0.486,-0.361 0.47,-0.355 0.453,-0.351C0.474,-0.345 0.493,-0.337 0.51,-0.326C0.528,-0.315 0.543,-0.302 0.555,-0.287C0.567,-0.272 0.577,-0.255 0.583,-0.235C0.59,-0.216 0.593,-0.196 0.593,-0.174ZM0.345,-0.452C0.345,-0.462 0.343,-0.47 0.339,-0.476C0.335,-0.483 0.331,-0.488 0.325,-0.493C0.319,-0.497 0.313,-0.5 0.306,-0.502C0.3,-0.504 0.294,-0.505 0.289,-0.505C0.282,-0.505 0.276,-0.504 0.27,-0.502C0.263,-0.5 0.257,-0.498 0.251,-0.495L0.249,-0.387C0.256,-0.387 0.265,-0.387 0.276,-0.389C0.287,-0.39 0.298,-0.393 0.308,-0.397C0.319,-0.402 0.327,-0.408 0.334,-0.417C0.342,-0.425 0.345,-0.437 0.345,-0.452ZM0.276,-0.293C0.266,-0.293 0.257,-0.292 0.249,-0.29L0.247,-0.179C0.251,-0.178 0.256,-0.177 0.261,-0.176C0.266,-0.175 0.27,-0.175 0.275,-0.175C0.282,-0.175 0.289,-0.176 0.297,-0.177C0.306,-0.178 0.313,-0.181 0.32,-0.186C0.327,-0.19 0.333,-0.196 0.338,-0.204C0.343,-0.211 0.345,-0.221 0.345,-0.233C0.345,-0.246 0.343,-0.256 0.338,-0.264C0.333,-0.271 0.328,-0.278 0.321,-0.282C0.314,-0.286 0.306,-0.289 0.298,-0.291C0.29,-0.292 0.283,-0.293 0.276,-0.293Z" style="fill:rgb(184,35,5);fill-rule:nonzero;"/>
                </g>
                <g transform="matrix(30.3239,0,0,30.3239,52.2994,453.356)">
                    <path d="M0.628,-0.345C0.628,-0.315 0.625,-0.287 0.618,-0.259C0.611,-0.232 0.601,-0.206 0.589,-0.182C0.576,-0.158 0.56,-0.135 0.542,-0.115C0.523,-0.095 0.503,-0.078 0.48,-0.064C0.457,-0.05 0.432,-0.038 0.405,-0.031C0.378,-0.023 0.349,-0.019 0.319,-0.019C0.29,-0.019 0.262,-0.022 0.235,-0.03C0.209,-0.037 0.184,-0.048 0.161,-0.061C0.138,-0.075 0.117,-0.091 0.098,-0.11C0.079,-0.129 0.063,-0.15 0.05,-0.174C0.037,-0.197 0.027,-0.222 0.019,-0.249C0.012,-0.275 0.008,-0.303 0.008,-0.332C0.008,-0.36 0.012,-0.388 0.019,-0.415C0.025,-0.442 0.035,-0.468 0.048,-0.492C0.061,-0.516 0.076,-0.538 0.095,-0.559C0.113,-0.579 0.133,-0.596 0.156,-0.611C0.179,-0.625 0.203,-0.637 0.229,-0.645C0.256,-0.653 0.284,-0.657 0.313,-0.657C0.36,-0.657 0.403,-0.65 0.442,-0.635C0.481,-0.621 0.514,-0.6 0.542,-0.573C0.569,-0.545 0.591,-0.512 0.606,-0.474C0.621,-0.435 0.628,-0.392 0.628,-0.345ZM0.412,-0.332C0.412,-0.346 0.41,-0.36 0.406,-0.373C0.401,-0.386 0.396,-0.398 0.388,-0.408C0.38,-0.418 0.37,-0.427 0.359,-0.433C0.347,-0.439 0.334,-0.442 0.319,-0.442C0.304,-0.442 0.29,-0.44 0.278,-0.434C0.266,-0.429 0.255,-0.421 0.247,-0.411C0.238,-0.402 0.232,-0.391 0.227,-0.378C0.222,-0.365 0.22,-0.351 0.22,-0.337C0.22,-0.323 0.222,-0.31 0.226,-0.296C0.23,-0.282 0.236,-0.27 0.244,-0.259C0.251,-0.248 0.261,-0.239 0.273,-0.232C0.284,-0.225 0.298,-0.222 0.313,-0.222C0.328,-0.222 0.342,-0.225 0.354,-0.231C0.366,-0.237 0.377,-0.245 0.385,-0.255C0.394,-0.265 0.4,-0.277 0.405,-0.291C0.409,-0.304 0.412,-0.318 0.412,-0.332Z" style="fill:rgb(184,35,5);fill-rule:nonzero;"/>
                </g>
                <g transform="matrix(30.3239,0,0,30.3239,85.2825,453.356)">
                    <path d="M0.597,-0.471C0.597,-0.445 0.595,-0.422 0.591,-0.402C0.586,-0.381 0.579,-0.362 0.57,-0.345C0.56,-0.327 0.548,-0.312 0.533,-0.297C0.518,-0.282 0.5,-0.268 0.479,-0.255L0.595,-0.048L0.375,-0.005L0.3,-0.213L0.24,-0.211L0.231,-0.008L0.021,-0.008C0.023,-0.082 0.024,-0.156 0.026,-0.229C0.027,-0.303 0.029,-0.377 0.031,-0.451C0.031,-0.489 0.032,-0.526 0.033,-0.563C0.033,-0.599 0.035,-0.636 0.037,-0.674C0.059,-0.682 0.082,-0.689 0.104,-0.695C0.126,-0.7 0.148,-0.705 0.171,-0.708C0.193,-0.711 0.216,-0.713 0.239,-0.714C0.261,-0.715 0.285,-0.716 0.309,-0.716C0.346,-0.716 0.382,-0.711 0.417,-0.7C0.451,-0.69 0.482,-0.675 0.509,-0.654C0.535,-0.634 0.557,-0.608 0.573,-0.578C0.589,-0.547 0.597,-0.511 0.597,-0.471ZM0.378,-0.455C0.378,-0.469 0.377,-0.481 0.373,-0.493C0.369,-0.504 0.364,-0.514 0.356,-0.522C0.349,-0.531 0.34,-0.537 0.329,-0.542C0.318,-0.546 0.305,-0.549 0.291,-0.549C0.284,-0.549 0.278,-0.548 0.271,-0.548C0.265,-0.547 0.259,-0.546 0.253,-0.544L0.246,-0.362L0.257,-0.362C0.271,-0.362 0.286,-0.364 0.3,-0.368C0.315,-0.371 0.328,-0.377 0.339,-0.384C0.351,-0.392 0.36,-0.401 0.367,-0.413C0.375,-0.425 0.378,-0.439 0.378,-0.455Z" style="fill:rgb(184,35,5);fill-rule:nonzero;"/>
                </g>
                <g transform="matrix(30.3239,0,0,30.3239,117.303,453.356)">
                    <path d="M0.578,-0.388C0.578,-0.342 0.572,-0.301 0.561,-0.264C0.549,-0.228 0.532,-0.195 0.511,-0.167C0.49,-0.138 0.465,-0.114 0.437,-0.093C0.408,-0.073 0.376,-0.056 0.341,-0.043C0.307,-0.03 0.27,-0.02 0.231,-0.013C0.192,-0.007 0.152,-0.004 0.111,-0.004C0.096,-0.004 0.081,-0.004 0.066,-0.005C0.052,-0.006 0.037,-0.007 0.021,-0.009L0.035,-0.664C0.071,-0.675 0.108,-0.684 0.146,-0.688C0.184,-0.693 0.221,-0.695 0.259,-0.695C0.305,-0.695 0.348,-0.688 0.387,-0.674C0.426,-0.66 0.46,-0.64 0.488,-0.614C0.517,-0.587 0.539,-0.555 0.554,-0.517C0.57,-0.479 0.578,-0.436 0.578,-0.388ZM0.378,-0.356C0.378,-0.374 0.376,-0.391 0.372,-0.407C0.368,-0.424 0.362,-0.438 0.352,-0.45C0.343,-0.463 0.331,-0.473 0.317,-0.481C0.303,-0.488 0.285,-0.493 0.266,-0.493L0.246,-0.19C0.266,-0.193 0.283,-0.2 0.299,-0.21C0.315,-0.22 0.329,-0.232 0.341,-0.246C0.352,-0.261 0.361,-0.277 0.367,-0.295C0.374,-0.312 0.377,-0.331 0.378,-0.35L0.378,-0.356Z" style="fill:rgb(184,35,5);fill-rule:nonzero;"/>
                </g>
                <g transform="matrix(30.3239,0,0,30.3239,148.613,453.356)">
                    <path d="M0.487,-0.704C0.485,-0.674 0.484,-0.643 0.482,-0.613C0.48,-0.583 0.478,-0.553 0.476,-0.522L0.269,-0.512L0.264,-0.45L0.409,-0.45L0.398,-0.299L0.252,-0.294L0.247,-0.223L0.454,-0.223C0.452,-0.187 0.45,-0.151 0.448,-0.116C0.446,-0.081 0.444,-0.045 0.442,-0.01L0.021,-0L0.037,-0.704L0.487,-0.704Z" style="fill:rgb(184,35,5);fill-rule:nonzero;"/>
                </g>
                <g transform="matrix(30.3239,0,0,30.3239,176.784,453.356)">
                    <path d="M0.641,-0.042L0.398,-0.011L0.369,-0.121L0.258,-0.121L0.233,-0.011L-0.016,-0.035L0.179,-0.686L0.45,-0.699L0.641,-0.042ZM0.352,-0.271L0.314,-0.44L0.278,-0.271L0.352,-0.271Z" style="fill:rgb(184,35,5);fill-rule:nonzero;"/>
                </g>
                <g transform="matrix(30.3239,0,0,30.3239,208.923,453.356)">
                    <path d="M0.609,-0.543C0.609,-0.519 0.608,-0.492 0.605,-0.463C0.603,-0.434 0.599,-0.404 0.594,-0.374C0.589,-0.343 0.582,-0.311 0.574,-0.28C0.566,-0.248 0.555,-0.217 0.543,-0.188C0.531,-0.159 0.516,-0.131 0.5,-0.106C0.483,-0.08 0.464,-0.058 0.443,-0.039C0.422,-0.02 0.398,-0.005 0.372,0.006C0.345,0.017 0.316,0.022 0.284,0.022C0.246,0.022 0.213,0.016 0.185,0.004C0.157,-0.008 0.134,-0.024 0.114,-0.045C0.094,-0.066 0.078,-0.09 0.065,-0.117C0.052,-0.145 0.042,-0.174 0.035,-0.205C0.028,-0.236 0.023,-0.267 0.02,-0.299C0.017,-0.331 0.016,-0.362 0.016,-0.392C0.016,-0.437 0.018,-0.483 0.023,-0.528C0.028,-0.573 0.034,-0.619 0.042,-0.664L0.271,-0.655C0.262,-0.604 0.255,-0.553 0.248,-0.501C0.242,-0.45 0.239,-0.398 0.239,-0.346C0.239,-0.34 0.239,-0.332 0.24,-0.321C0.24,-0.31 0.241,-0.298 0.242,-0.284C0.243,-0.271 0.245,-0.257 0.248,-0.243C0.25,-0.229 0.254,-0.216 0.258,-0.204C0.262,-0.192 0.267,-0.183 0.273,-0.175C0.279,-0.168 0.286,-0.164 0.294,-0.164C0.304,-0.164 0.312,-0.169 0.32,-0.177C0.327,-0.186 0.334,-0.198 0.34,-0.213C0.345,-0.228 0.35,-0.246 0.354,-0.265C0.359,-0.285 0.362,-0.305 0.365,-0.326C0.368,-0.347 0.371,-0.368 0.372,-0.39C0.374,-0.411 0.376,-0.431 0.377,-0.449C0.378,-0.467 0.379,-0.483 0.379,-0.497C0.379,-0.511 0.379,-0.521 0.379,-0.528C0.379,-0.554 0.379,-0.579 0.378,-0.604C0.377,-0.629 0.376,-0.655 0.375,-0.68L0.603,-0.68C0.607,-0.635 0.609,-0.589 0.609,-0.543Z" style="fill:rgb(184,35,5);fill-rule:nonzero;"/>
                </g>
                <g transform="matrix(30.3239,0,0,30.3239,241.462,453.356)">
                    <path d="M0.613,-0.685L0.422,-0.354L0.584,-0.065L0.38,-0.002L0.292,-0.201L0.189,-0.001L-0.022,-0.077L0.158,-0.36L-0.006,-0.658L0.217,-0.712L0.297,-0.516L0.382,-0.712L0.613,-0.685Z" style="fill:rgb(184,35,5);fill-rule:nonzero;"/>
                </g>
                <g transform="matrix(30.3239,0,0,30.3239,271.958,453.356)">
                    <path d="M0.034,-0.27L0.032,-0.416L0.347,-0.431L0.349,-0.264L0.034,-0.27Z" style="fill:rgb(24,24,24);fill-rule:nonzero;"/>
                </g>
                <g transform="matrix(30.3239,0,0,30.3239,297.197,453.356)">
                    <path d="M0.492,-0.46C0.492,-0.434 0.487,-0.409 0.478,-0.385C0.469,-0.362 0.456,-0.34 0.441,-0.319C0.425,-0.298 0.408,-0.279 0.388,-0.262C0.368,-0.245 0.348,-0.229 0.328,-0.215L0.482,-0.215L0.471,-0.012L0.014,-0.027L0.014,-0.205C0.031,-0.211 0.049,-0.218 0.068,-0.226C0.087,-0.235 0.106,-0.244 0.124,-0.255C0.143,-0.266 0.16,-0.278 0.177,-0.291C0.193,-0.304 0.207,-0.319 0.22,-0.335C0.233,-0.351 0.242,-0.368 0.25,-0.386C0.257,-0.405 0.261,-0.425 0.261,-0.446C0.261,-0.459 0.259,-0.47 0.254,-0.479C0.25,-0.488 0.244,-0.496 0.236,-0.503C0.228,-0.509 0.219,-0.514 0.209,-0.517C0.198,-0.52 0.188,-0.521 0.176,-0.521C0.166,-0.521 0.156,-0.52 0.146,-0.518C0.136,-0.516 0.126,-0.513 0.116,-0.509C0.106,-0.505 0.097,-0.501 0.089,-0.495C0.08,-0.489 0.072,-0.483 0.065,-0.476L0.022,-0.667C0.035,-0.679 0.048,-0.689 0.064,-0.697C0.08,-0.705 0.096,-0.712 0.113,-0.717C0.131,-0.722 0.148,-0.726 0.166,-0.728C0.184,-0.73 0.201,-0.731 0.219,-0.731C0.257,-0.731 0.293,-0.725 0.326,-0.711C0.359,-0.697 0.388,-0.678 0.413,-0.654C0.437,-0.629 0.457,-0.601 0.471,-0.567C0.485,-0.534 0.492,-0.498 0.492,-0.46Z" style="fill:rgb(37,141,51);fill-rule:nonzero;"/>
                </g>
                <g transform="matrix(30.3239,0,0,30.3239,326.286,453.356)">
                    <path d="M0.619,-0.35C0.619,-0.321 0.615,-0.292 0.609,-0.264C0.603,-0.236 0.594,-0.209 0.582,-0.183C0.569,-0.157 0.555,-0.132 0.537,-0.11C0.52,-0.087 0.5,-0.068 0.478,-0.051C0.455,-0.035 0.43,-0.022 0.404,-0.012C0.377,-0.003 0.348,0.002 0.317,0.002C0.286,0.002 0.257,-0.003 0.229,-0.012C0.202,-0.022 0.178,-0.035 0.156,-0.051C0.133,-0.068 0.113,-0.087 0.096,-0.11C0.078,-0.132 0.063,-0.157 0.051,-0.183C0.039,-0.209 0.03,-0.236 0.024,-0.264C0.017,-0.293 0.014,-0.321 0.014,-0.35C0.014,-0.378 0.017,-0.406 0.024,-0.435C0.03,-0.464 0.039,-0.491 0.051,-0.517C0.063,-0.543 0.078,-0.567 0.096,-0.59C0.113,-0.613 0.133,-0.632 0.156,-0.649C0.178,-0.666 0.203,-0.679 0.23,-0.688C0.257,-0.697 0.286,-0.702 0.317,-0.702C0.348,-0.702 0.377,-0.697 0.404,-0.688C0.43,-0.679 0.455,-0.666 0.478,-0.649C0.5,-0.632 0.52,-0.613 0.537,-0.59C0.555,-0.567 0.569,-0.543 0.582,-0.517C0.594,-0.491 0.603,-0.464 0.609,-0.435C0.615,-0.406 0.619,-0.378 0.619,-0.35ZM0.413,-0.335C0.413,-0.349 0.411,-0.365 0.407,-0.383C0.403,-0.4 0.397,-0.417 0.389,-0.432C0.381,-0.447 0.37,-0.46 0.357,-0.471C0.345,-0.481 0.33,-0.486 0.312,-0.486C0.294,-0.486 0.279,-0.481 0.266,-0.471C0.253,-0.46 0.243,-0.447 0.235,-0.432C0.226,-0.417 0.22,-0.4 0.216,-0.383C0.212,-0.365 0.21,-0.349 0.21,-0.335C0.21,-0.321 0.212,-0.305 0.216,-0.287C0.22,-0.27 0.226,-0.253 0.235,-0.238C0.243,-0.222 0.253,-0.21 0.266,-0.199C0.279,-0.189 0.294,-0.184 0.312,-0.184C0.33,-0.184 0.345,-0.189 0.357,-0.199C0.37,-0.21 0.381,-0.222 0.389,-0.238C0.397,-0.253 0.403,-0.27 0.407,-0.287C0.411,-0.305 0.413,-0.321 0.413,-0.335Z" style="fill:rgb(37,141,51);fill-rule:nonzero;"/>
                </g>
                <g transform="matrix(30.3239,0,0,30.3239,359.122,453.356)">
                    <path d="M0.492,-0.46C0.492,-0.434 0.487,-0.409 0.478,-0.385C0.469,-0.362 0.456,-0.34 0.441,-0.319C0.425,-0.298 0.408,-0.279 0.388,-0.262C0.368,-0.245 0.348,-0.229 0.328,-0.215L0.482,-0.215L0.471,-0.012L0.014,-0.027L0.014,-0.205C0.031,-0.211 0.049,-0.218 0.068,-0.226C0.087,-0.235 0.106,-0.244 0.124,-0.255C0.143,-0.266 0.16,-0.278 0.177,-0.291C0.193,-0.304 0.207,-0.319 0.22,-0.335C0.233,-0.351 0.242,-0.368 0.25,-0.386C0.257,-0.405 0.261,-0.425 0.261,-0.446C0.261,-0.459 0.259,-0.47 0.254,-0.479C0.25,-0.488 0.244,-0.496 0.236,-0.503C0.228,-0.509 0.219,-0.514 0.209,-0.517C0.198,-0.52 0.188,-0.521 0.176,-0.521C0.166,-0.521 0.156,-0.52 0.146,-0.518C0.136,-0.516 0.126,-0.513 0.116,-0.509C0.106,-0.505 0.097,-0.501 0.089,-0.495C0.08,-0.489 0.072,-0.483 0.065,-0.476L0.022,-0.667C0.035,-0.679 0.048,-0.689 0.064,-0.697C0.08,-0.705 0.096,-0.712 0.113,-0.717C0.131,-0.722 0.148,-0.726 0.166,-0.728C0.184,-0.73 0.201,-0.731 0.219,-0.731C0.257,-0.731 0.293,-0.725 0.326,-0.711C0.359,-0.697 0.388,-0.678 0.413,-0.654C0.437,-0.629 0.457,-0.601 0.471,-0.567C0.485,-0.534 0.492,-0.498 0.492,-0.46Z" style="fill:rgb(37,141,51);fill-rule:nonzero;"/>
                </g>
                <g transform="matrix(30.3239,0,0,30.3239,388.211,453.356)">
                    <path d="M0.492,-0.46C0.492,-0.434 0.487,-0.409 0.478,-0.385C0.469,-0.362 0.456,-0.34 0.441,-0.319C0.425,-0.298 0.408,-0.279 0.388,-0.262C0.368,-0.245 0.348,-0.229 0.328,-0.215L0.482,-0.215L0.471,-0.012L0.014,-0.027L0.014,-0.205C0.031,-0.211 0.049,-0.218 0.068,-0.226C0.087,-0.235 0.106,-0.244 0.124,-0.255C0.143,-0.266 0.16,-0.278 0.177,-0.291C0.193,-0.304 0.207,-0.319 0.22,-0.335C0.233,-0.351 0.242,-0.368 0.25,-0.386C0.257,-0.405 0.261,-0.425 0.261,-0.446C0.261,-0.459 0.259,-0.47 0.254,-0.479C0.25,-0.488 0.244,-0.496 0.236,-0.503C0.228,-0.509 0.219,-0.514 0.209,-0.517C0.198,-0.52 0.188,-0.521 0.176,-0.521C0.166,-0.521 0.156,-0.52 0.146,-0.518C0.136,-0.516 0.126,-0.513 0.116,-0.509C0.106,-0.505 0.097,-0.501 0.089,-0.495C0.08,-0.489 0.072,-0.483 0.065,-0.476L0.022,-0.667C0.035,-0.679 0.048,-0.689 0.064,-0.697C0.08,-0.705 0.096,-0.712 0.113,-0.717C0.131,-0.722 0.148,-0.726 0.166,-0.728C0.184,-0.73 0.201,-0.731 0.219,-0.731C0.257,-0.731 0.293,-0.725 0.326,-0.711C0.359,-0.697 0.388,-0.678 0.413,-0.654C0.437,-0.629 0.457,-0.601 0.471,-0.567C0.485,-0.534 0.492,-0.498 0.492,-0.46Z" style="fill:rgb(37,141,51);fill-rule:nonzero;"/>
                </g>
            </g>
        </g>
    </g>
</svg>
