<?xml version="1.0" encoding="UTF-8" standalone="no"?>
<!DOCTYPE svg PUBLIC "-//W3C//DTD SVG 1.1//EN" "http://www.w3.org/Graphics/SVG/1.1/DTD/svg11.dtd">
<svg width="100%" height="100%" viewBox="0 0 196 114" version="1.1" xmlns="http://www.w3.org/2000/svg" xmlns:xlink="http://www.w3.org/1999/xlink" xml:space="preserve" xmlns:serif="http://www.serif.com/" style="fill-rule:evenodd;clip-rule:evenodd;stroke-linejoin:round;stroke-miterlimit:2;">
  <g transform="matrix(1,0,0,1,-3839.15,-4058.64)">
    <g id="Plan-de-travail11" serif:id="Plan de travail11" transform="matrix(0.190291,0,0,0.115971,3589.11,3775.32)">
      <rect x="1314" y="2443" width="1030" height="983" style="fill:none;"/>
      <clipPath id="_clip1">
        <rect x="1314" y="2443" width="1030" height="983"/>
      </clipPath>
      <g clip-path="url(#_clip1)">
        <g transform="matrix(1.2984,0,0,2.19135,928.705,-2582.22)">
          <path d="M976,2519C976,2394.82 872.301,2294 744.573,2294L529.427,2294C401.699,2294 298,2394.82 298,2519C298,2643.18 401.699,2716.45 529.427,2716.45L744.573,2716.45C872.301,2716.45 976,2643.18 976,2519Z" style="fill:rgb(238,238,238);"/>
        </g>
        <g transform="matrix(1.07469,0,0,1.4286,1071.22,-586.751)">
          <path d="M976,2519C976,2325.8 824.493,2267.77 640.604,2267.77C432.705,2267.77 298,2321.66 298,2519C298,2698.4 448.268,2759.18 638.094,2759.18C857.658,2759.18 976,2720.48 976,2519Z" style="fill:rgb(33,40,55);"/>
        </g>
        <g transform="matrix(1.2229,0,0,2.28708,961.275,-2823.75)">
          <ellipse cx="527" cy="2564" rx="53" ry="64" style="fill:rgb(249,249,249);"/>
        </g>
        <g transform="matrix(1.2229,0,0,2.28708,1276.28,-2821.47)">
          <ellipse cx="527" cy="2564" rx="53" ry="64" style="fill:rgb(249,249,249);"/>
        </g>
        <g transform="matrix(2.06268,0,0,3.38454,608.598,-7017.42)">
          <circle cx="471.5" cy="3039.5" r="32.5" style="fill:rgb(27,34,47);"/>
        </g>
        <g transform="matrix(0.289266,0.4563,-0.418943,0.715054,5415.47,-8953.85)">
          <path d="M6732.55,12515.1C6732.55,12508.9 6724.87,12503.8 6715.41,12503.8L6681.14,12503.8C6671.68,12503.8 6664,12508.9 6664,12515.1L6664,13016C6664,13022.3 6671.68,13027.3 6681.14,13027.3L6715.41,13027.3C6724.87,13027.3 6732.55,13022.3 6732.55,13016L6732.55,12515.1Z" style="fill:rgb(43,43,43);"/>
        </g>
        <g transform="matrix(0.392158,0.618607,-0.094007,0.160452,663.569,-3106.05)">
          <path d="M6732.55,12572.5C6732.55,12534.6 6724.87,12503.8 6715.41,12503.8L6681.14,12503.8C6671.68,12503.8 6664,12534.6 6664,12572.5L6664,12958.6C6664,12996.6 6671.68,13027.3 6681.14,13027.3L6715.41,13027.3C6724.87,13027.3 6732.55,12996.6 6732.55,12958.6L6732.55,12572.5Z" style="fill:rgb(150,150,150);"/>
        </g>
        <g transform="matrix(0.334516,0.591341,-0.443053,0.674795,5411.55,-9324.27)">
          <path d="M6681.19,12030.9C6811.69,12030.9 6917.63,12136.8 6917.63,12267.3C6917.63,12397.8 6811.69,12503.8 6681.19,12503.8C6550.7,12503.8 6444.76,12397.8 6444.76,12267.3C6444.76,12136.8 6550.7,12030.9 6681.19,12030.9ZM6681.19,12065C6792.86,12065 6883.53,12155.7 6883.53,12267.3C6883.53,12379 6792.86,12469.7 6681.19,12469.7C6569.53,12469.7 6478.86,12379 6478.86,12267.3C6478.86,12155.7 6569.53,12065 6681.19,12065Z" style="fill:rgb(214,214,214);"/>
        </g>
        <g transform="matrix(2.06268,0,0,3.38454,999.854,-7031.66)">
          <circle cx="471.5" cy="3039.5" r="32.5" style="fill:rgb(27,34,47);"/>
        </g>
      </g>
    </g>
  </g>
</svg>
