<?xml version="1.0" encoding="UTF-8" standalone="no"?>
<!DOCTYPE svg PUBLIC "-//W3C//DTD SVG 1.1//EN" "http://www.w3.org/Graphics/SVG/1.1/DTD/svg11.dtd">
<svg width="100%" height="100%" viewBox="0 0 90 100" version="1.1" xmlns="http://www.w3.org/2000/svg" xmlns:xlink="http://www.w3.org/1999/xlink" xml:space="preserve" xmlns:serif="http://www.serif.com/" style="fill-rule:evenodd;clip-rule:evenodd;stroke-linejoin:round;stroke-miterlimit:2;">
    <g transform="matrix(1,0,0,1,-2188,-3030)">
        <g id="Plan-de-travail24" serif:id="Plan de travail24" transform="matrix(1.18421,0,0,1.31579,2145.37,220.789)">
            <rect x="36" y="2135" width="76" height="76" style="fill:none;"/>
            <g transform="matrix(1,0,0,1,2.57597,4.56)">
                <g transform="matrix(1.38257,0,0,0.515226,-2069.24,1658.3)">
                    <g transform="matrix(0.0727883,0,0,0.180811,1501.86,556.394)">
                        <path d="M976,2519C976,2394.82 872.301,2294 744.573,2294L529.427,2294C401.699,2294 298,2394.82 298,2519C298,2643.18 401.699,2744 529.427,2744L744.573,2744C872.301,2744 976,2643.18 976,2519Z" style="fill:rgb(238,238,238);"/>
                    </g>
                    <g transform="matrix(0.0602468,0,0,0.117875,1509.85,721.042)">
                        <path d="M976,2519C976,2325.8 824.493,2267.77 640.604,2267.77C432.705,2267.77 298,2321.66 298,2519C298,2698.4 448.268,2759.18 638.094,2759.18C857.658,2759.18 976,2720.48 976,2519Z" style="fill:rgb(33,40,55);"/>
                    </g>
                    <g transform="matrix(0.0685557,0,0,0.18871,1503.69,536.464)">
                        <ellipse cx="527" cy="2564" rx="53" ry="64" style="fill:rgb(249,249,249);"/>
                    </g>
                    <g transform="matrix(0.0685557,0,0,0.18871,1521.35,536.653)">
                        <ellipse cx="527" cy="2564" rx="53" ry="64" style="fill:rgb(249,249,249);"/>
                    </g>
                </g>
                <g transform="matrix(1.53928,0,0,1.35812,-8720.59,-8299.83)">
                    <g transform="matrix(0.994007,-0.221651,0.57528,2.68438,-4467.57,-11738.5)">
                        <ellipse cx="5772" cy="7712.5" rx="2" ry="0.5" style="fill:rgb(32,122,115);"/>
                    </g>
                    <g transform="matrix(0.187846,0,0,0.191612,4898.78,7285.84)">
                        <g transform="matrix(0.997738,-0.0672263,0.0672263,0.997738,70.1223,329.757)">
                            <path d="M4205,2137C4145.9,2124.46 4033.76,2127.71 4037,2129.5L4037,2118C4037,2071.64 4074.64,2034 4121,2034C4167.36,2034 4205,2071.64 4205,2118L4205,2137Z" style="fill:rgb(40,141,134);"/>
                        </g>
                        <g transform="matrix(0.999986,0.00528263,-0.00528263,0.999986,222.542,28.3158)">
                            <path d="M4083,2128C4083,2128 4106.44,2138.77 4119,2141C4134,2143.67 4155.5,2144.5 4173,2144C4190.11,2143.51 4213.67,2140.17 4224,2138C4228.25,2137.11 4236.83,2133.83 4235,2131C4233.17,2128.17 4219.83,2123.17 4213,2121C4206.89,2119.06 4200.41,2118.26 4194,2118C4181.83,2117.5 4157.93,2116.39 4140,2118C4121.5,2119.67 4083,2128 4083,2128Z" style="fill:rgb(46,165,151);"/>
                        </g>
                    </g>
                </g>
                <g transform="matrix(1.26036,0,0,1.13433,-2227.3,-856.199)">
                    <g transform="matrix(0.13856,0,0,0.13856,1746,2272.11)">
                        <circle cx="471.5" cy="3039.5" r="32.5" style="fill:rgb(27,34,47);"/>
                    </g>
                    <g transform="matrix(0.13856,0,0,0.13856,1770.83,2272.54)">
                        <circle cx="471.5" cy="3039.5" r="32.5" style="fill:rgb(27,34,47);"/>
                    </g>
                </g>
            </g>
        </g>
    </g>
</svg>
