<?xml version="1.0" encoding="UTF-8" standalone="no"?>
<!DOCTYPE svg PUBLIC "-//W3C//DTD SVG 1.1//EN" "http://www.w3.org/Graphics/SVG/1.1/DTD/svg11.dtd">
<svg width="100%" height="100%" viewBox="0 0 90 80" version="1.1" xmlns="http://www.w3.org/2000/svg" xmlns:xlink="http://www.w3.org/1999/xlink" xml:space="preserve" xmlns:serif="http://www.serif.com/" style="fill-rule:evenodd;clip-rule:evenodd;stroke-linejoin:round;stroke-miterlimit:2;">
    <g transform="matrix(1,0,0,1,-2092,-3030)">
        <g id="Plan-de-travail24" serif:id="Plan de travail24" transform="matrix(1.18421,0,0,1.05263,2049.37,782.632)">
            <rect x="36" y="2135" width="76" height="76" style="fill:none;"/>
            <g transform="matrix(0.964762,0,0,0.964762,3.82964,77.4141)">
                <g transform="matrix(1.45677,0,0,0.678597,-2182.67,1477.74)">
                    <g transform="matrix(0.0727883,0,0,0.180811,1501.86,556.394)">
                        <path d="M976,2519C976,2394.82 872.301,2294 744.573,2294L529.427,2294C401.699,2294 298,2394.82 298,2519C298,2643.18 401.699,2744 529.427,2744L744.573,2744C872.301,2744 976,2643.18 976,2519Z" style="fill:rgb(238,238,238);"/>
                    </g>
                    <g transform="matrix(0.0602468,0,0,0.117875,1509.85,721.042)">
                        <path d="M976,2519C976,2325.8 824.493,2267.77 640.604,2267.77C432.705,2267.77 298,2321.66 298,2519C298,2698.4 448.268,2759.18 638.094,2759.18C857.658,2759.18 976,2720.48 976,2519Z" style="fill:rgb(33,40,55);"/>
                    </g>
                    <g transform="matrix(0.0685557,0,0,0.18871,1503.69,536.464)">
                        <ellipse cx="527" cy="2564" rx="53" ry="64" style="fill:rgb(249,249,249);"/>
                    </g>
                    <g transform="matrix(0.0685557,0,0,0.18871,1521.35,536.653)">
                        <ellipse cx="527" cy="2564" rx="53" ry="64" style="fill:rgb(249,249,249);"/>
                    </g>
                </g>
                <g transform="matrix(1.06829,0,0,2.19346,-1004.76,1031.71)">
                    <g transform="matrix(1.1484,0.0332323,-0.0606522,0.629227,-151.559,16.9815)">
                        <rect x="1049" y="753" width="20" height="14" style="fill:rgb(243,241,241);"/>
                    </g>
                    <g transform="matrix(1.14681,-0.0468666,0.085536,0.628359,-261.984,102.466)">
                        <rect x="1049" y="753" width="20" height="14" style="fill:rgb(232,229,229);"/>
                    </g>
                    <g transform="matrix(1.15,0,0,0.630104,-200.35,52.6039)">
                        <rect x="1049" y="753" width="20" height="14" style="fill:rgb(243,241,241);"/>
                    </g>
                    <g transform="matrix(1,0,0,0.547917,-42,110.162)">
                        <path d="M1073,761.618C1073,760.725 1072.28,760 1071.38,760L1061.69,760L1059.47,762.4L1050.62,762C1049.72,762 1049,762.725 1049,763.618L1049,776.382C1049,777.275 1049.72,778 1050.62,778L1071.38,778C1072.28,778 1073,777.275 1073,776.382L1073,761.618Z" style="fill:rgb(255,203,106);"/>
                    </g>
                </g>
                <g transform="matrix(1.32801,0,0,1.49401,-2347.89,-1829.59)">
                    <g transform="matrix(0.13856,0,0,0.13856,1746,2272.11)">
                        <circle cx="471.5" cy="3039.5" r="32.5" style="fill:rgb(27,34,47);"/>
                    </g>
                    <g transform="matrix(0.13856,0,0,0.13856,1772.83,2273.54)">
                        <circle cx="471.5" cy="3039.5" r="32.5" style="fill:rgb(27,34,47);"/>
                    </g>
                </g>
            </g>
        </g>
    </g>
</svg>
