<?xml version="1.0" encoding="UTF-8" standalone="no"?>
<!DOCTYPE svg PUBLIC "-//W3C//DTD SVG 1.1//EN" "http://www.w3.org/Graphics/SVG/1.1/DTD/svg11.dtd">
<svg width="100%" height="100%" viewBox="0 0 90 100" version="1.1" xmlns="http://www.w3.org/2000/svg" xmlns:xlink="http://www.w3.org/1999/xlink" xml:space="preserve" xmlns:serif="http://www.serif.com/" style="fill-rule:evenodd;clip-rule:evenodd;stroke-linejoin:round;stroke-miterlimit:2;">
    <g transform="matrix(1,0,0,1,-2281,-3030)">
        <g id="Plan-de-travail24" serif:id="Plan de travail24" transform="matrix(1.18421,0,0,1.31579,2238.37,220.789)">
            <rect x="36" y="2135" width="76" height="76" style="fill:none;"/>
            <g transform="matrix(1,0,0,1,2.53333,0.76)">
                <g transform="matrix(1.38257,0,0,0.515226,-2069.24,1643.56)">
                    <g transform="matrix(0.0727883,0,0,0.180811,1501.86,556.394)">
                        <path d="M976,2519C976,2394.82 872.301,2294 744.573,2294L529.427,2294C401.699,2294 298,2394.82 298,2519C298,2643.18 401.699,2744 529.427,2744L744.573,2744C872.301,2744 976,2643.18 976,2519Z" style="fill:rgb(238,238,238);"/>
                    </g>
                    <g transform="matrix(0.0602468,0,0,0.117875,1509.85,721.042)">
                        <path d="M976,2519C976,2325.8 824.493,2267.77 640.604,2267.77C432.705,2267.77 298,2321.66 298,2519C298,2698.4 448.268,2759.18 638.094,2759.18C857.658,2759.18 976,2720.48 976,2519Z" style="fill:rgb(33,40,55);"/>
                    </g>
                    <g transform="matrix(0.0685557,0,0,0.18871,1504.3,536.464)">
                        <ellipse cx="527" cy="2564" rx="53" ry="64" style="fill:rgb(249,249,249);"/>
                    </g>
                    <g transform="matrix(0.0685557,0,0,0.18871,1520.74,536.653)">
                        <ellipse cx="527" cy="2564" rx="53" ry="64" style="fill:rgb(249,249,249);"/>
                    </g>
                </g>
                <g transform="matrix(-0.433171,-0.351643,0.303064,-0.302397,119.567,2305.05)">
                    <g transform="matrix(1.86792,0,0,1.86792,-34.566,-61.9811)">
                        <path d="M117.535,108L107.071,100.859L107.071,119.859L117,127L117.535,108Z" style="fill:rgb(223,215,217);"/>
                    </g>
                    <g transform="matrix(1.86792,0,0,1.86792,-34.566,-61.9811)">
                        <path d="M117,108L106.535,101.394L106.535,120.394L117,127L117,108Z" style="fill:rgb(207,200,201);"/>
                    </g>
                    <g transform="matrix(1.86792,0,0,1.86792,-34.566,-61.9811)">
                        <path d="M117,108L105.465,101.929L106.535,120.394L117,127L117,108Z" style="fill:rgb(223,215,217);"/>
                    </g>
                    <g transform="matrix(1.86792,0,0,1.86792,-37.5849,-61.9811)">
                        <path d="M117,108L106,103L106,122L117,127L117,108Z" style="fill:rgb(21,27,60);"/>
                    </g>
                    <g transform="matrix(-1.86792,0,0,1.86792,406.981,-61.9811)">
                        <path d="M118.606,108C115.103,105.508 110.731,102.555 108.141,100.555L108.141,119.859L118.606,127L118.606,108Z" style="fill:rgb(223,215,217);"/>
                    </g>
                    <g transform="matrix(-1.86792,0,0,1.86792,406.981,-61.9811)">
                        <path d="M117,108L107.071,100.859L107.071,119.859L117,127L117,108Z" style="fill:rgb(207,200,201);"/>
                    </g>
                    <g transform="matrix(-1.86792,0,0,1.86792,406.981,-61.9811)">
                        <path d="M117,108L106.535,101.394L106.535,120.394L117,127L117,108Z" style="fill:rgb(223,215,217);"/>
                    </g>
                    <g transform="matrix(-1.86792,0,0,1.86792,406.981,-61.9811)">
                        <path d="M117,108L106,103L106,122L117,127L117,108Z" style="fill:rgb(45,55,94);"/>
                    </g>
                    <g transform="matrix(0.0631198,-0.022525,0.00313353,0.0702604,-178.958,-997.884)">
                        <g transform="matrix(0.248402,0,0,0.247634,5049.96,17923)">
                            <path d="M275.253,168.794L278.106,49L188.256,290.014L344.423,181.629L430.708,267.196L342.284,328.519L318.039,308.553L302.351,363.459L340.145,394.12L512,275.04L351.554,113.175L275.253,168.794Z" style="fill:rgb(76,81,191);fill-rule:nonzero;"/>
                        </g>
                        <g transform="matrix(0.248402,0,0,0.247634,5049.96,17923)">
                            <path d="M170.429,118.88L215.354,155.959L195.387,205.873L167.577,184.481L79.866,245.091L166.15,331.371L316.613,230.117L254.574,464L242.451,342.78L159.733,398.399L0,237.96L170.429,118.88Z" style="fill:rgb(247,250,252);fill-rule:nonzero;"/>
                        </g>
                    </g>
                    <g transform="matrix(-1.86792,0,0,1.86792,406.981,-61.9811)">
                        <rect x="117" y="108" width="4" height="19" style="fill:rgb(37,45,81);"/>
                    </g>
                    <g transform="matrix(1,0,0,1,0,3)">
                        <path d="M180.962,136.755L160.415,127.415L162.283,127.415L181.709,136.245L187.687,136.245L207.113,127.415L208.981,127.415L188.434,136.755L180.962,136.755Z" style="fill:rgb(75,89,128);"/>
                    </g>
                    <g transform="matrix(-1.86792,0,0,1.86792,406.981,-61.9811)">
                        <path d="M117,108L121,108L117,108Z" style="fill:rgb(230,209,109);"/>
                    </g>
                </g>
                <g transform="matrix(1.26036,0,0,1.13433,-2226.04,-867.542)">
                    <g transform="matrix(0.13856,0,0,0.13856,1746,2272.11)">
                        <circle cx="471.5" cy="3039.5" r="32.5" style="fill:rgb(27,34,47);"/>
                    </g>
                    <g transform="matrix(0.13856,0,0,0.13856,1772.83,2273.54)">
                        <circle cx="471.5" cy="3039.5" r="32.5" style="fill:rgb(27,34,47);"/>
                    </g>
                </g>
            </g>
        </g>
    </g>
</svg>
