<?xml version="1.0" encoding="UTF-8" standalone="no"?>
<!DOCTYPE svg PUBLIC "-//W3C//DTD SVG 1.1//EN" "http://www.w3.org/Graphics/SVG/1.1/DTD/svg11.dtd">
<svg width="100%" height="100%" viewBox="0 0 168 185" version="1.1" xmlns="http://www.w3.org/2000/svg" xmlns:xlink="http://www.w3.org/1999/xlink" xml:space="preserve" xmlns:serif="http://www.serif.com/" style="fill-rule:evenodd;clip-rule:evenodd;stroke-linecap:round;stroke-linejoin:round;stroke-miterlimit:1.5;">
  <g transform="matrix(1,0,0,1,-3645.46,-4116.64)">
    <g id="Plan-de-travail11" serif:id="Plan de travail11" transform="matrix(0.163107,0,0,0.188199,3431.14,3656.87)">
      <rect x="1314" y="2443" width="1030" height="983" style="fill:none;"/>
      <g transform="matrix(20.7338,0,0,7.44052,-30271.2,-4408.86)">
        <g transform="matrix(0.0727883,0,0,0.180811,1501.86,556.394)">
          <path d="M976,2519C976,2394.82 872.301,2294 744.573,2294L529.427,2294C401.699,2294 298,2394.82 298,2519C298,2643.18 401.699,2716.35 529.427,2716.35L744.573,2716.35C872.301,2716.35 976,2643.18 976,2519Z" style="fill:rgb(238,238,238);"/>
        </g>
        <g transform="matrix(0.0602468,0,0,0.117875,1509.85,721.042)">
          <path d="M976,2519C976,2325.8 824.493,2267.77 640.604,2267.77C432.705,2267.77 302.908,2321.66 302.908,2519C302.908,2620.65 346.244,2684.22 422.593,2720.22C480.989,2747.76 555.827,2759.18 638.094,2759.18C742.194,2759.18 823.54,2750.48 880.308,2719.86C943.273,2685.89 976,2624.95 976,2519Z" style="fill:rgb(33,40,55);"/>
        </g>
        <g transform="matrix(0.0685557,0,0,0.18871,1503.98,536.464)">
          <ellipse cx="527" cy="2564" rx="53" ry="64" style="fill:rgb(249,249,249);"/>
        </g>
        <g transform="matrix(0.0685557,0,0,0.18871,1521.35,536.653)">
          <ellipse cx="527" cy="2564" rx="53" ry="64" style="fill:rgb(249,249,249);"/>
        </g>
      </g>
      <g transform="matrix(1.27422,0,0,1.51863,-5018.67,839.073)">
        <g>
          <g transform="matrix(0.815006,-0.000113196,0.000430575,1.63934,-41269.4,-48995.9)">
            <g transform="matrix(0.927449,0,0,0.965707,4147.27,1058.62)">
              <g transform="matrix(1.22698,0,0,0.443583,-11801.5,14621.8)">
                <path d="M56039.8,36211.5C56023,36204 56042.1,36173.6 56039.8,36156.2C56037.6,36139.4 56033.5,36121.4 56026.1,36107.1C56018.8,36093 56002.1,36081.6 55995.5,36070.6C55990.2,36061.7 55985.5,36050 55986.3,36040.9C55987.1,36031.8 55991.6,36020.1 56000.2,36015.8C56013.7,36009 56049.6,36005.3 56067.6,36000C56081.5,35995.8 56122.1,35981.6 56134,35979.9C56144.3,35978.4 56199.9,35972.8 56201.6,35983.1C56207.7,36019.7 56160.7,36166.3 56144.2,36203.3C56130,36235.1 56057.2,36219.4 56039.8,36211.5Z" style="fill:rgb(58,62,145);"/>
              </g>
              <g transform="matrix(-1.22698,0,0,0.443583,126218,14621.8)">
                <path d="M56039.8,36211.5C56023,36204 56042.1,36173.6 56039.8,36156.2C56037.6,36139.4 56033.5,36121.4 56026.1,36107.1C56018.8,36093 56002.1,36081.6 55995.5,36070.6C55990.2,36061.7 55985.5,36050 55986.3,36040.9C55987.1,36031.8 55991.6,36020.1 56000.2,36015.8C56013.7,36009 56049.6,36005.3 56067.6,36000C56081.5,35995.8 56115.1,35978.8 56127,35977.1C56137.3,35975.6 56192.9,35970 56194.6,35980.3C56200.7,36016.8 56160.7,36166.3 56144.2,36203.3C56130,36235.1 56057.2,36219.4 56039.8,36211.5Z" style="fill:rgb(58,62,145);"/>
              </g>
              <g transform="matrix(1.22698,0,0,0.443583,-11801.5,14621.8)">
                <path d="M56246,35970.4C56255.1,35969.9 56285.7,35968.7 56301.8,35972.3C56323.2,35977.1 56354.1,35990.5 56372.3,35999.5C56386.3,36006.5 56400.4,36015.2 56410.8,36026.3C56421.2,36037.4 56424.1,36047.9 56423.2,36056.6C56422.3,36065.3 56412,36070.4 56405.4,36078.7C56396.8,36089.4 56389.8,36112.5 56383.5,36129.9C56375.9,36150.9 56382.9,36192.2 56360,36204.6C56338.8,36216.2 56259.5,36207.7 56246,36206.1C56232.5,36207.7 56153.3,36216.2 56132.1,36204.6C56109.2,36192.2 56116.2,36150.9 56108.6,36129.9C56102.3,36112.5 56095.3,36089.4 56086.7,36078.7C56080.1,36070.4 56069.8,36065.3 56068.9,36056.6C56068,36047.9 56070.9,36037.4 56081.3,36026.3C56091.7,36015.2 56105.8,36006.5 56119.8,35999.5C56138,35990.5 56168.9,35977.1 56190.3,35972.3C56206.4,35968.7 56237,35969.9 56246,35970.4Z" style="fill:rgb(76,81,191);"/>
              </g>
            </g>
            <g transform="matrix(-1.22698,-0.000169445,-0.000468699,0.443583,126300,14640.1)">
              <path d="M56290.1,35965C56297.1,35965.4 56189.2,35981 56171,35979.7C56157,35978.8 56138.8,35966.7 56123.8,35967C56108.9,35967.3 56092,35971.1 56081.3,35981.5C56070.6,35991.9 56060.9,36013.2 56059.8,36029.6C56058.8,36046.1 56069.2,36063.6 56075,36080.1C56082.7,36101.8 56099,36137.5 56105.9,36160C56110.6,36175.3 56115,36205 56116.1,36212.8L56116.1,36216.2L56088.8,36216.5C56088.8,36216.5 56083.8,36162 56078.3,36144.3C56071.4,36121.8 56055.2,36086.2 56047.5,36064.4C56041.6,36047.9 56031.2,36030.4 56032.3,36013.9C56033.3,35997.5 56043.1,35976.2 56053.7,35965.8C56064.4,35955.4 56081.3,35951.6 56096.3,35951.3C56103.3,35951.2 56143.3,35959.6 56180.9,35966.1C56214.6,35972 56260.6,35965 56281.8,35962.8C56290.4,35961.8 56288.7,35964.9 56290.1,35965Z" style="fill:rgb(210,211,210);stroke:rgb(190,190,190);stroke-width:1.5px;"/>
            </g>
            <g transform="matrix(1.22698,0,0,0.443583,-11876.9,14630.6)">
              <path d="M56290.1,35965C56297.1,35965.4 56189.2,35981 56171,35979.7C56157,35978.8 56138.8,35966.7 56123.8,35967C56108.9,35967.3 56092,35971.1 56081.3,35981.5C56070.6,35991.9 56060.9,36013.2 56059.8,36029.6C56058.8,36046.1 56069.2,36063.6 56075,36080.1C56082.7,36101.8 56099,36137.5 56105.9,36160C56110.6,36175.3 56115,36205 56116.1,36212.8L56116.1,36216.2L56088.8,36216.5C56088.8,36216.5 56083.8,36162 56078.3,36144.3C56071.4,36121.8 56055.2,36086.2 56047.5,36064.4C56041.6,36047.9 56031.2,36030.4 56032.3,36013.9C56033.3,35997.5 56043.1,35976.2 56053.7,35965.8C56064.4,35955.4 56081.3,35951.6 56096.3,35951.3C56103.3,35951.2 56143.3,35959.6 56180.9,35966.1C56214.6,35972 56260.6,35965 56281.8,35962.8C56290.4,35961.8 56288.7,35964.9 56290.1,35965Z" style="fill:rgb(210,211,210);stroke:rgb(190,190,190);stroke-width:1.5px;"/>
            </g>
            <g transform="matrix(1.22698,0,0,0.443583,-11781.3,14621.8)">
              <path d="M56246.8,35919.1L56246.7,35919.7C56245,35925.6 56231.9,35972.7 56225.4,35983.6C56221.8,35989.6 56211.9,35988.9 56204.9,35988.4C56195.9,35987.7 56182.3,35982.7 56171,35979.7C56157.5,35976.2 56138.8,35966.7 56123.8,35967C56108.9,35967.3 56092,35971.1 56081.3,35981.5C56070.6,35991.9 56060.9,36013.2 56059.8,36029.6C56058.8,36046.1 56069.2,36063.6 56075,36080.1C56082.7,36101.8 56099,36137.5 56105.9,36160C56110.6,36175.3 56115,36205 56116.1,36212.8L56116.1,36216.2L56088.8,36216.5C56088.8,36216.5 56083.8,36162 56078.3,36144.3C56071.4,36121.8 56055.2,36086.2 56047.5,36064.4C56041.6,36047.9 56031.2,36030.4 56032.3,36013.9C56033.3,35997.5 56043.1,35976.2 56053.7,35965.8C56064.4,35955.4 56081.3,35951.6 56096.3,35951.3C56111.2,35951 56172,35972.3 56181.1,35972.9C56188.1,35973.4 56213.4,35981.5 56217.1,35975.5C56224,35963.9 56246.8,35919.1 56246.8,35919.1Z" style="fill:rgb(210,211,210);stroke:rgb(190,190,190);stroke-width:1.5px;"/>
            </g>
            <g transform="matrix(-1.22698,0,0,0.443583,126189,14621.8)">
              <path d="M56246.8,35919.1L56246.7,35919.7C56245,35925.6 56231.9,35972.7 56225.4,35983.6C56221.8,35989.6 56211.9,35988.9 56204.9,35988.4C56195.9,35987.7 56182.3,35982.7 56171,35979.7C56157.5,35976.2 56138.8,35966.7 56123.8,35967C56108.9,35967.3 56092,35971.1 56081.3,35981.5C56070.6,35991.9 56060.9,36013.2 56059.8,36029.6C56058.8,36046.1 56069.2,36063.6 56075,36080.1C56082.7,36101.8 56099,36137.5 56105.9,36160C56110.6,36175.3 56115,36205 56116.1,36212.8L56116.1,36216.2L56088.8,36216.5C56088.8,36216.5 56083.8,36162 56078.3,36144.3C56071.4,36121.8 56055.2,36086.2 56047.5,36064.4C56041.6,36047.9 56031.2,36030.4 56032.3,36013.9C56033.3,35997.5 56043.1,35976.2 56053.7,35965.8C56064.4,35955.4 56081.3,35951.6 56096.3,35951.3C56111.2,35951 56172,35972.3 56181.1,35972.9C56188.1,35973.4 56213.4,35981.5 56217.1,35975.5C56224,35963.9 56246.8,35919.1 56246.8,35919.1Z" style="fill:rgb(210,211,210);stroke:rgb(190,190,190);stroke-width:1.5px;"/>
            </g>
            <g transform="matrix(1.22698,0,0,0.443583,-11801.5,14621.8)">
              <path d="M56240.7,35978.4C56240.7,35978.4 56224.5,35986.5 56223.1,36003.2C56221.7,36019.9 56231.4,36063.5 56233.8,36081.4C56237.9,36111.5 56238.9,36215.3 56238.9,36215.3L56261.5,36215.5C56261.5,36215.5 56256.7,36110.3 56259.1,36080.5C56260.6,36062.5 56267.1,36020.3 56263.3,36003.2C56259.6,35986.2 56240.7,35978.4 56240.7,35978.4Z" style="fill:rgb(210,211,210);stroke:rgb(190,190,190);stroke-width:1.5px;"/>
            </g>
            <g transform="matrix(1.22698,0.000169445,0.000468699,-0.443583,-11822.5,46760)">
              <path d="M56458.6,36216.2C56314.2,36193.9 56171.2,36195 56029.4,36216.2C56022.8,36236.9 56023.6,36254.1 56029.4,36269.1C56168.2,36259.4 56311.2,36259.2 56458.6,36269.1C56465.5,36249.1 56464.3,36231.9 56458.6,36216.2Z" style="fill:rgb(210,211,210);stroke:rgb(198,195,193);stroke-width:1.5px;"/>
            </g>
          </g>
          <g transform="matrix(-0.00843264,-0.774364,1.08362,-0.00623998,-31832.5,42155.2)">
            <ellipse cx="52756.2" cy="34737.3" rx="25.728" ry="18.273" style="fill:rgb(76,81,191);"/>
          </g>
          <g transform="matrix(0.815006,0,-3.74027e-17,1.63934,-38959,-47759.7)">
            <g transform="matrix(0.856452,0,0,0.309627,9213.23,19186.1)">
              <ellipse cx="52756.2" cy="34737.3" rx="25.728" ry="18.273" style="fill:url(#_Radial1);"/>
            </g>
            <g transform="matrix(0.72305,0,0,0.261399,16251,20861.4)">
              <ellipse cx="52756.2" cy="34737.3" rx="25.728" ry="18.273" style="fill:rgb(76,81,191);"/>
            </g>
          </g>
          <g transform="matrix(0.572055,-0.0596447,0.319959,1.62275,-35129,-44027.7)">
            <g transform="matrix(0.856452,0,0,0.309627,9213.23,19186.1)">
              <ellipse cx="52756.2" cy="34737.3" rx="25.728" ry="18.273" style="fill:rgb(190,190,190);"/>
            </g>
            <g transform="matrix(0.72305,0,0,0.261399,16251,20861.4)">
              <ellipse cx="52756.2" cy="34737.3" rx="25.728" ry="18.273" style="fill:rgb(76,81,191);"/>
            </g>
          </g>
          <g transform="matrix(-0.652827,-0.0286468,-0.13579,1.63637,44819.8,-46117.7)">
            <g transform="matrix(0.856452,0,0,0.309627,9213.23,19186.1)">
              <ellipse cx="52756.2" cy="34737.3" rx="25.728" ry="18.273" style="fill:rgb(190,190,190);"/>
            </g>
            <g transform="matrix(0.72305,0,0,0.261399,16251,20861.4)">
              <ellipse cx="52756.2" cy="34737.3" rx="25.728" ry="18.273" style="fill:rgb(253,250,240);"/>
            </g>
          </g>
          <g transform="matrix(-0.701979,0.00143642,0.00634364,1.63933,43486.5,-47839.9)">
            <g transform="matrix(0.856452,0,0,0.309627,9213.23,19186.1)">
              <ellipse cx="52756.2" cy="34737.3" rx="25.728" ry="18.273" style="fill:rgb(190,190,190);"/>
            </g>
            <g transform="matrix(0.72305,0,0,0.261399,16251,20861.4)">
              <ellipse cx="52756.2" cy="34737.3" rx="25.728" ry="18.273" style="fill:rgb(253,250,240);"/>
            </g>
          </g>
          <g transform="matrix(-0.521881,-0.0544135,-0.319959,1.62275,43137.5,-44312.2)">
            <g transform="matrix(0.856452,0,0,0.309627,9213.23,19186.1)">
              <ellipse cx="52756.2" cy="34737.3" rx="25.728" ry="18.273" style="fill:rgb(190,190,190);"/>
            </g>
            <g transform="matrix(0.72305,0,0,0.261399,16251,20861.4)">
              <ellipse cx="52756.2" cy="34737.3" rx="25.728" ry="18.273" style="fill:rgb(76,81,191);"/>
            </g>
          </g>
        </g>
      </g>
      <g transform="matrix(19.2569,0,0,16.6894,-33344.6,-41582.6)">
        <g transform="matrix(0.13856,0,0,0.13856,1754,2270.11)">
          <circle cx="471.5" cy="3039.5" r="32.5" style="fill:rgb(27,34,47);"/>
        </g>
        <g transform="matrix(0.13856,0,0,0.13856,1770.83,2270.54)">
          <circle cx="471.5" cy="3039.5" r="32.5" style="fill:rgb(27,34,47);"/>
        </g>
      </g>
    </g>
  </g>
  <defs>
    <radialGradient id="_Radial1" cx="0" cy="0" r="1" gradientUnits="userSpaceOnUse" gradientTransform="matrix(81.6871,0,9.62581e-16,58.0174,52756.2,34737.3)">
      <stop offset="0" style="stop-color:rgb(217,217,217);stop-opacity:1"/>
      <stop offset="1" style="stop-color:rgb(122,122,122);stop-opacity:1"/>
    </radialGradient>
  </defs>
</svg>
