<?xml version="1.0" encoding="UTF-8" standalone="no"?>
<!DOCTYPE svg PUBLIC "-//W3C//DTD SVG 1.1//EN" "http://www.w3.org/Graphics/SVG/1.1/DTD/svg11.dtd">
<svg width="100%" height="100%" viewBox="0 0 156 150" version="1.1" xmlns="http://www.w3.org/2000/svg" xmlns:xlink="http://www.w3.org/1999/xlink" xml:space="preserve" xmlns:serif="http://www.serif.com/" style="fill-rule:evenodd;clip-rule:evenodd;stroke-linecap:round;stroke-linejoin:round;stroke-miterlimit:1.5;">
    <g transform="matrix(1,0,0,1,-28274,-6855)">
        <g id="Plan-de-travail11" serif:id="Plan de travail11" transform="matrix(0.779956,0,0,0.75,7254.95,93.75)">
            <rect x="26949" y="9015" width="200" height="200" style="fill:none;"/>
            <clipPath id="_clip1">
                <rect x="26949" y="9015" width="200" height="200"/>
            </clipPath>
            <g clip-path="url(#_clip1)">
                <g transform="matrix(-0.125413,-0.507048,-1.71063,0.457582,31708.1,14798.1)">
                    <g transform="matrix(0.922852,0,0,0.263036,885.51,-84)">
                        <path d="M12640,7080C12644.2,7068.17 12663,7018 12663,7018C12663,7018 12668.2,7027.83 12672,7031C12675.8,7034.17 12685.8,7038.17 12686,7037C12686.2,7035.83 12676.5,7029.05 12673,7024C12669.3,7018.67 12662,7011.73 12664,7005C12666.3,6997 12678.2,6984.65 12687,6976C12696.7,6966.5 12722,6948 12722,6948C12722,6948 12725,6960.33 12728,6965C12730.9,6969.56 12739,6977.17 12740,6976C12741,6974.83 12735,6964 12734,6958C12733,6952.08 12729.4,6943.83 12734,6940C12740.8,6934.33 12761,6928 12775,6924C12789,6920 12818,6916 12818,6916C12818,6916 12798.7,6929.33 12791,6938C12783.3,6946.67 12775.5,6959.67 12772,6968C12769.4,6974.18 12770,6988 12770,6988C12770,6988 12763.2,6987.92 12760,6987C12756.5,6986 12749.5,6981.5 12749,6982C12748.5,6982.5 12754,6988 12757,6990C12760,6991.99 12767,6994 12767,6994C12767,6994 12767.3,7019.33 12767,7029C12766.7,7036.69 12765,7052 12765,7052C12765,7052 12756.7,7049.67 12753,7048C12749.5,7046.39 12743,7041 12743,7042C12743,7043 12750.2,7051.17 12753,7054C12755,7056.03 12760,7059 12760,7059L12759,7073C12759,7073 12758.2,7085.34 12754,7089C12606.9,7216.82 12628.7,7118.36 12638,7089C12638.9,7086.07 12639,7082.9 12640,7080ZM12714.2,6962.72C12716.9,6964.23 12717.8,6967.59 12716.3,6970.23C12714.8,6972.86 12711.4,6973.78 12708.8,6972.28C12706.1,6970.77 12705.2,6967.41 12706.7,6964.77C12708.2,6962.14 12711.6,6961.22 12714.2,6962.72ZM12771.1,6956.67C12772.2,6957.26 12772.5,6958.62 12771.9,6959.71C12771.3,6960.81 12769.9,6961.21 12768.9,6960.62C12767.8,6960.03 12767.5,6958.66 12768.1,6957.57C12768.7,6956.48 12770.1,6956.08 12771.1,6956.67ZM12777.7,6944.87C12779.5,6945.9 12779.8,6948.88 12778.3,6951.51C12776.8,6954.15 12774.1,6955.45 12772.3,6954.42C12770.5,6953.39 12770.2,6950.41 12771.7,6947.77C12773.2,6945.14 12775.9,6943.84 12777.7,6944.87Z" style="fill:url(#_Linear2);"/>
                    </g>
                    <g transform="matrix(0.884399,0,0,0.263036,1581.26,-20.6084)">
                        <path d="M12502,6823C12505.7,6826.33 12509,6830.33 12513,6833C12517,6835.65 12526,6839 12526,6839L12525,6842C12525,6842 12518.3,6839.33 12515,6838" style="fill:none;stroke:rgb(16,43,45);stroke-width:1.76px;"/>
                    </g>
                    <g transform="matrix(0.894012,0,0,0.263036,1460.07,-20.6084)">
                        <path d="M12453,6780C12449.3,6776.33 12445,6773 12442,6769C12439,6765.06 12435,6756 12435,6756L12439,6751L12447,6765L12439,6751L12453,6737C12453,6737 12455.7,6744.7 12458,6748C12460.3,6751.33 12467,6757 12467,6757C12467,6757 12460.3,6751.33 12458,6748C12455.7,6744.7 12453,6737 12453,6737" style="fill:none;stroke:rgb(6,15,16);stroke-width:1.75px;"/>
                    </g>
                    <g transform="matrix(0.888672,0,0,0.263036,1528.02,-20.6084)">
                        <path d="M12526,6801C12528.3,6801.67 12533,6803 12533,6803L12533,6799C12533,6799 12525.6,6798.1 12522,6797C12517.7,6795.67 12507,6791 12507,6791C12507,6791 12517.7,6795.67 12522,6797C12525.6,6798.1 12533,6799 12533,6799L12534,6769C12534,6769 12530.7,6770 12529,6770C12527.2,6770 12523,6769 12523,6769C12523,6769 12527.2,6770 12529,6770C12530.7,6770 12534,6769 12534,6769L12534,6763C12534,6763 12529.3,6763.46 12527,6763C12523.7,6762.33 12518.3,6760.33 12514,6759" style="fill:none;stroke:rgb(16,43,45);stroke-width:1.76px;"/>
                    </g>
                    <g transform="matrix(0.922852,0,0,0.252076,1100.53,53.0306)">
                        <path d="M12509,6719C12508,6715.33 12506.8,6711.71 12506,6708C12505.2,6704.17 12504,6696 12504,6696L12507,6695C12507,6695 12508.3,6702.83 12509,6705C12509.4,6706.15 12510.3,6707 12511,6708" style="fill:none;stroke:rgb(6,15,16);stroke-width:1.76px;"/>
                    </g>
                    <g transform="matrix(0.871582,0,0,0.263036,1742.43,-20.6084)">
                        <path d="M12520,6734C12522.7,6736 12525.2,6738.67 12528,6740C12530.8,6741.31 12537,6742 12537,6742L12537,6736C12537,6736 12533.5,6735.7 12532,6735C12530.2,6734.17 12526,6731 12526,6731C12526,6731 12530.2,6734.17 12532,6735C12533.5,6735.7 12537,6736 12537,6736L12538,6731C12538,6731 12535.8,6731.33 12535,6731C12534.2,6730.67 12533.7,6729.67 12533,6729" style="fill:none;stroke:rgb(16,43,45);stroke-width:1.77px;"/>
                    </g>
                    <g transform="matrix(0.922852,0,0,0.263036,1100.53,-20.6084)">
                        <path d="M12447.6,6846.56C12451.1,6843.13 12455.1,6840.13 12458.6,6836.66C12460,6835.29 12461.3,6833.85 12462.4,6832.26C12465.5,6827.8 12469.4,6821.39 12473.2,6814.53C12476.6,6808.34 12480,6801.8 12482.7,6795.98C12484.4,6792.48 12485.9,6788.74 12487.3,6784.94C12490.9,6775.49 12494,6765.69 12497.3,6758.27C12499.2,6753.94 12501.3,6749.69 12503.6,6745.51C12505.9,6741.35 12508.3,6737.26 12510.8,6733.26C12513.9,6728.23 12517.5,6722.56 12521.2,6717.3C12523.8,6713.68 12526.5,6710.26 12529.3,6707.36C12531.9,6704.65 12534.7,6702.17 12537.7,6699.87C12542.2,6696.45 12546.9,6693.41 12551.7,6690.56C12554.7,6688.8 12559.1,6686.56 12563.7,6684.37C12572.6,6680.09 12582,6676 12582,6676C12582,6676 12572.7,6680.38 12564,6684.92C12559.5,6687.24 12555.2,6689.6 12552.3,6691.44C12547.6,6694.41 12543,6697.55 12538.7,6701.07C12535.8,6703.41 12533.1,6705.91 12530.7,6708.64C12528.1,6711.56 12525.5,6714.98 12523.1,6718.59C12519.5,6723.93 12516.2,6729.66 12513.2,6734.74C12510.9,6738.76 12508.6,6742.86 12506.5,6747.03C12504.4,6751.19 12502.5,6755.43 12500.7,6759.73C12497.6,6767.2 12494.9,6777.01 12491.7,6786.49C12490.3,6790.46 12488.9,6794.36 12487.3,6798.02C12484.6,6804.02 12481.4,6810.78 12478.1,6817.17C12474.4,6824.35 12470.6,6831.06 12467.6,6835.74C12466.3,6837.69 12464.8,6839.47 12463.2,6841.16C12459.8,6844.75 12455.9,6847.89 12452.4,6851.44C12451.1,6852.78 12448.9,6852.78 12447.6,6851.44C12446.2,6850.09 12446.2,6847.91 12447.6,6846.56Z" style="fill:rgb(16,43,45);"/>
                    </g>
                </g>
                <g transform="matrix(0.275365,0.678242,-2.28819,1.0047,27421.8,-1202.97)">
                    <g transform="matrix(0.922852,0,0,0.263036,877.204,-101.623)">
                        <path d="M12919.9,6777.12C12919.9,6777.12 12942.7,6801.34 12957.9,6820.75C12964.8,6829.48 12970.2,6837.2 12971,6841.22C12971.2,6841.75 12971.7,6842.08 12972.2,6841.96C12972.7,6841.83 12973.1,6841.31 12973,6840.78C12972,6836.64 12966.4,6828.71 12959.1,6819.82C12943.4,6800.68 12920.1,6776.88 12920.1,6776.88C12920.1,6776.81 12919.9,6776.8 12919.9,6776.87C12919.8,6776.94 12919.8,6777.05 12919.9,6777.12Z" style="fill:rgb(109,83,147);"/>
                    </g>
                    <g transform="matrix(0.922852,0,0,0.263036,877.204,-101.623)">
                        <path d="M12967,6829C12966.5,6828.33 12967,6824.76 12968,6823C12969.3,6820.67 12973,6817 12975,6815C12976.5,6813.49 12978.5,6811.5 12980,6811C12981.3,6810.57 12983.3,6810.83 12984,6812C12984.7,6813.17 12985,6816.33 12984,6818C12983,6819.67 12980,6820.63 12978,6822C12975.8,6823.5 12972.8,6825.83 12971,6827C12969.7,6827.8 12967.5,6829.67 12967,6829Z" style="fill:rgb(119,88,157);"/>
                    </g>
                    <g transform="matrix(0.922852,0,0,0.263036,868.898,-104.254)">
                        <path d="M12967,6829C12966.5,6828.33 12967,6824.76 12968,6823C12969.3,6820.67 12973,6817 12975,6815C12976.5,6813.49 12978.5,6811.5 12980,6811C12981.3,6810.57 12983.3,6810.83 12984,6812C12984.7,6813.17 12985,6816.33 12984,6818C12983,6819.67 12980,6820.63 12978,6822C12975.8,6823.5 12972.8,6825.83 12971,6827C12969.7,6827.8 12967.5,6829.67 12967,6829Z" style="fill:rgb(119,88,157);"/>
                    </g>
                    <g transform="matrix(0.912363,-0.0395443,0.13874,0.260046,49.5649,426.356)">
                        <path d="M12967,6829C12966.5,6828.33 12967,6824.76 12968,6823C12969.3,6820.67 12973,6817 12975,6815C12976.5,6813.49 12978.5,6811.5 12980,6811C12981.3,6810.57 12983.3,6810.83 12984,6812C12984.7,6813.17 12985,6816.33 12984,6818C12983,6819.67 12980,6820.63 12978,6822C12975.8,6823.5 12972.8,6825.83 12971,6827C12969.7,6827.8 12967.5,6829.67 12967,6829Z" style="fill:rgb(119,88,157);"/>
                    </g>
                    <g transform="matrix(0.89532,-0.0637702,0.223736,0.255188,-319.107,770.679)">
                        <path d="M12967,6829C12966.5,6828.33 12967,6824.76 12968,6823C12969.3,6820.67 12973,6817 12975,6815C12976.5,6813.49 12978.5,6811.5 12980,6811C12981.3,6810.57 12983.3,6810.83 12984,6812C12984.7,6813.17 12985,6816.33 12984,6818C12983,6819.67 12980,6820.63 12978,6822C12975.8,6823.5 12972.8,6825.83 12971,6827C12969.7,6827.8 12967.5,6829.67 12967,6829Z" style="fill:rgb(119,88,157);"/>
                    </g>
                    <g transform="matrix(0.611896,-0.043583,0.15291,0.174405,3831.37,1057.96)">
                        <path d="M12967,6829C12966.5,6828.33 12967,6824.76 12968,6823C12969.3,6820.67 12973,6817 12975,6815C12976.5,6813.49 12978.5,6811.5 12980,6811C12981.3,6810.57 12983.3,6810.83 12984,6812C12984.7,6813.17 12985,6816.33 12984,6818C12983,6819.67 12980,6820.63 12978,6822C12975.8,6823.5 12972.8,6825.83 12971,6827C12969.7,6827.8 12967.5,6829.67 12967,6829Z" style="fill:rgb(119,88,157);"/>
                    </g>
                    <g transform="matrix(-0.327531,0.245912,0.862774,0.0933544,11197.9,-2131.03)">
                        <path d="M12967,6829C12966.5,6828.33 12967,6824.76 12968,6823C12969.3,6820.67 12973,6817 12975,6815C12976.5,6813.49 12978.5,6811.5 12980,6811C12981.3,6810.57 12983.3,6810.83 12984,6812C12984.7,6813.17 12985,6816.33 12984,6818C12983,6819.67 12980,6820.63 12978,6822C12975.8,6823.5 12972.8,6825.83 12971,6827C12969.7,6827.8 12967.5,6829.67 12967,6829Z" style="fill:rgb(119,88,157);"/>
                    </g>
                    <g transform="matrix(-0.327531,0.245912,0.862774,0.0933544,11192.2,-2134.18)">
                        <path d="M12967,6829C12966.5,6828.33 12967,6824.76 12968,6823C12969.3,6820.67 12973,6817 12975,6815C12976.5,6813.49 12978.5,6811.5 12980,6811C12981.3,6810.57 12983.3,6810.83 12984,6812C12984.7,6813.17 12985,6816.33 12984,6818C12983,6819.67 12980,6820.63 12978,6822C12975.8,6823.5 12972.8,6825.83 12971,6827C12969.7,6827.8 12967.5,6829.67 12967,6829Z" style="fill:rgb(119,88,157);"/>
                    </g>
                    <g transform="matrix(-0.453516,0.229082,0.803728,0.129263,13219.7,-2164.18)">
                        <path d="M12967,6829C12966.5,6828.33 12967,6824.76 12968,6823C12969.3,6820.67 12973,6817 12975,6815C12976.5,6813.49 12978.5,6811.5 12980,6811C12981.3,6810.57 12983.3,6810.83 12984,6812C12984.7,6813.17 12985,6816.33 12984,6818C12983,6819.67 12980,6820.63 12978,6822C12975.8,6823.5 12972.8,6825.83 12971,6827C12969.7,6827.8 12967.5,6829.67 12967,6829Z" style="fill:rgb(119,88,157);"/>
                    </g>
                    <g transform="matrix(-0.52693,0.215943,0.757628,0.150188,14477.2,-2139.43)">
                        <path d="M12967,6829C12966.5,6828.33 12967,6824.76 12968,6823C12969.3,6820.67 12973,6817 12975,6815C12976.5,6813.49 12978.5,6811.5 12980,6811C12981.3,6810.57 12983.3,6810.83 12984,6812C12984.7,6813.17 12985,6816.33 12984,6818C12983,6819.67 12980,6820.63 12978,6822C12975.8,6823.5 12972.8,6825.83 12971,6827C12969.7,6827.8 12967.5,6829.67 12967,6829Z" style="fill:rgb(119,88,157);"/>
                    </g>
                    <g transform="matrix(-0.360124,0.147584,0.517792,0.102644,13943.7,-930.705)">
                        <path d="M12967,6829C12966.5,6828.33 12967,6824.76 12968,6823C12969.3,6820.67 12973,6817 12975,6815C12976.5,6813.49 12978.5,6811.5 12980,6811C12981.3,6810.57 12983.3,6810.83 12984,6812C12984.7,6813.17 12985,6816.33 12984,6818C12983,6819.67 12980,6820.63 12978,6822C12975.8,6823.5 12972.8,6825.83 12971,6827C12969.7,6827.8 12967.5,6829.67 12967,6829Z" style="fill:rgb(119,88,157);"/>
                    </g>
                    <g transform="matrix(0.922852,0,0,0.263036,877.204,-101.623)">
                        <path d="M12928,6786C12927,6786 12924.5,6785.81 12923,6785C12921.2,6784 12918,6781.67 12917,6780C12916.1,6778.57 12916.3,6775.83 12917,6775C12917.7,6774.17 12918.7,6773.74 12920,6774C12921.7,6774.33 12925.7,6775.83 12927,6777C12928.3,6778.17 12928.7,6780.67 12929,6782C12929.2,6782.97 12929.2,6784.33 12929,6785C12928.9,6785.46 12928.5,6786 12928,6786Z" style="fill:rgb(119,88,157);"/>
                    </g>
                </g>
                <g transform="matrix(1,0,0,1,-27.7471,-30.6667)">
                    <g transform="matrix(1.21066,0,0,1.19222,26175.1,8584.91)">
                        <g transform="matrix(2.36451,0,0,2.78104,-3823.35,-1392.2)">
                            <g>
                                <g transform="matrix(1,0,0,1,2.73333,0)">
                                    <g>
                                        <g transform="matrix(0.139241,0,0,7,1631.28,-5073)">
                                            <rect x="2052" y="821" width="79" height="7" style="fill:rgb(109,79,38);"/>
                                        </g>
                                        <g transform="matrix(0.916667,0,0,1,34,-98)">
                                            <path d="M2064,775C2064,773.896 2062.91,773 2061.57,773L2054.43,773C2053.09,773 2052,773.896 2052,775L2052,779C2052,780.104 2053.09,781 2054.43,781L2061.57,781C2062.91,781 2064,780.104 2064,779L2064,775Z" style="fill:rgb(69,47,11);"/>
                                        </g>
                                        <g transform="matrix(-0.25,0,0,1,2443,-98)">
                                            <path d="M2064,773.673C2064,773.302 2062.66,773 2061,773L2055,773C2053.34,773 2052,773.302 2052,773.673L2052,780.327C2052,780.698 2053.34,781 2055,781L2061,781C2062.66,781 2064,780.698 2064,780.327L2064,773.673Z" style="fill:rgb(114,83,42);"/>
                                        </g>
                                        <g transform="matrix(0.833333,0,0,0.875,210,15.625)">
                                            <path d="M2064,775C2064,773.896 2062.95,773 2061.66,773L2054.34,773C2053.05,773 2052,773.896 2052,775L2052,779C2052,780.104 2053.05,781 2054.34,781L2061.66,781C2062.95,781 2064,780.104 2064,779L2064,775Z" style="fill:rgb(114,83,42);"/>
                                        </g>
                                        <g transform="matrix(0.835107,0,0,0.75,201.361,104.25)">
                                            <path d="M2064,775C2064,773.896 2063.1,773 2062,773L2054,773C2052.9,773 2052,773.896 2052,775L2052,779C2052,780.104 2052.9,781 2054,781L2062,781C2063.1,781 2064,780.104 2064,779L2064,775Z" style="fill:rgb(69,47,11);"/>
                                        </g>
                                        <g transform="matrix(0.583333,0,0,0.75,726,104.25)">
                                            <path d="M2064,775C2064,773.896 2062.72,773 2061.14,773L2054.86,773C2053.28,773 2052,773.896 2052,775L2052,779C2052,780.104 2053.28,781 2054.86,781L2061.14,781C2062.72,781 2064,780.104 2064,779L2064,775Z" style="fill:rgb(114,83,42);"/>
                                        </g>
                                        <g transform="matrix(-0.829079,0,0,0.875,3627.22,15.625)">
                                            <path d="M2064,775C2064,773.896 2062.95,773 2061.65,773L2054.35,773C2053.05,773 2052,773.896 2052,775L2052,779C2052,780.104 2053.05,781 2054.35,781L2061.65,781C2062.95,781 2064,780.104 2064,779L2064,775Z" style="fill:rgb(69,47,11);"/>
                                        </g>
                                        <g transform="matrix(0.761348,0,0,0.75,353.714,120.25)">
                                            <path d="M2064,775C2064,773.896 2063.02,773 2061.81,773L2054.19,773C2052.98,773 2052,773.896 2052,775L2052,779C2052,780.104 2052.98,781 2054.19,781L2061.81,781C2063.02,781 2064,780.104 2064,779L2064,775Z" style="fill:rgb(69,47,11);"/>
                                        </g>
                                        <g transform="matrix(0.75,0,0,0.75,382,120.25)">
                                            <path d="M2064,775C2064,773.896 2063,773 2061.77,773L2054.23,773C2053,773 2052,773.896 2052,775L2052,779C2052,780.104 2053,781 2054.23,781L2061.77,781C2063,781 2064,780.104 2064,779L2064,775Z" style="fill:rgb(114,83,42);"/>
                                        </g>
                                    </g>
                                </g>
                                <g transform="matrix(0.201931,0,0,1,1502.88,-98)">
                                    <path d="M2137,764.74C2137,764.331 2135.17,764 2132.92,764L2051.08,764C2048.83,764 2047,764.331 2047,764.74L2047,768.26C2047,768.669 2048.83,769 2051.08,769L2132.92,769C2135.17,769 2137,768.669 2137,768.26L2137,764.74Z" style="fill:rgb(69,47,11);"/>
                                </g>
                                <g transform="matrix(0.192428,0,0,0.6,1522.76,212.6)">
                                    <path d="M2137,764.74C2137,764.331 2135.85,764 2134.43,764L2049.57,764C2048.15,764 2047,764.331 2047,764.74L2047,768.26C2047,768.669 2048.15,769 2049.57,769L2134.43,769C2135.85,769 2137,768.669 2137,768.26L2137,764.74Z" style="fill:rgb(110,79,39);"/>
                                </g>
                            </g>
                        </g>
                        <g transform="matrix(3.34648,0,0,2.78104,-5690.73,-1392.2)">
                            <g>
                                <g transform="matrix(1,0,0,1,2.73333,0)">
                                    <g>
                                        <g transform="matrix(0.139241,0,0,7,1631.28,-5073)">
                                            <rect x="2052" y="821" width="79" height="7" style="fill:rgb(163,117,65);"/>
                                        </g>
                                        <g transform="matrix(0.916667,0,0,1,34,-98)">
                                            <path d="M2064,775C2064,773.896 2063.23,773 2062.28,773L2053.72,773C2052.77,773 2052,773.896 2052,775L2052,779C2052,780.104 2052.77,781 2053.72,781L2062.28,781C2063.23,781 2064,780.104 2064,779L2064,775Z" style="fill:rgb(114,83,42);"/>
                                        </g>
                                        <g transform="matrix(-0.25,0,0,1,2443,-98)">
                                            <path d="M2064,773.953C2064,773.427 2062.66,773 2061,773L2055,773C2053.34,773 2052,773.427 2052,773.953L2052,780.047C2052,780.573 2053.34,781 2055,781L2061,781C2062.66,781 2064,780.573 2064,780.047L2064,773.953Z" style="fill:rgb(114,83,42);"/>
                                        </g>
                                        <g transform="matrix(0.833333,0,0,0.875,210,15.625)">
                                            <path d="M2064,775C2064,773.896 2063.26,773 2062.35,773L2053.65,773C2052.74,773 2052,773.896 2052,775L2052,779C2052,780.104 2052.74,781 2053.65,781L2062.35,781C2063.26,781 2064,780.104 2064,779L2064,775Z" style="fill:rgb(114,83,42);"/>
                                        </g>
                                        <g transform="matrix(0.583333,0,0,0.75,718,104.25)">
                                            <path d="M2064,775C2064,773.896 2063.09,773 2061.98,773L2054.02,773C2052.91,773 2052,773.896 2052,775L2052,779C2052,780.104 2052.91,781 2054.02,781L2061.98,781C2063.09,781 2064,780.104 2064,779L2064,775Z" style="fill:rgb(114,83,42);"/>
                                        </g>
                                        <g transform="matrix(0.583333,0,0,0.75,726,104.25)">
                                            <path d="M2064,775C2064,773.896 2063.09,773 2061.98,773L2054.02,773C2052.91,773 2052,773.896 2052,775L2052,779C2052,780.104 2052.91,781 2054.02,781L2061.98,781C2063.09,781 2064,780.104 2064,779L2064,775Z" style="fill:rgb(114,83,42);"/>
                                        </g>
                                        <g transform="matrix(-0.25,0,0,0.875,2432,15.625)">
                                            <path d="M2064,774.089C2064,773.488 2062.66,773 2061,773L2055,773C2053.34,773 2052,773.488 2052,774.089L2052,779.911C2052,780.512 2053.34,781 2055,781L2061,781C2062.66,781 2064,780.512 2064,779.911L2064,774.089Z" style="fill:rgb(114,83,42);"/>
                                        </g>
                                        <g transform="matrix(0.333333,0,0,0.75,1232,120.25)">
                                            <path d="M2064,774.694C2064,773.759 2062.66,773 2061,773L2055,773C2053.34,773 2052,773.759 2052,774.694L2052,779.306C2052,780.241 2053.34,781 2055,781L2061,781C2062.66,781 2064,780.241 2064,779.306L2064,774.694Z" style="fill:rgb(114,83,42);"/>
                                        </g>
                                        <g transform="matrix(0.75,0,0,0.75,382,120.25)">
                                            <path d="M2064,775C2064,773.896 2063.3,773 2062.43,773L2053.57,773C2052.7,773 2052,773.896 2052,775L2052,779C2052,780.104 2052.7,781 2053.57,781L2062.43,781C2063.3,781 2064,780.104 2064,779L2064,775Z" style="fill:rgb(114,83,42);"/>
                                        </g>
                                    </g>
                                </g>
                                <g transform="matrix(0.201931,0,0,1,1502.88,-98)">
                                    <path d="M2137,764.74C2137,764.331 2135.71,764 2134.12,764L2049.88,764C2048.29,764 2047,764.331 2047,764.74L2047,768.26C2047,768.669 2048.29,769 2049.88,769L2134.12,769C2135.71,769 2137,768.669 2137,768.26L2137,764.74Z" style="fill:rgb(92,65,28);"/>
                                </g>
                                <g transform="matrix(0.192428,0,0,0.6,1522.76,212.6)">
                                    <path d="M2137,764.74C2137,764.331 2136.19,764 2135.18,764L2048.82,764C2047.81,764 2047,764.331 2047,764.74L2047,768.26C2047,768.669 2047.81,769 2048.82,769L2135.18,769C2136.19,769 2137,768.669 2137,768.26L2137,764.74Z" style="fill:rgb(137,99,52);"/>
                                </g>
                            </g>
                        </g>
                    </g>
                    <g transform="matrix(0.602226,-8.03711e-17,6.44492e-16,0.62628,24845.7,6659.35)">
                        <g transform="matrix(0.128836,0,-6.245e-17,0.0599155,-1520.61,2504.69)">
                            <rect x="39965.4" y="22176.5" width="1130.53" height="1709.18" style="fill:rgb(45,55,72);"/>
                        </g>
                        <g transform="matrix(0.128836,0,-6.245e-17,0.0599155,-1520.61,2504.69)">
                            <path d="M41095.9,23885.7L40710.5,22819.1L40359.9,22819.1L39965.4,23885.7L41095.9,23885.7Z" style="fill:rgb(32,39,51);"/>
                        </g>
                        <g transform="matrix(0.128836,0,-6.245e-17,0.0599155,-1520.61,2504.69)">
                            <path d="M41095.9,22176.5L39965.4,22176.5L40541.8,23344.2L41095.9,22176.5Z" style="fill:rgb(61,76,100);"/>
                        </g>
                    </g>
                </g>
                <g transform="matrix(-0.611371,-0.00518103,-0.00498204,0.635791,29150.1,1750.26)">
                    <clipPath id="_clip3">
                        <rect x="3291.91" y="11666.2" width="235.869" height="143.402"/>
                    </clipPath>
                    <g clip-path="url(#_clip3)">
                        <g transform="matrix(0.98056,0.196218,-0.165378,0.826446,1845.94,1603.67)">
                            <path d="M3462.99,11499.1C3459.15,11498.8 3453.28,11500 3451.43,11498.7C3449.58,11497.5 3453.49,11492.8 3451.91,11491.7C3450.33,11490.6 3443.27,11493.2 3441.97,11492C3440.67,11490.8 3442.34,11485.5 3444.09,11484.5C3445.84,11483.5 3451.18,11486.7 3452.44,11486C3453.71,11485.4 3453.34,11481.4 3451.68,11480.8C3449.3,11479.9 3440.38,11479.8 3438.12,11480.8C3436.33,11481.6 3438.86,11485.9 3438.12,11486.7C3437.39,11487.4 3434.94,11486.4 3433.71,11485.5C3431.97,11484.2 3427.22,11480.7 3427.69,11479.1C3428.16,11477.5 3434.78,11477.8 3436.55,11476C3438.31,11474.3 3439.68,11470 3438.28,11468.7C3436.88,11467.5 3430.25,11469 3428.14,11468.4C3426.8,11468 3426.97,11465.5 3425.65,11465.1C3423.64,11464.4 3416.07,11464.9 3416.11,11464.4C3416.15,11463.8 3424.27,11463.5 3425.9,11461.6C3427.53,11459.7 3424.55,11453.3 3425.9,11453.1C3427.25,11453 3432.44,11461.4 3434.02,11460.7C3435.6,11459.9 3436.12,11450.9 3435.36,11448.6C3434.72,11446.7 3430.02,11447 3429.45,11446.8C3428.87,11446.6 3431.09,11447.3 3431.91,11447.6C3432.9,11447.9 3434.21,11449 3435.36,11448.6C3437.78,11447.9 3446.34,11444.7 3446.45,11443.3C3446.56,11441.9 3438.92,11440.8 3436.01,11440.3C3433.72,11439.9 3429.85,11440.2 3429.01,11440.2C3428.35,11440.2 3430.37,11440.4 3431.01,11440.3C3432.77,11439.7 3438.34,11438.9 3439.62,11437.1C3440.9,11435.4 3438.78,11432.2 3438.67,11429.7C3438.56,11427.1 3437.87,11422.9 3438.97,11422C3440.08,11421.1 3443.73,11423.3 3445.3,11424.3C3446.61,11425 3447.32,11427 3448.42,11427.6C3449.46,11428.1 3451.34,11428.2 3451.93,11427.6C3452.51,11427 3451.16,11424.9 3451.93,11424C3453.11,11422.5 3457.53,11418.8 3459.05,11419C3460.57,11419.2 3459.64,11423.5 3461.04,11425.2C3462.44,11426.9 3466.32,11429.2 3467.45,11429.1C3468.59,11428.9 3467.9,11425.8 3467.85,11424.1C3467.78,11421.3 3468.76,11414.4 3467,11412.4C3465.24,11410.5 3460.08,11412.4 3457.27,11412.4L3450.14,11412.4C3449.67,11412.4 3453.93,11413.3 3454.48,11412.4C3455.03,11411.6 3454.89,11408.2 3453.43,11407.2C3451.53,11405.8 3444.8,11405.6 3443.07,11404.1C3441.59,11402.8 3441.86,11399.2 3443.07,11398.3C3444.28,11397.3 3449.58,11397.4 3450.34,11398.6C3451.1,11399.8 3446.99,11404.9 3447.65,11405.5C3448.32,11406.1 3453.21,11403.6 3454.32,11402.1C3455.43,11400.7 3454.63,11398.4 3454.32,11396.5C3454.02,11394.7 3451.64,11392 3452.49,11391.3C3453.34,11390.5 3457.32,11391.1 3459.42,11392.1C3461.86,11393.2 3465.94,11398.8 3467.13,11398.2C3468.31,11397.7 3465.69,11389.6 3466.55,11388.8C3467.41,11388 3470.6,11394.2 3472.3,11393.4C3474,11392.7 3475.44,11385.8 3476.76,11384.3C3477.53,11383.4 3479.13,11384.6 3480.26,11384.3C3481.71,11384 3485.18,11382.9 3485.47,11382.2C3485.76,11381.4 3481.94,11380.8 3481.99,11379.9C3482.04,11378.9 3484.48,11376.7 3485.76,11376.3C3487.03,11376 3489.05,11378.8 3489.66,11377.6C3490.56,11375.8 3490.09,11367.5 3491.16,11365.5C3491.91,11364 3494.56,11364.8 3496.03,11365.5C3497.93,11366.3 3500.3,11369.4 3502.53,11370.7C3504.66,11372 3507.38,11373.1 3509.45,11373.5C3511.23,11373.9 3513.26,11374.3 3514.92,11373.5C3517.01,11372.6 3520.39,11367.5 3521.98,11367.8C3523.57,11368.2 3522.74,11375.1 3524.46,11375.8C3526.19,11376.5 3531.06,11373.9 3532.33,11372.2C3533.61,11370.4 3531.53,11366 3532.11,11365.3C3532.68,11364.6 3535.74,11367 3535.78,11368.2C3535.82,11369.3 3532.71,11371 3532.33,11372.2C3531.99,11373.3 3532.35,11375.3 3533.5,11375.5C3535.45,11375.8 3542.28,11375.2 3544.01,11374.2C3545.46,11373.3 3543.91,11369.1 3543.91,11369.1C3543.91,11369.1 3542.88,11373.1 3544.01,11374.2C3545.15,11375.2 3548.51,11374.9 3550.73,11375.4C3553.82,11376.1 3561.15,11377 3562.56,11378.4C3563.96,11379.8 3558.78,11382.9 3559.18,11383.9C3559.58,11384.8 3563.03,11383.8 3564.95,11383.9C3567.15,11383.9 3571.11,11382.7 3572.34,11384.2C3573.57,11385.6 3573.68,11390.2 3572.34,11392.7C3570.96,11395.2 3563.6,11398.5 3564.07,11399.5C3564.54,11400.4 3573.95,11397.7 3575.16,11398.3C3576.37,11398.8 3570.66,11401.7 3571.33,11402.7C3572,11403.8 3577.01,11404.9 3579.18,11404.5C3581.35,11404 3582.47,11401.4 3584.34,11400.2C3586.36,11398.9 3589.66,11396.3 3591.32,11396.6C3592.98,11396.9 3594.82,11400.9 3594.31,11402C3593.81,11403.1 3589.29,11402.1 3588.28,11403.3C3587.28,11404.6 3586.67,11408.6 3588.28,11409.6C3589.9,11410.6 3596.07,11410.1 3597.99,11409.2C3599.68,11408.3 3598.69,11404.3 3599.81,11403.8C3600.93,11403.2 3604.14,11404.2 3604.72,11405.8C3605.36,11407.7 3603.05,11413.4 3603.67,11414.9C3604.26,11416.4 3607.1,11414.9 3608.41,11414.9C3609.47,11415 3611.26,11414.2 3611.57,11415.1C3611.89,11416.1 3609.43,11419.3 3610.3,11420.7C3611.17,11422.2 3614.86,11422.9 3616.79,11423.7C3618.47,11424.5 3620.82,11424.5 3621.9,11425.8C3622.98,11427 3623.31,11429.4 3623.28,11431.3C3623.24,11433.3 3620.29,11436.3 3621.67,11437.8C3623.06,11439.2 3630.34,11439 3631.58,11440C3632.76,11441 3630.4,11443.1 3629.11,11444C3626.99,11445.4 3619.41,11447.5 3618.82,11448.5C3618.24,11449.5 3624.56,11448.8 3625.61,11449.8C3626.66,11450.8 3625.13,11452.9 3625.12,11454.5C3625.11,11457.3 3626.93,11464.6 3625.53,11466.2C3624.13,11467.9 3617.95,11463.8 3616.73,11464.5C3615.51,11465.1 3617.01,11468.5 3618.2,11470C3619.41,11471.6 3623.07,11472.4 3624.04,11473.8C3624.92,11475 3625.15,11477.4 3624.04,11478.4C3622.93,11479.3 3617.42,11478.3 3617.39,11479.3C3617.36,11480.3 3623.9,11483.3 3623.84,11484.3C3623.78,11485.3 3616.83,11483.9 3617.04,11485.3C3617.25,11486.8 3625.18,11491.7 3625.09,11493C3625.01,11494.2 3619.16,11492.7 3616.52,11492.8C3614.1,11492.9 3610.97,11492.7 3609.27,11493.4C3607.77,11494.1 3606.82,11496 3606.33,11497.4C3605.86,11498.7 3607.45,11500.7 3606.33,11501.4C3604.18,11502.9 3597.97,11505.3 3593.48,11506.1C3588.01,11507 3577.12,11505.9 3573.51,11506.8C3571.93,11507.2 3573.07,11511 3571.83,11511.4C3570.6,11511.7 3567.79,11509.9 3566.11,11508.9C3564.51,11508 3563.55,11505.8 3561.74,11505.6C3559.5,11505.3 3554.63,11506.5 3552.71,11507.2C3551.56,11507.6 3551.4,11509.6 3550.22,11509.9C3548.55,11510.4 3545.11,11510.8 3542.72,11510.1C3538.25,11508.7 3529.11,11502.3 3523.41,11501.9C3518.11,11501.5 3513.05,11506.6 3508.5,11507.5C3504.45,11508.3 3500.22,11507.9 3496.11,11507.5C3491.48,11507 3483.45,11505.8 3480.72,11504.7C3479.46,11504.1 3480.96,11501.1 3479.67,11500.7C3476.71,11499.8 3467.7,11499.4 3462.99,11499.1Z" style="fill:rgb(34,94,63);"/>
                        </g>
                        <g transform="matrix(0.249137,-0.389373,0.704956,0.45106,-5521.31,7963.47)">
                            <path d="M3462.99,11499.1C3459.15,11498.8 3453.28,11500 3451.43,11498.7C3449.58,11497.5 3453.49,11492.8 3451.91,11491.7C3450.33,11490.6 3443.27,11493.2 3441.97,11492C3440.67,11490.8 3442.34,11485.5 3444.09,11484.5C3445.84,11483.5 3451.18,11486.7 3452.44,11486C3453.71,11485.4 3453.34,11481.4 3451.68,11480.8C3449.3,11479.9 3440.38,11479.8 3438.12,11480.8C3436.33,11481.6 3438.86,11485.9 3438.12,11486.7C3437.39,11487.4 3434.94,11486.4 3433.71,11485.5C3431.97,11484.2 3427.22,11480.7 3427.69,11479.1C3428.16,11477.5 3434.78,11477.8 3436.55,11476C3438.31,11474.3 3439.68,11470 3438.28,11468.7C3436.88,11467.5 3430.25,11469 3428.14,11468.4C3426.8,11468 3426.97,11465.5 3425.65,11465.1C3423.64,11464.4 3416.07,11464.9 3416.11,11464.4C3416.15,11463.8 3424.27,11463.5 3425.9,11461.6C3427.53,11459.7 3424.55,11453.3 3425.9,11453.1C3427.25,11453 3432.44,11461.4 3434.02,11460.7C3435.6,11459.9 3436.12,11450.9 3435.36,11448.6C3434.72,11446.7 3430.02,11447 3429.45,11446.8C3428.87,11446.6 3431.09,11447.3 3431.91,11447.6C3432.9,11447.9 3434.21,11449 3435.36,11448.6C3437.78,11447.9 3446.34,11444.7 3446.45,11443.3C3446.56,11441.9 3438.92,11440.8 3436.01,11440.3C3433.72,11439.9 3429.85,11440.2 3429.01,11440.2C3428.35,11440.2 3430.37,11440.4 3431.01,11440.3C3432.77,11439.7 3438.34,11438.9 3439.62,11437.1C3440.9,11435.4 3438.78,11432.2 3438.67,11429.7C3438.56,11427.1 3437.87,11422.9 3438.97,11422C3440.08,11421.1 3443.73,11423.3 3445.3,11424.3C3446.61,11425 3447.32,11427 3448.42,11427.6C3449.46,11428.1 3451.34,11428.2 3451.93,11427.6C3452.51,11427 3451.16,11424.9 3451.93,11424C3453.11,11422.5 3457.53,11418.8 3459.05,11419C3460.57,11419.2 3459.64,11423.5 3461.04,11425.2C3462.44,11426.9 3466.32,11429.2 3467.45,11429.1C3468.59,11428.9 3467.9,11425.8 3467.85,11424.1C3467.78,11421.3 3468.76,11414.4 3467,11412.4C3465.24,11410.5 3460.08,11412.4 3457.27,11412.4L3450.14,11412.4C3449.67,11412.4 3453.93,11413.3 3454.48,11412.4C3455.03,11411.6 3454.89,11408.2 3453.43,11407.2C3451.53,11405.8 3444.8,11405.6 3443.07,11404.1C3441.59,11402.8 3441.86,11399.2 3443.07,11398.3C3444.28,11397.3 3449.58,11397.4 3450.34,11398.6C3451.1,11399.8 3446.99,11404.9 3447.65,11405.5C3448.32,11406.1 3453.21,11403.6 3454.32,11402.1C3455.43,11400.7 3454.63,11398.4 3454.32,11396.5C3454.02,11394.7 3451.64,11392 3452.49,11391.3C3453.34,11390.5 3457.32,11391.1 3459.42,11392.1C3461.86,11393.2 3465.94,11398.8 3467.13,11398.2C3468.31,11397.7 3465.69,11389.6 3466.55,11388.8C3467.41,11388 3470.6,11394.2 3472.3,11393.4C3474,11392.7 3475.44,11385.8 3476.76,11384.3C3477.53,11383.4 3479.13,11384.6 3480.26,11384.3C3481.71,11384 3485.18,11382.9 3485.47,11382.2C3485.76,11381.4 3481.94,11380.8 3481.99,11379.9C3482.04,11378.9 3484.48,11376.7 3485.76,11376.3C3487.03,11376 3489.05,11378.8 3489.66,11377.6C3490.56,11375.8 3490.09,11367.5 3491.16,11365.5C3491.91,11364 3494.56,11364.8 3496.03,11365.5C3497.93,11366.3 3500.3,11369.4 3502.53,11370.7C3504.66,11372 3507.38,11373.1 3509.45,11373.5C3511.23,11373.9 3513.26,11374.3 3514.92,11373.5C3517.01,11372.6 3520.39,11367.5 3521.98,11367.8C3523.57,11368.2 3522.74,11375.1 3524.46,11375.8C3526.19,11376.5 3531.06,11373.9 3532.33,11372.2C3533.61,11370.4 3531.53,11366 3532.11,11365.3C3532.68,11364.6 3535.74,11367 3535.78,11368.2C3535.82,11369.3 3532.71,11371 3532.33,11372.2C3531.99,11373.3 3532.35,11375.3 3533.5,11375.5C3535.45,11375.8 3542.28,11375.2 3544.01,11374.2C3545.46,11373.3 3543.91,11369.1 3543.91,11369.1C3543.91,11369.1 3542.88,11373.1 3544.01,11374.2C3545.15,11375.2 3548.51,11374.9 3550.73,11375.4C3553.82,11376.1 3561.15,11377 3562.56,11378.4C3563.96,11379.8 3558.78,11382.9 3559.18,11383.9C3559.58,11384.8 3563.03,11383.8 3564.95,11383.9C3567.15,11383.9 3571.11,11382.7 3572.34,11384.2C3573.57,11385.6 3573.68,11390.2 3572.34,11392.7C3570.96,11395.2 3563.6,11398.5 3564.07,11399.5C3564.54,11400.4 3573.95,11397.7 3575.16,11398.3C3576.37,11398.8 3570.66,11401.7 3571.33,11402.7C3572,11403.8 3577.01,11404.9 3579.18,11404.5C3581.35,11404 3582.47,11401.4 3584.34,11400.2C3586.36,11398.9 3589.66,11396.3 3591.32,11396.6C3592.98,11396.9 3594.82,11400.9 3594.31,11402C3593.81,11403.1 3589.29,11402.1 3588.28,11403.3C3587.28,11404.6 3586.67,11408.6 3588.28,11409.6C3589.9,11410.6 3596.07,11410.1 3597.99,11409.2C3599.68,11408.3 3598.69,11404.3 3599.81,11403.8C3600.93,11403.2 3604.14,11404.2 3604.72,11405.8C3605.36,11407.7 3603.05,11413.4 3603.67,11414.9C3604.26,11416.4 3607.1,11414.9 3608.41,11414.9C3609.47,11415 3611.26,11414.2 3611.57,11415.1C3611.89,11416.1 3609.43,11419.3 3610.3,11420.7C3611.17,11422.2 3614.86,11422.9 3616.79,11423.7C3618.47,11424.5 3620.82,11424.5 3621.9,11425.8C3622.98,11427 3623.31,11429.4 3623.28,11431.3C3623.24,11433.3 3620.29,11436.3 3621.67,11437.8C3623.06,11439.2 3630.34,11439 3631.58,11440C3632.76,11441 3630.4,11443.1 3629.11,11444C3626.99,11445.4 3619.41,11447.5 3618.82,11448.5C3618.24,11449.5 3624.56,11448.8 3625.61,11449.8C3626.66,11450.8 3625.13,11452.9 3625.12,11454.5C3625.11,11457.3 3626.93,11464.6 3625.53,11466.2C3624.13,11467.9 3617.95,11463.8 3616.73,11464.5C3615.51,11465.1 3617.01,11468.5 3618.2,11470C3619.41,11471.6 3623.07,11472.4 3624.04,11473.8C3624.92,11475 3625.15,11477.4 3624.04,11478.4C3622.93,11479.3 3617.42,11478.3 3617.39,11479.3C3617.36,11480.3 3623.9,11483.3 3623.84,11484.3C3623.78,11485.3 3616.83,11483.9 3617.04,11485.3C3617.25,11486.8 3625.18,11491.7 3625.09,11493C3625.01,11494.2 3619.16,11492.7 3616.52,11492.8C3614.1,11492.9 3610.97,11492.7 3609.27,11493.4C3607.77,11494.1 3606.82,11496 3606.33,11497.4C3605.86,11498.7 3607.45,11500.7 3606.33,11501.4C3604.18,11502.9 3597.97,11505.3 3593.48,11506.1C3588.01,11507 3577.12,11505.9 3573.51,11506.8C3571.93,11507.2 3573.07,11511 3571.83,11511.4C3570.6,11511.7 3567.79,11509.9 3566.11,11508.9C3564.51,11508 3563.55,11505.8 3561.74,11505.6C3559.5,11505.3 3554.63,11506.5 3552.71,11507.2C3551.56,11507.6 3551.4,11509.6 3550.22,11509.9C3548.55,11510.4 3545.11,11510.8 3542.72,11510.1C3538.25,11508.7 3529.11,11502.3 3523.41,11501.9C3518.11,11501.5 3513.05,11506.6 3508.5,11507.5C3504.45,11508.3 3500.22,11507.9 3496.11,11507.5C3491.48,11507 3483.45,11505.8 3480.72,11504.7C3479.46,11504.1 3480.96,11501.1 3479.67,11500.7C3476.71,11499.8 3467.7,11499.4 3462.99,11499.1Z" style="fill:rgb(47,133,90);"/>
                        </g>
                        <g transform="matrix(-0.570947,0.0179041,0.0188999,0.602703,5169.22,4810.25)">
                            <path d="M3462.99,11499.1C3459.15,11498.8 3453.28,11500 3451.43,11498.7C3449.58,11497.5 3453.49,11492.8 3451.91,11491.7C3450.33,11490.6 3443.27,11493.2 3441.97,11492C3440.67,11490.8 3442.34,11485.5 3444.09,11484.5C3445.84,11483.5 3451.18,11486.7 3452.44,11486C3453.71,11485.4 3453.34,11481.4 3451.68,11480.8C3449.3,11479.9 3440.38,11479.8 3438.12,11480.8C3436.33,11481.6 3438.86,11485.9 3438.12,11486.7C3437.39,11487.4 3434.94,11486.4 3433.71,11485.5C3431.97,11484.2 3427.22,11480.7 3427.69,11479.1C3428.16,11477.5 3434.78,11477.8 3436.55,11476C3438.31,11474.3 3439.68,11470 3438.28,11468.7C3436.88,11467.5 3430.25,11469 3428.14,11468.4C3426.8,11468 3426.97,11465.5 3425.65,11465.1C3423.64,11464.4 3416.07,11464.9 3416.11,11464.4C3416.15,11463.8 3424.27,11463.5 3425.9,11461.6C3427.53,11459.7 3424.55,11453.3 3425.9,11453.1C3427.25,11453 3432.44,11461.4 3434.02,11460.7C3435.6,11459.9 3436.12,11450.9 3435.36,11448.6C3434.72,11446.7 3430.02,11447 3429.45,11446.8C3428.87,11446.6 3431.09,11447.3 3431.91,11447.6C3432.9,11447.9 3434.21,11449 3435.36,11448.6C3437.78,11447.9 3446.34,11444.7 3446.45,11443.3C3446.56,11441.9 3438.92,11440.8 3436.01,11440.3C3433.72,11439.9 3429.85,11440.2 3429.01,11440.2C3428.35,11440.2 3430.37,11440.4 3431.01,11440.3C3432.77,11439.7 3438.34,11438.9 3439.62,11437.1C3440.9,11435.4 3438.78,11432.2 3438.67,11429.7C3438.56,11427.1 3437.87,11422.9 3438.97,11422C3440.08,11421.1 3443.73,11423.3 3445.3,11424.3C3446.61,11425 3447.32,11427 3448.42,11427.6C3449.46,11428.1 3451.34,11428.2 3451.93,11427.6C3452.51,11427 3451.16,11424.9 3451.93,11424C3453.11,11422.5 3457.53,11418.8 3459.05,11419C3460.57,11419.2 3459.64,11423.5 3461.04,11425.2C3462.44,11426.9 3466.32,11429.2 3467.45,11429.1C3468.59,11428.9 3467.9,11425.8 3467.85,11424.1C3467.78,11421.3 3468.76,11414.4 3467,11412.4C3465.24,11410.5 3460.08,11412.4 3457.27,11412.4L3450.14,11412.4C3449.67,11412.4 3453.93,11413.3 3454.48,11412.4C3455.03,11411.6 3454.89,11408.2 3453.43,11407.2C3451.53,11405.8 3444.8,11405.6 3443.07,11404.1C3441.59,11402.8 3441.86,11399.2 3443.07,11398.3C3444.28,11397.3 3449.58,11397.4 3450.34,11398.6C3451.1,11399.8 3446.99,11404.9 3447.65,11405.5C3448.32,11406.1 3453.21,11403.6 3454.32,11402.1C3455.43,11400.7 3454.63,11398.4 3454.32,11396.5C3454.02,11394.7 3451.64,11392 3452.49,11391.3C3453.34,11390.5 3457.32,11391.1 3459.42,11392.1C3461.86,11393.2 3465.94,11398.8 3467.13,11398.2C3468.31,11397.7 3465.69,11389.6 3466.55,11388.8C3467.41,11388 3470.6,11394.2 3472.3,11393.4C3474,11392.7 3475.44,11385.8 3476.76,11384.3C3477.53,11383.4 3479.13,11384.6 3480.26,11384.3C3481.71,11384 3485.18,11382.9 3485.47,11382.2C3485.76,11381.4 3481.94,11380.8 3481.99,11379.9C3482.04,11378.9 3484.48,11376.7 3485.76,11376.3C3487.03,11376 3489.05,11378.8 3489.66,11377.6C3490.56,11375.8 3490.09,11367.5 3491.16,11365.5C3491.91,11364 3494.56,11364.8 3496.03,11365.5C3497.93,11366.3 3500.3,11369.4 3502.53,11370.7C3504.66,11372 3507.38,11373.1 3509.45,11373.5C3511.23,11373.9 3513.26,11374.3 3514.92,11373.5C3517.01,11372.6 3520.39,11367.5 3521.98,11367.8C3523.57,11368.2 3522.74,11375.1 3524.46,11375.8C3526.19,11376.5 3531.06,11373.9 3532.33,11372.2C3533.61,11370.4 3531.53,11366 3532.11,11365.3C3532.68,11364.6 3535.74,11367 3535.78,11368.2C3535.82,11369.3 3532.71,11371 3532.33,11372.2C3531.99,11373.3 3532.35,11375.3 3533.5,11375.5C3535.45,11375.8 3542.28,11375.2 3544.01,11374.2C3545.46,11373.3 3543.91,11369.1 3543.91,11369.1C3543.91,11369.1 3542.88,11373.1 3544.01,11374.2C3545.15,11375.2 3548.51,11374.9 3550.73,11375.4C3553.82,11376.1 3561.15,11377 3562.56,11378.4C3563.96,11379.8 3558.78,11382.9 3559.18,11383.9C3559.58,11384.8 3563.03,11383.8 3564.95,11383.9C3567.15,11383.9 3571.11,11382.7 3572.34,11384.2C3573.57,11385.6 3573.68,11390.2 3572.34,11392.7C3570.96,11395.2 3563.6,11398.5 3564.07,11399.5C3564.54,11400.4 3573.95,11397.7 3575.16,11398.3C3576.37,11398.8 3570.66,11401.7 3571.33,11402.7C3572,11403.8 3577.01,11404.9 3579.18,11404.5C3581.35,11404 3582.47,11401.4 3584.34,11400.2C3586.36,11398.9 3589.66,11396.3 3591.32,11396.6C3592.98,11396.9 3594.82,11400.9 3594.31,11402C3593.81,11403.1 3589.29,11402.1 3588.28,11403.3C3587.28,11404.6 3586.67,11408.6 3588.28,11409.6C3589.9,11410.6 3596.07,11410.1 3597.99,11409.2C3599.68,11408.3 3598.69,11404.3 3599.81,11403.8C3600.93,11403.2 3604.14,11404.2 3604.72,11405.8C3605.36,11407.7 3603.05,11413.4 3603.67,11414.9C3604.26,11416.4 3607.1,11414.9 3608.41,11414.9C3609.47,11415 3611.26,11414.2 3611.57,11415.1C3611.89,11416.1 3609.43,11419.3 3610.3,11420.7C3611.17,11422.2 3614.86,11422.9 3616.79,11423.7C3618.47,11424.5 3620.82,11424.5 3621.9,11425.8C3622.98,11427 3623.31,11429.4 3623.28,11431.3C3623.24,11433.3 3620.29,11436.3 3621.67,11437.8C3623.06,11439.2 3630.34,11439 3631.58,11440C3632.76,11441 3630.4,11443.1 3629.11,11444C3626.99,11445.4 3619.41,11447.5 3618.82,11448.5C3618.24,11449.5 3624.56,11448.8 3625.61,11449.8C3626.66,11450.8 3625.13,11452.9 3625.12,11454.5C3625.11,11457.3 3626.93,11464.6 3625.53,11466.2C3624.13,11467.9 3617.95,11463.8 3616.73,11464.5C3615.51,11465.1 3617.01,11468.5 3618.2,11470C3619.41,11471.6 3623.07,11472.4 3624.04,11473.8C3624.92,11475 3625.15,11477.4 3624.04,11478.4C3622.93,11479.3 3617.42,11478.3 3617.39,11479.3C3617.36,11480.3 3623.9,11483.3 3623.84,11484.3C3623.78,11485.3 3616.83,11483.9 3617.04,11485.3C3617.25,11486.8 3625.18,11491.7 3625.09,11493C3625.01,11494.2 3619.16,11492.7 3616.52,11492.8C3614.1,11492.9 3610.97,11492.7 3609.27,11493.4C3607.77,11494.1 3606.82,11496 3606.33,11497.4C3605.86,11498.7 3607.45,11500.7 3606.33,11501.4C3604.18,11502.9 3597.97,11505.3 3593.48,11506.1C3588.01,11507 3577.12,11505.9 3573.51,11506.8C3571.93,11507.2 3573.07,11511 3571.83,11511.4C3570.6,11511.7 3567.79,11509.9 3566.11,11508.9C3564.51,11508 3563.55,11505.8 3561.74,11505.6C3559.5,11505.3 3554.63,11506.5 3552.71,11507.2C3551.56,11507.6 3551.4,11509.6 3550.22,11509.9C3548.55,11510.4 3545.11,11510.8 3542.72,11510.1C3538.25,11508.7 3529.11,11502.3 3523.41,11501.9C3518.11,11501.5 3513.05,11506.6 3508.5,11507.5C3504.45,11508.3 3500.22,11507.9 3496.11,11507.5C3491.48,11507 3483.45,11505.8 3480.72,11504.7C3479.46,11504.1 3480.96,11501.1 3479.67,11500.7C3476.71,11499.8 3467.7,11499.4 3462.99,11499.1Z" style="fill:rgb(60,184,120);"/>
                        </g>
                        <g transform="matrix(0.934144,-0.111452,0.0499321,0.418508,-449.87,7386.34)">
                            <path d="M3462.99,11499.1C3459.15,11498.8 3453.28,11500 3451.43,11498.7C3449.58,11497.5 3453.49,11492.8 3451.91,11491.7C3450.33,11490.6 3443.27,11493.2 3441.97,11492C3440.67,11490.8 3442.34,11485.5 3444.09,11484.5C3445.84,11483.5 3451.18,11486.7 3452.44,11486C3453.71,11485.4 3453.34,11481.4 3451.68,11480.8C3449.3,11479.9 3440.38,11479.8 3438.12,11480.8C3436.33,11481.6 3438.86,11485.9 3438.12,11486.7C3437.39,11487.4 3434.94,11486.4 3433.71,11485.5C3431.97,11484.2 3427.22,11480.7 3427.69,11479.1C3428.16,11477.5 3434.78,11477.8 3436.55,11476C3438.31,11474.3 3439.68,11470 3438.28,11468.7C3436.88,11467.5 3430.25,11469 3428.14,11468.4C3426.8,11468 3426.97,11465.5 3425.65,11465.1C3423.64,11464.4 3416.07,11464.9 3416.11,11464.4C3416.15,11463.8 3424.27,11463.5 3425.9,11461.6C3427.53,11459.7 3424.55,11453.3 3425.9,11453.1C3427.25,11453 3432.44,11461.4 3434.02,11460.7C3435.6,11459.9 3436.12,11450.9 3435.36,11448.6C3434.72,11446.7 3430.02,11447 3429.45,11446.8C3428.87,11446.6 3431.09,11447.3 3431.91,11447.6C3432.9,11447.9 3434.21,11449 3435.36,11448.6C3437.78,11447.9 3446.34,11444.7 3446.45,11443.3C3446.56,11441.9 3438.92,11440.8 3436.01,11440.3C3433.72,11439.9 3429.85,11440.2 3429.01,11440.2C3428.35,11440.2 3430.37,11440.4 3431.01,11440.3C3432.77,11439.7 3438.34,11438.9 3439.62,11437.1C3440.9,11435.4 3438.78,11432.2 3438.67,11429.7C3438.56,11427.1 3437.87,11422.9 3438.97,11422C3440.08,11421.1 3443.73,11423.3 3445.3,11424.3C3446.61,11425 3447.32,11427 3448.42,11427.6C3449.46,11428.1 3451.34,11428.2 3451.93,11427.6C3452.51,11427 3451.16,11424.9 3451.93,11424C3453.11,11422.5 3457.53,11418.8 3459.05,11419C3460.57,11419.2 3459.64,11423.5 3461.04,11425.2C3462.44,11426.9 3466.32,11429.2 3467.45,11429.1C3468.59,11428.9 3467.9,11425.8 3467.85,11424.1C3467.78,11421.3 3468.76,11414.4 3467,11412.4C3465.24,11410.5 3460.08,11412.4 3457.27,11412.4L3450.14,11412.4C3449.67,11412.4 3453.93,11413.3 3454.48,11412.4C3455.03,11411.6 3454.89,11408.2 3453.43,11407.2C3451.53,11405.8 3444.8,11405.6 3443.07,11404.1C3441.59,11402.8 3441.86,11399.2 3443.07,11398.3C3444.28,11397.3 3449.58,11397.4 3450.34,11398.6C3451.1,11399.8 3446.99,11404.9 3447.65,11405.5C3448.32,11406.1 3453.21,11403.6 3454.32,11402.1C3455.43,11400.7 3454.63,11398.4 3454.32,11396.5C3454.02,11394.7 3451.64,11392 3452.49,11391.3C3453.34,11390.5 3457.32,11391.1 3459.42,11392.1C3461.86,11393.2 3465.94,11398.8 3467.13,11398.2C3468.31,11397.7 3465.69,11389.6 3466.55,11388.8C3467.41,11388 3470.6,11394.2 3472.3,11393.4C3474,11392.7 3475.44,11385.8 3476.76,11384.3C3477.53,11383.4 3479.13,11384.6 3480.26,11384.3C3481.71,11384 3485.18,11382.9 3485.47,11382.2C3485.76,11381.4 3481.94,11380.8 3481.99,11379.9C3482.04,11378.9 3484.48,11376.7 3485.76,11376.3C3487.03,11376 3489.05,11378.8 3489.66,11377.6C3490.56,11375.8 3490.09,11367.5 3491.16,11365.5C3491.91,11364 3494.56,11364.8 3496.03,11365.5C3497.93,11366.3 3500.3,11369.4 3502.53,11370.7C3504.66,11372 3507.38,11373.1 3509.45,11373.5C3511.23,11373.9 3513.26,11374.3 3514.92,11373.5C3517.01,11372.6 3520.39,11367.5 3521.98,11367.8C3523.57,11368.2 3522.74,11375.1 3524.46,11375.8C3526.19,11376.5 3531.06,11373.9 3532.33,11372.2C3533.61,11370.4 3531.53,11366 3532.11,11365.3C3532.68,11364.6 3535.74,11367 3535.78,11368.2C3535.82,11369.3 3532.71,11371 3532.33,11372.2C3531.99,11373.3 3532.35,11375.3 3533.5,11375.5C3535.45,11375.8 3542.28,11375.2 3544.01,11374.2C3545.46,11373.3 3543.91,11369.1 3543.91,11369.1C3543.91,11369.1 3542.88,11373.1 3544.01,11374.2C3545.15,11375.2 3548.51,11374.9 3550.73,11375.4C3553.82,11376.1 3561.15,11377 3562.56,11378.4C3563.96,11379.8 3558.78,11382.9 3559.18,11383.9C3559.58,11384.8 3563.03,11383.8 3564.95,11383.9C3567.15,11383.9 3571.11,11382.7 3572.34,11384.2C3573.57,11385.6 3573.68,11390.2 3572.34,11392.7C3570.96,11395.2 3563.6,11398.5 3564.07,11399.5C3564.54,11400.4 3573.95,11397.7 3575.16,11398.3C3576.37,11398.8 3570.66,11401.7 3571.33,11402.7C3572,11403.8 3577.01,11404.9 3579.18,11404.5C3581.35,11404 3582.47,11401.4 3584.34,11400.2C3586.36,11398.9 3589.66,11396.3 3591.32,11396.6C3592.98,11396.9 3594.82,11400.9 3594.31,11402C3593.81,11403.1 3589.29,11402.1 3588.28,11403.3C3587.28,11404.6 3586.67,11408.6 3588.28,11409.6C3589.9,11410.6 3596.07,11410.1 3597.99,11409.2C3599.68,11408.3 3598.69,11404.3 3599.81,11403.8C3600.93,11403.2 3604.14,11404.2 3604.72,11405.8C3605.36,11407.7 3603.05,11413.4 3603.67,11414.9C3604.26,11416.4 3607.1,11414.9 3608.41,11414.9C3609.47,11415 3611.26,11414.2 3611.57,11415.1C3611.89,11416.1 3609.43,11419.3 3610.3,11420.7C3611.17,11422.2 3614.86,11422.9 3616.79,11423.7C3618.47,11424.5 3620.82,11424.5 3621.9,11425.8C3622.98,11427 3623.31,11429.4 3623.28,11431.3C3623.24,11433.3 3620.29,11436.3 3621.67,11437.8C3623.06,11439.2 3630.34,11439 3631.58,11440C3632.76,11441 3630.4,11443.1 3629.11,11444C3626.99,11445.4 3619.41,11447.5 3618.82,11448.5C3618.24,11449.5 3624.56,11448.8 3625.61,11449.8C3626.66,11450.8 3625.13,11452.9 3625.12,11454.5C3625.11,11457.3 3626.93,11464.6 3625.53,11466.2C3624.13,11467.9 3617.95,11463.8 3616.73,11464.5C3615.51,11465.1 3617.01,11468.5 3618.2,11470C3619.41,11471.6 3623.07,11472.4 3624.04,11473.8C3624.92,11475 3625.15,11477.4 3624.04,11478.4C3622.93,11479.3 3617.42,11478.3 3617.39,11479.3C3617.36,11480.3 3623.9,11483.3 3623.84,11484.3C3623.78,11485.3 3616.83,11483.9 3617.04,11485.3C3617.25,11486.8 3625.18,11491.7 3625.09,11493C3625.01,11494.2 3619.16,11492.7 3616.52,11492.8C3614.1,11492.9 3610.97,11492.7 3609.27,11493.4C3607.77,11494.1 3606.82,11496 3606.33,11497.4C3605.86,11498.7 3607.45,11500.7 3606.33,11501.4C3604.18,11502.9 3597.97,11505.3 3593.48,11506.1C3588.01,11507 3577.12,11505.9 3573.51,11506.8C3571.93,11507.2 3573.07,11511 3571.83,11511.4C3570.6,11511.7 3567.79,11509.9 3566.11,11508.9C3564.51,11508 3563.55,11505.8 3561.74,11505.6C3559.5,11505.3 3554.63,11506.5 3552.71,11507.2C3551.56,11507.6 3551.4,11509.6 3550.22,11509.9C3548.55,11510.4 3545.11,11510.8 3542.72,11510.1C3538.25,11508.7 3529.11,11502.3 3523.41,11501.9C3518.11,11501.5 3513.05,11506.6 3508.5,11507.5C3504.45,11508.3 3500.22,11507.9 3496.11,11507.5C3491.48,11507 3483.45,11505.8 3480.72,11504.7C3479.46,11504.1 3480.96,11501.1 3479.67,11500.7C3476.71,11499.8 3467.7,11499.4 3462.99,11499.1Z" style="fill:rgb(34,84,61);"/>
                        </g>
                    </g>
                </g>
                <g transform="matrix(-0.373971,0.989767,3.33919,1.36447,26198,-5802.85)">
                    <g transform="matrix(0.922852,0,0,0.263036,877.204,-101.623)">
                        <path d="M12920.2,6776.83C12920.2,6776.83 12943.6,6800.56 12959.3,6819.64C12966.7,6828.56 12972.3,6836.53 12973.3,6840.69C12973.5,6841.43 12973,6842.15 12972.3,6842.32C12971.6,6842.49 12970.8,6842.04 12970.7,6841.31C12969.8,6837.31 12964.5,6829.63 12957.7,6820.93C12942.5,6801.47 12919.8,6777.17 12919.8,6777.17C12919.7,6777.07 12919.7,6776.92 12919.8,6776.82C12919.9,6776.73 12920.1,6776.73 12920.2,6776.83Z" style="fill:rgb(238,78,79);"/>
                    </g>
                    <g transform="matrix(0.922852,0,0,0.263036,877.204,-101.623)">
                        <path d="M12967,6829C12966.5,6828.33 12967,6824.76 12968,6823C12969.3,6820.67 12973,6817 12975,6815C12976.5,6813.49 12978.5,6811.5 12980,6811C12981.3,6810.57 12983.3,6810.83 12984,6812C12984.7,6813.17 12985,6816.33 12984,6818C12983,6819.67 12980,6820.63 12978,6822C12975.8,6823.5 12972.8,6825.83 12971,6827C12969.7,6827.8 12967.5,6829.67 12967,6829Z" style="fill:rgb(206,51,49);"/>
                    </g>
                    <g transform="matrix(0.922852,0,0,0.263036,868.898,-104.254)">
                        <path d="M12967,6829C12966.5,6828.33 12967,6824.76 12968,6823C12969.3,6820.67 12973,6817 12975,6815C12976.5,6813.49 12978.5,6811.5 12980,6811C12981.3,6810.57 12983.3,6810.83 12984,6812C12984.7,6813.17 12985,6816.33 12984,6818C12983,6819.67 12980,6820.63 12978,6822C12975.8,6823.5 12972.8,6825.83 12971,6827C12969.7,6827.8 12967.5,6829.67 12967,6829Z" style="fill:rgb(206,51,49);"/>
                    </g>
                    <g transform="matrix(0.912363,-0.0395443,0.13874,0.260046,49.5649,426.356)">
                        <path d="M12967,6829C12966.5,6828.33 12967,6824.76 12968,6823C12969.3,6820.67 12973,6817 12975,6815C12976.5,6813.49 12978.5,6811.5 12980,6811C12981.3,6810.57 12983.3,6810.83 12984,6812C12984.7,6813.17 12985,6816.33 12984,6818C12983,6819.67 12980,6820.63 12978,6822C12975.8,6823.5 12972.8,6825.83 12971,6827C12969.7,6827.8 12967.5,6829.67 12967,6829Z" style="fill:rgb(206,51,49);"/>
                    </g>
                    <g transform="matrix(0.89532,-0.0637702,0.223736,0.255188,-319.107,770.679)">
                        <path d="M12967,6829C12966.5,6828.33 12967,6824.76 12968,6823C12969.3,6820.67 12973,6817 12975,6815C12976.5,6813.49 12978.5,6811.5 12980,6811C12981.3,6810.57 12983.3,6810.83 12984,6812C12984.7,6813.17 12985,6816.33 12984,6818C12983,6819.67 12980,6820.63 12978,6822C12975.8,6823.5 12972.8,6825.83 12971,6827C12969.7,6827.8 12967.5,6829.67 12967,6829Z" style="fill:rgb(206,51,49);"/>
                    </g>
                    <g transform="matrix(0.611896,-0.043583,0.15291,0.174405,3831.37,1057.96)">
                        <path d="M12967,6829C12966.5,6828.33 12967,6824.76 12968,6823C12969.3,6820.67 12973,6817 12975,6815C12976.5,6813.49 12978.5,6811.5 12980,6811C12981.3,6810.57 12983.3,6810.83 12984,6812C12984.7,6813.17 12985,6816.33 12984,6818C12983,6819.67 12980,6820.63 12978,6822C12975.8,6823.5 12972.8,6825.83 12971,6827C12969.7,6827.8 12967.5,6829.67 12967,6829Z" style="fill:rgb(206,51,49);"/>
                    </g>
                    <g transform="matrix(-0.327531,0.245912,0.862774,0.0933544,11197.9,-2131.03)">
                        <path d="M12967,6829C12966.5,6828.33 12967,6824.76 12968,6823C12969.3,6820.67 12973,6817 12975,6815C12976.5,6813.49 12978.5,6811.5 12980,6811C12981.3,6810.57 12983.3,6810.83 12984,6812C12984.7,6813.17 12985,6816.33 12984,6818C12983,6819.67 12980,6820.63 12978,6822C12975.8,6823.5 12972.8,6825.83 12971,6827C12969.7,6827.8 12967.5,6829.67 12967,6829Z" style="fill:rgb(206,51,49);"/>
                    </g>
                    <g transform="matrix(-0.327531,0.245912,0.862774,0.0933544,11192.2,-2134.18)">
                        <path d="M12967,6829C12966.5,6828.33 12967,6824.76 12968,6823C12969.3,6820.67 12973,6817 12975,6815C12976.5,6813.49 12978.5,6811.5 12980,6811C12981.3,6810.57 12983.3,6810.83 12984,6812C12984.7,6813.17 12985,6816.33 12984,6818C12983,6819.67 12980,6820.63 12978,6822C12975.8,6823.5 12972.8,6825.83 12971,6827C12969.7,6827.8 12967.5,6829.67 12967,6829Z" style="fill:rgb(206,51,49);"/>
                    </g>
                    <g transform="matrix(-0.453516,0.229082,0.803728,0.129263,13219.7,-2164.18)">
                        <path d="M12967,6829C12966.5,6828.33 12967,6824.76 12968,6823C12969.3,6820.67 12973,6817 12975,6815C12976.5,6813.49 12978.5,6811.5 12980,6811C12981.3,6810.57 12983.3,6810.83 12984,6812C12984.7,6813.17 12985,6816.33 12984,6818C12983,6819.67 12980,6820.63 12978,6822C12975.8,6823.5 12972.8,6825.83 12971,6827C12969.7,6827.8 12967.5,6829.67 12967,6829Z" style="fill:rgb(206,51,49);"/>
                    </g>
                    <g transform="matrix(-0.52693,0.215943,0.757628,0.150188,14477.2,-2139.43)">
                        <path d="M12967,6829C12966.5,6828.33 12967,6824.76 12968,6823C12969.3,6820.67 12973,6817 12975,6815C12976.5,6813.49 12978.5,6811.5 12980,6811C12981.3,6810.57 12983.3,6810.83 12984,6812C12984.7,6813.17 12985,6816.33 12984,6818C12983,6819.67 12980,6820.63 12978,6822C12975.8,6823.5 12972.8,6825.83 12971,6827C12969.7,6827.8 12967.5,6829.67 12967,6829Z" style="fill:rgb(206,51,49);"/>
                    </g>
                    <g transform="matrix(-0.360124,0.147584,0.517792,0.102644,13943.7,-930.705)">
                        <path d="M12967,6829C12966.5,6828.33 12967,6824.76 12968,6823C12969.3,6820.67 12973,6817 12975,6815C12976.5,6813.49 12978.5,6811.5 12980,6811C12981.3,6810.57 12983.3,6810.83 12984,6812C12984.7,6813.17 12985,6816.33 12984,6818C12983,6819.67 12980,6820.63 12978,6822C12975.8,6823.5 12972.8,6825.83 12971,6827C12969.7,6827.8 12967.5,6829.67 12967,6829Z" style="fill:rgb(206,51,49);"/>
                    </g>
                    <g transform="matrix(0.922852,0,0,0.263036,877.204,-101.623)">
                        <path d="M12928,6786C12927,6786 12924.5,6785.81 12923,6785C12921.2,6784 12918,6781.67 12917,6780C12916.1,6778.57 12916.3,6775.83 12917,6775C12917.7,6774.17 12918.7,6773.74 12920,6774C12921.7,6774.33 12925.7,6775.83 12927,6777C12928.3,6778.17 12928.7,6780.67 12929,6782C12929.2,6782.97 12929.2,6784.33 12929,6785C12928.9,6785.46 12928.5,6786 12928,6786Z" style="fill:rgb(206,51,49);"/>
                    </g>
                </g>
            </g>
        </g>
    </g>
    <defs>
        <linearGradient id="_Linear2" x1="0" y1="0" x2="1" y2="0" gradientUnits="userSpaceOnUse" gradientTransform="matrix(75,29,-29,75,12660,7030)"><stop offset="0" style="stop-color:rgb(1,29,31);stop-opacity:1"/><stop offset="0.51" style="stop-color:rgb(19,60,65);stop-opacity:1"/><stop offset="1" style="stop-color:rgb(25,71,76);stop-opacity:1"/></linearGradient>
    </defs>
</svg>
