<?xml version="1.0" encoding="UTF-8" standalone="no"?>
<!DOCTYPE svg PUBLIC "-//W3C//DTD SVG 1.1//EN" "http://www.w3.org/Graphics/SVG/1.1/DTD/svg11.dtd">
<svg width="100%" height="100%" viewBox="0 0 171 155" version="1.1" xmlns="http://www.w3.org/2000/svg" xmlns:xlink="http://www.w3.org/1999/xlink" xml:space="preserve" xmlns:serif="http://www.serif.com/" style="fill-rule:evenodd;clip-rule:evenodd;stroke-linejoin:round;stroke-miterlimit:2;">
    <g transform="matrix(1,0,0,1,-21462,-7495)">
        <g id="Plan-de-travail38" serif:id="Plan de travail38" transform="matrix(0.795349,0,0,0.72093,4225.2,2090.91)">
            <rect x="21672" y="7496" width="215" height="215" style="fill:none;"/>
            <clipPath id="_clip1">
                <rect x="21672" y="7496" width="215" height="215"/>
            </clipPath>
            <g clip-path="url(#_clip1)">
                <g transform="matrix(1.25731,0,0,1.3871,-6304.29,-3306.71)">
                    <g transform="matrix(0.682985,0,0,0.846577,7604.2,4595.77)">
                        <g transform="matrix(0.711823,0,0,0.500212,20868.5,2803.2)">
                            <path d="M991.012,1963.7C1055.86,1963.7 1082.21,2012.39 1082.21,2108.43C1082.21,2127.81 1078.26,2145.94 1073.12,2162.53C1069.69,2173.56 1065.74,2195.43 1062.07,2205.01C1043.91,2252.41 1000.27,2281.11 972.5,2281.11C947.122,2281.11 909.007,2254.95 893.241,2211.77C888.856,2199.76 884.19,2174.92 880.463,2160.48C876.214,2144.01 873.185,2126.09 873.185,2107C873.185,2010.97 926.162,1963.7 991.012,1963.7Z" style="fill:rgb(241,198,170);"/>
                        </g>
                        <g transform="matrix(2.35099,0,0,1.89669,-29077.5,-11066.5)">
                            <path d="M21537,7838C21535.2,7837.17 21531.8,7835.17 21532,7833C21532.2,7830.83 21534.8,7826.01 21538,7825C21541.7,7823.83 21549.2,7823.61 21554,7826C21559.7,7828.83 21567.3,7835.52 21572,7842C21577,7848.83 21581.3,7859.33 21584,7867C21586.3,7873.73 21586.6,7881.01 21588,7888C21589.5,7895.5 21591.5,7906.17 21593,7912C21594,7915.78 21595.5,7920.5 21597,7923C21598.1,7924.83 21602.7,7927 21602,7927C21601.3,7927 21594.8,7924.83 21593,7923C21591.3,7921.28 21591.2,7915.33 21591,7916C21590.8,7916.67 21591,7923.45 21592,7927C21593.2,7931.33 21596.8,7937.33 21598,7942C21599.1,7946.22 21599.5,7954.33 21599,7955C21598.5,7955.67 21596.2,7949.07 21595,7946C21593.7,7942.5 21591.5,7933.83 21591,7934C21590.5,7934.17 21591.2,7943.67 21592,7947C21592.7,7949.61 21595.3,7951.42 21596,7954C21597,7957.5 21599,7963.67 21598,7968C21597,7972.33 21591.8,7977.67 21590,7980C21589.3,7980.95 21588.2,7981.96 21587,7982C21581.7,7982.17 21561.8,7982.67 21558,7981C21554.7,7979.56 21562.7,7975.37 21564,7972C21565.3,7968.5 21566.7,7960.33 21566,7960C21565.3,7959.67 21561.2,7967.67 21560,7970C21559.4,7971.23 21559.3,7974.5 21559,7974C21558.7,7973.5 21557.6,7969.32 21558,7967C21558.7,7963.5 21562.2,7957.67 21563,7953C21563.8,7948.41 21563.7,7943.62 21563,7939C21562.3,7934.33 21559.6,7929.82 21559,7925C21558.3,7919.33 21558.5,7910.67 21559,7905C21559.4,7900.25 21560.8,7895.61 21562,7891C21563.5,7885.33 21568.3,7877.95 21568,7871C21567.7,7863.83 21562.2,7853 21560,7848C21558.9,7845.37 21556.8,7842.83 21555,7841C21553.3,7839.3 21551,7837.5 21549,7837C21547,7836.51 21545,7837.83 21543,7838C21541,7838.17 21538.8,7838.83 21537,7838Z" style="fill:rgb(98,66,41);"/>
                        </g>
                        <g transform="matrix(2.35099,0,0,1.89669,-29077.5,-11066.5)">
                            <path d="M21533.7,7828.83C21531.2,7829.33 21523.3,7832.87 21520,7837C21515.4,7842.7 21509.3,7856 21506,7863C21503.6,7868.14 21500.8,7873.36 21500,7879C21499.2,7885 21501.7,7894.33 21501,7899C21500.6,7902.11 21497.5,7904.26 21496,7907C21493.8,7910.83 21490.8,7918.83 21488,7922C21485.8,7924.45 21478.5,7925.83 21479,7926C21479.5,7926.17 21487.9,7925.68 21491,7923C21494.5,7920 21499.2,7908.33 21500,7908C21500.8,7907.67 21498,7917.5 21496,7921C21494.1,7924.27 21490.8,7927.17 21488,7929C21485.3,7930.72 21481,7931 21479,7932C21477.7,7932.63 21476.7,7933.76 21476,7935C21474.8,7937.17 21472.8,7941.49 21472,7945C21471,7949.5 21470.2,7957.67 21470,7962C21469.9,7965.02 21470.5,7971.67 21471,7971C21471.5,7970.33 21472.3,7962 21473,7958C21473.6,7954.32 21473.7,7949.83 21475,7947C21476.2,7944.44 21480,7940 21481,7941C21482,7942 21481,7949 21481,7953C21481,7958.67 21480.8,7970.33 21481,7975C21481.1,7977.03 21480,7980.7 21482,7981C21487.5,7981.83 21508.3,7981.67 21514,7980C21516.9,7979.13 21515.9,7974.07 21516,7971C21516.2,7967.17 21514.5,7957.83 21515,7957C21515.5,7956.17 21518.3,7963.5 21519,7966C21519.5,7967.93 21518.5,7972.5 21519,7972C21519.5,7971.5 21521.9,7966.16 21522,7963C21522.2,7959.5 21520.8,7954.98 21520,7951C21519.2,7946.83 21517,7942.17 21517,7938C21517,7933.88 21519,7929.67 21520,7926C21520.9,7922.64 21522.8,7919.48 21523,7916C21523.2,7912.33 21522.2,7907.88 21521,7904C21519.5,7899 21515.2,7891.17 21514,7886C21513,7881.77 21513.8,7877.33 21514,7873C21514.2,7868.5 21513.8,7863.53 21515,7859C21516.3,7853.83 21519.3,7846 21522,7842C21524.1,7838.84 21528.8,7836.33 21531,7835C21532.2,7834.28 21534.5,7835.03 21535,7834C21535.5,7832.97 21535.4,7828.48 21533.7,7828.83Z" style="fill:rgb(98,66,41);"/>
                        </g>
                    </g>
                    <g transform="matrix(0.429605,0,0,0.371439,12990.2,1715.36)">
                        <g transform="matrix(1,0,0,1.001,-3446,-86.5539)">
                            <path d="M25143,16726C25143,16726 25157.8,16737.2 25166,16739.4C25175.5,16741.9 25183.8,16743.6 25193,16743.4C25200.2,16743.3 25214.2,16740.8 25221,16738.4C25228,16735.9 25242,16726 25242,16726L25192,16723L25143,16726Z" style="fill:rgb(140,25,31);"/>
                        </g>
                        <g transform="matrix(1,0,0,1.001,-3446,-86.5539)">
                            <path d="M25170.4,16713.5C25172.3,16712.3 25177.3,16711.5 25179.7,16711.5C25182.8,16711.5 25189.4,16712.8 25191.5,16714.8C25193.6,16712.8 25200.2,16711.5 25203.3,16711.5C25205.1,16711.5 25212.7,16713.1 25213.6,16713.5C25220.7,16716.7 25243,16726 25243,16726L25193,16727.9L25193,16728L25192,16728L25191,16728L25191,16727.9L25141,16726C25141,16726 25163.3,16716.7 25170.4,16713.5C25170.4,16713.5 25170.4,16713.5 25170.4,16713.5Z" style="fill:rgb(172,25,29);"/>
                        </g>
                    </g>
                    <g transform="matrix(1,0,0,1,-0.576242,0)">
                        <g transform="matrix(1,0,0,1,0,-1.29365)">
                            <g transform="matrix(0.602796,1.38778e-17,3.46945e-18,0.602796,16108.1,4886.91)">
                                <path d="M10384.8,4937.66C10384.8,4937.66 10388.1,4938.73 10390.8,4937.71C10392.4,4937.1 10393.8,4935.79 10394.1,4933.01C10394.1,4932.98 10394,4932.95 10394,4932.94C10394,4932.94 10393.9,4932.96 10393.9,4932.99C10393.6,4934.92 10392.7,4936.02 10391.6,4936.6C10389,4938.01 10385.2,4936.34 10385.2,4936.34C10384.9,4936.2 10384.5,4936.39 10384.3,4936.75C10384.2,4937.12 10384.4,4937.52 10384.8,4937.66Z" style="fill:rgb(18,12,12);"/>
                            </g>
                            <g transform="matrix(0.602796,1.38778e-17,3.46945e-18,0.602796,16106.3,4886.3)">
                                <path d="M10384.8,4937.66C10384.8,4937.66 10388.1,4938.73 10390.8,4937.71C10392.4,4937.1 10393.8,4935.79 10394.1,4933.01C10394.1,4932.98 10394,4932.95 10394,4932.94C10394,4932.94 10393.9,4932.96 10393.9,4932.99C10393.6,4934.92 10392.7,4936.02 10391.6,4936.6C10389,4938.01 10385.2,4936.34 10385.2,4936.34C10384.9,4936.2 10384.5,4936.39 10384.3,4936.75C10384.2,4937.12 10384.4,4937.52 10384.8,4937.66Z" style="fill:rgb(18,12,12);"/>
                            </g>
                            <g transform="matrix(0.602796,1.38778e-17,3.46945e-18,0.602796,16105.1,4885.7)">
                                <path d="M10384.8,4937.66C10384.8,4937.66 10388.1,4938.73 10390.8,4937.71C10392.4,4937.1 10393.8,4935.79 10394.1,4933.01C10394.1,4932.98 10394,4932.95 10394,4932.94C10394,4932.94 10393.9,4932.96 10393.9,4932.99C10393.6,4934.92 10392.7,4936.02 10391.6,4936.6C10389,4938.01 10385.2,4936.34 10385.2,4936.34C10384.9,4936.2 10384.5,4936.39 10384.3,4936.75C10384.2,4937.12 10384.4,4937.52 10384.8,4937.66Z" style="fill:rgb(18,12,12);"/>
                            </g>
                            <g transform="matrix(-0.0598048,-1.30104e-18,4.33681e-19,0.0673142,22801.1,6700.25)">
                                <path d="M7195.17,17312.8C7163.46,17301.4 7323.82,17207.9 7418.07,17207.9C7512.32,17207.9 7650.22,17307.3 7640.97,17312.8C7614.51,17328.5 7495.39,17254.4 7409.63,17254.4C7323.87,17254.4 7202.74,17315.6 7195.17,17312.8Z" style="fill:rgb(18,12,12);"/>
                            </g>
                        </g>
                        <g transform="matrix(1,0,0,1,0,1.29365)">
                            <g transform="matrix(-0.602796,-2.77556e-16,-2.60209e-16,0.602796,28558.4,4884.32)">
                                <path d="M10385.3,4936.3C10385.3,4936.3 10389,4937.98 10391.6,4936.59C10392.7,4936.01 10393.5,4934.91 10393.9,4932.99C10393.9,4932.96 10394,4932.93 10394,4932.94C10394,4932.94 10394.1,4932.98 10394.1,4933.01C10393.8,4935.8 10392.4,4937.12 10390.8,4937.73C10388.1,4938.77 10384.7,4937.7 10384.7,4937.7C10384.4,4937.55 10384.2,4937.12 10384.3,4936.74C10384.4,4936.35 10384.9,4936.16 10385.3,4936.3Z" style="fill:rgb(18,12,12);"/>
                            </g>
                            <g transform="matrix(-0.602796,-2.77556e-16,-2.60209e-16,0.602796,28560.2,4883.72)">
                                <path d="M10385.3,4936.3C10385.3,4936.3 10389,4937.98 10391.6,4936.59C10392.7,4936.01 10393.5,4934.91 10393.9,4932.99C10393.9,4932.96 10394,4932.93 10394,4932.94C10394,4932.94 10394.1,4932.98 10394.1,4933.01C10393.8,4935.8 10392.4,4937.12 10390.8,4937.73C10388.1,4938.77 10384.7,4937.7 10384.7,4937.7C10384.4,4937.55 10384.2,4937.12 10384.3,4936.74C10384.4,4936.35 10384.9,4936.16 10385.3,4936.3Z" style="fill:rgb(18,12,12);"/>
                            </g>
                            <g transform="matrix(-0.602796,-2.77556e-16,-2.60209e-16,0.602796,28561.4,4883.11)">
                                <path d="M10385.3,4936.3C10385.3,4936.3 10389,4937.98 10391.6,4936.59C10392.7,4936.01 10393.5,4934.91 10393.9,4932.99C10393.9,4932.96 10394,4932.93 10394,4932.94C10394,4932.94 10394.1,4932.98 10394.1,4933.01C10393.8,4935.8 10392.4,4937.12 10390.8,4937.73C10388.1,4938.77 10384.7,4937.7 10384.7,4937.7C10384.4,4937.55 10384.2,4937.12 10384.3,4936.74C10384.4,4936.35 10384.9,4936.16 10385.3,4936.3Z" style="fill:rgb(18,12,12);"/>
                            </g>
                            <g transform="matrix(0.0598048,2.73219e-17,-2.90566e-17,0.0673142,21865.4,6697.67)">
                                <path d="M7195.17,17312.8C7163.46,17301.4 7323.82,17207.9 7418.07,17207.9C7512.32,17207.9 7650.22,17307.3 7640.97,17312.8C7614.51,17328.5 7495.39,17254.4 7409.63,17254.4C7323.87,17254.4 7202.74,17315.6 7195.17,17312.8Z" style="fill:rgb(18,12,12);"/>
                            </g>
                        </g>
                        <g transform="matrix(-0.371539,-0.0550302,-0.0550302,0.371539,32382.4,7914.86)">
                            <path d="M26389,3744C26389,3744 26404.4,3726.6 26415,3725C26427.2,3723.17 26452.3,3730.5 26462,3733C26466.2,3734.09 26469.3,3734.9 26470.9,3737.74C26472.6,3740.57 26471.8,3742.53 26469.9,3744.53C26468.1,3746.53 26464.4,3746.03 26461.1,3745.5C26455.7,3744.67 26446.4,3740.79 26439.1,3738.5C26431.6,3736.17 26424.1,3734.87 26416.1,3734.71C26407.6,3734.54 26389,3744 26389,3744Z" style="fill:rgb(98,66,41);"/>
                        </g>
                        <g transform="matrix(0.371531,-0.0550798,0.0550798,0.371531,12281.9,7916.2)">
                            <path d="M26389,3744C26389,3744 26404.4,3726.6 26415,3725C26427.2,3723.17 26452.3,3730.5 26462,3733C26466.2,3734.09 26469.3,3734.9 26470.9,3737.74C26472.6,3740.57 26471.8,3742.53 26469.9,3744.53C26468.1,3746.53 26464.4,3746.03 26461.1,3745.5C26455.7,3744.67 26446.4,3740.79 26439.1,3738.5C26431.6,3736.17 26424.1,3734.87 26416.1,3734.71C26407.6,3734.54 26389,3744 26389,3744Z" style="fill:rgb(98,66,41);"/>
                        </g>
                    </g>
                </g>
            </g>
        </g>
    </g>
</svg>
