<?xml version="1.0" encoding="UTF-8" standalone="no"?>
<!DOCTYPE svg PUBLIC "-//W3C//DTD SVG 1.1//EN" "http://www.w3.org/Graphics/SVG/1.1/DTD/svg11.dtd">
<svg width="100%" height="100%" viewBox="0 0 163 126" version="1.1" xmlns="http://www.w3.org/2000/svg" xmlns:xlink="http://www.w3.org/1999/xlink" xml:space="preserve" xmlns:serif="http://www.serif.com/" style="fill-rule:evenodd;clip-rule:evenodd;stroke-linejoin:round;stroke-miterlimit:2;">
    <g transform="matrix(1,0,0,1,-21843,-7495)">
        <g id="Plan-de-travail38" serif:id="Plan de travail38" transform="matrix(0.75814,0,0,0.586047,5412.6,3102)">
            <rect x="21672" y="7496" width="215" height="215" style="fill:none;"/>
            <clipPath id="_clip1">
                <rect x="21672" y="7496" width="215" height="215"/>
            </clipPath>
            <g clip-path="url(#_clip1)">
                <g transform="matrix(0.968565,0,0,1.25298,828.775,-2548.74)">
                    <g transform="matrix(1,0,0,1,-433,35)">
                        <path d="M22003,8011C22003.3,8008 22002.2,8003.5 22004,8002C22005.8,8000.5 22011.5,8004.17 22014,8002C22016.5,7999.83 22015,7991.17 22019,7989C22023,7986.83 22032.7,7990 22038,7989C22042.7,7988.12 22047.2,7983.67 22051,7983C22054.3,7982.42 22057.6,7985.14 22061,7985C22065.2,7984.83 22071.8,7981.5 22076,7982C22079.9,7982.46 22082.2,7987.13 22086,7988C22090.3,7989 22097.1,7985.94 22102,7988C22107.2,7990.17 22113.2,7996.67 22117,8001C22120.4,8004.81 22122.5,8009.59 22125,8014C22128.2,8019.5 22134,8026.67 22136,8034C22139,8044.83 22144,8067.17 22143,8079C22142.2,8088.65 22133.2,8098 22130,8105C22127.7,8110.19 22127.7,8117.83 22124,8121C22120.3,8124.17 22110.3,8122.5 22108,8124C22106.2,8125.14 22110.6,8127.97 22110,8130C22109.3,8132.33 22106.3,8136.83 22104,8138C22101.7,8139.17 22098.1,8135.26 22096,8137C22093.8,8138.83 22094,8146.67 22091,8149C22088,8151.33 22082.4,8151.16 22078,8151C22073.3,8150.83 22067,8148 22063,8148C22059.8,8148 22057.1,8150.53 22054,8151C22050.7,8151.5 22046.3,8152 22043,8151C22039.7,8150 22037.5,8145.91 22034,8145C22030.2,8144 22023.3,8146.67 22020,8145C22016.7,8143.33 22016.3,8137.67 22014,8135C22011.8,8132.49 22007.2,8132 22006,8129C22004.8,8126 22009,8119.67 22007,8117C22005,8114.33 21996.6,8116.72 21994,8113C21991.3,8109.17 21990.5,8100.39 21991,8094C21991.7,8085.83 21996.4,8074.14 21998,8064C21999.7,8053.67 22000.2,8040.83 22001,8032C22001.7,8025 22002.5,8016 22003,8011Z" style="fill:rgb(234,236,238);"/>
                    </g>
                    <g transform="matrix(1,0,0,1,-811.089,52)">
                        <path d="M22440,8100C22438.2,8100.09 22434.1,8100.01 22434,8097.59C22433.8,8094.46 22431,8095.11 22430,8094C22427.9,8091.61 22425.2,8087.33 22427,8085C22428.8,8082.67 22437,8080 22441,8080C22444.7,8080 22449.5,8082.83 22451,8085C22452.5,8087.17 22451.6,8090.83 22450,8093C22449,8094.39 22444,8095.34 22444.9,8097.83C22445.7,8099.77 22441.5,8099.93 22440,8100Z" style="fill:rgb(33,30,31);"/>
                    </g>
                    <g transform="matrix(1,0,0,1,-174.771,-19)">
                        <g transform="matrix(-3.04201,-0.174843,-0.174843,3.04201,88703.3,-12039.3)">
                            <path d="M21544.3,7867.13C21544.3,7866.8 21546.7,7864.83 21548,7865C21549.3,7865.17 21551.1,7865.4 21552.1,7866.07C21552.9,7866.6 21554.3,7867.74 21554.1,7868.07C21553.9,7868.38 21552,7869.57 21551.9,7869.57C21550.7,7869.57 21548.1,7869.74 21546.9,7869.57C21545.9,7869.42 21544.3,7867.47 21544.3,7867.13Z" style="fill:white;"/>
                            <clipPath id="_clip2">
                                <path d="M21544.3,7867.13C21544.3,7866.8 21546.7,7864.83 21548,7865C21549.3,7865.17 21551.1,7865.4 21552.1,7866.07C21552.9,7866.6 21554.3,7867.74 21554.1,7868.07C21553.9,7868.38 21552,7869.57 21551.9,7869.57C21550.7,7869.57 21548.1,7869.74 21546.9,7869.57C21545.9,7869.42 21544.3,7867.47 21544.3,7867.13Z"/>
                            </clipPath>
                            <g clip-path="url(#_clip2)">
                                <g transform="matrix(-1.1875,-0.245175,-0.245175,1.1875,49066.7,3807.25)">
                                    <circle cx="21548" cy="7868" r="2" style="fill:rgb(93,114,134);"/>
                                </g>
                                <g transform="matrix(-0.56642,-0.116944,-0.116944,0.56642,34675,5930.8)">
                                    <circle cx="21548" cy="7868" r="2"/>
                                </g>
                                <g transform="matrix(-0.172738,-0.0356639,-0.0547887,0.265369,25701.7,6546.88)">
                                    <circle cx="21548" cy="7868" r="2" style="fill:white;"/>
                                </g>
                            </g>
                        </g>
                        <g transform="matrix(-3.04201,-0.174843,-0.174843,3.04201,88759.3,-12039.3)">
                            <path d="M21544.3,7867.13C21544.3,7866.8 21546.7,7864.83 21548,7865C21549.3,7865.17 21551.1,7865.4 21552.1,7866.07C21552.9,7866.6 21554.3,7867.74 21554.1,7868.07C21553.9,7868.38 21552,7869.57 21551.9,7869.57C21550.7,7869.57 21548.1,7869.74 21546.9,7869.57C21545.9,7869.42 21544.3,7867.47 21544.3,7867.13Z" style="fill:white;"/>
                            <clipPath id="_clip3">
                                <path d="M21544.3,7867.13C21544.3,7866.8 21546.7,7864.83 21548,7865C21549.3,7865.17 21551.1,7865.4 21552.1,7866.07C21552.9,7866.6 21554.3,7867.74 21554.1,7868.07C21553.9,7868.38 21552,7869.57 21551.9,7869.57C21550.7,7869.57 21548.1,7869.74 21546.9,7869.57C21545.9,7869.42 21544.3,7867.47 21544.3,7867.13Z"/>
                            </clipPath>
                            <g clip-path="url(#_clip3)">
                                <g transform="matrix(-1.1875,-0.245175,-0.245175,1.1875,49066.7,3807.25)">
                                    <circle cx="21548" cy="7868" r="2" style="fill:rgb(93,114,134);"/>
                                </g>
                                <g transform="matrix(-0.56642,-0.116944,-0.116944,0.56642,34675,5930.8)">
                                    <circle cx="21548" cy="7868" r="2"/>
                                </g>
                                <g transform="matrix(-0.172738,-0.0356639,-0.0547887,0.265369,25701.7,6546.88)">
                                    <circle cx="21548" cy="7868" r="2" style="fill:white;"/>
                                </g>
                            </g>
                        </g>
                    </g>
                    <g transform="matrix(1,0,0,1,-433,35)">
                        <path d="M22004.4,8011.09C21997.3,8011.39 21986.6,8009.35 21983,8012C21979.4,8014.65 21985.8,8022.86 21983,8027C21980.2,8031.17 21968.7,8033.67 21966,8037C21963.9,8039.62 21968.2,8043.87 21967,8047C21965.7,8050.5 21958.7,8054.67 21958,8058C21957.3,8061.33 21963.6,8063.62 21963,8067C21962.2,8071.5 21954.7,8080.67 21953,8085C21952,8087.49 21951.3,8090.96 21953,8093C21954.8,8095.17 21962.8,8094.83 21964,8098C21965.2,8101.17 21960.7,8107.19 21960,8112C21959.3,8116.83 21958.3,8125.17 21960,8127C21961.7,8128.83 21968.2,8121.67 21970,8123C21971.8,8124.33 21968.2,8132.08 21971,8135C21973.8,8138 21983.8,8142.17 21987,8141C21990.2,8139.83 21987.8,8130.5 21990,8128C21992.2,8125.5 21998.7,8128.83 22000,8126C22001.3,8123.17 21996.8,8114.17 21998,8111C21999.1,8107.92 22005.9,8110.1 22007,8107C22008.2,8103.67 22004.8,8095.83 22005,8091C22005.2,8086.56 22008.4,8082.43 22008,8078C22007.5,8072.67 22002.3,8064.67 22002,8059C22001.7,8053.83 22004.7,8049 22006,8044" style="fill:rgb(221,223,226);"/>
                    </g>
                    <g transform="matrix(-1,0,0,1,43693,35)">
                        <path d="M22004.4,8011.09C21997.3,8011.39 21986.6,8009.35 21983,8012C21979.4,8014.65 21985.8,8022.86 21983,8027C21980.2,8031.17 21968.7,8033.67 21966,8037C21963.9,8039.62 21968.2,8043.87 21967,8047C21965.7,8050.5 21958.7,8054.67 21958,8058C21957.3,8061.33 21963.6,8063.62 21963,8067C21962.2,8071.5 21954.7,8080.67 21953,8085C21952,8087.49 21951.3,8090.96 21953,8093C21954.8,8095.17 21962.8,8094.83 21964,8098C21965.2,8101.17 21960.7,8107.19 21960,8112C21959.3,8116.83 21958.3,8125.17 21960,8127C21961.7,8128.83 21968.2,8121.67 21970,8123C21971.8,8124.33 21968.2,8132.08 21971,8135C21973.8,8138 21983.8,8142.17 21987,8141C21990.2,8139.83 21987.8,8130.5 21990,8128C21992.2,8125.5 21998.7,8128.83 22000,8126C22001.3,8123.17 21996.8,8114.17 21998,8111C21999.1,8107.92 22005.9,8110.1 22007,8107C22008.2,8103.67 22004.8,8095.83 22005,8091C22005.2,8086.56 22008.4,8082.43 22008,8078C22007.5,8072.67 22002.3,8064.67 22002,8059C22001.7,8053.83 22004.7,8049 22006,8044" style="fill:rgb(221,223,226);"/>
                    </g>
                    <g transform="matrix(1.36183,0,0,1.36183,-8046.27,-2898.03)">
                        <path d="M21779,8122C21777.7,8122.67 21782.8,8124.65 21785,8125C21788.2,8125.5 21794.8,8125.83 21798,8125C21800.5,8124.34 21804.8,8120.67 21804,8120C21803.2,8119.33 21796.7,8120.71 21793,8121C21788.8,8121.33 21780.3,8121.33 21779,8122Z" style="fill:rgb(33,30,31);"/>
                    </g>
                </g>
            </g>
        </g>
    </g>
</svg>
