<?xml version="1.0" encoding="UTF-8" standalone="no"?>
<!DOCTYPE svg PUBLIC "-//W3C//DTD SVG 1.1//EN" "http://www.w3.org/Graphics/SVG/1.1/DTD/svg11.dtd">
<svg width="100%" height="100%" viewBox="0 0 304 385" version="1.1" xmlns="http://www.w3.org/2000/svg" xmlns:xlink="http://www.w3.org/1999/xlink" xml:space="preserve" xmlns:serif="http://www.serif.com/" style="fill-rule:evenodd;clip-rule:evenodd;stroke-linejoin:round;stroke-miterlimit:2;">
  <g transform="matrix(1,0,0,1,-18721,-4780)">
    <g id="Plan-de-travail8" serif:id="Plan de travail8" transform="matrix(0.806366,0,0,1.00522,11945.9,1740.21)">
      <rect x="8402" y="3024" width="377" height="383" style="fill:none;"/>
      <g transform="matrix(2.02386,0,0,2.50785,-45028.8,-6048.34)">
        <g transform="matrix(0.677267,0,0,0.434999,25834.5,2777.43)">
          <ellipse cx="972.5" cy="2107" rx="117.5" ry="174" style="fill:rgb(201,148,120);"/>
        </g>
        <g transform="matrix(0.726736,0,0,0.470463,14009.5,-2542.73)">
          <path d="M17069,13239C17069.4,13247.4 17079,13262 17079,13262C17079,13262 17083.1,13240.8 17084,13230C17085,13217.5 17081.5,13200.5 17085,13187C17088.5,13173.5 17087.9,13176.3 17090.7,13165C17091.8,13160.4 17103,13139 17103,13139C17103,13139 17100.2,13142.7 17092.2,13153C17084.3,13163.1 17079.4,13178.6 17076,13191C17072.2,13204.8 17068.5,13227.2 17069,13239Z" style="fill:rgb(35,23,22);"/>
        </g>
        <g transform="matrix(-0.726736,0,0,0.470463,38976.5,-2542.73)">
          <path d="M17069,13239C17069.4,13247.4 17079,13262 17079,13262C17079,13262 17083.1,13240.8 17084,13230C17085,13217.5 17081.5,13200.5 17085,13187C17088.5,13173.5 17087.9,13176.3 17090.7,13165C17091.8,13160.4 17103,13139 17103,13139C17103,13139 17100.2,13142.7 17092.2,13153C17084.3,13163.1 17079.4,13178.6 17076,13191C17072.2,13204.8 17068.5,13227.2 17069,13239Z" style="fill:rgb(35,23,22);"/>
        </g>
        <g transform="matrix(0.726736,0,0,0.470463,14011,-2547.44)">
          <path d="M17141,13114.1C17141,13114.1 17154,13113.3 17160,13112.9C17167.5,13112.4 17183.3,13111.5 17192,13112C17200.5,13112.5 17212,13115 17212,13115C17212,13115 17201.9,13109.3 17197,13108C17190.3,13106.2 17179,13104.4 17170,13105C17154.5,13106 17141,13114.1 17141,13114.1Z" style="fill:rgb(35,23,22);"/>
        </g>
        <g transform="matrix(0.943247,0,0,0.943247,1869.83,206.088)">
          <g transform="matrix(-0.0929931,0,0,0.0677594,26830.9,2516.05)">
            <path d="M7195.17,17312.8C7163.46,17301.4 7323.82,17207.9 7418.07,17207.9C7512.32,17207.9 7650.22,17307.3 7640.97,17312.8C7614.51,17328.5 7495.39,17262.7 7409.63,17262.7C7323.87,17262.7 7202.74,17315.6 7195.17,17312.8Z" style="fill:rgb(109,81,64);"/>
          </g>
          <g transform="matrix(0.0929931,0,0,0.0677594,25378.2,2516.05)">
            <path d="M7195.17,17312.8C7163.46,17301.4 7323.82,17207.9 7418.07,17207.9C7512.32,17207.9 7650.22,17307.3 7640.97,17312.8C7614.51,17328.5 7495.39,17262.7 7409.63,17262.7C7323.87,17262.7 7202.74,17315.6 7195.17,17312.8Z" style="fill:rgb(109,81,64);"/>
          </g>
        </g>
        <g transform="matrix(0.688745,0,0,0.452047,25621.6,2503.76)">
          <path d="M1241.3,2739.19C1243.02,2738.74 1249.41,2732.4 1265.38,2731.54C1282.57,2730.61 1287.89,2738.47 1290.62,2739.19C1295.07,2740.37 1300.72,2737.46 1304.67,2733.82C1309.34,2729.52 1320.9,2710.08 1325.62,2704.78C1329.86,2700 1379.06,2663.4 1379.06,2663.4C1379.06,2663.4 1375.17,2682.81 1374.75,2693.28C1374.46,2700.26 1349.96,2750.6 1342.2,2760.4C1333.77,2771.05 1320.71,2780.6 1310.94,2787.69C1302.98,2793.46 1293.17,2796.68 1283.52,2798.56C1278.31,2799.58 1272.02,2800.19 1265.73,2800.44C1265.58,2800.44 1265.44,2800.41 1265.31,2800.35C1265.17,2800.41 1265.03,2800.44 1264.89,2800.44C1258.6,2800.19 1252.31,2799.58 1247.1,2798.56C1237.45,2796.68 1227.64,2793.46 1219.68,2787.69C1209.9,2780.6 1196.85,2771.05 1188.42,2760.4C1180.66,2750.6 1156.16,2700.26 1155.87,2693.28C1155.44,2682.81 1151.56,2663.4 1151.56,2663.4C1151.56,2663.4 1207.4,2699.97 1211.64,2704.74C1216.35,2710.05 1222.58,2729.52 1227.25,2733.82C1231.2,2737.46 1236.85,2740.37 1241.3,2739.19Z" style="fill:rgb(35,23,22);"/>
        </g>
        <g transform="matrix(0.372292,0,0,0.156212,25419.5,3307.28)">
          <path d="M2984.99,2658C2984.19,2708.91 2942.6,2750 2891.5,2750C2840.4,2750 2798.81,2708.91 2798.01,2658L2984.99,2658Z" style="fill:rgb(195,136,111);"/>
        </g>
        <g transform="matrix(0.29177,0,0,0.122425,25652.3,3398.51)">
          <path d="M2984.99,2658C2984.19,2708.91 2942.6,2750 2891.5,2750C2840.4,2750 2798.81,2708.91 2798.01,2658L2984.99,2658Z" style="fill:rgb(243,241,240);"/>
        </g>
        <g transform="matrix(0.743957,-0.0776528,0.103671,0.702479,25574.6,2301.61)">
          <ellipse cx="833.5" cy="2084" rx="12.5" ry="31" style="fill:rgb(201,148,120);"/>
        </g>
        <g transform="matrix(-0.120564,-0.0353798,-0.0360026,0.109744,26522.1,3423.99)">
          <path d="M117.422,2617.33C123.261,2600.83 139.009,2589 157.5,2589C175.991,2589 191.739,2600.83 197.578,2617.33C191.739,2608.4 175.991,2602 157.5,2602C139.009,2602 123.261,2608.4 117.422,2617.33Z" style="fill:rgb(171,125,101);"/>
        </g>
        <g transform="matrix(-0.115242,-0.139666,-0.149944,0.102605,26819.1,3456.26)">
          <path d="M117.422,2617.33C123.261,2600.83 139.009,2589 157.5,2589C175.991,2589 191.739,2600.83 197.578,2617.33C191.739,2608.4 175.991,2602 157.5,2602C139.009,2602 123.261,2608.4 117.422,2617.33Z" style="fill:rgb(171,125,101);"/>
        </g>
        <g transform="matrix(-0.743957,-0.0776528,-0.103671,0.702479,27412.5,2301.61)">
          <ellipse cx="833.5" cy="2084" rx="12.5" ry="31" style="fill:rgb(201,148,120);"/>
        </g>
        <g transform="matrix(0.120564,-0.0353798,0.0360026,0.109744,26465,3423.99)">
          <path d="M117.422,2617.33C123.261,2600.83 139.009,2589 157.5,2589C175.991,2589 191.739,2600.83 197.578,2617.33C191.739,2608.4 175.991,2602 157.5,2602C139.009,2602 123.261,2608.4 117.422,2617.33Z" style="fill:rgb(171,125,101);"/>
        </g>
        <g transform="matrix(0.115242,-0.139666,0.149944,0.102605,26168,3456.26)">
          <path d="M117.422,2617.33C123.261,2600.83 139.009,2589 157.5,2589C175.991,2589 191.739,2600.83 197.578,2617.33C191.739,2608.4 175.991,2602 157.5,2602C139.009,2602 123.261,2608.4 117.422,2617.33Z" style="fill:rgb(171,125,101);"/>
        </g>
        <g transform="matrix(0.868446,0,0,0.408409,25396.6,2640.03)">
          <path d="M1264.52,2629.21C1264.68,2629.16 1264.86,2629.13 1265.03,2629.11C1271.7,2628.49 1277.76,2626.43 1280.71,2624.81C1287.76,2620.93 1304.21,2633.56 1307.24,2636.85C1310.59,2640.48 1322.08,2663.43 1322.08,2663.43C1322.08,2663.43 1311.21,2650.08 1303.91,2647.93C1296.02,2645.61 1283.59,2644.11 1277.11,2643.84C1273,2643.68 1269.13,2646.51 1265.02,2646.35C1264.85,2646.34 1264.68,2646.31 1264.52,2646.27C1264.36,2646.31 1264.19,2646.34 1264.02,2646.35C1259.9,2646.51 1256.04,2643.68 1251.93,2643.84C1245.44,2644.11 1233.02,2645.61 1225.12,2647.93C1217.83,2650.08 1210.58,2663.43 1210.58,2663.43C1210.58,2663.43 1218.45,2640.48 1221.8,2636.85C1224.82,2633.56 1241.27,2620.93 1248.33,2624.81C1251.28,2626.43 1257.33,2628.49 1264,2629.11C1264.18,2629.13 1264.35,2629.16 1264.52,2629.21Z" style="fill:rgb(35,23,22);"/>
        </g>
        <g transform="matrix(1,0,0,1,383.723,-3.29324)">
          <g transform="matrix(-1.9903,-0.105426,-0.162854,1.28845,26444.9,3581.36)">
            <path d="M170.539,87.879C169.344,87.746 167.705,88.045 167.539,86.879C167.372,85.712 167.424,84.86 169,84C170.833,83 175.167,82.5 178,83C180.833,83.5 185.106,84.799 187.606,86.299C190.065,87.774 190.853,91.459 190.853,91.459C190.853,91.459 187.216,88.596 183.822,87.718C181.794,87.193 176.739,87.604 176.479,87.604C174.452,87.604 172.039,88.045 170.539,87.879Z" style="fill:rgb(35,23,22);"/>
          </g>
          <g transform="matrix(1.9903,-0.105426,0.162854,1.28845,25774,3582.3)">
            <path d="M170.539,87.879C169.344,87.746 167.705,88.045 167.539,86.879C167.372,85.712 167.424,84.86 169,84C170.833,83 175.167,82.5 178,83C180.833,83.5 185.106,84.799 187.606,86.299C190.065,87.774 190.853,91.459 190.853,91.459C190.853,91.459 187.216,88.596 183.822,87.718C181.794,87.193 176.739,87.604 176.479,87.604C174.452,87.604 172.039,88.045 170.539,87.879Z" style="fill:rgb(35,23,22);"/>
          </g>
        </g>
      </g>
    </g>
  </g>
</svg>
