<?xml version="1.0" encoding="UTF-8" standalone="no"?>
<!DOCTYPE svg PUBLIC "-//W3C//DTD SVG 1.1//EN" "http://www.w3.org/Graphics/SVG/1.1/DTD/svg11.dtd">
<svg width="100%" height="100%" viewBox="0 0 156 150" version="1.1" xmlns="http://www.w3.org/2000/svg" xmlns:xlink="http://www.w3.org/1999/xlink" xml:space="preserve" xmlns:serif="http://www.serif.com/" style="fill-rule:evenodd;clip-rule:evenodd;stroke-linecap:round;stroke-linejoin:round;stroke-miterlimit:1.5;">
    <g transform="matrix(1,0,0,1,-28442,-6853)">
        <g id="Plan-de-travail11" serif:id="Plan de travail11" transform="matrix(0.779956,0,0,0.75,7422.96,91.75)">
            <rect x="26949" y="9015" width="200" height="200" style="fill:none;"/>
            <clipPath id="_clip1">
                <rect x="26949" y="9015" width="200" height="200"/>
            </clipPath>
            <g clip-path="url(#_clip1)">
                <g transform="matrix(-0.748079,-0.224616,-0.215989,0.777958,32190.2,855.243)">
                    <clipPath id="_clip2">
                        <rect x="3291.91" y="11666.2" width="235.869" height="143.402"/>
                    </clipPath>
                    <g clip-path="url(#_clip2)">
                        <g transform="matrix(0.98056,0.196218,-0.165378,0.826446,1845.94,1603.67)">
                            <path d="M3462.99,11499.1C3459.15,11498.8 3453.28,11500 3451.43,11498.7C3449.58,11497.5 3453.49,11492.8 3451.91,11491.7C3450.33,11490.6 3443.27,11493.2 3441.97,11492C3440.67,11490.8 3442.34,11485.5 3444.09,11484.5C3445.84,11483.5 3451.18,11486.7 3452.44,11486C3453.71,11485.4 3453.34,11481.4 3451.68,11480.8C3449.3,11479.9 3440.38,11479.8 3438.12,11480.8C3436.33,11481.6 3438.86,11485.9 3438.12,11486.7C3437.39,11487.4 3434.94,11486.4 3433.71,11485.5C3431.97,11484.2 3427.22,11480.7 3427.69,11479.1C3428.16,11477.5 3434.78,11477.8 3436.55,11476C3438.31,11474.3 3439.68,11470 3438.28,11468.7C3436.88,11467.5 3430.25,11469 3428.14,11468.4C3426.8,11468 3426.97,11465.5 3425.65,11465.1C3423.64,11464.4 3416.07,11464.9 3416.11,11464.4C3416.15,11463.8 3424.27,11463.5 3425.9,11461.6C3427.53,11459.7 3424.55,11453.3 3425.9,11453.1C3427.25,11453 3432.44,11461.4 3434.02,11460.7C3435.6,11459.9 3436.12,11450.9 3435.36,11448.6C3434.72,11446.7 3430.02,11447 3429.45,11446.8C3428.87,11446.6 3431.09,11447.3 3431.91,11447.6C3432.9,11447.9 3434.21,11449 3435.36,11448.6C3437.78,11447.9 3446.34,11444.7 3446.45,11443.3C3446.56,11441.9 3438.92,11440.8 3436.01,11440.3C3433.72,11439.9 3429.85,11440.2 3429.01,11440.2C3428.35,11440.2 3430.37,11440.4 3431.01,11440.3C3432.77,11439.7 3438.34,11438.9 3439.62,11437.1C3440.9,11435.4 3438.78,11432.2 3438.67,11429.7C3438.56,11427.1 3437.87,11422.9 3438.97,11422C3440.08,11421.1 3443.73,11423.3 3445.3,11424.3C3446.61,11425 3447.32,11427 3448.42,11427.6C3449.46,11428.1 3451.34,11428.2 3451.93,11427.6C3452.51,11427 3451.16,11424.9 3451.93,11424C3453.11,11422.5 3457.53,11418.8 3459.05,11419C3460.57,11419.2 3459.64,11423.5 3461.04,11425.2C3462.44,11426.9 3466.32,11429.2 3467.45,11429.1C3468.59,11428.9 3467.9,11425.8 3467.85,11424.1C3467.78,11421.3 3468.76,11414.4 3467,11412.4C3465.24,11410.5 3460.08,11412.4 3457.27,11412.4L3450.14,11412.4C3449.67,11412.4 3453.93,11413.3 3454.48,11412.4C3455.03,11411.6 3454.89,11408.2 3453.43,11407.2C3451.53,11405.8 3444.8,11405.6 3443.07,11404.1C3441.59,11402.8 3441.86,11399.2 3443.07,11398.3C3444.28,11397.3 3449.58,11397.4 3450.34,11398.6C3451.1,11399.8 3446.99,11404.9 3447.65,11405.5C3448.32,11406.1 3453.21,11403.6 3454.32,11402.1C3455.43,11400.7 3454.63,11398.4 3454.32,11396.5C3454.02,11394.7 3451.64,11392 3452.49,11391.3C3453.34,11390.5 3457.32,11391.1 3459.42,11392.1C3461.86,11393.2 3465.94,11398.8 3467.13,11398.2C3468.31,11397.7 3465.69,11389.6 3466.55,11388.8C3467.41,11388 3470.6,11394.2 3472.3,11393.4C3474,11392.7 3475.44,11385.8 3476.76,11384.3C3477.53,11383.4 3479.13,11384.6 3480.26,11384.3C3481.71,11384 3485.18,11382.9 3485.47,11382.2C3485.76,11381.4 3481.94,11380.8 3481.99,11379.9C3482.04,11378.9 3484.48,11376.7 3485.76,11376.3C3487.03,11376 3489.05,11378.8 3489.66,11377.6C3490.56,11375.8 3490.09,11367.5 3491.16,11365.5C3491.91,11364 3494.56,11364.8 3496.03,11365.5C3497.93,11366.3 3500.3,11369.4 3502.53,11370.7C3504.66,11372 3507.38,11373.1 3509.45,11373.5C3511.23,11373.9 3513.26,11374.3 3514.92,11373.5C3517.01,11372.6 3520.39,11367.5 3521.98,11367.8C3523.57,11368.2 3522.74,11375.1 3524.46,11375.8C3526.19,11376.5 3531.06,11373.9 3532.33,11372.2C3533.61,11370.4 3532.71,11371 3532.33,11372.2C3531.99,11373.3 3532.35,11375.3 3533.5,11375.5C3535.45,11375.8 3542.28,11375.2 3544.01,11374.2C3545.46,11373.3 3543.91,11369.1 3543.91,11369.1C3543.91,11369.1 3542.88,11373.1 3544.01,11374.2C3545.15,11375.2 3548.51,11374.9 3550.73,11375.4C3553.82,11376.1 3561.15,11377 3562.56,11378.4C3563.96,11379.8 3558.78,11382.9 3559.18,11383.9C3559.58,11384.8 3563.03,11383.8 3564.95,11383.9C3567.15,11383.9 3571.11,11382.7 3572.34,11384.2C3573.57,11385.6 3573.68,11390.2 3572.34,11392.7C3570.96,11395.2 3563.6,11398.5 3564.07,11399.5C3564.54,11400.4 3573.95,11397.7 3575.16,11398.3C3576.37,11398.8 3570.66,11401.7 3571.33,11402.7C3572,11403.8 3577.01,11404.9 3579.18,11404.5C3581.35,11404 3582.47,11401.4 3584.34,11400.2C3586.36,11398.9 3589.66,11396.3 3591.32,11396.6C3592.98,11396.9 3594.82,11400.9 3594.31,11402C3593.81,11403.1 3589.29,11402.1 3588.28,11403.3C3587.28,11404.6 3586.67,11408.6 3588.28,11409.6C3589.9,11410.6 3596.07,11410.1 3597.99,11409.2C3599.68,11408.3 3598.69,11404.3 3599.81,11403.8C3600.93,11403.2 3604.14,11404.2 3604.72,11405.8C3605.36,11407.7 3603.05,11413.4 3603.67,11414.9C3604.26,11416.4 3607.1,11414.9 3608.41,11414.9C3609.47,11415 3611.26,11414.2 3611.57,11415.1C3611.89,11416.1 3609.43,11419.3 3610.3,11420.7C3611.17,11422.2 3614.86,11422.9 3616.79,11423.7C3618.47,11424.5 3620.82,11424.5 3621.9,11425.8C3622.98,11427 3623.31,11429.4 3623.28,11431.3C3623.24,11433.3 3620.29,11436.3 3621.67,11437.8C3623.06,11439.2 3630.34,11439 3631.58,11440C3632.76,11441 3630.4,11443.1 3629.11,11444C3626.99,11445.4 3619.41,11447.5 3618.82,11448.5C3618.24,11449.5 3624.56,11448.8 3625.61,11449.8C3626.66,11450.8 3625.13,11452.9 3625.12,11454.5C3625.11,11457.3 3626.93,11464.6 3625.53,11466.2C3624.13,11467.9 3617.95,11463.8 3616.73,11464.5C3615.51,11465.1 3617.01,11468.5 3618.2,11470C3619.41,11471.6 3623.07,11472.4 3624.04,11473.8C3624.92,11475 3625.15,11477.4 3624.04,11478.4C3622.93,11479.3 3617.42,11478.3 3617.39,11479.3C3617.36,11480.3 3623.9,11483.3 3623.84,11484.3C3623.78,11485.3 3616.83,11483.9 3617.04,11485.3C3617.25,11486.8 3625.18,11491.7 3625.09,11493C3625.01,11494.2 3619.16,11492.7 3616.52,11492.8C3614.1,11492.9 3610.97,11492.7 3609.27,11493.4C3607.77,11494.1 3606.82,11496 3606.33,11497.4C3605.86,11498.7 3607.45,11500.7 3606.33,11501.4C3604.18,11502.9 3597.97,11505.3 3593.48,11506.1C3588.01,11507 3577.12,11505.9 3573.51,11506.8C3571.93,11507.2 3573.07,11511 3571.83,11511.4C3570.6,11511.7 3567.79,11509.9 3566.11,11508.9C3564.51,11508 3563.55,11505.8 3561.74,11505.6C3559.5,11505.3 3554.63,11506.5 3552.71,11507.2C3551.56,11507.6 3551.4,11509.6 3550.22,11509.9C3548.55,11510.4 3545.11,11510.8 3542.72,11510.1C3538.25,11508.7 3529.11,11502.3 3523.41,11501.9C3518.11,11501.5 3513.05,11506.6 3508.5,11507.5C3504.45,11508.3 3500.22,11507.9 3496.11,11507.5C3491.48,11507 3483.45,11505.8 3480.72,11504.7C3479.46,11504.1 3480.96,11501.1 3479.67,11500.7C3476.71,11499.8 3467.7,11499.4 3462.99,11499.1Z" style="fill:rgb(34,94,63);"/>
                        </g>
                        <g transform="matrix(0.249137,-0.389373,0.704956,0.45106,-5521.31,7963.47)">
                            <path d="M3462.99,11499.1C3459.15,11498.8 3453.28,11500 3451.43,11498.7C3449.58,11497.5 3453.49,11492.8 3451.91,11491.7C3450.33,11490.6 3443.27,11493.2 3441.97,11492C3440.67,11490.8 3442.34,11485.5 3444.09,11484.5C3445.84,11483.5 3451.18,11486.7 3452.44,11486C3453.71,11485.4 3453.34,11481.4 3451.68,11480.8C3449.3,11479.9 3440.38,11479.8 3438.12,11480.8C3436.33,11481.6 3438.86,11485.9 3438.12,11486.7C3437.39,11487.4 3434.94,11486.4 3433.71,11485.5C3431.97,11484.2 3427.22,11480.7 3427.69,11479.1C3428.16,11477.5 3434.78,11477.8 3436.55,11476C3438.31,11474.3 3439.68,11470 3438.28,11468.7C3436.88,11467.5 3430.25,11469 3428.14,11468.4C3426.8,11468 3426.97,11465.5 3425.65,11465.1C3423.64,11464.4 3416.07,11464.9 3416.11,11464.4C3416.15,11463.8 3424.27,11463.5 3425.9,11461.6C3427.53,11459.7 3424.55,11453.3 3425.9,11453.1C3427.25,11453 3432.44,11461.4 3434.02,11460.7C3435.6,11459.9 3436.12,11450.9 3435.36,11448.6C3434.72,11446.7 3430.02,11447 3429.45,11446.8C3428.87,11446.6 3431.09,11447.3 3431.91,11447.6C3432.9,11447.9 3434.21,11449 3435.36,11448.6C3437.78,11447.9 3446.34,11444.7 3446.45,11443.3C3446.56,11441.9 3438.92,11440.8 3436.01,11440.3C3433.72,11439.9 3429.85,11440.2 3429.01,11440.2C3428.35,11440.2 3430.37,11440.4 3431.01,11440.3C3432.77,11439.7 3438.34,11438.9 3439.62,11437.1C3440.9,11435.4 3438.78,11432.2 3438.67,11429.7C3438.56,11427.1 3437.87,11422.9 3438.97,11422C3440.08,11421.1 3443.73,11423.3 3445.3,11424.3C3446.61,11425 3447.32,11427 3448.42,11427.6C3449.46,11428.1 3451.34,11428.2 3451.93,11427.6C3452.51,11427 3451.16,11424.9 3451.93,11424C3453.11,11422.5 3457.53,11418.8 3459.05,11419C3460.57,11419.2 3459.64,11423.5 3461.04,11425.2C3462.44,11426.9 3466.32,11429.2 3467.45,11429.1C3468.59,11428.9 3467.9,11425.8 3467.85,11424.1C3467.78,11421.3 3468.76,11414.4 3467,11412.4C3465.24,11410.5 3460.08,11412.4 3457.27,11412.4L3450.14,11412.4C3449.67,11412.4 3453.93,11413.3 3454.48,11412.4C3455.03,11411.6 3454.89,11408.2 3453.43,11407.2C3451.53,11405.8 3444.8,11405.6 3443.07,11404.1C3441.59,11402.8 3441.86,11399.2 3443.07,11398.3C3444.28,11397.3 3449.58,11397.4 3450.34,11398.6C3451.1,11399.8 3446.99,11404.9 3447.65,11405.5C3448.32,11406.1 3453.21,11403.6 3454.32,11402.1C3455.43,11400.7 3454.63,11398.4 3454.32,11396.5C3454.02,11394.7 3451.64,11392 3452.49,11391.3C3453.34,11390.5 3457.32,11391.1 3459.42,11392.1C3461.86,11393.2 3465.94,11398.8 3467.13,11398.2C3468.31,11397.7 3465.69,11389.6 3466.55,11388.8C3467.41,11388 3470.6,11394.2 3472.3,11393.4C3474,11392.7 3475.44,11385.8 3476.76,11384.3C3477.53,11383.4 3479.13,11384.6 3480.26,11384.3C3481.71,11384 3485.18,11382.9 3485.47,11382.2C3485.76,11381.4 3481.94,11380.8 3481.99,11379.9C3482.04,11378.9 3484.48,11376.7 3485.76,11376.3C3487.03,11376 3489.05,11378.8 3489.66,11377.6C3490.56,11375.8 3490.09,11367.5 3491.16,11365.5C3491.91,11364 3494.56,11364.8 3496.03,11365.5C3497.93,11366.3 3500.3,11369.4 3502.53,11370.7C3504.66,11372 3507.38,11373.1 3509.45,11373.5C3511.23,11373.9 3513.26,11374.3 3514.92,11373.5C3517.01,11372.6 3520.39,11367.5 3521.98,11367.8C3523.57,11368.2 3522.74,11375.1 3524.46,11375.8C3526.19,11376.5 3531.06,11373.9 3532.33,11372.2C3533.61,11370.4 3531.53,11366 3532.11,11365.3C3532.68,11364.6 3535.74,11367 3535.78,11368.2C3535.82,11369.3 3532.71,11371 3532.33,11372.2C3531.99,11373.3 3532.35,11375.3 3533.5,11375.5C3535.45,11375.8 3542.28,11375.2 3544.01,11374.2C3545.46,11373.3 3543.91,11369.1 3543.91,11369.1C3543.91,11369.1 3542.88,11373.1 3544.01,11374.2C3545.15,11375.2 3548.51,11374.9 3550.73,11375.4C3553.82,11376.1 3561.15,11377 3562.56,11378.4C3563.96,11379.8 3558.78,11382.9 3559.18,11383.9C3559.58,11384.8 3563.03,11383.8 3564.95,11383.9C3567.15,11383.9 3571.11,11382.7 3572.34,11384.2C3573.57,11385.6 3573.68,11390.2 3572.34,11392.7C3570.96,11395.2 3563.6,11398.5 3564.07,11399.5C3564.54,11400.4 3573.95,11397.7 3575.16,11398.3C3576.37,11398.8 3570.66,11401.7 3571.33,11402.7C3572,11403.8 3577.01,11404.9 3579.18,11404.5C3581.35,11404 3582.47,11401.4 3584.34,11400.2C3586.36,11398.9 3589.66,11396.3 3591.32,11396.6C3592.98,11396.9 3594.82,11400.9 3594.31,11402C3593.81,11403.1 3589.29,11402.1 3588.28,11403.3C3587.28,11404.6 3586.67,11408.6 3588.28,11409.6C3589.9,11410.6 3596.07,11410.1 3597.99,11409.2C3599.68,11408.3 3598.69,11404.3 3599.81,11403.8C3600.93,11403.2 3604.14,11404.2 3604.72,11405.8C3605.36,11407.7 3603.05,11413.4 3603.67,11414.9C3604.26,11416.4 3607.1,11414.9 3608.41,11414.9C3609.47,11415 3611.26,11414.2 3611.57,11415.1C3611.89,11416.1 3609.43,11419.3 3610.3,11420.7C3611.17,11422.2 3614.86,11422.9 3616.79,11423.7C3618.47,11424.5 3620.82,11424.5 3621.9,11425.8C3622.98,11427 3623.31,11429.4 3623.28,11431.3C3623.24,11433.3 3620.29,11436.3 3621.67,11437.8C3623.06,11439.2 3630.34,11439 3631.58,11440C3632.76,11441 3630.4,11443.1 3629.11,11444C3626.99,11445.4 3619.41,11447.5 3618.82,11448.5C3618.24,11449.5 3624.56,11448.8 3625.61,11449.8C3626.66,11450.8 3625.13,11452.9 3625.12,11454.5C3625.11,11457.3 3626.93,11464.6 3625.53,11466.2C3624.13,11467.9 3617.95,11463.8 3616.73,11464.5C3615.51,11465.1 3617.01,11468.5 3618.2,11470C3619.41,11471.6 3623.07,11472.4 3624.04,11473.8C3624.92,11475 3625.15,11477.4 3624.04,11478.4C3622.93,11479.3 3617.42,11478.3 3617.39,11479.3C3617.36,11480.3 3623.9,11483.3 3623.84,11484.3C3623.78,11485.3 3616.83,11483.9 3617.04,11485.3C3617.25,11486.8 3625.18,11491.7 3625.09,11493C3625.01,11494.2 3619.16,11492.7 3616.52,11492.8C3614.1,11492.9 3610.97,11492.7 3609.27,11493.4C3607.77,11494.1 3606.82,11496 3606.33,11497.4C3605.86,11498.7 3607.45,11500.7 3606.33,11501.4C3604.18,11502.9 3597.97,11505.3 3593.48,11506.1C3588.01,11507 3577.12,11505.9 3573.51,11506.8C3571.93,11507.2 3573.07,11511 3571.83,11511.4C3570.6,11511.7 3567.79,11509.9 3566.11,11508.9C3564.51,11508 3563.55,11505.8 3561.74,11505.6C3559.5,11505.3 3554.63,11506.5 3552.71,11507.2C3551.56,11507.6 3551.4,11509.6 3550.22,11509.9C3548.55,11510.4 3545.11,11510.8 3542.72,11510.1C3538.25,11508.7 3529.11,11502.3 3523.41,11501.9C3518.11,11501.5 3513.05,11506.6 3508.5,11507.5C3504.45,11508.3 3500.22,11507.9 3496.11,11507.5C3491.48,11507 3483.45,11505.8 3480.72,11504.7C3479.46,11504.1 3480.96,11501.1 3479.67,11500.7C3476.71,11499.8 3467.7,11499.4 3462.99,11499.1Z" style="fill:rgb(47,133,90);"/>
                        </g>
                        <g transform="matrix(-0.570947,0.0179041,0.0188999,0.602703,5169.22,4810.25)">
                            <path d="M3462.99,11499.1C3459.15,11498.8 3453.28,11500 3451.43,11498.7C3449.58,11497.5 3453.49,11492.8 3451.91,11491.7C3450.33,11490.6 3443.27,11493.2 3441.97,11492C3440.67,11490.8 3442.34,11485.5 3444.09,11484.5C3445.84,11483.5 3451.18,11486.7 3452.44,11486C3453.71,11485.4 3453.34,11481.4 3451.68,11480.8C3449.3,11479.9 3440.38,11479.8 3438.12,11480.8C3436.33,11481.6 3438.86,11485.9 3438.12,11486.7C3437.39,11487.4 3434.94,11486.4 3433.71,11485.5C3431.97,11484.2 3427.22,11480.7 3427.69,11479.1C3428.16,11477.5 3434.78,11477.8 3436.55,11476C3438.31,11474.3 3439.68,11470 3438.28,11468.7C3436.88,11467.5 3430.25,11469 3428.14,11468.4C3426.8,11468 3426.97,11465.5 3425.65,11465.1C3423.64,11464.4 3416.07,11464.9 3416.11,11464.4C3416.15,11463.8 3424.27,11463.5 3425.9,11461.6C3427.53,11459.7 3424.55,11453.3 3425.9,11453.1C3427.25,11453 3432.44,11461.4 3434.02,11460.7C3435.6,11459.9 3436.12,11450.9 3435.36,11448.6C3434.72,11446.7 3430.02,11447 3429.45,11446.8C3428.87,11446.6 3431.09,11447.3 3431.91,11447.6C3432.9,11447.9 3434.21,11449 3435.36,11448.6C3437.78,11447.9 3446.34,11444.7 3446.45,11443.3C3446.56,11441.9 3438.92,11440.8 3436.01,11440.3C3433.72,11439.9 3429.85,11440.2 3429.01,11440.2C3428.35,11440.2 3430.37,11440.4 3431.01,11440.3C3432.77,11439.7 3438.34,11438.9 3439.62,11437.1C3440.9,11435.4 3438.78,11432.2 3438.67,11429.7C3438.56,11427.1 3437.87,11422.9 3438.97,11422C3440.08,11421.1 3443.73,11423.3 3445.3,11424.3C3446.61,11425 3447.32,11427 3448.42,11427.6C3449.46,11428.1 3451.34,11428.2 3451.93,11427.6C3452.51,11427 3451.16,11424.9 3451.93,11424C3453.11,11422.5 3457.53,11418.8 3459.05,11419C3460.57,11419.2 3459.64,11423.5 3461.04,11425.2C3462.44,11426.9 3466.32,11429.2 3467.45,11429.1C3468.59,11428.9 3467.9,11425.8 3467.85,11424.1C3467.78,11421.3 3468.76,11414.4 3467,11412.4C3465.24,11410.5 3460.08,11412.4 3457.27,11412.4L3450.14,11412.4C3449.67,11412.4 3453.93,11413.3 3454.48,11412.4C3455.03,11411.6 3454.89,11408.2 3453.43,11407.2C3451.53,11405.8 3444.8,11405.6 3443.07,11404.1C3441.59,11402.8 3441.86,11399.2 3443.07,11398.3C3444.28,11397.3 3449.58,11397.4 3450.34,11398.6C3451.1,11399.8 3446.99,11404.9 3447.65,11405.5C3448.32,11406.1 3453.21,11403.6 3454.32,11402.1C3455.43,11400.7 3454.63,11398.4 3454.32,11396.5C3454.02,11394.7 3451.64,11392 3452.49,11391.3C3453.34,11390.5 3457.32,11391.1 3459.42,11392.1C3461.86,11393.2 3465.94,11398.8 3467.13,11398.2C3468.31,11397.7 3465.69,11389.6 3466.55,11388.8C3467.41,11388 3470.6,11394.2 3472.3,11393.4C3474,11392.7 3475.44,11385.8 3476.76,11384.3C3477.53,11383.4 3479.13,11384.6 3480.26,11384.3C3481.71,11384 3485.18,11382.9 3485.47,11382.2C3485.76,11381.4 3481.94,11380.8 3481.99,11379.9C3482.04,11378.9 3484.48,11376.7 3485.76,11376.3C3487.03,11376 3489.05,11378.8 3489.66,11377.6C3490.56,11375.8 3490.09,11367.5 3491.16,11365.5C3491.91,11364 3494.56,11364.8 3496.03,11365.5C3497.93,11366.3 3500.3,11369.4 3502.53,11370.7C3504.66,11372 3507.38,11373.1 3509.45,11373.5C3511.23,11373.9 3513.26,11374.3 3514.92,11373.5C3517.01,11372.6 3520.39,11367.5 3521.98,11367.8C3523.57,11368.2 3522.74,11375.1 3524.46,11375.8C3526.19,11376.5 3531.06,11373.9 3532.33,11372.2C3533.61,11370.4 3531.53,11366 3532.11,11365.3C3532.68,11364.6 3535.74,11367 3535.78,11368.2C3535.82,11369.3 3532.71,11371 3532.33,11372.2C3531.99,11373.3 3532.35,11375.3 3533.5,11375.5C3535.45,11375.8 3542.28,11375.2 3544.01,11374.2C3545.46,11373.3 3543.91,11369.1 3543.91,11369.1C3543.91,11369.1 3542.88,11373.1 3544.01,11374.2C3545.15,11375.2 3548.51,11374.9 3550.73,11375.4C3553.82,11376.1 3561.15,11377 3562.56,11378.4C3563.96,11379.8 3558.78,11382.9 3559.18,11383.9C3559.58,11384.8 3563.03,11383.8 3564.95,11383.9C3567.15,11383.9 3571.11,11382.7 3572.34,11384.2C3573.57,11385.6 3573.68,11390.2 3572.34,11392.7C3570.96,11395.2 3563.6,11398.5 3564.07,11399.5C3564.54,11400.4 3573.95,11397.7 3575.16,11398.3C3576.37,11398.8 3570.66,11401.7 3571.33,11402.7C3572,11403.8 3577.01,11404.9 3579.18,11404.5C3581.35,11404 3582.47,11401.4 3584.34,11400.2C3586.36,11398.9 3589.66,11396.3 3591.32,11396.6C3592.98,11396.9 3594.82,11400.9 3594.31,11402C3593.81,11403.1 3589.29,11402.1 3588.28,11403.3C3587.28,11404.6 3586.67,11408.6 3588.28,11409.6C3589.9,11410.6 3596.07,11410.1 3597.99,11409.2C3599.68,11408.3 3598.69,11404.3 3599.81,11403.8C3600.93,11403.2 3604.14,11404.2 3604.72,11405.8C3605.36,11407.7 3603.05,11413.4 3603.67,11414.9C3604.26,11416.4 3607.1,11414.9 3608.41,11414.9C3609.47,11415 3611.26,11414.2 3611.57,11415.1C3611.89,11416.1 3609.43,11419.3 3610.3,11420.7C3611.17,11422.2 3614.86,11422.9 3616.79,11423.7C3618.47,11424.5 3620.82,11424.5 3621.9,11425.8C3622.98,11427 3623.31,11429.4 3623.28,11431.3C3623.24,11433.3 3620.29,11436.3 3621.67,11437.8C3623.06,11439.2 3630.34,11439 3631.58,11440C3632.76,11441 3630.4,11443.1 3629.11,11444C3626.99,11445.4 3619.41,11447.5 3618.82,11448.5C3618.24,11449.5 3624.56,11448.8 3625.61,11449.8C3626.66,11450.8 3625.13,11452.9 3625.12,11454.5C3625.11,11457.3 3626.93,11464.6 3625.53,11466.2C3624.13,11467.9 3617.95,11463.8 3616.73,11464.5C3615.51,11465.1 3617.01,11468.5 3618.2,11470C3619.41,11471.6 3623.07,11472.4 3624.04,11473.8C3624.92,11475 3625.15,11477.4 3624.04,11478.4C3622.93,11479.3 3617.42,11478.3 3617.39,11479.3C3617.36,11480.3 3623.9,11483.3 3623.84,11484.3C3623.78,11485.3 3616.83,11483.9 3617.04,11485.3C3617.25,11486.8 3625.18,11491.7 3625.09,11493C3625.01,11494.2 3619.16,11492.7 3616.52,11492.8C3614.1,11492.9 3610.97,11492.7 3609.27,11493.4C3607.77,11494.1 3606.82,11496 3606.33,11497.4C3605.86,11498.7 3607.45,11500.7 3606.33,11501.4C3604.18,11502.9 3597.97,11505.3 3593.48,11506.1C3588.01,11507 3577.12,11505.9 3573.51,11506.8C3571.93,11507.2 3573.07,11511 3571.83,11511.4C3570.6,11511.7 3567.79,11509.9 3566.11,11508.9C3564.51,11508 3563.55,11505.8 3561.74,11505.6C3559.5,11505.3 3554.63,11506.5 3552.71,11507.2C3551.56,11507.6 3551.4,11509.6 3550.22,11509.9C3548.55,11510.4 3545.11,11510.8 3542.72,11510.1C3538.25,11508.7 3529.11,11502.3 3523.41,11501.9C3518.11,11501.5 3513.05,11506.6 3508.5,11507.5C3504.45,11508.3 3500.22,11507.9 3496.11,11507.5C3491.48,11507 3483.45,11505.8 3480.72,11504.7C3479.46,11504.1 3480.96,11501.1 3479.67,11500.7C3476.71,11499.8 3467.7,11499.4 3462.99,11499.1Z" style="fill:rgb(60,184,120);"/>
                        </g>
                        <g transform="matrix(0.934144,-0.111452,0.0499321,0.418508,-449.87,7386.34)">
                            <path d="M3462.99,11499.1C3459.15,11498.8 3453.28,11500 3451.43,11498.7C3449.58,11497.5 3453.49,11492.8 3451.91,11491.7C3450.33,11490.6 3443.27,11493.2 3441.97,11492C3440.67,11490.8 3442.34,11485.5 3444.09,11484.5C3445.84,11483.5 3451.18,11486.7 3452.44,11486C3453.71,11485.4 3453.34,11481.4 3451.68,11480.8C3449.3,11479.9 3440.38,11479.8 3438.12,11480.8C3436.33,11481.6 3438.86,11485.9 3438.12,11486.7C3437.39,11487.4 3434.94,11486.4 3433.71,11485.5C3431.97,11484.2 3427.22,11480.7 3427.69,11479.1C3428.16,11477.5 3434.78,11477.8 3436.55,11476C3438.31,11474.3 3439.68,11470 3438.28,11468.7C3436.88,11467.5 3430.25,11469 3428.14,11468.4C3426.8,11468 3426.97,11465.5 3425.65,11465.1C3423.64,11464.4 3416.07,11464.9 3416.11,11464.4C3416.15,11463.8 3424.27,11463.5 3425.9,11461.6C3427.53,11459.7 3424.55,11453.3 3425.9,11453.1C3427.25,11453 3432.44,11461.4 3434.02,11460.7C3435.6,11459.9 3436.12,11450.9 3435.36,11448.6C3434.72,11446.7 3430.02,11447 3429.45,11446.8C3428.87,11446.6 3431.09,11447.3 3431.91,11447.6C3432.9,11447.9 3434.21,11449 3435.36,11448.6C3437.78,11447.9 3446.34,11444.7 3446.45,11443.3C3446.56,11441.9 3438.92,11440.8 3436.01,11440.3C3433.72,11439.9 3429.85,11440.2 3429.01,11440.2C3428.35,11440.2 3430.37,11440.4 3431.01,11440.3C3432.77,11439.7 3438.34,11438.9 3439.62,11437.1C3440.9,11435.4 3438.78,11432.2 3438.67,11429.7C3438.56,11427.1 3437.87,11422.9 3438.97,11422C3440.08,11421.1 3443.73,11423.3 3445.3,11424.3C3446.61,11425 3447.32,11427 3448.42,11427.6C3449.46,11428.1 3451.34,11428.2 3451.93,11427.6C3452.51,11427 3451.16,11424.9 3451.93,11424C3453.11,11422.5 3457.53,11418.8 3459.05,11419C3460.57,11419.2 3459.64,11423.5 3461.04,11425.2C3462.44,11426.9 3466.32,11429.2 3467.45,11429.1C3468.59,11428.9 3467.9,11425.8 3467.85,11424.1C3467.78,11421.3 3468.76,11414.4 3467,11412.4C3465.24,11410.5 3460.08,11412.4 3457.27,11412.4L3450.14,11412.4C3449.67,11412.4 3453.93,11413.3 3454.48,11412.4C3455.03,11411.6 3454.89,11408.2 3453.43,11407.2C3451.53,11405.8 3444.8,11405.6 3443.07,11404.1C3441.59,11402.8 3441.86,11399.2 3443.07,11398.3C3444.28,11397.3 3449.58,11397.4 3450.34,11398.6C3451.1,11399.8 3446.99,11404.9 3447.65,11405.5C3448.32,11406.1 3453.21,11403.6 3454.32,11402.1C3455.43,11400.7 3454.63,11398.4 3454.32,11396.5C3454.02,11394.7 3451.64,11392 3452.49,11391.3C3453.34,11390.5 3457.32,11391.1 3459.42,11392.1C3461.86,11393.2 3465.94,11398.8 3467.13,11398.2C3468.31,11397.7 3465.69,11389.6 3466.55,11388.8C3467.41,11388 3470.6,11394.2 3472.3,11393.4C3474,11392.7 3475.44,11385.8 3476.76,11384.3C3477.53,11383.4 3479.13,11384.6 3480.26,11384.3C3481.71,11384 3485.18,11382.9 3485.47,11382.2C3485.76,11381.4 3481.94,11380.8 3481.99,11379.9C3482.04,11378.9 3484.48,11376.7 3485.76,11376.3C3487.03,11376 3489.05,11378.8 3489.66,11377.6C3490.56,11375.8 3490.09,11367.5 3491.16,11365.5C3491.91,11364 3494.56,11364.8 3496.03,11365.5C3497.93,11366.3 3500.3,11369.4 3502.53,11370.7C3504.66,11372 3507.38,11373.1 3509.45,11373.5C3511.23,11373.9 3513.26,11374.3 3514.92,11373.5C3517.01,11372.6 3520.39,11367.5 3521.98,11367.8C3523.57,11368.2 3522.74,11375.1 3524.46,11375.8C3526.19,11376.5 3531.06,11373.9 3532.33,11372.2C3533.61,11370.4 3531.53,11366 3532.11,11365.3C3532.68,11364.6 3535.74,11367 3535.78,11368.2C3535.82,11369.3 3532.71,11371 3532.33,11372.2C3531.99,11373.3 3532.35,11375.3 3533.5,11375.5C3535.45,11375.8 3542.28,11375.2 3544.01,11374.2C3545.46,11373.3 3543.91,11369.1 3543.91,11369.1C3543.91,11369.1 3542.88,11373.1 3544.01,11374.2C3545.15,11375.2 3548.51,11374.9 3550.73,11375.4C3553.82,11376.1 3561.15,11377 3562.56,11378.4C3563.96,11379.8 3558.78,11382.9 3559.18,11383.9C3559.58,11384.8 3563.03,11383.8 3564.95,11383.9C3567.15,11383.9 3571.11,11382.7 3572.34,11384.2C3573.57,11385.6 3573.68,11390.2 3572.34,11392.7C3570.96,11395.2 3563.6,11398.5 3564.07,11399.5C3564.54,11400.4 3573.95,11397.7 3575.16,11398.3C3576.37,11398.8 3570.66,11401.7 3571.33,11402.7C3572,11403.8 3577.01,11404.9 3579.18,11404.5C3581.35,11404 3582.47,11401.4 3584.34,11400.2C3586.36,11398.9 3589.66,11396.3 3591.32,11396.6C3592.98,11396.9 3594.82,11400.9 3594.31,11402C3593.81,11403.1 3589.29,11402.1 3588.28,11403.3C3587.28,11404.6 3586.67,11408.6 3588.28,11409.6C3589.9,11410.6 3596.07,11410.1 3597.99,11409.2C3599.68,11408.3 3598.69,11404.3 3599.81,11403.8C3600.93,11403.2 3604.14,11404.2 3604.72,11405.8C3605.36,11407.7 3603.05,11413.4 3603.67,11414.9C3604.26,11416.4 3607.1,11414.9 3608.41,11414.9C3609.47,11415 3611.26,11414.2 3611.57,11415.1C3611.89,11416.1 3609.43,11419.3 3610.3,11420.7C3611.17,11422.2 3614.86,11422.9 3616.79,11423.7C3618.47,11424.5 3620.82,11424.5 3621.9,11425.8C3622.98,11427 3623.31,11429.4 3623.28,11431.3C3623.24,11433.3 3620.29,11436.3 3621.67,11437.8C3623.06,11439.2 3630.34,11439 3631.58,11440C3632.76,11441 3630.4,11443.1 3629.11,11444C3626.99,11445.4 3619.41,11447.5 3618.82,11448.5C3618.24,11449.5 3624.56,11448.8 3625.61,11449.8C3626.66,11450.8 3625.13,11452.9 3625.12,11454.5C3625.11,11457.3 3626.93,11464.6 3625.53,11466.2C3624.13,11467.9 3617.95,11463.8 3616.73,11464.5C3615.51,11465.1 3617.01,11468.5 3618.2,11470C3619.41,11471.6 3623.07,11472.4 3624.04,11473.8C3624.92,11475 3625.15,11477.4 3624.04,11478.4C3622.93,11479.3 3617.42,11478.3 3617.39,11479.3C3617.36,11480.3 3623.9,11483.3 3623.84,11484.3C3623.78,11485.3 3616.83,11483.9 3617.04,11485.3C3617.25,11486.8 3625.18,11491.7 3625.09,11493C3625.01,11494.2 3619.16,11492.7 3616.52,11492.8C3614.1,11492.9 3610.97,11492.7 3609.27,11493.4C3607.77,11494.1 3606.82,11496 3606.33,11497.4C3605.86,11498.7 3607.45,11500.7 3606.33,11501.4C3604.18,11502.9 3597.97,11505.3 3593.48,11506.1C3588.01,11507 3577.12,11505.9 3573.51,11506.8C3571.93,11507.2 3573.07,11511 3571.83,11511.4C3570.6,11511.7 3567.79,11509.9 3566.11,11508.9C3564.51,11508 3563.55,11505.8 3561.74,11505.6C3559.5,11505.3 3554.63,11506.5 3552.71,11507.2C3551.56,11507.6 3551.4,11509.6 3550.22,11509.9C3548.55,11510.4 3545.11,11510.8 3542.72,11510.1C3538.25,11508.7 3529.11,11502.3 3523.41,11501.9C3518.11,11501.5 3513.05,11506.6 3508.5,11507.5C3504.45,11508.3 3500.22,11507.9 3496.11,11507.5C3491.48,11507 3483.45,11505.8 3480.72,11504.7C3479.46,11504.1 3480.96,11501.1 3479.67,11500.7C3476.71,11499.8 3467.7,11499.4 3462.99,11499.1Z" style="fill:rgb(34,84,61);"/>
                        </g>
                    </g>
                </g>
                <g transform="matrix(0.218419,0.537979,-1.81499,0.796922,27392.6,955.286)">
                    <g transform="matrix(0.922852,0,0,0.263036,877.204,-101.623)">
                        <path d="M12919.8,6777.16C12919.8,6777.16 12942.6,6801.43 12957.8,6820.87C12964.6,6829.58 12969.9,6837.27 12970.8,6841.28C12970.9,6841.94 12971.6,6842.36 12972.3,6842.2C12972.9,6842.05 12973.4,6841.39 12973.2,6840.72C12972.2,6836.57 12966.6,6828.61 12959.2,6819.7C12943.5,6800.6 12920.2,6776.84 12920.2,6776.84C12920.1,6776.75 12919.9,6776.75 12919.8,6776.84C12919.8,6776.92 12919.8,6777.07 12919.8,6777.16Z" style="fill:rgb(109,83,147);"/>
                    </g>
                    <g transform="matrix(0.922852,0,0,0.263036,877.204,-101.623)">
                        <path d="M12967,6829C12966.5,6828.33 12967,6824.76 12968,6823C12969.3,6820.67 12973,6817 12975,6815C12976.5,6813.49 12978.5,6811.5 12980,6811C12981.3,6810.57 12983.3,6810.83 12984,6812C12984.7,6813.17 12985,6816.33 12984,6818C12983,6819.67 12980,6820.63 12978,6822C12975.8,6823.5 12972.8,6825.83 12971,6827C12969.7,6827.8 12967.5,6829.67 12967,6829Z" style="fill:rgb(119,88,157);"/>
                    </g>
                    <g transform="matrix(0.922852,0,0,0.263036,868.898,-104.254)">
                        <path d="M12967,6829C12966.5,6828.33 12967,6824.76 12968,6823C12969.3,6820.67 12973,6817 12975,6815C12976.5,6813.49 12978.5,6811.5 12980,6811C12981.3,6810.57 12983.3,6810.83 12984,6812C12984.7,6813.17 12985,6816.33 12984,6818C12983,6819.67 12980,6820.63 12978,6822C12975.8,6823.5 12972.8,6825.83 12971,6827C12969.7,6827.8 12967.5,6829.67 12967,6829Z" style="fill:rgb(119,88,157);"/>
                    </g>
                    <g transform="matrix(0.912363,-0.0395443,0.13874,0.260046,49.5649,426.356)">
                        <path d="M12967,6829C12966.5,6828.33 12967,6824.76 12968,6823C12969.3,6820.67 12973,6817 12975,6815C12976.5,6813.49 12978.5,6811.5 12980,6811C12981.3,6810.57 12983.3,6810.83 12984,6812C12984.7,6813.17 12985,6816.33 12984,6818C12983,6819.67 12980,6820.63 12978,6822C12975.8,6823.5 12972.8,6825.83 12971,6827C12969.7,6827.8 12967.5,6829.67 12967,6829Z" style="fill:rgb(119,88,157);"/>
                    </g>
                    <g transform="matrix(0.89532,-0.0637702,0.223736,0.255188,-319.107,770.679)">
                        <path d="M12967,6829C12966.5,6828.33 12967,6824.76 12968,6823C12969.3,6820.67 12973,6817 12975,6815C12976.5,6813.49 12978.5,6811.5 12980,6811C12981.3,6810.57 12983.3,6810.83 12984,6812C12984.7,6813.17 12985,6816.33 12984,6818C12983,6819.67 12980,6820.63 12978,6822C12975.8,6823.5 12972.8,6825.83 12971,6827C12969.7,6827.8 12967.5,6829.67 12967,6829Z" style="fill:rgb(119,88,157);"/>
                    </g>
                    <g transform="matrix(0.611896,-0.043583,0.15291,0.174405,3831.37,1057.96)">
                        <path d="M12967,6829C12966.5,6828.33 12967,6824.76 12968,6823C12969.3,6820.67 12973,6817 12975,6815C12976.5,6813.49 12978.5,6811.5 12980,6811C12981.3,6810.57 12983.3,6810.83 12984,6812C12984.7,6813.17 12985,6816.33 12984,6818C12983,6819.67 12980,6820.63 12978,6822C12975.8,6823.5 12972.8,6825.83 12971,6827C12969.7,6827.8 12967.5,6829.67 12967,6829Z" style="fill:rgb(119,88,157);"/>
                    </g>
                    <g transform="matrix(-0.327531,0.245912,0.862774,0.0933544,11197.9,-2131.03)">
                        <path d="M12967,6829C12966.5,6828.33 12967,6824.76 12968,6823C12969.3,6820.67 12973,6817 12975,6815C12976.5,6813.49 12978.5,6811.5 12980,6811C12981.3,6810.57 12983.3,6810.83 12984,6812C12984.7,6813.17 12985,6816.33 12984,6818C12983,6819.67 12980,6820.63 12978,6822C12975.8,6823.5 12972.8,6825.83 12971,6827C12969.7,6827.8 12967.5,6829.67 12967,6829Z" style="fill:rgb(119,88,157);"/>
                    </g>
                    <g transform="matrix(-0.327531,0.245912,0.862774,0.0933544,11192.2,-2134.18)">
                        <path d="M12967,6829C12966.5,6828.33 12967,6824.76 12968,6823C12969.3,6820.67 12973,6817 12975,6815C12976.5,6813.49 12978.5,6811.5 12980,6811C12981.3,6810.57 12983.3,6810.83 12984,6812C12984.7,6813.17 12985,6816.33 12984,6818C12983,6819.67 12980,6820.63 12978,6822C12975.8,6823.5 12972.8,6825.83 12971,6827C12969.7,6827.8 12967.5,6829.67 12967,6829Z" style="fill:rgb(119,88,157);"/>
                    </g>
                    <g transform="matrix(-0.453516,0.229082,0.803728,0.129263,13219.7,-2164.18)">
                        <path d="M12967,6829C12966.5,6828.33 12967,6824.76 12968,6823C12969.3,6820.67 12973,6817 12975,6815C12976.5,6813.49 12978.5,6811.5 12980,6811C12981.3,6810.57 12983.3,6810.83 12984,6812C12984.7,6813.17 12985,6816.33 12984,6818C12983,6819.67 12980,6820.63 12978,6822C12975.8,6823.5 12972.8,6825.83 12971,6827C12969.7,6827.8 12967.5,6829.67 12967,6829Z" style="fill:rgb(119,88,157);"/>
                    </g>
                    <g transform="matrix(-0.52693,0.215943,0.757628,0.150188,14477.2,-2139.43)">
                        <path d="M12967,6829C12966.5,6828.33 12967,6824.76 12968,6823C12969.3,6820.67 12973,6817 12975,6815C12976.5,6813.49 12978.5,6811.5 12980,6811C12981.3,6810.57 12983.3,6810.83 12984,6812C12984.7,6813.17 12985,6816.33 12984,6818C12983,6819.67 12980,6820.63 12978,6822C12975.8,6823.5 12972.8,6825.83 12971,6827C12969.7,6827.8 12967.5,6829.67 12967,6829Z" style="fill:rgb(119,88,157);"/>
                    </g>
                    <g transform="matrix(-0.360124,0.147584,0.517792,0.102644,13943.7,-930.705)">
                        <path d="M12967,6829C12966.5,6828.33 12967,6824.76 12968,6823C12969.3,6820.67 12973,6817 12975,6815C12976.5,6813.49 12978.5,6811.5 12980,6811C12981.3,6810.57 12983.3,6810.83 12984,6812C12984.7,6813.17 12985,6816.33 12984,6818C12983,6819.67 12980,6820.63 12978,6822C12975.8,6823.5 12972.8,6825.83 12971,6827C12969.7,6827.8 12967.5,6829.67 12967,6829Z" style="fill:rgb(119,88,157);"/>
                    </g>
                    <g transform="matrix(0.922852,0,0,0.263036,877.204,-101.623)">
                        <path d="M12928,6786C12927,6786 12924.5,6785.81 12923,6785C12921.2,6784 12918,6781.67 12917,6780C12916.1,6778.57 12916.3,6775.83 12917,6775C12917.7,6774.17 12918.7,6773.74 12920,6774C12921.7,6774.33 12925.7,6775.83 12927,6777C12928.3,6778.17 12928.7,6780.67 12929,6782C12929.2,6782.97 12929.2,6784.33 12929,6785C12928.9,6785.46 12928.5,6786 12928,6786Z" style="fill:rgb(119,88,157);"/>
                    </g>
                </g>
                <g transform="matrix(0.218851,-0.592803,1.99995,0.798501,20729.8,15250.2)">
                    <g transform="matrix(0.922852,0,0,0.263036,885.51,-84)">
                        <path d="M12640,7080C12644.2,7068.17 12663,7018 12663,7018C12663,7018 12668.2,7027.83 12672,7031C12675.8,7034.17 12685.8,7038.17 12686,7037C12686.2,7035.83 12676.5,7029.05 12673,7024C12669.3,7018.67 12662,7011.73 12664,7005C12666.3,6997 12678.2,6984.65 12687,6976C12696.7,6966.5 12722,6948 12722,6948C12722,6948 12725,6960.33 12728,6965C12730.9,6969.56 12739,6977.17 12740,6976C12741,6974.83 12735,6964 12734,6958C12733,6952.08 12729.4,6943.83 12734,6940C12740.8,6934.33 12761,6928 12775,6924C12789,6920 12818,6916 12818,6916C12818,6916 12798.7,6929.33 12791,6938C12783.3,6946.67 12775.5,6959.67 12772,6968C12769.4,6974.18 12770,6988 12770,6988C12770,6988 12763.2,6987.92 12760,6987C12756.5,6986 12749.5,6981.5 12749,6982C12748.5,6982.5 12754,6988 12757,6990C12760,6991.99 12767,6994 12767,6994C12767,6994 12767.3,7019.33 12767,7029C12766.7,7036.69 12765,7052 12765,7052C12765,7052 12756.7,7049.67 12753,7048C12749.5,7046.39 12743,7041 12743,7042C12743,7043 12750.2,7051.17 12753,7054C12755,7056.03 12760,7059 12760,7059L12759,7073C12759,7073 12758.2,7085.34 12754,7089C12606.9,7216.82 12628.7,7118.36 12638,7089C12638.9,7086.07 12639,7082.9 12640,7080ZM12714.2,6962.72C12716.9,6964.23 12717.8,6967.59 12716.3,6970.23C12714.8,6972.86 12711.4,6973.78 12708.8,6972.28C12706.1,6970.77 12705.2,6967.41 12706.7,6964.77C12708.2,6962.14 12711.6,6961.22 12714.2,6962.72ZM12771.1,6956.67C12772.2,6957.26 12772.5,6958.62 12771.9,6959.71C12771.3,6960.81 12769.9,6961.21 12768.9,6960.62C12767.8,6960.03 12767.5,6958.66 12768.1,6957.57C12768.7,6956.48 12770.1,6956.08 12771.1,6956.67ZM12777.7,6944.87C12779.5,6945.9 12779.8,6948.88 12778.3,6951.51C12776.8,6954.15 12774.1,6955.45 12772.3,6954.42C12770.5,6953.39 12770.2,6950.41 12771.7,6947.77C12773.2,6945.14 12775.9,6943.84 12777.7,6944.87Z" style="fill:url(#_Linear3);"/>
                    </g>
                    <g transform="matrix(0.884399,0,0,0.263036,1581.26,-20.6084)">
                        <path d="M12502,6823C12505.7,6826.33 12509,6830.33 12513,6833C12517,6835.65 12526,6839 12526,6839L12525,6842C12525,6842 12518.3,6839.33 12515,6838" style="fill:none;stroke:rgb(16,43,45);stroke-width:1.45px;"/>
                    </g>
                    <g transform="matrix(0.894012,0,0,0.263036,1460.07,-20.6084)">
                        <path d="M12453,6780C12449.3,6776.33 12445,6773 12442,6769C12439,6765.06 12435,6756 12435,6756L12439,6751L12447,6765L12439,6751L12453,6737C12453,6737 12455.7,6744.7 12458,6748C12460.3,6751.33 12467,6757 12467,6757C12467,6757 12460.3,6751.33 12458,6748C12455.7,6744.7 12453,6737 12453,6737" style="fill:none;stroke:rgb(6,15,16);stroke-width:1.44px;"/>
                    </g>
                    <g transform="matrix(0.888672,0,0,0.263036,1528.02,-20.6084)">
                        <path d="M12526,6801C12528.3,6801.67 12533,6803 12533,6803L12533,6799C12533,6799 12525.6,6798.1 12522,6797C12517.7,6795.67 12507,6791 12507,6791C12507,6791 12517.7,6795.67 12522,6797C12525.6,6798.1 12533,6799 12533,6799L12534,6769C12534,6769 12530.7,6770 12529,6770C12527.2,6770 12523,6769 12523,6769C12523,6769 12527.2,6770 12529,6770C12530.7,6770 12534,6769 12534,6769L12534,6763C12534,6763 12529.3,6763.46 12527,6763C12523.7,6762.33 12518.3,6760.33 12514,6759" style="fill:none;stroke:rgb(16,43,45);stroke-width:1.45px;"/>
                    </g>
                    <g transform="matrix(0.922852,0,0,0.252076,1100.53,53.0306)">
                        <path d="M12509,6719C12508,6715.33 12506.8,6711.71 12506,6708C12505.2,6704.17 12504,6696 12504,6696L12507,6695C12507,6695 12508.3,6702.83 12509,6705C12509.4,6706.15 12510.3,6707 12511,6708" style="fill:none;stroke:rgb(6,15,16);stroke-width:1.45px;"/>
                    </g>
                    <g transform="matrix(0.871582,0,0,0.263036,1742.43,-20.6084)">
                        <path d="M12520,6734C12522.7,6736 12525.2,6738.67 12528,6740C12530.8,6741.31 12537,6742 12537,6742L12537,6736C12537,6736 12533.5,6735.7 12532,6735C12530.2,6734.17 12526,6731 12526,6731C12526,6731 12530.2,6734.17 12532,6735C12533.5,6735.7 12537,6736 12537,6736L12538,6731C12538,6731 12535.8,6731.33 12535,6731C12534.2,6730.67 12533.7,6729.67 12533,6729" style="fill:none;stroke:rgb(16,43,45);stroke-width:1.46px;"/>
                    </g>
                    <g transform="matrix(0.922852,0,0,0.263036,1100.53,-20.6084)">
                        <path d="M12451.5,6850.51C12455,6846.98 12459,6843.87 12462.4,6840.3C12463.9,6838.67 12465.4,6836.96 12466.6,6835.08C12469.7,6830.44 12473.5,6823.78 12477.2,6816.67C12480.5,6810.32 12483.8,6803.6 12486.4,6797.63C12488,6794 12489.5,6790.13 12490.8,6786.19C12494.1,6776.72 12496.9,6766.91 12500.1,6759.45C12501.9,6755.14 12503.8,6750.91 12506,6746.74C12508.1,6742.57 12510.4,6738.48 12512.8,6734.46C12515.8,6729.39 12519.1,6723.67 12522.7,6718.35C12525.2,6714.74 12527.8,6711.31 12530.4,6708.4C12532.9,6705.67 12535.6,6703.17 12538.5,6700.84C12542.8,6697.34 12547.5,6694.22 12552.2,6691.27C12555.1,6689.44 12559.4,6687.11 12563.9,6684.82C12572.7,6680.32 12582,6676 12582,6676C12582,6676 12572.6,6680.15 12563.7,6684.48C12559.2,6686.69 12554.8,6688.95 12551.8,6690.73C12547.1,6693.6 12542.3,6696.66 12537.9,6700.1C12535,6702.41 12532.1,6704.89 12529.6,6707.6C12526.8,6710.51 12524.2,6713.93 12521.6,6717.55C12517.9,6722.82 12514.4,6728.51 12511.2,6733.54C12508.8,6737.55 12506.4,6741.64 12504.2,6745.8C12501.9,6749.97 12499.8,6754.22 12497.9,6758.55C12494.7,6765.98 12491.7,6775.78 12488.2,6785.23C12486.7,6789.07 12485.2,6792.84 12483.6,6796.37C12480.9,6802.22 12477.5,6808.81 12474.1,6815.03C12470.3,6821.95 12466.5,6828.42 12463.4,6832.92C12462.3,6834.58 12460.9,6836.09 12459.5,6837.52C12456,6841.01 12452,6844.04 12448.5,6847.49C12447.7,6848.32 12447.7,6849.68 12448.5,6850.51C12449.3,6851.34 12450.7,6851.34 12451.5,6850.51Z" style="fill:rgb(16,43,45);"/>
                    </g>
                </g>
                <g transform="matrix(1.07616,5.31303e-33,-2.55448e-33,1.44375,21105.5,5554.73)">
                    <g transform="matrix(0.990042,0,0,0.921561,5156.09,1855.53)">
                        <path d="M330,748.776C330,748.776 330,734.934 330,734.934L419.695,734.934L419.695,748.776C419.695,752.061 399.6,754.728 374.848,754.728C350.096,754.728 330,752.061 330,748.776Z" style="fill:rgb(64,77,97);"/>
                    </g>
                    <g transform="matrix(1.05717,0,0,0.797839,5201.59,2037.56)">
                        <ellipse cx="308" cy="621.875" rx="42" ry="6.875" style="fill:rgb(43,52,68);"/>
                    </g>
                    <g transform="matrix(1.2122,0,0,1.02049,5275.67,1767.69)">
                        <path d="M182.216,751C180.162,747.062 179,742.588 179,737.844C179,726.746 185.357,717.121 194.624,712.415C197.503,710.953 204.382,703.341 204,698.626C203.618,693.911 195.789,686.307 192.329,684.126C184.323,679.078 179,670.156 179,660C179,655.714 179.948,651.647 181.646,648L233.354,648C235.052,651.647 236,655.714 236,660C236,670.789 229.992,680.187 221.141,685.025C218.061,686.709 211.093,694.121 211,698.704C210.907,703.287 217.651,711.002 220.586,712.523C229.739,717.267 236,726.83 236,737.844C236,742.588 234.838,747.062 232.784,751C215.259,756.149 198.431,755.933 182.216,751Z" style="fill:rgb(229,231,234);"/>
                    </g>
                    <g transform="matrix(1.0846,0,0,1.02049,5302.15,1767.69)">
                        <path d="M182.216,751C180.162,747.062 179,742.588 179,737.844C179,726.746 185.357,717.121 194.624,712.415C197.503,710.953 204.382,703.341 204,698.626C203.618,693.911 195.789,686.307 192.329,684.126C184.323,679.078 179,670.156 179,660C179,655.714 179.948,651.647 181.646,648L233.354,648C235.052,651.647 236,655.714 236,660C236,670.789 229.992,680.187 221.141,685.025C218.061,686.709 211.093,694.121 211,698.704C210.907,703.287 217.651,711.002 220.586,712.523C229.739,717.267 236,726.83 236,737.844C236,742.588 234.838,747.062 232.784,751C215.031,754.512 198.161,754.568 182.216,751Z" style="fill:rgb(213,214,240);"/>
                    </g>
                    <g transform="matrix(0.990042,0,0,0.921561,5156.09,1855.53)">
                        <path d="M330,618.825C330,618.825 330,604.983 330,604.983L419.695,604.983L419.695,618.825C419.695,622.11 399.6,624.777 374.848,624.777C350.096,624.777 330,622.11 330,618.825Z" style="fill:rgb(64,77,97);"/>
                    </g>
                    <g transform="matrix(1.05717,0,0,0.797839,5201.59,1917.8)">
                        <ellipse cx="308" cy="621.875" rx="42" ry="6.875" style="fill:rgb(43,52,68);"/>
                    </g>
                    <g transform="matrix(1.2122,0,0,1.02049,5275.67,1768.59)">
                        <path d="M196.908,681.636C196.742,680.636 201.464,678.79 204,678C207.015,677.061 211.833,676.167 215,676C217.684,675.859 221.167,676.5 223,677C224.16,677.316 226.167,678.167 226,679C225.833,679.833 223.556,681.402 222,682C219.833,682.833 215.833,683.667 213,684C210.352,684.312 207.638,684.388 205,684C202.318,683.606 197.075,682.636 196.908,681.636Z" style="fill:rgb(114,119,205);"/>
                    </g>
                    <g transform="matrix(1.2122,0,0,1.02049,5275.67,1768.59)">
                        <path d="M190,680.122C190,680.122 196.133,685.5 198.467,688C200.741,690.437 203.833,694.583 205,697C205.953,698.974 206,699.308 206,701.5C206,704.667 204.667,709.917 204,714C203.336,718.069 202.333,722.833 201,726C199.887,728.643 199.333,731.333 197,733C194.667,734.667 190.5,735.333 188,736C186.041,736.522 182,737 182,737C182,737 181.5,742.917 182,745.103C182.434,747.001 183.135,749.555 185,750.115C189.25,751.393 197.5,752.585 205.5,752.77C213.381,752.954 226.75,751.744 231,750.115C233.301,749.234 232.5,745.353 233,743C233.485,740.718 233,736 233,736C233,736 226,737.167 223,736C220,734.833 216.849,732.774 215,730C213,727 211.827,722.134 211,718C210.167,713.833 209.411,708.333 209,705C208.709,702.634 208.971,702.294 209.138,700C209.304,697.706 210.617,696.195 212,694.234C213.411,692.234 215.167,688.376 217,686.837C218.635,685.465 225,680.122 225,680.122C225,680.122 213.064,684.292 208.536,684C203.37,683.667 190,680.122 190,680.122Z" style="fill:rgb(76,81,191);"/>
                    </g>
                    <g transform="matrix(2.03854,0,0,1.10002,4794.71,1720.88)">
                        <rect x="339" y="637.844" width="2" height="106.781" style="fill:rgb(64,77,97);"/>
                    </g>
                    <g transform="matrix(2.03854,0,0,1.10002,4873.18,1722.5)">
                        <rect x="339" y="637.844" width="2" height="106.781" style="fill:rgb(64,77,97);"/>
                    </g>
                </g>
                <g transform="matrix(0.163005,0,0,0.722304,25737.5,-4710.43)">
                    <g transform="matrix(0.689869,0,0,0.161904,877.899,16688.2)">
                        <path d="M10709.6,16075.8C10709.6,16075.8 10738.2,15879.8 10759.4,15678.4C10769.3,15584.2 10777.5,15488.8 10780.8,15411.8C10788.1,15226 10805.4,15140.1 10828.6,15108.1C10846.3,15083.6 10867.1,15097.6 10888.4,15118.1C10909.6,15138.5 10930.8,15166.3 10949.7,15181.8C10964.2,15193.7 10977.7,15198.3 10988.9,15190.6C10990.7,15189.3 10991.2,15186.8 10990,15184.9C10988.7,15183.1 10986.2,15182.6 10984.3,15183.8C10975.8,15189.3 10966.3,15183.9 10955.8,15174.6C10937.6,15158.6 10917.5,15130.3 10897.1,15109.3C10869.5,15080.9 10841.3,15066.9 10816.4,15099C10791.4,15131.2 10769.3,15219 10755.6,15410.4C10750.4,15486.9 10739.6,15581.3 10727.6,15674.7C10702,15874.9 10670.2,16069.8 10670.2,16069.8C10668.5,16080.6 10676,16090.8 10686.9,16092.5C10697.8,16094.2 10708,16086.7 10709.6,16075.8Z" style="fill:rgb(34,84,61);"/>
                    </g>
                    <g transform="matrix(0.689869,0,0,0.161904,877.899,16688.2)">
                        <path d="M10889.2,15111.6C10924.9,15103.1 10993.6,15062.5 11037.9,15064.9C11081.9,15067.2 11153.4,15110.2 11155,15125.8C11156.5,15141.3 11048.9,15153.3 11047.2,15158.4C11045.6,15163.5 11116.1,15151.8 11145.1,15156.5C11172,15160.9 11211.4,15161.3 11221.2,15186.8C11232.3,15215.5 11219.1,15311.2 11211.4,15328.8C11204.5,15344.5 11189.1,15300.5 11174.8,15292.7C11160.5,15284.9 11120.7,15270.4 11125.5,15281.9C11130.4,15293.5 11200.3,15337.4 11203.9,15361.9C11207.4,15386.3 11162.1,15403.9 11146.6,15428.8C11130.5,15454.8 11119.2,15513 11106.8,15517.8C11094.4,15522.7 11088,15473.1 11072.2,15457.8C11056.4,15442.4 11021,15446.5 11011.8,15425.6C11002.1,15403.9 11024.4,15325.8 11014.3,15327.2C11004.2,15328.6 10969.9,15419.6 10951.1,15434C10937,15444.8 10906.4,15430.9 10901.7,15413.8C10894.5,15387.7 10913.9,15289.5 10907.9,15277.5C10901.8,15265.5 10873.5,15321.1 10865.4,15341.9C10858.1,15360.8 10875.3,15399.4 10859.5,15402.4C10843.6,15405.4 10789.7,15381.8 10770.4,15359.9C10751,15338 10733.6,15300.4 10743.3,15271C10753.1,15241.4 10824.2,15194.8 10829,15182.5C10833.9,15170.1 10787.1,15187.7 10772.6,15197C10758.2,15206.2 10744,15245.1 10741.9,15238.3C10739.8,15231.4 10746.3,15176.1 10760,15155.8C10773.6,15135.4 10802.2,15123.5 10823.7,15116.2C10844.4,15109.1 10867.9,15116.7 10889.2,15111.6Z" style="fill:rgb(47,133,90);"/>
                    </g>
                    <g transform="matrix(0.689869,0,0,0.161904,877.899,16688.2)">
                        <path d="M10883.7,15118.2C10908.6,15138.3 10936,15156.5 10960.7,15176.7C10971.3,15185.4 10981.3,15194.5 10990.4,15204.2C11005,15219.8 11019,15237.8 11031.5,15256.1C11045.1,15275.8 11056.9,15295.7 11065.9,15313.1C11073.2,15327.1 11078.8,15342.1 11083.3,15357.4C11087.8,15372.8 11091.2,15388.6 11094,15404.3C11095.8,15414.6 11096.9,15425.4 11097.6,15436.5C11099.3,15461.5 11099.1,15487.8 11100.7,15512.8C11100.7,15513.6 11101.4,15514.2 11102.1,15514.2C11102.9,15514.1 11103.5,15513.5 11103.4,15512.7C11102.6,15487.6 11103.6,15461.3 11102.7,15436.3C11102.3,15425 11101.5,15413.9 11099.9,15403.4C11097.6,15387.3 11094.7,15371.2 11090.5,15355.4C11086.4,15339.4 11081,15323.8 11073.9,15309.1C11065.3,15291.2 11053.8,15270.5 11040.7,15250.1C11028.3,15230.9 11014.5,15211.9 11000.1,15195.5C10990.8,15185.1 10980.6,15175.3 10969.9,15165.9C10945.8,15144.9 10919,15125.9 10894.7,15105.1C10891,15102.1 10885.6,15102.5 10882.6,15106.2C10879.6,15109.8 10880.1,15115.2 10883.7,15118.2Z" style="fill:white;"/>
                    </g>
                    <g transform="matrix(0.689869,0,0,0.161904,877.899,16688.2)">
                        <path d="M10940.5,15149.3C10940.5,15149.3 10870.4,15199.4 10827.5,15254.7C10802,15287.7 10786.1,15322.5 10799.8,15349.8C10800,15350.3 10800.6,15350.5 10801,15350.2C10801.5,15350 10801.7,15349.5 10801.4,15349C10789.2,15322.1 10806.1,15289.2 10832,15258.3C10876.2,15205.4 10946.9,15158.7 10946.9,15158.7C10949.5,15156.9 10950.2,15153.3 10948.4,15150.7C10946.6,15148.1 10943.1,15147.5 10940.5,15149.3Z" style="fill:white;"/>
                    </g>
                    <g transform="matrix(0.689869,0,0,0.161904,877.899,16688.2)">
                        <path d="M10904.5,15120.9C10904.5,15120.9 10847.3,15121.3 10803.4,15145.2C10782.9,15156.4 10765.4,15172.5 10757.8,15196C10757.6,15196.5 10757.9,15197 10758.4,15197.2C10758.8,15197.4 10759.4,15197.1 10759.5,15196.6C10768.1,15174.4 10785.7,15159.9 10805.9,15150.3C10849.4,15129.7 10904.3,15132.3 10904.3,15132.3C10907.5,15132.3 10910.1,15129.8 10910.1,15126.7C10910.2,15123.5 10907.7,15120.9 10904.5,15120.9Z" style="fill:white;"/>
                    </g>
                    <g transform="matrix(0.689869,0,0,0.161904,875.384,16688.6)">
                        <path d="M10926.5,15134.5C10926.5,15134.5 10984.4,15101.6 11049,15100C11076.6,15099.4 11105.4,15104.4 11131.4,15120.2C11131.8,15120.4 11132.4,15120.3 11132.6,15119.9C11132.9,15119.4 11132.8,15118.9 11132.4,15118.6C11106.5,15101.4 11077.2,15094.9 11049,15094.4C10982.3,15093 10921,15124.4 10921,15124.4C10918.3,15125.9 10917.2,15129.4 10918.7,15132.2C10920.2,15134.9 10923.7,15136 10926.5,15134.5Z" style="fill:white;"/>
                    </g>
                    <g transform="matrix(0.689869,0,0,0.161904,882.62,16688.3)">
                        <path d="M10997.2,15210.8C10997.2,15210.8 11082.4,15196.9 11144.3,15217.3C11176.9,15228.1 11202.9,15248.4 11206.5,15285.4C11206.5,15285.9 11207,15286.3 11207.5,15286.2C11208,15286.2 11208.4,15285.7 11208.3,15285.2C11206.1,15246.6 11179.7,15224.5 11146.2,15212C11083.5,15188.6 10995.6,15199.6 10995.6,15199.6C10992.5,15200 10990.3,15202.9 10990.7,15206C10991.2,15209.1 10994.1,15211.3 10997.2,15210.8Z" style="fill:white;"/>
                    </g>
                    <g transform="matrix(0.689869,0,0,0.161904,875.521,16688.7)">
                        <path d="M10984.5,15184.9C10984.5,15184.9 10944.5,15244.5 10927.8,15313.7C10920.3,15344.3 10917.4,15376.8 10924.6,15406.8C10924.7,15407.3 10925.2,15407.7 10925.7,15407.6C10926.2,15407.4 10926.5,15407 10926.4,15406.5C10920.6,15376.7 10924.7,15344.9 10933.2,15315.2C10952.4,15248.1 10993.9,15191.5 10993.9,15191.5C10995.7,15188.9 10995.1,15185.3 10992.5,15183.5C10989.9,15181.7 10986.4,15182.4 10984.5,15184.9Z" style="fill:white;"/>
                    </g>
                    <g transform="matrix(0.689869,0,0,0.161904,877.899,16688.2)">
                        <path d="M11067,15320.8C11067,15320.8 11055.4,15352.1 11051,15383.8C11048.8,15399.4 11048.2,15415 11051.6,15427.1C11051.7,15427.6 11052.2,15427.9 11052.7,15427.8C11053.2,15427.7 11053.6,15427.2 11053.4,15426.7C11051.2,15414.7 11053.1,15399.7 11056.5,15384.9C11063.6,15354.5 11077.5,15325.2 11077.5,15325.2C11078.8,15322.3 11077.4,15318.9 11074.5,15317.7C11071.6,15316.5 11068.2,15317.9 11067,15320.8Z" style="fill:white;"/>
                    </g>
                    <g transform="matrix(0.689869,0,0,0.161904,877.71,16688.2)">
                        <path d="M11044.2,15273.7C11044.2,15273.7 11097.1,15302 11131.5,15328.1C11147.5,15340.2 11159.5,15351.7 11160,15359.6C11160,15360.1 11160.4,15360.5 11160.9,15360.5C11161.4,15360.5 11161.8,15360.1 11161.8,15359.5C11161.9,15351.3 11150.4,15338.2 11134.4,15324.4C11101.4,15295.9 11049.9,15263.8 11049.9,15263.8C11047.2,15262.2 11043.7,15263.2 11042.1,15265.9C11040.6,15268.6 11041.5,15272.1 11044.2,15273.7Z" style="fill:white;"/>
                    </g>
                </g>
                <g transform="matrix(0.630454,0.144154,-0.486334,2.30028,19774.6,3465.34)">
                    <g transform="matrix(0.922852,0,0,0.263036,877.204,-101.623)">
                        <path d="M12919.7,6777.27C12919.7,6777.27 12942.2,6801.73 12957.3,6821.3C12963.9,6829.94 12969.1,6837.53 12969.9,6841.48C12970.2,6842.64 12971.3,6843.36 12972.5,6843.1C12973.6,6842.83 12974.4,6841.67 12974.1,6840.52C12973,6836.31 12967.3,6828.25 12959.8,6819.27C12943.9,6800.29 12920.3,6776.73 12920.3,6776.73C12920.1,6776.57 12919.9,6776.57 12919.7,6776.72C12919.6,6776.87 12919.6,6777.12 12919.7,6777.27Z" style="fill:rgb(238,78,79);"/>
                    </g>
                    <g transform="matrix(0.922852,0,0,0.263036,877.204,-101.623)">
                        <path d="M12967,6829C12966.5,6828.33 12967,6824.76 12968,6823C12969.3,6820.67 12973,6817 12975,6815C12976.5,6813.49 12978.5,6811.5 12980,6811C12981.3,6810.57 12983.3,6810.83 12984,6812C12984.7,6813.17 12985,6816.33 12984,6818C12983,6819.67 12980,6820.63 12978,6822C12975.8,6823.5 12972.8,6825.83 12971,6827C12969.7,6827.8 12967.5,6829.67 12967,6829Z" style="fill:rgb(206,51,49);"/>
                    </g>
                    <g transform="matrix(0.922852,0,0,0.263036,868.898,-104.254)">
                        <path d="M12967,6829C12966.5,6828.33 12967,6824.76 12968,6823C12969.3,6820.67 12973,6817 12975,6815C12976.5,6813.49 12978.5,6811.5 12980,6811C12981.3,6810.57 12983.3,6810.83 12984,6812C12984.7,6813.17 12985,6816.33 12984,6818C12983,6819.67 12980,6820.63 12978,6822C12975.8,6823.5 12972.8,6825.83 12971,6827C12969.7,6827.8 12967.5,6829.67 12967,6829Z" style="fill:rgb(206,51,49);"/>
                    </g>
                    <g transform="matrix(0.912363,-0.0395443,0.13874,0.260046,49.5649,426.356)">
                        <path d="M12967,6829C12966.5,6828.33 12967,6824.76 12968,6823C12969.3,6820.67 12973,6817 12975,6815C12976.5,6813.49 12978.5,6811.5 12980,6811C12981.3,6810.57 12983.3,6810.83 12984,6812C12984.7,6813.17 12985,6816.33 12984,6818C12983,6819.67 12980,6820.63 12978,6822C12975.8,6823.5 12972.8,6825.83 12971,6827C12969.7,6827.8 12967.5,6829.67 12967,6829Z" style="fill:rgb(206,51,49);"/>
                    </g>
                    <g transform="matrix(0.89532,-0.0637702,0.223736,0.255188,-319.107,770.679)">
                        <path d="M12967,6829C12966.5,6828.33 12967,6824.76 12968,6823C12969.3,6820.67 12973,6817 12975,6815C12976.5,6813.49 12978.5,6811.5 12980,6811C12981.3,6810.57 12983.3,6810.83 12984,6812C12984.7,6813.17 12985,6816.33 12984,6818C12983,6819.67 12980,6820.63 12978,6822C12975.8,6823.5 12972.8,6825.83 12971,6827C12969.7,6827.8 12967.5,6829.67 12967,6829Z" style="fill:rgb(206,51,49);"/>
                    </g>
                    <g transform="matrix(0.611896,-0.043583,0.15291,0.174405,3831.37,1057.96)">
                        <path d="M12967,6829C12966.5,6828.33 12967,6824.76 12968,6823C12969.3,6820.67 12973,6817 12975,6815C12976.5,6813.49 12978.5,6811.5 12980,6811C12981.3,6810.57 12983.3,6810.83 12984,6812C12984.7,6813.17 12985,6816.33 12984,6818C12983,6819.67 12980,6820.63 12978,6822C12975.8,6823.5 12972.8,6825.83 12971,6827C12969.7,6827.8 12967.5,6829.67 12967,6829Z" style="fill:rgb(206,51,49);"/>
                    </g>
                    <g transform="matrix(-0.327531,0.245912,0.862774,0.0933544,11197.9,-2131.03)">
                        <path d="M12967,6829C12966.5,6828.33 12967,6824.76 12968,6823C12969.3,6820.67 12973,6817 12975,6815C12976.5,6813.49 12978.5,6811.5 12980,6811C12981.3,6810.57 12983.3,6810.83 12984,6812C12984.7,6813.17 12985,6816.33 12984,6818C12983,6819.67 12980,6820.63 12978,6822C12975.8,6823.5 12972.8,6825.83 12971,6827C12969.7,6827.8 12967.5,6829.67 12967,6829Z" style="fill:rgb(206,51,49);"/>
                    </g>
                    <g transform="matrix(-0.327531,0.245912,0.862774,0.0933544,11192.2,-2134.18)">
                        <path d="M12967,6829C12966.5,6828.33 12967,6824.76 12968,6823C12969.3,6820.67 12973,6817 12975,6815C12976.5,6813.49 12978.5,6811.5 12980,6811C12981.3,6810.57 12983.3,6810.83 12984,6812C12984.7,6813.17 12985,6816.33 12984,6818C12983,6819.67 12980,6820.63 12978,6822C12975.8,6823.5 12972.8,6825.83 12971,6827C12969.7,6827.8 12967.5,6829.67 12967,6829Z" style="fill:rgb(206,51,49);"/>
                    </g>
                    <g transform="matrix(-0.453516,0.229082,0.803728,0.129263,13219.7,-2164.18)">
                        <path d="M12967,6829C12966.5,6828.33 12967,6824.76 12968,6823C12969.3,6820.67 12973,6817 12975,6815C12976.5,6813.49 12978.5,6811.5 12980,6811C12981.3,6810.57 12983.3,6810.83 12984,6812C12984.7,6813.17 12985,6816.33 12984,6818C12983,6819.67 12980,6820.63 12978,6822C12975.8,6823.5 12972.8,6825.83 12971,6827C12969.7,6827.8 12967.5,6829.67 12967,6829Z" style="fill:rgb(206,51,49);"/>
                    </g>
                    <g transform="matrix(-0.52693,0.215943,0.757628,0.150188,14477.2,-2139.43)">
                        <path d="M12967,6829C12966.5,6828.33 12967,6824.76 12968,6823C12969.3,6820.67 12973,6817 12975,6815C12976.5,6813.49 12978.5,6811.5 12980,6811C12981.3,6810.57 12983.3,6810.83 12984,6812C12984.7,6813.17 12985,6816.33 12984,6818C12983,6819.67 12980,6820.63 12978,6822C12975.8,6823.5 12972.8,6825.83 12971,6827C12969.7,6827.8 12967.5,6829.67 12967,6829Z" style="fill:rgb(206,51,49);"/>
                    </g>
                    <g transform="matrix(-0.360124,0.147584,0.517792,0.102644,13943.7,-930.705)">
                        <path d="M12967,6829C12966.5,6828.33 12967,6824.76 12968,6823C12969.3,6820.67 12973,6817 12975,6815C12976.5,6813.49 12978.5,6811.5 12980,6811C12981.3,6810.57 12983.3,6810.83 12984,6812C12984.7,6813.17 12985,6816.33 12984,6818C12983,6819.67 12980,6820.63 12978,6822C12975.8,6823.5 12972.8,6825.83 12971,6827C12969.7,6827.8 12967.5,6829.67 12967,6829Z" style="fill:rgb(206,51,49);"/>
                    </g>
                    <g transform="matrix(0.922852,0,0,0.263036,877.204,-101.623)">
                        <path d="M12928,6786C12927,6786 12924.5,6785.81 12923,6785C12921.2,6784 12918,6781.67 12917,6780C12916.1,6778.57 12916.3,6775.83 12917,6775C12917.7,6774.17 12918.7,6773.74 12920,6774C12921.7,6774.33 12925.7,6775.83 12927,6777C12928.3,6778.17 12928.7,6780.67 12929,6782C12929.2,6782.97 12929.2,6784.33 12929,6785C12928.9,6785.46 12928.5,6786 12928,6786Z" style="fill:rgb(206,51,49);"/>
                    </g>
                </g>
                <g transform="matrix(0.237303,0.413752,-1.39588,0.865823,26386.9,2436.23)">
                    <g transform="matrix(0.922852,0,0,0.263036,877.204,-101.623)">
                        <path d="M12919.6,6777.38C12919.6,6777.38 12941.9,6802.01 12956.8,6821.7C12963.2,6830.27 12968.3,6837.77 12969.1,6841.67C12969.5,6843.29 12971.1,6844.29 12972.7,6843.92C12974.3,6843.55 12975.3,6841.94 12974.9,6840.33C12973.8,6836.07 12968,6827.91 12960.3,6818.87C12944.2,6800 12920.4,6776.62 12920.4,6776.62C12920.2,6776.4 12919.8,6776.4 12919.6,6776.61C12919.4,6776.82 12919.4,6777.16 12919.6,6777.38Z" style="fill:rgb(238,78,79);"/>
                    </g>
                    <g transform="matrix(0.922852,0,0,0.263036,877.204,-101.623)">
                        <path d="M12967,6829C12966.5,6828.33 12967,6824.76 12968,6823C12969.3,6820.67 12973,6817 12975,6815C12976.5,6813.49 12978.5,6811.5 12980,6811C12981.3,6810.57 12983.3,6810.83 12984,6812C12984.7,6813.17 12985,6816.33 12984,6818C12983,6819.67 12980,6820.63 12978,6822C12975.8,6823.5 12972.8,6825.83 12971,6827C12969.7,6827.8 12967.5,6829.67 12967,6829Z" style="fill:rgb(206,51,49);"/>
                    </g>
                    <g transform="matrix(0.922852,0,0,0.263036,868.898,-104.254)">
                        <path d="M12967,6829C12966.5,6828.33 12967,6824.76 12968,6823C12969.3,6820.67 12973,6817 12975,6815C12976.5,6813.49 12978.5,6811.5 12980,6811C12981.3,6810.57 12983.3,6810.83 12984,6812C12984.7,6813.17 12985,6816.33 12984,6818C12983,6819.67 12980,6820.63 12978,6822C12975.8,6823.5 12972.8,6825.83 12971,6827C12969.7,6827.8 12967.5,6829.67 12967,6829Z" style="fill:rgb(206,51,49);"/>
                    </g>
                    <g transform="matrix(0.912363,-0.0395443,0.13874,0.260046,49.5649,426.356)">
                        <path d="M12967,6829C12966.5,6828.33 12967,6824.76 12968,6823C12969.3,6820.67 12973,6817 12975,6815C12976.5,6813.49 12978.5,6811.5 12980,6811C12981.3,6810.57 12983.3,6810.83 12984,6812C12984.7,6813.17 12985,6816.33 12984,6818C12983,6819.67 12980,6820.63 12978,6822C12975.8,6823.5 12972.8,6825.83 12971,6827C12969.7,6827.8 12967.5,6829.67 12967,6829Z" style="fill:rgb(206,51,49);"/>
                    </g>
                    <g transform="matrix(0.89532,-0.0637702,0.223736,0.255188,-319.107,770.679)">
                        <path d="M12967,6829C12966.5,6828.33 12967,6824.76 12968,6823C12969.3,6820.67 12973,6817 12975,6815C12976.5,6813.49 12978.5,6811.5 12980,6811C12981.3,6810.57 12983.3,6810.83 12984,6812C12984.7,6813.17 12985,6816.33 12984,6818C12983,6819.67 12980,6820.63 12978,6822C12975.8,6823.5 12972.8,6825.83 12971,6827C12969.7,6827.8 12967.5,6829.67 12967,6829Z" style="fill:rgb(206,51,49);"/>
                    </g>
                    <g transform="matrix(0.611896,-0.043583,0.15291,0.174405,3831.37,1057.96)">
                        <path d="M12967,6829C12966.5,6828.33 12967,6824.76 12968,6823C12969.3,6820.67 12973,6817 12975,6815C12976.5,6813.49 12978.5,6811.5 12980,6811C12981.3,6810.57 12983.3,6810.83 12984,6812C12984.7,6813.17 12985,6816.33 12984,6818C12983,6819.67 12980,6820.63 12978,6822C12975.8,6823.5 12972.8,6825.83 12971,6827C12969.7,6827.8 12967.5,6829.67 12967,6829Z" style="fill:rgb(206,51,49);"/>
                    </g>
                    <g transform="matrix(-0.327531,0.245912,0.862774,0.0933544,11197.9,-2131.03)">
                        <path d="M12967,6829C12966.5,6828.33 12967,6824.76 12968,6823C12969.3,6820.67 12973,6817 12975,6815C12976.5,6813.49 12978.5,6811.5 12980,6811C12981.3,6810.57 12983.3,6810.83 12984,6812C12984.7,6813.17 12985,6816.33 12984,6818C12983,6819.67 12980,6820.63 12978,6822C12975.8,6823.5 12972.8,6825.83 12971,6827C12969.7,6827.8 12967.5,6829.67 12967,6829Z" style="fill:rgb(206,51,49);"/>
                    </g>
                    <g transform="matrix(-0.327531,0.245912,0.862774,0.0933544,11192.2,-2134.18)">
                        <path d="M12967,6829C12966.5,6828.33 12967,6824.76 12968,6823C12969.3,6820.67 12973,6817 12975,6815C12976.5,6813.49 12978.5,6811.5 12980,6811C12981.3,6810.57 12983.3,6810.83 12984,6812C12984.7,6813.17 12985,6816.33 12984,6818C12983,6819.67 12980,6820.63 12978,6822C12975.8,6823.5 12972.8,6825.83 12971,6827C12969.7,6827.8 12967.5,6829.67 12967,6829Z" style="fill:rgb(206,51,49);"/>
                    </g>
                    <g transform="matrix(-0.453516,0.229082,0.803728,0.129263,13219.7,-2164.18)">
                        <path d="M12967,6829C12966.5,6828.33 12967,6824.76 12968,6823C12969.3,6820.67 12973,6817 12975,6815C12976.5,6813.49 12978.5,6811.5 12980,6811C12981.3,6810.57 12983.3,6810.83 12984,6812C12984.7,6813.17 12985,6816.33 12984,6818C12983,6819.67 12980,6820.63 12978,6822C12975.8,6823.5 12972.8,6825.83 12971,6827C12969.7,6827.8 12967.5,6829.67 12967,6829Z" style="fill:rgb(206,51,49);"/>
                    </g>
                    <g transform="matrix(-0.52693,0.215943,0.757628,0.150188,14477.2,-2139.43)">
                        <path d="M12967,6829C12966.5,6828.33 12967,6824.76 12968,6823C12969.3,6820.67 12973,6817 12975,6815C12976.5,6813.49 12978.5,6811.5 12980,6811C12981.3,6810.57 12983.3,6810.83 12984,6812C12984.7,6813.17 12985,6816.33 12984,6818C12983,6819.67 12980,6820.63 12978,6822C12975.8,6823.5 12972.8,6825.83 12971,6827C12969.7,6827.8 12967.5,6829.67 12967,6829Z" style="fill:rgb(206,51,49);"/>
                    </g>
                    <g transform="matrix(-0.360124,0.147584,0.517792,0.102644,13943.7,-930.705)">
                        <path d="M12967,6829C12966.5,6828.33 12967,6824.76 12968,6823C12969.3,6820.67 12973,6817 12975,6815C12976.5,6813.49 12978.5,6811.5 12980,6811C12981.3,6810.57 12983.3,6810.83 12984,6812C12984.7,6813.17 12985,6816.33 12984,6818C12983,6819.67 12980,6820.63 12978,6822C12975.8,6823.5 12972.8,6825.83 12971,6827C12969.7,6827.8 12967.5,6829.67 12967,6829Z" style="fill:rgb(206,51,49);"/>
                    </g>
                    <g transform="matrix(0.922852,0,0,0.263036,877.204,-101.623)">
                        <path d="M12928,6786C12927,6786 12924.5,6785.81 12923,6785C12921.2,6784 12918,6781.67 12917,6780C12916.1,6778.57 12916.3,6775.83 12917,6775C12917.7,6774.17 12918.7,6773.74 12920,6774C12921.7,6774.33 12925.7,6775.83 12927,6777C12928.3,6778.17 12928.7,6780.67 12929,6782C12929.2,6782.97 12929.2,6784.33 12929,6785C12928.9,6785.46 12928.5,6786 12928,6786Z" style="fill:rgb(206,51,49);"/>
                    </g>
                </g>
                <g transform="matrix(0.514292,-0.00435834,0.00419094,0.534834,25193.7,2940.74)">
                    <clipPath id="_clip4">
                        <rect x="3291.91" y="11666.2" width="235.869" height="143.402"/>
                    </clipPath>
                    <g clip-path="url(#_clip4)">
                        <g transform="matrix(0.98056,0.196218,-0.165378,0.826446,1845.94,1603.67)">
                            <path d="M3462.99,11499.1C3459.15,11498.8 3453.28,11500 3451.43,11498.7C3449.58,11497.5 3453.49,11492.8 3451.91,11491.7C3450.33,11490.6 3443.27,11493.2 3441.97,11492C3440.67,11490.8 3442.34,11485.5 3444.09,11484.5C3445.84,11483.5 3451.18,11486.7 3452.44,11486C3453.71,11485.4 3453.34,11481.4 3451.68,11480.8C3449.3,11479.9 3440.38,11479.8 3438.12,11480.8C3436.33,11481.6 3438.86,11485.9 3438.12,11486.7C3437.39,11487.4 3434.94,11486.4 3433.71,11485.5C3431.97,11484.2 3427.22,11480.7 3427.69,11479.1C3428.16,11477.5 3434.78,11477.8 3436.55,11476C3438.31,11474.3 3439.68,11470 3438.28,11468.7C3436.88,11467.5 3430.25,11469 3428.14,11468.4C3426.8,11468 3426.97,11465.5 3425.65,11465.1C3423.64,11464.4 3416.07,11464.9 3416.11,11464.4C3416.15,11463.8 3424.27,11463.5 3425.9,11461.6C3427.53,11459.7 3424.55,11453.3 3425.9,11453.1C3427.25,11453 3432.44,11461.4 3434.02,11460.7C3435.6,11459.9 3436.12,11450.9 3435.36,11448.6C3434.72,11446.7 3430.02,11447 3429.45,11446.8C3428.87,11446.6 3431.09,11447.3 3431.91,11447.6C3432.9,11447.9 3434.21,11449 3435.36,11448.6C3437.78,11447.9 3446.34,11444.7 3446.45,11443.3C3446.56,11441.9 3438.92,11440.8 3436.01,11440.3C3433.72,11439.9 3429.85,11440.2 3429.01,11440.2C3428.35,11440.2 3430.37,11440.4 3431.01,11440.3C3432.77,11439.7 3438.34,11438.9 3439.62,11437.1C3440.9,11435.4 3438.78,11432.2 3438.67,11429.7C3438.56,11427.1 3437.87,11422.9 3438.97,11422C3440.08,11421.1 3443.73,11423.3 3445.3,11424.3C3446.61,11425 3447.32,11427 3448.42,11427.6C3449.46,11428.1 3451.34,11428.2 3451.93,11427.6C3452.51,11427 3451.16,11424.9 3451.93,11424C3453.11,11422.5 3457.53,11418.8 3459.05,11419C3460.57,11419.2 3459.64,11423.5 3461.04,11425.2C3462.44,11426.9 3466.32,11429.2 3467.45,11429.1C3468.59,11428.9 3467.9,11425.8 3467.85,11424.1C3467.78,11421.3 3468.76,11414.4 3467,11412.4C3465.24,11410.5 3460.08,11412.4 3457.27,11412.4L3450.14,11412.4C3449.67,11412.4 3453.93,11413.3 3454.48,11412.4C3455.03,11411.6 3454.89,11408.2 3453.43,11407.2C3451.53,11405.8 3444.8,11405.6 3443.07,11404.1C3441.59,11402.8 3441.86,11399.2 3443.07,11398.3C3444.28,11397.3 3449.58,11397.4 3450.34,11398.6C3451.1,11399.8 3446.99,11404.9 3447.65,11405.5C3448.32,11406.1 3453.21,11403.6 3454.32,11402.1C3455.43,11400.7 3454.63,11398.4 3454.32,11396.5C3454.02,11394.7 3451.64,11392 3452.49,11391.3C3453.34,11390.5 3457.32,11391.1 3459.42,11392.1C3461.86,11393.2 3465.94,11398.8 3467.13,11398.2C3468.31,11397.7 3465.69,11389.6 3466.55,11388.8C3467.41,11388 3470.6,11394.2 3472.3,11393.4C3474,11392.7 3475.44,11385.8 3476.76,11384.3C3477.53,11383.4 3479.13,11384.6 3480.26,11384.3C3481.71,11384 3485.18,11382.9 3485.47,11382.2C3485.76,11381.4 3481.94,11380.8 3481.99,11379.9C3482.04,11378.9 3484.48,11376.7 3485.76,11376.3C3487.03,11376 3489.05,11378.8 3489.66,11377.6C3490.56,11375.8 3490.09,11367.5 3491.16,11365.5C3491.91,11364 3494.56,11364.8 3496.03,11365.5C3497.93,11366.3 3500.3,11369.4 3502.53,11370.7C3504.66,11372 3507.38,11373.1 3509.45,11373.5C3511.23,11373.9 3513.26,11374.3 3514.92,11373.5C3517.01,11372.6 3520.39,11367.5 3521.98,11367.8C3523.57,11368.2 3522.74,11375.1 3524.46,11375.8C3526.19,11376.5 3531.06,11373.9 3532.33,11372.2C3533.61,11370.4 3531.53,11366 3532.11,11365.3C3532.68,11364.6 3535.74,11367 3535.78,11368.2C3535.82,11369.3 3532.71,11371 3532.33,11372.2C3531.99,11373.3 3532.35,11375.3 3533.5,11375.5C3535.45,11375.8 3542.28,11375.2 3544.01,11374.2C3545.46,11373.3 3543.91,11369.1 3543.91,11369.1C3543.91,11369.1 3542.88,11373.1 3544.01,11374.2C3545.15,11375.2 3548.51,11374.9 3550.73,11375.4C3553.82,11376.1 3561.15,11377 3562.56,11378.4C3563.96,11379.8 3558.78,11382.9 3559.18,11383.9C3559.58,11384.8 3563.03,11383.8 3564.95,11383.9C3567.15,11383.9 3571.11,11382.7 3572.34,11384.2C3573.57,11385.6 3573.68,11390.2 3572.34,11392.7C3570.96,11395.2 3563.6,11398.5 3564.07,11399.5C3564.54,11400.4 3573.95,11397.7 3575.16,11398.3C3576.37,11398.8 3570.66,11401.7 3571.33,11402.7C3572,11403.8 3577.01,11404.9 3579.18,11404.5C3581.35,11404 3582.47,11401.4 3584.34,11400.2C3586.36,11398.9 3589.66,11396.3 3591.32,11396.6C3592.98,11396.9 3594.82,11400.9 3594.31,11402C3593.81,11403.1 3589.29,11402.1 3588.28,11403.3C3587.28,11404.6 3586.67,11408.6 3588.28,11409.6C3589.9,11410.6 3596.07,11410.1 3597.99,11409.2C3599.68,11408.3 3598.69,11404.3 3599.81,11403.8C3600.93,11403.2 3604.14,11404.2 3604.72,11405.8C3605.36,11407.7 3603.05,11413.4 3603.67,11414.9C3604.26,11416.4 3607.1,11414.9 3608.41,11414.9C3609.47,11415 3611.26,11414.2 3611.57,11415.1C3611.89,11416.1 3609.43,11419.3 3610.3,11420.7C3611.17,11422.2 3614.86,11422.9 3616.79,11423.7C3618.47,11424.5 3620.82,11424.5 3621.9,11425.8C3622.98,11427 3623.31,11429.4 3623.28,11431.3C3623.24,11433.3 3620.29,11436.3 3621.67,11437.8C3623.06,11439.2 3630.34,11439 3631.58,11440C3632.76,11441 3630.4,11443.1 3629.11,11444C3626.99,11445.4 3619.41,11447.5 3618.82,11448.5C3618.24,11449.5 3624.56,11448.8 3625.61,11449.8C3626.66,11450.8 3625.13,11452.9 3625.12,11454.5C3625.11,11457.3 3626.93,11464.6 3625.53,11466.2C3624.13,11467.9 3617.95,11463.8 3616.73,11464.5C3615.51,11465.1 3617.01,11468.5 3618.2,11470C3619.41,11471.6 3623.07,11472.4 3624.04,11473.8C3624.92,11475 3625.15,11477.4 3624.04,11478.4C3622.93,11479.3 3617.42,11478.3 3617.39,11479.3C3617.36,11480.3 3623.9,11483.3 3623.84,11484.3C3623.78,11485.3 3616.83,11483.9 3617.04,11485.3C3617.25,11486.8 3625.18,11491.7 3625.09,11493C3625.01,11494.2 3619.16,11492.7 3616.52,11492.8C3614.1,11492.9 3610.97,11492.7 3609.27,11493.4C3607.77,11494.1 3606.82,11496 3606.33,11497.4C3605.86,11498.7 3607.45,11500.7 3606.33,11501.4C3604.18,11502.9 3597.97,11505.3 3593.48,11506.1C3588.01,11507 3577.12,11505.9 3573.51,11506.8C3571.93,11507.2 3573.07,11511 3571.83,11511.4C3570.6,11511.7 3567.79,11509.9 3566.11,11508.9C3564.51,11508 3563.55,11505.8 3561.74,11505.6C3559.5,11505.3 3554.63,11506.5 3552.71,11507.2C3551.56,11507.6 3551.4,11509.6 3550.22,11509.9C3548.55,11510.4 3545.11,11510.8 3542.72,11510.1C3538.25,11508.7 3529.11,11502.3 3523.41,11501.9C3518.11,11501.5 3513.05,11506.6 3508.5,11507.5C3504.45,11508.3 3500.22,11507.9 3496.11,11507.5C3491.48,11507 3483.45,11505.8 3480.72,11504.7C3479.46,11504.1 3480.96,11501.1 3479.67,11500.7C3476.71,11499.8 3467.7,11499.4 3462.99,11499.1Z" style="fill:rgb(34,94,63);"/>
                        </g>
                        <g transform="matrix(0.249137,-0.389373,0.704956,0.45106,-5521.31,7963.47)">
                            <path d="M3462.99,11499.1C3459.15,11498.8 3453.28,11500 3451.43,11498.7C3449.58,11497.5 3453.49,11492.8 3451.91,11491.7C3450.33,11490.6 3443.27,11493.2 3441.97,11492C3440.67,11490.8 3442.34,11485.5 3444.09,11484.5C3445.84,11483.5 3451.18,11486.7 3452.44,11486C3453.71,11485.4 3453.34,11481.4 3451.68,11480.8C3449.3,11479.9 3440.38,11479.8 3438.12,11480.8C3436.33,11481.6 3438.86,11485.9 3438.12,11486.7C3437.39,11487.4 3434.94,11486.4 3433.71,11485.5C3431.97,11484.2 3427.22,11480.7 3427.69,11479.1C3428.16,11477.5 3434.78,11477.8 3436.55,11476C3438.31,11474.3 3439.68,11470 3438.28,11468.7C3436.88,11467.5 3430.25,11469 3428.14,11468.4C3426.8,11468 3426.97,11465.5 3425.65,11465.1C3423.64,11464.4 3416.07,11464.9 3416.11,11464.4C3416.15,11463.8 3424.27,11463.5 3425.9,11461.6C3427.53,11459.7 3424.55,11453.3 3425.9,11453.1C3427.25,11453 3432.44,11461.4 3434.02,11460.7C3435.6,11459.9 3436.12,11450.9 3435.36,11448.6C3434.72,11446.7 3430.02,11447 3429.45,11446.8C3428.87,11446.6 3431.09,11447.3 3431.91,11447.6C3432.9,11447.9 3434.21,11449 3435.36,11448.6C3437.78,11447.9 3446.34,11444.7 3446.45,11443.3C3446.56,11441.9 3438.92,11440.8 3436.01,11440.3C3433.72,11439.9 3429.85,11440.2 3429.01,11440.2C3428.35,11440.2 3430.37,11440.4 3431.01,11440.3C3432.77,11439.7 3438.34,11438.9 3439.62,11437.1C3440.9,11435.4 3438.78,11432.2 3438.67,11429.7C3438.56,11427.1 3437.87,11422.9 3438.97,11422C3440.08,11421.1 3443.73,11423.3 3445.3,11424.3C3446.61,11425 3447.32,11427 3448.42,11427.6C3449.46,11428.1 3451.34,11428.2 3451.93,11427.6C3452.51,11427 3451.16,11424.9 3451.93,11424C3453.11,11422.5 3457.53,11418.8 3459.05,11419C3460.57,11419.2 3459.64,11423.5 3461.04,11425.2C3462.44,11426.9 3466.32,11429.2 3467.45,11429.1C3468.59,11428.9 3467.9,11425.8 3467.85,11424.1C3467.78,11421.3 3468.76,11414.4 3467,11412.4C3465.24,11410.5 3460.08,11412.4 3457.27,11412.4L3450.14,11412.4C3449.67,11412.4 3453.93,11413.3 3454.48,11412.4C3455.03,11411.6 3454.89,11408.2 3453.43,11407.2C3451.53,11405.8 3444.8,11405.6 3443.07,11404.1C3441.59,11402.8 3441.86,11399.2 3443.07,11398.3C3444.28,11397.3 3449.58,11397.4 3450.34,11398.6C3451.1,11399.8 3446.99,11404.9 3447.65,11405.5C3448.32,11406.1 3453.21,11403.6 3454.32,11402.1C3455.43,11400.7 3454.63,11398.4 3454.32,11396.5C3454.02,11394.7 3451.64,11392 3452.49,11391.3C3453.34,11390.5 3457.32,11391.1 3459.42,11392.1C3461.86,11393.2 3465.94,11398.8 3467.13,11398.2C3468.31,11397.7 3465.69,11389.6 3466.55,11388.8C3467.41,11388 3470.6,11394.2 3472.3,11393.4C3474,11392.7 3475.44,11385.8 3476.76,11384.3C3477.53,11383.4 3479.13,11384.6 3480.26,11384.3C3481.71,11384 3485.18,11382.9 3485.47,11382.2C3485.76,11381.4 3481.94,11380.8 3481.99,11379.9C3482.04,11378.9 3484.48,11376.7 3485.76,11376.3C3487.03,11376 3489.05,11378.8 3489.66,11377.6C3490.56,11375.8 3490.09,11367.5 3491.16,11365.5C3491.91,11364 3494.56,11364.8 3496.03,11365.5C3497.93,11366.3 3500.3,11369.4 3502.53,11370.7C3504.66,11372 3507.38,11373.1 3509.45,11373.5C3511.23,11373.9 3513.26,11374.3 3514.92,11373.5C3517.01,11372.6 3520.39,11367.5 3521.98,11367.8C3523.57,11368.2 3522.74,11375.1 3524.46,11375.8C3526.19,11376.5 3531.06,11373.9 3532.33,11372.2C3533.61,11370.4 3531.53,11366 3532.11,11365.3C3532.68,11364.6 3535.74,11367 3535.78,11368.2C3535.82,11369.3 3532.71,11371 3532.33,11372.2C3531.99,11373.3 3532.35,11375.3 3533.5,11375.5C3535.45,11375.8 3542.28,11375.2 3544.01,11374.2C3545.46,11373.3 3543.91,11369.1 3543.91,11369.1C3543.91,11369.1 3542.88,11373.1 3544.01,11374.2C3545.15,11375.2 3548.51,11374.9 3550.73,11375.4C3553.82,11376.1 3561.15,11377 3562.56,11378.4C3563.96,11379.8 3558.78,11382.9 3559.18,11383.9C3559.58,11384.8 3563.03,11383.8 3564.95,11383.9C3567.15,11383.9 3571.11,11382.7 3572.34,11384.2C3573.57,11385.6 3573.68,11390.2 3572.34,11392.7C3570.96,11395.2 3563.6,11398.5 3564.07,11399.5C3564.54,11400.4 3573.95,11397.7 3575.16,11398.3C3576.37,11398.8 3570.66,11401.7 3571.33,11402.7C3572,11403.8 3577.01,11404.9 3579.18,11404.5C3581.35,11404 3582.47,11401.4 3584.34,11400.2C3586.36,11398.9 3589.66,11396.3 3591.32,11396.6C3592.98,11396.9 3594.82,11400.9 3594.31,11402C3593.81,11403.1 3589.29,11402.1 3588.28,11403.3C3587.28,11404.6 3586.67,11408.6 3588.28,11409.6C3589.9,11410.6 3596.07,11410.1 3597.99,11409.2C3599.68,11408.3 3598.69,11404.3 3599.81,11403.8C3600.93,11403.2 3604.14,11404.2 3604.72,11405.8C3605.36,11407.7 3603.05,11413.4 3603.67,11414.9C3604.26,11416.4 3607.1,11414.9 3608.41,11414.9C3609.47,11415 3611.26,11414.2 3611.57,11415.1C3611.89,11416.1 3609.43,11419.3 3610.3,11420.7C3611.17,11422.2 3614.86,11422.9 3616.79,11423.7C3618.47,11424.5 3620.82,11424.5 3621.9,11425.8C3622.98,11427 3623.31,11429.4 3623.28,11431.3C3623.24,11433.3 3620.29,11436.3 3621.67,11437.8C3623.06,11439.2 3630.34,11439 3631.58,11440C3632.76,11441 3630.4,11443.1 3629.11,11444C3626.99,11445.4 3619.41,11447.5 3618.82,11448.5C3618.24,11449.5 3624.56,11448.8 3625.61,11449.8C3626.66,11450.8 3625.13,11452.9 3625.12,11454.5C3625.11,11457.3 3626.93,11464.6 3625.53,11466.2C3624.13,11467.9 3617.95,11463.8 3616.73,11464.5C3615.51,11465.1 3617.01,11468.5 3618.2,11470C3619.41,11471.6 3623.07,11472.4 3624.04,11473.8C3624.92,11475 3625.15,11477.4 3624.04,11478.4C3622.93,11479.3 3617.42,11478.3 3617.39,11479.3C3617.36,11480.3 3623.9,11483.3 3623.84,11484.3C3623.78,11485.3 3616.83,11483.9 3617.04,11485.3C3617.25,11486.8 3625.18,11491.7 3625.09,11493C3625.01,11494.2 3619.16,11492.7 3616.52,11492.8C3614.1,11492.9 3610.97,11492.7 3609.27,11493.4C3607.77,11494.1 3606.82,11496 3606.33,11497.4C3605.86,11498.7 3607.45,11500.7 3606.33,11501.4C3604.18,11502.9 3597.97,11505.3 3593.48,11506.1C3588.01,11507 3577.12,11505.9 3573.51,11506.8C3571.93,11507.2 3573.07,11511 3571.83,11511.4C3570.6,11511.7 3567.79,11509.9 3566.11,11508.9C3564.51,11508 3563.55,11505.8 3561.74,11505.6C3559.5,11505.3 3554.63,11506.5 3552.71,11507.2C3551.56,11507.6 3551.4,11509.6 3550.22,11509.9C3548.55,11510.4 3545.11,11510.8 3542.72,11510.1C3538.25,11508.7 3529.11,11502.3 3523.41,11501.9C3518.11,11501.5 3513.05,11506.6 3508.5,11507.5C3504.45,11508.3 3500.22,11507.9 3496.11,11507.5C3491.48,11507 3483.45,11505.8 3480.72,11504.7C3479.46,11504.1 3480.96,11501.1 3479.67,11500.7C3476.71,11499.8 3467.7,11499.4 3462.99,11499.1Z" style="fill:rgb(47,133,90);"/>
                        </g>
                        <g transform="matrix(-0.570947,0.0179041,0.0188999,0.602703,5169.22,4810.25)">
                            <path d="M3462.99,11499.1C3459.15,11498.8 3453.28,11500 3451.43,11498.7C3449.58,11497.5 3453.49,11492.8 3451.91,11491.7C3450.33,11490.6 3443.27,11493.2 3441.97,11492C3440.67,11490.8 3442.34,11485.5 3444.09,11484.5C3445.84,11483.5 3451.18,11486.7 3452.44,11486C3453.71,11485.4 3453.34,11481.4 3451.68,11480.8C3449.3,11479.9 3440.38,11479.8 3438.12,11480.8C3436.33,11481.6 3438.86,11485.9 3438.12,11486.7C3437.39,11487.4 3434.94,11486.4 3433.71,11485.5C3431.97,11484.2 3427.22,11480.7 3427.69,11479.1C3428.16,11477.5 3434.78,11477.8 3436.55,11476C3438.31,11474.3 3439.68,11470 3438.28,11468.7C3436.88,11467.5 3430.25,11469 3428.14,11468.4C3426.8,11468 3426.97,11465.5 3425.65,11465.1C3423.64,11464.4 3416.07,11464.9 3416.11,11464.4C3416.15,11463.8 3424.27,11463.5 3425.9,11461.6C3427.53,11459.7 3424.55,11453.3 3425.9,11453.1C3427.25,11453 3432.44,11461.4 3434.02,11460.7C3435.6,11459.9 3436.12,11450.9 3435.36,11448.6C3434.72,11446.7 3430.02,11447 3429.45,11446.8C3428.87,11446.6 3431.09,11447.3 3431.91,11447.6C3432.9,11447.9 3434.21,11449 3435.36,11448.6C3437.78,11447.9 3446.34,11444.7 3446.45,11443.3C3446.56,11441.9 3438.92,11440.8 3436.01,11440.3C3433.72,11439.9 3429.85,11440.2 3429.01,11440.2C3428.35,11440.2 3430.37,11440.4 3431.01,11440.3C3432.77,11439.7 3438.34,11438.9 3439.62,11437.1C3440.9,11435.4 3438.78,11432.2 3438.67,11429.7C3438.56,11427.1 3437.87,11422.9 3438.97,11422C3440.08,11421.1 3443.73,11423.3 3445.3,11424.3C3446.61,11425 3447.32,11427 3448.42,11427.6C3449.46,11428.1 3451.34,11428.2 3451.93,11427.6C3452.51,11427 3451.16,11424.9 3451.93,11424C3453.11,11422.5 3457.53,11418.8 3459.05,11419C3460.57,11419.2 3459.64,11423.5 3461.04,11425.2C3462.44,11426.9 3466.32,11429.2 3467.45,11429.1C3468.59,11428.9 3467.9,11425.8 3467.85,11424.1C3467.78,11421.3 3468.76,11414.4 3467,11412.4C3465.24,11410.5 3460.08,11412.4 3457.27,11412.4L3450.14,11412.4C3449.67,11412.4 3453.93,11413.3 3454.48,11412.4C3455.03,11411.6 3454.89,11408.2 3453.43,11407.2C3451.53,11405.8 3444.8,11405.6 3443.07,11404.1C3441.59,11402.8 3441.86,11399.2 3443.07,11398.3C3444.28,11397.3 3449.58,11397.4 3450.34,11398.6C3451.1,11399.8 3446.99,11404.9 3447.65,11405.5C3448.32,11406.1 3453.21,11403.6 3454.32,11402.1C3455.43,11400.7 3454.63,11398.4 3454.32,11396.5C3454.02,11394.7 3451.64,11392 3452.49,11391.3C3453.34,11390.5 3457.32,11391.1 3459.42,11392.1C3461.86,11393.2 3465.94,11398.8 3467.13,11398.2C3468.31,11397.7 3465.69,11389.6 3466.55,11388.8C3467.41,11388 3470.6,11394.2 3472.3,11393.4C3474,11392.7 3475.44,11385.8 3476.76,11384.3C3477.53,11383.4 3479.13,11384.6 3480.26,11384.3C3481.71,11384 3485.18,11382.9 3485.47,11382.2C3485.76,11381.4 3481.94,11380.8 3481.99,11379.9C3482.04,11378.9 3484.48,11376.7 3485.76,11376.3C3487.03,11376 3489.05,11378.8 3489.66,11377.6C3490.56,11375.8 3490.09,11367.5 3491.16,11365.5C3491.91,11364 3494.56,11364.8 3496.03,11365.5C3497.93,11366.3 3500.3,11369.4 3502.53,11370.7C3504.66,11372 3507.38,11373.1 3509.45,11373.5C3511.23,11373.9 3513.26,11374.3 3514.92,11373.5C3517.01,11372.6 3520.39,11367.5 3521.98,11367.8C3523.57,11368.2 3522.74,11375.1 3524.46,11375.8C3526.19,11376.5 3531.06,11373.9 3532.33,11372.2C3533.61,11370.4 3531.53,11366 3532.11,11365.3C3532.68,11364.6 3535.74,11367 3535.78,11368.2C3535.82,11369.3 3532.71,11371 3532.33,11372.2C3531.99,11373.3 3532.35,11375.3 3533.5,11375.5C3535.45,11375.8 3542.28,11375.2 3544.01,11374.2C3545.46,11373.3 3543.91,11369.1 3543.91,11369.1C3543.91,11369.1 3542.88,11373.1 3544.01,11374.2C3545.15,11375.2 3548.51,11374.9 3550.73,11375.4C3553.82,11376.1 3561.15,11377 3562.56,11378.4C3563.96,11379.8 3558.78,11382.9 3559.18,11383.9C3559.58,11384.8 3563.03,11383.8 3564.95,11383.9C3567.15,11383.9 3571.11,11382.7 3572.34,11384.2C3573.57,11385.6 3573.68,11390.2 3572.34,11392.7C3570.96,11395.2 3563.6,11398.5 3564.07,11399.5C3564.54,11400.4 3573.95,11397.7 3575.16,11398.3C3576.37,11398.8 3570.66,11401.7 3571.33,11402.7C3572,11403.8 3577.01,11404.9 3579.18,11404.5C3581.35,11404 3582.47,11401.4 3584.34,11400.2C3586.36,11398.9 3589.66,11396.3 3591.32,11396.6C3592.98,11396.9 3594.82,11400.9 3594.31,11402C3593.81,11403.1 3589.29,11402.1 3588.28,11403.3C3587.28,11404.6 3586.67,11408.6 3588.28,11409.6C3589.9,11410.6 3596.07,11410.1 3597.99,11409.2C3599.68,11408.3 3598.69,11404.3 3599.81,11403.8C3600.93,11403.2 3604.14,11404.2 3604.72,11405.8C3605.36,11407.7 3603.05,11413.4 3603.67,11414.9C3604.26,11416.4 3607.1,11414.9 3608.41,11414.9C3609.47,11415 3611.26,11414.2 3611.57,11415.1C3611.89,11416.1 3609.43,11419.3 3610.3,11420.7C3611.17,11422.2 3614.86,11422.9 3616.79,11423.7C3618.47,11424.5 3620.82,11424.5 3621.9,11425.8C3622.98,11427 3623.31,11429.4 3623.28,11431.3C3623.24,11433.3 3620.29,11436.3 3621.67,11437.8C3623.06,11439.2 3630.34,11439 3631.58,11440C3632.76,11441 3630.4,11443.1 3629.11,11444C3626.99,11445.4 3619.41,11447.5 3618.82,11448.5C3618.24,11449.5 3624.56,11448.8 3625.61,11449.8C3626.66,11450.8 3625.13,11452.9 3625.12,11454.5C3625.11,11457.3 3626.93,11464.6 3625.53,11466.2C3624.13,11467.9 3617.95,11463.8 3616.73,11464.5C3615.51,11465.1 3617.01,11468.5 3618.2,11470C3619.41,11471.6 3623.07,11472.4 3624.04,11473.8C3624.92,11475 3625.15,11477.4 3624.04,11478.4C3622.93,11479.3 3617.42,11478.3 3617.39,11479.3C3617.36,11480.3 3623.9,11483.3 3623.84,11484.3C3623.78,11485.3 3616.83,11483.9 3617.04,11485.3C3617.25,11486.8 3625.18,11491.7 3625.09,11493C3625.01,11494.2 3619.16,11492.7 3616.52,11492.8C3614.1,11492.9 3610.97,11492.7 3609.27,11493.4C3607.77,11494.1 3606.82,11496 3606.33,11497.4C3605.86,11498.7 3607.45,11500.7 3606.33,11501.4C3604.18,11502.9 3597.97,11505.3 3593.48,11506.1C3588.01,11507 3577.12,11505.9 3573.51,11506.8C3571.93,11507.2 3573.07,11511 3571.83,11511.4C3570.6,11511.7 3567.79,11509.9 3566.11,11508.9C3564.51,11508 3563.55,11505.8 3561.74,11505.6C3559.5,11505.3 3554.63,11506.5 3552.71,11507.2C3551.56,11507.6 3551.4,11509.6 3550.22,11509.9C3548.55,11510.4 3545.11,11510.8 3542.72,11510.1C3538.25,11508.7 3529.11,11502.3 3523.41,11501.9C3518.11,11501.5 3513.05,11506.6 3508.5,11507.5C3504.45,11508.3 3500.22,11507.9 3496.11,11507.5C3491.48,11507 3483.45,11505.8 3480.72,11504.7C3479.46,11504.1 3480.96,11501.1 3479.67,11500.7C3476.71,11499.8 3467.7,11499.4 3462.99,11499.1Z" style="fill:rgb(60,184,120);"/>
                        </g>
                        <g transform="matrix(0.934144,-0.111452,0.0499321,0.418508,-449.87,7386.34)">
                            <path d="M3462.99,11499.1C3459.15,11498.8 3453.28,11500 3451.43,11498.7C3449.58,11497.5 3453.49,11492.8 3451.91,11491.7C3450.33,11490.6 3443.27,11493.2 3441.97,11492C3440.67,11490.8 3442.34,11485.5 3444.09,11484.5C3445.84,11483.5 3451.18,11486.7 3452.44,11486C3453.71,11485.4 3453.34,11481.4 3451.68,11480.8C3449.3,11479.9 3440.38,11479.8 3438.12,11480.8C3436.33,11481.6 3438.86,11485.9 3438.12,11486.7C3437.39,11487.4 3434.94,11486.4 3433.71,11485.5C3431.97,11484.2 3427.22,11480.7 3427.69,11479.1C3428.16,11477.5 3434.78,11477.8 3436.55,11476C3438.31,11474.3 3439.68,11470 3438.28,11468.7C3436.88,11467.5 3430.25,11469 3428.14,11468.4C3426.8,11468 3426.97,11465.5 3425.65,11465.1C3423.64,11464.4 3416.07,11464.9 3416.11,11464.4C3416.15,11463.8 3424.27,11463.5 3425.9,11461.6C3427.53,11459.7 3424.55,11453.3 3425.9,11453.1C3427.25,11453 3432.44,11461.4 3434.02,11460.7C3435.6,11459.9 3436.12,11450.9 3435.36,11448.6C3434.72,11446.7 3430.02,11447 3429.45,11446.8C3428.87,11446.6 3431.09,11447.3 3431.91,11447.6C3432.9,11447.9 3434.21,11449 3435.36,11448.6C3437.78,11447.9 3446.34,11444.7 3446.45,11443.3C3446.56,11441.9 3438.92,11440.8 3436.01,11440.3C3433.72,11439.9 3429.85,11440.2 3429.01,11440.2C3428.35,11440.2 3430.37,11440.4 3431.01,11440.3C3432.77,11439.7 3438.34,11438.9 3439.62,11437.1C3440.9,11435.4 3438.78,11432.2 3438.67,11429.7C3438.56,11427.1 3437.87,11422.9 3438.97,11422C3440.08,11421.1 3443.73,11423.3 3445.3,11424.3C3446.61,11425 3447.32,11427 3448.42,11427.6C3449.46,11428.1 3451.34,11428.2 3451.93,11427.6C3452.51,11427 3451.16,11424.9 3451.93,11424C3453.11,11422.5 3457.53,11418.8 3459.05,11419C3460.57,11419.2 3459.64,11423.5 3461.04,11425.2C3462.44,11426.9 3466.32,11429.2 3467.45,11429.1C3468.59,11428.9 3467.9,11425.8 3467.85,11424.1C3467.78,11421.3 3468.76,11414.4 3467,11412.4C3465.24,11410.5 3460.08,11412.4 3457.27,11412.4L3450.14,11412.4C3449.67,11412.4 3453.93,11413.3 3454.48,11412.4C3455.03,11411.6 3454.89,11408.2 3453.43,11407.2C3451.53,11405.8 3444.8,11405.6 3443.07,11404.1C3441.59,11402.8 3441.86,11399.2 3443.07,11398.3C3444.28,11397.3 3449.58,11397.4 3450.34,11398.6C3451.1,11399.8 3446.99,11404.9 3447.65,11405.5C3448.32,11406.1 3453.21,11403.6 3454.32,11402.1C3455.43,11400.7 3454.63,11398.4 3454.32,11396.5C3454.02,11394.7 3451.64,11392 3452.49,11391.3C3453.34,11390.5 3457.32,11391.1 3459.42,11392.1C3461.86,11393.2 3465.94,11398.8 3467.13,11398.2C3468.31,11397.7 3465.69,11389.6 3466.55,11388.8C3467.41,11388 3470.6,11394.2 3472.3,11393.4C3474,11392.7 3475.44,11385.8 3476.76,11384.3C3477.53,11383.4 3479.13,11384.6 3480.26,11384.3C3481.71,11384 3485.18,11382.9 3485.47,11382.2C3485.76,11381.4 3481.94,11380.8 3481.99,11379.9C3482.04,11378.9 3484.48,11376.7 3485.76,11376.3C3487.03,11376 3489.05,11378.8 3489.66,11377.6C3490.56,11375.8 3490.09,11367.5 3491.16,11365.5C3491.91,11364 3494.56,11364.8 3496.03,11365.5C3497.93,11366.3 3500.3,11369.4 3502.53,11370.7C3504.66,11372 3507.38,11373.1 3509.45,11373.5C3511.23,11373.9 3513.26,11374.3 3514.92,11373.5C3517.01,11372.6 3520.39,11367.5 3521.98,11367.8C3523.57,11368.2 3522.74,11375.1 3524.46,11375.8C3526.19,11376.5 3531.06,11373.9 3532.33,11372.2C3533.61,11370.4 3531.53,11366 3532.11,11365.3C3532.68,11364.6 3535.74,11367 3535.78,11368.2C3535.82,11369.3 3532.71,11371 3532.33,11372.2C3531.99,11373.3 3532.35,11375.3 3533.5,11375.5C3535.45,11375.8 3542.28,11375.2 3544.01,11374.2C3545.46,11373.3 3543.91,11369.1 3543.91,11369.1C3543.91,11369.1 3542.88,11373.1 3544.01,11374.2C3545.15,11375.2 3548.51,11374.9 3550.73,11375.4C3553.82,11376.1 3561.15,11377 3562.56,11378.4C3563.96,11379.8 3558.78,11382.9 3559.18,11383.9C3559.58,11384.8 3563.03,11383.8 3564.95,11383.9C3567.15,11383.9 3571.11,11382.7 3572.34,11384.2C3573.57,11385.6 3573.68,11390.2 3572.34,11392.7C3570.96,11395.2 3563.6,11398.5 3564.07,11399.5C3564.54,11400.4 3573.95,11397.7 3575.16,11398.3C3576.37,11398.8 3570.66,11401.7 3571.33,11402.7C3572,11403.8 3577.01,11404.9 3579.18,11404.5C3581.35,11404 3582.47,11401.4 3584.34,11400.2C3586.36,11398.9 3589.66,11396.3 3591.32,11396.6C3592.98,11396.9 3594.82,11400.9 3594.31,11402C3593.81,11403.1 3589.29,11402.1 3588.28,11403.3C3587.28,11404.6 3586.67,11408.6 3588.28,11409.6C3589.9,11410.6 3596.07,11410.1 3597.99,11409.2C3599.68,11408.3 3598.69,11404.3 3599.81,11403.8C3600.93,11403.2 3604.14,11404.2 3604.72,11405.8C3605.36,11407.7 3603.05,11413.4 3603.67,11414.9C3604.26,11416.4 3607.1,11414.9 3608.41,11414.9C3609.47,11415 3611.26,11414.2 3611.57,11415.1C3611.89,11416.1 3609.43,11419.3 3610.3,11420.7C3611.17,11422.2 3614.86,11422.9 3616.79,11423.7C3618.47,11424.5 3620.82,11424.5 3621.9,11425.8C3622.98,11427 3623.31,11429.4 3623.28,11431.3C3623.24,11433.3 3620.29,11436.3 3621.67,11437.8C3623.06,11439.2 3630.34,11439 3631.58,11440C3632.76,11441 3630.4,11443.1 3629.11,11444C3626.99,11445.4 3619.41,11447.5 3618.82,11448.5C3618.24,11449.5 3624.56,11448.8 3625.61,11449.8C3626.66,11450.8 3625.13,11452.9 3625.12,11454.5C3625.11,11457.3 3626.93,11464.6 3625.53,11466.2C3624.13,11467.9 3617.95,11463.8 3616.73,11464.5C3615.51,11465.1 3617.01,11468.5 3618.2,11470C3619.41,11471.6 3623.07,11472.4 3624.04,11473.8C3624.92,11475 3625.15,11477.4 3624.04,11478.4C3622.93,11479.3 3617.42,11478.3 3617.39,11479.3C3617.36,11480.3 3623.9,11483.3 3623.84,11484.3C3623.78,11485.3 3616.83,11483.9 3617.04,11485.3C3617.25,11486.8 3625.18,11491.7 3625.09,11493C3625.01,11494.2 3619.16,11492.7 3616.52,11492.8C3614.1,11492.9 3610.97,11492.7 3609.27,11493.4C3607.77,11494.1 3606.82,11496 3606.33,11497.4C3605.86,11498.7 3607.45,11500.7 3606.33,11501.4C3604.18,11502.9 3597.97,11505.3 3593.48,11506.1C3588.01,11507 3577.12,11505.9 3573.51,11506.8C3571.93,11507.2 3573.07,11511 3571.83,11511.4C3570.6,11511.7 3567.79,11509.9 3566.11,11508.9C3564.51,11508 3563.55,11505.8 3561.74,11505.6C3559.5,11505.3 3554.63,11506.5 3552.71,11507.2C3551.56,11507.6 3551.4,11509.6 3550.22,11509.9C3548.55,11510.4 3545.11,11510.8 3542.72,11510.1C3538.25,11508.7 3529.11,11502.3 3523.41,11501.9C3518.11,11501.5 3513.05,11506.6 3508.5,11507.5C3504.45,11508.3 3500.22,11507.9 3496.11,11507.5C3491.48,11507 3483.45,11505.8 3480.72,11504.7C3479.46,11504.1 3480.96,11501.1 3479.67,11500.7C3476.71,11499.8 3467.7,11499.4 3462.99,11499.1Z" style="fill:rgb(34,84,61);"/>
                        </g>
                    </g>
                </g>
            </g>
        </g>
    </g>
    <defs>
        <linearGradient id="_Linear3" x1="0" y1="0" x2="1" y2="0" gradientUnits="userSpaceOnUse" gradientTransform="matrix(75,29,-29,75,12660,7030)"><stop offset="0" style="stop-color:rgb(1,29,31);stop-opacity:1"/><stop offset="0.51" style="stop-color:rgb(19,60,65);stop-opacity:1"/><stop offset="1" style="stop-color:rgb(25,71,76);stop-opacity:1"/></linearGradient>
    </defs>
</svg>
