<?xml version="1.0" encoding="UTF-8" standalone="no"?>
<!DOCTYPE svg PUBLIC "-//W3C//DTD SVG 1.1//EN" "http://www.w3.org/Graphics/SVG/1.1/DTD/svg11.dtd">
<svg width="100%" height="100%" viewBox="0 0 279 385" version="1.1" xmlns="http://www.w3.org/2000/svg" xmlns:xlink="http://www.w3.org/1999/xlink" xml:space="preserve" xmlns:serif="http://www.serif.com/" style="fill-rule:evenodd;clip-rule:evenodd;stroke-linejoin:round;stroke-miterlimit:2;">
  <g transform="matrix(1,0,0,1,-18419,-2411)">
    <g id="Plan-de-travail8" serif:id="Plan de travail8" transform="matrix(0.740053,0,0,1.00522,12201.1,-628.791)">
      <rect x="8402" y="3024" width="377" height="383" style="fill:none;"/>
      <clipPath id="_clip1">
        <rect x="8402" y="3024" width="377" height="383"/>
      </clipPath>
      <g clip-path="url(#_clip1)">
        <g transform="matrix(1.21302,0,0,0.893038,-10976.3,-9182.42)">
          <g transform="matrix(1.09179,0,0,1.18248,15066.7,11401.8)">
            <ellipse cx="972.5" cy="2107" rx="117.5" ry="174" style="fill:rgb(242,200,186);"/>
          </g>
          <g transform="matrix(1.10505,0,0,1.10505,-582.205,-2082.11)">
            <path d="M15220,14326C15217,14321.3 15221.3,14308.7 15216,14303C15207.8,14294.2 15184.7,14281.2 15171,14273C15159.1,14265.9 15145,14256 15134,14254C15124.2,14252.2 15111,14258.8 15105,14261C15102.1,14262 15101.1,14266.7 15098,14267C15094.5,14267.3 15088.5,14263.3 15084,14263C15079.6,14262.7 15074.8,14263.8 15071,14265C15067.4,14266.1 15064.7,14269.5 15061,14270C15056.2,14270.7 15047.8,14267.3 15042,14269C15036.2,14270.7 15031,14278.2 15026,14280C15021.6,14281.6 15015.5,14278.3 15012,14280C15008.5,14281.7 15005,14290 15005,14290C15005,14290 15011,14285 15014,14284C15016.8,14283.1 15023.5,14283.3 15023,14284C15022.5,14284.7 15014.3,14285.3 15011,14288C15007.5,14290.8 15003.2,14297 15002,14301C15001,14304.6 15003.2,14309.7 15004,14312C15004.5,14313.3 15007.4,14313.6 15007,14315C15006.3,14317.3 15001.7,14322 15000,14326C14998,14330.8 14994.7,14339.5 14995,14344C14995.3,14347.8 15001.8,14349.2 15002,14353C15002.3,14358.2 14998.1,14367.6 14997,14375C14995.8,14382.7 14994.9,14391 14995,14399C14995.2,14410.5 14996,14431 14998,14444C14999.7,14455.3 15004.2,14470.7 15007,14477C15008.3,14479.9 15014.2,14485.1 15015,14482C15017.8,14470.7 15021.7,14429 15024,14409C15025.8,14393.4 15024.8,14373.8 15029,14362C15032.5,14352.2 15040.1,14343.3 15049,14338C15058.5,14332.3 15073.8,14329.3 15086,14328C15097.9,14326.7 15110,14330.1 15122,14330C15136.3,14329.8 15159.3,14325.2 15172,14327C15181.7,14328.4 15191.8,14334.8 15198,14341C15204,14347 15206.9,14355.8 15209,14364C15211.3,14373.2 15210.5,14386.2 15212,14396C15213.4,14405.1 15215.9,14414 15218,14423C15220.5,14433.5 15224.8,14450 15227,14459C15228.4,14465 15227.7,14478.8 15231,14477C15234.3,14475.2 15243.9,14458.6 15247,14448C15250.5,14436 15260.1,14417.4 15260.1,14403C15260.1,14386.5 15250,14361.3 15247,14349C15245.3,14341.8 15238.5,14334.8 15234,14331C15230.2,14327.8 15222.7,14330.2 15220,14326Z" style="fill:rgb(109,81,64);"/>
          </g>
          <g transform="matrix(1,0,0,1,3.68994,0)">
            <g transform="matrix(0.769424,-0.0666674,0.0666674,0.769424,10179,11149.6)">
              <path d="M7235.47,4154.51C7235.47,4154.51 7255.34,4141.03 7266.34,4141.03C7277.34,4141.03 7288.78,4143.02 7299.57,4146.45C7310.57,4149.95 7321.18,4155.86 7321.18,4155.86C7321.18,4155.86 7327.36,4156.72 7328.85,4153.73C7330.35,4150.73 7332.87,4147.89 7329.5,4145.7C7322.84,4141.37 7316.04,4137.34 7303.87,4134.34C7293.43,4131.76 7278.34,4127.07 7268,4130C7256.83,4133.17 7235.47,4154.51 7235.47,4154.51Z" style="fill:rgb(109,81,64);"/>
            </g>
            <g transform="matrix(-0.769424,-0.0666674,-0.0666674,0.769424,22070.5,11149.6)">
              <path d="M7235.47,4154.51C7235.47,4154.51 7255.34,4141.03 7266.34,4141.03C7277.34,4141.03 7288.78,4143.02 7299.57,4146.45C7310.57,4149.95 7321.18,4155.86 7321.18,4155.86C7321.18,4155.86 7327.36,4156.72 7328.85,4153.73C7330.35,4150.73 7332.87,4147.89 7329.5,4145.7C7322.84,4141.37 7316.04,4137.34 7303.87,4134.34C7293.43,4131.76 7278.34,4127.07 7268,4130C7256.83,4133.17 7235.47,4154.51 7235.47,4154.51Z" style="fill:rgb(109,81,64);"/>
            </g>
            <g transform="matrix(-0.146943,0,0,0.165394,17274.4,11025)">
              <path d="M7195.17,17312.8C7163.46,17301.4 7323.82,17207.9 7418.07,17207.9C7512.32,17207.9 7650.22,17307.3 7640.97,17312.8C7614.51,17328.5 7495.39,17281.3 7409.63,17281.3C7323.87,17281.3 7202.74,17315.6 7195.17,17312.8Z" style="fill:rgb(109,81,64);"/>
            </g>
            <g transform="matrix(0.146943,0,0,0.165394,14974.3,11025)">
              <path d="M7195.17,17312.8C7163.46,17301.4 7323.82,17207.9 7418.07,17207.9C7512.32,17207.9 7650.22,17307.3 7640.97,17312.8C7614.51,17328.5 7495.39,17281.3 7409.63,17281.3C7323.87,17281.3 7202.74,17315.6 7195.17,17312.8Z" style="fill:rgb(109,81,64);"/>
            </g>
          </g>
          <g transform="matrix(0.6459,0,0,0.406262,14260.8,12914.8)">
            <path d="M2984.99,2658C2984.19,2708.91 2942.6,2750 2891.5,2750C2840.4,2750 2798.81,2708.91 2798.01,2658L2984.99,2658Z" style="fill:rgb(211,174,163);"/>
          </g>
          <g transform="matrix(0.5062,0,0,0.318392,14664.8,13152.1)">
            <path d="M2984.99,2658C2984.19,2708.91 2942.6,2750 2891.5,2750C2840.4,2750 2798.81,2708.91 2798.01,2658L2984.99,2658Z" style="fill:rgb(243,241,240);"/>
          </g>
          <g transform="matrix(1.6295,0.407729,-0.418986,1.67449,15775.1,10110.1)">
            <ellipse cx="833.5" cy="2084" rx="12.5" ry="31" style="fill:rgb(242,200,186);"/>
          </g>
          <g transform="matrix(0.275305,-0.0588054,0.0588054,0.275305,16066.3,13240.4)">
            <path d="M117.422,2617.33C123.261,2600.83 139.009,2589 157.5,2589C175.991,2589 191.739,2600.83 197.578,2617.33C191.739,2608.4 175.991,2602 157.5,2602C139.009,2602 123.261,2608.4 117.422,2617.33Z" style="fill:rgb(222,165,130);"/>
          </g>
          <g transform="matrix(0.283745,-0.313873,0.313873,0.283745,15398.8,13251.6)">
            <path d="M117.422,2617.33C123.261,2600.83 139.009,2589 157.5,2589C175.991,2589 191.739,2600.83 197.578,2617.33C191.739,2608.4 175.991,2602 157.5,2602C139.009,2602 123.261,2608.4 117.422,2617.33Z" style="fill:rgb(222,165,130);"/>
          </g>
          <g transform="matrix(1.64733,-0.32837,0.337436,1.69281,13923.3,10685)">
            <ellipse cx="833.5" cy="2084" rx="12.5" ry="31" style="fill:rgb(242,200,186);"/>
          </g>
          <g transform="matrix(-0.274216,-0.0636905,-0.0636905,0.274216,16206.1,13243.4)">
            <path d="M117.422,2617.33C123.261,2600.83 139.009,2589 157.5,2589C175.991,2589 191.739,2600.83 197.578,2617.33C191.739,2608.4 175.991,2602 157.5,2602C139.009,2602 123.261,2608.4 117.422,2617.33Z" style="fill:rgb(222,165,130);"/>
          </g>
          <g transform="matrix(-0.27812,-0.318867,-0.318867,0.27812,16873.3,13266.5)">
            <path d="M117.422,2617.33C123.261,2600.83 139.009,2589 157.5,2589C175.991,2589 191.739,2600.83 197.578,2617.33C191.739,2608.4 175.991,2602 157.5,2602C139.009,2602 123.261,2608.4 117.422,2617.33Z" style="fill:rgb(222,165,130);"/>
          </g>
        </g>
      </g>
    </g>
  </g>
</svg>
