<?xml version="1.0" encoding="UTF-8" standalone="no"?>
<!DOCTYPE svg PUBLIC "-//W3C//DTD SVG 1.1//EN" "http://www.w3.org/Graphics/SVG/1.1/DTD/svg11.dtd">
<svg width="100%" height="100%" viewBox="0 0 261 395" version="1.1" xmlns="http://www.w3.org/2000/svg" xmlns:xlink="http://www.w3.org/1999/xlink" xml:space="preserve" xmlns:serif="http://www.serif.com/" style="fill-rule:evenodd;clip-rule:evenodd;stroke-linecap:round;stroke-linejoin:round;stroke-miterlimit:1.5;">
    <g transform="matrix(1,0,0,1,-11506,-2433)">
        <g id="Plan-de-travail8" serif:id="Plan de travail8" transform="matrix(0.692308,0,0,1.03133,5689.23,-685.747)">
            <rect x="8402" y="3024" width="377" height="383" style="fill:none;"/>
            <clipPath id="_clip1">
                <rect x="8402" y="3024" width="377" height="383"/>
            </clipPath>
            <g clip-path="url(#_clip1)">
                <g transform="matrix(2.53271,0,0,0.938564,-27740.2,-753.653)">
                    <g transform="matrix(0.775069,0,0,1.29167,7335.66,-1205.88)">
                        <g transform="matrix(0.765613,0,0,0.679653,8293.84,2784.04)">
                            <path d="M972.5,1933C1037.35,1933 1082.21,2012.39 1082.21,2108.43C1082.21,2204.46 1037.35,2269.6 972.5,2269.6C907.65,2269.6 873.185,2203.03 873.185,2107C873.185,2010.97 907.65,1933 972.5,1933Z" style="fill:rgb(241,198,170);"/>
                        </g>
                        <g transform="matrix(-2.13944,-0.19028,-0.175057,2.32548,9400.25,4024.12)">
                            <path d="M170.112,88.632C168.917,88.499 167.279,88.798 167.112,87.632C166.945,86.465 167.424,84.86 169,84C170.833,83 175.167,82.5 178,83C180.833,83.5 186.324,85.264 188.824,86.764C191.283,88.239 193,92 193,92C193,92 188.943,88.682 186.936,88.395C184.602,88.062 178.445,87.632 176.112,87.632C174.084,87.632 171.612,88.798 170.112,88.632Z" style="fill:rgb(67,45,32);"/>
                        </g>
                        <g transform="matrix(2.13944,-0.19028,0.175057,2.32548,8680.06,4024.12)">
                            <path d="M170.112,88.632C168.917,88.499 167.279,88.798 167.112,87.632C166.945,86.465 167.424,84.86 169,84C170.833,83 175.167,82.5 178,83C180.833,83.5 186.324,85.264 188.824,86.764C191.283,88.239 193,92 193,92C193,92 188.943,88.682 186.936,88.395C184.602,88.062 178.445,87.632 176.112,87.632C174.084,87.632 171.612,88.798 170.112,88.632Z" style="fill:rgb(67,45,32);"/>
                        </g>
                        <g transform="matrix(-0.0992124,0,0,0.12138,9817.31,2120.01)">
                            <path d="M7195.17,17312.8C7163.46,17301.4 7323.82,17207.9 7418.07,17207.9C7512.32,17207.9 7650.22,17307.3 7640.97,17312.8C7614.51,17328.5 7495.39,17263.7 7409.63,17263.7C7323.87,17263.7 7202.74,17315.6 7195.17,17312.8Z" style="fill:rgb(55,47,47);"/>
                        </g>
                        <g transform="matrix(0.0992124,0,0,0.12138,8264.36,2120.01)">
                            <path d="M7195.17,17312.8C7163.46,17301.4 7323.82,17207.9 7418.07,17207.9C7512.32,17207.9 7650.22,17307.3 7640.97,17312.8C7614.51,17328.5 7495.39,17263.7 7409.63,17263.7C7323.87,17263.7 7202.74,17315.6 7195.17,17312.8Z" style="fill:rgb(55,47,47);"/>
                        </g>
                        <g transform="matrix(0.712438,0,0,0.623451,8139.03,2622.94)">
                            <path d="M1264.52,2627.59C1264.68,2627.54 1264.86,2627.5 1265.03,2627.49C1271.7,2626.86 1277.76,2624.81 1280.71,2623.18C1287.76,2619.3 1320.9,2633.09 1323.93,2636.37C1327.28,2640.01 1331.38,2672.62 1331.38,2672.62C1331.38,2672.62 1325,2651.23 1317.7,2649.09C1309.81,2646.77 1283.59,2645.26 1277.11,2644.99C1273,2644.83 1269.13,2647.67 1265.02,2647.5C1264.85,2647.49 1264.68,2647.47 1264.52,2647.42C1264.36,2647.47 1264.19,2647.49 1264.02,2647.5C1259.9,2647.67 1256.04,2644.83 1251.93,2644.99C1245.44,2645.26 1219.23,2646.77 1211.34,2649.09C1204.04,2651.23 1194.89,2672.62 1194.89,2672.62C1194.89,2672.62 1201.76,2640.01 1205.11,2636.37C1208.13,2633.09 1241.27,2619.3 1248.33,2623.18C1251.28,2624.81 1257.33,2626.86 1264,2627.49C1264.18,2627.5 1264.35,2627.54 1264.52,2627.59Z" style="fill:rgb(67,45,32);"/>
                        </g>
                        <g transform="matrix(0.853139,0,0,0.779232,7958.41,2166.21)">
                            <path d="M1242.39,2761.2C1250.96,2764.06 1281.93,2763.3 1288.22,2761.2C1300.73,2757.02 1318.44,2742.94 1323.16,2737.64C1324.88,2735.7 1328.11,2741.31 1328.08,2750.94C1328.04,2765.01 1317.26,2802.52 1302.88,2812.36C1294.8,2817.88 1272.02,2822.11 1265.73,2822.36C1265.58,2822.36 1265.03,2822.36 1264.89,2822.36C1258.6,2822.11 1238.75,2820.21 1231.19,2813.73C1213.36,2798.41 1205.37,2761.79 1205.21,2746.85C1205.12,2737.88 1208.17,2734.42 1209.76,2736.21C1214.48,2741.52 1233.59,2758.26 1242.39,2761.2Z" style="fill:rgb(67,45,32);"/>
                        </g>
                        <g transform="matrix(0.383541,0,0,0.271287,7931.17,3559.02)">
                            <path d="M2984.99,2658C2984.19,2708.91 2942.6,2750 2891.5,2750C2840.4,2750 2798.81,2708.91 2798.01,2658L2984.99,2658Z" style="fill:rgb(195,143,129);"/>
                        </g>
                        <g transform="matrix(0.300585,0,0,0.212611,8171.04,3717.46)">
                            <path d="M2984.99,2658C2984.19,2708.91 2942.6,2750 2891.5,2750C2840.4,2750 2798.81,2708.91 2798.01,2658L2984.99,2658Z" style="fill:rgb(243,241,240);"/>
                        </g>
                    </g>
                    <g transform="matrix(0.613257,-0.101992,0.0578592,1.14155,13646.2,1943)">
                        <ellipse cx="833.5" cy="2084" rx="12.5" ry="31" style="fill:rgb(241,198,170);"/>
                    </g>
                    <g transform="matrix(-0.0975272,-0.0611874,-0.0337784,0.176664,14380,3791.94)">
                        <path d="M117.422,2617.33C123.261,2600.83 139.009,2589 157.5,2589C175.991,2589 191.739,2600.83 197.578,2617.33C191.739,2608.4 175.991,2602 157.5,2602C139.009,2602 123.261,2608.4 117.422,2617.33Z" style="fill:rgb(222,165,130);"/>
                    </g>
                    <g transform="matrix(-0.0891267,-0.229991,-0.126966,0.161447,14622.3,3853.74)">
                        <path d="M117.422,2617.33C123.261,2600.83 139.009,2589 157.5,2589C175.991,2589 191.739,2600.83 197.578,2617.33C191.739,2608.4 175.991,2602 157.5,2602C139.009,2602 123.261,2608.4 117.422,2617.33Z" style="fill:rgb(222,165,130);"/>
                    </g>
                    <g transform="matrix(0.611244,0.135985,-0.077143,1.1378,14062.2,1752.46)">
                        <ellipse cx="833.5" cy="2084" rx="12.5" ry="31" style="fill:rgb(241,198,170);"/>
                    </g>
                    <g transform="matrix(0.0975272,-0.0611874,0.0337784,0.176664,14309,3791.94)">
                        <path d="M117.422,2617.33C123.261,2600.83 139.009,2589 157.5,2589C175.991,2589 191.739,2600.83 197.578,2617.33C191.739,2608.4 175.991,2602 157.5,2602C139.009,2602 123.261,2608.4 117.422,2617.33Z" style="fill:rgb(222,165,130);"/>
                    </g>
                    <g transform="matrix(0.0891267,-0.229991,0.126966,0.161447,14066.6,3853.74)">
                        <path d="M117.422,2617.33C123.261,2600.83 139.009,2589 157.5,2589C175.991,2589 191.739,2600.83 197.578,2617.33C191.739,2608.4 175.991,2602 157.5,2602C139.009,2602 123.261,2608.4 117.422,2617.33Z" style="fill:rgb(222,165,130);"/>
                    </g>
                    <g transform="matrix(0.603226,-1.06774,0.589441,1.0927,4319.75,8244.03)">
                        <path d="M10402,6380C10406.2,6380 10413,6377.33 10418,6376C10422.7,6374.75 10428.7,6374.5 10432,6372C10435.3,6369.5 10436.9,6365.03 10438,6361C10439.2,6356.67 10439.5,6349.5 10439,6346C10438.7,6343.62 10436.9,6341.41 10435,6340C10432,6337.83 10426.2,6333 10421,6333C10414.7,6333 10402,6336.83 10397,6340C10393.2,6342.39 10392.3,6348.17 10391,6352C10389.8,6355.52 10388.7,6359.29 10389,6363C10389.3,6367 10390.8,6373.17 10393,6376C10395,6378.61 10398.7,6380 10402,6380Z" style="fill:rgb(67,45,32);"/>
                        <path d="M10402,6380.79C10403.4,6380.78 10405.2,6380.46 10407.1,6379.97C10410.7,6379.04 10414.8,6377.51 10418.2,6376.58C10421.3,6375.71 10425.1,6375.28 10428.2,6374.32C10429.7,6373.84 10431.2,6373.22 10432.3,6372.36C10433.7,6371.3 10434.8,6369.9 10435.6,6368.34C10436.9,6366.1 10437.7,6363.52 10438.3,6361.09C10438.9,6358.99 10439.2,6356.24 10439.4,6353.56C10439.6,6350.64 10439.5,6347.8 10439.3,6345.96C10439.1,6344.73 10438.5,6343.54 10437.8,6342.48C10437.1,6341.44 10436.1,6340.53 10435.1,6339.82C10433.3,6338.48 10430.4,6336.13 10427.2,6334.52C10425.2,6333.51 10423,6332.78 10421,6332.78C10417.9,6332.77 10413.1,6333.7 10408.6,6335.02C10403.9,6336.38 10399.4,6338.14 10396.8,6339.74C10395.2,6340.73 10394.1,6342.3 10393.3,6344.07C10392.1,6346.61 10391.5,6349.59 10390.6,6351.88C10389.9,6354 10389.2,6356.21 10388.8,6358.44C10388.6,6359.97 10388.4,6361.51 10388.6,6363.04C10388.7,6365.38 10389.3,6368.47 10390.2,6371.21C10390.8,6373.24 10391.7,6375.08 10392.6,6376.32C10393.6,6377.71 10395.1,6378.78 10396.8,6379.5C10398.5,6380.21 10400.3,6380.58 10402,6380.59L10402,6380.79ZM10402,6379.41C10400.4,6379.42 10398.8,6379.11 10397.3,6378.48C10395.7,6377.85 10394.4,6376.92 10393.4,6375.68C10392.5,6374.53 10391.8,6372.81 10391.1,6370.91C10390.2,6368.25 10389.6,6365.25 10389.4,6362.96C10389.3,6361.51 10389.4,6360.04 10389.6,6358.58C10390,6356.38 10390.6,6354.21 10391.4,6352.12C10392.1,6349.85 10392.8,6346.88 10393.9,6344.35C10394.7,6342.69 10395.7,6341.2 10397.2,6340.26C10399.7,6338.66 10404.1,6336.89 10408.7,6335.52C10413.2,6334.18 10417.9,6333.23 10421,6333.22C10423,6333.22 10425,6333.92 10427,6334.9C10430.1,6336.5 10433,6338.85 10434.9,6340.19C10435.8,6340.87 10436.7,6341.75 10437.4,6342.75C10438.1,6343.76 10438.6,6344.88 10438.7,6346.04C10439,6347.85 10439,6350.65 10438.8,6353.52C10438.6,6356.16 10438.2,6358.86 10437.7,6360.91C10437,6363.27 10436.2,6365.78 10434.9,6367.93C10434.1,6369.38 10433,6370.67 10431.7,6371.64C10430.7,6372.41 10429.3,6372.95 10427.9,6373.36C10424.8,6374.26 10421,6374.61 10417.8,6375.42C10414.5,6376.27 10410.4,6377.7 10406.7,6378.54C10405,6378.95 10403.3,6379.22 10402,6379.21L10402,6379.41Z" style="fill:rgb(29,20,14);"/>
                    </g>
                    <g transform="matrix(0.603226,-1.06774,0.589441,1.0927,4320.52,8238.51)">
                        <path d="M10393,6368L10405,6370C10405,6370 10419,6369 10421,6365" style="fill:rgb(67,45,32);"/>
                        <path d="M10405,6369.75C10405.5,6369.72 10410.7,6369.41 10415.1,6368.24C10417.9,6367.53 10420.2,6366.47 10421,6365C10420.4,6366.18 10418.8,6367.11 10416.8,6367.84C10414.6,6368.64 10412,6369.19 10409.8,6369.58C10407.1,6370.04 10405,6370.25 10405,6370.25C10405,6370.25 10405,6370.25 10405,6370.25C10405,6370.25 10401.9,6369.85 10398.9,6369.49C10395.9,6369.12 10392.9,6368.78 10392.9,6368.78C10392.4,6368.71 10392.1,6368.3 10392.2,6367.87C10392.3,6367.44 10392.7,6367.15 10393.1,6367.22C10393.1,6367.22 10396.1,6367.88 10399.1,6368.52C10401.9,6369.12 10404.7,6369.69 10405,6369.75Z" style="fill:rgb(29,20,14);"/>
                    </g>
                    <g transform="matrix(0.603226,-1.06774,0.589441,1.0927,4319.75,8244.03)">
                        <path d="M10384,6347C10384,6347 10385.7,6336.5 10389,6333C10392.3,6329.5 10399,6327 10404,6326C10408.9,6325.02 10414.3,6325.83 10419,6327C10423.6,6328.16 10429.3,6331 10432,6333C10433.8,6334.34 10434.3,6337.67 10435,6339C10435.3,6339.67 10436.7,6341.11 10436,6341C10434.8,6340.83 10430.8,6338.53 10428,6338C10424.5,6337.33 10419.2,6336 10415,6337C10410.8,6338 10406.2,6341.33 10403,6344C10400.1,6346.45 10397.8,6350.83 10396,6353C10394.8,6354.44 10392,6357 10392,6357L10384,6347Z" style="fill:rgb(67,45,32);"/>
                        <path d="M10383.3,6346.79C10383.3,6346.98 10383.4,6347.18 10383.5,6347.35C10383.5,6347.37 10391.6,6357.31 10391.6,6357.31C10391.7,6357.42 10391.8,6357.48 10392,6357.49C10392.1,6357.5 10392.2,6357.46 10392.3,6357.36C10392.3,6357.36 10393.6,6356.19 10394.8,6354.98C10395.4,6354.39 10395.9,6353.78 10396.3,6353.3C10397.6,6351.74 10399.2,6349.05 10401,6346.74C10401.7,6345.83 10402.4,6344.98 10403.2,6344.29C10405.1,6342.7 10407.5,6340.87 10410,6339.44C10411.7,6338.48 10413.4,6337.7 10415.1,6337.3C10416.7,6336.9 10418.4,6336.86 10420.2,6336.99C10423,6337.2 10425.8,6337.85 10428,6338.24C10428.7,6338.38 10429.5,6338.65 10430.4,6338.96C10432.7,6339.84 10435.1,6341.1 10436,6341.22C10436.2,6341.25 10436.3,6341.18 10436.4,6341.1C10436.4,6341 10436.5,6340.81 10436.3,6340.58C10436.1,6340.13 10435.4,6339.35 10435.2,6338.9C10434.7,6337.95 10434.3,6336 10433.5,6334.47C10433.1,6333.81 10432.7,6333.23 10432.1,6332.83C10430.7,6331.75 10428.4,6330.42 10425.9,6329.24C10423.6,6328.21 10421.2,6327.28 10419.1,6326.73C10416.7,6326.12 10414.2,6325.6 10411.6,6325.35C10409,6325.11 10406.4,6325.13 10403.9,6325.6C10400.9,6326.16 10397.4,6327.24 10394.3,6328.74C10392,6329.82 10390,6331.11 10388.6,6332.59C10387.4,6333.81 10386.4,6335.86 10385.6,6338.04C10384,6342.21 10383.2,6346.88 10383.2,6346.88L10383.3,6346.79ZM10435.9,6340.76C10435.9,6340.67 10435.8,6340.55 10435.7,6340.43C10435.4,6339.99 10435,6339.44 10434.8,6339.1C10434.4,6338.27 10434,6336.68 10433.4,6335.27C10433,6334.44 10432.5,6333.66 10431.9,6333.17C10430.5,6332.12 10428.2,6330.82 10425.7,6329.68C10423.5,6328.68 10421.1,6327.8 10418.9,6327.27C10416.6,6326.71 10414.1,6326.23 10411.5,6326.03C10409,6325.83 10406.5,6325.9 10404.1,6326.4C10401.2,6327.01 10397.7,6328.14 10394.7,6329.67C10392.6,6330.73 10390.8,6331.99 10389.4,6333.41C10388.4,6334.56 10387.5,6336.47 10386.8,6338.49C10385.5,6342.29 10384.9,6346.49 10384.8,6347.06L10392.1,6356.28C10392.5,6355.85 10393.3,6355.09 10394.1,6354.32C10394.7,6353.74 10395.3,6353.17 10395.7,6352.7C10397,6351.17 10398.5,6348.52 10400.3,6346.24C10401.1,6345.3 10401.9,6344.42 10402.8,6343.71C10404.7,6342.12 10407.1,6340.29 10409.7,6338.86C10411.4,6337.89 10413.2,6337.11 10414.9,6336.7C10416.6,6336.32 10418.4,6336.29 10420.2,6336.44C10423.1,6336.67 10425.9,6337.34 10428,6337.76C10428.8,6337.91 10429.7,6338.19 10430.5,6338.52C10432.7,6339.36 10435,6340.57 10435.9,6340.76Z" style="fill:rgb(29,20,14);"/>
                    </g>
                    <g transform="matrix(0.503044,0,0,0.911233,13990.8,2371.75)">
                        <path d="M580.867,2017.63C580.867,2017.63 617.873,1961.66 632.373,1955.33C646.228,1949.28 675.846,1962.36 694.185,1962.51C695.038,1962.52 695.888,1962.5 696.733,1962.47C716.4,1961.63 753.566,1946.97 766.733,1953.47C779.9,1959.97 824.391,2024 824.391,2024C824.391,2024 823.387,1970.93 802,1935C787.048,1909.88 769.993,1895.75 745.16,1888.08C720.326,1880.41 689.246,1877.31 667.079,1885.48C648.935,1892.16 616.585,1915.62 606,1931.8C585.753,1962.75 580.867,2017.63 580.867,2017.63Z" style="fill:rgb(67,45,32);stroke:rgb(29,20,14);stroke-width:1.7px;"/>
                    </g>
                    <g transform="matrix(0.761332,0,0,1.3791,3926.5,-3641.05)">
                        <path d="M13612,5679C13612,5679 13620,5643 13643,5627" style="fill:rgb(67,45,32);"/>
                        <path d="M13612,5679.01C13612,5679.01 13615.3,5664.88 13623.4,5650.46C13628.2,5641.94 13634.8,5633.31 13643.3,5627.46C13643.6,5627.28 13643.6,5626.93 13643.5,5626.68C13643.3,5626.43 13642.9,5626.36 13642.7,5626.54C13635.9,5631.37 13630.4,5637.95 13626,5644.83C13615.8,5661.09 13612,5678.99 13612,5678.99C13612,5679.01 13612,5679.02 13612,5679.03C13612,5679.03 13612,5679.02 13612,5679.01Z" style="fill:rgb(29,20,14);"/>
                    </g>
                    <g transform="matrix(0.761332,0,0,1.3791,3926.5,-3641.05)">
                        <path d="M13683,5608C13683,5608 13688,5640 13682,5656" style="fill:rgb(67,45,32);"/>
                        <path d="M13683,5608C13683,5608 13685.1,5622.57 13684.6,5636.94C13684.3,5643.82 13683.5,5650.66 13681.5,5655.8C13681.4,5656.09 13681.5,5656.42 13681.8,5656.53C13682.1,5656.64 13682.4,5656.49 13682.5,5656.2C13684.4,5650.92 13685.2,5643.96 13685.3,5636.95C13685.5,5622.55 13683,5608 13683,5608C13683,5607.98 13683,5607.97 13683,5607.97C13683,5607.98 13683,5607.99 13683,5608Z" style="fill:rgb(29,20,14);"/>
                    </g>
                    <g transform="matrix(0.761332,0,0,1.3791,3926.5,-3641.05)">
                        <path d="M13730,5624C13730,5624 13760,5652 13756,5685" style="fill:rgb(67,45,32);"/>
                        <path d="M13730,5624.02C13730,5624.02 13741.9,5635.28 13749.5,5651.89C13754,5661.49 13757,5672.89 13755.4,5684.93C13755.4,5685.24 13755.6,5685.52 13755.9,5685.56C13756.2,5685.6 13756.5,5685.38 13756.6,5685.07C13757.9,5672.83 13754.7,5661.31 13750.1,5651.64C13742.1,5635.1 13730,5623.98 13730,5623.98C13730,5623.97 13730,5623.97 13730,5623.98C13730,5623.99 13730,5624.01 13730,5624.02Z" style="fill:rgb(29,20,14);"/>
                    </g>
                    <g transform="matrix(0.761332,0,0,1.3791,3907.47,-3685.18)">
                        <path d="M13766,5690C13766,5690 13753,5653 13737,5644" style="fill:rgb(67,45,32);"/>
                        <path d="M13766,5689.99C13766,5689.99 13760.5,5673.65 13752.1,5659.96C13747.8,5652.94 13742.7,5646.63 13737.3,5643.51C13737,5643.36 13736.7,5643.45 13736.5,5643.73C13736.4,5643.99 13736.5,5644.34 13736.7,5644.49C13742.1,5647.44 13747.1,5653.54 13751.5,5660.33C13760.1,5673.82 13766,5690.01 13766,5690.01C13766,5690.02 13766,5690.03 13766,5690.03C13766,5690.02 13766,5690.01 13766,5689.99Z" style="fill:rgb(29,20,14);"/>
                    </g>
                    <g transform="matrix(0.761332,0,0,1.3791,3926.5,-3641.05)">
                        <path d="M13647,5645C13647,5645 13654,5612 13666,5605" style="fill:rgb(67,45,32);"/>
                        <path d="M13647,5645.01C13647,5645.01 13650.2,5631.05 13655.7,5619.43C13658.6,5613.31 13662.1,5607.84 13666.3,5605.48C13666.6,5605.33 13666.6,5604.98 13666.5,5604.72C13666.3,5604.45 13666,5604.36 13665.7,5604.52C13661.5,5607.04 13657.9,5612.75 13655,5619.14C13649.8,5630.92 13647,5644.99 13647,5644.99C13647,5645.01 13647,5645.02 13647,5645.03C13647,5645.03 13647,5645.02 13647,5645.01Z" style="fill:rgb(29,20,14);"/>
                    </g>
                    <g transform="matrix(0.761332,0,0,1.3791,3926.5,-3641.05)">
                        <path d="M13707,5637C13707,5637 13703,5622 13700,5615" style="fill:rgb(67,45,32);"/>
                        <path d="M13707,5636.99C13707,5636.99 13705.4,5630.2 13703.4,5623.59C13702.5,5620.33 13701.5,5617.12 13700.5,5614.78C13700.4,5614.49 13700.1,5614.36 13699.8,5614.48C13699.5,5614.61 13699.4,5614.94 13699.5,5615.22C13700.5,5617.49 13701.7,5620.62 13702.8,5623.8C13705,5630.31 13707,5637.01 13707,5637.01C13707,5637.02 13707,5637.03 13707,5637.03C13707,5637.02 13707,5637.01 13707,5636.99Z" style="fill:rgb(29,20,14);"/>
                    </g>
                </g>
            </g>
        </g>
    </g>
</svg>
