<?xml version="1.0" encoding="UTF-8" standalone="no"?>
<!DOCTYPE svg PUBLIC "-//W3C//DTD SVG 1.1//EN" "http://www.w3.org/Graphics/SVG/1.1/DTD/svg11.dtd">
<svg width="100%" height="100%" viewBox="0 0 282 385" version="1.1" xmlns="http://www.w3.org/2000/svg" xmlns:xlink="http://www.w3.org/1999/xlink" xml:space="preserve" xmlns:serif="http://www.serif.com/" style="fill-rule:evenodd;clip-rule:evenodd;stroke-linejoin:round;stroke-miterlimit:2;">
  <g transform="matrix(1,0,0,1,-17752,-2415)">
    <g id="Plan-de-travail8" serif:id="Plan de travail8" transform="matrix(0.748011,0,0,1.00522,11467.2,-624.791)">
      <rect x="8402" y="3024" width="377" height="383" style="fill:none;"/>
      <g transform="matrix(2.49074,0,0,0.905684,-22003.8,-6881.94)">
        <g transform="matrix(0.530388,0,0,1.10892,11767.6,8830.61)">
          <ellipse cx="972.5" cy="2107" rx="117.5" ry="174" style="fill:rgb(241,198,170);"/>
        </g>
        <g transform="matrix(0.443531,0,0,0.907656,7560.64,-172.318)">
          <path d="M10538,12313C10530.3,12321.3 10504,12339.5 10494.4,12355C10485.3,12369.5 10485.6,12394 10486.3,12406C10486.7,12413.7 10495.5,12444.9 10497.1,12448.2C10498.1,12450.2 10503.6,12460.6 10504.4,12462.7C10505.6,12465.7 10503,12463.5 10504.1,12466.2C10505,12468 10509.1,12465.4 10510.1,12467.2C10511.6,12469.7 10508.2,12472.6 10510,12477C10512.2,12482.2 10525.8,12511.9 10527.3,12505.5C10529.5,12496.5 10521.3,12434 10523,12423C10525,12443 10533.1,12454.2 10533.1,12454.2C10533.1,12454.2 10526.1,12429.4 10528,12417C10527.8,12411.7 10527.8,12402.9 10529,12396C10530.3,12388 10531.8,12376.8 10536,12369C10540.2,12361.2 10545.8,12348.5 10554,12349C10562.2,12349.5 10573.1,12367.1 10585,12372C10598.5,12377.5 10618,12381.4 10635,12382C10653.5,12382.7 10682.5,12379.5 10696,12376C10704.1,12373.9 10716,12362.2 10716,12361C10716,12359.8 10701.8,12367.5 10696,12369C10691.1,12370.2 10679.7,12371.5 10681,12370C10682.3,12368.5 10697,12362.2 10704,12360C10710.1,12358.1 10718.5,12353.8 10723,12357C10727.5,12360.2 10723.9,12375.7 10731,12379C10738.5,12382.5 10755.7,12370.1 10761.4,12375.9C10767,12381.7 10764,12403.5 10765,12414C10765.9,12423.4 10772.9,12431.6 10774,12441C10775.5,12453.5 10772,12480.8 10774,12489C10775,12492.9 10777.4,12519.7 10781.2,12518.4C10787.7,12516.2 10797,12491.4 10801.5,12485.4C10805.9,12479.6 10805.9,12461.3 10805.7,12454C10805.2,12439.7 10803.8,12406.3 10802.7,12390C10801.9,12378.6 10800.7,12365.5 10798.7,12356C10797,12348.1 10798.7,12342.8 10794.9,12336.1C10791.1,12329.6 10779.8,12320.8 10779.9,12319.1C10780,12310.9 10798.4,12329.4 10798.1,12333.5C10798.1,12333.5 10786.1,12302.7 10776.9,12296.1C10758,12282.6 10706.7,12249.7 10683,12242C10668.6,12237.3 10647.2,12245 10638,12247C10634,12247.9 10632.1,12254 10628,12254C10623.2,12254 10610.1,12254.9 10599.6,12257.6C10593.4,12259.1 10569.7,12271.7 10567.2,12273.4C10564.4,12275.2 10549.3,12283.9 10546.8,12286.6C10544.3,12289.2 10545.3,12289.8 10543,12295C10541,12299.5 10539.8,12301 10539,12304C10538.1,12307 10540.3,12310.5 10538,12313Z" style="fill:rgb(87,66,60);"/>
        </g>
        <g transform="matrix(0.557569,0,0,1.26473,11577.9,7818.26)">
          <path d="M1269.06,2779.06C1278.43,2778.23 1312.89,2766.17 1316.85,2762.52C1321.52,2758.22 1319.37,2743.18 1326.15,2730.9C1329.68,2724.52 1345.57,2722.84 1352.75,2709.85C1359.54,2697.56 1379.06,2663.4 1379.06,2663.4C1379.06,2663.4 1375.17,2682.81 1374.75,2693.28C1374.46,2700.26 1349.96,2750.6 1342.2,2760.4C1333.77,2771.05 1320.71,2780.6 1310.94,2787.69C1302.98,2793.46 1293.17,2796.68 1283.52,2798.56C1278.31,2799.58 1272.02,2800.19 1265.73,2800.44C1265.58,2800.44 1265.44,2800.41 1265.31,2800.35C1265.17,2800.41 1265.03,2800.44 1264.89,2800.44C1258.6,2800.19 1252.31,2799.58 1247.1,2798.56C1237.45,2796.68 1227.64,2793.46 1219.68,2787.69C1209.9,2780.6 1196.85,2771.05 1188.42,2760.4C1180.66,2750.6 1156.16,2700.26 1155.87,2693.28C1155.44,2682.81 1151.56,2663.4 1151.56,2663.4C1151.56,2663.4 1159.45,2690.94 1178.64,2712.54C1192.99,2728.68 1209.26,2724.39 1214.05,2729.79C1218.76,2735.09 1211.57,2757.18 1223.67,2763.64C1228.53,2766.24 1259.48,2779.91 1269.06,2779.06Z" style="fill:rgb(87,66,60);"/>
        </g>
        <g transform="matrix(1.58321,0,0,1.85673,-8199.46,-7460.8)">
          <path d="M12939,10094C12934.8,10093.9 12934.4,10094.3 12934,10096C12933.6,10097.6 12930.7,10105 12939,10105C12947.3,10105 12944.7,10097.7 12944,10096C12943.4,10094.6 12941.3,10094 12939,10094" style="fill:rgb(87,66,60);"/>
        </g>
        <g transform="matrix(1.63336,-0.26883,0.133647,3.28547,12009.3,10888.1)">
          <path d="M170,90C168.806,89.867 167.167,90.167 167,89C166.833,87.833 168.089,87.063 169.665,86.203C171.498,85.203 176.372,83.255 179.206,83.755C182.039,84.255 184.106,84.507 186.606,86.007C189.065,87.482 189.295,88.762 189.295,88.762C189.295,88.762 185.434,88.21 183.427,87.923C181.094,87.59 177.996,87.963 176.909,88.222C174.933,88.69 171.5,90.167 170,90Z" style="fill:rgb(87,66,60);"/>
        </g>
        <g transform="matrix(-1.63336,-0.26883,-0.133647,3.28547,12560.5,10888.1)">
          <path d="M170,90C168.806,89.867 167.167,90.167 167,89C166.833,87.833 168.089,87.063 169.665,86.203C171.498,85.203 176.372,83.255 179.206,83.755C182.039,84.255 184.106,84.507 186.606,86.007C189.065,87.482 189.295,88.762 189.295,88.762C189.295,88.762 185.434,88.21 183.427,87.923C181.094,87.59 177.996,87.963 176.909,88.222C174.933,88.69 171.5,90.167 170,90Z" style="fill:rgb(87,66,60);"/>
        </g>
        <g transform="matrix(-0.063866,0,0,0.168881,12784.9,8237.61)">
          <path d="M7195.17,17312.8C7163.46,17301.4 7323.82,17207.9 7418.07,17207.9C7512.32,17207.9 7650.22,17307.3 7640.97,17312.8C7614.51,17328.5 7495.39,17279.4 7409.63,17279.4C7323.87,17279.4 7202.74,17315.6 7195.17,17312.8Z" style="fill:rgb(109,81,64);"/>
        </g>
        <g transform="matrix(0.063866,0,0,0.168881,11783.8,8237.61)">
          <path d="M7195.17,17312.8C7163.46,17301.4 7323.82,17207.9 7418.07,17207.9C7512.32,17207.9 7650.22,17307.3 7640.97,17312.8C7614.51,17328.5 7495.39,17279.4 7409.63,17279.4C7323.87,17279.4 7202.74,17315.6 7195.17,17312.8Z" style="fill:rgb(109,81,64);"/>
        </g>
        <g transform="matrix(0.298625,0,0,0.276684,11422.3,10524.8)">
          <path d="M2984.99,2658C2984.19,2708.91 2942.6,2750 2891.5,2750C2840.4,2750 2798.81,2708.91 2798.01,2658L2984.99,2658Z" style="fill:rgb(195,136,111);"/>
        </g>
        <g transform="matrix(0.234036,0,0,0.21684,11609.1,10686.4)">
          <path d="M2984.99,2658C2984.19,2708.91 2942.6,2750 2891.5,2750C2840.4,2750 2798.81,2708.91 2798.01,2658L2984.99,2658Z" style="fill:rgb(243,241,240);"/>
        </g>
        <g transform="matrix(0.652614,-0.264198,0.122361,1.74423,11418.1,7744.51)">
          <ellipse cx="833.5" cy="2084" rx="12.5" ry="31" style="fill:rgb(241,198,170);"/>
        </g>
        <g transform="matrix(-0.0936961,-0.082686,-0.0204978,0.274825,12283.2,10465.5)">
          <path d="M117.422,2617.33C123.261,2600.83 139.009,2589 157.5,2589C175.991,2589 191.739,2600.83 197.578,2617.33C191.739,2608.4 175.991,2602 157.5,2602C139.009,2602 123.261,2608.4 117.422,2617.33Z" style="fill:rgb(222,165,130);"/>
        </g>
        <g transform="matrix(-0.0961424,-0.34255,-0.107412,0.262149,12510.6,10532.5)">
          <path d="M117.422,2617.33C123.261,2600.83 139.009,2589 157.5,2589C175.991,2589 191.739,2600.83 197.578,2617.33C191.739,2608.4 175.991,2602 157.5,2602C139.009,2602 123.261,2608.4 117.422,2617.33Z" style="fill:rgb(222,165,130);"/>
        </g>
        <g transform="matrix(0.505469,0.370931,-0.182331,1.7139,12308.6,7284.62)">
          <ellipse cx="833.5" cy="2084" rx="12.5" ry="31" style="fill:rgb(241,198,170);"/>
        </g>
        <g transform="matrix(0.0848501,-0.0703323,0.00846222,0.276815,12314.6,10464)">
          <path d="M117.422,2617.33C123.261,2600.83 139.009,2589 157.5,2589C175.991,2589 191.739,2600.83 197.578,2617.33C191.739,2608.4 175.991,2602 157.5,2602C139.009,2602 123.261,2608.4 117.422,2617.33Z" style="fill:rgb(222,165,130);"/>
        </g>
        <g transform="matrix(0.0959517,-0.329247,0.084963,0.275443,12113.3,10501.4)">
          <path d="M117.422,2617.33C123.261,2600.83 139.009,2589 157.5,2589C175.991,2589 191.739,2600.83 197.578,2617.33C191.739,2608.4 175.991,2602 157.5,2602C139.009,2602 123.261,2608.4 117.422,2617.33Z" style="fill:rgb(222,165,130);"/>
        </g>
        <g transform="matrix(0.617559,0,0,1.05655,11504.8,8454.82)">
          <path d="M1264.52,2627.59C1264.68,2627.54 1264.86,2627.5 1265.03,2627.49C1271.7,2626.86 1277.76,2624.81 1280.71,2623.18C1287.76,2619.3 1307.12,2633.09 1310.14,2636.37C1313.49,2640.01 1315.55,2662.93 1315.55,2662.93C1315.55,2662.93 1311.21,2651.23 1303.91,2649.09C1296.02,2646.77 1283.59,2645.26 1277.11,2644.99C1273,2644.83 1269.13,2647.67 1265.02,2647.5C1264.85,2647.49 1264.68,2647.47 1264.52,2647.42C1264.36,2647.47 1264.19,2647.49 1264.02,2647.5C1259.9,2647.67 1256.04,2644.83 1251.93,2644.99C1245.44,2645.26 1233.02,2646.77 1225.12,2649.09C1217.83,2651.23 1213.49,2662.93 1213.49,2662.93C1213.49,2662.93 1215.55,2640.01 1218.89,2636.37C1221.92,2633.09 1241.27,2619.3 1248.33,2623.18C1251.28,2624.81 1257.33,2626.86 1264,2627.49C1264.18,2627.5 1264.35,2627.54 1264.52,2627.59Z" style="fill:rgb(87,66,60);"/>
        </g>
      </g>
    </g>
  </g>
</svg>
