<?xml version="1.0" encoding="UTF-8" standalone="no"?>
<!DOCTYPE svg PUBLIC "-//W3C//DTD SVG 1.1//EN" "http://www.w3.org/Graphics/SVG/1.1/DTD/svg11.dtd">
<svg width="100%" height="100%" viewBox="0 0 315 388" version="1.1" xmlns="http://www.w3.org/2000/svg" xmlns:xlink="http://www.w3.org/1999/xlink" xml:space="preserve" xmlns:serif="http://www.serif.com/" style="fill-rule:evenodd;clip-rule:evenodd;stroke-linecap:round;stroke-linejoin:round;stroke-miterlimit:1.5;">
    <g transform="matrix(1,0,0,1,-14311,-2422)">
        <g id="Plan-de-travail8" serif:id="Plan de travail8" transform="matrix(0.835544,0,0,1.01305,7290.76,-641.478)">
            <rect x="8402" y="3024" width="377" height="383" style="fill:none;"/>
            <clipPath id="_clip1">
                <rect x="8402" y="3024" width="377" height="383"/>
            </clipPath>
            <g clip-path="url(#_clip1)">
                <g transform="matrix(1.88351,0,0,2.39968,-40580.7,-5648.5)">
                    <g transform="matrix(0.720562,0,0,0.434999,25404.4,2778.84)">
                        <ellipse cx="972.5" cy="2107" rx="117.5" ry="174" style="fill:rgb(241,198,170);"/>
                    </g>
                    <g transform="matrix(0.949813,0.0422735,-0.065301,0.614875,1789.91,315.166)">
                        <path d="M25886,3610C25892.2,3613 25904,3621.33 25909,3626C25912.4,3629.16 25915.3,3633.42 25916,3638C25917.2,3645.5 25919.3,3660.99 25921,3670.66C25922.5,3679.5 25928.3,3688.82 25931,3695.66C25933.1,3700.96 25931.7,3708.03 25934,3711.86C25935.8,3714.89 25936.6,3718.18 25940,3719C25943.5,3719.83 25951.3,3721.03 25953,3717C25955,3712.33 25948.4,3699.9 25947,3691.34C25945.3,3681.34 25945.2,3683.31 25945.4,3681.48C25945.5,3679.64 25945.5,3674.51 25948,3680.34C25949.7,3684.33 25952.3,3693.01 25953,3692.34C25953.7,3691.68 25953.3,3681.53 25952,3676.34C25950.3,3669.51 25946.9,3659.3 25943,3651.34C25939,3643.18 25936,3632.87 25930,3627.21C25924.4,3621.88 25917.7,3620 25912,3617C25907.5,3614.62 25907.3,3611.42 25904.6,3608.26C25902.2,3605.35 25899.4,3599.63 25896,3598C25889.3,3594.83 25871.6,3590.82 25859,3590C25843.7,3589 25817.8,3588.5 25804,3592C25793.1,3594.77 25782.5,3604.67 25776,3611C25770.8,3616.11 25765,3630 25765,3630C25765,3630 25776.5,3619.33 25781,3617C25784.3,3615.31 25792.2,3614.33 25792,3616C25791.8,3617.67 25783.5,3622.87 25780,3627C25776.2,3631.5 25775.3,3637.2 25772,3642.79C25768.5,3648.79 25767,3653.52 25767,3661.45C25767,3668.99 25766.3,3677.47 25766,3685.25C25765.6,3693.25 25756,3703.5 25757,3711C25757.9,3717.74 25758.3,3725.17 25761,3731C25763.7,3736.82 25769.8,3744 25773,3746C25775.1,3747.36 25779.7,3745.52 25780,3743C25780.8,3736.33 25777.4,3718.34 25778,3706C25778.7,3692.5 25781.3,3673.5 25784,3662C25786,3653.26 25789.5,3644.17 25794,3637C25798.4,3630.01 25805.8,3621.5 25811,3619C25815.3,3616.92 25820.5,3621 25825,3622C25829.3,3622.97 25833.6,3625 25838,3625C25843.2,3625 25851.5,3623.5 25856,3622C25859.4,3620.86 25862.3,3618.33 25865,3616C25867.7,3613.67 25868.6,3608.97 25872,3608C25875.5,3607 25881.8,3607.94 25886,3610Z" style="fill:rgb(100,82,66);"/>
                    </g>
                    <g transform="matrix(1.05509,0.083887,-0.13316,0.701888,25589.7,2156.44)">
                        <ellipse cx="833.5" cy="2084" rx="12.5" ry="31" style="fill:rgb(241,198,170);"/>
                    </g>
                    <g transform="matrix(0.168346,-0.0377454,0.0583063,0.108981,26015.5,3414.56)">
                        <path d="M117.422,2617.33C123.261,2600.83 139.009,2589 157.5,2589C175.991,2589 191.739,2600.83 197.578,2617.33C191.739,2608.4 175.991,2602 157.5,2602C139.009,2602 123.261,2608.4 117.422,2617.33Z" style="fill:rgb(222,165,130);"/>
                    </g>
                    <g transform="matrix(0.153846,-0.141878,0.219162,0.0995941,25597.2,3452.69)">
                        <path d="M117.422,2617.33C123.261,2600.83 139.009,2589 157.5,2589C175.991,2589 191.739,2600.83 197.578,2617.33C191.739,2608.4 175.991,2602 157.5,2602C139.009,2602 123.261,2608.4 117.422,2617.33Z" style="fill:rgb(222,165,130);"/>
                    </g>
                    <g transform="matrix(-0.0929931,0,0,0.0677594,26833.8,2516.05)">
                        <path d="M7195.17,17312.8C7163.46,17301.4 7323.82,17207.9 7418.07,17207.9C7512.32,17207.9 7650.22,17307.3 7640.97,17312.8C7614.51,17328.5 7495.39,17262.7 7409.63,17262.7C7323.87,17262.7 7202.74,17315.6 7195.17,17312.8Z" style="fill:rgb(109,81,64);"/>
                    </g>
                    <g transform="matrix(0.0929931,0,0,0.0677594,25378.2,2516.05)">
                        <path d="M7195.17,17312.8C7163.46,17301.4 7323.82,17207.9 7418.07,17207.9C7512.32,17207.9 7650.22,17307.3 7640.97,17312.8C7614.51,17328.5 7495.39,17262.7 7409.63,17262.7C7323.87,17262.7 7202.74,17315.6 7195.17,17312.8Z" style="fill:rgb(109,81,64);"/>
                    </g>
                    <g transform="matrix(0.730274,0,0,0.452047,25180.6,2507.05)">
                        <path d="M1241.3,2739.19C1243.02,2738.74 1249.41,2732.4 1265.38,2731.54C1282.57,2730.61 1287.89,2738.47 1290.62,2739.19C1295.07,2740.37 1300.72,2737.46 1304.67,2733.82C1309.34,2729.52 1320.9,2710.08 1325.62,2704.78C1329.86,2700 1379.06,2663.4 1379.06,2663.4C1379.06,2663.4 1375.17,2682.81 1374.75,2693.28C1374.46,2700.26 1349.96,2750.6 1342.2,2760.4C1333.77,2771.05 1320.71,2780.6 1310.94,2787.69C1302.98,2793.46 1293.17,2796.68 1283.52,2798.56C1278.31,2799.58 1272.02,2800.19 1265.73,2800.44C1265.58,2800.44 1265.44,2800.41 1265.31,2800.35C1265.17,2800.41 1265.03,2800.44 1264.89,2800.44C1258.6,2800.19 1252.31,2799.58 1247.1,2798.56C1237.45,2796.68 1227.64,2793.46 1219.68,2787.69C1209.9,2780.6 1196.85,2771.05 1188.42,2760.4C1180.66,2750.6 1156.16,2700.26 1155.87,2693.28C1155.44,2682.81 1151.56,2663.4 1151.56,2663.4C1151.56,2663.4 1207.4,2699.97 1211.64,2704.74C1216.35,2710.05 1222.58,2729.52 1227.25,2733.82C1231.2,2737.46 1236.85,2740.37 1241.3,2739.19Z" style="fill:rgb(100,82,66);"/>
                    </g>
                    <g transform="matrix(0.372292,0,0,0.166439,25029.9,3282.45)">
                        <path d="M2984.99,2658C2984.19,2708.91 2942.6,2750 2891.5,2750C2840.4,2750 2798.81,2708.91 2798.01,2658L2984.99,2658Z" style="fill:rgb(195,136,111);"/>
                    </g>
                    <g transform="matrix(0.29177,0,0,0.130441,25262.8,3379.65)">
                        <path d="M2984.99,2658C2984.19,2708.91 2942.6,2750 2891.5,2750C2840.4,2750 2798.81,2708.91 2798.01,2658L2984.99,2658Z" style="fill:rgb(243,241,240);"/>
                    </g>
                    <g transform="matrix(1.05857,-0.0629174,0.0998734,0.7042,24929.6,2275.86)">
                        <ellipse cx="833.5" cy="2084" rx="12.5" ry="31" style="fill:rgb(241,198,170);"/>
                    </g>
                    <g transform="matrix(-0.168346,-0.0377454,-0.0583063,0.108981,26196.3,3416.44)">
                        <path d="M117.422,2617.33C123.261,2600.83 139.009,2589 157.5,2589C175.991,2589 191.739,2600.83 197.578,2617.33C191.739,2608.4 175.991,2602 157.5,2602C139.009,2602 123.261,2608.4 117.422,2617.33Z" style="fill:rgb(222,165,130);"/>
                    </g>
                    <g transform="matrix(-0.153846,-0.141878,-0.219162,0.0995941,26614.6,3454.56)">
                        <path d="M117.422,2617.33C123.261,2600.83 139.009,2589 157.5,2589C175.991,2589 191.739,2600.83 197.578,2617.33C191.739,2608.4 175.991,2602 157.5,2602C139.009,2602 123.261,2608.4 117.422,2617.33Z" style="fill:rgb(222,165,130);"/>
                    </g>
                    <g transform="matrix(0.868446,0,0,0.408409,25006.4,2640.03)">
                        <path d="M1264.52,2623.45C1264.68,2623.4 1264.86,2623.37 1265.03,2623.35C1271.7,2622.72 1277.76,2620.68 1280.71,2619.05C1287.76,2615.17 1307.12,2628.96 1310.14,2632.24C1313.49,2635.87 1322.08,2663.43 1322.08,2663.43C1322.08,2663.43 1311.21,2651.23 1303.91,2649.09C1296.02,2646.77 1283.59,2645.26 1277.11,2644.99C1273,2644.83 1269.13,2647.67 1265.02,2647.5C1264.85,2647.49 1264.68,2647.47 1264.52,2647.42C1264.36,2647.47 1264.19,2647.49 1264.02,2647.5C1259.9,2647.67 1256.04,2644.83 1251.93,2644.99C1245.44,2645.26 1233.02,2646.77 1225.12,2649.09C1217.83,2651.23 1210.58,2663.43 1210.58,2663.43C1210.58,2663.43 1215.55,2635.87 1218.89,2632.24C1221.92,2628.96 1241.27,2615.17 1248.33,2619.05C1251.28,2620.68 1257.33,2622.72 1264,2623.35C1264.18,2623.37 1264.35,2623.4 1264.52,2623.45Z" style="fill:rgb(100,82,66);"/>
                    </g>
                    <g transform="matrix(1.9903,-0.105426,0.162854,1.28845,25770.4,3580.42)">
                        <path d="M170.117,88.575C168.922,88.442 167.283,88.741 167.117,87.575C166.95,86.408 167.424,84.86 169,84C170.833,83 175.167,82.5 178,83C180.833,83.5 187.252,85.34 189.752,86.84C192.211,88.315 193,92 193,92C193,92 189.362,89.137 185.968,88.259C183.94,87.734 176.376,87.575 176.117,87.575C174.089,87.575 171.617,88.741 170.117,88.575Z" style="fill:rgb(100,82,66);"/>
                    </g>
                    <g transform="matrix(-1.9903,-0.105426,-0.162854,1.28845,26439.1,3580.42)">
                        <path d="M170.117,88.575C168.922,88.442 167.283,88.741 167.117,87.575C166.95,86.408 167.424,84.86 169,84C170.833,83 175.167,82.5 178,83C180.833,83.5 187.252,85.34 189.752,86.84C192.211,88.315 193,92 193,92C193,92 189.362,89.137 185.968,88.259C183.94,87.734 176.376,87.575 176.117,87.575C174.089,87.575 171.617,88.741 170.117,88.575Z" style="fill:rgb(100,82,66);"/>
                    </g>
                    <g transform="matrix(1.19894,-0.0235837,0.0345204,0.819094,14732.8,690.569)">
                        <path d="M9314,3912C9312.17,3916 9313.33,3927.33 9316,3932C9318.67,3936.67 9324.76,3938.8 9330,3940C9335.83,3941.33 9346.17,3941 9351,3940C9354.26,3939.33 9357.06,3936.71 9359,3934C9361.5,3930.5 9366.17,3922.67 9366,3919C9365.84,3915.46 9361.41,3912.96 9358,3912C9351.5,3910.17 9334.33,3908 9327,3908C9322.47,3908 9315.83,3908 9314,3912Z" style="fill:none;stroke:rgb(38,27,20);stroke-width:1.55px;"/>
                    </g>
                    <g transform="matrix(-1.19634,-0.0588908,-0.0862011,0.817314,37657.7,1028.3)">
                        <path d="M9314,3912C9312.17,3916 9313.33,3927.33 9316,3932C9318.67,3936.67 9324.76,3938.8 9330,3940C9335.83,3941.33 9346.17,3941 9351,3940C9354.26,3939.33 9357.06,3936.71 9359,3934C9361.5,3930.5 9366.17,3922.67 9366,3919C9365.84,3915.46 9361.41,3912.96 9358,3912C9351.5,3910.17 9334.33,3908 9327,3908C9322.47,3908 9315.83,3908 9314,3912Z" style="fill:none;stroke:rgb(38,27,20);stroke-width:1.55px;"/>
                    </g>
                    <g transform="matrix(1.65053,-0.0324665,0.050791,1.20516,10439.5,-738.071)">
                        <path d="M9366,3921C9366,3921 9373.28,3918.93 9376.42,3922.39C9376.88,3920.18 9376.81,3917.82 9376.81,3917.82C9376.81,3917.82 9372.8,3916 9371,3916C9369.3,3916 9366,3917 9366,3917L9366,3921Z" style="fill:rgb(38,27,20);"/>
                    </g>
                </g>
            </g>
        </g>
    </g>
</svg>
