<?xml version="1.0" encoding="UTF-8" standalone="no"?>
<!DOCTYPE svg PUBLIC "-//W3C//DTD SVG 1.1//EN" "http://www.w3.org/Graphics/SVG/1.1/DTD/svg11.dtd">
<svg width="100%" height="100%" viewBox="0 0 282 386" version="1.1" xmlns="http://www.w3.org/2000/svg" xmlns:xlink="http://www.w3.org/1999/xlink" xml:space="preserve" xmlns:serif="http://www.serif.com/" style="fill-rule:evenodd;clip-rule:evenodd;stroke-linecap:round;stroke-linejoin:round;stroke-miterlimit:1.5;">
    <g transform="matrix(1,0,0,1,-12901,-2437)">
        <g id="Plan-de-travail8" serif:id="Plan de travail8" transform="matrix(0.748011,0,0,1.00783,6616.21,-610.687)">
            <rect x="8402" y="3024" width="377" height="383" style="fill:none;"/>
            <clipPath id="_clip1">
                <rect x="8402" y="3024" width="377" height="383"/>
            </clipPath>
            <g clip-path="url(#_clip1)">
                <g transform="matrix(1.93694,0,0,1.67078,-33187.1,-3205.35)">
                    <g transform="matrix(-0.839342,0,0,0.780066,39513.2,1160.31)">
                        <path d="M21305,3427C21302.7,3430.17 21321.9,3390.51 21320.8,3394.17C21319.8,3397.17 21315.2,3397.24 21312.8,3399.17C21309.8,3401.51 21305.8,3405.51 21302.8,3408.17C21300.1,3410.53 21281.2,3461.68 21280,3465C21278.5,3469 21279,3476.83 21279,3482C21279,3486.68 21279.8,3492 21280,3496C21280.1,3499.33 21280.5,3502.7 21280,3506C21279.3,3510.5 21278.1,3517.59 21276,3523C21273.5,3529.33 21267,3542.54 21265,3549.54C21263.1,3556.27 21263.7,3565.7 21264,3570.54C21264.2,3573.38 21264.5,3577.37 21267,3578.54C21269.5,3579.7 21277.5,3582.52 21280.8,3581.86C21283.6,3581.3 21292.2,3579.48 21294.4,3579.15C21296.1,3578.89 21309.9,3582.13 21312.1,3580.84C21314.9,3579.17 21325.2,3577.66 21328.8,3575.99C21332.1,3574.53 21334.3,3566.01 21335,3562.54C21336.8,3553.7 21339.1,3526.33 21338,3511C21336.8,3494 21331,3469.33 21328,3455C21325.9,3444.87 21323.8,3429.67 21320,3425C21316.8,3421.1 21307.3,3423.83 21305,3427Z" style="fill:rgb(67,45,32);stroke:rgb(29,20,14);stroke-width:1.58px;"/>
                    </g>
                    <g transform="matrix(-0.774458,0,0,0.719764,38118.8,1392.65)">
                        <path d="M21269.4,3460C21270.1,3471 21273.6,3484.1 21272,3495C21270.2,3507.17 21263.3,3521.67 21259,3535" style="fill:rgb(67,45,32);"/>
                        <path d="M21270.3,3459.95C21270.7,3467.58 21272.4,3476.22 21272.9,3484.43C21273.1,3488.11 21273,3491.69 21272.5,3495.06C21271.8,3498.95 21270.7,3503.07 21269.3,3507.31C21266.3,3516.35 21262.1,3525.94 21259,3535C21261.8,3525.89 21265.8,3516.22 21268.6,3507.13C21269.9,3502.9 21271,3498.8 21271.5,3494.94C21272,3491.62 21272,3488.1 21271.7,3484.5C21271,3476.29 21269.1,3467.67 21268.5,3460.05C21268.5,3459.59 21268.9,3459.2 21269.3,3459.18C21269.8,3459.15 21270.3,3459.5 21270.3,3459.95Z" style="fill:rgb(29,20,14);"/>
                    </g>
                    <g transform="matrix(-0.774458,0,0,0.719764,38114.9,1397.68)">
                        <path d="M21309,3546C21309,3546 21296,3533 21295,3505" style="fill:rgb(67,45,32);"/>
                        <path d="M21308.3,3546.56C21308.3,3546.56 21302.1,3540.12 21298.1,3526.67C21296.4,3520.8 21295.1,3513.6 21295,3505C21295.5,3513.54 21297,3520.66 21299,3526.43C21303.4,3539.37 21309.7,3545.44 21309.7,3545.44C21310,3545.77 21310,3546.3 21309.6,3546.61C21309.2,3546.91 21308.7,3546.89 21308.3,3546.56Z" style="fill:rgb(29,20,14);"/>
                    </g>
                    <g transform="matrix(-0.774458,0,0,0.719764,38118.8,1396.24)">
                        <path d="M21276,3552C21276,3552 21273,3537 21280,3519" style="fill:rgb(67,45,32);"/>
                        <path d="M21275.1,3552.15C21275.1,3552.15 21273.9,3545.25 21275.4,3535.24C21276.2,3530.41 21277.5,3524.86 21280,3519C21277.9,3524.93 21276.8,3530.51 21276.3,3535.33C21275.4,3545.17 21276.9,3551.85 21276.9,3551.85C21277,3552.3 21276.6,3552.73 21276.2,3552.81C21275.7,3552.89 21275.2,3552.6 21275.1,3552.15Z" style="fill:rgb(29,20,14);"/>
                    </g>
                    <g transform="matrix(-0.906599,0,0,0.780066,40944.7,1156.72)">
                        <path d="M21450.8,3406.32C21454.6,3408.32 21465.2,3453.27 21467.7,3460.77C21470.1,3468 21470.9,3483.68 21473,3491C21475.2,3498.5 21476.7,3509 21477,3515C21477.2,3519.05 21474.9,3522.95 21475,3527C21475.2,3532 21477.5,3539.5 21478,3545C21478.5,3549.98 21477.1,3560 21477.1,3560C21477.1,3560 21476,3548.35 21474.8,3543.85C21474.1,3540.87 21471.3,3532.17 21471,3533C21470.7,3533.83 21470.7,3542.34 21471,3547C21471.3,3551.83 21472.5,3557.5 21473,3562C21473.4,3565.99 21475.2,3570.17 21474,3574C21472.8,3577.83 21468.8,3579.58 21465.1,3582.23C21460.9,3585.23 21453.9,3588.07 21448.1,3589.23C21442.2,3590.4 21434.6,3588.55 21430.1,3587.39C21426.4,3586.43 21423,3583.67 21421.1,3580.39C21418.7,3576.39 21417.2,3573.9 21417,3568C21416.7,3558.5 21417.7,3541.17 21420,3528C21422.3,3514.83 21427.5,3500.67 21431,3489C21434.1,3478.6 21436.5,3465.17 21441,3458C21444.7,3452.13 21446.9,3404.32 21450.8,3406.32Z" style="fill:rgb(67,45,32);stroke:rgb(29,20,14);stroke-width:1.52px;"/>
                    </g>
                    <g transform="matrix(-0.836516,0,0,0.719764,39438.5,1389.05)">
                        <path d="M21451.2,3565.33C21449.8,3557.22 21446.4,3549.21 21447,3541C21447.8,3529.61 21453,3511.67 21456,3497" style="fill:rgb(67,45,32);"/>
                        <path d="M21450.4,3565.47C21449.5,3559.8 21447.6,3554.17 21446.8,3548.5C21446.4,3546 21446.3,3543.49 21446.5,3540.96C21446.8,3537.12 21447.6,3532.55 21448.7,3527.61C21450.8,3517.88 21453.9,3506.72 21456,3497C21454.1,3506.76 21451.3,3517.98 21449.4,3527.76C21448.5,3532.68 21447.8,3537.23 21447.5,3541.04C21447.4,3543.48 21447.6,3545.9 21448,3548.31C21449,3553.96 21450.9,3559.55 21452,3565.19C21452.1,3565.64 21451.8,3566.07 21451.3,3566.14C21450.9,3566.22 21450.4,3565.92 21450.4,3565.47Z" style="fill:rgb(29,20,14);"/>
                    </g>
                    <g transform="matrix(-0.836516,0,0,0.719764,39436.9,1390.49)">
                        <path d="M21420,3513C21420,3513 21415,3536 21419,3544" style="fill:rgb(67,45,32);"/>
                        <path d="M21420.8,3513.18C21420.8,3513.18 21418.5,3522.74 21417.8,3531.66C21417.5,3536.51 21417.7,3541.16 21419,3544C21417.5,3541.21 21417.1,3536.53 21417.2,3531.63C21417.3,3522.59 21419.2,3512.83 21419.2,3512.83C21419.3,3512.38 21419.7,3512.1 21420.2,3512.19C21420.6,3512.29 21420.9,3512.73 21420.8,3513.18Z" style="fill:rgb(29,20,14);"/>
                    </g>
                    <g transform="matrix(-0.836516,0,0,0.719764,39438.5,1389.05)">
                        <path d="M21470,3508C21470,3508 21466,3484 21458,3472" style="fill:rgb(67,45,32);"/>
                        <path d="M21469.2,3508.14C21469.2,3508.14 21467.6,3496.91 21464.1,3485.93C21462.5,3480.85 21460.4,3475.84 21458,3472C21460.6,3475.74 21462.9,3480.69 21464.7,3485.72C21468.7,3496.62 21470.8,3507.86 21470.8,3507.86C21470.9,3508.31 21470.6,3508.74 21470.1,3508.81C21469.7,3508.89 21469.3,3508.59 21469.2,3508.14Z" style="fill:rgb(29,20,14);"/>
                    </g>
                    <g transform="matrix(0.877533,0,0,1.57366,3298.95,-1600.43)">
                        <g transform="matrix(0.811163,0,0,0.317866,20021.5,2798.34)">
                            <path d="M972.5,1933C1037.35,1933 1082.21,2012.39 1082.21,2108.43C1082.21,2127.81 1078.26,2145.94 1073.12,2162.53C1069.69,2173.56 1065.74,2195.43 1062.07,2205.01C1043.91,2252.41 1000.27,2281.11 972.5,2281.11C947.122,2281.11 909.007,2254.95 893.241,2211.77C888.856,2199.76 884.19,2174.92 880.463,2160.48C876.214,2144.01 873.185,2126.09 873.185,2107C873.185,2010.97 907.65,1933 972.5,1933Z" style="fill:rgb(241,198,170);"/>
                        </g>
                        <g transform="matrix(0.953258,0,0,0.457383,10973.2,1212.2)">
                            <path d="M10384.8,4937.58C10384.8,4937.58 10388.1,4938.66 10390.8,4937.67C10392.4,4937.07 10393.8,4935.77 10394.1,4933.01C10394.1,4932.98 10394,4932.95 10394,4932.95C10394,4932.94 10394,4932.96 10393.9,4932.99C10393.6,4934.93 10392.7,4936.04 10391.6,4936.64C10389,4938.07 10385.2,4936.42 10385.2,4936.42C10384.9,4936.3 10384.5,4936.46 10384.4,4936.78C10384.3,4937.1 10384.5,4937.46 10384.8,4937.58Z" style="fill:rgb(18,12,12);"/>
                        </g>
                        <g transform="matrix(0.953258,0,0,0.457383,10970.4,1211.75)">
                            <path d="M10384.8,4937.58C10384.8,4937.58 10388.1,4938.66 10390.8,4937.67C10392.4,4937.07 10393.8,4935.77 10394.1,4933.01C10394.1,4932.98 10394,4932.95 10394,4932.95C10394,4932.94 10394,4932.96 10393.9,4932.99C10393.6,4934.93 10392.7,4936.04 10391.6,4936.64C10389,4938.07 10385.2,4936.42 10385.2,4936.42C10384.9,4936.3 10384.5,4936.46 10384.4,4936.78C10384.3,4937.1 10384.5,4937.46 10384.8,4937.58Z" style="fill:rgb(18,12,12);"/>
                        </g>
                        <g transform="matrix(0.953258,0,0,0.457383,10968.5,1211.29)">
                            <path d="M10384.7,4937.77C10384.7,4937.77 10388.1,4938.83 10390.8,4937.77C10392.4,4937.15 10393.9,4935.82 10394.1,4933.01C10394.1,4932.97 10394,4932.94 10394,4932.93C10394,4932.93 10393.9,4932.95 10393.9,4932.99C10393.5,4934.9 10392.6,4935.99 10391.6,4936.56C10388.9,4937.92 10385.3,4936.23 10385.3,4936.23C10384.9,4936.07 10384.4,4936.28 10384.2,4936.71C10384.1,4937.14 10384.3,4937.61 10384.7,4937.77Z" style="fill:rgb(18,12,12);"/>
                        </g>
                        <g transform="matrix(-0.094575,0,0,0.0510759,21557.5,2588.12)">
                            <path d="M7195.17,17312.8C7163.46,17301.4 7323.82,17207.9 7418.07,17207.9C7512.32,17207.9 7650.22,17307.3 7640.97,17312.8C7614.51,17328.5 7495.39,17263.4 7409.63,17263.4C7323.87,17263.4 7202.74,17315.6 7195.17,17312.8Z" style="fill:rgb(18,12,12);"/>
                        </g>
                        <g transform="matrix(-0.953258,0,0,0.457383,30657.2,1212.2)">
                            <path d="M10385.2,4936.42C10385.2,4936.42 10389,4938.07 10391.6,4936.64C10392.7,4936.04 10393.6,4934.93 10393.9,4932.99C10394,4932.96 10394,4932.94 10394,4932.95C10394,4932.95 10394.1,4932.98 10394.1,4933.01C10393.8,4935.77 10392.4,4937.07 10390.8,4937.67C10388.1,4938.66 10384.8,4937.58 10384.8,4937.58C10384.5,4937.46 10384.3,4937.1 10384.4,4936.78C10384.5,4936.46 10384.9,4936.3 10385.2,4936.42Z" style="fill:rgb(18,12,12);"/>
                        </g>
                        <g transform="matrix(-0.953258,0,0,0.457383,30660.1,1211.75)">
                            <path d="M10385.2,4936.42C10385.2,4936.42 10389,4938.07 10391.6,4936.64C10392.7,4936.04 10393.6,4934.93 10393.9,4932.99C10394,4932.96 10394,4932.94 10394,4932.95C10394,4932.95 10394.1,4932.98 10394.1,4933.01C10393.8,4935.77 10392.4,4937.07 10390.8,4937.67C10388.1,4938.66 10384.8,4937.58 10384.8,4937.58C10384.5,4937.46 10384.3,4937.1 10384.4,4936.78C10384.5,4936.46 10384.9,4936.3 10385.2,4936.42Z" style="fill:rgb(18,12,12);"/>
                        </g>
                        <g transform="matrix(-0.953258,0,0,0.457383,30662,1211.29)">
                            <path d="M10385.3,4936.23C10385.3,4936.23 10388.9,4937.92 10391.6,4936.56C10392.6,4935.99 10393.5,4934.9 10393.9,4932.99C10393.9,4932.95 10394,4932.93 10394,4932.93C10394,4932.94 10394.1,4932.97 10394.1,4933.01C10393.9,4935.82 10392.4,4937.15 10390.8,4937.77C10388.1,4938.83 10384.7,4937.77 10384.7,4937.77C10384.3,4937.61 10384.1,4937.14 10384.2,4936.71C10384.4,4936.28 10384.9,4936.07 10385.3,4936.23Z" style="fill:rgb(18,12,12);"/>
                        </g>
                        <g transform="matrix(0.094575,0,0,0.0510759,20072.9,2588.12)">
                            <path d="M7195.17,17312.8C7163.46,17301.4 7323.82,17207.9 7418.07,17207.9C7512.32,17207.9 7650.22,17307.3 7640.97,17312.8C7614.51,17328.5 7495.39,17263.4 7409.63,17263.4C7323.87,17263.4 7202.74,17315.6 7195.17,17312.8Z" style="fill:rgb(18,12,12);"/>
                        </g>
                        <g transform="matrix(0.3511,0,0,0.109624,19798.7,3206.81)">
                            <path d="M2984.99,2658C2984.19,2708.91 2942.6,2750 2891.5,2750C2840.4,2750 2798.81,2708.91 2798.01,2658L2984.99,2658Z" style="fill:rgb(200,125,135);"/>
                        </g>
                        <g transform="matrix(0.275161,0,0,0.0859136,20018.3,3270.83)">
                            <path d="M2984.99,2658C2984.19,2708.91 2942.6,2750 2891.5,2750C2840.4,2750 2798.81,2708.91 2798.01,2658L2984.99,2658Z" style="fill:rgb(243,241,240);"/>
                        </g>
                        <g transform="matrix(0.991376,-0.0436727,0.0935338,0.488805,19703.8,2487.56)">
                            <ellipse cx="833.5" cy="2084" rx="12.5" ry="31" style="fill:rgb(241,198,170);"/>
                        </g>
                        <g transform="matrix(-0.15766,-0.0262002,-0.0546053,0.0756469,20890.1,3279.27)">
                            <path d="M117.422,2617.33C123.261,2600.83 139.009,2589 157.5,2589C175.991,2589 191.739,2600.83 197.578,2617.33C191.739,2608.4 175.991,2602 157.5,2602C139.009,2602 123.261,2608.4 117.422,2617.33Z" style="fill:rgb(222,165,130);"/>
                        </g>
                        <g transform="matrix(-0.14408,-0.0984812,-0.20525,0.0691311,21281.9,3305.73)">
                            <path d="M117.422,2617.33C123.261,2600.83 139.009,2589 157.5,2589C175.991,2589 191.739,2600.83 197.578,2617.33C191.739,2608.4 175.991,2602 157.5,2602C139.009,2602 123.261,2608.4 117.422,2617.33Z" style="fill:rgb(222,165,130);"/>
                        </g>
                        <g transform="matrix(0.988121,0.0582283,-0.124707,0.4872,20340.3,2406.01)">
                            <ellipse cx="833.5" cy="2084" rx="12.5" ry="31" style="fill:rgb(241,198,170);"/>
                        </g>
                        <g transform="matrix(0.15766,-0.0262002,0.0546053,0.0756469,20739.1,3279.31)">
                            <path d="M117.422,2617.33C123.261,2600.83 139.009,2589 157.5,2589C175.991,2589 191.739,2600.83 197.578,2617.33C191.739,2608.4 175.991,2602 157.5,2602C139.009,2602 123.261,2608.4 117.422,2617.33Z" style="fill:rgb(222,165,130);"/>
                        </g>
                        <g transform="matrix(0.14408,-0.0984812,0.20525,0.0691311,20347.3,3305.77)">
                            <path d="M117.422,2617.33C123.261,2600.83 139.009,2589 157.5,2589C175.991,2589 191.739,2600.83 197.578,2617.33C191.739,2608.4 175.991,2602 157.5,2602C139.009,2602 123.261,2608.4 117.422,2617.33Z" style="fill:rgb(222,165,130);"/>
                        </g>
                        <g transform="matrix(1.12353,-0.526762,1.09786,0.539081,2145.38,5467.82)">
                            <path d="M10402,6380C10406.2,6380 10413,6377.33 10418,6376C10422.7,6374.75 10428.7,6374.5 10432,6372C10435.3,6369.5 10436.9,6365.03 10438,6361C10439.2,6356.67 10439.5,6349.5 10439,6346C10438.7,6343.62 10436.9,6341.41 10435,6340C10432,6337.83 10426.2,6333 10421,6333C10414.7,6333 10402,6336.83 10397,6340C10393.2,6342.39 10392.3,6348.17 10391,6352C10389.8,6355.52 10388.7,6359.29 10389,6363C10389.3,6367 10390.8,6373.17 10393,6376C10395,6378.61 10398.7,6380 10402,6380Z" style="fill:rgb(67,45,32);"/>
                            <path d="M10402,6380.59C10403.4,6380.57 10405.2,6380.26 10407,6379.79C10410.6,6378.87 10414.8,6377.35 10418.1,6376.43C10421.3,6375.57 10425,6375.15 10428.1,6374.19C10429.7,6373.72 10431.1,6373.12 10432.2,6372.27C10433.6,6371.22 10434.7,6369.84 10435.5,6368.29C10436.8,6366.06 10437.6,6363.49 10438.2,6361.07C10438.8,6358.98 10439.2,6356.23 10439.3,6353.55C10439.5,6350.64 10439.5,6347.81 10439.2,6345.97C10439,6344.75 10438.5,6343.57 10437.7,6342.52C10437,6341.48 10436.1,6340.57 10435.1,6339.86C10433.2,6338.53 10430.3,6336.18 10427.1,6334.57C10425.1,6333.56 10423,6332.84 10421,6332.84C10417.9,6332.83 10413.1,6333.76 10408.6,6335.09C10403.9,6336.44 10399.4,6338.21 10396.9,6339.81C10395.3,6340.79 10394.2,6342.35 10393.4,6344.11C10392.2,6346.65 10391.5,6349.62 10390.7,6351.91C10390,6354.03 10389.3,6356.23 10388.9,6358.46C10388.7,6359.98 10388.6,6361.51 10388.7,6363.03C10388.9,6365.37 10389.4,6368.44 10390.3,6371.17C10391,6373.18 10391.8,6375.01 10392.7,6376.23C10393.7,6377.61 10395.2,6378.66 10396.9,6379.37C10398.5,6380.06 10400.3,6380.43 10402,6380.44L10402,6380.59ZM10402,6379.57C10400.4,6379.57 10398.7,6379.25 10397.2,6378.61C10395.7,6377.97 10394.3,6377.02 10393.3,6375.77C10392.4,6374.6 10391.6,6372.86 10391,6370.94C10390.1,6368.28 10389.5,6365.27 10389.3,6362.97C10389.2,6361.51 10389.3,6360.03 10389.5,6358.56C10389.9,6356.36 10390.5,6354.18 10391.3,6352.09C10392,6349.81 10392.7,6346.85 10393.8,6344.32C10394.6,6342.63 10395.6,6341.14 10397.1,6340.19C10399.6,6338.59 10404.1,6336.82 10408.7,6335.45C10413.2,6334.11 10417.9,6333.17 10421,6333.16C10423,6333.16 10425,6333.86 10427,6334.85C10430.2,6336.45 10433.1,6338.8 10434.9,6340.14C10435.9,6340.83 10436.7,6341.71 10437.4,6342.72C10438.1,6343.73 10438.6,6344.86 10438.8,6346.03C10439.1,6347.84 10439.1,6350.65 10438.9,6353.53C10438.7,6356.17 10438.3,6358.87 10437.8,6360.93C10437.1,6363.3 10436.3,6365.82 10435,6367.99C10434.2,6369.45 10433.1,6370.75 10431.8,6371.73C10430.7,6372.52 10429.4,6373.06 10427.9,6373.49C10424.8,6374.39 10421,6374.75 10417.9,6375.57C10414.5,6376.43 10410.4,6377.87 10406.8,6378.73C10405,6379.15 10403.4,6379.42 10402,6379.41L10402,6379.57Z" style="fill:rgb(29,20,14);"/>
                        </g>
                        <g transform="matrix(1.12353,-0.526762,1.09786,0.539081,2146.8,5465.1)">
                            <path d="M10393,6368L10405,6370C10405,6370 10419,6369 10421,6365" style="fill:rgb(67,45,32);"/>
                            <path d="M10405,6369.81C10405.4,6369.79 10410.7,6369.46 10415.1,6368.26C10417.9,6367.53 10420.2,6366.47 10421,6365C10420.4,6366.18 10418.8,6367.11 10416.8,6367.83C10414.6,6368.62 10412,6369.17 10409.8,6369.54C10407.1,6369.99 10405,6370.19 10405,6370.19C10405,6370.19 10405,6370.19 10405,6370.18C10405,6370.18 10402,6369.76 10398.9,6369.36C10395.9,6368.96 10392.9,6368.58 10392.9,6368.58C10392.6,6368.53 10392.4,6368.22 10392.4,6367.9C10392.5,6367.58 10392.8,6367.37 10393.1,6367.42C10393.1,6367.42 10396.1,6368.04 10399.1,6368.64C10401.9,6369.21 10404.8,6369.76 10405,6369.81Z" style="fill:rgb(29,20,14);"/>
                        </g>
                        <g transform="matrix(1.12353,-0.526762,1.09786,0.539081,2145.38,5467.82)">
                            <path d="M10384,6347C10384,6347 10385.7,6336.5 10389,6333C10392.3,6329.5 10399,6327 10404,6326C10408.9,6325.02 10414.3,6325.83 10419,6327C10423.6,6328.16 10429.3,6331 10432,6333C10433.8,6334.34 10434.3,6337.67 10435,6339C10435.3,6339.67 10436.7,6341.11 10436,6341C10434.8,6340.83 10430.8,6338.53 10428,6338C10424.5,6337.33 10419.2,6336 10415,6337C10410.8,6338 10406.2,6341.33 10403,6344C10400.1,6346.45 10397.8,6350.83 10396,6353C10394.8,6354.44 10392,6357 10392,6357L10384,6347Z" style="fill:rgb(67,45,32);"/>
                            <path d="M10383.5,6346.85C10383.5,6346.98 10383.5,6347.13 10383.6,6347.26C10383.7,6347.27 10391.7,6357.23 10391.7,6357.23C10391.8,6357.31 10391.9,6357.36 10392,6357.36C10392.1,6357.37 10392.2,6357.34 10392.2,6357.27C10392.2,6357.27 10393.5,6356.1 10394.7,6354.9C10395.3,6354.3 10395.9,6353.7 10396.3,6353.22C10397.6,6351.66 10399.1,6348.98 10400.9,6346.68C10401.6,6345.76 10402.4,6344.91 10403.2,6344.22C10405.1,6342.63 10407.5,6340.8 10410,6339.36C10411.7,6338.4 10413.4,6337.62 10415.1,6337.22C10416.7,6336.83 10418.4,6336.79 10420.2,6336.92C10423,6337.13 10425.8,6337.78 10428,6338.18C10428.7,6338.32 10429.5,6338.59 10430.4,6338.91C10432.7,6339.78 10435.1,6341.04 10436,6341.16C10436.2,6341.19 10436.3,6341.13 10436.3,6341.06C10436.4,6340.98 10436.4,6340.81 10436.3,6340.6C10436.1,6340.16 10435.4,6339.37 10435.1,6338.93C10434.7,6337.98 10434.3,6336.03 10433.4,6334.49C10433.1,6333.85 10432.6,6333.27 10432.1,6332.87C10430.7,6331.79 10428.4,6330.47 10425.8,6329.3C10423.6,6328.27 10421.2,6327.35 10419.1,6326.8C10416.7,6326.19 10414.1,6325.68 10411.6,6325.44C10409,6325.2 10406.4,6325.23 10403.9,6325.7C10401,6326.27 10397.4,6327.36 10394.3,6328.86C10392.1,6329.94 10390.1,6331.23 10388.7,6332.69C10387.5,6333.9 10386.5,6335.94 10385.7,6338.1C10384.2,6342.26 10383.4,6346.91 10383.4,6346.91L10383.5,6346.85ZM10436,6340.84C10436,6340.75 10435.9,6340.56 10435.8,6340.4C10435.5,6339.96 10435,6339.41 10434.9,6339.07C10434.4,6338.24 10434.1,6336.66 10433.4,6335.24C10433.1,6334.4 10432.6,6333.62 10431.9,6333.13C10430.5,6332.07 10428.2,6330.77 10425.7,6329.62C10423.5,6328.62 10421.1,6327.73 10418.9,6327.2C10416.6,6326.63 10414.1,6326.15 10411.5,6325.94C10409,6325.74 10406.5,6325.8 10404.1,6326.3C10401.2,6326.9 10397.7,6328.02 10394.7,6329.55C10392.6,6330.61 10390.7,6331.88 10389.3,6333.31C10388.2,6334.46 10387.4,6336.39 10386.7,6338.43C10385.3,6342.28 10384.7,6346.54 10384.6,6347.04L10392,6356.46C10392.5,6356.06 10393.4,6355.24 10394.2,6354.4C10394.8,6353.83 10395.3,6353.25 10395.7,6352.78C10397.1,6351.25 10398.6,6348.59 10400.4,6346.31C10401.2,6345.37 10402,6344.49 10402.8,6343.78C10404.7,6342.19 10407.2,6340.36 10409.7,6338.94C10411.5,6337.97 10413.2,6337.18 10414.9,6336.78C10416.6,6336.39 10418.4,6336.36 10420.2,6336.51C10423.1,6336.74 10425.9,6337.41 10428,6337.82C10428.8,6337.97 10429.7,6338.25 10430.5,6338.58C10432.8,6339.45 10435.2,6340.72 10436,6340.84L10436,6340.84Z" style="fill:rgb(29,20,14);"/>
                        </g>
                        <g transform="matrix(0.687647,0,0,0.32994,20331.6,2791.67)">
                            <path d="M580.867,2017.63C580.867,2017.63 617.873,1961.66 632.373,1955.33C646.228,1949.28 675.846,1962.36 694.185,1962.51C695.038,1962.52 695.888,1962.5 696.733,1962.47C716.4,1961.63 753.566,1946.97 766.733,1953.47C779.9,1959.97 824.391,2024 824.391,2024C824.391,2024 823.387,1970.93 802,1935C787.048,1909.88 769.993,1895.75 745.16,1888.08C720.326,1880.41 689.246,1877.31 667.079,1885.48C648.935,1892.16 616.585,1915.62 606,1931.8C585.753,1962.75 580.867,2017.63 580.867,2017.63Z" style="fill:rgb(67,45,32);stroke:rgb(29,20,14);stroke-width:1.72px;"/>
                        </g>
                        <g transform="matrix(1.04072,0,0,0.499347,6574.03,614.549)">
                            <path d="M13612,5679C13612,5679 13620,5643 13643,5627" style="fill:rgb(67,45,32);"/>
                            <path d="M13612,5679.01C13612,5679.01 13615.3,5664.88 13623.4,5650.46C13628.2,5641.94 13634.8,5633.31 13643.3,5627.47C13643.6,5627.29 13643.6,5626.93 13643.5,5626.68C13643.3,5626.42 13642.9,5626.36 13642.7,5626.53C13635.9,5631.37 13630.4,5637.95 13626,5644.82C13615.8,5661.09 13612,5678.99 13612,5678.99C13612,5679.01 13612,5679.02 13612,5679.03C13612,5679.03 13612,5679.02 13612,5679.01Z" style="fill:rgb(29,20,14);"/>
                        </g>
                        <g transform="matrix(1.04072,0,0,0.499347,6574.03,614.549)">
                            <path d="M13683,5608C13683,5608 13688,5640 13682,5656" style="fill:rgb(67,45,32);"/>
                            <path d="M13683,5608C13683,5608 13685.1,5622.57 13684.6,5636.94C13684.3,5643.82 13683.5,5650.66 13681.5,5655.8C13681.4,5656.09 13681.5,5656.42 13681.8,5656.53C13682.1,5656.64 13682.4,5656.49 13682.5,5656.2C13684.4,5650.93 13685.2,5643.96 13685.3,5636.95C13685.5,5622.54 13683,5608 13683,5608C13683,5607.98 13683,5607.97 13683,5607.97C13683,5607.98 13683,5607.99 13683,5608Z" style="fill:rgb(29,20,14);"/>
                        </g>
                        <g transform="matrix(1.04072,0,0,0.499347,6574.03,614.549)">
                            <path d="M13730,5624C13730,5624 13760,5652 13756,5685" style="fill:rgb(67,45,32);"/>
                            <path d="M13730,5624.02C13730,5624.02 13741.9,5635.28 13749.5,5651.89C13754,5661.49 13757,5672.89 13755.4,5684.93C13755.4,5685.24 13755.6,5685.53 13755.9,5685.56C13756.2,5685.6 13756.5,5685.38 13756.6,5685.07C13757.9,5672.83 13754.7,5661.31 13750.1,5651.63C13742.1,5635.1 13730,5623.98 13730,5623.98C13730,5623.97 13730,5623.97 13730,5623.98C13730,5623.99 13730,5624.01 13730,5624.02Z" style="fill:rgb(29,20,14);"/>
                        </g>
                        <g transform="matrix(1.04072,0,0,0.499347,6548.01,598.57)">
                            <path d="M13766,5690C13766,5690 13753,5653 13737,5644" style="fill:rgb(67,45,32);"/>
                            <path d="M13766,5689.99C13766,5689.99 13760.5,5673.65 13752.1,5659.96C13747.8,5652.94 13742.7,5646.62 13737.3,5643.51C13737,5643.35 13736.7,5643.45 13736.5,5643.72C13736.4,5643.99 13736.4,5644.34 13736.7,5644.49C13742.1,5647.44 13747.1,5653.55 13751.5,5660.33C13760.1,5673.82 13766,5690.01 13766,5690.01C13766,5690.02 13766,5690.03 13766,5690.03C13766,5690.02 13766,5690.01 13766,5689.99Z" style="fill:rgb(29,20,14);"/>
                        </g>
                        <g transform="matrix(1.04072,0,0,0.499347,6574.03,614.549)">
                            <path d="M13647,5645C13647,5645 13654,5612 13666,5605" style="fill:rgb(67,45,32);"/>
                            <path d="M13647,5645.01C13647,5645.01 13650.2,5631.05 13655.7,5619.43C13658.6,5613.32 13662.1,5607.84 13666.3,5605.49C13666.6,5605.33 13666.6,5604.98 13666.5,5604.71C13666.3,5604.44 13666,5604.35 13665.7,5604.51C13661.5,5607.04 13657.9,5612.75 13655,5619.14C13649.8,5630.92 13647,5644.99 13647,5644.99C13647,5645.01 13647,5645.02 13647,5645.03C13647,5645.03 13647,5645.02 13647,5645.01Z" style="fill:rgb(29,20,14);"/>
                        </g>
                        <g transform="matrix(1.04072,0,0,0.499347,6574.03,614.549)">
                            <path d="M13707,5637C13707,5637 13703,5622 13700,5615" style="fill:rgb(67,45,32);"/>
                            <path d="M13707,5636.99C13707,5636.99 13705.4,5630.2 13703.4,5623.59C13702.5,5620.33 13701.5,5617.12 13700.5,5614.78C13700.4,5614.49 13700.1,5614.36 13699.8,5614.48C13699.5,5614.6 13699.4,5614.94 13699.5,5615.22C13700.5,5617.49 13701.7,5620.62 13702.8,5623.8C13705,5630.31 13707,5637.01 13707,5637.01C13707,5637.02 13707,5637.03 13707,5637.03C13707,5637.02 13707,5637.01 13707,5636.99Z" style="fill:rgb(29,20,14);"/>
                        </g>
                        <g transform="matrix(0.553856,-0.0541131,0.11278,0.265746,16266.2,2752.96)">
                            <path d="M7233,4153C7233,4153 7255.5,4139.27 7266.5,4139.27C7277.5,4139.27 7288.71,4143.84 7299.5,4147.27C7310.5,4150.77 7328.68,4159.94 7328.68,4159.94C7328.68,4159.94 7338.51,4162.98 7340,4160C7341.5,4157 7344.36,4150.19 7341,4148C7334.33,4143.67 7312.17,4137 7300,4134C7289.56,4131.43 7278.34,4127.07 7268,4130C7256.83,4133.17 7233,4153 7233,4153Z" style="fill:rgb(67,45,32);"/>
                        </g>
                        <g transform="matrix(-0.553856,-0.0541131,-0.11278,0.265746,25360.5,2752.96)">
                            <path d="M7233,4153C7233,4153 7255.5,4139.27 7266.5,4139.27C7277.5,4139.27 7288.71,4143.84 7299.5,4147.27C7310.5,4150.77 7328.68,4159.94 7328.68,4159.94C7328.68,4159.94 7338.51,4162.98 7340,4160C7341.5,4157 7344.36,4150.19 7341,4148C7334.33,4143.67 7312.17,4137 7300,4134C7289.56,4131.43 7278.34,4127.07 7268,4130C7256.83,4133.17 7233,4153 7233,4153Z" style="fill:rgb(67,45,32);"/>
                        </g>
                        <g transform="matrix(1.48122,0.0685515,-0.146779,0.730137,-9025.93,-671.663)">
                            <ellipse cx="20487.5" cy="3752" rx="21.5" ry="20" style="fill:none;stroke:rgb(62,17,16);stroke-width:1.04px;"/>
                        </g>
                        <g transform="matrix(2.39981,-0.0331531,0.0501915,0.836415,-1871.18,501.099)">
                            <path d="M9366.02,3920.18C9366.02,3920.18 9368.79,3918.59 9371.65,3918.79C9373.43,3918.92 9375.23,3920.24 9376.43,3921.57C9376.89,3919.37 9377.4,3917.84 9377.4,3917.84C9377.4,3917.84 9375.2,3914.5 9371.63,3914.39C9368.15,3914.29 9365.41,3916.98 9365.41,3916.98L9366.02,3920.18Z" style="fill:rgb(62,17,16);"/>
                        </g>
                        <g transform="matrix(1.48122,0.0685515,-0.146779,0.730137,-8936.37,-671.663)">
                            <ellipse cx="20487.5" cy="3752" rx="21.5" ry="20" style="fill:none;stroke:rgb(62,17,16);stroke-width:1.04px;"/>
                        </g>
                    </g>
                </g>
            </g>
        </g>
    </g>
</svg>
