<?xml version="1.0" encoding="UTF-8" standalone="no"?>
<!DOCTYPE svg PUBLIC "-//W3C//DTD SVG 1.1//EN" "http://www.w3.org/Graphics/SVG/1.1/DTD/svg11.dtd">
<svg width="100%" height="100%" viewBox="0 0 302 386" version="1.1" xmlns="http://www.w3.org/2000/svg" xmlns:xlink="http://www.w3.org/1999/xlink" xml:space="preserve" xmlns:serif="http://www.serif.com/" style="fill-rule:evenodd;clip-rule:evenodd;stroke-linecap:round;stroke-linejoin:round;stroke-miterlimit:1.5;">
    <g transform="matrix(1,0,0,1,-13230,-2436)">
        <g id="Plan-de-travail8" serif:id="Plan de travail8" transform="matrix(0.801061,0,0,1.00783,6499.49,-611.687)">
            <rect x="8402" y="3024" width="377" height="383" style="fill:none;"/>
            <clipPath id="_clip1">
                <rect x="8402" y="3024" width="377" height="383"/>
            </clipPath>
            <g clip-path="url(#_clip1)">
                <g transform="matrix(1.75278,0,0,1.39317,-31873,-1470.43)">
                    <g transform="matrix(0.73976,0,0,0.689856,22365.3,1926.66)">
                        <ellipse cx="972.5" cy="2107" rx="117.5" ry="174" style="fill:rgb(241,198,170);"/>
                    </g>
                    <g transform="matrix(0.966825,0,0,0.92891,1511.69,-439.248)">
                        <path d="M22353.9,4015.62C22354.8,4019.79 22350.6,4022.99 22350.9,4029.16C22351,4031.56 22361.1,4047 22361.1,4047C22361.1,4047 22355.8,4029.18 22355.9,4026.16C22356.1,4021.66 22357.8,4018.5 22359,4020C22360.2,4021.5 22362.7,4039.5 22366,4047C22369,4053.76 22375.3,4059.83 22379,4065C22382,4069.3 22385.2,4073.51 22388,4078C22391.2,4083.17 22396.4,4089.32 22398,4096C22399.7,4103.17 22397,4115.5 22398,4121C22398.6,4124.28 22401.7,4131.43 22404,4129C22406.7,4126.17 22411.9,4112.72 22414,4104C22416.2,4095.17 22416.7,4085.38 22417,4076C22417.3,4065.5 22417.2,4056.55 22416,4046.38C22415,4037.55 22412.8,4027.88 22410,4020.38C22407.4,4013.54 22402.5,4006.88 22399,4001.38C22395.9,3996.54 22393.3,3991.23 22389,3987.38C22386.3,3984.98 22379,3978.26 22372.2,3976.12C22365.8,3974.12 22360,3971.28 22359,3970C22356.2,3966.33 22357.2,3960.62 22352.1,3957.23C22346.1,3953.23 22334.3,3950.82 22325.1,3949.23C22314.4,3947.4 22296.9,3945.06 22288.1,3946.23C22281.8,3947.05 22275.9,3951.39 22271,3955.39C22266.2,3959.39 22258,3971.31 22258,3971.31C22258,3971.31 22270.8,3961.83 22274,3962C22277.2,3962.17 22284,3967 22284,3967C22284,3967 22277.2,3965.98 22274,3967C22269.8,3968.33 22263.9,3972.09 22259,3975C22251.5,3979.5 22240.3,3990.51 22233.1,3997.68C22226.7,4004.11 22219.4,4016.23 22217.2,4021.23C22216.4,4023.07 22213.1,4030.89 22212.1,4032.61C22210.4,4035.45 22213.1,4046.15 22213.1,4046.15C22213.1,4046.15 22214.7,4035.18 22216.7,4032.85C22218.7,4030.51 22221,4030 22221,4030C22221,4030 22216.8,4041.15 22216,4047C22215.2,4053 22215.7,4059.67 22216,4066C22216.3,4074 22217.3,4088 22218,4095C22218.4,4099.36 22218.5,4103.89 22220,4108C22221.7,4112.5 22226,4123.5 22228,4122C22230,4120.5 22230,4106.52 22232,4099C22234.5,4089.67 22239.8,4075 22243,4066C22245.5,4058.93 22246.3,4050.86 22251,4045C22256.8,4037.67 22269.7,4027.83 22278,4022C22285.1,4017.04 22292.5,4011.63 22301,4010C22309.7,4008.33 22322,4011 22330,4012C22336.4,4012.8 22344.7,4016.33 22349,4016C22352.1,4015.76 22353.3,4012.61 22353.9,4015.62Z" style="fill:rgb(71,34,12);"/>
                    </g>
                    <g transform="matrix(-2.17804,-0.178216,-0.178216,2.17804,23452.7,3191.94)">
                        <path d="M170.187,87.72C168.992,87.587 167.353,87.886 167.187,86.72C167.02,85.553 167.424,84.86 169,84C170.833,83 175.167,82.5 178,83C180.833,83.5 186.324,85.264 188.824,86.764C191.283,88.239 193,92 193,92C193,92 188.98,88.226 186.973,87.939C184.64,87.606 178.52,86.72 176.187,86.72C174.159,86.72 171.687,87.886 170.187,87.72Z" style="fill:rgb(71,34,12);"/>
                    </g>
                    <g transform="matrix(2.17804,-0.178216,0.178216,2.17804,22719.5,3191.94)">
                        <path d="M170.187,87.72C168.992,87.587 167.353,87.886 167.187,86.72C167.02,85.553 167.424,84.86 169,84C170.833,83 175.167,82.5 178,83C180.833,83.5 186.324,85.264 188.824,86.764C191.283,88.239 193,92 193,92C193,92 188.98,88.226 186.973,87.939C184.64,87.606 178.52,86.72 176.187,86.72C174.159,86.72 171.687,87.886 170.187,87.72Z" style="fill:rgb(71,34,12);"/>
                    </g>
                    <g transform="matrix(0.382211,0,0,0.263953,21980.9,2730.33)">
                        <path d="M2984.99,2658C2984.19,2708.91 2942.6,2750 2891.5,2750C2840.4,2750 2798.81,2708.91 2798.01,2658L2984.99,2658Z" style="fill:rgb(195,136,111);"/>
                    </g>
                    <g transform="matrix(0.299543,0,0,0.206863,22219.9,2884.49)">
                        <path d="M2984.99,2658C2984.19,2708.91 2942.6,2750 2891.5,2750C2840.4,2750 2798.81,2708.91 2798.01,2658L2984.99,2658Z" style="fill:rgb(243,241,240);"/>
                    </g>
                    <g transform="matrix(1.08677,-0.0997795,0.102534,1.11678,21872.1,1135.85)">
                        <ellipse cx="833.5" cy="2084" rx="12.5" ry="31" style="fill:rgb(241,198,170);"/>
                    </g>
                    <g transform="matrix(-0.172831,-0.0598598,-0.0598598,0.172831,23172.5,2944.67)">
                        <path d="M117.422,2617.33C123.261,2600.83 139.009,2589 157.5,2589C175.991,2589 191.739,2600.83 197.578,2617.33C191.739,2608.4 175.991,2602 157.5,2602C139.009,2602 123.261,2608.4 117.422,2617.33Z" style="fill:rgb(222,165,130);"/>
                    </g>
                    <g transform="matrix(-0.157944,-0.225001,-0.225001,0.157944,23602,3005.13)">
                        <path d="M117.422,2617.33C123.261,2600.83 139.009,2589 157.5,2589C175.991,2589 191.739,2600.83 197.578,2617.33C191.739,2608.4 175.991,2602 157.5,2602C139.009,2602 123.261,2608.4 117.422,2617.33Z" style="fill:rgb(222,165,130);"/>
                    </g>
                    <g transform="matrix(-0.0954707,0,0,0.107458,23832.8,1513.52)">
                        <path d="M7195.17,17312.8C7163.46,17301.4 7323.82,17207.9 7418.07,17207.9C7512.32,17207.9 7650.22,17307.3 7640.97,17312.8C7614.51,17328.5 7495.39,17262.7 7409.63,17262.7C7323.87,17262.7 7202.74,17315.6 7195.17,17312.8Z" style="fill:rgb(109,81,64);"/>
                    </g>
                    <g transform="matrix(0.0954707,0,0,0.107458,22338.4,1512.31)">
                        <path d="M7195.17,17312.8C7163.46,17301.4 7323.82,17207.9 7418.07,17207.9C7512.32,17207.9 7650.22,17307.3 7640.97,17312.8C7614.51,17328.5 7495.39,17262.7 7409.63,17262.7C7323.87,17262.7 7202.74,17315.6 7195.17,17312.8Z" style="fill:rgb(109,81,64);"/>
                    </g>
                    <g transform="matrix(0.728756,0,0,0.587525,22163.9,1871.65)">
                        <path d="M1264.52,2634.56C1264.68,2634.51 1264.86,2634.48 1265.03,2634.46C1271.7,2633.83 1277.76,2631.78 1280.71,2630.16C1287.76,2626.28 1307.12,2640.06 1310.14,2643.35C1313.49,2646.98 1324.49,2658.92 1324.49,2658.92C1324.49,2658.92 1311.21,2651.23 1303.91,2649.09C1296.02,2646.77 1283.59,2645.26 1277.11,2644.99C1273,2644.83 1269.13,2647.67 1265.02,2647.5C1264.85,2647.49 1264.68,2647.47 1264.52,2647.42C1264.36,2647.47 1264.19,2647.49 1264.02,2647.5C1259.9,2647.67 1256.04,2644.83 1251.93,2644.99C1245.44,2645.26 1233.02,2646.77 1225.12,2649.09C1217.83,2651.23 1204.55,2658.92 1204.55,2658.92C1204.55,2658.92 1215.55,2646.98 1218.89,2643.35C1221.92,2640.06 1241.27,2626.28 1248.33,2630.16C1251.28,2631.78 1257.33,2633.83 1264,2634.46C1264.18,2634.48 1264.35,2634.51 1264.52,2634.56Z" style="fill:rgb(71,34,12);"/>
                    </g>
                    <g transform="matrix(0.695093,0,0,0.621293,22205.4,1760.96)">
                        <path d="M1265.26,2775.43C1297.73,2775.79 1356.34,2705.86 1361.81,2701.34C1366.43,2697.52 1388.06,2643.6 1388.06,2643.6C1388.06,2643.6 1382.37,2685.89 1376.18,2700.98C1373.56,2707.38 1349.96,2750.6 1342.2,2760.4C1333.77,2771.05 1320.71,2780.6 1310.94,2787.69C1302.98,2793.46 1293.17,2796.68 1283.52,2798.56C1278.31,2799.58 1272.02,2800.19 1265.73,2800.44C1265.58,2800.44 1265.44,2800.41 1265.31,2800.35C1265.17,2800.41 1265.03,2800.44 1264.89,2800.44C1258.6,2800.19 1252.31,2799.58 1247.1,2798.56C1237.45,2796.68 1227.64,2793.46 1219.68,2787.69C1209.9,2780.6 1196.85,2771.05 1188.42,2760.4C1180.66,2750.6 1159.85,2710.5 1157.31,2704.06C1152.57,2692.05 1143.34,2642.06 1143.34,2642.06C1143.34,2642.06 1166.55,2691.52 1170.8,2696.29C1172.77,2698.51 1223.04,2774.97 1265.26,2775.43Z" style="fill:rgb(71,34,12);"/>
                    </g>
                    <g transform="matrix(1.08321,0.133035,-0.136708,1.11311,22560.4,947.44)">
                        <ellipse cx="833.5" cy="2084" rx="12.5" ry="31" style="fill:rgb(241,198,170);"/>
                    </g>
                    <g transform="matrix(0.172831,-0.0598598,0.0598598,0.172831,22997.6,2942.67)">
                        <path d="M117.422,2617.33C123.261,2600.83 139.009,2589 157.5,2589C175.991,2589 191.739,2600.83 197.578,2617.33C191.739,2608.4 175.991,2602 157.5,2602C139.009,2602 123.261,2608.4 117.422,2617.33Z" style="fill:rgb(222,165,130);"/>
                    </g>
                    <g transform="matrix(0.157944,-0.225001,0.225001,0.157944,22568.2,3003.13)">
                        <path d="M117.422,2617.33C123.261,2600.83 139.009,2589 157.5,2589C175.991,2589 191.739,2600.83 197.578,2617.33C191.739,2608.4 175.991,2602 157.5,2602C139.009,2602 123.261,2608.4 117.422,2617.33Z" style="fill:rgb(222,165,130);"/>
                    </g>
                    <g transform="matrix(1.04712,-0.0175146,0.0175146,1.04712,13552.1,-519.616)">
                        <g transform="matrix(1.22618,-0.0353047,0.0353047,1.22618,-2590.15,-616.749)">
                            <path d="M9314,3912C9312.17,3916 9313.33,3927.33 9316,3932C9318.67,3936.67 9324.76,3938.8 9330,3940C9335.83,3941.33 9346.17,3941 9351,3940C9354.26,3939.33 9357.06,3936.71 9359,3934C9361.5,3930.5 9366.17,3922.67 9366,3919C9365.84,3915.46 9361.41,3912.96 9358,3912C9351.5,3910.17 9334.33,3908 9327,3908C9322.47,3908 9315.83,3908 9314,3912Z" style="fill:none;stroke:rgb(37,27,21);stroke-width:0.83px;"/>
                        </g>
                        <g transform="matrix(-1.22352,-0.0881596,-0.0881596,1.22352,20855.7,-111.164)">
                            <path d="M9314,3912C9312.17,3916 9313.33,3927.33 9316,3932C9318.67,3936.67 9324.76,3938.8 9330,3940C9335.83,3941.33 9346.17,3941 9351,3940C9354.26,3939.33 9357.06,3936.71 9359,3934C9361.5,3930.5 9366.17,3922.67 9366,3919C9365.84,3915.46 9361.41,3912.96 9358,3912C9351.5,3910.17 9334.33,3908 9327,3908C9322.47,3908 9315.83,3908 9314,3912Z" style="fill:none;stroke:rgb(37,27,21);stroke-width:0.83px;"/>
                        </g>
                        <g transform="matrix(1.68803,-0.0486023,0.0353047,1.22618,-6915.78,-492.204)">
                            <path d="M9366,3921C9366,3921 9373.28,3918.93 9376.42,3922.39C9376.88,3920.18 9376.81,3917.82 9376.81,3917.82C9376.81,3917.82 9372.8,3916 9371,3916C9369.3,3916 9366,3917 9366,3917L9366,3921Z" style="fill:rgb(47,35,28);"/>
                        </g>
                    </g>
                </g>
            </g>
        </g>
    </g>
</svg>
