<?xml version="1.0" encoding="UTF-8" standalone="no"?>
<!DOCTYPE svg PUBLIC "-//W3C//DTD SVG 1.1//EN" "http://www.w3.org/Graphics/SVG/1.1/DTD/svg11.dtd">
<svg width="100%" height="100%" viewBox="0 0 384 385" version="1.1" xmlns="http://www.w3.org/2000/svg" xmlns:xlink="http://www.w3.org/1999/xlink" xml:space="preserve" xmlns:serif="http://www.serif.com/" style="fill-rule:evenodd;clip-rule:evenodd;stroke-linejoin:round;stroke-miterlimit:2;">
    <g transform="matrix(1,0,0,1,-16835,-2419)">
        <g id="Plan-de-travail8" serif:id="Plan de travail8" transform="matrix(1.01857,0,0,1.00522,8276.99,-620.791)">
            <rect x="8402" y="3024" width="377" height="383" style="fill:none;"/>
            <g transform="matrix(2.14658,0,0,7.80155,-23271.7,-60985.1)">
                <g transform="matrix(1.40936,0,0,0.273683,-25707.7,7323.45)">
                    <g transform="matrix(0.437558,0,0,0.516934,28346,2219.5)">
                        <path d="M965.449,1954.58C1030.3,1954.58 1082.21,2012.39 1082.21,2108.43C1082.21,2127.81 1075.59,2195.43 1071.91,2205.01C1053.76,2252.41 1007.57,2281.11 979.797,2281.11C954.419,2281.11 909.007,2254.95 893.241,2211.77C888.856,2199.76 873.185,2126.09 873.185,2107C873.185,2010.97 900.599,1954.58 965.449,1954.58Z" style="fill:rgb(241,198,170);"/>
                    </g>
                    <g transform="matrix(0.532158,0,0,0.764026,23279.8,-456.71)">
                        <path d="M10384.8,4937.43C10384.8,4937.43 10388.1,4938.53 10390.8,4937.58C10392.4,4937.02 10393.7,4935.73 10394,4933.01C10394,4932.98 10394,4932.97 10394,4932.96C10394,4932.96 10394,4932.97 10394,4932.99C10393.6,4934.95 10392.7,4936.09 10391.6,4936.7C10389,4938.19 10385.2,4936.57 10385.2,4936.57C10384.9,4936.48 10384.7,4936.6 10384.6,4936.84C10384.5,4937.08 10384.6,4937.34 10384.8,4937.43Z" style="fill:rgb(18,12,12);"/>
                    </g>
                    <g transform="matrix(0.532158,0,0,0.764026,23278.3,-457.474)">
                        <path d="M10384.8,4937.43C10384.8,4937.43 10388.1,4938.53 10390.8,4937.58C10392.4,4937.02 10393.7,4935.73 10394,4933.01C10394,4932.98 10394,4932.97 10394,4932.96C10394,4932.96 10394,4932.97 10394,4932.99C10393.6,4934.95 10392.7,4936.09 10391.6,4936.7C10389,4938.19 10385.2,4936.57 10385.2,4936.57C10384.9,4936.48 10384.7,4936.6 10384.6,4936.84C10384.5,4937.08 10384.6,4937.34 10384.8,4937.43Z" style="fill:rgb(18,12,12);"/>
                    </g>
                    <g transform="matrix(0.532158,0,0,0.764026,23277.2,-458.238)">
                        <path d="M10384.8,4937.57C10384.8,4937.57 10388.1,4938.66 10390.8,4937.66C10392.4,4937.07 10393.8,4935.77 10394.1,4933.01C10394.1,4932.98 10394,4932.95 10394,4932.95C10394,4932.94 10394,4932.97 10393.9,4932.99C10393.6,4934.93 10392.7,4936.04 10391.6,4936.64C10389,4938.07 10385.2,4936.43 10385.2,4936.43C10384.9,4936.31 10384.5,4936.47 10384.4,4936.79C10384.3,4937.1 10384.5,4937.45 10384.8,4937.57Z" style="fill:rgb(18,12,12);"/>
                    </g>
                    <g transform="matrix(-0.0527967,0,0,0.0853188,29188.6,1841.66)">
                        <path d="M7195.17,17312.8C7163.46,17301.4 7323.82,17207.9 7418.07,17207.9C7512.32,17207.9 7650.22,17307.3 7640.97,17312.8C7614.51,17328.5 7495.39,17254.4 7409.63,17254.4C7323.87,17254.4 7202.74,17315.6 7195.17,17312.8Z" style="fill:rgb(18,12,12);"/>
                    </g>
                    <g transform="matrix(-0.532158,0,0,0.764026,34271.1,-456.71)">
                        <path d="M10385.2,4936.57C10385.2,4936.57 10389,4938.19 10391.6,4936.7C10392.7,4936.09 10393.6,4934.95 10394,4932.99C10394,4932.97 10394,4932.96 10394,4932.96C10394,4932.97 10394,4932.98 10394,4933.01C10393.7,4935.73 10392.4,4937.02 10390.8,4937.58C10388.1,4938.53 10384.8,4937.43 10384.8,4937.43C10384.6,4937.34 10384.5,4937.08 10384.6,4936.84C10384.7,4936.6 10384.9,4936.48 10385.2,4936.57Z" style="fill:rgb(18,12,12);"/>
                    </g>
                    <g transform="matrix(-0.532158,0,0,0.764026,34272.7,-457.474)">
                        <path d="M10385.2,4936.57C10385.2,4936.57 10389,4938.19 10391.6,4936.7C10392.7,4936.09 10393.6,4934.95 10394,4932.99C10394,4932.97 10394,4932.96 10394,4932.96C10394,4932.97 10394,4932.98 10394,4933.01C10393.7,4935.73 10392.4,4937.02 10390.8,4937.58C10388.1,4938.53 10384.8,4937.43 10384.8,4937.43C10384.6,4937.34 10384.5,4937.08 10384.6,4936.84C10384.7,4936.6 10384.9,4936.48 10385.2,4936.57Z" style="fill:rgb(18,12,12);"/>
                    </g>
                    <g transform="matrix(-0.532158,0,0,0.764026,34273.8,-458.238)">
                        <path d="M10385.2,4936.43C10385.2,4936.43 10389,4938.07 10391.6,4936.64C10392.7,4936.04 10393.6,4934.93 10393.9,4932.99C10394,4932.97 10394,4932.94 10394,4932.95C10394,4932.95 10394.1,4932.98 10394.1,4933.01C10393.8,4935.77 10392.4,4937.07 10390.8,4937.66C10388.1,4938.66 10384.8,4937.57 10384.8,4937.57C10384.5,4937.45 10384.3,4937.1 10384.4,4936.79C10384.5,4936.47 10384.9,4936.31 10385.2,4936.43Z" style="fill:rgb(18,12,12);"/>
                    </g>
                    <g transform="matrix(0.0527967,0,0,0.0853188,28362.4,1841.66)">
                        <path d="M7195.17,17312.8C7163.46,17301.4 7323.82,17207.9 7418.07,17207.9C7512.32,17207.9 7650.22,17307.3 7640.97,17312.8C7614.51,17328.5 7495.39,17254.4 7409.63,17254.4C7323.87,17254.4 7202.74,17315.6 7195.17,17312.8Z" style="fill:rgb(18,12,12);"/>
                    </g>
                    <g transform="matrix(0.210233,0,0,0.169692,28167.4,2907.77)">
                        <path d="M2984.99,2658C2984.19,2708.91 2942.6,2750 2891.5,2750C2840.4,2750 2798.81,2708.91 2798.01,2658L2984.99,2658Z" style="fill:rgb(193,150,124);"/>
                    </g>
                    <g transform="matrix(0.164762,0,0,0.132989,28298.9,3006.88)">
                        <path d="M2984.99,2658C2984.19,2708.91 2942.6,2750 2891.5,2750C2840.4,2750 2798.81,2708.91 2798.01,2658L2984.99,2658Z" style="fill:rgb(243,241,240);"/>
                    </g>
                    <g transform="matrix(0.331179,-0.0233564,0.0162682,0.475479,19939.2,2143.14)">
                        <path d="M26389,3744C26389,3744 26404.4,3726.6 26415,3725C26427.2,3723.17 26452.3,3730.5 26462,3733C26466.2,3734.09 26471.3,3737.17 26473,3740C26474.7,3742.83 26474,3741.58 26472.2,3743.58C26470.3,3745.58 26465.5,3746.11 26462.2,3745.58C26456.8,3744.75 26447.5,3740.87 26440.2,3738.58C26432.7,3736.25 26425.2,3734.95 26417.2,3734.79C26408.7,3734.63 26389,3744 26389,3744Z" style="fill:rgb(95,55,34);"/>
                    </g>
                    <g transform="matrix(-0.331179,-0.0233564,-0.0162682,0.475479,37610.7,2143.14)">
                        <path d="M26389,3744C26389,3744 26404.4,3726.6 26415,3725C26427.2,3723.17 26452.3,3730.5 26462,3733C26466.2,3734.09 26471.3,3737.17 26473,3740C26474.7,3742.83 26474,3741.58 26472.2,3743.58C26470.3,3745.58 26465.5,3746.11 26462.2,3745.58C26456.8,3744.75 26447.5,3740.87 26440.2,3738.58C26432.7,3736.25 26425.2,3734.95 26417.2,3734.79C26408.7,3734.63 26389,3744 26389,3744Z" style="fill:rgb(95,55,34);"/>
                    </g>
                </g>
                <g transform="matrix(0.88939,-0.0320514,0.10156,0.219057,825.972,6359.83)">
                    <path d="M14544.9,10559.2C14538.1,10557.4 14530,10554.6 14523.6,10554.4C14517.4,10554.2 14511.4,10556.4 14505.6,10558.4C14498.1,10561.1 14490.8,10563.8 14483.5,10568.5C14476.9,10572.7 14473.2,10584.3 14469.6,10590C14466.2,10595.2 14462.8,10597.3 14460.9,10603.3C14458.9,10609.6 14458.9,10623.1 14455.7,10629.4C14452.4,10636.1 14446.7,10643.2 14446.7,10643.2C14446.7,10643.2 14453.6,10638.2 14457.3,10633C14461,10627.8 14462.8,10614.5 14463.5,10614.9C14464.1,10615.2 14462.4,10627.9 14460.8,10632.4C14459.6,10635.5 14460.5,10653.8 14462.6,10657.4C14464.8,10661.2 14470.1,10679.8 14474.7,10677.9C14479.3,10675.9 14485.7,10653.5 14490.1,10645.7C14494.8,10637.6 14500,10624.3 14506,10618C14511.5,10612.2 14520.8,10608.8 14526,10605C14530,10602 14533.8,10598.8 14537,10595C14540.8,10590.5 14548.8,10584.3 14549,10578C14549.2,10571.7 14548.4,10566.1 14544.9,10559.2" style="fill:rgb(71,27,21);"/>
                    <path d="M14463.3,10615.6C14463.3,10615.7 14463.3,10615.8 14463.2,10616C14462.7,10617.8 14461.8,10622.1 14460.6,10626.1C14459.7,10628.8 14458.7,10631.4 14457.5,10633.2C14456.4,10634.7 14455,10636.3 14453.5,10637.7C14450.2,10641 14446.8,10643.4 14446.8,10643.4C14446.7,10643.5 14446.6,10643.5 14446.5,10643.4C14446.4,10643.3 14446.4,10643.1 14446.5,10643C14446.5,10643 14448.8,10640.1 14451.3,10636.4C14452.7,10634.2 14454.3,10631.7 14455.5,10629.3C14456.5,10627.3 14457.1,10624.6 14457.7,10621.7C14458.9,10615.3 14459.3,10607.5 14460.7,10603.2C14461.3,10601.4 14462,10600 14462.7,10598.7C14464.6,10595.7 14467,10593.5 14469.4,10589.8C14471.9,10585.8 14474.5,10579 14478,10573.8C14479.6,10571.5 14481.3,10569.5 14483.3,10568.3C14486.2,10566.4 14489.1,10564.9 14492,10563.5C14496.4,10561.4 14500.9,10559.8 14505.5,10558.1C14509,10556.9 14512.6,10555.6 14516.2,10554.9C14518.7,10554.3 14521.1,10554 14523.6,10554.1C14526.3,10554.2 14529.2,10554.7 14532.3,10555.5C14536.5,10556.5 14541,10557.9 14544.9,10558.9L14545,10558.9L14545,10558.9L14545,10558.9L14545,10559L14545,10559L14545,10559L14545,10559L14545,10559L14545,10559L14545.1,10559L14545.1,10559L14545.1,10559L14545.1,10559L14545.1,10559L14545.1,10559L14545.1,10559.1L14545.1,10559.1C14546.8,10562.3 14547.8,10565.3 14548.5,10568.2C14549.2,10571.5 14549.4,10574.6 14549.3,10578C14549.2,10580.1 14548.3,10582.2 14546.9,10584.2C14544.2,10588.3 14539.8,10592.2 14537.2,10595.2C14535.6,10597.1 14533.8,10598.9 14531.9,10600.6C14530.1,10602.2 14528.1,10603.8 14526.1,10605.2C14522.5,10607.9 14516.8,10610.4 14511.8,10613.7C14509.7,10615 14507.8,10616.5 14506.2,10618.2C14504.3,10620.2 14502.5,10622.9 14500.7,10625.9C14497,10632.4 14493.5,10640.3 14490.4,10645.9C14487.2,10651.5 14482.9,10664.8 14479.1,10672.4C14478.2,10674.2 14477.3,10675.7 14476.5,10676.7C14475.9,10677.4 14475.3,10677.9 14474.8,10678.1C14474.1,10678.4 14473.4,10678.3 14472.6,10677.8C14471.6,10677.1 14470.5,10675.6 14469.4,10673.7C14466.5,10668.4 14463.8,10660 14462.4,10657.6C14462,10656.9 14461.6,10655.6 14461.3,10653.9C14460.8,10651.5 14460.4,10648.3 14460.2,10645.1C14460,10641.2 14459.9,10637.4 14460.1,10634.9C14460.2,10633.7 14460.4,10632.8 14460.5,10632.3C14461.3,10630.4 14462,10627 14462.5,10623.7C14463,10620.4 14463.4,10617.2 14463.4,10615.7C14463.4,10615.7 14463.4,10615.6 14463.3,10615.6ZM14544.7,10559.5C14540.8,10558.4 14536.4,10557.1 14532.1,10556C14529.1,10555.3 14526.2,10554.8 14523.6,10554.7C14521.1,10554.6 14518.7,10554.9 14516.3,10555.4C14512.7,10556.2 14509.1,10557.5 14505.7,10558.7C14501.1,10560.3 14496.6,10562 14492.2,10564.1C14489.3,10565.4 14486.4,10566.9 14483.6,10568.8C14481.6,10570 14479.9,10571.9 14478.4,10574.1C14474.9,10579.3 14472.3,10586.2 14469.8,10590.1C14467.4,10593.8 14465,10596 14463.2,10599C14462.4,10600.3 14461.7,10601.7 14461.2,10603.4C14459.8,10607.7 14459.3,10615.4 14458.2,10621.8C14457.6,10624.8 14456.9,10627.5 14455.9,10629.6C14454.7,10632 14453.1,10634.5 14451.7,10636.7C14450.3,10638.7 14449.1,10640.5 14448.2,10641.7C14449.5,10640.7 14451.3,10639.1 14453.2,10637.3C14454.6,10635.9 14456,10634.4 14457.1,10632.8C14458,10631.5 14458.8,10629.7 14459.5,10627.7C14461,10623.4 14462.1,10618.2 14462.7,10616C14462.9,10615.3 14463,10614.9 14463.2,10614.7C14463.3,10614.6 14463.4,10614.6 14463.6,10614.6C14463.6,10614.7 14463.7,10614.7 14463.8,10614.9C14463.8,10615 14463.9,10615.2 14463.9,10615.5C14463.9,10616.7 14463.7,10619.2 14463.3,10622C14462.7,10625.8 14461.9,10630.2 14461,10632.5C14460.8,10633 14460.7,10633.8 14460.6,10634.9C14460.5,10637.4 14460.5,10641.2 14460.7,10645C14461,10648.2 14461.3,10651.4 14461.8,10653.8C14462.1,10655.3 14462.4,10656.6 14462.8,10657.3C14464.3,10659.7 14466.9,10668.1 14469.9,10673.4C14470.7,10674.9 14471.5,10676.1 14472.4,10676.9C14473.1,10677.6 14473.9,10677.9 14474.6,10677.6C14475.1,10677.4 14475.6,10677 14476.1,10676.3C14476.9,10675.4 14477.8,10673.9 14478.6,10672.2C14482.5,10664.5 14486.7,10651.2 14489.9,10645.6C14493.1,10640 14496.5,10632.1 14500.3,10625.6C14502.1,10622.5 14503.9,10619.8 14505.8,10617.8C14507.5,10616.1 14509.4,10614.6 14511.5,10613.2C14516.5,10609.9 14522.2,10607.5 14525.9,10604.8C14527.8,10603.3 14529.8,10601.8 14531.6,10600.1C14533.4,10598.5 14535.2,10596.7 14536.8,10594.8C14539.4,10591.8 14543.8,10588 14546.5,10583.9C14547.8,10582 14548.7,10580 14548.7,10578C14548.9,10574.7 14548.7,10571.5 14548,10568.3C14547.4,10565.5 14546.3,10562.6 14544.7,10559.5Z"/>
                </g>
                <g transform="matrix(0.818517,0,0,0.194619,2933.65,6151.95)">
                    <path d="M14532,10596C14526.6,10594.6 14527,10585.3 14527,10580C14527,10574.7 14528.8,10568.5 14532,10564C14535.2,10559.5 14540.4,10554.9 14546,10553C14553.8,10550.3 14568,10547.7 14579,10548C14590,10548.3 14603.7,10551.8 14612,10555C14618.5,10557.5 14624.3,10562.7 14629,10567C14633.3,10571 14637.3,10575.7 14640,10581C14642.7,10586.3 14644.2,10592.8 14645,10599C14645.8,10605.8 14644.7,10615.3 14645,10622C14645.3,10627.7 14645.3,10633.5 14647,10639C14649,10645.5 14657,10661 14657,10661C14657,10661 14645.8,10652.7 14643,10647C14640.2,10641.3 14640.7,10627.3 14640,10627C14639.3,10626.7 14640.3,10640.7 14640.8,10645C14641.2,10648 14644,10652.1 14645.2,10654.8C14646.5,10657.8 14645,10667.9 14646.1,10671.3C14647.2,10674.9 14626,10710.3 14626,10700.2C14626,10690.5 14627.2,10658 14626,10649C14624.9,10640.4 14623.7,10630.8 14619,10624C14614.3,10617.2 14616.4,10617.6 14609,10612.9C14600.5,10607.4 14576,10606.9 14565,10604.9C14554,10602.9 14538.8,10597.8 14532,10596Z" style="fill:rgb(58,19,16);"/>
                    <path d="M14640.1,10629.3C14640.1,10631.4 14640.3,10634.7 14640.5,10637.8C14640.7,10640.7 14640.9,10643.4 14641.1,10645C14641.2,10645.9 14641.6,10646.9 14642,10648C14643.1,10650.3 14644.6,10652.8 14645.5,10654.7C14645.8,10655.4 14646,10656.6 14646,10658C14646.2,10660.8 14645.9,10664.4 14645.9,10667.3C14646,10668.9 14646.1,10670.3 14646.3,10671.2C14646.4,10671.4 14646.4,10671.8 14646.4,10672.2C14646.3,10672.7 14646.1,10673.4 14645.8,10674.2C14644,10679.2 14638.3,10689.2 14633.5,10695.8C14631.4,10698.7 14629.5,10701 14628.1,10701.9C14627.4,10702.4 14626.7,10702.5 14626.3,10702.2C14626,10701.9 14625.7,10701.3 14625.7,10700.2C14625.7,10693.8 14626.2,10677.3 14626.2,10664.3C14626.2,10657.8 14626.1,10652.1 14625.7,10649C14625.1,10644 14624.4,10638.5 14622.9,10633.5C14622,10630.1 14620.6,10626.9 14618.8,10624.2C14616.3,10620.6 14615.7,10619 14614.6,10617.6C14613.7,10616.4 14612.3,10615.3 14608.9,10613.1C14606,10611.3 14601.4,10610 14596.1,10609.1C14585.5,10607.2 14572.3,10606.5 14565,10605.2C14560.9,10604.4 14556.2,10603.3 14551.7,10602C14543.9,10599.9 14536.2,10597.5 14531.9,10596.3C14529.6,10595.7 14528.3,10593.7 14527.6,10591.1C14526.6,10587.6 14526.7,10583.1 14526.7,10580C14526.7,10577.2 14527.2,10574.3 14528.1,10571.4C14529,10568.7 14530.2,10566 14531.8,10563.8C14533.4,10561.4 14535.6,10559.1 14538.2,10557.1C14540.5,10555.2 14543.2,10553.6 14545.9,10552.7C14550.1,10551.3 14556,10549.9 14562.3,10548.9C14567.9,10548 14573.8,10547.5 14579,10547.7C14584.3,10547.8 14590.1,10548.7 14595.7,10549.9C14601.9,10551.3 14607.7,10553 14612.1,10554.7C14614.6,10555.7 14617.1,10557 14619.4,10558.6C14623,10561.1 14626.3,10564.1 14629.2,10566.7C14631.3,10568.7 14633.4,10570.9 14635.3,10573.2C14637.2,10575.6 14638.9,10578.1 14640.2,10580.8C14641.6,10583.5 14642.7,10586.5 14643.5,10589.6C14644.3,10592.7 14644.9,10595.9 14645.3,10599C14645.5,10601.1 14645.6,10603.4 14645.6,10605.9C14645.5,10611.4 14645,10617.4 14645.3,10622C14645.5,10625.4 14645.5,10628.9 14645.9,10632.3C14646.2,10634.5 14646.6,10636.7 14647.3,10638.9C14648,10641.1 14649.4,10644.5 14650.9,10647.8C14653.8,10654.2 14657.2,10660.8 14657.2,10660.8C14657.3,10661 14657.3,10661.1 14657.2,10661.2C14657.1,10661.3 14657,10661.4 14656.9,10661.3C14656.9,10661.3 14652,10657.7 14647.9,10653.6C14645.7,10651.4 14643.7,10649.1 14642.8,10647.2C14642,10645.6 14641.5,10643.5 14641.1,10641.3C14640.4,10637 14640.2,10632.1 14640.1,10629.3ZM14656.1,10659.9C14655,10657.7 14652.6,10652.9 14650.4,10648.2C14648.9,10644.7 14647.4,10641.4 14646.7,10639.1C14646.1,10636.9 14645.6,10634.6 14645.4,10632.4C14645,10628.9 14644.9,10625.4 14644.7,10622C14644.5,10617.4 14645,10611.4 14645,10605.9C14645,10603.5 14645,10601.1 14644.7,10599C14644.4,10596 14643.8,10592.8 14643,10589.8C14642.1,10586.8 14641.1,10583.8 14639.8,10581.2C14638.4,10578.5 14636.7,10576 14634.8,10573.6C14633,10571.4 14631,10569.2 14628.8,10567.3C14626,10564.6 14622.7,10561.6 14619.1,10559.2C14616.8,10557.6 14614.4,10556.3 14611.9,10555.3C14607.6,10553.7 14601.8,10551.9 14595.6,10550.6C14590.1,10549.4 14584.2,10548.5 14579,10548.3C14573.8,10548.2 14568,10548.7 14562.4,10549.5C14556.1,10550.5 14550.2,10551.9 14546.1,10553.3C14543.4,10554.2 14540.8,10555.8 14538.5,10557.6C14536,10559.6 14533.8,10561.9 14532.2,10564.2C14530.7,10566.4 14529.5,10569 14528.6,10571.6C14527.8,10574.4 14527.3,10577.3 14527.3,10580C14527.3,10583.1 14527.1,10587.5 14528.1,10590.9C14528.7,10593.2 14529.9,10595.1 14532.1,10595.7C14536.4,10596.8 14544,10599.3 14551.8,10601.4C14556.4,10602.6 14561,10603.8 14565,10604.5C14572.3,10605.9 14585.6,10606.5 14596.2,10608.4C14601.6,10609.4 14606.3,10610.7 14609.1,10612.6C14612.6,10614.8 14614,10615.9 14615,10617.2C14616.1,10618.6 14616.7,10620.1 14619.2,10623.8C14621.1,10626.6 14622.5,10629.8 14623.5,10633.3C14624.9,10638.3 14625.6,10643.8 14626.3,10649C14626.7,10652 14626.8,10657.7 14626.8,10664.3C14626.8,10677.3 14626.3,10693.8 14626.3,10700.2C14626.3,10700.6 14626.3,10701 14626.4,10701.2C14626.5,10701.4 14626.6,10701.6 14626.7,10701.6C14626.9,10701.7 14627.2,10701.7 14627.5,10701.5C14629.3,10700.5 14632.3,10696.8 14635.3,10692.2C14638.9,10686.8 14642.6,10680.2 14644.5,10675.8C14645.2,10674.3 14645.6,10673 14645.8,10672.2C14645.9,10671.8 14645.9,10671.6 14645.8,10671.4C14645.5,10670.4 14645.4,10669 14645.4,10667.4C14645.4,10664.4 14645.6,10660.8 14645.5,10658.1C14645.4,10656.8 14645.3,10655.7 14645,10655C14644.1,10653.1 14642.6,10650.6 14641.5,10648.3C14641,10647.1 14640.7,10646 14640.6,10645C14640.2,10642.1 14639.7,10634.9 14639.5,10630.5C14639.5,10629 14639.5,10627.7 14639.6,10627.2C14639.6,10627 14639.7,10626.8 14639.8,10626.8C14639.9,10626.7 14640,10626.6 14640.1,10626.7C14640.2,10626.7 14640.3,10626.8 14640.3,10627C14640.4,10627.2 14640.5,10627.7 14640.6,10628.3C14640.8,10630.9 14640.9,10636.4 14641.6,10641.1C14642,10643.3 14642.5,10645.4 14643.2,10646.8C14644.2,10648.7 14646.1,10651 14648.2,10653.1C14651.2,10656 14654.5,10658.7 14656.1,10659.9Z"/>
                </g>
                <g transform="matrix(0.736372,-0.0188493,0.0694748,0.21097,14020.6,7809.16)">
                    <ellipse cx="833.5" cy="2084" rx="12.5" ry="31" style="fill:rgb(241,198,170);"/>
                </g>
                <g transform="matrix(-0.117106,-0.0113081,-0.0405596,0.0326494,14901.7,8150.87)">
                    <path d="M117.422,2617.33C123.261,2600.83 139.009,2589 157.5,2589C175.991,2589 191.739,2600.83 197.578,2617.33C191.739,2608.4 175.991,2602 157.5,2602C139.009,2602 123.261,2608.4 117.422,2617.33Z" style="fill:rgb(222,165,130);"/>
                </g>
                <g transform="matrix(-0.107019,-0.0425048,-0.152455,0.0298372,15192.7,8162.29)">
                    <path d="M117.422,2617.33C123.261,2600.83 139.009,2589 157.5,2589C175.991,2589 191.739,2600.83 197.578,2617.33C191.739,2608.4 175.991,2602 157.5,2602C139.009,2602 123.261,2608.4 117.422,2617.33Z" style="fill:rgb(222,165,130);"/>
                </g>
                <g transform="matrix(0.733954,0.0251315,-0.0926299,0.210277,14493.3,7773.97)">
                    <ellipse cx="833.5" cy="2084" rx="12.5" ry="31" style="fill:rgb(241,198,170);"/>
                </g>
                <g transform="matrix(0.117106,-0.0113081,0.0405596,0.0326494,14789.6,8150.88)">
                    <path d="M117.422,2617.33C123.261,2600.83 139.009,2589 157.5,2589C175.991,2589 191.739,2600.83 197.578,2617.33C191.739,2608.4 175.991,2602 157.5,2602C139.009,2602 123.261,2608.4 117.422,2617.33Z" style="fill:rgb(222,165,130);"/>
                </g>
                <g transform="matrix(0.107019,-0.0425048,0.152455,0.0298372,14498.6,8162.3)">
                    <path d="M117.422,2617.33C123.261,2600.83 139.009,2589 157.5,2589C175.991,2589 191.739,2600.83 197.578,2617.33C191.739,2608.4 175.991,2602 157.5,2602C139.009,2602 123.261,2608.4 117.422,2617.33Z" style="fill:rgb(222,165,130);"/>
                </g>
                <g transform="matrix(0.75,0,0,0.209101,3882.5,6103.75)">
                    <path d="M14712.3,10126C14712.3,10126 14712.2,10115.1 14709.2,10106.6C14707.5,10102 14704.9,10098 14701,10097C14704.9,10098.1 14707.3,10102.1 14708.9,10106.7C14711.8,10115.2 14711.7,10126 14711.7,10126C14711.7,10126.2 14711.8,10126.3 14712,10126.3C14712.2,10126.3 14712.3,10126.2 14712.3,10126Z"/>
                </g>
                <g transform="matrix(0.75,0,0,0.209101,3882.5,6104.58)">
                    <path d="M14589.1,10074.3C14594,10073.1 14599.9,10071.2 14605.7,10070.1C14609.6,10069.3 14613.5,10068.9 14617,10069.2C14620.3,10069.6 14623.7,10070.5 14627.2,10071.8C14634.4,10074.3 14641.9,10078.1 14650,10081C14641.9,10078 14634.4,10074.2 14627.3,10071.5C14623.8,10070.3 14620.4,10069.3 14617,10068.9C14613.5,10068.5 14609.6,10068.9 14605.6,10069.6C14599.8,10070.7 14593.9,10072.5 14588.9,10073.7C14588.8,10073.7 14588.7,10073.9 14588.7,10074.1C14588.7,10074.2 14588.9,10074.3 14589.1,10074.3Z"/>
                </g>
                <g transform="matrix(0.75,0,0,0.209101,3884,6104.79)">
                    <path d="M14594,10055.7C14594,10055.7 14586.5,10054.9 14579.5,10055.2C14575.7,10055.3 14572.2,10055.8 14569.9,10056.8C14567,10058.2 14563,10060.5 14558.9,10063C14551,10067.7 14543,10073 14543,10073C14543,10073 14551.1,10067.8 14559.1,10063.1C14563.1,10060.8 14567.2,10058.5 14570.1,10057.2C14572.3,10056.1 14575.8,10055.7 14579.5,10055.6C14586.5,10055.4 14594,10056.3 14594,10056.3C14594.1,10056.3 14594.3,10056.2 14594.3,10056C14594.3,10055.9 14594.2,10055.7 14594,10055.7Z"/>
                </g>
                <g transform="matrix(0.75,0,0,0.209101,3881,6104.79)">
                    <path d="M14545.2,10117.2C14545.2,10117.2 14553.8,10105.7 14564.6,10097.3C14569.8,10093.3 14575.5,10090 14581,10089C14575.5,10089.9 14569.7,10093.2 14564.5,10097.2C14553.5,10105.4 14544.8,10116.8 14544.8,10116.8C14544.7,10116.9 14544.7,10117.1 14544.8,10117.2C14544.9,10117.3 14545.1,10117.3 14545.2,10117.2Z"/>
                </g>
            </g>
        </g>
    </g>
</svg>
