<?xml version="1.0" encoding="UTF-8" standalone="no"?>
<!DOCTYPE svg PUBLIC "-//W3C//DTD SVG 1.1//EN" "http://www.w3.org/Graphics/SVG/1.1/DTD/svg11.dtd">
<svg width="100%" height="100%" viewBox="0 0 350 385" version="1.1" xmlns="http://www.w3.org/2000/svg" xmlns:xlink="http://www.w3.org/1999/xlink" xml:space="preserve" xmlns:serif="http://www.serif.com/" style="fill-rule:evenodd;clip-rule:evenodd;stroke-linejoin:round;stroke-miterlimit:2;">
  <g transform="matrix(1,0,0,1,-17288,-2416)">
    <g id="Plan-de-travail8" serif:id="Plan de travail8" transform="matrix(0.928382,0,0,1.00522,9487.73,-623.791)">
      <rect x="8402" y="3024" width="377" height="383" style="fill:none;"/>
      <g transform="matrix(1,0,0,1,6.28291,-42.1661)">
        <g transform="matrix(1.31768,0,0,1.07397,7300.9,997.914)">
          <ellipse cx="972.5" cy="2107" rx="117.5" ry="174" style="fill:rgb(220,167,140);"/>
        </g>
        <g transform="matrix(-3.49593,-0.264184,-0.28605,3.22869,9169.31,2983.53)">
          <path d="M170.185,87.736C168.991,87.603 167.352,87.902 167.185,86.736C167.019,85.569 167.527,83.602 169.103,82.742C170.936,81.742 175.27,81.242 178.103,81.742C180.936,82.242 185.42,81.935 187.92,83.435C190.379,84.91 191.597,88.508 191.597,88.508C191.597,88.508 190.009,86.391 186.615,85.512C184.587,84.987 176.445,86.736 176.185,86.736C174.158,86.736 171.685,87.902 170.185,87.736Z" style="fill:rgb(40,38,44);"/>
        </g>
        <g transform="matrix(3.49593,-0.264184,0.28605,3.22869,7996.53,2983.53)">
          <path d="M170.185,87.736C168.991,87.603 167.352,87.902 167.185,86.736C167.019,85.569 167.527,83.602 169.103,82.742C170.936,81.742 175.27,81.242 178.103,81.742C180.936,82.242 185.42,81.935 187.92,83.435C190.379,84.91 191.597,88.508 191.597,88.508C191.597,88.508 190.009,86.391 186.615,85.512C184.587,84.987 176.445,86.736 176.185,86.736C174.158,86.736 171.685,87.902 170.185,87.736Z" style="fill:rgb(40,38,44);"/>
        </g>
        <g transform="matrix(1.5836,0,0,1.34288,-11505.4,-8542.8)">
          <path d="M12699.3,8819.83C12713.1,8818.61 12723.5,8838.45 12729.7,8837.57C12733.5,8837.01 12731.5,8824.06 12728.3,8822.88C12726.5,8822.2 12721.2,8825.19 12721.2,8825.19C12721.2,8825.19 12722.1,8820.31 12724.4,8819.4C12727.9,8818.06 12733.5,8820.68 12734.9,8822.12C12736.8,8824.2 12738.6,8831.72 12738.6,8833.64C12738.6,8839.5 12730.8,8851.62 12719,8846.59C12713.1,8844.07 12703.3,8844.08 12697.2,8843.98C12694,8844.26 12691,8845.66 12687.7,8845.56C12687.6,8845.56 12687.4,8845.54 12687.3,8845.51C12687.1,8845.54 12687,8845.56 12686.8,8845.56C12685.1,8845.61 12683.5,8845.24 12681.8,8844.83L12681.1,8844.67C12679.5,8844.27 12677.8,8843.89 12676.1,8843.94C12670.3,8844.11 12658.8,8843.77 12652.2,8846.59C12640.4,8851.62 12632.6,8839.5 12632.6,8833.64C12632.6,8831.72 12634.4,8824.2 12636.3,8822.12C12637.6,8820.68 12643.3,8818.06 12646.8,8819.4C12649.1,8820.31 12650,8825.19 12650,8825.19C12650,8825.19 12644.7,8822.2 12642.9,8822.88C12639.7,8824.06 12637.6,8837.01 12641.5,8837.57C12647.8,8838.47 12658.6,8817.9 12672.9,8819.95C12675.7,8820.35 12680.9,8822.33 12686.8,8822.74C12687,8822.75 12687.1,8822.77 12687.3,8822.8C12687.4,8822.77 12687.6,8822.75 12687.8,8822.74C12693.7,8822.33 12695.1,8821 12697.7,8819.95C12698.3,8819.72 12698.8,8819.69 12699.3,8819.83Z" style="fill:rgb(40,38,44);"/>
        </g>
        <g transform="matrix(0.871365,0.0376987,-0.0450994,0.749598,-3998.07,-3300.87)">
          <path d="M14904.2,7789.56C14929.8,7790.53 14974.7,7835.83 14986,7851C14996.7,7865.34 15014.5,7929.17 15016,7944C15017.5,7959 15016.7,7978.83 15017,7990C15017.2,7997.01 15014.5,8009.5 15018,8011C15021.5,8012.5 15024.6,8005.13 15028.9,7999.46C15033.3,7993.8 15035.6,7985.04 15034.9,7977.46C15034.1,7967.63 15024.1,7943.8 15023.9,7940.46C15023.8,7937.13 15033.3,7958.8 15033.9,7957.46C15034.6,7956.13 15030.1,7940.74 15027.9,7932.46C15025.1,7921.8 15020,7906.63 15016.9,7893.46C15013.8,7879.63 15013.6,7860.63 15008.9,7849.46C15005,7840.09 15004.3,7831.67 14998,7826C14992.8,7821.31 14976.2,7797.03 14968.7,7792.69C14960.4,7787.86 14908.9,7761.84 14899,7758C14888.7,7754 14875.8,7752.33 14864,7751C14852.2,7749.67 14838.5,7748.83 14828,7750C14818.7,7751.04 14810,7755.25 14801,7758C14786.3,7762.5 14754.5,7771.83 14740,7777C14731,7780.2 14721.6,7783.21 14714,7789C14704.8,7796 14687,7821 14687,7821C14687,7821 14703,7806.67 14704,7807C14705,7807.33 14694.5,7817.5 14691,7821C14688.5,7823.51 14685.7,7826.92 14684,7830C14681.2,7835 14676,7853 14676,7853C14676,7853 14683.5,7839.33 14687,7835C14689.7,7831.68 14695,7824.33 14695,7825C14695,7825.67 14689.3,7835.33 14687,7839C14685.2,7841.81 14682.7,7844.13 14681,7847C14678.8,7850.67 14675,7855.88 14674,7861C14672.5,7868.5 14679.9,7881.3 14679.3,7891.63C14678.6,7901.96 14677.4,7912.28 14677.3,7922.63C14677.1,7935.96 14681.4,7959.45 14681.9,7971.45C14682.2,7979.13 14670.7,7987.66 14673,7995C14675.7,8003.5 14684,8021.33 14687,8023C14690,8024.67 14690.5,8011.13 14691,8005C14691.7,7996.5 14691.4,7982.99 14691,7972C14690.5,7957.17 14687.2,7932.83 14688,7916C14688.8,7900.78 14706.4,7888.71 14708.5,7877.81C14715.7,7840.3 14742.3,7810.23 14752.3,7801.56C14765.5,7789.97 14808.1,7805.32 14837.5,7807.28C14861.5,7808.9 14891.7,7789.09 14904.2,7789.56Z" style="fill:rgb(40,38,44);"/>
        </g>
        <g transform="matrix(1.98863,0.20711,-0.250979,1.7329,7610.83,-530.665)">
          <ellipse cx="833.5" cy="2084" rx="12.5" ry="31" style="fill:rgb(220,167,140);"/>
        </g>
        <g transform="matrix(0.317297,-0.0931902,0.109895,0.269065,8413.53,2575.52)">
          <path d="M117.422,2617.33C123.261,2600.83 139.009,2589 157.5,2589C175.991,2589 191.739,2600.83 197.578,2617.33C191.739,2608.4 175.991,2602 157.5,2602C139.009,2602 123.261,2608.4 117.422,2617.33Z" style="fill:rgb(145,90,63);"/>
        </g>
        <g transform="matrix(0.289967,-0.350283,0.413074,0.245889,7625.05,2669.64)">
          <path d="M117.422,2617.33C123.261,2600.83 139.009,2589 157.5,2589C175.991,2589 191.739,2600.83 197.578,2617.33C191.739,2608.4 175.991,2602 157.5,2602C139.009,2602 123.261,2608.4 117.422,2617.33Z" style="fill:rgb(145,90,63);"/>
        </g>
        <g transform="matrix(-0.175272,0,0,0.1822,9957.29,99.3101)">
          <path d="M7195.17,17312.8C7163.46,17301.4 7323.82,17216 7418.07,17216C7512.32,17216 7650.22,17307.3 7640.97,17312.8C7614.51,17328.5 7495.39,17277.6 7409.63,17277.6C7323.87,17277.6 7202.74,17315.6 7195.17,17312.8Z" style="fill:rgb(50,45,42);"/>
        </g>
        <g transform="matrix(0.175272,0,0,0.1822,7213.8,99.3101)">
          <path d="M7195.17,17312.8C7163.46,17301.4 7323.82,17216 7418.07,17216C7512.32,17216 7650.22,17307.3 7640.97,17312.8C7614.51,17328.5 7495.39,17277.6 7409.63,17277.6C7323.87,17277.6 7202.74,17315.6 7195.17,17312.8Z" style="fill:rgb(50,45,42);"/>
        </g>
        <g transform="matrix(0.727101,0,0,0.367135,6483.22,2367.08)">
          <path d="M2984.99,2658C2984.19,2708.91 2942.6,2750 2891.5,2750C2840.4,2750 2798.81,2708.91 2798.01,2658L2984.99,2658Z" style="fill:rgb(151,93,65);"/>
        </g>
        <g transform="matrix(0.569838,0,0,0.287728,6937.94,2581.5)">
          <path d="M2984.99,2658C2984.19,2708.91 2942.6,2750 2891.5,2750C2840.4,2750 2798.81,2708.91 2798.01,2658L2984.99,2658Z" style="fill:rgb(243,241,240);"/>
        </g>
        <g transform="matrix(2.00352,-0.0129894,0.0157408,1.74587,6719.38,-369.605)">
          <ellipse cx="833.5" cy="2084" rx="12.5" ry="31" style="fill:rgb(220,167,140);"/>
        </g>
        <g transform="matrix(-0.317297,-0.0931902,-0.109895,0.269065,8754.24,2580.16)">
          <path d="M117.422,2617.33C123.261,2600.83 139.009,2589 157.5,2589C175.991,2589 191.739,2600.83 197.578,2617.33C191.739,2608.4 175.991,2602 157.5,2602C139.009,2602 123.261,2608.4 117.422,2617.33Z" style="fill:rgb(145,90,63);"/>
        </g>
        <g transform="matrix(-0.289967,-0.350283,-0.413074,0.245889,9542.72,2674.28)">
          <path d="M117.422,2617.33C123.261,2600.83 139.009,2589 157.5,2589C175.991,2589 191.739,2600.83 197.578,2617.33C191.739,2608.4 175.991,2602 157.5,2602C139.009,2602 123.261,2608.4 117.422,2617.33Z" style="fill:rgb(145,90,63);"/>
        </g>
        <g transform="matrix(1.5836,0,0,1.34288,-11505.4,-8544.14)">
          <path d="M12677.9,8891.03C12678.1,8888.93 12685.4,8881.61 12688.4,8881.99C12691.6,8882.38 12698.7,8887.23 12699.1,8890.03C12699.6,8893.28 12701.5,8899.55 12702.2,8906.95C12703.2,8917.36 12702.2,8928.01 12702.2,8928.01C12702.2,8928.01 12693.8,8929.67 12689,8930C12684.3,8930.32 12676.7,8930.01 12676.7,8930.01C12676.7,8930.01 12675.2,8918.63 12675.7,8907.75C12676.1,8900.38 12677.5,8894.26 12677.9,8891.03Z" style="fill:rgb(40,38,44);"/>
        </g>
      </g>
    </g>
  </g>
</svg>
