<?xml version="1.0" encoding="UTF-8" standalone="no"?>
<!DOCTYPE svg PUBLIC "-//W3C//DTD SVG 1.1//EN" "http://www.w3.org/Graphics/SVG/1.1/DTD/svg11.dtd">
<svg width="100%" height="100%" viewBox="0 0 340 388" version="1.1" xmlns="http://www.w3.org/2000/svg" xmlns:xlink="http://www.w3.org/1999/xlink" xml:space="preserve" xmlns:serif="http://www.serif.com/" style="fill-rule:evenodd;clip-rule:evenodd;stroke-linejoin:round;stroke-miterlimit:2;">
  <g transform="matrix(1,0,0,1,-19098,-4783)">
    <g id="Plan-de-travail8" serif:id="Plan de travail8" transform="matrix(0.901857,0,0,1.01305,11520.6,1719.52)">
      <rect x="8402" y="3024" width="377" height="383" style="fill:none;"/>
      <clipPath id="_clip1">
        <rect x="8402" y="3024" width="377" height="383"/>
      </clipPath>
      <g clip-path="url(#_clip1)">
        <g transform="matrix(1.10882,0,0,0.986123,-14506,-12316.3)">
          <g transform="matrix(1.24727,0,0,1.04918,19614.4,13536.1)">
            <ellipse cx="972.5" cy="2107" rx="117.5" ry="174" style="fill:rgb(217,158,128);"/>
          </g>
          <g transform="matrix(1.07464,0,0,1.001,-591.849,-8.47551)">
            <path d="M20043,15600C20039.8,15599 20035.1,15598.4 20033,15601C20029.5,15605.5 20023.7,15617.7 20022,15627C20020,15638.2 20020.2,15656.5 20021,15668C20021.7,15677.5 20023,15687.3 20027,15696C20032.3,15707.7 20046.2,15722.5 20051,15738C20055.8,15753.5 20051.2,15811.2 20055,15813C20064,15817.4 20075.1,15770.3 20067,15759C20061.2,15750.8 20074.3,15740 20075,15730C20075.8,15718.5 20073.2,15698.5 20072,15690C20071.5,15686.1 20067.2,15678.3 20068,15679C20068.8,15679.7 20075.3,15689.7 20077,15694C20078.3,15697.4 20077.5,15706.2 20078,15705C20078.5,15703.8 20081,15692.9 20080,15687C20078.3,15677.5 20072.3,15660.9 20068,15648C20063.5,15634.7 20057.2,15615 20053,15607C20051.1,15603.4 20046.3,15601 20043,15600Z" style="fill:rgb(23,23,23);"/>
          </g>
          <g transform="matrix(1.10936,0,0,1.001,-1277.16,-8.47551)">
            <path d="M20025,15632C20020.7,15639.3 20011.8,15662.1 20002.3,15669C19992.6,15676 19965.8,15682.5 19964.3,15682C19962.8,15681.5 19987,15671.3 19993.3,15666C19998,15662.1 20004.1,15650.3 20002.3,15650C20000.5,15649.7 19989.5,15660.2 19982.3,15664C19974,15668.3 19959.1,15674.2 19952.3,15676C19948.7,15677 19924.8,15678.3 19917.3,15679C19910.3,15679.6 19896.1,15680.7 19896.3,15679C19896.5,15677.3 19912.6,15672.8 19918.3,15669C19923.2,15665.7 19930.5,15656.5 19930.3,15656C19930.1,15655.5 19922.2,15663.6 19917.3,15666C19909.8,15669.7 19895.5,15673.8 19885.3,15678C19875.5,15682 19865.6,15688 19856.3,15691C19847.6,15693.8 19833.8,15697 19829.3,15696C19825.7,15695.2 19830.1,15684.7 19829.3,15685C19828.5,15685.3 19825.4,15693.5 19824.3,15698C19822.1,15706.5 19817.4,15717.2 19815.4,15728C19813.7,15736.9 19811.4,15745.9 19811.4,15755C19811.4,15766.3 19814.9,15787.5 19815.4,15796C19815.6,15799.3 19815.5,15809.1 19814.4,15806C19813.3,15802.9 19806.2,15809.8 19804.1,15801.3C19801.2,15789.5 19806.6,15761.1 19803,15752C19797.4,15737.8 19784.7,15723 19781,15712C19778.3,15703.8 19779.9,15694.6 19781,15686C19782.3,15675.8 19785.8,15658.7 19789,15651C19791,15646.2 19796.2,15642.7 19800,15640C19803.6,15637.5 19811.7,15635.7 19812,15635C19812.3,15634.3 19805,15635.2 19802,15636C19799.1,15636.8 19793.7,15642.8 19794,15640C19794.3,15637.2 19799.7,15625.4 19804,15619C19809.2,15611.3 19817,15601.4 19825,15594C19835.2,15584.7 19849.5,15569.8 19865,15563C19882.2,15555.5 19908.7,15550 19928,15549C19945.8,15548.1 19965.8,15552 19981,15557C19994.9,15561.6 20010,15572.7 20019,15579C20025.2,15583.3 20033,15588.7 20035,15595C20037,15601.3 20032.7,15610.8 20031,15617C20029.6,15622.2 20027.7,15627.4 20025,15632Z" style="fill:rgb(23,23,23);"/>
          </g>
          <g transform="matrix(1.22327,0,0,1.06154,19281.7,12971.3)">
            <path d="M1265.31,2735.83C1265.37,2735.81 1265.44,2735.8 1265.51,2735.8C1271.58,2735.62 1281.47,2736.45 1283.34,2739.53C1285.21,2742.6 1278.93,2749.71 1279.74,2754.24C1280.56,2758.77 1287.88,2755.55 1292.33,2754.38C1300.07,2752.34 1323.1,2703.88 1327.81,2698.58C1332.06,2693.8 1379.35,2669.6 1379.35,2669.6C1379.35,2669.6 1375.17,2682.81 1374.75,2693.28C1374.46,2700.26 1349.96,2750.6 1342.2,2760.4C1333.77,2771.05 1320.71,2780.6 1310.94,2787.69C1302.98,2793.46 1293.17,2796.68 1283.52,2798.56C1278.31,2799.58 1272.02,2800.19 1265.73,2800.44C1265.58,2800.44 1265.44,2800.41 1265.31,2800.35C1265.17,2800.41 1265.03,2800.44 1264.89,2800.44C1258.6,2800.19 1252.31,2799.58 1247.1,2798.56C1237.45,2796.68 1227.64,2793.46 1219.68,2787.69C1209.9,2780.6 1196.85,2771.05 1188.42,2760.4C1180.66,2750.6 1158.11,2699.9 1155.87,2693.28C1148.9,2672.68 1144.79,2657.28 1150.38,2665.93C1150.38,2665.93 1199.74,2692.81 1203.99,2697.59C1208.7,2702.89 1232.83,2743.62 1235.82,2747.34C1240.52,2753.2 1250.06,2758.77 1250.87,2754.24C1251.69,2749.71 1245.41,2742.6 1247.28,2739.53C1249.15,2736.45 1259.04,2735.62 1265.11,2735.8C1265.17,2735.8 1265.24,2735.81 1265.31,2735.83Z" style="fill:rgb(23,23,23);"/>
          </g>
          <g transform="matrix(1.15498,0,0,1.19163,19366.9,12678.3)">
            <path d="M1264.52,2631.07C1264.68,2631.02 1264.86,2630.99 1265.03,2630.97C1271.7,2630.35 1277.76,2628.3 1280.71,2626.67C1287.76,2622.79 1307.12,2636.58 1310.14,2639.86C1313.49,2643.49 1324.49,2658.92 1324.49,2658.92C1324.49,2658.92 1311.21,2651.23 1303.91,2649.09C1296.02,2646.77 1283.59,2645.26 1277.11,2644.99C1273,2644.83 1269.13,2647.67 1265.02,2647.5C1264.85,2647.49 1264.68,2647.47 1264.52,2647.42C1264.36,2647.47 1264.19,2647.49 1264.02,2647.5C1259.9,2647.67 1256.04,2644.83 1251.93,2644.99C1245.44,2645.26 1233.02,2646.77 1225.12,2649.09C1217.83,2651.23 1204.55,2658.92 1204.55,2658.92C1204.55,2658.92 1215.55,2643.49 1218.89,2639.86C1221.92,2636.58 1241.27,2622.79 1248.33,2626.67C1251.28,2628.3 1257.33,2630.35 1264,2630.97C1264.18,2630.99 1264.35,2631.02 1264.52,2631.07Z" style="fill:rgb(23,23,23);"/>
          </g>
          <g transform="matrix(1.07197,0,0,1.07197,-1493.85,-1792.35)">
            <g transform="matrix(-2.70885,-0.221871,-0.174638,2.13646,21266.7,16203.6)">
              <path d="M170.185,87.736C168.991,87.603 167.352,87.902 167.185,86.736C167.019,85.569 167.527,83.602 169.103,82.742C170.936,81.742 175.27,81.242 178.103,81.742C180.936,82.242 185.42,81.935 187.92,83.435C190.379,84.91 191.597,88.508 191.597,88.508C191.597,88.508 190.009,86.391 186.615,85.512C184.587,84.987 176.445,86.736 176.185,86.736C174.158,86.736 171.685,87.902 170.185,87.736Z" style="fill:rgb(23,23,23);"/>
            </g>
            <g transform="matrix(2.70885,-0.221871,0.174638,2.13646,20378.4,16203.6)">
              <path d="M170.185,87.736C168.991,87.603 167.352,87.902 167.185,86.736C167.019,85.569 167.527,83.602 169.103,82.742C170.936,81.742 175.27,81.242 178.103,81.742C180.936,82.242 185.42,81.935 187.92,83.435C190.379,84.91 191.597,88.508 191.597,88.508C191.597,88.508 190.009,86.391 186.615,85.512C184.587,84.987 176.445,86.736 176.185,86.736C174.158,86.736 171.685,87.902 170.185,87.736Z" style="fill:rgb(23,23,23);"/>
            </g>
            <g transform="matrix(-0.135811,0,0,0.153018,21885.1,13729.5)">
              <path d="M7195.17,17312.8C7163.46,17301.4 7323.82,17216 7418.07,17216C7512.32,17216 7650.22,17307.3 7640.97,17312.8C7614.51,17328.5 7495.39,17277.6 7409.63,17277.6C7323.87,17277.6 7202.74,17315.6 7195.17,17312.8Z" style="fill:rgb(50,45,42);"/>
            </g>
            <g transform="matrix(0.135811,0,0,0.153018,19759.3,13729.5)">
              <path d="M7195.17,17312.8C7163.46,17301.4 7323.82,17216 7418.07,17216C7512.32,17216 7650.22,17307.3 7640.97,17312.8C7614.51,17328.5 7495.39,17277.6 7409.63,17277.6C7323.87,17277.6 7202.74,17315.6 7195.17,17312.8Z" style="fill:rgb(50,45,42);"/>
            </g>
          </g>
          <g transform="matrix(0.613915,0,0,0.423022,19052.3,14715.7)">
            <path d="M2984.99,2658C2984.19,2708.91 2942.6,2750 2891.5,2750C2840.4,2750 2798.81,2708.91 2798.01,2658L2984.99,2658Z" style="fill:rgb(151,93,65);"/>
          </g>
          <g transform="matrix(0.481132,0,0,0.331527,19436.2,14962.8)">
            <path d="M2984.99,2658C2984.19,2708.91 2942.6,2750 2891.5,2750C2840.4,2750 2798.81,2708.91 2798.01,2658L2984.99,2658Z" style="fill:rgb(243,241,240);"/>
          </g>
          <g transform="matrix(0.971774,0.0838013,-0.0857447,0.99631,2932.73,-1533.32)">
            <g transform="matrix(1.24165,0.190557,-0.156705,1.59441,19249,12203.5)">
              <ellipse cx="833.5" cy="2084" rx="12.5" ry="31" style="fill:rgb(217,158,128);"/>
            </g>
            <g transform="matrix(0.198112,-0.0857424,0.0686158,0.247561,19750.2,15061.5)">
              <path d="M117.422,2617.33C123.261,2600.83 139.009,2589 157.5,2589C175.991,2589 191.739,2600.83 197.578,2617.33C191.739,2608.4 175.991,2602 157.5,2602C139.009,2602 123.261,2608.4 117.422,2617.33Z" style="fill:rgb(145,90,63);"/>
            </g>
            <g transform="matrix(0.181048,-0.322288,0.257913,0.226238,19257.9,15148.1)">
              <path d="M117.422,2617.33C123.261,2600.83 139.009,2589 157.5,2589C175.991,2589 191.739,2600.83 197.578,2617.33C191.739,2608.4 175.991,2602 157.5,2602C139.009,2602 123.261,2608.4 117.422,2617.33Z" style="fill:rgb(145,90,63);"/>
            </g>
          </g>
          <g transform="matrix(1,0,0,1,1004,63.9965)">
            <g transform="matrix(1.31889,-0.158841,0.186208,1.58039,18186.4,12540.2)">
              <ellipse cx="833.5" cy="2084" rx="12.5" ry="31" style="fill:rgb(217,158,128);"/>
            </g>
            <g transform="matrix(-0.218466,-0.061127,-0.0453154,0.251808,19824.3,15062.9)">
              <path d="M117.422,2617.33C123.261,2600.83 139.009,2589 157.5,2589C175.991,2589 191.739,2600.83 197.578,2617.33C191.739,2608.4 175.991,2602 157.5,2602C139.009,2602 123.261,2608.4 117.422,2617.33Z" style="fill:rgb(145,90,63);"/>
            </g>
            <g transform="matrix(-0.22635,-0.296029,-0.247426,0.253069,20353.3,15090.3)">
              <path d="M117.422,2617.33C123.261,2600.83 139.009,2589 157.5,2589C175.991,2589 191.739,2600.83 197.578,2617.33C191.739,2608.4 175.991,2602 157.5,2602C139.009,2602 123.261,2608.4 117.422,2617.33Z" style="fill:rgb(145,90,63);"/>
            </g>
          </g>
        </g>
      </g>
    </g>
  </g>
</svg>
