<?xml version="1.0" encoding="UTF-8" standalone="no"?>
<!DOCTYPE svg PUBLIC "-//W3C//DTD SVG 1.1//EN" "http://www.w3.org/Graphics/SVG/1.1/DTD/svg11.dtd">
<svg width="100%" height="100%" viewBox="0 0 345 388" version="1.1" xmlns="http://www.w3.org/2000/svg" xmlns:xlink="http://www.w3.org/1999/xlink" xml:space="preserve" xmlns:serif="http://www.serif.com/" style="fill-rule:evenodd;clip-rule:evenodd;stroke-linejoin:round;stroke-miterlimit:2;">
    <g transform="matrix(1,0,0,1,-16451,-2422)">
        <g id="Plan-de-travail8" serif:id="Plan de travail8" transform="matrix(0.915119,0,0,1.01305,8762.17,-641.478)">
            <rect x="8402" y="3024" width="377" height="383" style="fill:none;"/>
            <g transform="matrix(2.19159,0,0,3.42781,-33617.5,-11163.4)">
                <g transform="matrix(0.58019,0,0,0.317983,18694.1,3525.07)">
                    <ellipse cx="972.5" cy="2107" rx="117.5" ry="174" style="fill:rgb(241,198,170);"/>
                </g>
                <g transform="matrix(0.388458,0.0114463,-0.0198189,0.224353,13648.3,2230.69)">
                    <path d="M14940,7809C14953,7818.67 14972.9,7835.92 14984.3,7851.09C14995,7865.43 15003,7884.5 15008,7900C15012.6,7914.19 15014.5,7929.17 15016,7944C15017.5,7959 15016.7,7978.83 15017,7990C15017.2,7997.01 15014.5,8009.5 15018,8011C15021.5,8012.5 15033.7,8004.67 15038,7999C15042.3,7993.33 15044.6,7984.57 15044,7977C15043.2,7967.17 15033.2,7943.33 15033,7940C15032.8,7936.67 15042.3,7958.33 15043,7957C15043.7,7955.67 15039.2,7940.28 15037,7932C15034.2,7921.33 15029,7906.17 15026,7893C15022.8,7879.17 15022.7,7860.17 15018,7849C15014.1,7839.63 15004.3,7831.67 14998,7826C14992.8,7821.31 14985.1,7819.8 14980,7815C14974.8,7810.17 14972.2,7801.67 14967,7797C14961.9,7792.4 14955,7790.24 14949,7787C14942.2,7783.33 14933.5,7779.34 14926,7775C14917.7,7770.17 14908.9,7761.84 14899,7758C14888.7,7754 14875.8,7752.33 14864,7751C14852.2,7749.67 14838.5,7748.83 14828,7750C14818.7,7751.04 14810,7755.25 14801,7758C14786.3,7762.5 14754.5,7771.83 14740,7777C14731,7780.2 14721.6,7783.21 14714,7789C14704.8,7796 14687,7821 14687,7821C14687,7821 14703,7806.67 14704,7807C14705,7807.33 14694.5,7817.5 14691,7821C14688.5,7823.51 14685.7,7826.92 14684,7830C14681.2,7835 14676,7853 14676,7853C14676,7853 14683.5,7839.33 14687,7835C14689.7,7831.68 14695,7824.33 14695,7825C14695,7825.67 14689.3,7835.33 14687,7839C14685.2,7841.81 14682.7,7844.13 14681,7847C14678.8,7850.67 14675,7855.88 14674,7861C14672.5,7868.5 14672.7,7881.67 14672,7892C14671.3,7902.33 14670.1,7912.65 14670,7923C14669.8,7936.33 14670.5,7960 14671,7972C14671.3,7979.69 14670.7,7987.66 14673,7995C14675.7,8003.5 14684,8021.33 14687,8023C14690,8024.67 14690.5,8011.13 14691,8005C14691.7,7996.5 14691.4,7982.99 14691,7972C14690.5,7957.17 14687.2,7932.83 14688,7916C14688.8,7900.78 14693.4,7883.08 14697.7,7870.91C14701.5,7860.46 14706.8,7851.43 14714,7843C14722.8,7832.67 14738.7,7817.17 14749,7809C14757.1,7802.62 14766.2,7797.15 14776,7794C14789.5,7789.67 14814.5,7784.67 14830,7783C14842.9,7781.61 14856.1,7782.35 14869,7784C14882,7785.67 14896.2,7788.83 14908,7793C14919.2,7796.96 14930.4,7801.88 14940,7809Z" style="fill:rgb(78,73,70);"/>
                </g>
                <g transform="matrix(1.64882,-0.0779185,0.134913,0.952272,18984.4,4114.88)">
                    <path d="M170.185,87.736C168.991,87.603 167.352,87.902 167.185,86.736C167.019,85.569 167.424,84.86 169,84C170.833,83 175.167,82.5 178,83C180.833,83.5 187.252,85.34 189.752,86.84C192.211,88.315 193.069,91.161 193.069,91.161C193.069,91.161 189.431,88.298 186.037,87.42C184.009,86.895 176.445,86.736 176.185,86.736C174.158,86.736 171.685,87.902 170.185,87.736Z" style="fill:rgb(78,73,70);"/>
                </g>
                <g transform="matrix(-1.64882,-0.0779185,-0.134913,0.952272,19538.2,4114.88)">
                    <path d="M170.185,87.736C168.991,87.603 167.352,87.902 167.185,86.736C167.019,85.569 167.424,84.86 169,84C170.833,83 175.167,82.5 178,83C180.833,83.5 187.252,85.34 189.752,86.84C192.211,88.315 193.069,91.161 193.069,91.161C193.069,91.161 189.431,88.298 186.037,87.42C184.009,86.895 176.445,86.736 176.185,86.736C174.158,86.736 171.685,87.902 170.185,87.736Z" style="fill:rgb(78,73,70);"/>
                </g>
                <g transform="matrix(0.337284,0,0,0.122525,18284.7,3896.26)">
                    <path d="M2984.99,2658C2984.19,2708.91 2942.6,2750 2891.5,2750C2840.4,2750 2798.81,2708.91 2798.01,2658L2984.99,2658Z" style="fill:rgb(195,136,111);"/>
                </g>
                <g transform="matrix(0.264334,0,0,0.0960243,18495.7,3967.81)">
                    <path d="M2984.99,2658C2984.19,2708.91 2942.6,2750 2891.5,2750C2840.4,2750 2798.81,2708.91 2798.01,2658L2984.99,2658Z" style="fill:rgb(243,241,240);"/>
                </g>
                <g transform="matrix(0.870604,0.0617537,-0.109876,0.516698,18836.6,3065.4)">
                    <ellipse cx="833.5" cy="2084" rx="12.5" ry="31" style="fill:rgb(241,198,170);"/>
                </g>
                <g transform="matrix(0.873471,-0.0463169,0.0824098,0.5184,18284.7,3152.86)">
                    <ellipse cx="833.5" cy="2084" rx="12.5" ry="31" style="fill:rgb(241,198,170);"/>
                </g>
                <g transform="matrix(-0.138909,-0.0277864,-0.048111,0.0802269,19329.8,3992.5)">
                    <path d="M117.422,2617.33C123.261,2600.83 139.009,2589 157.5,2589C175.991,2589 191.739,2600.83 197.578,2617.33C191.739,2608.4 175.991,2602 157.5,2602C139.009,2602 123.261,2608.4 117.422,2617.33Z" style="fill:rgb(222,165,130);"/>
                </g>
                <g transform="matrix(-0.126944,-0.104444,-0.18084,0.0733166,19675,4020.56)">
                    <path d="M117.422,2617.33C123.261,2600.83 139.009,2589 157.5,2589C175.991,2589 191.739,2600.83 197.578,2617.33C191.739,2608.4 175.991,2602 157.5,2602C139.009,2602 123.261,2608.4 117.422,2617.33Z" style="fill:rgb(222,165,130);"/>
                </g>
                <g transform="matrix(-0.0767325,0,0,0.0498813,19860.6,3330.98)">
                    <path d="M7195.17,17312.8C7163.46,17301.4 7323.82,17207.9 7418.07,17207.9C7512.32,17207.9 7650.22,17307.3 7640.97,17312.8C7614.51,17328.5 7495.39,17263.6 7409.63,17263.6C7323.87,17263.6 7202.74,17315.6 7195.17,17312.8Z" style="fill:rgb(109,81,64);"/>
                </g>
                <g transform="matrix(0.0767325,0,0,0.0498813,18659.5,3330.42)">
                    <path d="M7195.17,17312.8C7163.46,17301.4 7323.82,17207.9 7418.07,17207.9C7512.32,17207.9 7650.22,17307.3 7640.97,17312.8C7614.51,17328.5 7495.39,17263.6 7409.63,17263.6C7323.87,17263.6 7202.74,17315.6 7195.17,17312.8Z" style="fill:rgb(109,81,64);"/>
                </g>
                <g transform="matrix(0.138909,-0.0277864,0.048111,0.0802269,19188,3991.57)">
                    <path d="M117.422,2617.33C123.261,2600.83 139.009,2589 157.5,2589C175.991,2589 191.739,2600.83 197.578,2617.33C191.739,2608.4 175.991,2602 157.5,2602C139.009,2602 123.261,2608.4 117.422,2617.33Z" style="fill:rgb(222,165,130);"/>
                </g>
                <g transform="matrix(0.126944,-0.104444,0.18084,0.0733166,18842.8,4019.64)">
                    <path d="M117.422,2617.33C123.261,2600.83 139.009,2589 157.5,2589C175.991,2589 191.739,2600.83 197.578,2617.33C191.739,2608.4 175.991,2602 157.5,2602C139.009,2602 123.261,2608.4 117.422,2617.33Z" style="fill:rgb(222,165,130);"/>
                </g>
            </g>
        </g>
    </g>
</svg>
