<?xml version="1.0" encoding="UTF-8" standalone="no"?>
<!DOCTYPE svg PUBLIC "-//W3C//DTD SVG 1.1//EN" "http://www.w3.org/Graphics/SVG/1.1/DTD/svg11.dtd">
<svg width="100%" height="100%" viewBox="0 0 307 395" version="1.1" xmlns="http://www.w3.org/2000/svg" xmlns:xlink="http://www.w3.org/1999/xlink" xml:space="preserve" xmlns:serif="http://www.serif.com/" style="fill-rule:evenodd;clip-rule:evenodd;stroke-linecap:round;stroke-linejoin:round;stroke-miterlimit:1.5;">
    <g transform="matrix(1,0,0,1,-10685,-2433)">
        <g id="Plan-de-travail8" serif:id="Plan de travail8" transform="matrix(0.814324,0,0,1.03133,3843.05,-685.747)">
            <rect x="8402" y="3024" width="377" height="383" style="fill:none;"/>
            <clipPath id="_clip1">
                <rect x="8402" y="3024" width="377" height="383"/>
            </clipPath>
            <g clip-path="url(#_clip1)">
                <g transform="matrix(1.75093,0,0,1.2719,-7237.18,-2137.8)">
                    <g transform="matrix(0.768753,0,0,0.829207,8292.31,2467.19)">
                        <ellipse cx="972.5" cy="2107" rx="117.5" ry="174" style="fill:rgb(241,198,170);"/>
                    </g>
                    <g transform="matrix(-2.13944,-0.19028,-0.175057,2.32548,9398.28,4010.24)">
                        <path d="M170,90C168.806,89.867 167.167,90.167 167,89C166.833,87.833 167.424,84.86 169,84C170.833,83 175.167,82.5 178,83C180.833,83.5 186.324,85.264 188.824,86.764C191.283,88.239 193,92 193,92C193,92 188.831,90.05 186.824,89.764C184.49,89.43 178.333,89 176,89C173.972,89 171.5,90.167 170,90Z" style="fill:rgb(102,52,10);"/>
                    </g>
                    <g transform="matrix(2.13944,-0.19028,0.175057,2.32548,8681.16,4010.24)">
                        <path d="M170,90C168.806,89.867 167.167,90.167 167,89C166.833,87.833 167.424,84.86 169,84C170.833,83 175.167,82.5 178,83C180.833,83.5 187.252,85.34 189.752,86.84C192.211,88.315 193,92 193,92C193,92 189.76,90.126 187.752,89.84C185.679,89.543 176.26,89 176,89C173.972,89 171.5,90.167 170,90Z" style="fill:rgb(102,52,10);"/>
                    </g>
                    <g transform="matrix(-0.0992124,0,0,0.12138,9817.31,2116.42)">
                        <path d="M7195.17,17312.8C7163.46,17301.4 7323.82,17207.9 7418.07,17207.9C7512.32,17207.9 7650.22,17307.3 7640.97,17312.8C7614.51,17328.5 7495.39,17281.3 7409.63,17281.3C7323.87,17281.3 7202.74,17315.6 7195.17,17312.8Z" style="fill:url(#_Radial2);"/>
                    </g>
                    <g transform="matrix(0.0992124,0,0,0.12138,8264.36,2115.05)">
                        <path d="M7195.17,17312.8C7163.46,17301.4 7323.82,17207.9 7418.07,17207.9C7512.32,17207.9 7650.22,17307.3 7640.97,17312.8C7614.51,17328.5 7495.39,17281.3 7409.63,17281.3C7323.87,17281.3 7202.74,17315.6 7195.17,17312.8Z" style="fill:url(#_Radial3);"/>
                    </g>
                    <g transform="matrix(0.712438,0,0,0.623451,8139.03,2619.74)">
                        <path d="M1264.52,2627.59C1264.68,2627.54 1264.86,2627.5 1265.03,2627.49C1271.7,2626.86 1277.76,2624.81 1280.71,2623.18C1287.76,2619.3 1307.12,2633.09 1310.14,2636.37C1313.49,2640.01 1324.49,2658.92 1324.49,2658.92C1324.49,2658.92 1311.21,2651.23 1303.91,2649.09C1296.02,2646.77 1283.59,2645.26 1277.11,2644.99C1273,2644.83 1269.13,2647.67 1265.02,2647.5C1264.85,2647.49 1264.68,2647.47 1264.52,2647.42C1264.36,2647.47 1264.19,2647.49 1264.02,2647.5C1259.9,2647.67 1256.04,2644.83 1251.93,2644.99C1245.44,2645.26 1233.02,2646.77 1225.12,2649.09C1217.83,2651.23 1204.55,2658.92 1204.55,2658.92C1204.55,2658.92 1215.55,2640.01 1218.89,2636.37C1221.92,2633.09 1241.27,2619.3 1248.33,2623.18C1251.28,2624.81 1257.33,2626.86 1264,2627.49C1264.18,2627.5 1264.35,2627.54 1264.52,2627.59Z" style="fill:rgb(102,52,10);"/>
                    </g>
                    <g transform="matrix(0.767313,0,0,0.779232,8069.03,2176.77)">
                        <path d="M1265.31,2730.33C1265.37,2730.31 1265.44,2730.3 1265.51,2730.3C1271.58,2730.12 1281.47,2730.95 1283.34,2734.03C1285.21,2737.1 1278.93,2744.21 1279.74,2748.74C1280.56,2753.27 1283.78,2760.02 1288.22,2761.2C1292.67,2762.38 1299.47,2759.47 1303.43,2755.82C1308.1,2751.52 1311.54,2740.67 1316.25,2735.37C1320.49,2730.59 1379.06,2663.4 1379.06,2663.4C1379.06,2663.4 1375.17,2682.81 1374.75,2693.28C1374.46,2700.26 1349.96,2750.6 1342.2,2760.4C1333.77,2771.05 1320.71,2780.6 1310.94,2787.69C1302.98,2793.46 1293.17,2796.68 1283.52,2798.56C1278.31,2799.58 1272.02,2800.19 1265.73,2800.44C1265.58,2800.44 1265.44,2800.41 1265.31,2800.35C1265.17,2800.41 1265.03,2800.44 1264.89,2800.44C1258.6,2800.19 1252.31,2799.58 1247.1,2798.56C1237.45,2796.68 1227.64,2793.46 1219.68,2787.69C1209.9,2780.6 1196.85,2771.05 1188.42,2760.4C1180.66,2750.6 1156.16,2700.26 1155.87,2693.28C1155.44,2682.81 1151.56,2663.4 1151.56,2663.4C1151.56,2663.4 1210.12,2730.59 1214.37,2735.37C1219.08,2740.67 1222.52,2751.52 1227.19,2755.82C1231.14,2759.47 1237.95,2762.38 1242.39,2761.2C1246.84,2760.02 1250.06,2753.27 1250.87,2748.74C1251.69,2744.21 1245.41,2737.1 1247.28,2734.03C1249.15,2730.95 1259.04,2730.12 1265.11,2730.3C1265.17,2730.3 1265.24,2730.31 1265.31,2730.33Z" style="fill:rgb(102,52,10);"/>
                    </g>
                    <g transform="matrix(0.383541,0,0,0.271287,7931.17,3555.82)">
                        <path d="M2984.99,2658C2984.19,2708.91 2942.6,2750 2891.5,2750C2840.4,2750 2798.81,2708.91 2798.01,2658L2984.99,2658Z" style="fill:rgb(232,169,152);"/>
                    </g>
                    <g transform="matrix(0.300585,0,0,0.212611,8171.04,3714.26)">
                        <path d="M2984.99,2658C2984.19,2708.91 2942.6,2750 2891.5,2750C2840.4,2750 2798.81,2708.91 2798.01,2658L2984.99,2658Z" style="fill:rgb(243,241,240);"/>
                    </g>
                    <g transform="matrix(0.885479,-0.0883675,0.0835426,0.989049,8030.96,2227.57)">
                        <ellipse cx="833.5" cy="2084" rx="12.5" ry="31" style="fill:rgb(241,198,170);"/>
                    </g>
                    <g transform="matrix(-0.140819,-0.0530135,-0.0487724,0.153064,9090.51,3829.51)">
                        <path d="M117.422,2617.33C123.261,2600.83 139.009,2589 157.5,2589C175.991,2589 191.739,2600.83 197.578,2617.33C191.739,2608.4 175.991,2602 157.5,2602C139.009,2602 123.261,2608.4 117.422,2617.33Z" style="fill:rgb(222,165,130);"/>
                    </g>
                    <g transform="matrix(-0.12869,-0.199267,-0.183326,0.13988,9440.45,3883.06)">
                        <path d="M117.422,2617.33C123.261,2600.83 139.009,2589 157.5,2589C175.991,2589 191.739,2600.83 197.578,2617.33C191.739,2608.4 175.991,2602 157.5,2602C139.009,2602 123.261,2608.4 117.422,2617.33Z" style="fill:rgb(222,165,130);"/>
                    </g>
                    <g transform="matrix(0.882571,0.117819,-0.111386,0.985802,8631.75,2062.48)">
                        <ellipse cx="833.5" cy="2084" rx="12.5" ry="31" style="fill:rgb(241,198,170);"/>
                    </g>
                    <g transform="matrix(0.140819,-0.0530135,0.0487724,0.153064,8987.99,3829.51)">
                        <path d="M117.422,2617.33C123.261,2600.83 139.009,2589 157.5,2589C175.991,2589 191.739,2600.83 197.578,2617.33C191.739,2608.4 175.991,2602 157.5,2602C139.009,2602 123.261,2608.4 117.422,2617.33Z" style="fill:rgb(222,165,130);"/>
                    </g>
                    <g transform="matrix(0.12869,-0.199267,0.183326,0.13988,8638.06,3883.06)">
                        <path d="M117.422,2617.33C123.261,2600.83 139.009,2589 157.5,2589C175.991,2589 191.739,2600.83 197.578,2617.33C191.739,2608.4 175.991,2602 157.5,2602C139.009,2602 123.261,2608.4 117.422,2617.33Z" style="fill:rgb(222,165,130);"/>
                    </g>
                    <g transform="matrix(1,0,0,1.08696,-2,14)">
                        <g transform="matrix(1.22618,-0.0353047,0.0353047,1.22618,-2590.15,-616.749)">
                            <path d="M9314,3912C9312.17,3916 9313.33,3927.33 9316,3932C9318.67,3936.67 9324.76,3938.8 9330,3940C9335.83,3941.33 9346.17,3941 9351,3940C9354.26,3939.33 9357.06,3936.71 9359,3934C9361.5,3930.5 9366.17,3922.67 9366,3919C9365.84,3915.46 9361.41,3912.96 9358,3912C9351.5,3910.17 9334.33,3908 9327,3908C9322.47,3908 9315.83,3908 9314,3912Z" style="fill:none;stroke:rgb(67,46,34);stroke-width:0.86px;"/>
                        </g>
                        <g transform="matrix(-1.22352,-0.0881596,-0.0881596,1.22352,20855.7,-111.164)">
                            <path d="M9314,3912C9312.17,3916 9313.33,3927.33 9316,3932C9318.67,3936.67 9324.76,3938.8 9330,3940C9335.83,3941.33 9346.17,3941 9351,3940C9354.26,3939.33 9357.06,3936.71 9359,3934C9361.5,3930.5 9366.17,3922.67 9366,3919C9365.84,3915.46 9361.41,3912.96 9358,3912C9351.5,3910.17 9334.33,3908 9327,3908C9322.47,3908 9315.83,3908 9314,3912Z" style="fill:none;stroke:rgb(67,46,34);stroke-width:0.86px;"/>
                        </g>
                        <g transform="matrix(1.68803,-0.0486023,0.0353047,1.22618,-6915.78,-492.204)">
                            <path d="M9366,3921C9366,3921 9373.28,3918.93 9376.42,3922.39C9376.88,3920.18 9376.81,3917.82 9376.81,3917.82C9376.81,3917.82 9372.8,3916 9371,3916C9369.3,3916 9366,3917 9366,3917L9366,3921Z" style="fill:rgb(67,46,34);"/>
                        </g>
                    </g>
                    <g transform="matrix(1.23412,0,0,1.28786,-2516.49,-845.112)">
                        <path d="M9295,3850C9293.52,3851.26 9290.57,3851.14 9290,3853C9289.33,3855.17 9292,3860.17 9291,3863C9290,3865.83 9285,3867.83 9284,3870C9283.15,3871.84 9285,3873.97 9285,3876C9285,3878.33 9283.84,3881.32 9284,3884C9284.17,3886.83 9285.68,3889.94 9286,3893C9286.33,3896.17 9285.67,3900.17 9286,3903C9286.28,3905.41 9287.1,3907.75 9288,3910C9289,3912.5 9290.38,3915.5 9292,3918C9293.83,3920.83 9292.95,3926.5 9294.95,3927C9296.95,3927.5 9299.17,3923.48 9299.95,3921C9300.95,3917.83 9300.58,3912.33 9300.95,3908C9301.45,3902.17 9306.67,3891.83 9307,3886C9307.25,3881.67 9306,3877 9307,3873C9308,3869 9310.83,3865.33 9313,3862C9315.07,3858.81 9317.67,3855.67 9320,3853C9322.17,3850.52 9325.17,3846.67 9327,3846C9328.57,3845.43 9329.43,3848.43 9331,3849C9332.83,3849.67 9335.64,3850 9338,3850C9341.17,3850 9346.5,3849.33 9350,3849C9353.01,3848.71 9356.5,3848.83 9359,3848C9361.28,3847.24 9362.83,3844.5 9365,3844C9367.17,3843.5 9370.17,3844.17 9372,3845C9373.72,3845.78 9374.33,3848.33 9376,3849C9377.67,3849.67 9380.01,3849.17 9382,3849C9384,3848.83 9386,3848.17 9388,3848C9389.99,3847.83 9392.12,3847.33 9394,3848C9396.33,3848.83 9399.5,3851.5 9402,3853C9404.3,3854.38 9406.87,3855.36 9409,3857C9411.17,3858.67 9413.33,3860.72 9415,3863C9416.83,3865.5 9419.26,3868.65 9420,3872C9421,3876.5 9424.57,3884.01 9425.05,3890C9425.55,3896.17 9426.55,3904.33 9427.05,3909C9427.37,3912 9427.55,3915.5 9428.05,3918C9428.47,3920.07 9428.99,3922.18 9430.05,3924C9431.22,3926 9433.05,3930.33 9435.05,3930C9437.05,3929.67 9437,3924.33 9438,3922C9438.8,3920.14 9436.17,3917 9437,3916C9437.83,3915 9441.5,3917 9443,3916C9444.5,3915 9445.67,3912.17 9446,3910C9446.33,3907.83 9445.67,3904.17 9445,3903C9444.5,3902.13 9442.1,3903.99 9442,3903C9441.83,3901.33 9444,3896.4 9444,3893C9444,3888.33 9443.17,3878.83 9442,3875C9441.31,3872.74 9437.61,3872.28 9437,3870C9436.33,3867.5 9438.17,3863.33 9438,3860C9437.83,3856.67 9437.34,3853.12 9436,3850C9434.5,3846.5 9431,3840.83 9429,3839C9427.77,3837.87 9425.47,3839.79 9424,3839C9421.83,3837.83 9418.62,3834.39 9416,3832C9412.17,3828.5 9405.67,3821.33 9401,3818C9397.12,3815.23 9392.17,3812.83 9388,3812C9384.06,3811.21 9378.33,3812.5 9376,3813C9375.08,3813.2 9374.88,3815.35 9374,3815C9372.33,3814.33 9368.83,3810.33 9366,3809C9363.22,3807.69 9360.07,3806.87 9357,3807C9353.17,3807.17 9347.02,3807.43 9343,3810C9338.83,3812.67 9335.5,3819.83 9332,3823C9329.12,3825.61 9324.83,3827.67 9322,3829C9319.8,3830.03 9317,3829.63 9315,3831C9311.83,3833.17 9306.33,3838.83 9303,3842C9300.27,3844.6 9297.17,3848.17 9295,3850Z" style="fill:rgb(102,52,10);"/>
                    </g>
                </g>
            </g>
        </g>
    </g>
    <defs>
        <radialGradient id="_Radial2" cx="0" cy="0" r="1" gradientUnits="userSpaceOnUse" gradientTransform="matrix(136.543,3.75098,-1.13188,32.5225,7416.25,17261.6)"><stop offset="0" style="stop-color:rgb(76,59,53);stop-opacity:1"/><stop offset="1" style="stop-color:rgb(64,60,58);stop-opacity:1"/></radialGradient>
        <radialGradient id="_Radial3" cx="0" cy="0" r="1" gradientUnits="userSpaceOnUse" gradientTransform="matrix(136.543,3.75098,-1.13188,32.5225,7416.25,17261.6)"><stop offset="0" style="stop-color:rgb(76,59,53);stop-opacity:1"/><stop offset="1" style="stop-color:rgb(64,60,58);stop-opacity:1"/></radialGradient>
    </defs>
</svg>
