<?xml version="1.0" encoding="UTF-8" standalone="no"?>
<!DOCTYPE svg PUBLIC "-//W3C//DTD SVG 1.1//EN" "http://www.w3.org/Graphics/SVG/1.1/DTD/svg11.dtd">
<svg width="100%" height="100%" viewBox="0 0 363 387" version="1.1" xmlns="http://www.w3.org/2000/svg" xmlns:xlink="http://www.w3.org/1999/xlink" xml:space="preserve" xmlns:serif="http://www.serif.com/" style="fill-rule:evenodd;clip-rule:evenodd;stroke-linecap:round;stroke-linejoin:round;stroke-miterlimit:1.5;">
    <g transform="matrix(1,0,0,1,-11825,-2429)">
        <g id="Plan-de-travail8" serif:id="Plan de travail8" transform="matrix(0.962865,0,0,1.01044,3735.01,-626.582)">
            <rect x="8402" y="3024" width="377" height="383" style="fill:none;"/>
            <clipPath id="_clip1">
                <rect x="8402" y="3024" width="377" height="383"/>
            </clipPath>
            <g clip-path="url(#_clip1)">
                <g transform="matrix(1.91153,0,0,1.2765,-22668.5,-2139.41)">
                    <g transform="matrix(0.867875,0,0,1.13935,8510.2,-562.904)">
                        <g transform="matrix(0.768753,0,0,0.682842,8292.31,2750.12)">
                            <ellipse cx="972.5" cy="2107" rx="117.5" ry="174" style="fill:rgb(241,198,170);"/>
                        </g>
                        <g transform="matrix(0.383541,0,0,0.271287,7927.01,3533.18)">
                            <path d="M2984.99,2658C2984.19,2708.91 2942.6,2750 2891.5,2750C2840.4,2750 2798.81,2708.91 2798.01,2658L2984.99,2658Z" style="fill:rgb(226,172,158);"/>
                        </g>
                        <g transform="matrix(0.300585,0,0,0.212611,8166.87,3691.62)">
                            <path d="M2984.99,2658C2984.19,2708.91 2942.6,2750 2891.5,2750C2840.4,2750 2798.81,2708.91 2798.01,2658L2984.99,2658Z" style="fill:rgb(243,241,240);"/>
                        </g>
                    </g>
                    <g transform="matrix(0.984804,0,0,1.40528,6159.94,-4856.84)">
                        <path d="M10379,6344C10370.2,6341.5 10349.7,6336.33 10336,6336C10323.6,6335.7 10310.9,6339.11 10300,6345C10288,6351.5 10276.6,6364.67 10268.6,6375C10261.6,6384.01 10258.8,6395.82 10256.6,6407C10254.3,6418.83 10254.4,6435.83 10254.6,6446C10254.7,6453.4 10254.5,6469.86 10255,6473.41C10256.1,6481.12 10259.6,6497.76 10262.2,6503.34C10264.8,6508.98 10269.6,6515.34 10273.6,6519.18C10277,6522.45 10284.6,6528.18 10284.6,6528.18C10284.6,6528.18 10272.9,6507.67 10279.8,6500.08C10284.8,6494.63 10272.5,6486.59 10272,6479C10271.5,6471.33 10273.3,6462.83 10275,6455C10276.7,6447.17 10283.1,6429.98 10287.5,6426.49C10295,6420.6 10303.7,6416.33 10311,6415.49C10317.4,6414.77 10323.7,6413.89 10330,6412.49C10337.5,6410.83 10348.7,6408.16 10356,6405.49C10362.3,6403.2 10372.8,6399.74 10376.8,6397.41C10379,6396.1 10381.2,6394.52 10382.8,6392.41C10385.4,6388.74 10387.8,6385 10390,6380C10391.8,6375.92 10393.2,6371.44 10393,6367C10392.8,6362.17 10390.8,6354.33 10389,6351C10387.7,6348.65 10381.6,6344.73 10379,6344Z" style="fill:rgb(171,43,38);stroke:rgb(92,43,38);stroke-width:0.55px;"/>
                    </g>
                    <g transform="matrix(0.90375,0,0,2.95031,7937.71,-8362.82)">
                        <g transform="matrix(1,0,0,0.437112,-1016,2104.55)">
                            <path d="M10384.8,4937.42C10384.8,4937.42 10388.1,4938.53 10390.8,4937.58C10392.4,4937.02 10393.7,4935.73 10394,4933.01C10394,4932.98 10394,4932.97 10394,4932.96C10394,4932.96 10394,4932.97 10394,4932.99C10393.6,4934.95 10392.7,4936.09 10391.6,4936.7C10389,4938.19 10385.2,4936.58 10385.2,4936.58C10384.9,4936.49 10384.7,4936.61 10384.6,4936.84C10384.5,4937.07 10384.6,4937.34 10384.8,4937.42Z" style="fill:rgb(18,12,12);"/>
                        </g>
                        <g transform="matrix(1,0,0,0.437112,-1019,2104.12)">
                            <path d="M10384.8,4937.42C10384.8,4937.42 10388.1,4938.53 10390.8,4937.58C10392.4,4937.02 10393.7,4935.73 10394,4933.01C10394,4932.98 10394,4932.97 10394,4932.96C10394,4932.96 10394,4932.97 10394,4932.99C10393.6,4934.95 10392.7,4936.09 10391.6,4936.7C10389,4938.19 10385.2,4936.58 10385.2,4936.58C10384.9,4936.49 10384.7,4936.61 10384.6,4936.84C10384.5,4937.07 10384.6,4937.34 10384.8,4937.42Z" style="fill:rgb(18,12,12);"/>
                        </g>
                        <g transform="matrix(1,0,0,0.437112,-1021,2103.68)">
                            <path d="M10384.8,4937.56C10384.8,4937.56 10388.1,4938.65 10390.8,4937.66C10392.4,4937.07 10393.8,4935.77 10394.1,4933.01C10394.1,4932.98 10394,4932.95 10394,4932.95C10394,4932.95 10394,4932.97 10394,4932.99C10393.6,4934.93 10392.7,4936.05 10391.6,4936.64C10389,4938.08 10385.2,4936.44 10385.2,4936.44C10384.9,4936.32 10384.6,4936.48 10384.4,4936.79C10384.3,4937.1 10384.5,4937.45 10384.8,4937.56Z" style="fill:rgb(18,12,12);"/>
                        </g>
                        <g transform="matrix(-0.0992124,0,0,0.0488123,10087.3,3419.49)">
                            <path d="M7195.17,17312.8C7163.46,17301.4 7323.82,17207.9 7418.07,17207.9C7512.32,17207.9 7650.22,17307.3 7640.97,17312.8C7614.51,17328.5 7495.39,17263.4 7409.63,17263.4C7323.87,17263.4 7202.74,17315.6 7195.17,17312.8Z" style="fill:rgb(18,12,12);"/>
                        </g>
                    </g>
                    <g transform="matrix(-0.90375,0,0,2.95031,24767.5,-8362.82)">
                        <g transform="matrix(1,0,0,0.437112,-1016,2104.55)">
                            <path d="M10385.2,4936.58C10385.2,4936.58 10389,4938.19 10391.6,4936.7C10392.7,4936.09 10393.6,4934.95 10394,4932.99C10394,4932.97 10394,4932.96 10394,4932.96C10394,4932.97 10394,4932.98 10394,4933.01C10393.7,4935.73 10392.4,4937.02 10390.8,4937.58C10388.1,4938.53 10384.8,4937.42 10384.8,4937.42C10384.6,4937.34 10384.5,4937.07 10384.6,4936.84C10384.7,4936.61 10384.9,4936.49 10385.2,4936.58Z" style="fill:rgb(18,12,12);"/>
                        </g>
                        <g transform="matrix(1,0,0,0.437112,-1019,2104.12)">
                            <path d="M10385.2,4936.58C10385.2,4936.58 10389,4938.19 10391.6,4936.7C10392.7,4936.09 10393.6,4934.95 10394,4932.99C10394,4932.97 10394,4932.96 10394,4932.96C10394,4932.97 10394,4932.98 10394,4933.01C10393.7,4935.73 10392.4,4937.02 10390.8,4937.58C10388.1,4938.53 10384.8,4937.42 10384.8,4937.42C10384.6,4937.34 10384.5,4937.07 10384.6,4936.84C10384.7,4936.61 10384.9,4936.49 10385.2,4936.58Z" style="fill:rgb(18,12,12);"/>
                        </g>
                        <g transform="matrix(1,0,0,0.437112,-1021,2103.68)">
                            <path d="M10385.2,4936.44C10385.2,4936.44 10389,4938.08 10391.6,4936.64C10392.7,4936.05 10393.6,4934.93 10394,4932.99C10394,4932.97 10394,4932.95 10394,4932.95C10394,4932.95 10394.1,4932.98 10394.1,4933.01C10393.8,4935.77 10392.4,4937.07 10390.8,4937.66C10388.1,4938.65 10384.8,4937.56 10384.8,4937.56C10384.5,4937.45 10384.3,4937.1 10384.4,4936.79C10384.6,4936.48 10384.9,4936.32 10385.2,4936.44Z" style="fill:rgb(18,12,12);"/>
                        </g>
                        <g transform="matrix(-0.0992124,0,0,0.0488123,10087.3,3419.49)">
                            <path d="M7195.17,17312.8C7163.46,17301.4 7323.82,17207.9 7418.07,17207.9C7512.32,17207.9 7650.22,17307.3 7640.97,17312.8C7614.51,17328.5 7495.39,17263.4 7409.63,17263.4C7323.87,17263.4 7202.74,17315.6 7195.17,17312.8Z" style="fill:rgb(18,12,12);"/>
                        </g>
                    </g>
                    <g transform="matrix(0.469495,-0.0580485,0.0406798,0.669951,12723.8,1829.56)">
                        <path d="M7233,4153C7233,4153 7257.74,4135.61 7268.74,4135.61C7279.74,4135.61 7290.95,4140.18 7301.74,4143.61C7312.74,4147.11 7330.92,4156.28 7330.92,4156.28C7330.92,4156.28 7338.84,4159.16 7340.33,4156.18C7341.83,4153.18 7344.36,4150.19 7341,4148C7334.33,4143.67 7312.17,4137 7300,4134C7289.56,4131.43 7278.34,4127.07 7268,4130C7256.83,4133.17 7233,4153 7233,4153Z" style="fill:rgb(221,140,120);"/>
                    </g>
                    <g transform="matrix(-0.469495,-0.0580485,-0.0406798,0.669951,19979.8,1829.56)">
                        <path d="M7233,4153C7233,4153 7257.74,4135.61 7268.74,4135.61C7279.74,4135.61 7290.95,4140.18 7301.74,4143.61C7312.74,4147.11 7330.92,4156.28 7330.92,4156.28C7330.92,4156.28 7338.84,4159.16 7340.33,4156.18C7341.83,4153.18 7344.36,4150.19 7341,4148C7334.33,4143.67 7312.17,4137 7300,4134C7289.56,4131.43 7278.34,4127.07 7268,4130C7256.83,4133.17 7233,4153 7233,4153Z" style="fill:rgb(221,140,120);"/>
                    </g>
                    <g transform="matrix(0.826386,0,0,1.28962,7142.43,-3212.17)">
                        <path d="M11194.7,5658.66L11201.5,5647.05C11201.5,5647.05 11200.4,5648.15 11202.4,5649.82C11205.9,5652.8 11225.8,5679.71 11229,5684.98C11232,5689.74 11249.3,5728.6 11248.3,5733.57C11247,5739.47 11248.2,5760.78 11249.7,5772.98C11249.7,5772.98 11254,5791.3 11250.8,5806.84C11247.5,5822.46 11264.6,5834.09 11264.6,5834.09C11264.6,5834.09 11238.6,5823.66 11240.2,5806.21C11238.8,5806.56 11237.2,5812.23 11234.3,5814.87C11223,5824.93 11227.2,5839.4 11227.2,5839.4C11227.2,5839.4 11214.6,5832.59 11225.9,5810.13C11229.6,5802.8 11227.3,5791.97 11225.9,5783.18C11224.4,5774.39 11219.2,5766.29 11217.2,5757.4C11214.8,5746.85 11213.7,5731.43 11211.7,5719.9C11209.9,5709.28 11206.5,5696.66 11205.2,5688.26C11204.2,5682.08 11201.9,5670.1 11204.1,5669.51C11205.3,5669.19 11191.5,5655.03 11194.7,5658.66Z" style="fill:rgb(163,43,38);"/>
                        <path d="M11200.9,5647.26C11201,5646.95 11201.2,5646.78 11201.2,5646.78C11201.3,5646.63 11201.6,5646.61 11201.8,5646.72C11201.9,5646.84 11202,5647.06 11201.9,5647.24L11201.7,5647.56C11201.6,5647.74 11201.6,5648.03 11201.8,5648.4C11201.9,5648.73 11202.2,5649.11 11202.7,5649.52C11204.2,5650.83 11208.9,5656.69 11213.9,5663.32C11220.4,5671.91 11227.6,5681.8 11229.4,5684.78C11231.3,5687.87 11239.3,5705.23 11244.4,5718.47C11246.2,5723.29 11247.7,5727.57 11248.4,5730.41C11248.7,5731.91 11248.8,5733.03 11248.7,5733.65C11248.1,5736.38 11248.1,5742.42 11248.3,5749.33C11248.6,5757.3 11249.3,5766.4 11250.1,5772.92C11250.2,5773.35 11251.9,5780.67 11252.3,5789.86C11252.5,5795.24 11252.3,5801.26 11251.2,5806.92C11250,5812.57 11251.6,5817.7 11254,5821.91C11258.1,5829.18 11264.9,5833.77 11264.9,5833.77C11265,5833.89 11265.1,5834.12 11265,5834.29C11264.9,5834.47 11264.6,5834.54 11264.4,5834.46C11264.4,5834.46 11252,5829.45 11244.7,5820.57C11241.7,5816.79 11239.5,5812.32 11239.7,5807.23C11239.6,5807.31 11239.6,5807.39 11239.5,5807.47C11238.7,5808.69 11237.8,5810.76 11236.6,5812.6C11236,5813.56 11235.3,5814.46 11234.6,5815.15C11230.7,5818.62 11228.7,5822.62 11227.7,5826.36C11225.9,5833.29 11227.6,5839.3 11227.6,5839.3C11227.6,5839.45 11227.6,5839.62 11227.4,5839.72C11227.3,5839.82 11227.1,5839.83 11227,5839.74C11227,5839.74 11221.5,5836.82 11220.8,5828.46C11220.4,5824 11221.5,5817.96 11225.5,5809.97C11227,5806.94 11227.5,5803.3 11227.5,5799.46C11227.4,5794.09 11226.3,5788.32 11225.5,5783.24C11225.2,5781.48 11224.7,5779.74 11224.2,5778.02C11222,5771.18 11218.3,5764.58 11216.7,5757.48C11216,5754.13 11215.4,5750.29 11214.8,5746.24C11213.6,5737.53 11212.7,5727.83 11211.3,5719.96C11209.9,5711.78 11207.5,5702.4 11205.9,5694.69C11205.4,5692.39 11205,5690.24 11204.8,5688.32C11204.1,5684.12 11202.8,5677.27 11202.8,5673.09C11202.7,5671.67 11202.8,5670.55 11203.1,5669.9C11203.3,5669.6 11203.5,5669.39 11203.7,5669.26C11203.7,5669.24 11203.7,5669.23 11203.7,5669.22C11203.6,5669.03 11203.4,5668.79 11203.2,5668.51C11201.5,5666.14 11196.6,5660.96 11194.7,5659.06C11194.5,5659.06 11194.4,5659.01 11194.3,5658.91C11194.1,5658.64 11194,5658.46 11193.9,5658.36C11193.8,5658.19 11193.8,5658.07 11193.8,5658.04C11193.8,5657.88 11193.9,5657.78 11194,5657.72C11194.1,5657.68 11194.2,5657.61 11194.4,5657.72C11194.5,5657.74 11194.5,5657.79 11194.6,5657.87L11200.9,5647.26ZM11201,5648.77L11195.3,5658.48C11196.4,5659.63 11198.7,5662 11200.7,5664.23C11202.4,5666.11 11203.9,5667.89 11204.4,5668.77C11204.6,5669.08 11204.6,5669.32 11204.6,5669.45C11204.6,5669.7 11204.4,5669.84 11204.2,5669.9C11204.1,5669.92 11204.1,5669.99 11204,5670.08C11203.9,5670.2 11203.9,5670.35 11203.8,5670.52C11203.6,5671.46 11203.6,5673.06 11203.7,5674.96C11204.1,5679.09 11205.1,5684.62 11205.6,5688.21C11205.9,5690.12 11206.3,5692.26 11206.8,5694.54C11208.4,5702.26 11210.7,5711.64 11212.2,5719.84C11213.5,5727.72 11214.5,5737.42 11215.7,5746.14C11216.2,5750.17 11216.9,5753.99 11217.6,5757.32C11219.2,5764.4 11222.9,5770.98 11225,5777.8C11225.6,5779.55 11226,5781.32 11226.3,5783.12C11227.2,5788.24 11228.3,5794.04 11228.3,5799.45C11228.4,5803.42 11227.9,5807.17 11226.3,5810.3C11222.3,5818.13 11221.3,5824.03 11221.7,5828.4C11222.1,5834.19 11225,5837.22 11226.5,5838.43C11226.1,5836.35 11225.4,5831.53 11226.8,5826.17C11227.9,5822.31 11229.9,5818.17 11233.9,5814.58C11236.3,5812.46 11237.8,5808.35 11239,5806.7C11239.4,5806.21 11239.7,5805.91 11240,5805.83C11240.2,5805.79 11240.3,5805.82 11240.4,5805.9C11240.6,5805.99 11240.6,5806.11 11240.6,5806.24C11240.1,5811.56 11242.3,5816.2 11245.4,5820.09C11250.3,5826.04 11257.5,5830.22 11261.6,5832.27C11259.2,5830.21 11255.7,5826.74 11253.2,5822.28C11250.7,5817.92 11249.1,5812.62 11250.3,5806.77C11251.5,5801.18 11251.7,5795.22 11251.4,5789.9C11251,5780.49 11249.3,5773.06 11249.3,5773.06L11249.3,5773.03C11248.5,5766.49 11247.7,5757.35 11247.4,5749.36C11247.2,5742.37 11247.2,5736.25 11247.8,5733.49C11248,5732.8 11247.7,5731.43 11247.2,5729.58C11246.2,5725.77 11244.1,5720 11241.6,5713.86C11236.7,5701.62 11230.3,5687.88 11228.7,5685.18C11226.8,5682.21 11219.7,5672.34 11213.2,5663.78C11208.2,5657.21 11203.6,5651.4 11202.1,5650.11C11201.5,5649.62 11201.2,5649.17 11201,5648.77Z" style="fill:rgb(92,43,38);"/>
                    </g>
                    <g transform="matrix(0.984804,0,0,1.51125,6169.88,-5533.37)">
                        <path d="M10380,6399C10382,6404.67 10388.5,6414.76 10392,6423C10395.7,6431.67 10400.5,6441.2 10402,6451C10403.8,6463.17 10403.7,6484.83 10403,6496C10402.6,6503.51 10386.1,6520.56 10386.1,6520.56C10386.1,6520.56 10411.6,6502.26 10413.5,6494.15C10425.4,6443.31 10410.7,6438 10408,6424C10405.5,6410.82 10400.7,6393.67 10398,6385C10396.6,6380.44 10395,6371.33 10392,6372C10389,6372.67 10382,6384.5 10380,6389C10378.6,6392.05 10378.9,6395.86 10380,6399Z" style="fill:rgb(163,43,38);"/>
                        <path d="M10379.7,6399.11C10380.1,6400.51 10380.9,6402.19 10381.9,6404.03C10384.7,6409.66 10389,6416.92 10391.7,6423.12C10393.9,6428.36 10396.5,6433.91 10398.6,6439.64C10399.9,6443.38 10401.1,6447.19 10401.6,6451.05C10402.4,6455.93 10402.8,6462.34 10403,6468.98C10403.3,6478.88 10403,6489.31 10402.6,6495.98C10402.5,6498.65 10400.2,6502.55 10397.5,6506.44C10392.5,6513.4 10385.8,6520.33 10385.8,6520.33C10385.7,6520.46 10385.7,6520.66 10385.8,6520.79C10385.9,6520.92 10386.1,6520.94 10386.3,6520.83C10386.3,6520.83 10399,6511.74 10407.2,6503.52C10410.6,6500.02 10413.3,6496.66 10413.9,6494.22C10417.5,6478.49 10418.7,6467.11 10418.4,6458.48C10418,6446.41 10414.9,6439.7 10412.2,6434.01C10410.6,6430.6 10409.1,6427.57 10408.4,6423.94C10407.2,6417.84 10405.5,6410.88 10403.8,6404.32C10401.8,6396.68 10399.8,6389.57 10398.4,6384.91C10397.5,6382.17 10396.6,6377.81 10395.4,6374.89C10394.8,6373.63 10394.2,6372.63 10393.6,6372.1C10393.1,6371.7 10392.5,6371.54 10391.9,6371.67C10391.4,6371.78 10390.8,6372.17 10390.1,6372.78C10389.2,6373.59 10388.2,6374.8 10387.2,6376.21C10384.2,6380.26 10380.9,6386.02 10379.7,6388.87C10379,6390.44 10378.7,6392.21 10378.7,6394C10378.7,6395.75 10379.1,6397.51 10379.7,6399.11ZM10388.9,6518.04C10392.5,6515.34 10398.6,6510.56 10403.9,6505.72C10408.5,6501.41 10412.5,6497.05 10413.1,6494.07C10416.8,6478.42 10417.9,6467.09 10417.7,6458.49C10417.3,6446.56 10414.2,6439.92 10411.5,6434.29C10409.9,6430.83 10408.3,6427.74 10407.6,6424.06C10406.5,6417.97 10404.8,6411.03 10403.1,6404.48C10401.1,6396.85 10399.1,6389.75 10397.6,6385.09C10396.8,6382.38 10395.9,6378.04 10394.7,6375.14C10394.3,6374.2 10393.9,6373.41 10393.4,6372.9C10393,6372.47 10392.6,6372.23 10392.1,6372.33C10391.6,6372.45 10390.9,6372.96 10390.2,6373.7C10389.1,6374.82 10387.8,6376.47 10386.6,6378.3C10384,6382.1 10381.4,6386.69 10380.3,6389.13C10379.7,6390.62 10379.4,6392.3 10379.4,6393.99C10379.5,6395.67 10379.8,6397.36 10380.3,6398.89C10380.8,6400.28 10381.6,6401.92 10382.5,6403.74C10385.4,6409.38 10389.7,6416.66 10392.3,6422.88C10394.6,6428.12 10397.2,6433.68 10399.3,6439.42C10400.7,6443.2 10401.8,6447.06 10402.4,6450.95C10403.1,6455.85 10403.5,6462.29 10403.7,6468.96C10404,6478.89 10403.8,6489.33 10403.4,6496.02C10403.2,6498.77 10400.9,6502.8 10398.1,6506.81C10395,6511.09 10391.3,6515.36 10388.9,6518.04Z" style="fill:rgb(92,43,38);"/>
                    </g>
                    <g transform="matrix(0.984804,0,0,1.40528,6169.88,-4858.13)">
                        <path d="M10379,6344C10370.2,6341.5 10349.7,6336.33 10336,6336C10323.6,6335.7 10310.9,6339.11 10300,6345C10288,6351.5 10272,6364.67 10264,6375C10257,6384.01 10254.2,6395.82 10252,6407C10249.7,6418.83 10249.8,6435.83 10250,6446C10250.1,6453.4 10251.8,6462.67 10253,6468C10253.8,6471.51 10255.4,6474.79 10257,6478C10259.3,6482.67 10265,6501.68 10268.8,6507.01C10272.6,6512.18 10277.8,6517.18 10281.8,6521.01C10285.3,6524.29 10292.8,6530.01 10292.8,6530.01C10292.8,6530.01 10283,6518.68 10279.8,6512.01C10276.7,6505.35 10272.5,6486.59 10272,6479C10271.5,6471.33 10273.3,6462.83 10275,6455C10276.7,6447.17 10283.1,6429.98 10287.5,6426.49C10295,6420.6 10303.7,6416.33 10311,6415.49C10317.4,6414.77 10323.7,6413.89 10330,6412.49C10337.5,6410.83 10348.7,6408.16 10356,6405.49C10362.3,6403.2 10372.8,6399.74 10376.8,6397.41C10379,6396.1 10381.2,6394.52 10382.8,6392.41C10385.4,6388.74 10387.8,6385 10390,6380C10391.8,6375.92 10393.2,6371.44 10393,6367C10392.8,6362.17 10390.8,6354.33 10389,6351C10387.7,6348.65 10381.6,6344.73 10379,6344Z" style="fill:rgb(171,43,38);stroke:rgb(92,43,38);stroke-width:0.73px;"/>
                    </g>
                    <g transform="matrix(0.984804,0,0,1.40528,6169.88,-4858.13)">
                        <path d="M10332,6352C10332,6352 10344,6347.77 10356.6,6347.5C10362.2,6347.38 10368,6348.04 10372.9,6350.22C10373,6350.27 10373.2,6350.21 10373.2,6350.09C10373.3,6349.98 10373.2,6349.84 10373.1,6349.78C10368.1,6347.64 10362.3,6347.03 10356.6,6347.22C10343.9,6347.63 10332,6352 10332,6352Z" style="fill:rgb(92,43,38);"/>
                    </g>
                    <g transform="matrix(0.984804,0,0,1.40528,6169.88,-4858.13)">
                        <path d="M10332,6396.02C10332,6396.02 10350.3,6390.16 10365.1,6382.33C10370.6,6379.43 10375.6,6376.26 10379.1,6373.01C10381.1,6371.06 10382.6,6369.08 10383.3,6367.12C10383.4,6366.93 10383.3,6366.72 10383.1,6366.65C10382.9,6366.59 10382.7,6366.69 10382.7,6366.88C10382,6368.76 10380.6,6370.66 10378.6,6372.54C10375.3,6375.8 10370.3,6378.99 10364.9,6381.93C10350.2,6389.92 10332,6395.98 10332,6395.98C10332,6395.98 10332,6395.99 10332,6396.01C10332,6396.02 10332,6396.03 10332,6396.02Z" style="fill:rgb(92,43,38);"/>
                    </g>
                    <g transform="matrix(1.07121,0,0,1.52857,5279.85,-5643.76)">
                        <path d="M10301,6392C10301,6392 10289.3,6401.06 10285,6407C10280.3,6413.5 10275.8,6422.52 10273,6431C10270.2,6439.5 10270,6449.33 10268,6458C10266.1,6466.43 10260.4,6494.6 10258.2,6500.44C10256.9,6504.08 10254.4,6507.44 10252.2,6510.44C10250.2,6513.31 10245.2,6518.44 10245.2,6518.44C10245.2,6518.44 10251.9,6508.25 10253.2,6502.44C10254.9,6495.1 10257.4,6466.34 10258,6457C10258.7,6446.67 10258.5,6431.83 10260,6423C10261.1,6416.35 10264.2,6409.83 10267,6404C10269.7,6398.34 10273.1,6392.96 10277,6388C10281.2,6382.67 10292,6372 10292,6372" style="fill:rgb(171,43,38);"/>
                        <path d="M10245.7,6517.84C10246.5,6517.02 10248,6515.37 10249.5,6513.68C10250.5,6512.52 10251.5,6511.33 10252.2,6510.39C10253.5,6508.58 10254.9,6506.65 10256.1,6504.6C10256.9,6503.25 10257.6,6501.85 10258.2,6500.41C10258.9,6498.35 10260.1,6493.53 10261.4,6487.77C10263.8,6477.18 10266.6,6463.43 10267.9,6457.97C10269.3,6451.92 10269.8,6445.31 10270.9,6438.98C10271.4,6436.22 10272,6433.52 10272.8,6430.95C10274.2,6426.8 10276,6422.53 10278,6418.49C10280.1,6414.23 10282.4,6410.22 10284.8,6406.87C10286.2,6404.9 10288.5,6402.59 10290.8,6400.38C10295.6,6395.88 10300.8,6391.79 10300.8,6391.79C10301,6391.7 10301.1,6391.72 10301.2,6391.84C10301.3,6391.95 10301.3,6392.12 10301.2,6392.21C10301.2,6392.21 10295.9,6396.27 10291.1,6400.72C10288.8,6402.91 10286.6,6405.18 10285.2,6407.13C10282.8,6410.45 10280.4,6414.43 10278.3,6418.66C10276.3,6422.68 10274.5,6426.93 10273.2,6431.05C10272.3,6433.61 10271.7,6436.3 10271.2,6439.03C10270,6445.36 10269.5,6451.98 10268.1,6458.03C10266.9,6463.49 10264,6477.23 10261.6,6487.81C10260.3,6493.58 10259.1,6498.41 10258.3,6500.46C10257.8,6501.91 10257.1,6503.32 10256.3,6504.67C10255,6506.73 10253.6,6508.67 10252.3,6510.48C10251.6,6511.42 10250.6,6512.61 10249.6,6513.78C10247.5,6516.17 10245.3,6518.49 10245.3,6518.49C10245.3,6518.51 10245.2,6518.52 10245.2,6518.49C10245.2,6518.47 10245.2,6518.43 10245.2,6518.4C10245.2,6518.4 10248.2,6513.83 10250.6,6509.07C10251.7,6506.73 10252.7,6504.34 10253.2,6502.42C10253.9,6499.27 10254.8,6492.14 10255.6,6484.31C10256.6,6473.94 10257.6,6462.31 10257.9,6456.99C10258.3,6450.02 10258.4,6441 10258.9,6433.16C10259.1,6429.37 10259.4,6425.86 10259.9,6422.98C10260.3,6420.32 10261.1,6417.69 10262,6415.12C10263.4,6411.22 10265.2,6407.45 10266.9,6403.93C10268.2,6401.1 10269.8,6398.33 10271.4,6395.65C10273.1,6392.97 10274.9,6390.38 10276.9,6387.9C10278.3,6386.1 10280.4,6383.69 10282.7,6381.29C10287.1,6376.57 10291.9,6371.86 10291.9,6371.86C10291.9,6371.78 10292.1,6371.79 10292.1,6371.86C10292.2,6371.94 10292.2,6372.06 10292.1,6372.14C10292.1,6372.14 10287.4,6376.83 10282.9,6381.54C10280.7,6383.93 10278.5,6386.32 10277.1,6388.11C10275.2,6390.58 10273.4,6393.16 10271.7,6395.82C10270,6398.49 10268.5,6401.24 10267.1,6404.07C10265.4,6407.57 10263.6,6411.33 10262.3,6415.21C10261.3,6417.77 10260.6,6420.39 10260.1,6423.02C10259.6,6425.89 10259.3,6429.4 10259.1,6433.17C10258.6,6441.02 10258.6,6450.04 10258.1,6457.01C10257.8,6462.33 10256.8,6473.95 10255.7,6484.33C10254.9,6492.17 10254,6499.3 10253.3,6502.45C10252.9,6504.38 10251.9,6506.78 10250.7,6509.14C10248.8,6512.84 10246.6,6516.43 10245.7,6517.84Z" style="fill:rgb(92,43,38);"/>
                    </g>
                    <g transform="matrix(0.984804,0,0,1.40528,6169.88,-4858.13)">
                        <path d="M10253,6421C10254.4,6415.64 10255.5,6410.18 10257,6404.83C10257.6,6402.54 10258.3,6400.26 10259.1,6398.03C10260.7,6393.53 10262.3,6388.9 10264.4,6384.49C10265.7,6381.55 10267.3,6378.72 10269.1,6376.09C10271.5,6372.74 10274.3,6369.42 10277.3,6366.34C10280.4,6363.32 10283.7,6360.54 10287.1,6358.19C10290.2,6356.14 10294.2,6354.03 10298.4,6352.03C10305.1,6348.87 10312.1,6346.03 10316.1,6344.31C10317.1,6343.9 10318.1,6343.56 10319,6343.25C10321.4,6342.54 10323.8,6342.04 10326.1,6341.35C10326.3,6341.29 10326.4,6341.09 10326.4,6340.9C10326.3,6340.7 10326.1,6340.59 10325.9,6340.65C10323.6,6341.36 10321.2,6341.87 10318.8,6342.6C10317.8,6342.91 10316.8,6343.27 10315.9,6343.69C10311.9,6345.44 10304.8,6348.33 10298.2,6351.54C10294,6353.57 10289.9,6355.73 10286.9,6357.81C10283.4,6360.19 10280.1,6363.01 10277.1,6366.07C10274,6369.18 10271.2,6372.53 10268.9,6375.91C10267,6378.57 10265.5,6381.43 10264.1,6384.39C10262.1,6388.82 10260.5,6393.47 10258.9,6397.98C10258.1,6400.22 10257.5,6402.5 10256.9,6404.81C10255.4,6410.16 10254.4,6415.63 10253,6421Z" style="fill:rgb(92,43,38);"/>
                    </g>
                </g>
            </g>
        </g>
    </g>
</svg>
