<?xml version="1.0" encoding="UTF-8" standalone="no"?>
<!DOCTYPE svg PUBLIC "-//W3C//DTD SVG 1.1//EN" "http://www.w3.org/Graphics/SVG/1.1/DTD/svg11.dtd">
<svg width="100%" height="100%" viewBox="0 0 304 388" version="1.1" xmlns="http://www.w3.org/2000/svg" xmlns:xlink="http://www.w3.org/1999/xlink" xml:space="preserve" xmlns:serif="http://www.serif.com/" style="fill-rule:evenodd;clip-rule:evenodd;stroke-linejoin:round;stroke-miterlimit:2;">
    <g transform="matrix(1,0,0,1,-12569,-2437)">
        <g id="Plan-de-travail8" serif:id="Plan de travail8" transform="matrix(0.806366,0,0,1.01305,5793.91,-626.478)">
            <rect x="8402" y="3024" width="377" height="383" style="fill:none;"/>
            <clipPath id="_clip1">
                <rect x="8402" y="3024" width="377" height="383"/>
            </clipPath>
            <g clip-path="url(#_clip1)">
                <g transform="matrix(2.17653,0,0,2.99968,-33328.1,-9342.76)">
                    <g transform="matrix(0.594567,0,0,0.320226,18681.1,3519.95)">
                        <ellipse cx="972.5" cy="2107" rx="117.5" ry="174" style="fill:rgb(241,198,170);"/>
                    </g>
                    <g transform="matrix(0.924228,0.042238,-0.0731333,0.533786,1359.55,1028.41)">
                        <path d="M19650,4375C19649.5,4377.33 19646.3,4371.17 19645,4369C19643.7,4366.84 19643.3,4364 19642,4362C19640.7,4360.04 19637.7,4359.24 19637,4357C19636,4354 19637.2,4348.17 19636,4344C19634.8,4339.83 19630.9,4336.37 19630,4332C19629,4327.33 19630.3,4320.33 19630,4316C19629.7,4312.61 19629.5,4309.04 19628,4306C19626,4302 19627.7,4292.03 19629.2,4290.64C19633.6,4286.51 19637.3,4288.13 19638,4286C19639,4282.83 19635.1,4278.18 19636.1,4272.85C19636.8,4269.03 19645.2,4261.14 19646.3,4261.64C19647.5,4262.14 19644,4266.17 19645,4267C19646,4267.83 19648.8,4261.92 19650,4259C19651.3,4255.67 19650,4255.37 19652.7,4252.24C19655.7,4248.74 19659.2,4249.5 19660,4250C19660.8,4250.5 19669.1,4246.79 19673.3,4244.46C19677.1,4242.34 19680.9,4239.62 19685.3,4239.46C19689.8,4239.29 19696.1,4241.96 19700.3,4243.46C19703.8,4244.72 19707.8,4245 19710,4245C19711.9,4245 19711.1,4240.47 19713,4240C19715.7,4239.33 19721.8,4240.06 19726,4241C19730.5,4242 19735.5,4244.83 19740,4246C19744.2,4247.1 19749,4246.67 19753,4248C19757,4249.32 19760.7,4251.83 19764,4254C19767.2,4256.07 19771.5,4258.5 19773,4261C19774.4,4263.29 19771.3,4267 19773,4269C19774.7,4271 19780.8,4270.5 19783,4273C19785.2,4275.5 19784.5,4280.51 19786,4284C19788,4288.67 19793.5,4297 19795,4301C19795.8,4303.19 19795.5,4306.33 19795,4308C19794.6,4309.36 19792.3,4309.61 19792,4311C19791.5,4313.5 19792.7,4320 19792,4323C19791.5,4325.35 19788.3,4326.61 19788,4329C19787.7,4331.83 19789.5,4336.31 19790,4340C19790.5,4343.83 19792.2,4349 19791,4352C19789.8,4355 19785.3,4358.33 19783,4358C19780.7,4357.67 19778.9,4352.71 19777,4350C19773.7,4345.33 19771.9,4322.18 19769.7,4317.18C19767.4,4311.68 19757.9,4303.02 19752.7,4300.18C19748.6,4297.94 19743.1,4298.65 19738.7,4300.18C19731.1,4302.85 19718.2,4310.51 19706.5,4312.73C19694.1,4315.06 19673,4309.73 19664.5,4310.73C19660.5,4311.19 19653.8,4318.02 19653,4319.52C19651.7,4322.02 19649.9,4328.75 19650,4333.52C19650.2,4339.36 19647,4348.17 19648,4355C19649,4361.63 19650.5,4372.67 19650,4375Z" style="fill:rgb(42,28,19);"/>
                    </g>
                    <g transform="matrix(0.401787,-0.0201063,0.0348132,0.232051,16155.4,3369.59)">
                        <path d="M7233,4153C7233,4153 7255.34,4141.03 7266.34,4141.03C7277.34,4141.03 7288.56,4145.6 7299.34,4149.03C7310.34,4152.53 7332.34,4162.03 7332.34,4162.03C7332.34,4162.03 7338.85,4159.01 7340.34,4156.03C7341.84,4153.03 7344.36,4150.19 7341,4148C7334.33,4143.67 7312.17,4137 7300,4134C7289.56,4131.43 7278.34,4127.07 7268,4130C7256.83,4133.17 7233,4153 7233,4153Z" style="fill:rgb(42,28,19);"/>
                    </g>
                    <g transform="matrix(-0.401787,-0.0201063,-0.0348132,0.232051,22364.7,3369.87)">
                        <path d="M7233.34,4149.03C7233.34,4149.03 7255,4145 7266,4145C7277,4145 7288.56,4145.6 7299.34,4149.03C7310.34,4152.53 7332.34,4162.03 7332.34,4162.03C7332.34,4162.03 7338.85,4159.01 7340.34,4156.03C7341.84,4153.03 7344.36,4150.19 7341,4148C7334.33,4143.67 7312.17,4137 7300,4134C7289.56,4131.43 7278.34,4127.07 7268,4130C7256.83,4133.17 7233.34,4149.03 7233.34,4149.03Z" style="fill:rgb(42,28,19);"/>
                    </g>
                    <g transform="matrix(0.337284,0,0,0.122525,18284.7,3896.26)">
                        <path d="M2984.99,2658C2984.19,2708.91 2942.6,2750 2891.5,2750C2840.4,2750 2798.81,2708.91 2798.01,2658L2984.99,2658Z" style="fill:rgb(195,136,111);"/>
                    </g>
                    <g transform="matrix(0.264334,0,0,0.0960243,18495.7,3967.81)">
                        <path d="M2984.99,2658C2984.19,2708.91 2942.6,2750 2891.5,2750C2840.4,2750 2798.81,2708.91 2798.01,2658L2984.99,2658Z" style="fill:rgb(243,241,240);"/>
                    </g>
                    <g transform="matrix(0.870604,0.0617537,-0.109876,0.516698,18837.9,3065.4)">
                        <ellipse cx="833.5" cy="2084" rx="12.5" ry="31" style="fill:rgb(241,198,170);"/>
                    </g>
                    <g transform="matrix(0.873471,-0.0463169,0.0824098,0.5184,18284.7,3152.86)">
                        <ellipse cx="833.5" cy="2084" rx="12.5" ry="31" style="fill:rgb(241,198,170);"/>
                    </g>
                    <g transform="matrix(-0.138909,-0.0277864,-0.048111,0.0802269,19329.8,3992.5)">
                        <path d="M117.422,2617.33C123.261,2600.83 139.009,2589 157.5,2589C175.991,2589 191.739,2600.83 197.578,2617.33C191.739,2608.4 175.991,2602 157.5,2602C139.009,2602 123.261,2608.4 117.422,2617.33Z" style="fill:rgb(222,165,130);"/>
                    </g>
                    <g transform="matrix(-0.126944,-0.104444,-0.18084,0.0733166,19675,4020.56)">
                        <path d="M117.422,2617.33C123.261,2600.83 139.009,2589 157.5,2589C175.991,2589 191.739,2600.83 197.578,2617.33C191.739,2608.4 175.991,2602 157.5,2602C139.009,2602 123.261,2608.4 117.422,2617.33Z" style="fill:rgb(222,165,130);"/>
                    </g>
                    <g transform="matrix(-0.0767325,0,0,0.0498813,19860.6,3331.42)">
                        <path d="M7195.17,17312.8C7163.46,17301.4 7323.82,17207.9 7418.07,17207.9C7512.32,17207.9 7650.22,17307.3 7640.97,17312.8C7614.51,17328.5 7495.39,17281.3 7409.63,17281.3C7323.87,17281.3 7202.74,17315.6 7195.17,17312.8Z" style="fill:rgb(109,81,64);"/>
                    </g>
                    <g transform="matrix(0.0767325,0,0,0.0498813,18659.5,3330.86)">
                        <path d="M7195.17,17312.8C7163.46,17301.4 7323.82,17207.9 7418.07,17207.9C7512.32,17207.9 7650.22,17307.3 7640.97,17312.8C7614.51,17328.5 7495.39,17281.3 7409.63,17281.3C7323.87,17281.3 7202.74,17315.6 7195.17,17312.8Z" style="fill:rgb(109,81,64);"/>
                    </g>
                    <g transform="matrix(0.138909,-0.0277864,0.048111,0.0802269,19189.3,3991.57)">
                        <path d="M117.422,2617.33C123.261,2600.83 139.009,2589 157.5,2589C175.991,2589 191.739,2600.83 197.578,2617.33C191.739,2608.4 175.991,2602 157.5,2602C139.009,2602 123.261,2608.4 117.422,2617.33Z" style="fill:rgb(222,165,130);"/>
                    </g>
                    <g transform="matrix(0.126944,-0.104444,0.18084,0.0733166,18844.1,4019.64)">
                        <path d="M117.422,2617.33C123.261,2600.83 139.009,2589 157.5,2589C175.991,2589 191.739,2600.83 197.578,2617.33C191.739,2608.4 175.991,2602 157.5,2602C139.009,2602 123.261,2608.4 117.422,2617.33Z" style="fill:rgb(222,165,130);"/>
                    </g>
                </g>
            </g>
        </g>
    </g>
</svg>
