<?xml version="1.0" encoding="UTF-8" standalone="no"?>
<!DOCTYPE svg PUBLIC "-//W3C//DTD SVG 1.1//EN" "http://www.w3.org/Graphics/SVG/1.1/DTD/svg11.dtd">
<svg width="100%" height="100%" viewBox="0 0 332 388" version="1.1" xmlns="http://www.w3.org/2000/svg" xmlns:xlink="http://www.w3.org/1999/xlink" xml:space="preserve" xmlns:serif="http://www.serif.com/" style="fill-rule:evenodd;clip-rule:evenodd;stroke-linejoin:round;stroke-miterlimit:2;">
    <g transform="matrix(1,0,0,1,-13924,-2429)">
        <g id="Plan-de-travail8" serif:id="Plan de travail8" transform="matrix(0.880637,0,0,1.01305,6524.89,-634.478)">
            <rect x="8402" y="3024" width="377" height="383" style="fill:none;"/>
            <g transform="matrix(1.70399,0,0,1.5827,-32795.6,-3103.97)">
                <g transform="matrix(0.73976,0,0,0.645642,23569.3,2637.53)">
                    <ellipse cx="972.5" cy="2107" rx="117.5" ry="174" style="fill:rgb(241,198,170);"/>
                </g>
                <g transform="matrix(-0.0954707,0,0,0.100571,25036.8,2247.49)">
                    <path d="M7195.17,17312.8C7163.46,17301.4 7323.82,17207.9 7418.07,17207.9C7512.32,17207.9 7650.22,17307.3 7640.97,17312.8C7614.51,17328.5 7495.39,17262.7 7409.63,17262.7C7323.87,17262.7 7202.74,17315.6 7195.17,17312.8Z" style="fill:rgb(109,81,64);"/>
                </g>
                <g transform="matrix(0.0954707,0,0,0.100571,23542.4,2247.49)">
                    <path d="M7195.17,17312.8C7163.46,17301.4 7323.82,17207.9 7418.07,17207.9C7512.32,17207.9 7650.22,17307.3 7640.97,17312.8C7614.51,17328.5 7495.39,17262.7 7409.63,17262.7C7323.87,17262.7 7202.74,17315.6 7195.17,17312.8Z" style="fill:rgb(109,81,64);"/>
                </g>
                <g transform="matrix(0.810916,0,0,0.758944,4098.52,1406.01)">
                    <path d="M24912,3385C24910.2,3383.67 24910.3,3376.17 24912,3373C24913.7,3369.83 24918.2,3367.38 24922,3366C24928,3363.83 24940.7,3360.67 24948,3360C24954,3359.45 24967.8,3363.7 24972,3368.03C24978.5,3374.69 24982.2,3393.97 24982.2,3393.97C24982.2,3393.97 24972.2,3382.63 24965.2,3378.8C24959.6,3375.72 24952.6,3375.64 24946.2,3375.8C24939.4,3375.96 24928.5,3384.49 24923,3385.82C24919.2,3386.74 24913.8,3386.33 24912,3385Z" style="fill:rgb(198,128,54);"/>
                </g>
                <g transform="matrix(-0.810916,0,0,0.758944,44479.2,1405.09)">
                    <path d="M24912,3385C24910.2,3383.67 24910.3,3376.17 24912,3373C24913.7,3369.83 24918.2,3367.38 24922,3366C24928,3363.83 24940.7,3360.67 24948,3360C24954,3359.45 24967.8,3363.7 24972,3368.03C24978.5,3374.69 24982.2,3393.97 24982.2,3393.97C24982.2,3393.97 24972.2,3382.63 24965.2,3378.8C24959.6,3375.72 24952.6,3375.64 24946.2,3375.8C24939.4,3375.96 24928.5,3384.49 24923,3385.82C24919.2,3386.74 24913.8,3386.33 24912,3385Z" style="fill:rgb(198,128,54);"/>
                </g>
                <g transform="matrix(0.74973,0,0,0.670947,23339.6,2234.13)">
                    <path d="M1243.91,2747.37C1245.63,2746.92 1249.41,2732.4 1265.38,2731.54C1282.57,2730.61 1283.98,2746.65 1286.71,2747.37C1291.15,2748.55 1296.81,2745.64 1300.76,2742C1305.43,2737.7 1320.9,2710.08 1325.62,2704.78C1329.86,2700 1380.36,2657.95 1380.36,2657.95C1380.36,2657.95 1375.17,2682.81 1374.75,2693.28C1374.46,2700.26 1349.96,2750.6 1342.2,2760.4C1333.77,2771.05 1320.71,2780.6 1310.94,2787.69C1302.98,2793.46 1293.17,2796.68 1283.52,2798.56C1278.31,2799.58 1272.02,2800.19 1265.73,2800.44C1265.58,2800.44 1265.44,2800.41 1265.31,2800.35C1265.17,2800.41 1265.03,2800.44 1264.89,2800.44C1258.6,2800.19 1252.31,2799.58 1247.1,2798.56C1237.45,2796.68 1227.64,2793.46 1219.68,2787.69C1209.9,2780.6 1196.85,2771.05 1188.42,2760.4C1180.66,2750.6 1156.16,2700.26 1155.87,2693.28C1155.44,2682.81 1154.26,2653.86 1154.26,2653.86C1154.26,2653.86 1207.4,2699.97 1211.64,2704.74C1216.35,2710.05 1225.19,2737.7 1229.86,2742C1233.81,2745.64 1239.46,2748.55 1243.91,2747.37Z" style="fill:rgb(198,128,54);"/>
                </g>
                <g transform="matrix(0.938946,0,0,0.878768,760.194,661.887)">
                    <path d="M25063,3692C25068,3691.5 25074.3,3689.35 25080,3690C25085.8,3690.67 25093.5,3691.53 25098,3696C25103.3,3701.33 25109,3713 25112,3722C25115,3730.94 25115.6,3740.58 25116,3750C25116.7,3764.5 25114.7,3805 25116,3809C25117.3,3813 25122.3,3785.5 25124,3774C25125.6,3762.76 25124.8,3738.33 25126,3740C25127.2,3741.67 25130,3772.33 25131,3784C25131.7,3792.64 25131.8,3803.5 25132,3810C25132.1,3814.33 25134.1,3826.83 25135.1,3823C25136.1,3819.17 25137,3797.17 25138,3787C25138.8,3778.71 25136.7,3761.83 25138,3762C25139.3,3762.17 25144.7,3782.17 25146,3788C25146.7,3790.93 25144.7,3797.5 25146,3797C25147.3,3796.5 25153.3,3784.33 25154,3785C25154.7,3785.67 25150.6,3795.54 25150,3801C25149.3,3806.83 25149.1,3803.92 25147.2,3809.59C25145.4,3815.26 25154.4,3820.01 25151.4,3822.51C25149.6,3824 25146.5,3832.89 25145.5,3835C25144.4,3837.5 25144.6,3845.13 25143.5,3850C25142.3,3855 25136.8,3860 25136.5,3865C25136.1,3870 25125.1,3880.46 25127.9,3883.12C25130.8,3885.79 25144.2,3885.42 25148.2,3885.16C25153.4,3884.83 25175.1,3886.29 25174.5,3878C25174.4,3876.47 25165.2,3877 25162.5,3875C25159.9,3873.03 25157.5,3866.83 25158.5,3866C25159.5,3865.17 25166.2,3870.5 25168.5,3870C25170.9,3869.5 25173.3,3865.56 25172.5,3863C25171.5,3859.83 25164,3854.67 25162.5,3851C25161.3,3847.9 25162.8,3844.27 25163.5,3841C25164.4,3837.33 25159.3,3832.74 25161.3,3829C25163.5,3824.83 25165.8,3821.1 25167.2,3816C25168.7,3810.33 25167.2,3802 25167.2,3795C25167.2,3787.5 25163.9,3778.94 25163,3771C25161.3,3757 25158,3727.83 25153,3711C25148.7,3696.42 25141.8,3679 25133,3670C25124.7,3661.56 25109.2,3658.83 25100,3657C25092.8,3655.56 25084.5,3659.67 25078,3659C25072,3658.39 25067,3653.26 25061,3653C25053.2,3652.67 25039.8,3654.5 25031,3657C25022.8,3659.31 25015,3663.18 25008,3668C25000.5,3673.17 24996.2,3713.29 24999,3710C25003.2,3705.17 25011.8,3695.67 25017,3692C25020.7,3689.38 25026,3688.67 25030,3688C25033.6,3687.4 25041.7,3684.39 25041,3688C25040.2,3692.5 25027.5,3704.83 25025,3715C25022.5,3725.33 25025,3749.5 25026,3750C25027,3750.5 25027,3727.5 25031,3718C25035,3708.5 25044.7,3697.33 25050,3693C25053.4,3690.26 25058.7,3692.43 25063,3692Z" style="fill:rgb(207,142,68);"/>
                </g>
                <g transform="matrix(0.382211,0,0,0.247036,23184.9,3385.01)">
                    <path d="M2984.99,2658C2984.19,2708.91 2942.6,2750 2891.5,2750C2840.4,2750 2798.81,2708.91 2798.01,2658L2984.99,2658Z" style="fill:rgb(195,136,111);"/>
                </g>
                <g transform="matrix(0.299543,0,0,0.193605,23423.9,3529.29)">
                    <path d="M2984.99,2658C2984.19,2708.91 2942.6,2750 2891.5,2750C2840.4,2750 2798.81,2708.91 2798.01,2658L2984.99,2658Z" style="fill:rgb(243,241,240);"/>
                </g>
                <g transform="matrix(1.08677,-0.0933846,0.102534,1.0452,23079,1896.49)">
                    <ellipse cx="833.5" cy="2084" rx="12.5" ry="31" style="fill:rgb(241,198,170);"/>
                </g>
                <g transform="matrix(-0.172831,-0.0560233,-0.0598598,0.161754,24379.4,3589.38)">
                    <path d="M117.422,2617.33C123.261,2600.83 139.009,2589 157.5,2589C175.991,2589 191.739,2600.83 197.578,2617.33C191.739,2608.4 175.991,2602 157.5,2602C139.009,2602 123.261,2608.4 117.422,2617.33Z" style="fill:rgb(222,165,130);"/>
                </g>
                <g transform="matrix(-0.157944,-0.21058,-0.225001,0.147822,24808.9,3645.96)">
                    <path d="M117.422,2617.33C123.261,2600.83 139.009,2589 157.5,2589C175.991,2589 191.739,2600.83 197.578,2617.33C191.739,2608.4 175.991,2602 157.5,2602C139.009,2602 123.261,2608.4 117.422,2617.33Z" style="fill:rgb(222,165,130);"/>
                </g>
                <g transform="matrix(-0.938946,0,0,0.878768,47812.5,681.098)">
                    <path d="M25079,3647.55C25073.1,3646.94 25071.8,3662.32 25077.5,3662.97C25083.3,3663.64 25099.8,3672.79 25104.2,3677.26C25109.6,3682.6 25110.6,3696.34 25113.6,3705.34C25116.6,3714.29 25124.8,3738.33 25126,3740C25127.2,3741.67 25125.8,3772.33 25126.8,3784C25127.6,3792.64 25127.7,3803.5 25127.8,3810C25127.9,3814.33 25130,3826.83 25131,3823C25132,3819.17 25136,3797.17 25137,3787C25137.8,3778.71 25136.7,3761.83 25138,3762C25139.3,3762.17 25139.7,3788.31 25137.9,3793.98C25136,3799.64 25137.2,3807.52 25138.9,3816.26C25139.3,3818.56 25131.9,3844.34 25131,3846.45C25129.8,3848.95 25129.1,3861.42 25134.1,3861.45C25139.7,3861.49 25135.2,3857.86 25143,3857.92C25150.6,3857.97 25159.1,3867.96 25167.7,3862.45C25170.6,3860.65 25168,3855.72 25168.7,3852.45C25169.6,3848.78 25169.8,3832.74 25171.7,3829C25173.9,3824.83 25167.2,3802 25167.2,3795C25167.2,3787.5 25166,3776.86 25165.1,3768.92C25163.4,3754.92 25158,3727.83 25153,3711C25148.7,3696.42 25141.8,3679 25133,3670C25124.7,3661.56 25110.2,3647.38 25101,3645.55C25093.8,3644.11 25085.5,3648.22 25079,3647.55Z" style="fill:rgb(207,142,68);"/>
                </g>
                <g transform="matrix(1.08321,0.124509,-0.136708,1.04177,23761.5,1721.07)">
                    <ellipse cx="833.5" cy="2084" rx="12.5" ry="31" style="fill:rgb(241,198,170);"/>
                </g>
                <g transform="matrix(0.172831,-0.0560233,0.0598598,0.161754,24198.7,3588.42)">
                    <path d="M117.422,2617.33C123.261,2600.83 139.009,2589 157.5,2589C175.991,2589 191.739,2600.83 197.578,2617.33C191.739,2608.4 175.991,2602 157.5,2602C139.009,2602 123.261,2608.4 117.422,2617.33Z" style="fill:rgb(222,165,130);"/>
                </g>
                <g transform="matrix(0.157944,-0.21058,0.225001,0.147822,23769.2,3645)">
                    <path d="M117.422,2617.33C123.261,2600.83 139.009,2589 157.5,2589C175.991,2589 191.739,2600.83 197.578,2617.33C191.739,2608.4 175.991,2602 157.5,2602C139.009,2602 123.261,2608.4 117.422,2617.33Z" style="fill:rgb(222,165,130);"/>
                </g>
                <g transform="matrix(0.891584,0,0,0.606177,23160.7,2431.5)">
                    <path d="M1264.52,2623.45C1264.68,2623.4 1264.86,2623.37 1265.03,2623.35C1271.7,2622.72 1277.76,2620.68 1280.71,2619.05C1287.76,2615.17 1307.12,2628.96 1310.14,2632.24C1313.49,2635.87 1322.08,2663.43 1322.08,2663.43C1322.08,2663.43 1311.21,2651.23 1303.91,2649.09C1296.02,2646.77 1283.59,2645.26 1277.11,2644.99C1273,2644.83 1269.13,2647.67 1265.02,2647.5C1264.85,2647.49 1264.68,2647.47 1264.52,2647.42C1264.36,2647.47 1264.19,2647.49 1264.02,2647.5C1259.9,2647.67 1256.04,2644.83 1251.93,2644.99C1245.44,2645.26 1233.02,2646.77 1225.12,2649.09C1217.83,2651.23 1210.58,2663.43 1210.58,2663.43C1210.58,2663.43 1215.55,2635.87 1218.89,2632.24C1221.92,2628.96 1241.27,2615.17 1248.33,2619.05C1251.28,2620.68 1257.33,2622.72 1264,2623.35C1264.18,2623.37 1264.35,2623.4 1264.52,2623.45Z" style="fill:rgb(198,128,54);"/>
                </g>
            </g>
        </g>
    </g>
</svg>
