<?xml version="1.0" encoding="UTF-8" standalone="no"?>
<!DOCTYPE svg PUBLIC "-//W3C//DTD SVG 1.1//EN" "http://www.w3.org/Graphics/SVG/1.1/DTD/svg11.dtd">
<svg width="100%" height="100%" viewBox="0 0 307 388" version="1.1" xmlns="http://www.w3.org/2000/svg" xmlns:xlink="http://www.w3.org/1999/xlink" xml:space="preserve" xmlns:serif="http://www.serif.com/" style="fill-rule:evenodd;clip-rule:evenodd;stroke-linejoin:round;stroke-miterlimit:2;">
    <g transform="matrix(1,0,0,1,-16098,-2418)">
        <g id="Plan-de-travail8" serif:id="Plan de travail8" transform="matrix(0.814324,0,0,1.01305,9256.05,-645.478)">
            <rect x="8402" y="3024" width="377" height="383" style="fill:none;"/>
            <clipPath id="_clip1">
                <rect x="8402" y="3024" width="377" height="383"/>
            </clipPath>
            <g clip-path="url(#_clip1)">
                <g transform="matrix(2.1984,0,0,6.33835,-24039.4,-47237.4)">
                    <g transform="matrix(0.606917,0,0,0.157794,14252.4,7629.03)">
                        <ellipse cx="972.5" cy="2107" rx="117.5" ry="174" style="fill:rgb(241,198,170);"/>
                    </g>
                    <g transform="matrix(0.621723,0,0,0.173337,5683.15,6309.13)">
                        <path d="M14681,9410C14691.3,9404.5 14704.7,9402.67 14716,9404C14727.3,9405.33 14738.3,9416.5 14749,9418C14759.4,9419.46 14771.2,9412.5 14780,9413C14787.8,9413.44 14795.7,9416.5 14802,9421C14808.3,9425.5 14813.1,9433.32 14818,9440C14823,9446.83 14829.7,9454.33 14832,9462C14834.3,9469.65 14832,9478.17 14832,9486C14832,9493.67 14831.2,9501.38 14832,9509C14832.8,9516.83 14833.3,9530.17 14837,9533C14840.7,9535.83 14849.8,9529.17 14854,9526C14857.8,9523.09 14860.9,9518.69 14862,9514C14863.3,9508.17 14862.3,9496.33 14862,9491C14861.8,9487.93 14861.2,9484.81 14860,9482C14858.7,9479 14853.3,9473.33 14854,9473C14854.7,9472.67 14858.4,9476.79 14860.4,9478.79C14861.6,9480.06 14864.8,9493.44 14864.8,9493.44C14864.8,9493.44 14868.2,9476.17 14867,9472C14865.3,9466.33 14859.2,9456.33 14856,9451C14853.7,9447.1 14851.9,9432.01 14850.4,9429.03C14847.9,9424.03 14833,9403.67 14833,9401C14833,9398.33 14840,9404.5 14842,9407C14844,9409.47 14845,9416 14845,9416C14845,9416 14848.8,9404 14848,9400C14847.2,9396.31 14842.7,9394.17 14840,9392C14837.6,9390.02 14831.7,9388.17 14832,9387C14832.3,9385.83 14838.6,9385.15 14842,9385C14845.8,9384.83 14855,9386 14855,9386C14855,9386 14848.7,9381.27 14845,9380C14840.7,9378.5 14834,9378.99 14829,9377C14823.5,9374.83 14817.6,9370.45 14812,9367C14805.5,9363 14797.8,9355.5 14790,9353C14782.2,9350.5 14772.8,9350.5 14765,9352C14757.2,9353.5 14749.2,9361.5 14743,9362C14737.5,9362.45 14733.2,9356.83 14728,9355C14721.8,9352.83 14713.6,9349.15 14706,9349C14697.5,9348.83 14684.7,9351 14677,9354C14670.4,9356.6 14665,9363.33 14660,9367C14655.8,9370.12 14651.3,9372.94 14647,9376C14642.3,9379.33 14632,9387 14632,9387C14632,9387 14639.6,9386.47 14643,9385C14646.5,9383.5 14652.3,9377.33 14653,9378C14653.7,9378.67 14649.8,9384.42 14647,9386.59C14644.2,9388.75 14639,9392.45 14636,9394.65C14631,9398.32 14629.2,9404.83 14624.2,9411C14620,9416.24 14616.1,9424 14613.2,9428C14611.5,9430.51 14611.3,9432.42 14609.7,9435C14607.5,9438.33 14601.3,9466.59 14600.7,9470C14599.5,9475.83 14605.8,9507 14607.7,9514C14609.5,9521 14596.5,9537 14598,9537C14599.5,9537 14612.1,9517 14614.2,9514C14615.5,9512.27 14610,9517.13 14611,9519C14613.7,9523.83 14621,9537 14623,9543C14624.3,9546.8 14621.8,9557.83 14623,9555C14624.2,9552.17 14628.4,9535.82 14630,9526C14631.8,9514.5 14630.5,9498.94 14634,9486C14638,9471.17 14646.2,9449.67 14654,9437C14660.7,9426.18 14670.7,9415.5 14681,9410Z" style="fill:rgb(146,132,123);"/>
                    </g>
                    <g transform="matrix(0.265043,0,0,0.0485954,14077.4,7844.69)">
                        <path d="M2984.99,2658C2984.19,2708.91 2942.6,2750 2891.5,2750C2840.4,2750 2798.81,2708.91 2798.01,2658L2984.99,2658Z" style="fill:rgb(195,136,111);"/>
                    </g>
                    <g transform="matrix(0.207718,0,0,0.0380848,14243.1,7873.07)">
                        <path d="M2984.99,2658C2984.19,2708.91 2942.6,2750 2891.5,2750C2840.4,2750 2798.81,2708.91 2798.01,2658L2984.99,2658Z" style="fill:rgb(243,241,240);"/>
                    </g>
                    <g transform="matrix(0.696775,0.0238584,-0.0879376,0.199625,14520.4,7527.52)">
                        <ellipse cx="833.5" cy="2084" rx="12.5" ry="31" style="fill:rgb(241,198,170);"/>
                    </g>
                    <g transform="matrix(0.69907,-0.0178944,0.0659554,0.200283,14046.1,7560.95)">
                        <ellipse cx="833.5" cy="2084" rx="12.5" ry="31" style="fill:rgb(241,198,170);"/>
                    </g>
                    <g transform="matrix(0.111174,-0.0107352,0.0385049,0.0309955,14801.6,7885.34)">
                        <path d="M117.422,2617.33C123.261,2600.83 139.009,2589 157.5,2589C175.991,2589 191.739,2600.83 197.578,2617.33C191.739,2608.4 175.991,2602 157.5,2602C139.009,2602 123.261,2608.4 117.422,2617.33Z" style="fill:rgb(222,165,130);"/>
                    </g>
                    <g transform="matrix(0.101598,-0.0403516,0.144732,0.0283257,14525.4,7896.18)">
                        <path d="M117.422,2617.33C123.261,2600.83 139.009,2589 157.5,2589C175.991,2589 191.739,2600.83 197.578,2617.33C191.739,2608.4 175.991,2602 157.5,2602C139.009,2602 123.261,2608.4 117.422,2617.33Z" style="fill:rgb(222,165,130);"/>
                    </g>
                    <g transform="matrix(-0.111174,-0.0107352,-0.0385049,0.0309955,14882.6,7885.34)">
                        <path d="M117.422,2617.33C123.261,2600.83 139.009,2589 157.5,2589C175.991,2589 191.739,2600.83 197.578,2617.33C191.739,2608.4 175.991,2602 157.5,2602C139.009,2602 123.261,2608.4 117.422,2617.33Z" style="fill:rgb(222,165,130);"/>
                    </g>
                    <g transform="matrix(-0.101598,-0.0403516,-0.144732,0.0283257,15158.9,7896.18)">
                        <path d="M117.422,2617.33C123.261,2600.83 139.009,2589 157.5,2589C175.991,2589 191.739,2600.83 197.578,2617.33C191.739,2608.4 175.991,2602 157.5,2602C139.009,2602 123.261,2608.4 117.422,2617.33Z" style="fill:rgb(222,165,130);"/>
                    </g>
                    <g transform="matrix(-0.0783265,0,0,0.0245795,15456.4,7536.13)">
                        <path d="M7195.17,17312.8C7163.46,17301.4 7323.82,17207.9 7418.07,17207.9C7512.32,17207.9 7650.22,17307.3 7640.97,17312.8C7614.51,17328.5 7495.39,17264.3 7409.63,17264.3C7323.87,17264.3 7202.74,17315.6 7195.17,17312.8Z" style="fill:rgb(109,81,64);"/>
                    </g>
                    <g transform="matrix(0.0783265,0,0,0.0245795,14230.4,7535.86)">
                        <path d="M7195.17,17312.8C7163.46,17301.4 7323.82,17207.9 7418.07,17207.9C7512.32,17207.9 7650.22,17307.3 7640.97,17312.8C7614.51,17328.5 7495.39,17264.3 7409.63,17264.3C7323.87,17264.3 7202.74,17315.6 7195.17,17312.8Z" style="fill:rgb(109,81,64);"/>
                    </g>
                    <g transform="matrix(0.60578,0,0,0.165567,14076.1,7526.42)">
                        <path d="M1265.31,2744.67C1265.37,2744.65 1265.44,2744.64 1265.51,2744.64C1271.58,2744.46 1276.51,2745.29 1278.39,2748.37C1280.26,2751.44 1278.93,2749.71 1279.74,2754.24C1280.56,2758.77 1309.06,2753.82 1319.57,2742.77C1327.27,2734.68 1358.54,2679.88 1363.25,2674.58C1367.49,2669.8 1379.35,2669.6 1379.35,2669.6C1379.35,2669.6 1375.17,2682.81 1374.75,2693.28C1374.46,2700.26 1349.96,2750.6 1342.2,2760.4C1333.77,2771.05 1320.71,2780.6 1310.94,2787.69C1302.98,2793.46 1293.17,2796.68 1283.52,2798.56C1278.31,2799.58 1272.02,2800.19 1265.73,2800.44C1265.58,2800.44 1265.44,2800.41 1265.31,2800.35C1265.17,2800.41 1265.03,2800.44 1264.89,2800.44C1258.6,2800.19 1252.31,2799.58 1247.1,2798.56C1237.45,2796.68 1227.64,2793.46 1219.68,2787.69C1209.9,2780.6 1196.85,2771.05 1188.42,2760.4C1180.66,2750.6 1156.16,2700.26 1155.87,2693.28C1155.44,2682.81 1150.38,2665.93 1150.38,2665.93C1150.38,2665.93 1162.67,2665.03 1166.91,2669.8C1171.62,2675.1 1212.37,2732.25 1218.48,2741.02C1222.78,2747.2 1250.06,2758.77 1250.87,2754.24C1251.69,2749.71 1250.36,2751.44 1252.23,2748.37C1254.1,2745.29 1259.04,2744.46 1265.11,2744.64C1265.17,2744.64 1265.24,2744.65 1265.31,2744.67Z" style="fill:rgb(146,132,123);"/>
                    </g>
                    <g transform="matrix(1.66492,-0.0379812,0.13623,0.464182,14565.4,7922)">
                        <path d="M170.114,88.607C168.919,88.474 167.281,88.774 167.114,87.607C166.947,86.44 167.424,84.86 169,84C170.833,83 175.167,82.5 178,83C180.833,83.5 186.324,85.264 188.824,86.764C191.283,88.239 193,92 193,92C193,92 185.755,88.071 183.748,87.784C181.674,87.488 175.479,87.534 175.219,87.534C173.191,87.534 171.614,88.774 170.114,88.607Z" style="fill:rgb(146,132,123);"/>
                    </g>
                    <g transform="matrix(-1.66492,-0.0379812,-0.13623,0.464182,15120.8,7921.78)">
                        <path d="M170.114,88.607C168.919,88.474 167.281,88.774 167.114,87.607C166.947,86.44 167.424,84.86 169,84C170.833,83 175.167,82.5 178,83C180.833,83.5 186.324,85.264 188.824,86.764C191.283,88.239 193,92 193,92C193,92 185.755,88.071 183.748,87.784C181.674,87.488 175.479,87.534 175.219,87.534C173.191,87.534 171.614,88.774 170.114,88.607Z" style="fill:rgb(146,132,123);"/>
                    </g>
                    <g transform="matrix(0.554422,0,0,0.124445,14142.1,7642.78)">
                        <path d="M1264.52,2631.07C1264.68,2631.02 1264.86,2630.99 1265.03,2630.97C1271.7,2630.35 1277.76,2628.3 1280.71,2626.67C1287.76,2622.79 1309.82,2636.58 1312.85,2639.86C1316.2,2643.49 1327.2,2663.96 1327.2,2663.96C1327.2,2663.96 1313.91,2656.27 1306.62,2654.13C1298.72,2651.81 1283.59,2650.3 1277.11,2650.04C1273,2649.87 1269.13,2652.71 1265.02,2652.54C1264.85,2652.53 1264.68,2652.51 1264.52,2652.46C1264.36,2652.51 1264.19,2652.53 1264.02,2652.54C1259.9,2652.71 1256.04,2649.87 1251.93,2650.04C1245.44,2650.3 1228.96,2651.81 1221.07,2654.13C1213.77,2656.27 1200.49,2663.96 1200.49,2663.96C1200.49,2663.96 1211.49,2643.49 1214.84,2639.86C1217.86,2636.58 1241.27,2622.79 1248.33,2626.67C1251.28,2628.3 1257.33,2630.35 1264,2630.97C1264.18,2630.99 1264.35,2631.02 1264.52,2631.07Z" style="fill:rgb(146,132,123);"/>
                    </g>
                </g>
            </g>
        </g>
    </g>
</svg>
