<?xml version="1.0" encoding="UTF-8" standalone="no"?>
<!DOCTYPE svg PUBLIC "-//W3C//DTD SVG 1.1//EN" "http://www.w3.org/Graphics/SVG/1.1/DTD/svg11.dtd">
<svg width="100%" height="100%" viewBox="0 0 251 385" version="1.1" xmlns="http://www.w3.org/2000/svg" xmlns:xlink="http://www.w3.org/1999/xlink" xml:space="preserve" xmlns:serif="http://www.serif.com/" style="fill-rule:evenodd;clip-rule:evenodd;stroke-linejoin:round;stroke-miterlimit:2;">
  <g transform="matrix(1,0,0,1,-18118,-2410)">
    <g id="Plan-de-travail8" serif:id="Plan de travail8" transform="matrix(0.665782,0,0,1.00522,12524.1,-629.791)">
      <rect x="8402" y="3024" width="377" height="383" style="fill:none;"/>
      <clipPath id="_clip1">
        <rect x="8402" y="3024" width="377" height="383"/>
      </clipPath>
      <g clip-path="url(#_clip1)">
        <g transform="matrix(3.27591,0,0,1.06024,-34189.2,-8212.28)">
          <g transform="matrix(0.421213,0,0,1.00458,12649.2,8666.94)">
            <ellipse cx="972.5" cy="2107" rx="117.5" ry="174" style="fill:rgb(241,198,170);"/>
          </g>
          <g transform="matrix(0.699897,-0.215096,0.0893614,1.39939,-4313.72,10377.5)">
            <path d="M24241.5,4031.59C24240,4031.59 24237.8,4020.5 24236,4015C24234.7,4011 24238.6,4012.03 24237.5,4007.94C24236.4,4003.27 24238.6,3997.7 24238.3,3995.69C24238,3993.03 24247.6,3952.88 24249.3,3949.8C24251.1,3946.83 24258.6,3931.64 24261.1,3929.65C24265.1,3926.36 24277.7,3914.05 24281.6,3912.88C24285.2,3911.77 24306,3900.52 24321.5,3901.66C24333.6,3902.54 24357.4,3914.15 24360,3915.66C24363.2,3917.49 24372.6,3924.5 24374.8,3927.53C24378.4,3932.42 24386,3948.9 24386.4,3951.7C24386.9,3954.34 24391.4,3973.62 24390.6,3978.12C24389.9,3981.95 24389.1,4001.23 24387.4,4006.27C24385.5,4011.61 24385.3,4022.27 24382.6,4026.27C24380.9,4028.89 24385.2,4028.33 24384,4031C24382.9,4033.52 24383.6,4036.76 24382,4039C24379.5,4042.5 24379.9,4037.11 24376.4,4041.27C24373.3,4044.95 24368.6,4057.77 24368.4,4053.27C24368.2,4048.77 24372.7,4038.72 24373.7,4027.88C24374.5,4019.25 24374.8,3985.7 24373.8,3980.2C24373.3,3977.38 24375.9,3956.71 24365.4,3951.33C24351.4,3944.12 24325.3,3950.75 24315.5,3949.36C24303.7,3947.67 24280.8,3931.69 24264.2,3941.49C24260.8,3943.55 24253.3,3969.7 24252.2,3972.56C24251.3,3974.72 24246,3987.73 24244.1,3999.47C24243.2,4005.78 24242.1,4017.2 24241.9,4018.72C24241.2,4024.39 24243,4031.59 24241.5,4031.59Z" style="fill:rgb(40,39,38);"/>
          </g>
          <g transform="matrix(0.492639,-0.141231,0.0690135,1.00815,804.189,10091.8)">
            <path d="M24399.9,3979.42C24399.4,3982.12 24319.9,3954.21 24269.9,3955.35C24248.7,3955.84 24229.1,3988.09 24229,3987C24228.8,3984.98 24230.3,3983.01 24230,3981C24229.7,3978.33 24227,3974 24227,3971C24227,3968.15 24229.1,3965.71 24230,3963C24231.2,3959.33 24233.9,3948.38 24234.6,3944.88C24235,3942.59 24233.7,3940.06 24234.6,3937.88C24235.9,3934.38 24239.7,3926.05 24242.6,3923.88C24245,3922.05 24249.8,3922.8 24252.8,3922.35C24256.1,3921.85 24264.7,3914.1 24267.6,3912.88C24270.7,3911.55 24277.7,3914.05 24281.6,3912.88C24285.2,3911.77 24295,3907.34 24298.8,3907.03C24303,3906.7 24314.6,3914.26 24318.8,3913.76C24322.8,3913.28 24336.4,3911.88 24339.6,3912.88C24342.7,3913.88 24357.4,3914.15 24360,3915.66C24363.2,3917.49 24373,3921.44 24375.2,3924.46C24378.9,3929.36 24388.5,3939.82 24388.7,3942.66C24388.8,3945.25 24396.9,3947.91 24398.6,3949.88C24400.7,3952.38 24400.5,3955.34 24401.5,3959.3C24402.5,3963.64 24400.7,3974.92 24399.9,3979.42Z" style="fill:rgb(40,39,38);"/>
          </g>
          <g transform="matrix(1,0,0,1,504.67,645.55)">
            <g transform="matrix(1.19857,0,0,1.89888,-2953.05,-8929.18)">
              <path d="M12939,10094C12934.8,10093.9 12934.4,10094.3 12934,10096C12933.6,10097.6 12930.7,10105 12939,10105C12947.3,10105 12944.7,10097.7 12944,10096C12943.4,10094.6 12941.3,10094 12939,10094" style="fill:rgb(40,39,38);"/>
            </g>
            <g transform="matrix(0.24814,0,0,0.29282,11837.8,9440.12)">
              <path d="M2984.99,2658C2984.19,2708.91 2942.6,2750 2891.5,2750C2840.4,2750 2798.81,2708.91 2798.01,2658L2984.99,2658Z" style="fill:rgb(195,136,111);"/>
            </g>
            <g transform="matrix(0.19447,0,0,0.229486,11993,9611.13)">
              <path d="M2984.99,2658C2984.19,2708.91 2942.6,2750 2891.5,2750C2840.4,2750 2798.81,2708.91 2798.01,2658L2984.99,2658Z" style="fill:rgb(243,241,240);"/>
            </g>
            <g transform="matrix(0.578836,0,0,1.02657,11822.3,7496.04)">
              <path d="M1264.52,2631C1264.68,2630.95 1264.86,2630.91 1265.03,2630.9C1271.7,2630.27 1277.76,2628.22 1280.71,2626.6C1287.76,2622.72 1307.12,2636.5 1310.14,2639.78C1313.49,2643.42 1322.08,2663.43 1322.08,2663.43C1322.08,2663.43 1311.21,2651.23 1303.91,2649.09C1296.02,2646.77 1283.59,2645.26 1277.11,2644.99C1273,2644.83 1269.13,2647.67 1265.02,2647.5C1264.85,2647.49 1264.68,2647.47 1264.52,2647.42C1264.36,2647.47 1264.19,2647.49 1264.02,2647.5C1259.9,2647.67 1256.04,2644.83 1251.93,2644.99C1245.44,2645.26 1233.02,2646.77 1225.12,2649.09C1217.83,2651.23 1210.58,2663.43 1210.58,2663.43C1210.58,2663.43 1215.55,2643.42 1218.89,2639.78C1221.92,2636.5 1241.27,2622.72 1248.33,2626.6C1251.28,2628.22 1257.33,2630.27 1264,2630.9C1264.18,2630.91 1264.35,2630.95 1264.52,2631Z" style="fill:rgb(40,39,38);"/>
            </g>
          </g>
          <g transform="matrix(0.409932,0,0,0.923198,12540.8,8374.04)">
            <path d="M1251.73,2752.83C1256.18,2751.65 1274.44,2751.65 1278.89,2752.83C1283.33,2754.01 1296.81,2751.1 1300.76,2747.45C1305.43,2743.15 1322.21,2714.17 1326.92,2708.87C1331.16,2704.09 1379.06,2663.4 1379.06,2663.4C1379.06,2663.4 1375.17,2682.81 1374.75,2693.28C1374.46,2700.26 1349.96,2750.6 1342.2,2760.4C1333.77,2771.05 1320.71,2780.6 1310.94,2787.69C1302.98,2793.46 1293.17,2796.68 1283.52,2798.56C1278.31,2799.58 1272.02,2800.19 1265.73,2800.44C1265.58,2800.44 1265.44,2800.41 1265.31,2800.35C1265.17,2800.41 1265.03,2800.44 1264.89,2800.44C1258.6,2800.19 1252.31,2799.58 1247.1,2798.56C1237.45,2796.68 1227.64,2793.46 1219.68,2787.69C1209.9,2780.6 1196.85,2771.05 1188.42,2760.4C1180.66,2750.6 1159.93,2713.28 1158.11,2706.5C1155.02,2695.01 1145.97,2661.37 1145.97,2661.37C1145.97,2661.37 1204.79,2702.7 1209.03,2707.47C1213.75,2712.77 1225.19,2743.15 1229.86,2747.45C1233.81,2751.1 1247.28,2754.01 1251.73,2752.83Z" style="fill:rgb(40,39,38);"/>
          </g>
          <g transform="matrix(1.03169,0,0,1,438.237,697.54)">
            <g transform="matrix(-1.27147,-0.328852,-0.160695,2.60197,12451.9,9881.71)">
              <path d="M170,90C168.806,89.867 167.167,90.167 167,89C166.833,87.833 167.217,86.498 168.793,85.639C170.626,84.639 174.96,84.139 177.793,84.639C180.626,85.139 183.385,86.557 185.885,88.057C188.344,89.533 188.969,93.156 188.969,93.156C188.969,93.156 186.03,90.251 184.023,89.965C181.69,89.631 178.333,89 176,89C173.972,89 171.5,90.167 170,90Z" style="fill:rgb(40,39,38);"/>
            </g>
            <g transform="matrix(1.27147,-0.328852,0.160695,2.60197,12015.3,9883.15)">
              <path d="M170,90C168.806,89.867 167.167,90.167 167,89C166.833,87.833 167.217,86.498 168.793,85.639C170.626,84.639 174.96,84.139 177.793,84.639C180.626,85.139 183.385,86.557 185.885,88.057C188.344,89.533 188.969,93.156 188.969,93.156C188.969,93.156 186.03,90.251 184.023,89.965C181.69,89.631 178.333,89 176,89C173.972,89 171.5,90.167 170,90Z" style="fill:rgb(40,39,38);"/>
            </g>
            <g transform="matrix(-0.0600777,0,0,0.138382,12702.1,7689.11)">
              <path d="M7195.17,17312.8C7163.46,17301.4 7323.82,17207.9 7418.07,17207.9C7512.32,17207.9 7650.22,17307.3 7640.97,17312.8C7614.51,17328.5 7495.39,17262.7 7409.63,17262.7C7323.87,17262.7 7202.74,17315.6 7195.17,17312.8Z" style="fill:rgb(109,81,64);"/>
            </g>
            <g transform="matrix(0.0600777,0,0,0.138382,11764.6,7689.11)">
              <path d="M7195.17,17312.8C7163.46,17301.4 7323.82,17207.9 7418.07,17207.9C7512.32,17207.9 7650.22,17307.3 7640.97,17312.8C7614.51,17328.5 7495.39,17262.7 7409.63,17262.7C7323.87,17262.7 7202.74,17315.6 7195.17,17312.8Z" style="fill:rgb(109,81,64);"/>
            </g>
          </g>
          <g transform="matrix(1,0,0,1,504.581,645.55)">
            <g transform="matrix(0.502926,0.194153,-0.0843122,1.43008,12361.1,7016.26)">
              <ellipse cx="833.5" cy="2084" rx="12.5" ry="31" style="fill:rgb(241,198,170);"/>
            </g>
            <g transform="matrix(0.0817401,-0.0734089,0.0247405,0.223761,12528.2,9594.08)">
              <path d="M117.422,2617.33C123.261,2600.83 139.009,2589 157.5,2589C175.991,2589 191.739,2600.83 197.578,2617.33C191.739,2608.4 175.991,2602 157.5,2602C139.009,2602 123.261,2608.4 117.422,2617.33Z" style="fill:rgb(222,165,130);"/>
            </g>
            <g transform="matrix(0.0778403,-0.286319,0.102063,0.208086,12326.8,9662.83)">
              <path d="M117.422,2617.33C123.261,2600.83 139.009,2589 157.5,2589C175.991,2589 191.739,2600.83 197.578,2617.33C191.739,2608.4 175.991,2602 157.5,2602C139.009,2602 123.261,2608.4 117.422,2617.33Z" style="fill:rgb(222,165,130);"/>
            </g>
          </g>
          <g transform="matrix(1,0,0,1,503.169,645.55)">
            <g transform="matrix(-0.476865,0.194153,0.0799432,1.43008,12735.2,7016.26)">
              <ellipse cx="833.5" cy="2084" rx="12.5" ry="31" style="fill:rgb(241,198,170);"/>
            </g>
            <g transform="matrix(-0.0775044,-0.0734089,-0.0234585,0.223761,12576.7,9594.08)">
              <path d="M117.422,2617.33C123.261,2600.83 139.009,2589 157.5,2589C175.991,2589 191.739,2600.83 197.578,2617.33C191.739,2608.4 175.991,2602 157.5,2602C139.009,2602 123.261,2608.4 117.422,2617.33Z" style="fill:rgb(222,165,130);"/>
            </g>
            <g transform="matrix(-0.0738067,-0.286319,-0.0967744,0.208086,12767.7,9662.83)">
              <path d="M117.422,2617.33C123.261,2600.83 139.009,2589 157.5,2589C175.991,2589 191.739,2600.83 197.578,2617.33C191.739,2608.4 175.991,2602 157.5,2602C139.009,2602 123.261,2608.4 117.422,2617.33Z" style="fill:rgb(222,165,130);"/>
            </g>
          </g>
        </g>
      </g>
    </g>
  </g>
</svg>
