<?xml version="1.0" encoding="UTF-8" standalone="no"?>
<!DOCTYPE svg PUBLIC "-//W3C//DTD SVG 1.1//EN" "http://www.w3.org/Graphics/SVG/1.1/DTD/svg11.dtd">
<svg width="100%" height="100%" viewBox="0 0 292 388" version="1.1" xmlns="http://www.w3.org/2000/svg" xmlns:xlink="http://www.w3.org/1999/xlink" xml:space="preserve" xmlns:serif="http://www.serif.com/" style="fill-rule:evenodd;clip-rule:evenodd;stroke-linejoin:round;stroke-miterlimit:2;">
    <g transform="matrix(1,0,0,1,-13579,-2429)">
        <g id="Plan-de-travail8" serif:id="Plan de travail8" transform="matrix(0.774536,0,0,1.01305,7071.35,-634.478)">
            <rect x="8402" y="3024" width="377" height="383" style="fill:none;"/>
            <g transform="matrix(1.74701,0,0,1.42715,-33843.4,-2463.48)">
                <g transform="matrix(0.73976,0,0,0.645642,23569.3,2637.53)">
                    <ellipse cx="972.5" cy="2107" rx="117.5" ry="174" style="fill:rgb(241,198,170);"/>
                </g>
                <g transform="matrix(1.19019,-0.156047,0.166732,1.11391,-5312.19,3285.23)">
                    <path d="M24241.5,4031.59C24240,4031.59 24237.8,4020.5 24236,4015C24234.7,4011 24233,4007.09 24232,4003C24230.8,3998.33 24229.3,3990.67 24229,3987C24228.8,3984.98 24230.3,3983.01 24230,3981C24229.7,3978.33 24227,3974 24227,3971C24227,3968.15 24229.1,3965.71 24230,3963C24231.2,3959.33 24233.9,3948.38 24234.6,3944.88C24235,3942.59 24233.7,3940.06 24234.6,3937.88C24235.9,3934.38 24239.7,3926.05 24242.6,3923.88C24245,3922.05 24249.8,3922.8 24252.8,3922.35C24256.1,3921.85 24264.7,3914.1 24267.6,3912.88C24270.7,3911.55 24277.7,3914.05 24281.6,3912.88C24285.2,3911.77 24295,3907.34 24298.8,3907.03C24303,3906.7 24314.6,3914.26 24318.8,3913.76C24322.8,3913.28 24336.4,3911.88 24339.6,3912.88C24342.7,3913.88 24357.4,3914.15 24360,3915.66C24363.2,3917.49 24373,3921.44 24375.2,3924.46C24378.9,3929.36 24388.5,3939.82 24388.7,3942.66C24388.8,3945.25 24396.9,3947.91 24398.6,3949.88C24400.7,3952.38 24400.5,3955.34 24401.5,3959.3C24402.5,3963.64 24400.7,3974.92 24399.9,3979.42C24399.2,3983.26 24396.5,3986.56 24395.9,3990.42C24395.2,3994.92 24397.6,4001.38 24395.9,4006.42C24394,4011.76 24391.7,4019 24389,4023C24387.3,4025.62 24385.2,4028.33 24384,4031C24382.9,4033.52 24383.6,4036.76 24382,4039C24379.5,4042.5 24379.9,4037.11 24376.4,4041.27C24373.3,4044.95 24368.6,4057.77 24368.4,4053.27C24368.2,4048.77 24367,4035.83 24368,4025C24368.8,4016.36 24368,4004.5 24367,3999C24366.5,3996.18 24364.2,3993.17 24362,3992C24359.8,3990.83 24356.2,3991.85 24354.2,3990.35C24352.2,3988.85 24351.7,3984.67 24350,3983C24349.3,3982.35 24340.8,3975.79 24333.4,3973.78C24324.6,3971.37 24316.6,3973.55 24315,3974C24312,3974.83 24310.3,3976.62 24307.2,3977.35C24303.7,3978.18 24297.7,3978.68 24294.2,3977.35C24290.7,3976.02 24289.5,3972.33 24286,3971C24282.5,3969.67 24276.3,3970.83 24273,3971C24270.6,3971.12 24267.9,3970.54 24266,3972C24262.8,3974.5 24256.2,3982.17 24254,3986C24252.5,3988.63 24254.2,3992.33 24253,3995C24251.8,3997.67 24248.1,3999.15 24247,4002C24245.7,4005.33 24245.5,4010.65 24245,4015C24244.3,4020.67 24243,4031.59 24241.5,4031.59Z" style="fill:rgb(45,22,7);"/>
                </g>
                <g transform="matrix(-2.02051,-0.238998,-0.255364,1.89102,24635.7,3845.2)">
                    <path d="M170,90C168.806,89.867 167.167,90.167 167,89C166.833,87.833 167.424,84.86 169,84C170.833,83 175.167,82.5 178,83C180.833,83.5 186.324,85.264 188.824,86.764C191.283,88.239 193,92 193,92C193,92 188.831,90.05 186.824,89.764C184.49,89.43 178.333,89 176,89C173.972,89 171.5,90.167 170,90Z" style="fill:rgb(45,22,7);"/>
                </g>
                <g transform="matrix(2.01376,-0.284601,0.304091,1.88469,23940,3853.96)">
                    <path d="M170,90C168.806,89.867 167.167,90.167 167,89C166.833,87.833 167.424,84.86 169,84C170.833,83 175.167,82.5 178,83C180.833,83.5 187.252,85.34 189.752,86.84C192.211,88.315 193,92 193,92C193,92 189.76,90.126 187.752,89.84C185.679,89.543 176.26,89 176,89C173.972,89 171.5,90.167 170,90Z" style="fill:rgb(45,22,7);"/>
                </g>
                <g transform="matrix(0.382211,0,0,0.247036,23184.9,3385.01)">
                    <path d="M2984.99,2658C2984.19,2708.91 2942.6,2750 2891.5,2750C2840.4,2750 2798.81,2708.91 2798.01,2658L2984.99,2658Z" style="fill:rgb(195,136,111);"/>
                </g>
                <g transform="matrix(0.299543,0,0,0.193605,23423.9,3529.29)">
                    <path d="M2984.99,2658C2984.19,2708.91 2942.6,2750 2891.5,2750C2840.4,2750 2798.81,2708.91 2798.01,2658L2984.99,2658Z" style="fill:rgb(243,241,240);"/>
                </g>
                <g transform="matrix(1.08677,-0.0933846,0.102534,1.0452,23076.1,1897.4)">
                    <ellipse cx="833.5" cy="2084" rx="12.5" ry="31" style="fill:rgb(241,198,170);"/>
                </g>
                <g transform="matrix(-0.172831,-0.0560233,-0.0598598,0.161754,24376.5,3590.29)">
                    <path d="M117.422,2617.33C123.261,2600.83 139.009,2589 157.5,2589C175.991,2589 191.739,2600.83 197.578,2617.33C191.739,2608.4 175.991,2602 157.5,2602C139.009,2602 123.261,2608.4 117.422,2617.33Z" style="fill:rgb(222,165,130);"/>
                </g>
                <g transform="matrix(-0.157944,-0.21058,-0.225001,0.147822,24806,3646.87)">
                    <path d="M117.422,2617.33C123.261,2600.83 139.009,2589 157.5,2589C175.991,2589 191.739,2600.83 197.578,2617.33C191.739,2608.4 175.991,2602 157.5,2602C139.009,2602 123.261,2608.4 117.422,2617.33Z" style="fill:rgb(222,165,130);"/>
                </g>
                <g transform="matrix(-0.0954707,0,0,0.100571,25036.8,2247.49)">
                    <path d="M7195.17,17312.8C7163.46,17301.4 7323.82,17207.9 7418.07,17207.9C7512.32,17207.9 7650.22,17307.3 7640.97,17312.8C7614.51,17328.5 7495.39,17262.7 7409.63,17262.7C7323.87,17262.7 7202.74,17315.6 7195.17,17312.8Z" style="fill:rgb(109,81,64);"/>
                </g>
                <g transform="matrix(0.0954707,0,0,0.100571,23542.4,2247.49)">
                    <path d="M7195.17,17312.8C7163.46,17301.4 7323.82,17207.9 7418.07,17207.9C7512.32,17207.9 7650.22,17307.3 7640.97,17312.8C7614.51,17328.5 7495.39,17262.7 7409.63,17262.7C7323.87,17262.7 7202.74,17315.6 7195.17,17312.8Z" style="fill:rgb(109,81,64);"/>
                </g>
                <g transform="matrix(1.08321,0.124509,-0.136708,1.04177,23764.4,1721.07)">
                    <ellipse cx="833.5" cy="2084" rx="12.5" ry="31" style="fill:rgb(241,198,170);"/>
                </g>
                <g transform="matrix(0.172831,-0.0560233,0.0598598,0.161754,24201.6,3588.42)">
                    <path d="M117.422,2617.33C123.261,2600.83 139.009,2589 157.5,2589C175.991,2589 191.739,2600.83 197.578,2617.33C191.739,2608.4 175.991,2602 157.5,2602C139.009,2602 123.261,2608.4 117.422,2617.33Z" style="fill:rgb(222,165,130);"/>
                </g>
                <g transform="matrix(0.157944,-0.21058,0.225001,0.147822,23772.2,3645)">
                    <path d="M117.422,2617.33C123.261,2600.83 139.009,2589 157.5,2589C175.991,2589 191.739,2600.83 197.578,2617.33C191.739,2608.4 175.991,2602 157.5,2602C139.009,2602 123.261,2608.4 117.422,2617.33Z" style="fill:rgb(222,165,130);"/>
                </g>
                <g transform="matrix(0.891584,0,0,0.606177,23160.7,2431.5)">
                    <path d="M1264.52,2631C1264.68,2630.95 1264.86,2630.91 1265.03,2630.9C1271.7,2630.27 1277.76,2628.22 1280.71,2626.6C1287.76,2622.72 1307.12,2636.5 1310.14,2639.78C1313.49,2643.42 1322.08,2663.43 1322.08,2663.43C1322.08,2663.43 1311.21,2651.23 1303.91,2649.09C1296.02,2646.77 1283.59,2645.26 1277.11,2644.99C1273,2644.83 1269.13,2647.67 1265.02,2647.5C1264.85,2647.49 1264.68,2647.47 1264.52,2647.42C1264.36,2647.47 1264.19,2647.49 1264.02,2647.5C1259.9,2647.67 1256.04,2644.83 1251.93,2644.99C1245.44,2645.26 1233.02,2646.77 1225.12,2649.09C1217.83,2651.23 1210.58,2663.43 1210.58,2663.43C1210.58,2663.43 1215.55,2643.42 1218.89,2639.78C1221.92,2636.5 1241.27,2622.72 1248.33,2626.6C1251.28,2628.22 1257.33,2630.27 1264,2630.9C1264.18,2630.91 1264.35,2630.95 1264.52,2631Z" style="fill:rgb(45,22,7);"/>
                </g>
                <g transform="matrix(0.74973,0,0,0.670947,23339.6,2234.13)">
                    <path d="M1251.73,2752.83C1256.18,2751.65 1274.44,2751.65 1278.89,2752.83C1283.33,2754.01 1296.81,2751.1 1300.76,2747.45C1305.43,2743.15 1322.21,2714.17 1326.92,2708.87C1331.16,2704.09 1379.06,2663.4 1379.06,2663.4C1379.06,2663.4 1375.17,2682.81 1374.75,2693.28C1374.46,2700.26 1349.96,2750.6 1342.2,2760.4C1333.77,2771.05 1320.71,2780.6 1310.94,2787.69C1302.98,2793.46 1293.17,2796.68 1283.52,2798.56C1278.31,2799.58 1272.02,2800.19 1265.73,2800.44C1265.58,2800.44 1265.44,2800.41 1265.31,2800.35C1265.17,2800.41 1265.03,2800.44 1264.89,2800.44C1258.6,2800.19 1252.31,2799.58 1247.1,2798.56C1237.45,2796.68 1227.64,2793.46 1219.68,2787.69C1209.9,2780.6 1196.85,2771.05 1188.42,2760.4C1180.66,2750.6 1156.16,2700.26 1155.87,2693.28C1155.44,2682.81 1151.56,2663.4 1151.56,2663.4C1151.56,2663.4 1204.79,2702.7 1209.03,2707.47C1213.75,2712.77 1225.19,2743.15 1229.86,2747.45C1233.81,2751.1 1247.28,2754.01 1251.73,2752.83Z" style="fill:rgb(45,22,7);"/>
                </g>
            </g>
        </g>
    </g>
</svg>
