<?xml version="1.0" encoding="UTF-8" standalone="no"?>
<!DOCTYPE svg PUBLIC "-//W3C//DTD SVG 1.1//EN" "http://www.w3.org/Graphics/SVG/1.1/DTD/svg11.dtd">
<svg width="100%" height="100%" viewBox="0 0 303 385" version="1.1" xmlns="http://www.w3.org/2000/svg" xmlns:xlink="http://www.w3.org/1999/xlink" xml:space="preserve" xmlns:serif="http://www.serif.com/" style="fill-rule:evenodd;clip-rule:evenodd;stroke-linejoin:round;stroke-miterlimit:2;">
  <g transform="matrix(1,0,0,1,-19482,-4781)">
    <g id="Plan-de-travail8" serif:id="Plan de travail8" transform="matrix(0.803714,0,0,1.00522,12729.2,1741.21)">
      <rect x="8402" y="3024" width="377" height="383" style="fill:none;"/>
      <g transform="matrix(0.835434,0,0,0.667291,-8978.33,-8878.75)">
        <g transform="matrix(1.60253,0,0,1.60843,19471.8,14741.8)">
          <ellipse cx="972.5" cy="2107" rx="117.5" ry="174" style="fill:rgb(241,198,170);"/>
        </g>
        <g transform="matrix(1.75198,0,0,1.41683,18814.9,14503.1)">
          <path d="M1264.52,2627.59C1264.68,2627.54 1264.86,2627.5 1265.03,2627.49C1271.7,2626.86 1277.76,2624.81 1280.71,2623.18C1287.76,2619.3 1307.12,2633.09 1310.14,2636.37C1313.49,2640.01 1324.49,2658.92 1324.49,2658.92C1324.49,2658.92 1311.21,2651.23 1303.91,2649.09C1296.02,2646.77 1283.59,2645.26 1277.11,2644.99C1273,2644.83 1269.13,2647.67 1265.02,2647.5C1264.85,2647.49 1264.68,2647.47 1264.52,2647.42C1264.36,2647.47 1264.19,2647.49 1264.02,2647.5C1259.9,2647.67 1256.04,2644.83 1251.93,2644.99C1245.44,2645.26 1233.02,2646.77 1225.12,2649.09C1217.83,2651.23 1204.55,2658.92 1204.55,2658.92C1204.55,2658.92 1215.55,2640.01 1218.89,2636.37C1221.92,2633.09 1241.27,2619.3 1248.33,2623.18C1251.28,2624.81 1257.33,2626.86 1264,2627.49C1264.18,2627.5 1264.35,2627.54 1264.52,2627.59Z" style="fill:rgb(56,34,23);"/>
        </g>
        <g transform="matrix(1.58931,0,0,1.56172,19019.7,14037.3)">
          <path d="M1265.31,2730.33C1265.37,2730.31 1265.44,2730.3 1265.51,2730.3C1271.58,2730.12 1281.47,2730.95 1283.34,2734.03C1285.21,2737.1 1278.93,2744.21 1279.74,2748.74C1280.56,2753.27 1283.78,2760.02 1288.22,2761.2C1292.67,2762.38 1299.47,2759.47 1303.43,2755.82C1308.1,2751.52 1311.54,2740.67 1316.25,2735.37C1320.49,2730.59 1379.06,2663.4 1379.06,2663.4C1379.06,2663.4 1375.17,2682.81 1374.75,2693.28C1374.46,2700.26 1349.96,2750.6 1342.2,2760.4C1333.77,2771.05 1320.71,2780.6 1310.94,2787.69C1302.98,2793.46 1293.17,2796.68 1283.52,2798.56C1278.31,2799.58 1272.02,2800.19 1265.73,2800.44C1265.58,2800.44 1265.44,2800.41 1265.31,2800.35C1265.17,2800.41 1265.03,2800.44 1264.89,2800.44C1258.6,2800.19 1252.31,2799.58 1247.1,2798.56C1237.45,2796.68 1227.64,2793.46 1219.68,2787.69C1209.9,2780.6 1196.85,2771.05 1188.42,2760.4C1180.66,2750.6 1156.16,2700.26 1155.87,2693.28C1155.44,2682.81 1151.56,2663.4 1151.56,2663.4C1151.56,2663.4 1210.12,2730.59 1214.37,2735.37C1219.08,2740.67 1222.52,2751.52 1227.19,2755.82C1231.14,2759.47 1237.95,2762.38 1242.39,2761.2C1246.84,2760.02 1250.06,2753.27 1250.87,2748.74C1251.69,2744.21 1245.41,2737.1 1247.28,2734.03C1249.15,2730.95 1259.04,2730.12 1265.11,2730.3C1265.17,2730.3 1265.24,2730.31 1265.31,2730.33Z" style="fill:rgb(56,34,23);"/>
        </g>
        <g transform="matrix(1,0,0,1.001,1109,27.5607)">
          <path d="M20093,18123C20093.7,18129.4 20091.2,18047.3 20083,18017C20079.8,18005.3 20080.5,17954.8 20074,17942C20068.8,17931.7 20057.3,17906.3 20034.1,17893C20024.8,17887.6 19985.9,17885 19982,17885C19961.3,17885 19944.6,17873.2 19916,17874C19886.8,17874.8 19871.5,17885.3 19852,17888C19848.8,17888.4 19820,17888.4 19811.2,17895.2C19795.7,17907.1 19782.1,17931.6 19779,17940C19775,17951 19770.1,18016.4 19768,18026C19765.2,18038.8 19759.7,18069.3 19758,18086C19756.3,18102.8 19756.8,18140.5 19753,18137C19749.2,18133.5 19739.1,18089.4 19735,18065C19730.5,18038.5 19733.8,18026.3 19733.2,18004C19732.7,17988.3 19737.3,17930.7 19743,17916C19744.7,17911.7 19774.7,17864.4 19800.4,17860.5C19893.4,17846.5 20055.9,17812.6 20094,17893C20102.2,17910.2 20112.4,17929.9 20116,17950C20120,17972.5 20118.5,18006.5 20118,18028C20117.6,18045.1 20117.2,18063.2 20113,18079C20108.9,18094.6 20092.4,18118.1 20093,18123Z" style="fill:rgb(56,34,23);"/>
        </g>
        <g transform="matrix(-0.198918,0,0,0.22412,22589.8,14254.7)">
          <path d="M7195.17,17312.8C7163.46,17301.4 7323.82,17207.9 7418.07,17207.9C7512.32,17207.9 7650.22,17307.3 7640.97,17312.8C7614.51,17328.5 7495.39,17276.1 7409.63,17276.1C7323.87,17276.1 7202.74,17315.6 7195.17,17312.8Z" style="fill:rgb(109,81,64);"/>
        </g>
        <g transform="matrix(0.198918,0,0,0.22412,19476.1,14254.7)">
          <path d="M7195.17,17312.8C7163.46,17301.4 7323.82,17207.9 7418.07,17207.9C7512.32,17207.9 7650.22,17307.3 7640.97,17312.8C7614.51,17328.5 7495.39,17276.1 7409.63,17276.1C7323.87,17276.1 7202.74,17315.6 7195.17,17312.8Z" style="fill:rgb(109,81,64);"/>
        </g>
        <g transform="matrix(4.25739,-0.348706,0.348356,4.26167,20315.1,17775.2)">
          <path d="M170.117,88.575C168.922,88.442 167.283,88.741 167.117,87.575C166.95,86.408 167.424,84.86 169,84C170.833,83 175.167,82.5 178,83C180.833,83.5 187.252,85.34 189.752,86.84C192.211,88.315 193,92 193,92C193,92 189.362,89.137 185.968,88.259C183.94,87.734 176.376,87.575 176.117,87.575C174.089,87.575 171.617,88.741 170.117,88.575Z" style="fill:rgb(56,34,23);"/>
        </g>
        <g transform="matrix(-4.25739,-0.348706,-0.348356,4.26167,21745.5,17775.2)">
          <path d="M170.117,88.575C168.922,88.442 167.283,88.741 167.117,87.575C166.95,86.408 167.424,84.86 169,84C170.833,83 175.167,82.5 178,83C180.833,83.5 187.252,85.34 189.752,86.84C192.211,88.315 193,92 193,92C193,92 189.362,89.137 185.968,88.259C183.94,87.734 176.376,87.575 176.117,87.575C174.089,87.575 171.617,88.741 170.117,88.575Z" style="fill:rgb(56,34,23);"/>
        </g>
        <g transform="matrix(0.948068,0,0,0.571117,18289,16746.4)">
          <path d="M2984.99,2658C2984.19,2708.91 2942.6,2750 2891.5,2750C2840.4,2750 2798.81,2708.91 2798.01,2658L2984.99,2658Z" style="fill:rgb(195,136,111);"/>
        </g>
        <g transform="matrix(0.743012,0,0,0.447591,18881.9,17080)">
          <path d="M2984.99,2658C2984.19,2708.91 2942.6,2750 2891.5,2750C2840.4,2750 2798.81,2708.91 2798.01,2658L2984.99,2658Z" style="fill:rgb(243,241,240);"/>
        </g>
        <g transform="matrix(2.00455,-0.342685,0.438186,2.63769,18248.6,12955.2)">
          <ellipse cx="833.5" cy="2084" rx="12.5" ry="31" style="fill:rgb(241,198,170);"/>
        </g>
        <g transform="matrix(-0.335535,-0.125041,-0.0734044,0.4156,21073.6,17116.6)">
          <path d="M117.422,2617.33C123.261,2600.83 139.009,2589 157.5,2589C175.991,2589 191.739,2600.83 197.578,2617.33C191.739,2608.4 175.991,2602 157.5,2602C139.009,2602 123.261,2608.4 117.422,2617.33Z" style="fill:rgb(222,165,130);"/>
        </g>
        <g transform="matrix(-0.344295,-0.518018,-0.384653,0.396432,21887.9,17218)">
          <path d="M117.422,2617.33C123.261,2600.83 139.009,2589 157.5,2589C175.991,2589 191.739,2600.83 197.578,2617.33C191.739,2608.4 175.991,2602 157.5,2602C139.009,2602 123.261,2608.4 117.422,2617.33Z" style="fill:rgb(222,165,130);"/>
        </g>
        <g transform="matrix(1.81013,0.560936,-0.652945,2.59182,21076.7,12308.4)">
          <ellipse cx="833.5" cy="2084" rx="12.5" ry="31" style="fill:rgb(241,198,170);"/>
        </g>
        <g transform="matrix(0.303856,-0.106359,0.030304,0.418609,21098.5,17116.4)">
          <path d="M117.422,2617.33C123.261,2600.83 139.009,2589 157.5,2589C175.991,2589 191.739,2600.83 197.578,2617.33C191.739,2608.4 175.991,2602 157.5,2602C139.009,2602 123.261,2608.4 117.422,2617.33Z" style="fill:rgb(222,165,130);"/>
        </g>
        <g transform="matrix(0.343612,-0.4979,0.30426,0.416535,20377.6,17172.9)">
          <path d="M117.422,2617.33C123.261,2600.83 139.009,2589 157.5,2589C175.991,2589 191.739,2600.83 197.578,2617.33C191.739,2608.4 175.991,2602 157.5,2602C139.009,2602 123.261,2608.4 117.422,2617.33Z" style="fill:rgb(222,165,130);"/>
        </g>
        <g transform="matrix(2.13032,0,0,2.13246,-21391.4,-21905.6)">
          <path d="M19984,18690C19975.3,18691 19966.5,18691.1 19958,18693C19949.2,18695 19937.5,18700.5 19931,18702C19927.1,18702.9 19918.8,18702.8 19919,18702C19919.2,18701.2 19928.5,18698.8 19932,18697C19935,18695.5 19941.8,18691.8 19940,18691C19938.2,18690.2 19915.3,18697.2 19911.9,18698C19907.1,18699.2 19876.4,18706 19872.8,18704.7C19870.5,18703.9 19876.2,18699.2 19883.7,18694.9C19888.1,18692.4 19888.7,18689.3 19883.8,18691.4C19876,18694.7 19852.5,18706.6 19845.7,18705.9C19837.2,18705.1 19851.8,18684.9 19849,18685C19844,18685.2 19830.1,18709.6 19828,18707.9C19825.8,18706.2 19833.7,18679.8 19836,18675C19839,18668.7 19845.7,18657.5 19853,18653C19860.3,18648.5 19864.3,18647.1 19870.6,18646.6C19874.3,18646.3 19883.2,18648.5 19883.5,18647.7C19883.8,18646.8 19873.2,18645.1 19870.7,18643.9C19868.9,18643.1 19889.7,18639 19895,18639.2C19898.7,18639.3 19921.2,18643.7 19922,18643C19922.8,18642.3 19906.6,18637.5 19906.6,18637.5C19906.6,18637.5 19926,18637.3 19931,18638C19937,18638.8 19945.5,18640.5 19952,18643C19958.4,18645.5 19964.5,18649.2 19970,18653C19975.4,18656.8 19981.2,18660.8 19985,18666C19988.8,18671.2 19993.2,18680 19993,18684C19992.9,18687.6 19987,18688 19984,18690" style="fill:rgb(56,34,23);"/>
        </g>
      </g>
    </g>
  </g>
</svg>
