<?xml version="1.0" encoding="UTF-8" standalone="no"?>
<!DOCTYPE svg PUBLIC "-//W3C//DTD SVG 1.1//EN" "http://www.w3.org/Graphics/SVG/1.1/DTD/svg11.dtd">
<svg width="100%" height="100%" viewBox="0 0 278 390" version="1.1" xmlns="http://www.w3.org/2000/svg" xmlns:xlink="http://www.w3.org/1999/xlink" xml:space="preserve" xmlns:serif="http://www.serif.com/" style="fill-rule:evenodd;clip-rule:evenodd;stroke-linejoin:round;stroke-miterlimit:2;">
    <g transform="matrix(1,0,0,1,-12227,-2435)">
        <g id="Plan-de-travail8" serif:id="Plan de travail8" transform="matrix(0.737401,0,0,1.01828,6031.36,-644.269)">
            <rect x="8402" y="3024" width="377" height="383" style="fill:none;"/>
            <clipPath id="_clip1">
                <rect x="8402" y="3024" width="377" height="383"/>
            </clipPath>
            <g clip-path="url(#_clip1)">
                <g transform="matrix(1.27713,0,0,2.47068,-14461.8,-7341.13)">
                    <g transform="matrix(1.45154,0,0,0.499885,4925.93,2172.22)">
                        <g transform="matrix(0.706482,0,0,0.822677,8353.91,2479.82)">
                            <ellipse cx="972.5" cy="2107" rx="117.5" ry="174" style="fill:rgb(242,204,179);"/>
                        </g>
                        <g transform="matrix(-0.0992124,0,0,0.12138,9817.31,2116.42)">
                            <path d="M7195.17,17312.8C7163.46,17301.4 7323.82,17207.9 7418.07,17207.9C7512.32,17207.9 7650.22,17307.3 7640.97,17312.8C7614.51,17328.5 7495.39,17262.6 7409.63,17262.6C7323.87,17262.6 7202.74,17315.6 7195.17,17312.8Z" style="fill:url(#_Radial2);"/>
                        </g>
                        <g transform="matrix(0.0992124,0,0,0.12138,8264.36,2115.05)">
                            <path d="M7195.17,17312.8C7163.46,17301.4 7323.82,17207.9 7418.07,17207.9C7512.32,17207.9 7650.22,17307.3 7640.97,17312.8C7614.51,17328.5 7495.39,17262.6 7409.63,17262.6C7323.87,17262.6 7202.74,17315.6 7195.17,17312.8Z" style="fill:url(#_Radial3);"/>
                        </g>
                        <g transform="matrix(0.383541,0,0,0.271287,7931.17,3550.14)">
                            <path d="M2984.99,2658C2984.19,2708.91 2942.6,2750 2891.5,2750C2840.4,2750 2798.81,2708.91 2798.01,2658L2984.99,2658Z" style="fill:rgb(212,138,119);"/>
                        </g>
                        <g transform="matrix(0.300585,0,0,0.212611,8171.04,3708.58)">
                            <path d="M2984.99,2658C2984.19,2708.91 2942.6,2750 2891.5,2750C2840.4,2750 2798.81,2708.91 2798.01,2658L2984.99,2658Z" style="fill:rgb(243,241,240);"/>
                        </g>
                        <g transform="matrix(0.885479,-0.0883675,0.0835426,0.989049,8039.33,2234.39)">
                            <ellipse cx="833.5" cy="2084" rx="12.5" ry="31" style="fill:rgb(241,204,179);"/>
                        </g>
                        <g transform="matrix(-0.140819,-0.0530135,-0.0487724,0.153064,9098.88,3836.33)">
                            <path d="M117.422,2617.33C123.261,2600.83 139.009,2589 157.5,2589C175.991,2589 191.739,2600.83 197.578,2617.33C191.739,2608.4 175.991,2602 157.5,2602C139.009,2602 123.261,2608.4 117.422,2617.33Z" style="fill:rgb(222,165,130);"/>
                        </g>
                        <g transform="matrix(-0.12869,-0.199267,-0.183326,0.13988,9448.81,3889.87)">
                            <path d="M117.422,2617.33C123.261,2600.83 139.009,2589 157.5,2589C175.991,2589 191.739,2600.83 197.578,2617.33C191.739,2608.4 175.991,2602 157.5,2602C139.009,2602 123.261,2608.4 117.422,2617.33Z" style="fill:rgb(222,165,130);"/>
                        </g>
                        <g transform="matrix(0.882571,0.117819,-0.111386,0.985802,8627.56,2069.3)">
                            <ellipse cx="833.5" cy="2084" rx="12.5" ry="31" style="fill:rgb(241,204,179);"/>
                        </g>
                        <g transform="matrix(0.140819,-0.0530135,0.0487724,0.153064,8983.81,3836.33)">
                            <path d="M117.422,2617.33C123.261,2600.83 139.009,2589 157.5,2589C175.991,2589 191.739,2600.83 197.578,2617.33C191.739,2608.4 175.991,2602 157.5,2602C139.009,2602 123.261,2608.4 117.422,2617.33Z" style="fill:rgb(222,165,130);"/>
                        </g>
                        <g transform="matrix(0.12869,-0.199267,0.183326,0.13988,8633.87,3889.87)">
                            <path d="M117.422,2617.33C123.261,2600.83 139.009,2589 157.5,2589C175.991,2589 191.739,2600.83 197.578,2617.33C191.739,2608.4 175.991,2602 157.5,2602C139.009,2602 123.261,2608.4 117.422,2617.33Z" style="fill:rgb(222,165,130);"/>
                        </g>
                        <g transform="matrix(1.18963,0,0,1.28786,-2098.22,-845.112)">
                            <path d="M9295,3842.06C9293.52,3843.32 9290.57,3843.2 9290,3845.06C9289.33,3847.23 9292,3852.23 9291,3855.06C9290,3857.89 9285,3859.89 9284,3862.06C9283.15,3863.9 9285,3866.03 9285,3868.06C9285,3870.39 9283.84,3873.38 9284,3876.06C9284.17,3878.89 9285.68,3889.94 9286,3893C9286.33,3896.17 9285.67,3900.17 9286,3903C9286.28,3905.41 9287.1,3907.75 9288,3910C9289,3912.5 9290.38,3915.5 9292,3918C9293.83,3920.83 9292.95,3926.5 9294.95,3927C9296.95,3927.5 9299.17,3923.48 9299.95,3921C9300.95,3917.83 9300.58,3912.33 9300.95,3908C9301.45,3902.17 9306.67,3893.6 9307,3887.76C9307.25,3883.44 9306,3879.65 9307,3875.65C9308,3871.65 9310.83,3869.74 9313,3866.41C9315.07,3863.22 9317.67,3860.96 9320,3858.29C9322.17,3855.81 9325.17,3851.96 9327,3851.29C9328.57,3850.72 9329.43,3853.72 9331,3854.29C9332.83,3854.96 9335.64,3855.29 9338,3855.29C9341.17,3855.29 9346.5,3854.63 9350,3854.29C9353.01,3854.01 9356.5,3854.13 9359,3853.29C9361.28,3852.53 9362.83,3849.79 9365,3849.29C9367.17,3848.79 9370.17,3849.46 9372,3850.29C9373.72,3851.07 9374.33,3853.63 9376,3854.29C9377.67,3854.96 9380.01,3854.46 9382,3854.29C9384,3854.13 9386,3853.46 9388,3853.29C9389.99,3853.13 9392.12,3852.62 9394,3853.29C9396.33,3854.13 9399.5,3856.79 9402,3858.29C9404.3,3859.68 9406.87,3860.66 9409,3862.29C9411.17,3863.96 9413.33,3866.01 9415,3868.29C9416.83,3870.79 9419.26,3873.06 9420,3876.41C9421,3880.91 9424.57,3886.66 9425.05,3892.65C9425.55,3898.81 9426.55,3904.33 9427.05,3909C9427.37,3912 9427.55,3915.5 9428.05,3918C9428.47,3920.07 9428.99,3922.18 9430.05,3924C9431.22,3926 9433.05,3930.33 9435.05,3930C9437.05,3929.67 9437,3924.33 9438,3922C9438.8,3920.14 9436.17,3917 9437,3916C9437.83,3915 9441.5,3917 9443,3916C9444.5,3915 9445.67,3912.17 9446,3910C9446.33,3907.83 9445.67,3904.17 9445,3903C9444.5,3902.13 9442.1,3903.99 9442,3903C9441.83,3901.33 9448.24,3893.75 9448.24,3890.35C9448.24,3885.69 9447.4,3876.19 9446.24,3872.35C9445.55,3870.1 9441.84,3869.63 9441.24,3867.35C9440.57,3864.85 9442.4,3860.69 9442.24,3857.35C9442.07,3854.02 9441.57,3850.48 9440.24,3847.35C9438.74,3843.85 9431,3832.01 9429,3830.18C9427.77,3829.05 9425.47,3830.97 9424,3830.18C9421.83,3829.01 9418.62,3825.57 9416,3823.18C9412.17,3819.68 9405.67,3812.51 9401,3809.18C9397.12,3806.4 9392.17,3804.01 9388,3803.18C9384.06,3802.39 9378.33,3803.68 9376,3804.18C9375.08,3804.38 9374.88,3806.53 9374,3806.18C9372.33,3805.51 9368.83,3801.51 9366,3800.18C9363.22,3798.87 9360.07,3798.04 9357,3798.18C9353.17,3798.35 9347.02,3798.61 9343,3801.18C9338.83,3803.85 9335.5,3811.01 9332,3814.18C9329.12,3816.79 9324.83,3818.85 9322,3820.18C9319.8,3821.21 9317,3820.81 9315,3822.18C9311.83,3824.35 9306.33,3830.89 9303,3834.06C9300.27,3836.66 9297.17,3840.23 9295,3842.06Z" style="fill:rgb(217,138,69);"/>
                        </g>
                    </g>
                    <g transform="matrix(0.769521,-0.0495431,0.132351,0.288054,11832.1,3430.92)">
                        <path d="M7233,4153C7233,4153 7255,4145 7266,4145C7277,4145 7288.21,4149.57 7299,4153C7310,4156.5 7332,4166 7332,4166C7332,4166 7338.51,4162.98 7340,4160C7341.5,4157 7344.36,4150.19 7341,4148C7334.33,4143.67 7312.17,4137 7300,4134C7289.56,4131.43 7278.34,4127.07 7268,4130C7256.83,4133.17 7233,4153 7233,4153Z" style="fill:rgb(217,138,69);"/>
                    </g>
                    <g transform="matrix(-0.769521,-0.0495431,-0.132351,0.288054,24267.4,3430.92)">
                        <path d="M7233,4153C7233,4153 7255,4145 7266,4145C7277,4145 7288.21,4149.57 7299,4153C7310,4156.5 7332,4166 7332,4166C7332,4166 7338.51,4162.98 7340,4160C7341.5,4157 7344.36,4150.19 7341,4148C7334.33,4143.67 7312.17,4137 7300,4134C7289.56,4131.43 7278.34,4127.07 7268,4130C7256.83,4133.17 7233,4153 7233,4153Z" style="fill:rgb(217,138,69);"/>
                    </g>
                    <g transform="matrix(1.1057,0,0,0.333683,16649.2,3420.46)">
                        <path d="M1264.52,2634.56C1264.68,2634.51 1264.86,2634.48 1265.03,2634.46C1271.7,2633.83 1277.76,2631.78 1280.71,2630.16C1287.76,2626.28 1307.12,2640.06 1310.14,2643.35C1313.49,2646.98 1324.49,2658.92 1324.49,2658.92C1324.49,2658.92 1311.21,2651.23 1303.91,2649.09C1296.02,2646.77 1283.59,2645.26 1277.11,2644.99C1273,2644.83 1269.13,2647.67 1265.02,2647.5C1264.85,2647.49 1264.68,2647.47 1264.52,2647.42C1264.36,2647.47 1264.19,2647.49 1264.02,2647.5C1259.9,2647.67 1256.04,2644.83 1251.93,2644.99C1245.44,2645.26 1233.02,2646.77 1225.12,2649.09C1217.83,2651.23 1204.55,2658.92 1204.55,2658.92C1204.55,2658.92 1215.55,2646.98 1218.89,2643.35C1221.92,2640.06 1241.27,2626.28 1248.33,2630.16C1251.28,2631.78 1257.33,2633.83 1264,2634.46C1264.18,2634.48 1264.35,2634.51 1264.52,2634.56Z" style="fill:rgb(217,138,69);"/>
                    </g>
                    <g transform="matrix(0.969197,0,0,0.365932,16822.6,3325.08)">
                        <path d="M1265.26,2755.72C1297.7,2757.35 1317.29,2715.46 1322,2710.16C1326.25,2705.38 1383.74,2663.78 1383.74,2663.78C1383.74,2663.78 1382.37,2685.89 1376.18,2700.98C1373.56,2707.38 1349.96,2750.6 1342.2,2760.4C1333.77,2771.05 1320.71,2780.6 1310.94,2787.69C1302.98,2793.46 1293.17,2796.68 1283.52,2798.56C1278.31,2799.58 1272.02,2800.19 1265.73,2800.44C1265.58,2800.44 1265.44,2800.41 1265.31,2800.35C1265.17,2800.41 1265.03,2800.44 1264.89,2800.44C1258.6,2800.19 1252.31,2799.58 1247.1,2798.56C1237.45,2796.68 1227.64,2793.46 1219.68,2787.69C1209.9,2780.6 1196.85,2771.05 1188.42,2760.4C1180.66,2750.6 1159.85,2710.5 1157.31,2704.06C1152.57,2692.05 1146.22,2657.58 1146.22,2657.58C1146.22,2657.58 1206.84,2705.6 1211.08,2710.38C1215.79,2715.68 1232.18,2754.05 1265.26,2755.72Z" style="fill:rgb(217,138,69);"/>
                    </g>
                </g>
            </g>
        </g>
    </g>
    <defs>
        <radialGradient id="_Radial2" cx="0" cy="0" r="1" gradientUnits="userSpaceOnUse" gradientTransform="matrix(136.543,3.75098,-1.13188,32.5225,7416.25,17261.6)"><stop offset="0" style="stop-color:rgb(76,59,53);stop-opacity:1"/><stop offset="1" style="stop-color:rgb(64,60,58);stop-opacity:1"/></radialGradient>
        <radialGradient id="_Radial3" cx="0" cy="0" r="1" gradientUnits="userSpaceOnUse" gradientTransform="matrix(136.543,3.75098,-1.13188,32.5225,7416.25,17261.6)"><stop offset="0" style="stop-color:rgb(76,59,53);stop-opacity:1"/><stop offset="1" style="stop-color:rgb(64,60,58);stop-opacity:1"/></radialGradient>
    </defs>
</svg>
