<?xml version="1.0" encoding="UTF-8" standalone="no"?>
<!DOCTYPE svg PUBLIC "-//W3C//DTD SVG 1.1//EN" "http://www.w3.org/Graphics/SVG/1.1/DTD/svg11.dtd">
<svg width="100%" height="100%" viewBox="0 0 407 392" version="1.1" xmlns="http://www.w3.org/2000/svg" xmlns:xlink="http://www.w3.org/1999/xlink" xml:space="preserve" xmlns:serif="http://www.serif.com/" style="fill-rule:evenodd;clip-rule:evenodd;stroke-linecap:round;stroke-linejoin:round;stroke-miterlimit:1.5;">
    <g transform="matrix(1,0,0,1,-11039,-2429)">
        <g id="Plan-de-travail8" serif:id="Plan de travail8" transform="matrix(1.07958,0,0,1.0235,1968.41,-666.06)">
            <rect x="8402" y="3024" width="377" height="383" style="fill:none;"/>
            <clipPath id="_clip1">
                <rect x="8402" y="3024" width="377" height="383"/>
            </clipPath>
            <g clip-path="url(#_clip1)">
                <g transform="matrix(1.56697,0,0,2.56652,-8903.66,-10733.4)">
                    <g transform="matrix(0.768753,0,0,0.40616,10400.3,4583.17)">
                        <ellipse cx="972.5" cy="2107" rx="117.5" ry="174" style="fill:rgb(217,162,126);"/>
                    </g>
                    <g transform="matrix(1,0,0,0.643997,841,1962.46)">
                        <ellipse cx="10349.5" cy="5421.5" rx="3.5" ry="1.5" style="fill:rgb(121,74,45);fill-opacity:0.43;"/>
                    </g>
                    <g transform="matrix(1,0,0,1.4733,1838,-835.498)">
                        <g transform="matrix(1,0,0,0.437112,-1016,2104.55)">
                            <path d="M10384.8,4937.41C10384.8,4937.41 10388.1,4938.52 10390.8,4937.58C10392.4,4937.01 10393.7,4935.73 10394,4933.01C10394,4932.98 10394,4932.97 10394,4932.96C10394,4932.96 10394,4932.97 10394,4932.99C10393.6,4934.95 10392.7,4936.09 10391.6,4936.7C10389,4938.19 10385.2,4936.59 10385.2,4936.59C10384.9,4936.5 10384.7,4936.61 10384.6,4936.84C10384.5,4937.07 10384.6,4937.33 10384.8,4937.41Z" style="fill:rgb(18,12,12);"/>
                        </g>
                        <g transform="matrix(1,0,0,0.437112,-1019,2104.12)">
                            <path d="M10384.8,4937.41C10384.8,4937.41 10388.1,4938.52 10390.8,4937.58C10392.4,4937.01 10393.7,4935.73 10394,4933.01C10394,4932.98 10394,4932.97 10394,4932.96C10394,4932.96 10394,4932.97 10394,4932.99C10393.6,4934.95 10392.7,4936.09 10391.6,4936.7C10389,4938.19 10385.2,4936.59 10385.2,4936.59C10384.9,4936.5 10384.7,4936.61 10384.6,4936.84C10384.5,4937.07 10384.6,4937.33 10384.8,4937.41Z" style="fill:rgb(18,12,12);"/>
                        </g>
                        <g transform="matrix(1,0,0,0.437112,-1021,2103.68)">
                            <path d="M10384.8,4937.55C10384.8,4937.55 10388.1,4938.64 10390.8,4937.65C10392.4,4937.06 10393.8,4935.76 10394,4933.01C10394.1,4932.98 10394,4932.95 10394,4932.95C10394,4932.95 10394,4932.97 10394,4932.99C10393.6,4934.94 10392.7,4936.05 10391.6,4936.65C10389,4938.09 10385.2,4936.45 10385.2,4936.45C10384.9,4936.33 10384.6,4936.49 10384.4,4936.79C10384.3,4937.1 10384.5,4937.44 10384.8,4937.55Z" style="fill:rgb(18,12,12);"/>
                        </g>
                        <g transform="matrix(-0.0992124,0,0,0.0488123,10087.3,3419.49)">
                            <path d="M7195.17,17312.8C7163.46,17301.4 7323.82,17207.9 7418.07,17207.9C7512.32,17207.9 7650.22,17307.3 7640.97,17312.8C7614.51,17328.5 7495.39,17272.3 7409.63,17272.3C7323.87,17272.3 7202.74,17315.6 7195.17,17312.8Z" style="fill:rgb(18,12,12);"/>
                        </g>
                    </g>
                    <g transform="matrix(-1,0,0,1.4733,20460.2,-835.498)">
                        <g transform="matrix(1,0,0,0.437112,-1016,2104.55)">
                            <path d="M10385.2,4936.59C10385.2,4936.59 10389,4938.19 10391.6,4936.7C10392.7,4936.09 10393.6,4934.95 10394,4932.99C10394,4932.97 10394,4932.96 10394,4932.96C10394,4932.97 10394,4932.98 10394,4933.01C10393.7,4935.73 10392.4,4937.01 10390.8,4937.58C10388.1,4938.52 10384.8,4937.41 10384.8,4937.41C10384.6,4937.33 10384.5,4937.07 10384.6,4936.84C10384.7,4936.61 10384.9,4936.5 10385.2,4936.59Z" style="fill:rgb(18,12,12);"/>
                        </g>
                        <g transform="matrix(1,0,0,0.437112,-1019,2104.12)">
                            <path d="M10385.2,4936.59C10385.2,4936.59 10389,4938.19 10391.6,4936.7C10392.7,4936.09 10393.6,4934.95 10394,4932.99C10394,4932.97 10394,4932.96 10394,4932.96C10394,4932.97 10394,4932.98 10394,4933.01C10393.7,4935.73 10392.4,4937.01 10390.8,4937.58C10388.1,4938.52 10384.8,4937.41 10384.8,4937.41C10384.6,4937.33 10384.5,4937.07 10384.6,4936.84C10384.7,4936.61 10384.9,4936.5 10385.2,4936.59Z" style="fill:rgb(18,12,12);"/>
                        </g>
                        <g transform="matrix(1,0,0,0.437112,-1021,2103.68)">
                            <path d="M10385.2,4936.45C10385.2,4936.45 10389,4938.09 10391.6,4936.65C10392.7,4936.05 10393.6,4934.94 10394,4932.99C10394,4932.97 10394,4932.95 10394,4932.95C10394,4932.95 10394.1,4932.98 10394,4933.01C10393.8,4935.76 10392.4,4937.06 10390.8,4937.65C10388.1,4938.64 10384.8,4937.55 10384.8,4937.55C10384.5,4937.44 10384.3,4937.1 10384.4,4936.79C10384.6,4936.49 10384.9,4936.33 10385.2,4936.45Z" style="fill:rgb(18,12,12);"/>
                        </g>
                        <g transform="matrix(-0.0992124,0,0,0.0488123,10087.3,3419.49)">
                            <path d="M7195.17,17312.8C7163.46,17301.4 7323.82,17207.9 7418.07,17207.9C7512.32,17207.9 7650.22,17307.3 7640.97,17312.8C7614.51,17328.5 7495.39,17272.3 7409.63,17272.3C7323.87,17272.3 7202.74,17315.6 7195.17,17312.8Z" style="fill:rgb(18,12,12);"/>
                        </g>
                    </g>
                    <g transform="matrix(-0.519496,-0.0289877,-0.0450122,0.334554,15163.6,4252.02)">
                        <path d="M7233,4153C7233,4153 7255.5,4139.27 7266.5,4139.27C7277.5,4139.27 7288.71,4143.84 7299.5,4147.27C7310.5,4150.77 7328.68,4159.94 7328.68,4159.94C7328.68,4159.94 7338.51,4162.98 7340,4160C7341.5,4157 7344.36,4150.19 7341,4148C7334.33,4143.67 7312.17,4137 7300,4134C7289.56,4131.43 7278.34,4127.07 7268,4130C7256.83,4133.17 7233,4153 7233,4153Z" style="fill:rgb(22,12,7);"/>
                    </g>
                    <g transform="matrix(0.519496,-0.0289877,0.0450122,0.334554,7133.81,4252.02)">
                        <path d="M7233,4153C7233,4153 7255.5,4139.27 7266.5,4139.27C7277.5,4139.27 7288.71,4143.84 7299.5,4147.27C7310.5,4150.77 7328.68,4159.94 7328.68,4159.94C7328.68,4159.94 7338.51,4162.98 7340,4160C7341.5,4157 7344.36,4150.19 7341,4148C7334.33,4143.67 7312.17,4137 7300,4134C7289.56,4131.43 7278.34,4127.07 7268,4130C7256.83,4133.17 7233,4153 7233,4153Z" style="fill:rgb(22,12,7);"/>
                    </g>
                    <g transform="matrix(0.426327,0,0,0.146731,9917.46,5085.34)">
                        <path d="M2984.99,2658C2984.19,2708.91 2942.6,2750 2891.5,2750C2840.4,2750 2798.81,2708.91 2798.01,2658L2984.99,2658Z" style="fill:rgb(164,109,75);"/>
                    </g>
                    <g transform="matrix(0.334118,0,0,0.114995,10184.1,5171.03)">
                        <path d="M2984.99,2658C2984.19,2708.91 2942.6,2750 2891.5,2750C2840.4,2750 2798.81,2708.91 2798.01,2658L2984.99,2658Z" style="fill:rgb(243,241,240);"/>
                    </g>
                    <g transform="matrix(1.08969,0,0,0.701754,-120.103,921.556)">
                        <path d="M10402,6380C10406.2,6380 10413,6377.33 10418,6376C10422.7,6374.75 10428.7,6374.5 10432,6372C10435.3,6369.5 10436.9,6365.03 10438,6361C10439.2,6356.67 10439.5,6349.5 10439,6346C10438.7,6343.62 10436.9,6341.41 10435,6340C10432,6337.83 10426.2,6333 10421,6333C10414.7,6333 10402,6336.83 10397,6340C10393.2,6342.39 10392.3,6348.17 10391,6352C10389.8,6355.52 10388.7,6359.29 10389,6363C10389.3,6367 10390.8,6373.17 10393,6376C10395,6378.61 10398.7,6380 10402,6380Z" style="fill:rgb(27,16,8);"/>
                        <path d="M10402,6380.64C10403.4,6380.62 10405.2,6380.31 10407,6379.83C10410.7,6378.91 10414.8,6377.39 10418.1,6376.47C10421.3,6375.6 10425,6375.18 10428.1,6374.22C10429.7,6373.75 10431.1,6373.14 10432.2,6372.29C10433.6,6371.24 10434.7,6369.85 10435.6,6368.3C10436.8,6366.07 10437.6,6363.49 10438.3,6361.07C10438.8,6358.98 10439.2,6356.24 10439.3,6353.56C10439.5,6350.64 10439.5,6347.81 10439.2,6345.97C10439,6344.74 10438.5,6343.56 10437.7,6342.51C10437,6341.47 10436.1,6340.56 10435.1,6339.85C10433.3,6338.52 10430.3,6336.17 10427.1,6334.56C10425.1,6333.55 10423,6332.82 10421,6332.82C10417.9,6332.82 10413.1,6333.75 10408.6,6335.07C10403.9,6336.43 10399.4,6338.19 10396.9,6339.79C10395.3,6340.78 10394.2,6342.33 10393.4,6344.1C10392.2,6346.64 10391.5,6349.61 10390.7,6351.9C10390,6354.02 10389.3,6356.23 10388.9,6358.46C10388.6,6359.98 10388.5,6361.51 10388.6,6363.03C10388.8,6365.37 10389.4,6368.45 10390.3,6371.18C10390.9,6373.2 10391.7,6375.03 10392.7,6376.25C10393.7,6377.63 10395.2,6378.69 10396.9,6379.4C10398.5,6380.1 10400.3,6380.46 10402,6380.47L10402,6380.64ZM10402,6379.53C10400.4,6379.54 10398.7,6379.22 10397.2,6378.58C10395.7,6377.94 10394.3,6376.99 10393.3,6375.75C10392.4,6374.59 10391.7,6372.85 10391,6370.94C10390.1,6368.27 10389.6,6365.26 10389.4,6362.97C10389.2,6361.51 10389.3,6360.03 10389.6,6358.57C10389.9,6356.37 10390.6,6354.19 10391.3,6352.1C10392.1,6349.82 10392.7,6346.86 10393.9,6344.33C10394.6,6342.65 10395.6,6341.16 10397.1,6340.21C10399.6,6338.61 10404.1,6336.83 10408.7,6335.47C10413.2,6334.13 10417.9,6333.19 10421,6333.18C10423,6333.18 10425,6333.88 10427,6334.87C10430.2,6336.47 10433.1,6338.82 10434.9,6340.15C10435.8,6340.84 10436.7,6341.72 10437.4,6342.73C10438.1,6343.73 10438.6,6344.86 10438.8,6346.03C10439,6347.84 10439.1,6350.65 10438.9,6353.52C10438.7,6356.17 10438.3,6358.87 10437.7,6360.93C10437.1,6363.29 10436.3,6365.81 10435,6367.97C10434.1,6369.43 10433.1,6370.73 10431.8,6371.71C10430.7,6372.49 10429.4,6373.03 10427.9,6373.46C10424.8,6374.36 10421,6374.72 10417.9,6375.53C10414.5,6376.39 10410.4,6377.83 10406.8,6378.69C10405,6379.1 10403.3,6379.38 10402,6379.36L10402,6379.53Z"/>
                    </g>
                    <g transform="matrix(1.08969,0,0,0.813805,-120.103,207.477)">
                        <path d="M10430.7,6372.81C10430.7,6372.81 10429.7,6373.68 10431.5,6375C10434.7,6377.36 10441.5,6382.83 10444.5,6387C10447.2,6390.77 10449,6395.83 10449.5,6400C10450,6404.03 10448.5,6408.07 10447.5,6412C10446.3,6416.67 10442.8,6423.83 10442.5,6428C10442.2,6431.15 10443.5,6435.5 10445.5,6437C10447.5,6438.5 10451.6,6437.73 10454.5,6437C10457.8,6436.17 10465.5,6432 10465.5,6432C10465.5,6432 10460,6439.17 10456.5,6441C10453,6442.83 10445.7,6441.17 10444.5,6443C10443.3,6444.83 10449.1,6448.6 10449.5,6452C10450,6455.83 10447.3,6461.29 10447.5,6466C10447.7,6471.33 10448.8,6478.83 10450.5,6484C10452,6488.68 10463,6497 10463,6497C10463,6497 10453.8,6491.65 10450,6488C10446,6484.17 10441.8,6479.24 10439,6474C10436.2,6468.67 10434.3,6460.17 10433,6456C10432.3,6453.69 10431,6449 10431,6449C10431,6449 10432,6461.83 10432,6467C10432,6471.35 10430.9,6475.65 10431,6480C10431.2,6486.33 10433,6505 10433,6505C10433,6505 10428,6497.37 10427,6493C10425.7,6487 10425.8,6476.67 10425,6469C10424.2,6461.64 10423.3,6454.29 10422,6447C10420.2,6436.5 10417.3,6416.17 10414,6406C10411.6,6398.61 10404.2,6390.5 10402,6386C10401,6383.88 10401,6379 10401,6379L10430.7,6372.81Z" style="fill:rgb(27,16,8);"/>
                        <path d="M10430.3,6372.48L10430.6,6372.42L10430.5,6372.42C10430.8,6372.37 10431.1,6372.45 10431.2,6372.61C10431.4,6372.77 10431.3,6372.97 10431.1,6373.1L10431.1,6373.19C10431.1,6373.19 10430.9,6373.42 10431.1,6373.79C10431.3,6374.03 10431.5,6374.29 10431.9,6374.59C10433.9,6376.05 10437.2,6378.7 10440.2,6381.5C10442.1,6383.27 10443.8,6385.11 10445,6386.74C10446.3,6388.64 10447.5,6390.85 10448.3,6393.12C10449.2,6395.44 10449.8,6397.81 10450,6399.95C10450.2,6401.61 10450.1,6403.27 10449.8,6404.92C10449.4,6407.33 10448.6,6409.73 10448,6412.09C10447.2,6415.23 10445.3,6419.51 10444.1,6423.24C10443.5,6425.02 10443,6426.68 10442.9,6428.03C10442.8,6429.74 10443.1,6431.82 10443.7,6433.57C10444.2,6434.93 10444.9,6436.1 10445.8,6436.73C10446.6,6437.33 10447.7,6437.52 10449,6437.51C10450.8,6437.49 10452.8,6437.08 10454.4,6436.68C10455.5,6436.4 10457.2,6435.72 10458.9,6434.95C10462,6433.5 10465.3,6431.74 10465.3,6431.74C10465.4,6431.66 10465.6,6431.68 10465.8,6431.78C10465.9,6431.89 10465.9,6432.05 10465.8,6432.17C10465.8,6432.17 10463.4,6435.27 10460.8,6437.92C10459.4,6439.33 10457.9,6440.6 10456.7,6441.24C10454.1,6442.58 10449.5,6442.09 10446.7,6442.4C10445.8,6442.5 10445,6442.67 10444.8,6443.13C10444.5,6443.57 10444.7,6444.15 10445.1,6444.81C10446.4,6446.81 10449.5,6449.49 10449.8,6451.97C10449.9,6452.86 10449.8,6453.83 10449.7,6454.85C10449.2,6458.28 10447.6,6462.36 10447.7,6465.99C10447.8,6468.66 10448.2,6471.86 10448.7,6475.04C10449.2,6478.22 10449.9,6481.37 10450.7,6483.95C10451.2,6485.57 10452.9,6487.62 10454.8,6489.61C10458.5,6493.36 10463.1,6496.87 10463.1,6496.87C10463.2,6496.93 10463.2,6497.03 10463.2,6497.1C10463.1,6497.17 10463,6497.19 10462.9,6497.14C10462.9,6497.14 10458.7,6494.7 10454.8,6492C10452.9,6490.68 10451.1,6489.3 10449.9,6488.11C10447.8,6486.14 10445.7,6483.88 10443.8,6481.44C10441.9,6479.11 10440.2,6476.62 10438.8,6474.06C10437.8,6472.02 10436.8,6469.51 10436,6466.96C10434.7,6462.84 10433.7,6458.61 10432.8,6456.04C10432.6,6455.28 10432.3,6454.27 10432,6453.24C10431.8,6452.39 10431.5,6451.53 10431.3,6450.81C10431.5,6452.87 10431.7,6456.39 10431.9,6459.79C10432.1,6462.54 10432.2,6465.22 10432.2,6467C10432.2,6470.48 10431.5,6473.94 10431.3,6477.4C10431.2,6478.27 10431.2,6479.13 10431.2,6480C10431.3,6482.24 10431.5,6486.03 10431.9,6490C10432.5,6497.21 10433.2,6504.98 10433.2,6504.98C10433.2,6505.07 10433.2,6505.16 10433.1,6505.19C10433,6505.21 10432.9,6505.18 10432.8,6505.1C10432.8,6505.1 10430.5,6501.64 10428.7,6498.04C10427.8,6496.28 10427.1,6494.48 10426.8,6493.04C10426.3,6491.03 10426,6488.55 10425.8,6485.84C10425.4,6480.43 10425.3,6474.13 10424.7,6469.02C10424.3,6465.35 10423.9,6461.68 10423.4,6458.01C10422.9,6454.34 10422.3,6450.68 10421.7,6447.04C10420.4,6439.9 10418.7,6428.2 10416.7,6418.25C10415.7,6413.6 10414.7,6409.32 10413.6,6406.09C10413,6404.05 10411.9,6401.95 10410.7,6399.89C10407.5,6394.51 10403.2,6389.38 10401.6,6386.14C10401.3,6385.4 10401,6384.36 10400.9,6383.28C10400.6,6381.19 10400.6,6379 10400.6,6379C10400.6,6378.83 10400.7,6378.69 10400.9,6378.65L10430.2,6372.51C10430.2,6372.45 10430.2,6372.43 10430.2,6372.43L10430.3,6372.48ZM10429.8,6373.42L10401.4,6379.29C10401.4,6379.94 10401.5,6381.6 10401.7,6383.2C10401.8,6384.2 10402.1,6385.18 10402.4,6385.86C10403.9,6389.11 10408.2,6394.22 10411.4,6399.59C10412.6,6401.69 10413.7,6403.83 10414.4,6405.91C10415.4,6409.17 10416.4,6413.47 10417.4,6418.15C10419.4,6428.1 10421.1,6439.81 10422.3,6446.96C10422.9,6450.61 10423.5,6454.28 10424,6457.95C10424.5,6461.62 10424.9,6465.3 10425.3,6468.98C10425.8,6474.1 10425.9,6480.4 10426.3,6485.81C10426.5,6488.5 10426.8,6490.97 10427.2,6492.96C10427.6,6494.38 10428.3,6496.15 10429.2,6497.88C10430.4,6500.42 10431.9,6502.88 10432.7,6504.11C10432.5,6501.85 10431.9,6495.76 10431.4,6490.02C10431.1,6486.05 10430.9,6482.25 10430.8,6480C10430.8,6479.13 10430.8,6478.26 10430.9,6477.38C10431.1,6473.92 10431.8,6470.47 10431.8,6467C10431.8,6465.23 10431.7,6462.55 10431.5,6459.8C10431.3,6454.54 10430.8,6449.01 10430.8,6449.01C10430.8,6448.93 10430.9,6448.86 10431,6448.85C10431.1,6448.84 10431.2,6448.89 10431.2,6448.97C10431.2,6448.97 10431.7,6451.08 10432.3,6453.17C10432.6,6454.19 10432.9,6455.2 10433.2,6455.96C10434,6458.53 10435,6462.76 10436.3,6466.88C10437.1,6469.41 10438.1,6471.91 10439.2,6473.94C10440.5,6476.48 10442.2,6478.95 10444,6481.26C10446,6483.69 10448.1,6485.93 10450.1,6487.89C10451.4,6489.08 10453.2,6490.44 10455.1,6491.74C10457.1,6493.14 10459.2,6494.46 10460.7,6495.41C10459,6494.03 10456.6,6491.98 10454.5,6489.85C10452.5,6487.81 10450.8,6485.71 10450.3,6484.05C10449.4,6481.46 10448.7,6478.29 10448.2,6475.1C10447.7,6471.9 10447.3,6468.68 10447.2,6466.01C10447.1,6462.35 10448.7,6458.24 10449.1,6454.8C10449.3,6453.81 10449.3,6452.88 10449.2,6452.03C10448.9,6449.6 10445.8,6447.01 10444.6,6445.06C10444.1,6444.2 10443.9,6443.45 10444.2,6442.87C10444.6,6442.31 10445.5,6442 10446.6,6441.87C10449.4,6441.56 10453.8,6442.07 10456.3,6440.76C10457.5,6440.14 10458.9,6438.9 10460.2,6437.54C10461.8,6435.94 10463.3,6434.17 10464.2,6433.03C10463,6433.69 10461.1,6434.66 10459.2,6435.53C10457.5,6436.32 10455.8,6437.03 10454.6,6437.32C10452.9,6437.75 10450.9,6438.18 10449,6438.21C10447.5,6438.23 10446.2,6437.97 10445.2,6437.27C10444.3,6436.57 10443.5,6435.3 10442.9,6433.8C10442.3,6431.95 10441.9,6429.77 10442.1,6427.97C10442.2,6426.59 10442.6,6424.87 10443.2,6423.02C10444.4,6419.3 10446.2,6415.04 10447,6411.91C10447.6,6409.57 10448.4,6407.18 10448.8,6404.79C10449,6403.21 10449.2,6401.63 10449,6400.05C10448.7,6397.97 10448.1,6395.67 10447.3,6393.42C10446.4,6391.23 10445.3,6389.09 10444,6387.26C10442.9,6385.68 10441.2,6383.91 10439.3,6382.19C10436.4,6379.45 10433.1,6376.85 10431.1,6375.41C10430.3,6374.84 10430,6374.32 10429.9,6373.91C10429.8,6373.73 10429.8,6373.57 10429.8,6373.42Z"/>
                    </g>
                    <g transform="matrix(1.08969,0,0,0.701754,-120.103,921.556)">
                        <path d="M10405,6369.8C10405.4,6369.77 10410.7,6369.44 10415.1,6368.26C10417.9,6367.53 10420.2,6366.47 10421,6365C10420.4,6366.18 10418.8,6367.11 10416.8,6367.83C10414.6,6368.63 10412,6369.17 10409.8,6369.55C10407.1,6370 10405,6370.2 10405,6370.2C10405,6370.2 10405,6370.2 10405,6370.2C10405,6370.2 10402,6369.78 10398.9,6369.39C10395.9,6369 10392.9,6368.63 10392.9,6368.63C10392.5,6368.57 10392.3,6368.24 10392.4,6367.9C10392.4,6367.55 10392.8,6367.31 10393.1,6367.37C10393.1,6367.37 10396.1,6368 10399.1,6368.61C10401.9,6369.19 10404.7,6369.74 10405,6369.8Z"/>
                    </g>
                    <g transform="matrix(1.08969,0,0,0.701754,-113.103,922.844)">
                        <path d="M10415.5,6377.39C10419.9,6382.95 10426,6388.27 10430.3,6393.85C10432.4,6396.51 10434,6399.22 10434.8,6402.06C10435.5,6404.72 10435.5,6407.6 10435.1,6410.55C10434.1,6417.32 10431,6424.43 10429.9,6429.99C10429.6,6431.99 10429.2,6434 10428.8,6436C10427.9,6440.67 10426.9,6445.33 10426,6450C10426.9,6445.34 10427.9,6440.68 10428.9,6436.02C10429.3,6434.02 10429.7,6432.02 10430.1,6430.01C10431.1,6424.45 10434.3,6417.36 10435.4,6410.59C10435.8,6407.6 10435.9,6404.66 10435.2,6401.94C10434.5,6399.03 10432.9,6396.22 10430.9,6393.45C10426.7,6387.78 10420.7,6382.29 10416.5,6376.61C10416.3,6376.34 10415.9,6376.28 10415.6,6376.49C10415.3,6376.71 10415.3,6377.11 10415.5,6377.39Z"/>
                    </g>
                    <g transform="matrix(1.08969,0,0,0.813805,-127.103,201.681)">
                        <path d="M10454,6491C10454,6491 10449,6478.24 10445.6,6466.01C10443.8,6459.51 10442.5,6453.16 10442.5,6449C10442.5,6448.74 10442.3,6448.53 10442,6448.53C10441.7,6448.53 10441.5,6448.74 10441.5,6449C10441.5,6453.2 10443.1,6459.59 10445.1,6466.13C10448.8,6478.3 10454,6491 10454,6491Z"/>
                    </g>
                    <g transform="matrix(1.08969,0,0,0.701754,-120.103,921.556)">
                        <path d="M10379,6344C10370.2,6341.5 10349.7,6336.33 10336,6336C10323.6,6335.7 10310.9,6339.11 10300,6345C10288,6351.5 10272,6364.67 10264,6375C10257,6384.01 10254.2,6395.82 10252,6407C10249.7,6418.83 10249.8,6435.83 10250,6446C10250.1,6453.4 10251.8,6462.67 10253,6468C10253.8,6471.51 10255.4,6474.79 10257,6478C10259.3,6482.67 10265,6501.68 10268.8,6507.01C10272.6,6512.18 10277.8,6517.18 10281.8,6521.01C10285.3,6524.29 10292.8,6530.01 10292.8,6530.01C10292.8,6530.01 10283,6518.68 10279.8,6512.01C10276.7,6505.35 10272.5,6486.59 10272,6479C10271.5,6471.33 10273.3,6462.83 10275,6455C10276.7,6447.17 10283.1,6429.98 10287.5,6426.49C10295,6420.6 10303.7,6416.33 10311,6415.49C10317.4,6414.77 10323.7,6413.89 10330,6412.49C10337.5,6410.83 10348.7,6408.16 10356,6405.49C10362.3,6403.2 10372.8,6399.74 10376.8,6397.41C10379,6396.1 10381.2,6394.52 10382.8,6392.41C10385.4,6388.74 10387.8,6385 10390,6380C10391.8,6375.92 10393.2,6371.44 10393,6367C10392.8,6362.17 10390.8,6354.33 10389,6351C10387.7,6348.65 10381.6,6344.73 10379,6344Z" style="fill:rgb(27,16,8);stroke:black;stroke-width:0.54px;"/>
                    </g>
                    <g transform="matrix(1.08969,0,0,0.701754,-120.103,921.556)">
                        <path d="M10332,6352C10332,6352 10344,6347.94 10356.6,6347.84C10362.2,6347.8 10367.9,6348.53 10372.7,6350.74C10373.1,6350.93 10373.6,6350.74 10373.7,6350.33C10373.9,6349.91 10373.7,6349.44 10373.3,6349.26C10368.3,6347.15 10362.3,6346.6 10356.6,6346.87C10343.9,6347.46 10332,6352 10332,6352Z"/>
                    </g>
                    <g transform="matrix(1.08969,0,0,0.701754,-120.103,921.556)">
                        <path d="M10332,6396.06C10332,6396.06 10355.2,6388.88 10370.6,6379.75C10377.2,6375.85 10382.3,6371.53 10383.9,6367.32C10384.1,6366.83 10383.8,6366.28 10383.3,6366.11C10382.8,6365.93 10382.3,6366.19 10382.1,6366.68C10381.3,6369.02 10379.3,6371.39 10376.6,6373.74C10373.4,6376.46 10369.2,6379.12 10364.8,6381.61C10350.1,6389.73 10332,6395.94 10332,6395.94C10332,6395.95 10331.9,6395.99 10331.9,6396.02C10332,6396.05 10332,6396.07 10332,6396.06Z"/>
                    </g>
                    <g transform="matrix(1.08969,0,0,0.701754,-120.103,921.556)">
                        <path d="M10301,6392C10301,6392 10289.3,6401.06 10285,6407C10280.3,6413.5 10275.8,6422.52 10273,6431C10270.2,6439.5 10270,6449.33 10268,6458C10266.1,6466.43 10260.4,6494.6 10258.2,6500.44C10256.9,6504.08 10254.4,6507.44 10252.2,6510.44C10250.2,6513.31 10245.2,6518.44 10245.2,6518.44C10245.2,6518.44 10251.9,6508.25 10253.2,6502.44C10254.9,6495.1 10257.4,6466.34 10258,6457C10258.7,6446.67 10258.5,6431.83 10260,6423C10261.1,6416.35 10264.2,6409.83 10267,6404C10269.7,6398.34 10273.1,6392.96 10277,6388C10281.2,6382.67 10292,6372 10292,6372" style="fill:rgb(27,16,8);"/>
                        <path d="M10246.4,6517.02C10247.2,6516.12 10248.3,6514.88 10249.4,6513.62C10250.4,6512.45 10251.4,6511.27 10252.1,6510.33C10253.4,6508.53 10254.8,6506.59 10256,6504.54C10256.8,6503.2 10257.5,6501.81 10258.1,6500.37C10258.8,6498.32 10260,6493.49 10261.3,6487.74C10263.7,6477.15 10266.5,6463.4 10267.7,6457.93C10269.1,6451.88 10269.6,6445.27 10270.7,6438.94C10271.2,6436.17 10271.8,6433.46 10272.6,6430.87C10274,6426.71 10275.7,6422.43 10277.7,6418.36C10279.8,6414.09 10282.2,6410.06 10284.6,6406.69C10286,6404.7 10288.2,6402.37 10290.6,6400.13C10295.3,6395.61 10300.6,6391.5 10300.6,6391.5C10300.9,6391.28 10301.3,6391.33 10301.5,6391.61C10301.7,6391.89 10301.7,6392.29 10301.4,6392.5C10301.4,6392.5 10296.1,6396.53 10291.4,6400.97C10289,6403.13 10286.8,6405.38 10285.4,6407.31C10283,6410.61 10280.7,6414.57 10278.6,6418.78C10276.6,6422.79 10274.8,6427.02 10273.4,6431.13C10272.5,6433.68 10271.9,6436.35 10271.4,6439.07C10270.2,6445.4 10269.7,6452.02 10268.3,6458.07C10267,6463.53 10264.2,6477.26 10261.7,6487.84C10260.4,6493.61 10259.2,6498.44 10258.4,6500.5C10257.9,6501.96 10257.2,6503.37 10256.4,6504.73C10255.1,6506.79 10253.7,6508.73 10252.4,6510.54C10251.7,6511.49 10250.7,6512.68 10249.7,6513.85C10247.6,6516.24 10245.4,6518.56 10245.4,6518.56C10245.3,6518.62 10245.2,6518.63 10245.1,6518.57C10245.1,6518.52 10245.1,6518.42 10245.1,6518.34C10245.1,6518.34 10248.1,6513.78 10250.5,6509.03C10251.6,6506.69 10252.6,6504.31 10253.1,6502.4C10253.8,6499.24 10254.6,6492.13 10255.4,6484.3C10256.5,6473.93 10257.4,6462.3 10257.8,6456.98C10258.2,6450.01 10258.2,6440.99 10258.7,6433.15C10258.9,6429.35 10259.2,6425.83 10259.7,6422.95C10260.1,6420.28 10260.9,6417.64 10261.8,6415.05C10263.2,6411.15 10265,6407.37 10266.7,6403.84C10268,6401 10269.6,6398.22 10271.2,6395.53C10272.9,6392.84 10274.7,6390.24 10276.7,6387.75C10278.1,6385.94 10280.2,6383.53 10282.5,6381.12C10286.9,6376.38 10291.7,6371.66 10291.7,6371.66C10291.9,6371.48 10292.2,6371.48 10292.3,6371.67C10292.5,6371.86 10292.5,6372.15 10292.3,6372.34C10292.3,6372.34 10287.6,6377.01 10283.1,6381.72C10280.9,6384.09 10278.7,6386.47 10277.3,6388.25C10275.4,6390.72 10273.6,6393.29 10271.9,6395.94C10270.2,6398.6 10268.7,6401.35 10267.3,6404.16C10265.6,6407.66 10263.8,6411.4 10262.4,6415.28C10261.5,6417.82 10260.8,6420.43 10260.3,6423.05C10259.8,6425.92 10259.5,6429.41 10259.3,6433.18C10258.8,6441.03 10258.7,6450.05 10258.2,6457.02C10257.9,6462.34 10256.9,6473.96 10255.8,6484.34C10255,6492.19 10254.1,6499.32 10253.4,6502.48C10253,6504.41 10252,6506.82 10250.8,6509.18C10249.2,6512.27 10247.4,6515.28 10246.4,6517.02Z"/>
                    </g>
                    <g transform="matrix(1.08969,0,0,0.701754,-120.103,921.556)">
                        <path d="M10253,6421C10254.4,6415.65 10255.6,6410.19 10257,6404.85C10257.7,6402.56 10258.3,6400.29 10259.2,6398.06C10260.8,6393.57 10262.4,6388.95 10264.5,6384.55C10265.9,6381.63 10267.4,6378.81 10269.3,6376.19C10271.6,6372.86 10274.4,6369.56 10277.5,6366.5C10280.5,6363.51 10283.8,6360.75 10287.3,6358.43C10290.3,6356.4 10294.4,6354.3 10298.6,6352.33C10305.2,6349.2 10312.3,6346.39 10316.3,6344.68C10317.2,6344.28 10318.2,6343.95 10319.2,6343.65C10321.5,6342.95 10323.9,6342.46 10326.2,6341.78C10326.7,6341.65 10326.9,6341.2 10326.8,6340.77C10326.6,6340.34 10326.2,6340.09 10325.8,6340.22C10323.4,6340.94 10321,6341.46 10318.7,6342.2C10317.7,6342.52 10316.7,6342.89 10315.7,6343.32C10311.7,6345.09 10304.7,6348.01 10298,6351.24C10293.8,6353.3 10289.7,6355.48 10286.7,6357.57C10283.2,6359.98 10279.9,6362.82 10276.9,6365.9C10273.8,6369.03 10271.1,6372.41 10268.7,6375.81C10266.9,6378.48 10265.4,6381.35 10264,6384.33C10262,6388.77 10260.4,6393.43 10258.8,6397.94C10258.1,6400.2 10257.4,6402.48 10256.8,6404.79C10255.4,6410.15 10254.4,6415.62 10253,6421Z"/>
                    </g>
                    <g transform="matrix(1.08969,0,0,0.754673,-120.103,584.36)">
                        <path d="M10414,6471C10415.3,6478.5 10414.3,6487 10414,6494C10413.7,6500.36 10412,6513 10412,6513C10412,6513 10419.2,6484.67 10421,6475C10422.2,6468.42 10422.8,6461.7 10423,6455C10423.2,6448.17 10422.7,6440.83 10422,6434C10421.3,6427.29 10421.1,6420.42 10419,6414C10416.5,6406.17 10411.2,6393.67 10407,6387C10403.8,6381.8 10396,6373.5 10394,6374C10392,6374.5 10394.1,6384.73 10395,6390C10396.2,6397.17 10399.3,6407.94 10401,6417C10402.8,6426.83 10403.8,6440 10406,6449C10407.8,6456.59 10412.7,6463.5 10414,6471Z" style="fill:rgb(27,16,8);"/>
                        <path d="M10413.4,6471.1C10413.9,6474.02 10414.1,6477.1 10414.1,6480.18C10414.1,6484.96 10413.7,6489.74 10413.5,6493.98C10413.4,6496.06 10413.2,6498.81 10412.9,6501.57C10412.3,6507.24 10411.6,6512.95 10411.6,6512.95C10411.5,6513.16 10411.7,6513.36 10411.9,6513.4C10412.1,6513.43 10412.4,6513.3 10412.4,6513.09C10412.4,6513.09 10415.4,6501.28 10417.9,6490.31C10419.3,6484.27 10420.6,6478.48 10421.3,6475.05C10421.9,6471.74 10422.3,6468.41 10422.7,6465.06C10423,6461.71 10423.1,6458.36 10423.2,6455.01C10423.3,6451.58 10423.2,6448.03 10423,6444.48C10422.8,6440.94 10422.5,6437.4 10422.2,6433.99C10421.8,6429.97 10421.5,6425.9 10420.9,6421.9C10420.5,6419.2 10420,6416.54 10419.2,6413.95C10417.9,6410.08 10416,6405.06 10413.9,6400.16C10411.7,6395.16 10409.3,6390.28 10407.2,6386.91C10405.5,6384.29 10402.8,6380.89 10400.2,6378.2C10398.4,6376.43 10396.8,6374.97 10395.6,6374.26C10394.9,6373.86 10394.3,6373.7 10393.9,6373.79C10393.7,6373.86 10393.5,6374.04 10393.3,6374.35C10393,6374.88 10392.9,6375.83 10392.9,6377.03C10393,6380.59 10394.2,6386.45 10394.7,6390.04C10395,6391.68 10395.4,6393.52 10395.8,6395.48C10397.2,6402.06 10399.4,6410.06 10400.7,6417.05C10401.9,6423.77 10402.8,6432.05 10403.9,6439.49C10404.4,6442.95 10404.9,6446.22 10405.6,6449.08C10407,6455.14 10410.4,6460.77 10412.4,6466.61C10412.9,6468.08 10413.3,6469.57 10413.5,6471.07L10413.4,6471.1ZM10413.3,6505.99C10414.4,6501.63 10415.9,6495.79 10417.3,6490.17C10418.7,6484.15 10420.1,6478.38 10420.7,6474.95C10421.4,6471.67 10421.8,6468.35 10422.2,6465.02C10422.5,6461.68 10422.7,6458.34 10422.8,6454.99C10422.9,6451.58 10422.8,6448.04 10422.6,6444.5C10422.4,6440.96 10422.1,6437.43 10421.8,6434.02C10421.4,6430 10421.2,6425.94 10420.6,6421.94C10420.2,6419.26 10419.7,6416.62 10418.8,6414.05C10417.6,6410.18 10415.7,6405.17 10413.5,6400.29C10411.3,6395.31 10408.9,6390.46 10406.8,6387.09C10405.2,6384.5 10402.4,6381.13 10399.8,6378.48C10398.1,6376.74 10396.5,6375.31 10395.3,6374.62C10394.8,6374.3 10394.4,6374.13 10394.1,6374.21C10393.8,6374.26 10393.7,6374.49 10393.6,6374.81C10393.4,6375.61 10393.4,6376.99 10393.5,6378.64C10393.8,6382.16 10394.8,6386.9 10395.3,6389.96C10395.5,6391.6 10395.9,6393.42 10396.3,6395.37C10397.8,6401.96 10400,6409.96 10401.3,6416.95C10402.6,6423.67 10403.5,6431.95 10404.6,6439.39C10405.1,6442.82 10405.7,6446.08 10406.4,6448.92C10407.9,6454.95 10411.2,6460.55 10413.2,6466.36C10413.8,6467.86 10414.2,6469.38 10414.5,6470.93L10414.6,6470.9C10415.1,6473.9 10415.3,6477.04 10415.3,6480.19C10415.2,6484.98 10414.7,6489.78 10414.5,6494.02C10414.4,6496.11 10414.1,6498.88 10413.8,6501.66C10413.7,6503.13 10413.5,6504.61 10413.3,6505.99Z"/>
                    </g>
                    <g transform="matrix(1.08969,0,0,0.754673,-120.103,584.36)">
                        <path d="M10380,6399C10382,6404.67 10388.5,6414.76 10392,6423C10395.7,6431.67 10400.5,6441.2 10402,6451C10403.8,6463.17 10403.7,6484.83 10403,6496C10402.6,6503.51 10398,6518 10398,6518C10398,6518 10410.7,6519.33 10412.6,6511.21C10424.4,6460.38 10410.7,6438 10408,6424C10405.5,6410.82 10400.7,6393.67 10398,6385C10396.6,6380.44 10395,6371.33 10392,6372C10389,6372.67 10382,6384.5 10380,6389C10378.6,6392.05 10378.9,6395.86 10380,6399Z" style="fill:rgb(27,16,8);"/>
                        <path d="M10379.4,6399.19C10379.9,6400.59 10380.7,6402.28 10381.6,6404.13C10384.5,6409.74 10388.9,6416.98 10391.5,6423.18C10393.8,6428.4 10396.4,6433.94 10398.5,6439.66C10399.9,6443.39 10401,6447.2 10401.6,6451.05C10402.4,6455.93 10402.8,6462.34 10403,6468.98C10403.3,6478.88 10403.1,6489.31 10402.8,6495.99C10402.6,6498.44 10402,6501.65 10401.3,6504.85C10399.9,6511.42 10397.8,6517.95 10397.8,6517.95C10397.8,6518 10397.8,6518.06 10397.8,6518.1C10397.9,6518.15 10397.9,6518.17 10398,6518.18C10398,6518.18 10404.1,6518.81 10408.5,6516.5C10410.5,6515.46 10412.2,6513.81 10412.8,6511.25C10416.9,6493.37 10417.9,6479.01 10417.4,6467.29C10416.4,6445.67 10410,6433.04 10408.3,6423.96C10407.1,6417.85 10405.5,6410.9 10403.8,6404.33C10401.8,6396.69 10399.8,6389.57 10398.3,6384.91C10397.5,6382.17 10396.6,6377.81 10395.4,6374.88C10394.8,6373.62 10394.2,6372.62 10393.6,6372.08C10393.1,6371.67 10392.5,6371.51 10391.9,6371.64C10390.7,6371.9 10389,6373.72 10387.1,6376.19C10384.1,6380.23 10380.9,6386 10379.6,6388.84C10378.9,6390.42 10378.6,6392.2 10378.6,6394C10378.6,6395.76 10379,6397.53 10379.6,6399.14L10379.4,6399.19ZM10398.3,6517.84C10399.4,6517.93 10404.5,6518.19 10408.3,6516.21C10410.3,6515.21 10411.8,6513.64 10412.4,6511.18C10416.6,6493.33 10417.6,6479 10417,6467.3C10415.9,6445.71 10409.5,6433.12 10407.7,6424.04C10406.6,6417.95 10404.9,6411.02 10403.2,6404.46C10401.2,6396.85 10399.1,6389.74 10397.7,6385.09C10396.8,6382.38 10395.9,6378.05 10394.7,6375.14C10394.3,6374.21 10393.8,6373.43 10393.4,6372.91C10393,6372.49 10392.6,6372.25 10392.1,6372.36C10391.6,6372.47 10390.9,6372.98 10390.2,6373.73C10389.1,6374.84 10387.9,6376.49 10386.6,6378.33C10384,6382.12 10381.5,6386.72 10380.4,6389.16C10379.8,6390.64 10379.5,6392.31 10379.5,6393.98C10379.6,6395.66 10379.9,6397.34 10380.4,6398.86L10380.6,6398.82C10381.1,6400.19 10381.8,6401.83 10382.7,6403.65C10385.6,6409.3 10389.9,6416.59 10392.5,6422.82C10394.7,6428.08 10397.3,6433.65 10399.4,6439.4C10400.7,6443.18 10401.8,6447.05 10402.4,6450.95C10403.1,6455.85 10403.5,6462.29 10403.7,6468.96C10403.9,6478.89 10403.7,6489.33 10403.2,6496.01C10403.1,6498.49 10402.5,6501.72 10401.8,6504.94C10400.4,6510.82 10398.6,6516.67 10398.3,6517.84Z"/>
                    </g>
                    <g transform="matrix(1.08969,0,0,0.701754,-120.103,921.556)">
                        <path d="M10384,6347C10384,6347 10385.7,6336.5 10389,6333C10392.3,6329.5 10399,6327 10404,6326C10408.9,6325.02 10414.3,6325.83 10419,6327C10423.6,6328.16 10429.3,6331 10432,6333C10433.8,6334.34 10434.3,6337.67 10435,6339C10435.3,6339.67 10436.7,6341.11 10436,6341C10434.8,6340.83 10430.8,6338.53 10428,6338C10424.5,6337.33 10419.2,6336 10415,6337C10410.8,6338 10406.2,6341.33 10403,6344C10400.1,6346.45 10397.8,6350.83 10396,6353C10394.8,6354.44 10392,6357 10392,6357L10384,6347Z" style="fill:rgb(27,16,8);"/>
                        <path d="M10383.4,6346.93C10383.3,6347.06 10383.4,6347.19 10383.5,6347.29L10383.6,6347.29L10391.7,6357.25C10391.8,6357.33 10391.9,6357.39 10392,6357.4C10392.1,6357.4 10392.2,6357.37 10392.3,6357.29C10392.3,6357.29 10393.5,6356.12 10394.7,6354.92C10395.3,6354.32 10395.9,6353.72 10396.3,6353.24C10397.6,6351.68 10399.1,6349 10400.9,6346.69C10401.6,6345.78 10402.4,6344.93 10403.2,6344.23C10405.1,6342.64 10407.5,6340.81 10410,6339.38C10411.7,6338.42 10413.4,6337.64 10415.1,6337.24C10416.7,6336.85 10418.4,6336.81 10420.2,6336.94C10423,6337.15 10425.8,6337.8 10428,6338.19C10428.7,6338.33 10429.5,6338.6 10430.4,6338.92C10432.7,6339.8 10435.1,6341.05 10436,6341.18C10436.2,6341.2 10436.3,6341.14 10436.3,6341.07C10436.4,6340.98 10436.4,6340.81 10436.3,6340.6C10436.1,6340.15 10435.4,6339.37 10435.2,6338.92C10434.7,6337.98 10434.3,6336.02 10433.4,6334.49C10433.1,6333.84 10432.6,6333.26 10432.1,6332.86C10430.7,6331.78 10428.4,6330.46 10425.8,6329.28C10423.6,6328.25 10421.2,6327.33 10419.1,6326.78C10416.7,6326.18 10414.1,6325.66 10411.6,6325.42C10409,6325.18 10406.4,6325.2 10403.9,6325.68C10401,6326.25 10397.4,6327.33 10394.3,6328.83C10392.1,6329.91 10390.1,6331.2 10388.7,6332.67C10387.5,6333.88 10386.5,6335.92 10385.7,6338.09C10384.2,6342.25 10383.4,6346.9 10383.4,6346.9L10383.4,6346.93ZM10436,6340.82C10436,6340.73 10435.9,6340.56 10435.8,6340.41C10435.5,6339.97 10435,6339.42 10434.8,6339.08C10434.4,6338.25 10434.1,6336.66 10433.4,6335.25C10433,6334.41 10432.6,6333.63 10431.9,6333.14C10430.5,6332.08 10428.2,6330.78 10425.7,6329.63C10423.5,6328.63 10421.1,6327.75 10418.9,6327.22C10416.6,6326.65 10414.1,6326.17 10411.5,6325.96C10409,6325.76 10406.5,6325.82 10404.1,6326.32C10401.2,6326.93 10397.7,6328.05 10394.7,6329.58C10392.6,6330.64 10390.7,6331.9 10389.3,6333.33C10388.3,6334.48 10387.4,6336.41 10386.7,6338.45C10385.4,6342.28 10384.7,6346.52 10384.6,6347.05L10392,6356.42C10392.5,6356 10393.4,6355.2 10394.2,6354.38C10394.8,6353.81 10395.3,6353.23 10395.7,6352.76C10397,6351.23 10398.6,6348.57 10400.4,6346.29C10401.1,6345.35 10401.9,6344.48 10402.8,6343.77C10404.7,6342.17 10407.2,6340.35 10409.7,6338.92C10411.5,6337.95 10413.2,6337.16 10414.9,6336.76C10416.6,6336.38 10418.4,6336.34 10420.2,6336.49C10423.1,6336.73 10425.9,6337.39 10428,6337.81C10428.8,6337.95 10429.7,6338.23 10430.5,6338.56C10432.8,6339.43 10435.1,6340.68 10436,6340.82Z"/>
                    </g>
                </g>
            </g>
        </g>
    </g>
</svg>
